%TF.GenerationSoftware,KiCad,Pcbnew,(6.0.10-0)*%
%TF.CreationDate,2024-01-07T11:11:29+09:00*%
%TF.ProjectId,AutoFeeder_Drum-type,4175746f-4665-4656-9465-725f4472756d,02*%
%TF.SameCoordinates,Original*%
%TF.FileFunction,Drillmap*%
%TF.FilePolarity,Positive*%
%FSLAX45Y45*%
G04 Gerber Fmt 4.5, Leading zero omitted, Abs format (unit mm)*
G04 Created by KiCad (PCBNEW (6.0.10-0)) date 2024-01-07 11:11:29*
%MOMM*%
%LPD*%
G01*
G04 APERTURE LIST*
%ADD10C,0.100000*%
%ADD11C,0.200000*%
%ADD12C,0.040000*%
%ADD13C,0.060000*%
%ADD14C,0.080000*%
G04 APERTURE END LIST*
D10*
X18500000Y-6100000D02*
X18550000Y-6050000D01*
X18550000Y-6050000D02*
X19550000Y-6050000D01*
X19550000Y-6050000D02*
X19600000Y-6100000D01*
X19600000Y-7800000D02*
X18500000Y-7800000D01*
X18450000Y-7650000D02*
X18500000Y-7700000D01*
X18450000Y-6400000D02*
X18500000Y-6350000D01*
X18500000Y-7700000D02*
X18500000Y-7800000D01*
X19600000Y-6100000D02*
X19600000Y-7800000D01*
X18500000Y-6100000D02*
X18500000Y-6350000D01*
X18350000Y-9350000D02*
X18300000Y-9400000D01*
X19550000Y-9750000D02*
X19600000Y-9700000D01*
X17150000Y-11950000D02*
X17200000Y-12000000D01*
X19550000Y-9750000D02*
X18550000Y-9750000D01*
X18450000Y-8100000D02*
X18500000Y-8050000D01*
X13650000Y-6000000D02*
X18300000Y-6000000D01*
X17150000Y-8050000D02*
X17150000Y-11950000D01*
X15900000Y-8050000D02*
X15900000Y-13950000D01*
X19600000Y-9700000D02*
X19600000Y-8843512D01*
X18350000Y-6400000D02*
X18300000Y-6350000D01*
X18350000Y-7650000D02*
X18450000Y-7650000D01*
X17100000Y-8000000D02*
X17150000Y-8050000D01*
X18500000Y-8000000D02*
X20500000Y-8000000D01*
X18350000Y-7650000D02*
X18300000Y-7700000D01*
X18500000Y-9400000D02*
X18500000Y-9700000D01*
X18350000Y-6400000D02*
X18450000Y-6400000D01*
X13700000Y-9000000D02*
X15000000Y-9000000D01*
X18300000Y-9400000D02*
X18300000Y-11950000D01*
X17100000Y-8000000D02*
X15950000Y-8000000D01*
X15050000Y-13950000D02*
X15100000Y-14000000D01*
X20500000Y-8843512D02*
X19600000Y-8843512D01*
X15850000Y-14000000D02*
X15900000Y-13950000D01*
X18350000Y-9350000D02*
X18450000Y-9350000D01*
X15100000Y-14000000D02*
X15850000Y-14000000D01*
X18500000Y-8050000D02*
X18500000Y-8000000D01*
X18500000Y-9700000D02*
X18550000Y-9750000D01*
X15000000Y-9000000D02*
X15050000Y-9050000D01*
X15050000Y-9050000D02*
X15050000Y-13950000D01*
X15950000Y-8000000D02*
X15900000Y-8050000D01*
X18350000Y-8100000D02*
X18300000Y-8050000D01*
X18300000Y-7700000D02*
X18300000Y-8050000D01*
X13650000Y-8950000D02*
X13700000Y-9000000D01*
X18450000Y-9350000D02*
X18500000Y-9400000D01*
X18350000Y-8100000D02*
X18450000Y-8100000D01*
X17200000Y-12000000D02*
X18250000Y-12000000D01*
X20500000Y-8000000D02*
X20500000Y-8843512D01*
X13650000Y-6000000D02*
X13650000Y-8950000D01*
X18300000Y-6000000D02*
X18300000Y-6350000D01*
X18250000Y-12000000D02*
X18300000Y-11950000D01*
D11*
D12*
X14137340Y-7342880D02*
X14177340Y-7382880D01*
X14177340Y-7342880D02*
X14137340Y-7382880D01*
X14137340Y-8371540D02*
X14177340Y-8411540D01*
X14177340Y-8371540D02*
X14137340Y-8411540D01*
X14178600Y-6580800D02*
X14218600Y-6620800D01*
X14218600Y-6580800D02*
X14178600Y-6620800D01*
X14394500Y-8362000D02*
X14434500Y-8402000D01*
X14434500Y-8362000D02*
X14394500Y-8402000D01*
X14407200Y-7485700D02*
X14447200Y-7525700D01*
X14447200Y-7485700D02*
X14407200Y-7525700D01*
X14480000Y-6580800D02*
X14520000Y-6620800D01*
X14520000Y-6580800D02*
X14480000Y-6620800D01*
X14484250Y-8266750D02*
X14524250Y-8306750D01*
X14524250Y-8266750D02*
X14484250Y-8306750D01*
X14648500Y-7346000D02*
X14688500Y-7386000D01*
X14688500Y-7346000D02*
X14648500Y-7386000D01*
X14724700Y-7727000D02*
X14764700Y-7767000D01*
X14764700Y-7727000D02*
X14724700Y-7767000D01*
X14839000Y-8552500D02*
X14879000Y-8592500D01*
X14879000Y-8552500D02*
X14839000Y-8592500D01*
X14890000Y-7300000D02*
X14930000Y-7340000D01*
X14930000Y-7300000D02*
X14890000Y-7340000D01*
X14966000Y-8180450D02*
X15006000Y-8220450D01*
X15006000Y-8180450D02*
X14966000Y-8220450D01*
X14966000Y-8489000D02*
X15006000Y-8529000D01*
X15006000Y-8489000D02*
X14966000Y-8529000D01*
X15147600Y-11730000D02*
X15187600Y-11770000D01*
X15187600Y-11730000D02*
X15147600Y-11770000D01*
X15220000Y-12680000D02*
X15260000Y-12720000D01*
X15260000Y-12680000D02*
X15220000Y-12720000D01*
X15283500Y-12553000D02*
X15323500Y-12593000D01*
X15323500Y-12553000D02*
X15283500Y-12593000D01*
X15333511Y-9009999D02*
X15373511Y-9049999D01*
X15373511Y-9009999D02*
X15333511Y-9049999D01*
X15592100Y-8793800D02*
X15632100Y-8833800D01*
X15632100Y-8793800D02*
X15592100Y-8833800D01*
X15601000Y-9632000D02*
X15641000Y-9672000D01*
X15641000Y-9632000D02*
X15601000Y-9672000D01*
X15601000Y-12553000D02*
X15641000Y-12593000D01*
X15641000Y-12553000D02*
X15601000Y-12593000D01*
X15639100Y-9822500D02*
X15679100Y-9862500D01*
X15679100Y-9822500D02*
X15639100Y-9862500D01*
X15651800Y-11778300D02*
X15691800Y-11818300D01*
X15691800Y-11778300D02*
X15651800Y-11818300D01*
X15680000Y-8530000D02*
X15720000Y-8570000D01*
X15720000Y-8530000D02*
X15680000Y-8570000D01*
X16145000Y-6965000D02*
X16185000Y-7005000D01*
X16185000Y-6965000D02*
X16145000Y-7005000D01*
X17252000Y-7727000D02*
X17292000Y-7767000D01*
X17292000Y-7727000D02*
X17252000Y-7767000D01*
X17315500Y-7600000D02*
X17355500Y-7640000D01*
X17355500Y-7600000D02*
X17315500Y-7640000D01*
X17379000Y-7282500D02*
X17419000Y-7322500D01*
X17419000Y-7282500D02*
X17379000Y-7322500D01*
X17379000Y-7409500D02*
X17419000Y-7449500D01*
X17419000Y-7409500D02*
X17379000Y-7449500D01*
X17379000Y-9632000D02*
X17419000Y-9672000D01*
X17419000Y-9632000D02*
X17379000Y-9672000D01*
X17506000Y-9568500D02*
X17546000Y-9608500D01*
X17546000Y-9568500D02*
X17506000Y-9608500D01*
X17519000Y-8730000D02*
X17559000Y-8770000D01*
X17559000Y-8730000D02*
X17519000Y-8770000D01*
X17522450Y-7981000D02*
X17562450Y-8021000D01*
X17562450Y-7981000D02*
X17522450Y-8021000D01*
X17569500Y-8870000D02*
X17609500Y-8910000D01*
X17609500Y-8870000D02*
X17569500Y-8910000D01*
X18148500Y-6830500D02*
X18188500Y-6870500D01*
X18188500Y-6830500D02*
X18148500Y-6870500D01*
X19220500Y-9441500D02*
X19260500Y-9481500D01*
X19260500Y-9441500D02*
X19220500Y-9481500D01*
X19411000Y-9060500D02*
X19451000Y-9100500D01*
X19451000Y-9060500D02*
X19411000Y-9100500D01*
D13*
X13949000Y-6273800D02*
G75*
G03*
X13949000Y-6273800I-30000J0D01*
G01*
D11*
X13889000Y-6243800D02*
X13889000Y-6303800D01*
X13949000Y-6243800D02*
X13949000Y-6303800D01*
X13889000Y-6303800D02*
G75*
G03*
X13949000Y-6303800I30000J0D01*
G01*
X13949000Y-6243800D02*
G75*
G03*
X13889000Y-6243800I-30000J0D01*
G01*
D13*
X13949000Y-6653800D02*
G75*
G03*
X13949000Y-6653800I-30000J0D01*
G01*
D11*
X13889000Y-6623800D02*
X13889000Y-6683800D01*
X13949000Y-6623800D02*
X13949000Y-6683800D01*
X13889000Y-6683800D02*
G75*
G03*
X13949000Y-6683800I30000J0D01*
G01*
X13949000Y-6623800D02*
G75*
G03*
X13889000Y-6623800I-30000J0D01*
G01*
D13*
X14813000Y-6273800D02*
G75*
G03*
X14813000Y-6273800I-30000J0D01*
G01*
D11*
X14753000Y-6243800D02*
X14753000Y-6303800D01*
X14813000Y-6243800D02*
X14813000Y-6303800D01*
X14753000Y-6303800D02*
G75*
G03*
X14813000Y-6303800I30000J0D01*
G01*
X14813000Y-6243800D02*
G75*
G03*
X14753000Y-6243800I-30000J0D01*
G01*
D13*
X14813000Y-6653800D02*
G75*
G03*
X14813000Y-6653800I-30000J0D01*
G01*
D11*
X14753000Y-6623800D02*
X14753000Y-6683800D01*
X14813000Y-6623800D02*
X14813000Y-6683800D01*
X14753000Y-6683800D02*
G75*
G03*
X14813000Y-6683800I30000J0D01*
G01*
X14813000Y-6623800D02*
G75*
G03*
X14753000Y-6623800I-30000J0D01*
G01*
D14*
X15100000Y-6210000D02*
X15100000Y-6290000D01*
X15060000Y-6250000D02*
X15140000Y-6250000D01*
X15100000Y-6460000D02*
X15100000Y-6540000D01*
X15060000Y-6500000D02*
X15140000Y-6500000D01*
X15100000Y-6710000D02*
X15100000Y-6790000D01*
X15060000Y-6750000D02*
X15140000Y-6750000D01*
X15430000Y-6210000D02*
X15430000Y-6290000D01*
X15390000Y-6250000D02*
X15470000Y-6250000D01*
X15430000Y-6460000D02*
X15430000Y-6540000D01*
X15390000Y-6500000D02*
X15470000Y-6500000D01*
X15430000Y-6710000D02*
X15430000Y-6790000D01*
X15390000Y-6750000D02*
X15470000Y-6750000D01*
X17846000Y-9206000D02*
X17846000Y-9286000D01*
X17806000Y-9246000D02*
X17886000Y-9246000D01*
X17846000Y-9714000D02*
X17846000Y-9794000D01*
X17806000Y-9754000D02*
X17886000Y-9754000D01*
X17850000Y-8456000D02*
X17850000Y-8536000D01*
X17810000Y-8496000D02*
X17890000Y-8496000D01*
X17850000Y-8964000D02*
X17850000Y-9044000D01*
X17810000Y-9004000D02*
X17890000Y-9004000D01*
X17850000Y-11152000D02*
X17850000Y-11232000D01*
X17810000Y-11192000D02*
X17890000Y-11192000D01*
X17850000Y-11660000D02*
X17850000Y-11740000D01*
X17810000Y-11700000D02*
X17890000Y-11700000D01*
X18100000Y-9460000D02*
X18100000Y-9540000D01*
X18060000Y-9500000D02*
X18140000Y-9500000D01*
X18104000Y-8710000D02*
X18104000Y-8790000D01*
X18064000Y-8750000D02*
X18144000Y-8750000D01*
X18104000Y-11406000D02*
X18104000Y-11486000D01*
X18064000Y-11446000D02*
X18144000Y-11446000D01*
X19800000Y-8173512D02*
X19800000Y-8253512D01*
X19760000Y-8213512D02*
X19840000Y-8213512D01*
X19800000Y-8503512D02*
X19800000Y-8583512D01*
X19760000Y-8543512D02*
X19840000Y-8543512D01*
X20050000Y-8173512D02*
X20050000Y-8253512D01*
X20010000Y-8213512D02*
X20090000Y-8213512D01*
X20050000Y-8503512D02*
X20050000Y-8583512D01*
X20010000Y-8543512D02*
X20090000Y-8543512D01*
X20300000Y-8173512D02*
X20300000Y-8253512D01*
X20260000Y-8213512D02*
X20340000Y-8213512D01*
X20300000Y-8503512D02*
X20300000Y-8583512D01*
X20260000Y-8543512D02*
X20340000Y-8543512D01*
D10*
X14010356Y-8737856D02*
X14010356Y-8667144D01*
X13939644Y-8667144D01*
X13939644Y-8737856D01*
X14010356Y-8737856D01*
X14260356Y-8737856D02*
X14260356Y-8667144D01*
X14189644Y-8667144D01*
X14189644Y-8737856D01*
X14260356Y-8737856D01*
X15148356Y-7185456D02*
X15148356Y-7114744D01*
X15077644Y-7114744D01*
X15077644Y-7185456D01*
X15148356Y-7185456D01*
X15148356Y-7439456D02*
X15148356Y-7368744D01*
X15077644Y-7368744D01*
X15077644Y-7439456D01*
X15148356Y-7439456D01*
X15413356Y-13437856D02*
X15413356Y-13367144D01*
X15342644Y-13367144D01*
X15342644Y-13437856D01*
X15413356Y-13437856D01*
X15413356Y-13687856D02*
X15413356Y-13617144D01*
X15342644Y-13617144D01*
X15342644Y-13687856D01*
X15413356Y-13687856D01*
X15529356Y-7210856D02*
X15529356Y-7140144D01*
X15458644Y-7140144D01*
X15458644Y-7210856D01*
X15529356Y-7210856D01*
X15529356Y-7464856D02*
X15529356Y-7394144D01*
X15458644Y-7394144D01*
X15458644Y-7464856D01*
X15529356Y-7464856D01*
X15529356Y-7718856D02*
X15529356Y-7648144D01*
X15458644Y-7648144D01*
X15458644Y-7718856D01*
X15529356Y-7718856D01*
X15529356Y-7972856D02*
X15529356Y-7902144D01*
X15458644Y-7902144D01*
X15458644Y-7972856D01*
X15529356Y-7972856D01*
X15529356Y-8226856D02*
X15529356Y-8156144D01*
X15458644Y-8156144D01*
X15458644Y-8226856D01*
X15529356Y-8226856D01*
X16989856Y-6321856D02*
X16989856Y-6251144D01*
X16919144Y-6251144D01*
X16919144Y-6321856D01*
X16989856Y-6321856D01*
X16989856Y-6575856D02*
X16989856Y-6505144D01*
X16919144Y-6505144D01*
X16919144Y-6575856D01*
X16989856Y-6575856D01*
X17243856Y-6321856D02*
X17243856Y-6251144D01*
X17173144Y-6251144D01*
X17173144Y-6321856D01*
X17243856Y-6321856D01*
X17243856Y-6575856D02*
X17243856Y-6505144D01*
X17173144Y-6505144D01*
X17173144Y-6575856D01*
X17243856Y-6575856D01*
X17370856Y-10130856D02*
X17370856Y-10060144D01*
X17300144Y-10060144D01*
X17300144Y-10130856D01*
X17370856Y-10130856D01*
X17370856Y-10384856D02*
X17370856Y-10314144D01*
X17300144Y-10314144D01*
X17300144Y-10384856D01*
X17370856Y-10384856D01*
X17370856Y-10638856D02*
X17370856Y-10568144D01*
X17300144Y-10568144D01*
X17300144Y-10638856D01*
X17370856Y-10638856D01*
X17370856Y-10892856D02*
X17370856Y-10822144D01*
X17300144Y-10822144D01*
X17300144Y-10892856D01*
X17370856Y-10892856D01*
X17835356Y-7085356D02*
X17835356Y-7014644D01*
X17764644Y-7014644D01*
X17764644Y-7085356D01*
X17835356Y-7085356D01*
X17835356Y-7339356D02*
X17835356Y-7268644D01*
X17764644Y-7268644D01*
X17764644Y-7339356D01*
X17835356Y-7339356D01*
X17835356Y-7593356D02*
X17835356Y-7522644D01*
X17764644Y-7522644D01*
X17764644Y-7593356D01*
X17835356Y-7593356D01*
X17835356Y-7847356D02*
X17835356Y-7776644D01*
X17764644Y-7776644D01*
X17764644Y-7847356D01*
X17835356Y-7847356D01*
X18132856Y-10258856D02*
X18132856Y-10188144D01*
X18062144Y-10188144D01*
X18062144Y-10258856D01*
X18132856Y-10258856D01*
X18132856Y-10512856D02*
X18132856Y-10442144D01*
X18062144Y-10442144D01*
X18062144Y-10512856D01*
X18132856Y-10512856D01*
X18132856Y-10766856D02*
X18132856Y-10696144D01*
X18062144Y-10696144D01*
X18062144Y-10766856D01*
X18132856Y-10766856D01*
X18723356Y-7335356D02*
X18723356Y-7264644D01*
X18652644Y-7264644D01*
X18652644Y-7335356D01*
X18723356Y-7335356D01*
X18725356Y-8535356D02*
X18725356Y-8464644D01*
X18654644Y-8464644D01*
X18654644Y-8535356D01*
X18725356Y-8535356D01*
X18977356Y-7335356D02*
X18977356Y-7264644D01*
X18906644Y-7264644D01*
X18906644Y-7335356D01*
X18977356Y-7335356D01*
X18979356Y-8535356D02*
X18979356Y-8464644D01*
X18908644Y-8464644D01*
X18908644Y-8535356D01*
X18979356Y-8535356D01*
X19231356Y-7335356D02*
X19231356Y-7264644D01*
X19160644Y-7264644D01*
X19160644Y-7335356D01*
X19231356Y-7335356D01*
X19233356Y-8535356D02*
X19233356Y-8464644D01*
X19162644Y-8464644D01*
X19162644Y-8535356D01*
X19233356Y-8535356D01*
X19485356Y-7335356D02*
X19485356Y-7264644D01*
X19414644Y-7264644D01*
X19414644Y-7335356D01*
X19485356Y-7335356D01*
X19487356Y-8535356D02*
X19487356Y-8464644D01*
X19416644Y-8464644D01*
X19416644Y-8535356D01*
X19487356Y-8535356D01*
D11*
X13902619Y-14315476D02*
X13902619Y-14115476D01*
X13950238Y-14115476D01*
X13978809Y-14125000D01*
X13997857Y-14144048D01*
X14007381Y-14163095D01*
X14016905Y-14201190D01*
X14016905Y-14229762D01*
X14007381Y-14267857D01*
X13997857Y-14286905D01*
X13978809Y-14305952D01*
X13950238Y-14315476D01*
X13902619Y-14315476D01*
X14102619Y-14315476D02*
X14102619Y-14182143D01*
X14102619Y-14220238D02*
X14112143Y-14201190D01*
X14121667Y-14191667D01*
X14140714Y-14182143D01*
X14159762Y-14182143D01*
X14226428Y-14315476D02*
X14226428Y-14182143D01*
X14226428Y-14115476D02*
X14216905Y-14125000D01*
X14226428Y-14134524D01*
X14235952Y-14125000D01*
X14226428Y-14115476D01*
X14226428Y-14134524D01*
X14350238Y-14315476D02*
X14331190Y-14305952D01*
X14321667Y-14286905D01*
X14321667Y-14115476D01*
X14455000Y-14315476D02*
X14435952Y-14305952D01*
X14426428Y-14286905D01*
X14426428Y-14115476D01*
X14683571Y-14315476D02*
X14683571Y-14115476D01*
X14750238Y-14258333D01*
X14816905Y-14115476D01*
X14816905Y-14315476D01*
X14997857Y-14315476D02*
X14997857Y-14210714D01*
X14988333Y-14191667D01*
X14969286Y-14182143D01*
X14931190Y-14182143D01*
X14912143Y-14191667D01*
X14997857Y-14305952D02*
X14978809Y-14315476D01*
X14931190Y-14315476D01*
X14912143Y-14305952D01*
X14902619Y-14286905D01*
X14902619Y-14267857D01*
X14912143Y-14248809D01*
X14931190Y-14239286D01*
X14978809Y-14239286D01*
X14997857Y-14229762D01*
X15093095Y-14182143D02*
X15093095Y-14382143D01*
X15093095Y-14191667D02*
X15112143Y-14182143D01*
X15150238Y-14182143D01*
X15169286Y-14191667D01*
X15178809Y-14201190D01*
X15188333Y-14220238D01*
X15188333Y-14277381D01*
X15178809Y-14296428D01*
X15169286Y-14305952D01*
X15150238Y-14315476D01*
X15112143Y-14315476D01*
X15093095Y-14305952D01*
X15274048Y-14296428D02*
X15283571Y-14305952D01*
X15274048Y-14315476D01*
X15264524Y-14305952D01*
X15274048Y-14296428D01*
X15274048Y-14315476D01*
X15274048Y-14191667D02*
X15283571Y-14201190D01*
X15274048Y-14210714D01*
X15264524Y-14201190D01*
X15274048Y-14191667D01*
X15274048Y-14210714D01*
D12*
X13605000Y-14625000D02*
X13645000Y-14665000D01*
X13645000Y-14625000D02*
X13605000Y-14665000D01*
D11*
X13940714Y-14535476D02*
X13959762Y-14535476D01*
X13978809Y-14545000D01*
X13988333Y-14554524D01*
X13997857Y-14573571D01*
X14007381Y-14611667D01*
X14007381Y-14659286D01*
X13997857Y-14697381D01*
X13988333Y-14716428D01*
X13978809Y-14725952D01*
X13959762Y-14735476D01*
X13940714Y-14735476D01*
X13921667Y-14725952D01*
X13912143Y-14716428D01*
X13902619Y-14697381D01*
X13893095Y-14659286D01*
X13893095Y-14611667D01*
X13902619Y-14573571D01*
X13912143Y-14554524D01*
X13921667Y-14545000D01*
X13940714Y-14535476D01*
X14093095Y-14716428D02*
X14102619Y-14725952D01*
X14093095Y-14735476D01*
X14083571Y-14725952D01*
X14093095Y-14716428D01*
X14093095Y-14735476D01*
X14274048Y-14602143D02*
X14274048Y-14735476D01*
X14226428Y-14525952D02*
X14178809Y-14668809D01*
X14302619Y-14668809D01*
X14416905Y-14535476D02*
X14435952Y-14535476D01*
X14455000Y-14545000D01*
X14464524Y-14554524D01*
X14474048Y-14573571D01*
X14483571Y-14611667D01*
X14483571Y-14659286D01*
X14474048Y-14697381D01*
X14464524Y-14716428D01*
X14455000Y-14725952D01*
X14435952Y-14735476D01*
X14416905Y-14735476D01*
X14397857Y-14725952D01*
X14388333Y-14716428D01*
X14378809Y-14697381D01*
X14369286Y-14659286D01*
X14369286Y-14611667D01*
X14378809Y-14573571D01*
X14388333Y-14554524D01*
X14397857Y-14545000D01*
X14416905Y-14535476D01*
X14607381Y-14535476D02*
X14626428Y-14535476D01*
X14645476Y-14545000D01*
X14655000Y-14554524D01*
X14664524Y-14573571D01*
X14674048Y-14611667D01*
X14674048Y-14659286D01*
X14664524Y-14697381D01*
X14655000Y-14716428D01*
X14645476Y-14725952D01*
X14626428Y-14735476D01*
X14607381Y-14735476D01*
X14588333Y-14725952D01*
X14578809Y-14716428D01*
X14569286Y-14697381D01*
X14559762Y-14659286D01*
X14559762Y-14611667D01*
X14569286Y-14573571D01*
X14578809Y-14554524D01*
X14588333Y-14545000D01*
X14607381Y-14535476D01*
X14759762Y-14735476D02*
X14759762Y-14602143D01*
X14759762Y-14621190D02*
X14769286Y-14611667D01*
X14788333Y-14602143D01*
X14816905Y-14602143D01*
X14835952Y-14611667D01*
X14845476Y-14630714D01*
X14845476Y-14735476D01*
X14845476Y-14630714D02*
X14855000Y-14611667D01*
X14874048Y-14602143D01*
X14902619Y-14602143D01*
X14921667Y-14611667D01*
X14931190Y-14630714D01*
X14931190Y-14735476D01*
X15026428Y-14735476D02*
X15026428Y-14602143D01*
X15026428Y-14621190D02*
X15035952Y-14611667D01*
X15055000Y-14602143D01*
X15083571Y-14602143D01*
X15102619Y-14611667D01*
X15112143Y-14630714D01*
X15112143Y-14735476D01*
X15112143Y-14630714D02*
X15121667Y-14611667D01*
X15140714Y-14602143D01*
X15169286Y-14602143D01*
X15188333Y-14611667D01*
X15197857Y-14630714D01*
X15197857Y-14735476D01*
X15588333Y-14525952D02*
X15416905Y-14783095D01*
X15845476Y-14535476D02*
X15864524Y-14535476D01*
X15883571Y-14545000D01*
X15893095Y-14554524D01*
X15902619Y-14573571D01*
X15912143Y-14611667D01*
X15912143Y-14659286D01*
X15902619Y-14697381D01*
X15893095Y-14716428D01*
X15883571Y-14725952D01*
X15864524Y-14735476D01*
X15845476Y-14735476D01*
X15826428Y-14725952D01*
X15816905Y-14716428D01*
X15807381Y-14697381D01*
X15797857Y-14659286D01*
X15797857Y-14611667D01*
X15807381Y-14573571D01*
X15816905Y-14554524D01*
X15826428Y-14545000D01*
X15845476Y-14535476D01*
X15997857Y-14716428D02*
X16007381Y-14725952D01*
X15997857Y-14735476D01*
X15988333Y-14725952D01*
X15997857Y-14716428D01*
X15997857Y-14735476D01*
X16131190Y-14535476D02*
X16150238Y-14535476D01*
X16169286Y-14545000D01*
X16178809Y-14554524D01*
X16188333Y-14573571D01*
X16197857Y-14611667D01*
X16197857Y-14659286D01*
X16188333Y-14697381D01*
X16178809Y-14716428D01*
X16169286Y-14725952D01*
X16150238Y-14735476D01*
X16131190Y-14735476D01*
X16112143Y-14725952D01*
X16102619Y-14716428D01*
X16093095Y-14697381D01*
X16083571Y-14659286D01*
X16083571Y-14611667D01*
X16093095Y-14573571D01*
X16102619Y-14554524D01*
X16112143Y-14545000D01*
X16131190Y-14535476D01*
X16388333Y-14735476D02*
X16274048Y-14735476D01*
X16331190Y-14735476D02*
X16331190Y-14535476D01*
X16312143Y-14564048D01*
X16293095Y-14583095D01*
X16274048Y-14592619D01*
X16569286Y-14535476D02*
X16474048Y-14535476D01*
X16464524Y-14630714D01*
X16474048Y-14621190D01*
X16493095Y-14611667D01*
X16540714Y-14611667D01*
X16559762Y-14621190D01*
X16569286Y-14630714D01*
X16578809Y-14649762D01*
X16578809Y-14697381D01*
X16569286Y-14716428D01*
X16559762Y-14725952D01*
X16540714Y-14735476D01*
X16493095Y-14735476D01*
X16474048Y-14725952D01*
X16464524Y-14716428D01*
X16645476Y-14535476D02*
X16778810Y-14535476D01*
X16693095Y-14735476D01*
X16845476Y-14535476D02*
X16845476Y-14573571D01*
X16921667Y-14535476D02*
X16921667Y-14573571D01*
X17216905Y-14811667D02*
X17207381Y-14802143D01*
X17188333Y-14773571D01*
X17178810Y-14754524D01*
X17169286Y-14725952D01*
X17159762Y-14678333D01*
X17159762Y-14640238D01*
X17169286Y-14592619D01*
X17178810Y-14564048D01*
X17188333Y-14545000D01*
X17207381Y-14516428D01*
X17216905Y-14506905D01*
X17274048Y-14535476D02*
X17397857Y-14535476D01*
X17331190Y-14611667D01*
X17359762Y-14611667D01*
X17378810Y-14621190D01*
X17388333Y-14630714D01*
X17397857Y-14649762D01*
X17397857Y-14697381D01*
X17388333Y-14716428D01*
X17378810Y-14725952D01*
X17359762Y-14735476D01*
X17302619Y-14735476D01*
X17283571Y-14725952D01*
X17274048Y-14716428D01*
X17569286Y-14535476D02*
X17531190Y-14535476D01*
X17512143Y-14545000D01*
X17502619Y-14554524D01*
X17483571Y-14583095D01*
X17474048Y-14621190D01*
X17474048Y-14697381D01*
X17483571Y-14716428D01*
X17493095Y-14725952D01*
X17512143Y-14735476D01*
X17550238Y-14735476D01*
X17569286Y-14725952D01*
X17578810Y-14716428D01*
X17588333Y-14697381D01*
X17588333Y-14649762D01*
X17578810Y-14630714D01*
X17569286Y-14621190D01*
X17550238Y-14611667D01*
X17512143Y-14611667D01*
X17493095Y-14621190D01*
X17483571Y-14630714D01*
X17474048Y-14649762D01*
X17826429Y-14735476D02*
X17826429Y-14535476D01*
X17912143Y-14735476D02*
X17912143Y-14630714D01*
X17902619Y-14611667D01*
X17883571Y-14602143D01*
X17855000Y-14602143D01*
X17835952Y-14611667D01*
X17826429Y-14621190D01*
X18035952Y-14735476D02*
X18016905Y-14725952D01*
X18007381Y-14716428D01*
X17997857Y-14697381D01*
X17997857Y-14640238D01*
X18007381Y-14621190D01*
X18016905Y-14611667D01*
X18035952Y-14602143D01*
X18064524Y-14602143D01*
X18083571Y-14611667D01*
X18093095Y-14621190D01*
X18102619Y-14640238D01*
X18102619Y-14697381D01*
X18093095Y-14716428D01*
X18083571Y-14725952D01*
X18064524Y-14735476D01*
X18035952Y-14735476D01*
X18216905Y-14735476D02*
X18197857Y-14725952D01*
X18188333Y-14706905D01*
X18188333Y-14535476D01*
X18369286Y-14725952D02*
X18350238Y-14735476D01*
X18312143Y-14735476D01*
X18293095Y-14725952D01*
X18283571Y-14706905D01*
X18283571Y-14630714D01*
X18293095Y-14611667D01*
X18312143Y-14602143D01*
X18350238Y-14602143D01*
X18369286Y-14611667D01*
X18378810Y-14630714D01*
X18378810Y-14649762D01*
X18283571Y-14668809D01*
X18455000Y-14725952D02*
X18474048Y-14735476D01*
X18512143Y-14735476D01*
X18531190Y-14725952D01*
X18540714Y-14706905D01*
X18540714Y-14697381D01*
X18531190Y-14678333D01*
X18512143Y-14668809D01*
X18483571Y-14668809D01*
X18464524Y-14659286D01*
X18455000Y-14640238D01*
X18455000Y-14630714D01*
X18464524Y-14611667D01*
X18483571Y-14602143D01*
X18512143Y-14602143D01*
X18531190Y-14611667D01*
X18607381Y-14811667D02*
X18616905Y-14802143D01*
X18635952Y-14773571D01*
X18645476Y-14754524D01*
X18655000Y-14725952D01*
X18664524Y-14678333D01*
X18664524Y-14640238D01*
X18655000Y-14592619D01*
X18645476Y-14564048D01*
X18635952Y-14545000D01*
X18616905Y-14516428D01*
X18607381Y-14506905D01*
D13*
X13645000Y-14909000D02*
G75*
G03*
X13645000Y-14909000I-30000J0D01*
G01*
D11*
X13940714Y-14799476D02*
X13959762Y-14799476D01*
X13978809Y-14809000D01*
X13988333Y-14818524D01*
X13997857Y-14837571D01*
X14007381Y-14875667D01*
X14007381Y-14923286D01*
X13997857Y-14961381D01*
X13988333Y-14980428D01*
X13978809Y-14989952D01*
X13959762Y-14999476D01*
X13940714Y-14999476D01*
X13921667Y-14989952D01*
X13912143Y-14980428D01*
X13902619Y-14961381D01*
X13893095Y-14923286D01*
X13893095Y-14875667D01*
X13902619Y-14837571D01*
X13912143Y-14818524D01*
X13921667Y-14809000D01*
X13940714Y-14799476D01*
X14093095Y-14980428D02*
X14102619Y-14989952D01*
X14093095Y-14999476D01*
X14083571Y-14989952D01*
X14093095Y-14980428D01*
X14093095Y-14999476D01*
X14274048Y-14799476D02*
X14235952Y-14799476D01*
X14216905Y-14809000D01*
X14207381Y-14818524D01*
X14188333Y-14847095D01*
X14178809Y-14885190D01*
X14178809Y-14961381D01*
X14188333Y-14980428D01*
X14197857Y-14989952D01*
X14216905Y-14999476D01*
X14255000Y-14999476D01*
X14274048Y-14989952D01*
X14283571Y-14980428D01*
X14293095Y-14961381D01*
X14293095Y-14913762D01*
X14283571Y-14894714D01*
X14274048Y-14885190D01*
X14255000Y-14875667D01*
X14216905Y-14875667D01*
X14197857Y-14885190D01*
X14188333Y-14894714D01*
X14178809Y-14913762D01*
X14416905Y-14799476D02*
X14435952Y-14799476D01*
X14455000Y-14809000D01*
X14464524Y-14818524D01*
X14474048Y-14837571D01*
X14483571Y-14875667D01*
X14483571Y-14923286D01*
X14474048Y-14961381D01*
X14464524Y-14980428D01*
X14455000Y-14989952D01*
X14435952Y-14999476D01*
X14416905Y-14999476D01*
X14397857Y-14989952D01*
X14388333Y-14980428D01*
X14378809Y-14961381D01*
X14369286Y-14923286D01*
X14369286Y-14875667D01*
X14378809Y-14837571D01*
X14388333Y-14818524D01*
X14397857Y-14809000D01*
X14416905Y-14799476D01*
X14607381Y-14799476D02*
X14626428Y-14799476D01*
X14645476Y-14809000D01*
X14655000Y-14818524D01*
X14664524Y-14837571D01*
X14674048Y-14875667D01*
X14674048Y-14923286D01*
X14664524Y-14961381D01*
X14655000Y-14980428D01*
X14645476Y-14989952D01*
X14626428Y-14999476D01*
X14607381Y-14999476D01*
X14588333Y-14989952D01*
X14578809Y-14980428D01*
X14569286Y-14961381D01*
X14559762Y-14923286D01*
X14559762Y-14875667D01*
X14569286Y-14837571D01*
X14578809Y-14818524D01*
X14588333Y-14809000D01*
X14607381Y-14799476D01*
X14759762Y-14999476D02*
X14759762Y-14866143D01*
X14759762Y-14885190D02*
X14769286Y-14875667D01*
X14788333Y-14866143D01*
X14816905Y-14866143D01*
X14835952Y-14875667D01*
X14845476Y-14894714D01*
X14845476Y-14999476D01*
X14845476Y-14894714D02*
X14855000Y-14875667D01*
X14874048Y-14866143D01*
X14902619Y-14866143D01*
X14921667Y-14875667D01*
X14931190Y-14894714D01*
X14931190Y-14999476D01*
X15026428Y-14999476D02*
X15026428Y-14866143D01*
X15026428Y-14885190D02*
X15035952Y-14875667D01*
X15055000Y-14866143D01*
X15083571Y-14866143D01*
X15102619Y-14875667D01*
X15112143Y-14894714D01*
X15112143Y-14999476D01*
X15112143Y-14894714D02*
X15121667Y-14875667D01*
X15140714Y-14866143D01*
X15169286Y-14866143D01*
X15188333Y-14875667D01*
X15197857Y-14894714D01*
X15197857Y-14999476D01*
X15588333Y-14789952D02*
X15416905Y-15047095D01*
X15845476Y-14799476D02*
X15864524Y-14799476D01*
X15883571Y-14809000D01*
X15893095Y-14818524D01*
X15902619Y-14837571D01*
X15912143Y-14875667D01*
X15912143Y-14923286D01*
X15902619Y-14961381D01*
X15893095Y-14980428D01*
X15883571Y-14989952D01*
X15864524Y-14999476D01*
X15845476Y-14999476D01*
X15826428Y-14989952D01*
X15816905Y-14980428D01*
X15807381Y-14961381D01*
X15797857Y-14923286D01*
X15797857Y-14875667D01*
X15807381Y-14837571D01*
X15816905Y-14818524D01*
X15826428Y-14809000D01*
X15845476Y-14799476D01*
X15997857Y-14980428D02*
X16007381Y-14989952D01*
X15997857Y-14999476D01*
X15988333Y-14989952D01*
X15997857Y-14980428D01*
X15997857Y-14999476D01*
X16131190Y-14799476D02*
X16150238Y-14799476D01*
X16169286Y-14809000D01*
X16178809Y-14818524D01*
X16188333Y-14837571D01*
X16197857Y-14875667D01*
X16197857Y-14923286D01*
X16188333Y-14961381D01*
X16178809Y-14980428D01*
X16169286Y-14989952D01*
X16150238Y-14999476D01*
X16131190Y-14999476D01*
X16112143Y-14989952D01*
X16102619Y-14980428D01*
X16093095Y-14961381D01*
X16083571Y-14923286D01*
X16083571Y-14875667D01*
X16093095Y-14837571D01*
X16102619Y-14818524D01*
X16112143Y-14809000D01*
X16131190Y-14799476D01*
X16274048Y-14818524D02*
X16283571Y-14809000D01*
X16302619Y-14799476D01*
X16350238Y-14799476D01*
X16369286Y-14809000D01*
X16378809Y-14818524D01*
X16388333Y-14837571D01*
X16388333Y-14856619D01*
X16378809Y-14885190D01*
X16264524Y-14999476D01*
X16388333Y-14999476D01*
X16455000Y-14799476D02*
X16578809Y-14799476D01*
X16512143Y-14875667D01*
X16540714Y-14875667D01*
X16559762Y-14885190D01*
X16569286Y-14894714D01*
X16578809Y-14913762D01*
X16578809Y-14961381D01*
X16569286Y-14980428D01*
X16559762Y-14989952D01*
X16540714Y-14999476D01*
X16483571Y-14999476D01*
X16464524Y-14989952D01*
X16455000Y-14980428D01*
X16750238Y-14799476D02*
X16712143Y-14799476D01*
X16693095Y-14809000D01*
X16683571Y-14818524D01*
X16664524Y-14847095D01*
X16655000Y-14885190D01*
X16655000Y-14961381D01*
X16664524Y-14980428D01*
X16674048Y-14989952D01*
X16693095Y-14999476D01*
X16731190Y-14999476D01*
X16750238Y-14989952D01*
X16759762Y-14980428D01*
X16769286Y-14961381D01*
X16769286Y-14913762D01*
X16759762Y-14894714D01*
X16750238Y-14885190D01*
X16731190Y-14875667D01*
X16693095Y-14875667D01*
X16674048Y-14885190D01*
X16664524Y-14894714D01*
X16655000Y-14913762D01*
X16845476Y-14799476D02*
X16845476Y-14837571D01*
X16921667Y-14799476D02*
X16921667Y-14837571D01*
X17216905Y-15075667D02*
X17207381Y-15066143D01*
X17188333Y-15037571D01*
X17178810Y-15018524D01*
X17169286Y-14989952D01*
X17159762Y-14942333D01*
X17159762Y-14904238D01*
X17169286Y-14856619D01*
X17178810Y-14828048D01*
X17188333Y-14809000D01*
X17207381Y-14780428D01*
X17216905Y-14770905D01*
X17331190Y-14799476D02*
X17350238Y-14799476D01*
X17369286Y-14809000D01*
X17378810Y-14818524D01*
X17388333Y-14837571D01*
X17397857Y-14875667D01*
X17397857Y-14923286D01*
X17388333Y-14961381D01*
X17378810Y-14980428D01*
X17369286Y-14989952D01*
X17350238Y-14999476D01*
X17331190Y-14999476D01*
X17312143Y-14989952D01*
X17302619Y-14980428D01*
X17293095Y-14961381D01*
X17283571Y-14923286D01*
X17283571Y-14875667D01*
X17293095Y-14837571D01*
X17302619Y-14818524D01*
X17312143Y-14809000D01*
X17331190Y-14799476D01*
X17635952Y-14999476D02*
X17635952Y-14799476D01*
X17721667Y-14999476D02*
X17721667Y-14894714D01*
X17712143Y-14875667D01*
X17693095Y-14866143D01*
X17664524Y-14866143D01*
X17645476Y-14875667D01*
X17635952Y-14885190D01*
X17845476Y-14999476D02*
X17826429Y-14989952D01*
X17816905Y-14980428D01*
X17807381Y-14961381D01*
X17807381Y-14904238D01*
X17816905Y-14885190D01*
X17826429Y-14875667D01*
X17845476Y-14866143D01*
X17874048Y-14866143D01*
X17893095Y-14875667D01*
X17902619Y-14885190D01*
X17912143Y-14904238D01*
X17912143Y-14961381D01*
X17902619Y-14980428D01*
X17893095Y-14989952D01*
X17874048Y-14999476D01*
X17845476Y-14999476D01*
X18026429Y-14999476D02*
X18007381Y-14989952D01*
X17997857Y-14970905D01*
X17997857Y-14799476D01*
X18178810Y-14989952D02*
X18159762Y-14999476D01*
X18121667Y-14999476D01*
X18102619Y-14989952D01*
X18093095Y-14970905D01*
X18093095Y-14894714D01*
X18102619Y-14875667D01*
X18121667Y-14866143D01*
X18159762Y-14866143D01*
X18178810Y-14875667D01*
X18188333Y-14894714D01*
X18188333Y-14913762D01*
X18093095Y-14932809D01*
X18264524Y-14989952D02*
X18283571Y-14999476D01*
X18321667Y-14999476D01*
X18340714Y-14989952D01*
X18350238Y-14970905D01*
X18350238Y-14961381D01*
X18340714Y-14942333D01*
X18321667Y-14932809D01*
X18293095Y-14932809D01*
X18274048Y-14923286D01*
X18264524Y-14904238D01*
X18264524Y-14894714D01*
X18274048Y-14875667D01*
X18293095Y-14866143D01*
X18321667Y-14866143D01*
X18340714Y-14875667D01*
X18588333Y-14923286D02*
X18740714Y-14923286D01*
X18664524Y-14999476D02*
X18664524Y-14847095D01*
X19074048Y-14866143D02*
X19074048Y-14999476D01*
X19026429Y-14789952D02*
X18978810Y-14932809D01*
X19102619Y-14932809D01*
X19321667Y-14989952D02*
X19340714Y-14999476D01*
X19378810Y-14999476D01*
X19397857Y-14989952D01*
X19407381Y-14970905D01*
X19407381Y-14961381D01*
X19397857Y-14942333D01*
X19378810Y-14932809D01*
X19350238Y-14932809D01*
X19331190Y-14923286D01*
X19321667Y-14904238D01*
X19321667Y-14894714D01*
X19331190Y-14875667D01*
X19350238Y-14866143D01*
X19378810Y-14866143D01*
X19397857Y-14875667D01*
X19521667Y-14999476D02*
X19502619Y-14989952D01*
X19493095Y-14970905D01*
X19493095Y-14799476D01*
X19626429Y-14999476D02*
X19607381Y-14989952D01*
X19597857Y-14980428D01*
X19588333Y-14961381D01*
X19588333Y-14904238D01*
X19597857Y-14885190D01*
X19607381Y-14875667D01*
X19626429Y-14866143D01*
X19655000Y-14866143D01*
X19674048Y-14875667D01*
X19683571Y-14885190D01*
X19693095Y-14904238D01*
X19693095Y-14961381D01*
X19683571Y-14980428D01*
X19674048Y-14989952D01*
X19655000Y-14999476D01*
X19626429Y-14999476D01*
X19750238Y-14866143D02*
X19826429Y-14866143D01*
X19778810Y-14799476D02*
X19778810Y-14970905D01*
X19788333Y-14989952D01*
X19807381Y-14999476D01*
X19826429Y-14999476D01*
X19883571Y-14989952D02*
X19902619Y-14999476D01*
X19940714Y-14999476D01*
X19959762Y-14989952D01*
X19969286Y-14970905D01*
X19969286Y-14961381D01*
X19959762Y-14942333D01*
X19940714Y-14932809D01*
X19912143Y-14932809D01*
X19893095Y-14923286D01*
X19883571Y-14904238D01*
X19883571Y-14894714D01*
X19893095Y-14875667D01*
X19912143Y-14866143D01*
X19940714Y-14866143D01*
X19959762Y-14875667D01*
X20035952Y-15075667D02*
X20045476Y-15066143D01*
X20064524Y-15037571D01*
X20074048Y-15018524D01*
X20083571Y-14989952D01*
X20093095Y-14942333D01*
X20093095Y-14904238D01*
X20083571Y-14856619D01*
X20074048Y-14828048D01*
X20064524Y-14809000D01*
X20045476Y-14780428D01*
X20035952Y-14770905D01*
D14*
X13605000Y-15133000D02*
X13605000Y-15213000D01*
X13565000Y-15173000D02*
X13645000Y-15173000D01*
D11*
X13940714Y-15063476D02*
X13959762Y-15063476D01*
X13978809Y-15073000D01*
X13988333Y-15082524D01*
X13997857Y-15101571D01*
X14007381Y-15139667D01*
X14007381Y-15187286D01*
X13997857Y-15225381D01*
X13988333Y-15244428D01*
X13978809Y-15253952D01*
X13959762Y-15263476D01*
X13940714Y-15263476D01*
X13921667Y-15253952D01*
X13912143Y-15244428D01*
X13902619Y-15225381D01*
X13893095Y-15187286D01*
X13893095Y-15139667D01*
X13902619Y-15101571D01*
X13912143Y-15082524D01*
X13921667Y-15073000D01*
X13940714Y-15063476D01*
X14093095Y-15244428D02*
X14102619Y-15253952D01*
X14093095Y-15263476D01*
X14083571Y-15253952D01*
X14093095Y-15244428D01*
X14093095Y-15263476D01*
X14216905Y-15149190D02*
X14197857Y-15139667D01*
X14188333Y-15130143D01*
X14178809Y-15111095D01*
X14178809Y-15101571D01*
X14188333Y-15082524D01*
X14197857Y-15073000D01*
X14216905Y-15063476D01*
X14255000Y-15063476D01*
X14274048Y-15073000D01*
X14283571Y-15082524D01*
X14293095Y-15101571D01*
X14293095Y-15111095D01*
X14283571Y-15130143D01*
X14274048Y-15139667D01*
X14255000Y-15149190D01*
X14216905Y-15149190D01*
X14197857Y-15158714D01*
X14188333Y-15168238D01*
X14178809Y-15187286D01*
X14178809Y-15225381D01*
X14188333Y-15244428D01*
X14197857Y-15253952D01*
X14216905Y-15263476D01*
X14255000Y-15263476D01*
X14274048Y-15253952D01*
X14283571Y-15244428D01*
X14293095Y-15225381D01*
X14293095Y-15187286D01*
X14283571Y-15168238D01*
X14274048Y-15158714D01*
X14255000Y-15149190D01*
X14416905Y-15063476D02*
X14435952Y-15063476D01*
X14455000Y-15073000D01*
X14464524Y-15082524D01*
X14474048Y-15101571D01*
X14483571Y-15139667D01*
X14483571Y-15187286D01*
X14474048Y-15225381D01*
X14464524Y-15244428D01*
X14455000Y-15253952D01*
X14435952Y-15263476D01*
X14416905Y-15263476D01*
X14397857Y-15253952D01*
X14388333Y-15244428D01*
X14378809Y-15225381D01*
X14369286Y-15187286D01*
X14369286Y-15139667D01*
X14378809Y-15101571D01*
X14388333Y-15082524D01*
X14397857Y-15073000D01*
X14416905Y-15063476D01*
X14607381Y-15063476D02*
X14626428Y-15063476D01*
X14645476Y-15073000D01*
X14655000Y-15082524D01*
X14664524Y-15101571D01*
X14674048Y-15139667D01*
X14674048Y-15187286D01*
X14664524Y-15225381D01*
X14655000Y-15244428D01*
X14645476Y-15253952D01*
X14626428Y-15263476D01*
X14607381Y-15263476D01*
X14588333Y-15253952D01*
X14578809Y-15244428D01*
X14569286Y-15225381D01*
X14559762Y-15187286D01*
X14559762Y-15139667D01*
X14569286Y-15101571D01*
X14578809Y-15082524D01*
X14588333Y-15073000D01*
X14607381Y-15063476D01*
X14759762Y-15263476D02*
X14759762Y-15130143D01*
X14759762Y-15149190D02*
X14769286Y-15139667D01*
X14788333Y-15130143D01*
X14816905Y-15130143D01*
X14835952Y-15139667D01*
X14845476Y-15158714D01*
X14845476Y-15263476D01*
X14845476Y-15158714D02*
X14855000Y-15139667D01*
X14874048Y-15130143D01*
X14902619Y-15130143D01*
X14921667Y-15139667D01*
X14931190Y-15158714D01*
X14931190Y-15263476D01*
X15026428Y-15263476D02*
X15026428Y-15130143D01*
X15026428Y-15149190D02*
X15035952Y-15139667D01*
X15055000Y-15130143D01*
X15083571Y-15130143D01*
X15102619Y-15139667D01*
X15112143Y-15158714D01*
X15112143Y-15263476D01*
X15112143Y-15158714D02*
X15121667Y-15139667D01*
X15140714Y-15130143D01*
X15169286Y-15130143D01*
X15188333Y-15139667D01*
X15197857Y-15158714D01*
X15197857Y-15263476D01*
X15588333Y-15053952D02*
X15416905Y-15311095D01*
X15845476Y-15063476D02*
X15864524Y-15063476D01*
X15883571Y-15073000D01*
X15893095Y-15082524D01*
X15902619Y-15101571D01*
X15912143Y-15139667D01*
X15912143Y-15187286D01*
X15902619Y-15225381D01*
X15893095Y-15244428D01*
X15883571Y-15253952D01*
X15864524Y-15263476D01*
X15845476Y-15263476D01*
X15826428Y-15253952D01*
X15816905Y-15244428D01*
X15807381Y-15225381D01*
X15797857Y-15187286D01*
X15797857Y-15139667D01*
X15807381Y-15101571D01*
X15816905Y-15082524D01*
X15826428Y-15073000D01*
X15845476Y-15063476D01*
X15997857Y-15244428D02*
X16007381Y-15253952D01*
X15997857Y-15263476D01*
X15988333Y-15253952D01*
X15997857Y-15244428D01*
X15997857Y-15263476D01*
X16131190Y-15063476D02*
X16150238Y-15063476D01*
X16169286Y-15073000D01*
X16178809Y-15082524D01*
X16188333Y-15101571D01*
X16197857Y-15139667D01*
X16197857Y-15187286D01*
X16188333Y-15225381D01*
X16178809Y-15244428D01*
X16169286Y-15253952D01*
X16150238Y-15263476D01*
X16131190Y-15263476D01*
X16112143Y-15253952D01*
X16102619Y-15244428D01*
X16093095Y-15225381D01*
X16083571Y-15187286D01*
X16083571Y-15139667D01*
X16093095Y-15101571D01*
X16102619Y-15082524D01*
X16112143Y-15073000D01*
X16131190Y-15063476D01*
X16264524Y-15063476D02*
X16388333Y-15063476D01*
X16321667Y-15139667D01*
X16350238Y-15139667D01*
X16369286Y-15149190D01*
X16378809Y-15158714D01*
X16388333Y-15177762D01*
X16388333Y-15225381D01*
X16378809Y-15244428D01*
X16369286Y-15253952D01*
X16350238Y-15263476D01*
X16293095Y-15263476D01*
X16274048Y-15253952D01*
X16264524Y-15244428D01*
X16578809Y-15263476D02*
X16464524Y-15263476D01*
X16521667Y-15263476D02*
X16521667Y-15063476D01*
X16502619Y-15092048D01*
X16483571Y-15111095D01*
X16464524Y-15120619D01*
X16759762Y-15063476D02*
X16664524Y-15063476D01*
X16655000Y-15158714D01*
X16664524Y-15149190D01*
X16683571Y-15139667D01*
X16731190Y-15139667D01*
X16750238Y-15149190D01*
X16759762Y-15158714D01*
X16769286Y-15177762D01*
X16769286Y-15225381D01*
X16759762Y-15244428D01*
X16750238Y-15253952D01*
X16731190Y-15263476D01*
X16683571Y-15263476D01*
X16664524Y-15253952D01*
X16655000Y-15244428D01*
X16845476Y-15063476D02*
X16845476Y-15101571D01*
X16921667Y-15063476D02*
X16921667Y-15101571D01*
X17216905Y-15339667D02*
X17207381Y-15330143D01*
X17188333Y-15301571D01*
X17178810Y-15282524D01*
X17169286Y-15253952D01*
X17159762Y-15206333D01*
X17159762Y-15168238D01*
X17169286Y-15120619D01*
X17178810Y-15092048D01*
X17188333Y-15073000D01*
X17207381Y-15044428D01*
X17216905Y-15034905D01*
X17283571Y-15082524D02*
X17293095Y-15073000D01*
X17312143Y-15063476D01*
X17359762Y-15063476D01*
X17378810Y-15073000D01*
X17388333Y-15082524D01*
X17397857Y-15101571D01*
X17397857Y-15120619D01*
X17388333Y-15149190D01*
X17274048Y-15263476D01*
X17397857Y-15263476D01*
X17588333Y-15263476D02*
X17474048Y-15263476D01*
X17531190Y-15263476D02*
X17531190Y-15063476D01*
X17512143Y-15092048D01*
X17493095Y-15111095D01*
X17474048Y-15120619D01*
X17826429Y-15263476D02*
X17826429Y-15063476D01*
X17912143Y-15263476D02*
X17912143Y-15158714D01*
X17902619Y-15139667D01*
X17883571Y-15130143D01*
X17855000Y-15130143D01*
X17835952Y-15139667D01*
X17826429Y-15149190D01*
X18035952Y-15263476D02*
X18016905Y-15253952D01*
X18007381Y-15244428D01*
X17997857Y-15225381D01*
X17997857Y-15168238D01*
X18007381Y-15149190D01*
X18016905Y-15139667D01*
X18035952Y-15130143D01*
X18064524Y-15130143D01*
X18083571Y-15139667D01*
X18093095Y-15149190D01*
X18102619Y-15168238D01*
X18102619Y-15225381D01*
X18093095Y-15244428D01*
X18083571Y-15253952D01*
X18064524Y-15263476D01*
X18035952Y-15263476D01*
X18216905Y-15263476D02*
X18197857Y-15253952D01*
X18188333Y-15234905D01*
X18188333Y-15063476D01*
X18369286Y-15253952D02*
X18350238Y-15263476D01*
X18312143Y-15263476D01*
X18293095Y-15253952D01*
X18283571Y-15234905D01*
X18283571Y-15158714D01*
X18293095Y-15139667D01*
X18312143Y-15130143D01*
X18350238Y-15130143D01*
X18369286Y-15139667D01*
X18378810Y-15158714D01*
X18378810Y-15177762D01*
X18283571Y-15196809D01*
X18455000Y-15253952D02*
X18474048Y-15263476D01*
X18512143Y-15263476D01*
X18531190Y-15253952D01*
X18540714Y-15234905D01*
X18540714Y-15225381D01*
X18531190Y-15206333D01*
X18512143Y-15196809D01*
X18483571Y-15196809D01*
X18464524Y-15187286D01*
X18455000Y-15168238D01*
X18455000Y-15158714D01*
X18464524Y-15139667D01*
X18483571Y-15130143D01*
X18512143Y-15130143D01*
X18531190Y-15139667D01*
X18607381Y-15339667D02*
X18616905Y-15330143D01*
X18635952Y-15301571D01*
X18645476Y-15282524D01*
X18655000Y-15253952D01*
X18664524Y-15206333D01*
X18664524Y-15168238D01*
X18655000Y-15120619D01*
X18645476Y-15092048D01*
X18635952Y-15073000D01*
X18616905Y-15044428D01*
X18607381Y-15034905D01*
D10*
X13630356Y-15472356D02*
X13630356Y-15401644D01*
X13559644Y-15401644D01*
X13559644Y-15472356D01*
X13630356Y-15472356D01*
D11*
X14007381Y-15527476D02*
X13893095Y-15527476D01*
X13950238Y-15527476D02*
X13950238Y-15327476D01*
X13931190Y-15356048D01*
X13912143Y-15375095D01*
X13893095Y-15384619D01*
X14093095Y-15508428D02*
X14102619Y-15517952D01*
X14093095Y-15527476D01*
X14083571Y-15517952D01*
X14093095Y-15508428D01*
X14093095Y-15527476D01*
X14226428Y-15327476D02*
X14245476Y-15327476D01*
X14264524Y-15337000D01*
X14274048Y-15346524D01*
X14283571Y-15365571D01*
X14293095Y-15403667D01*
X14293095Y-15451286D01*
X14283571Y-15489381D01*
X14274048Y-15508428D01*
X14264524Y-15517952D01*
X14245476Y-15527476D01*
X14226428Y-15527476D01*
X14207381Y-15517952D01*
X14197857Y-15508428D01*
X14188333Y-15489381D01*
X14178809Y-15451286D01*
X14178809Y-15403667D01*
X14188333Y-15365571D01*
X14197857Y-15346524D01*
X14207381Y-15337000D01*
X14226428Y-15327476D01*
X14416905Y-15327476D02*
X14435952Y-15327476D01*
X14455000Y-15337000D01*
X14464524Y-15346524D01*
X14474048Y-15365571D01*
X14483571Y-15403667D01*
X14483571Y-15451286D01*
X14474048Y-15489381D01*
X14464524Y-15508428D01*
X14455000Y-15517952D01*
X14435952Y-15527476D01*
X14416905Y-15527476D01*
X14397857Y-15517952D01*
X14388333Y-15508428D01*
X14378809Y-15489381D01*
X14369286Y-15451286D01*
X14369286Y-15403667D01*
X14378809Y-15365571D01*
X14388333Y-15346524D01*
X14397857Y-15337000D01*
X14416905Y-15327476D01*
X14607381Y-15327476D02*
X14626428Y-15327476D01*
X14645476Y-15337000D01*
X14655000Y-15346524D01*
X14664524Y-15365571D01*
X14674048Y-15403667D01*
X14674048Y-15451286D01*
X14664524Y-15489381D01*
X14655000Y-15508428D01*
X14645476Y-15517952D01*
X14626428Y-15527476D01*
X14607381Y-15527476D01*
X14588333Y-15517952D01*
X14578809Y-15508428D01*
X14569286Y-15489381D01*
X14559762Y-15451286D01*
X14559762Y-15403667D01*
X14569286Y-15365571D01*
X14578809Y-15346524D01*
X14588333Y-15337000D01*
X14607381Y-15327476D01*
X14759762Y-15527476D02*
X14759762Y-15394143D01*
X14759762Y-15413190D02*
X14769286Y-15403667D01*
X14788333Y-15394143D01*
X14816905Y-15394143D01*
X14835952Y-15403667D01*
X14845476Y-15422714D01*
X14845476Y-15527476D01*
X14845476Y-15422714D02*
X14855000Y-15403667D01*
X14874048Y-15394143D01*
X14902619Y-15394143D01*
X14921667Y-15403667D01*
X14931190Y-15422714D01*
X14931190Y-15527476D01*
X15026428Y-15527476D02*
X15026428Y-15394143D01*
X15026428Y-15413190D02*
X15035952Y-15403667D01*
X15055000Y-15394143D01*
X15083571Y-15394143D01*
X15102619Y-15403667D01*
X15112143Y-15422714D01*
X15112143Y-15527476D01*
X15112143Y-15422714D02*
X15121667Y-15403667D01*
X15140714Y-15394143D01*
X15169286Y-15394143D01*
X15188333Y-15403667D01*
X15197857Y-15422714D01*
X15197857Y-15527476D01*
X15588333Y-15317952D02*
X15416905Y-15575095D01*
X15845476Y-15327476D02*
X15864524Y-15327476D01*
X15883571Y-15337000D01*
X15893095Y-15346524D01*
X15902619Y-15365571D01*
X15912143Y-15403667D01*
X15912143Y-15451286D01*
X15902619Y-15489381D01*
X15893095Y-15508428D01*
X15883571Y-15517952D01*
X15864524Y-15527476D01*
X15845476Y-15527476D01*
X15826428Y-15517952D01*
X15816905Y-15508428D01*
X15807381Y-15489381D01*
X15797857Y-15451286D01*
X15797857Y-15403667D01*
X15807381Y-15365571D01*
X15816905Y-15346524D01*
X15826428Y-15337000D01*
X15845476Y-15327476D01*
X15997857Y-15508428D02*
X16007381Y-15517952D01*
X15997857Y-15527476D01*
X15988333Y-15517952D01*
X15997857Y-15508428D01*
X15997857Y-15527476D01*
X16131190Y-15327476D02*
X16150238Y-15327476D01*
X16169286Y-15337000D01*
X16178809Y-15346524D01*
X16188333Y-15365571D01*
X16197857Y-15403667D01*
X16197857Y-15451286D01*
X16188333Y-15489381D01*
X16178809Y-15508428D01*
X16169286Y-15517952D01*
X16150238Y-15527476D01*
X16131190Y-15527476D01*
X16112143Y-15517952D01*
X16102619Y-15508428D01*
X16093095Y-15489381D01*
X16083571Y-15451286D01*
X16083571Y-15403667D01*
X16093095Y-15365571D01*
X16102619Y-15346524D01*
X16112143Y-15337000D01*
X16131190Y-15327476D01*
X16264524Y-15327476D02*
X16388333Y-15327476D01*
X16321667Y-15403667D01*
X16350238Y-15403667D01*
X16369286Y-15413190D01*
X16378809Y-15422714D01*
X16388333Y-15441762D01*
X16388333Y-15489381D01*
X16378809Y-15508428D01*
X16369286Y-15517952D01*
X16350238Y-15527476D01*
X16293095Y-15527476D01*
X16274048Y-15517952D01*
X16264524Y-15508428D01*
X16483571Y-15527476D02*
X16521667Y-15527476D01*
X16540714Y-15517952D01*
X16550238Y-15508428D01*
X16569286Y-15479857D01*
X16578809Y-15441762D01*
X16578809Y-15365571D01*
X16569286Y-15346524D01*
X16559762Y-15337000D01*
X16540714Y-15327476D01*
X16502619Y-15327476D01*
X16483571Y-15337000D01*
X16474048Y-15346524D01*
X16464524Y-15365571D01*
X16464524Y-15413190D01*
X16474048Y-15432238D01*
X16483571Y-15441762D01*
X16502619Y-15451286D01*
X16540714Y-15451286D01*
X16559762Y-15441762D01*
X16569286Y-15432238D01*
X16578809Y-15413190D01*
X16750238Y-15394143D02*
X16750238Y-15527476D01*
X16702619Y-15317952D02*
X16655000Y-15460809D01*
X16778810Y-15460809D01*
X16845476Y-15327476D02*
X16845476Y-15365571D01*
X16921667Y-15327476D02*
X16921667Y-15365571D01*
X17216905Y-15603667D02*
X17207381Y-15594143D01*
X17188333Y-15565571D01*
X17178810Y-15546524D01*
X17169286Y-15517952D01*
X17159762Y-15470333D01*
X17159762Y-15432238D01*
X17169286Y-15384619D01*
X17178810Y-15356048D01*
X17188333Y-15337000D01*
X17207381Y-15308428D01*
X17216905Y-15298905D01*
X17274048Y-15327476D02*
X17397857Y-15327476D01*
X17331190Y-15403667D01*
X17359762Y-15403667D01*
X17378810Y-15413190D01*
X17388333Y-15422714D01*
X17397857Y-15441762D01*
X17397857Y-15489381D01*
X17388333Y-15508428D01*
X17378810Y-15517952D01*
X17359762Y-15527476D01*
X17302619Y-15527476D01*
X17283571Y-15517952D01*
X17274048Y-15508428D01*
X17569286Y-15394143D02*
X17569286Y-15527476D01*
X17521667Y-15317952D02*
X17474048Y-15460809D01*
X17597857Y-15460809D01*
X17826429Y-15527476D02*
X17826429Y-15327476D01*
X17912143Y-15527476D02*
X17912143Y-15422714D01*
X17902619Y-15403667D01*
X17883571Y-15394143D01*
X17855000Y-15394143D01*
X17835952Y-15403667D01*
X17826429Y-15413190D01*
X18035952Y-15527476D02*
X18016905Y-15517952D01*
X18007381Y-15508428D01*
X17997857Y-15489381D01*
X17997857Y-15432238D01*
X18007381Y-15413190D01*
X18016905Y-15403667D01*
X18035952Y-15394143D01*
X18064524Y-15394143D01*
X18083571Y-15403667D01*
X18093095Y-15413190D01*
X18102619Y-15432238D01*
X18102619Y-15489381D01*
X18093095Y-15508428D01*
X18083571Y-15517952D01*
X18064524Y-15527476D01*
X18035952Y-15527476D01*
X18216905Y-15527476D02*
X18197857Y-15517952D01*
X18188333Y-15498905D01*
X18188333Y-15327476D01*
X18369286Y-15517952D02*
X18350238Y-15527476D01*
X18312143Y-15527476D01*
X18293095Y-15517952D01*
X18283571Y-15498905D01*
X18283571Y-15422714D01*
X18293095Y-15403667D01*
X18312143Y-15394143D01*
X18350238Y-15394143D01*
X18369286Y-15403667D01*
X18378810Y-15422714D01*
X18378810Y-15441762D01*
X18283571Y-15460809D01*
X18455000Y-15517952D02*
X18474048Y-15527476D01*
X18512143Y-15527476D01*
X18531190Y-15517952D01*
X18540714Y-15498905D01*
X18540714Y-15489381D01*
X18531190Y-15470333D01*
X18512143Y-15460809D01*
X18483571Y-15460809D01*
X18464524Y-15451286D01*
X18455000Y-15432238D01*
X18455000Y-15422714D01*
X18464524Y-15403667D01*
X18483571Y-15394143D01*
X18512143Y-15394143D01*
X18531190Y-15403667D01*
X18607381Y-15603667D02*
X18616905Y-15594143D01*
X18635952Y-15565571D01*
X18645476Y-15546524D01*
X18655000Y-15517952D01*
X18664524Y-15470333D01*
X18664524Y-15432238D01*
X18655000Y-15384619D01*
X18645476Y-15356048D01*
X18635952Y-15337000D01*
X18616905Y-15308428D01*
X18607381Y-15298905D01*
M02*
