M48
; DRILL file {KiCad (6.0.10-0)} date 
; FORMAT={-:-/ absolute / metric / decimal}
; #@! TF.CreationDate,2024-01-08T12:33:40+09:00
; #@! TF.GenerationSoftware,Kicad,Pcbnew,(6.0.10-0)
; #@! TF.FileFunction,Plated,1,2,PTH
FMAT,2
METRIC
; #@! TA.AperFunction,Plated,PTH,ViaDrill
T1C0.400
; #@! TA.AperFunction,Plated,PTH,ComponentDrill
T2C0.600
; #@! TA.AperFunction,Plated,PTH,ComponentDrill
T3C0.800
; #@! TA.AperFunction,Plated,PTH,ComponentDrill
T4C1.000
%
G90
G05
T1
X141.573Y-73.629
X141.573Y-83.915
X141.986Y-65.659
X144.145Y-83.82
X144.272Y-75.057
X145.034Y-65.659
X145.042Y-82.867
X146.685Y-73.66
X147.447Y-77.47
X148.59Y-85.725
X149.1Y-73.2
X149.86Y-82.004
X149.86Y-85.09
X151.676Y-117.5
X152.4Y-127.0
X153.035Y-125.73
X156.21Y-96.52
X156.21Y-125.73
X156.591Y-98.425
X156.718Y-117.983
X157.0Y-85.5
X160.02Y-69.596
X163.83Y-69.85
X172.103Y-77.452
X173.355Y-76.835
X173.99Y-73.025
X173.99Y-74.295
X173.99Y-97.79
X175.0Y-111.0
X175.26Y-97.155
X175.39Y-87.5
X175.424Y-80.01
X175.895Y-88.9
X181.685Y-68.505
X192.405Y-94.615
X194.31Y-90.805
T3
X151.0Y-62.5
X151.0Y-65.0
X151.0Y-67.5
X154.3Y-62.5
X154.3Y-65.0
X154.3Y-67.5
X178.46Y-92.46
X178.46Y-97.54
X178.5Y-84.96
X178.5Y-90.04
X178.5Y-111.92
X178.5Y-117.0
X181.0Y-95.0
X181.04Y-87.5
X181.04Y-114.46
X198.0Y-82.135
X198.0Y-85.435
X200.5Y-82.135
X200.5Y-85.435
X203.0Y-82.135
X203.0Y-85.435
T4
X139.75Y-87.025
X142.25Y-87.025
X151.13Y-71.501
X151.13Y-74.041
X153.78Y-134.025
X153.78Y-136.525
X154.94Y-71.755
X154.94Y-74.295
X154.94Y-76.835
X154.94Y-79.375
X154.94Y-81.915
X169.545Y-62.865
X169.545Y-65.405
X172.085Y-62.865
X172.085Y-65.405
X173.355Y-100.955
X173.355Y-103.495
X173.355Y-106.035
X173.355Y-108.575
X178.0Y-70.5
X178.0Y-73.04
X178.0Y-75.58
X178.0Y-78.12
X180.975Y-102.235
X180.975Y-104.775
X180.975Y-107.315
X186.88Y-73.0
X186.9Y-85.0
X189.42Y-73.0
X189.44Y-85.0
X191.96Y-73.0
X191.98Y-85.0
X194.5Y-73.0
X194.52Y-85.0
T2
X139.19Y-62.438G85X139.19Y-63.038
G05
X139.19Y-66.238G85X139.19Y-66.838
G05
X147.83Y-62.438G85X147.83Y-63.038
G05
X147.83Y-66.238G85X147.83Y-66.838
G05
T0
M30
