<?xml version="1.0" encoding="UTF-8" standalone="no"?>
<svg
   version="1.1"
   width="10.193020cm"
   height="13.548360cm"
   viewBox="0 0 101930200 135483600"
   id="svg124"
   sodipodi:docname="AutoFeeder_Drum-type-F_Paste_2.svg"
   inkscape:version="1.3.2 (091e20e, 2023-11-25)"
   xmlns:inkscape="http://www.inkscape.org/namespaces/inkscape"
   xmlns:sodipodi="http://sodipodi.sourceforge.net/DTD/sodipodi-0.dtd"
   xmlns="http://www.w3.org/2000/svg"
   xmlns:svg="http://www.w3.org/2000/svg"
   xmlns:rdf="http://www.w3.org/1999/02/22-rdf-syntax-ns#"
   xmlns:cc="http://creativecommons.org/ns#"
   xmlns:dc="http://purl.org/dc/elements/1.1/">
  <defs
     id="defs124" />
  <sodipodi:namedview
     id="namedview124"
     pagecolor="#ffffff"
     bordercolor="#666666"
     borderopacity="1.0"
     inkscape:showpageshadow="2"
     inkscape:pageopacity="0.0"
     inkscape:pagecheckerboard="0"
     inkscape:deskcolor="#d1d1d1"
     inkscape:document-units="cm"
     inkscape:zoom="2.5363755"
     inkscape:cx="134.44381"
     inkscape:cy="189.44356"
     inkscape:window-width="2024"
     inkscape:window-height="1176"
     inkscape:window-x="0"
     inkscape:window-y="25"
     inkscape:window-maximized="0"
     inkscape:current-layer="svg124" />
  <title
     id="title1">SVG Picture created as AutoFeeder_Drum-type-F_Paste.svg date 2024/02/05 21:44:26 </title>
  <desc
     id="desc1">Picture generated by PCBNEW </desc>
  <g
     style="fill:#000000; fill-opacity:1.000000;stroke:#000000; stroke-opacity:1.000000; stroke-linecap:round; stroke-linejoin:round;"
     transform="translate(0 0) scale(1 1)"
     id="g1" />
  <g
     id="g2"
     style="fill:#000000;fill-opacity:0;stroke:#000000;stroke-width:0;stroke-linecap:round;stroke-linejoin:round;stroke-opacity:1" />
  <g
     style="fill:#000000;fill-opacity:0;stroke:#000000;stroke-width:1;stroke-linecap:round;stroke-linejoin:round;stroke-opacity:1"
     id="g3" />
  <path
     style="fill:#000000;fill-opacity:1;fill-rule:evenodd;stroke:#000000;stroke-width:0.85;stroke-linecap:round;stroke-linejoin:round;stroke-opacity:1"
     d="m 67337024,34355000 14558,-73188 41458,-62046 62046,-41458 73188,-14558 h 382500 l 73188,14558 62046,41458 41458,62046 14558,73188 v 425000 l -14558,73188 -41458,62046 -62046,41458 -73188,14558 h -382500 l -73188,-14558 -62046,-41458 -41458,-62046 -14558,-73188 z"
     id="path3" />
  <path
     style="fill:#000000;fill-opacity:1;fill-rule:evenodd;stroke:#000000;stroke-width:0.85;stroke-linecap:round;stroke-linejoin:round;stroke-opacity:1"
     d="m 68887024,34355000 14558,-73188 41458,-62046 62046,-41458 73188,-14558 h 382500 l 73188,14558 62046,41458 41458,62046 14558,73188 v 425000 l -14558,73188 -41458,62046 -62046,41458 -73188,14558 h -382500 l -73188,-14558 -62046,-41458 -41458,-62046 -14558,-73188 z"
     id="path4" />
  <g
     id="g5"
     style="fill:#000000;fill-opacity:0;stroke:#000000;stroke-width:0;stroke-linecap:round;stroke-linejoin:round;stroke-opacity:1" />
  <g
     id="g6"
     style="fill:#000000;fill-opacity:0;stroke:#000000;stroke-width:0;stroke-linecap:round;stroke-linejoin:round;stroke-opacity:1" />
  <path
     style="fill:#000000;fill-opacity:1;fill-rule:evenodd;stroke:#000000;stroke-width:0.85;stroke-linecap:round;stroke-linejoin:round;stroke-opacity:1"
     d="m 36957024,58375000 73188,14558 62046,41458 41458,62046 14558,73188 v 382500 l -14558,73188 -41458,62046 -62046,41458 -73188,14558 h -425000 l -73188,-14558 -62046,-41458 -41458,-62046 -14558,-73188 v -382500 l 14558,-73188 41458,-62046 62046,-41458 73188,-14558 z"
     id="path6" />
  <path
     style="fill:#000000;fill-opacity:1;fill-rule:evenodd;stroke:#000000;stroke-width:0.85;stroke-linecap:round;stroke-linejoin:round;stroke-opacity:1"
     d="m 36957024,59925000 73188,14558 62046,41458 41458,62046 14558,73188 v 382500 l -14558,73188 -41458,62046 -62046,41458 -73188,14558 h -425000 l -73188,-14558 -62046,-41458 -41458,-62046 -14558,-73188 v -382500 l 14558,-73188 41458,-62046 62046,-41458 73188,-14558 z"
     id="path7" />
  <g
     id="g8"
     style="fill:#000000;fill-opacity:0;stroke:#000000;stroke-width:0;stroke-linecap:round;stroke-linejoin:round;stroke-opacity:1" />
  <path
     style="fill:#000000;fill-opacity:1;fill-rule:evenodd;stroke:#000000;stroke-width:0.85;stroke-linecap:round;stroke-linejoin:round;stroke-opacity:1"
     d="m 31298024,36504000 -14558,73188 -41458,62046 -62046,41458 -73188,14558 h -382500 l -73188,-14558 -62046,-41458 -41458,-62046 -14558,-73188 v -425000 l 14558,-73188 41458,-62046 62046,-41458 73188,-14558 h 382500 l 73188,14558 62046,41458 41458,62046 14558,73188 z"
     id="path8" />
  <path
     style="fill:#000000;fill-opacity:1;fill-rule:evenodd;stroke:#000000;stroke-width:0.85;stroke-linecap:round;stroke-linejoin:round;stroke-opacity:1"
     d="m 29748024,36504000 -14558,73188 -41458,62046 -62046,41458 -73188,14558 h -382500 l -73188,-14558 -62046,-41458 -41458,-62046 -14558,-73188 v -425000 l 14558,-73188 41458,-62046 62046,-41458 73188,-14558 h 382500 l 73188,14558 62046,41458 41458,62046 14558,73188 z"
     id="path9" />
  <g
     id="g10"
     style="fill:#000000;fill-opacity:0;stroke:#000000;stroke-width:0;stroke-linecap:round;stroke-linejoin:round;stroke-opacity:1" />
  <path
     style="fill:#000000;fill-opacity:1;fill-rule:evenodd;stroke:#000000;stroke-width:0.85;stroke-linecap:round;stroke-linejoin:round;stroke-opacity:1"
     d="m 25038524,36057750 12940,-65056 36852,-55152 55152,-36852 65056,-12940 h 340000 l 65056,12940 55152,36852 36852,55152 12940,65056 v 467500 l -12940,65056 -36852,55152 -55152,36852 -65056,12940 h -340000 l -65056,-12940 -55152,-36852 -36852,-55152 -12940,-65056 z"
     id="path10" />
  <path
     style="fill:#000000;fill-opacity:1;fill-rule:evenodd;stroke:#000000;stroke-width:0.85;stroke-linecap:round;stroke-linejoin:round;stroke-opacity:1"
     d="m 26688524,36057750 12940,-65056 36852,-55152 55152,-36852 65056,-12940 h 340000 l 65056,12940 55152,36852 36852,55152 12940,65056 v 467500 l -12940,65056 -36852,55152 -55152,36852 -65056,12940 h -340000 l -65056,-12940 -55152,-36852 -36852,-55152 -12940,-65056 z"
     id="path11" />
  <g
     id="g12"
     style="fill:#000000;fill-opacity:0;stroke:#000000;stroke-width:0;stroke-linecap:round;stroke-linejoin:round;stroke-opacity:1" />
  <g
     id="g13"
     style="fill:#000000;fill-opacity:0;stroke:#000000;stroke-width:0;stroke-linecap:round;stroke-linejoin:round;stroke-opacity:1" />
  <g
     id="g14"
     style="fill:#000000;fill-opacity:0;stroke:#000000;stroke-width:0;stroke-linecap:round;stroke-linejoin:round;stroke-opacity:1" />
  <g
     id="g15"
     style="fill:#000000;fill-opacity:0;stroke:#000000;stroke-width:0;stroke-linecap:round;stroke-linejoin:round;stroke-opacity:1" />
  <g
     id="g16"
     style="fill:#000000;fill-opacity:0;stroke:#000000;stroke-width:0;stroke-linecap:round;stroke-linejoin:round;stroke-opacity:1" />
  <path
     style="fill:#000000;fill-opacity:1;fill-rule:evenodd;stroke:#000000;stroke-width:0.85;stroke-linecap:round;stroke-linejoin:round;stroke-opacity:1"
     d="m 24199524,34505000 v 1615000 h -1530000 v -1615000 z"
     id="path16" />
  <path
     style="fill:#000000;fill-opacity:1;fill-rule:evenodd;stroke:#000000;stroke-width:0.85;stroke-linecap:round;stroke-linejoin:round;stroke-opacity:1"
     d="m 24199524,29555000 v 1615000 h -1530000 v -1615000 z"
     id="path17" />
  <path
     style="fill:#000000;fill-opacity:1;fill-rule:evenodd;stroke:#000000;stroke-width:0.85;stroke-linecap:round;stroke-linejoin:round;stroke-opacity:1"
     d="m 19307024,26897500 v 1530000 h -1445000 v -1530000 z"
     id="path18" />
  <path
     style="fill:#000000;fill-opacity:1;fill-rule:evenodd;stroke:#000000;stroke-width:0.85;stroke-linecap:round;stroke-linejoin:round;stroke-opacity:1"
     d="m 19307024,37297500 v 1530000 h -1445000 v -1530000 z"
     id="path19" />
  <path
     style="fill:#000000;fill-opacity:1;fill-rule:evenodd;stroke:#000000;stroke-width:0.85;stroke-linecap:round;stroke-linejoin:round;stroke-opacity:1"
     d="m 24199524,32055000 v 1615000 h -1530000 v -1615000 z"
     id="path20" />
  <g
     id="g21"
     style="fill:#000000;fill-opacity:0;stroke:#000000;stroke-width:0;stroke-linecap:round;stroke-linejoin:round;stroke-opacity:1" />
  <g
     style="fill:#000000;fill-opacity:1;stroke:#000000;stroke-width:1;stroke-linecap:round;stroke-linejoin:round;stroke-opacity:1"
     id="g22">
    <path
       style="fill:#000000;fill-opacity:1;fill-rule:evenodd;stroke:#000000;stroke-width:1;stroke-linecap:round;stroke-linejoin:round;stroke-opacity:1"
       d="m 32404524,48321500 v -500000 h 500000 v 500000 z"
       id="path21" />
    <path
       style="fill:#000000;fill-opacity:1;fill-rule:evenodd;stroke:#000000;stroke-width:1;stroke-linecap:round;stroke-linejoin:round;stroke-opacity:1"
       d="m 34604524,48321500 v -500000 h 500000 v 500000 z"
       id="path22" />
  </g>
  <g
     id="g23"
     style="fill:#000000;fill-opacity:0;stroke:#000000;stroke-width:0;stroke-linecap:round;stroke-linejoin:round;stroke-opacity:1" />
  <g
     id="g24"
     style="fill:#000000;fill-opacity:0;stroke:#000000;stroke-width:0;stroke-linecap:round;stroke-linejoin:round;stroke-opacity:1" />
  <g
     id="g25"
     style="fill:#000000;fill-opacity:0;stroke:#000000;stroke-width:0;stroke-linecap:round;stroke-linejoin:round;stroke-opacity:1" />
  <g
     id="g26"
     style="fill:#000000;fill-opacity:0;stroke:#000000;stroke-width:0;stroke-linecap:round;stroke-linejoin:round;stroke-opacity:1" />
  <g
     id="g27"
     style="fill:#000000;fill-opacity:0;stroke:#000000;stroke-width:0;stroke-linecap:round;stroke-linejoin:round;stroke-opacity:1" />
  <g
     style="fill:#000000;fill-opacity:1;stroke:#000000;stroke-width:1;stroke-linecap:round;stroke-linejoin:round;stroke-opacity:1"
     id="g30">
    <path
       style="fill:#000000;fill-opacity:1;fill-rule:evenodd;stroke:#000000;stroke-width:1;stroke-linecap:round;stroke-linejoin:round;stroke-opacity:1"
       d="m 34954524,63742500 h 400000 v 650000 h -400000 z"
       id="path27" />
    <path
       style="fill:#000000;fill-opacity:1;fill-rule:evenodd;stroke:#000000;stroke-width:1;stroke-linecap:round;stroke-linejoin:round;stroke-opacity:1"
       d="m 35714524,63742500 h 400000 v 650000 h -400000 z"
       id="path28" />
    <path
       style="fill:#000000;fill-opacity:1;fill-rule:evenodd;stroke:#000000;stroke-width:1;stroke-linecap:round;stroke-linejoin:round;stroke-opacity:1"
       d="m 35714524,62742500 h 400000 v 650000 h -400000 z"
       id="path29" />
    <path
       style="fill:#000000;fill-opacity:1;fill-rule:evenodd;stroke:#000000;stroke-width:1;stroke-linecap:round;stroke-linejoin:round;stroke-opacity:1"
       d="m 34954524,62742500 h 400000 v 650000 h -400000 z"
       id="path30" />
  </g>
  <g
     id="g31"
     style="fill:#000000;fill-opacity:0;stroke:#000000;stroke-width:0;stroke-linecap:round;stroke-linejoin:round;stroke-opacity:1" />
  <g
     id="g32"
     style="fill:#000000;fill-opacity:0;stroke:#000000;stroke-width:0;stroke-linecap:round;stroke-linejoin:round;stroke-opacity:1" />
  <g
     id="g33"
     style="fill:#000000;fill-opacity:0;stroke:#000000;stroke-width:0;stroke-linecap:round;stroke-linejoin:round;stroke-opacity:1" />
  <g
     id="g34"
     style="fill:#000000;fill-opacity:0;stroke:#000000;stroke-width:0;stroke-linecap:round;stroke-linejoin:round;stroke-opacity:1" />
  <g
     id="g35"
     style="fill:#000000;fill-opacity:0;stroke:#000000;stroke-width:0;stroke-linecap:round;stroke-linejoin:round;stroke-opacity:1" />
  <path
     style="fill:#000000;fill-opacity:1;fill-rule:evenodd;stroke:#000000;stroke-width:0.85;stroke-linecap:round;stroke-linejoin:round;stroke-opacity:1"
     d="m 36510774,54347500 -65056,-12940 -55152,-36852 -36852,-55152 -12940,-65056 v -340000 l 12940,-65056 36852,-55152 55152,-36852 65056,-12940 h 467500 l 65056,12940 55152,36852 36852,55152 12940,65056 v 340000 l -12940,65056 -36852,55152 -55152,36852 -65056,12940 z"
     id="path35" />
  <path
     style="fill:#000000;fill-opacity:1;fill-rule:evenodd;stroke:#000000;stroke-width:0.85;stroke-linecap:round;stroke-linejoin:round;stroke-opacity:1"
     d="m 36510774,52697500 -65056,-12940 -55152,-36852 -36852,-55152 -12940,-65056 v -340000 l 12940,-65056 36852,-55152 55152,-36852 65056,-12940 h 467500 l 65056,12940 55152,36852 36852,55152 12940,65056 v 340000 l -12940,65056 -36852,55152 -55152,36852 -65056,12940 z"
     id="path36" />
  <g
     id="g37"
     style="fill:#000000;fill-opacity:0;stroke:#000000;stroke-width:0;stroke-linecap:round;stroke-linejoin:round;stroke-opacity:1" />
  <path
     style="fill:#000000;fill-opacity:1;fill-rule:evenodd;stroke:#000000;stroke-width:0.85;stroke-linecap:round;stroke-linejoin:round;stroke-opacity:1"
     d="m 36639524,56591250 -12940,65056 -36852,55152 -55152,36852 -65056,12940 h -340000 l -65056,-12940 -55152,-36852 -36852,-55152 -12940,-65056 v -467500 l 12940,-65056 36852,-55152 55152,-36852 65056,-12940 h 340000 l 65056,12940 55152,36852 36852,55152 12940,65056 z"
     id="path37" />
  <path
     style="fill:#000000;fill-opacity:1;fill-rule:evenodd;stroke:#000000;stroke-width:0.85;stroke-linecap:round;stroke-linejoin:round;stroke-opacity:1"
     d="m 34989524,56591250 -12940,65056 -36852,55152 -55152,36852 -65056,12940 h -340000 l -65056,-12940 -55152,-36852 -36852,-55152 -12940,-65056 v -467500 l 12940,-65056 36852,-55152 55152,-36852 65056,-12940 h 340000 l 65056,12940 55152,36852 36852,55152 12940,65056 z"
     id="path38" />
  <g
     id="g39"
     style="fill:#000000;fill-opacity:0;stroke:#000000;stroke-width:0;stroke-linecap:round;stroke-linejoin:round;stroke-opacity:1" />
  <g
     style="fill:#000000;fill-opacity:1;stroke:#000000;stroke-width:1;stroke-linecap:round;stroke-linejoin:round;stroke-opacity:1"
     id="g42">
    <path
       style="fill:#000000;fill-opacity:1;fill-rule:evenodd;stroke:#000000;stroke-width:1;stroke-linecap:round;stroke-linejoin:round;stroke-opacity:1"
       d="m 67839524,55407500 v -400000 h 650000 v 400000 z"
       id="path39" />
    <path
       style="fill:#000000;fill-opacity:1;fill-rule:evenodd;stroke:#000000;stroke-width:1;stroke-linecap:round;stroke-linejoin:round;stroke-opacity:1"
       d="m 67839524,54647500 v -400000 h 650000 v 400000 z"
       id="path40" />
    <path
       style="fill:#000000;fill-opacity:1;fill-rule:evenodd;stroke:#000000;stroke-width:1;stroke-linecap:round;stroke-linejoin:round;stroke-opacity:1"
       d="m 66839524,54647500 v -400000 h 650000 v 400000 z"
       id="path41" />
    <path
       style="fill:#000000;fill-opacity:1;fill-rule:evenodd;stroke:#000000;stroke-width:1;stroke-linecap:round;stroke-linejoin:round;stroke-opacity:1"
       d="m 66839524,55407500 v -400000 h 650000 v 400000 z"
       id="path42" />
  </g>
  <g
     id="g43"
     style="fill:#000000;fill-opacity:0;stroke:#000000;stroke-width:0;stroke-linecap:round;stroke-linejoin:round;stroke-opacity:1" />
  <path
     style="fill:#000000;fill-opacity:1;fill-rule:evenodd;stroke:#000000;stroke-width:0.85;stroke-linecap:round;stroke-linejoin:round;stroke-opacity:1"
     d="m 54163774,51172500 -65056,-12940 -55152,-36852 -36852,-55152 -12940,-65056 v -340000 l 12940,-65056 36852,-55152 55152,-36852 65056,-12940 h 467500 l 65056,12940 55152,36852 36852,55152 12940,65056 v 340000 l -12940,65056 -36852,55152 -55152,36852 -65056,12940 z"
     id="path43" />
  <path
     style="fill:#000000;fill-opacity:1;fill-rule:evenodd;stroke:#000000;stroke-width:0.85;stroke-linecap:round;stroke-linejoin:round;stroke-opacity:1"
     d="m 54163774,49522500 -65056,-12940 -55152,-36852 -36852,-55152 -12940,-65056 v -340000 l 12940,-65056 36852,-55152 55152,-36852 65056,-12940 h 467500 l 65056,12940 55152,36852 36852,55152 12940,65056 v 340000 l -12940,65056 -36852,55152 -55152,36852 -65056,12940 z"
     id="path44" />
  <g
     id="g45"
     style="fill:#000000;fill-opacity:0;stroke:#000000;stroke-width:0;stroke-linecap:round;stroke-linejoin:round;stroke-opacity:1" />
  <path
     style="fill:#000000;fill-opacity:1;fill-rule:evenodd;stroke:#000000;stroke-width:0.85;stroke-linecap:round;stroke-linejoin:round;stroke-opacity:1"
     d="m 56028274,39402500 65056,12940 55152,36852 36852,55152 12940,65056 v 340000 l -12940,65056 -36852,55152 -55152,36852 -65056,12940 h -467500 l -65056,-12940 -55152,-36852 -36852,-55152 -12940,-65056 v -340000 l 12940,-65056 36852,-55152 55152,-36852 65056,-12940 z"
     id="path45" />
  <path
     style="fill:#000000;fill-opacity:1;fill-rule:evenodd;stroke:#000000;stroke-width:0.85;stroke-linecap:round;stroke-linejoin:round;stroke-opacity:1"
     d="m 56028274,41052500 65056,12940 55152,36852 36852,55152 12940,65056 v 340000 l -12940,65056 -36852,55152 -55152,36852 -65056,12940 h -467500 l -65056,-12940 -55152,-36852 -36852,-55152 -12940,-65056 v -340000 l 12940,-65056 36852,-55152 55152,-36852 65056,-12940 z"
     id="path46" />
  <g
     id="g47"
     style="fill:#000000;fill-opacity:0;stroke:#000000;stroke-width:0;stroke-linecap:round;stroke-linejoin:round;stroke-opacity:1" />
  <path
     style="fill:#000000;fill-opacity:1;fill-rule:evenodd;stroke:#000000;stroke-width:0.85;stroke-linecap:round;stroke-linejoin:round;stroke-opacity:1"
     d="m 39941524,28397250 -12940,65056 -36852,55152 -55152,36852 -65056,12940 h -340000 l -65056,-12940 -55152,-36852 -36852,-55152 -12940,-65056 v -467500 l 12940,-65056 36852,-55152 55152,-36852 65056,-12940 h 340000 l 65056,12940 55152,36852 36852,55152 12940,65056 z"
     id="path47" />
  <path
     style="fill:#000000;fill-opacity:1;fill-rule:evenodd;stroke:#000000;stroke-width:0.85;stroke-linecap:round;stroke-linejoin:round;stroke-opacity:1"
     d="m 38291524,28397250 -12940,65056 -36852,55152 -55152,36852 -65056,12940 h -340000 l -65056,-12940 -55152,-36852 -36852,-55152 -12940,-65056 v -467500 l 12940,-65056 36852,-55152 55152,-36852 65056,-12940 h 340000 l 65056,12940 55152,36852 36852,55152 12940,65056 z"
     id="path48" />
  <g
     id="g49"
     style="fill:#000000;fill-opacity:0;stroke:#000000;stroke-width:0;stroke-linecap:round;stroke-linejoin:round;stroke-opacity:1" />
  <g
     id="g50"
     style="fill:#000000;fill-opacity:0;stroke:#000000;stroke-width:0;stroke-linecap:round;stroke-linejoin:round;stroke-opacity:1" />
  <g
     id="g51"
     style="fill:#000000;fill-opacity:0;stroke:#000000;stroke-width:0;stroke-linecap:round;stroke-linejoin:round;stroke-opacity:1" />
  <g
     id="g52"
     style="fill:#000000;fill-opacity:0;stroke:#000000;stroke-width:0;stroke-linecap:round;stroke-linejoin:round;stroke-opacity:1" />
  <path
     style="fill:#000000;fill-opacity:1;fill-rule:evenodd;stroke:#000000;stroke-width:0.85;stroke-linecap:round;stroke-linejoin:round;stroke-opacity:1"
     d="m 36872024,74643750 48793,9705 41363,27639 27639,41363 9705,48793 v 1402500 l -9705,48793 -27639,41363 -41363,27639 -48793,9705 h -255000 l -48793,-9705 -41363,-27639 -27639,-41363 -9705,-48793 v -1402500 l 9705,-48793 27639,-41363 41363,-27639 48793,-9705 z"
     id="path52" />
  <path
     style="fill:#000000;fill-opacity:1;fill-rule:evenodd;stroke:#000000;stroke-width:0.85;stroke-linecap:round;stroke-linejoin:round;stroke-opacity:1"
     d="m 35602024,74643750 48793,9705 41363,27639 27639,41363 9705,48793 v 1402500 l -9705,48793 -27639,41363 -41363,27639 -48793,9705 h -255000 l -48793,-9705 -41363,-27639 -27639,-41363 -9705,-48793 v -1402500 l 9705,-48793 27639,-41363 41363,-27639 48793,-9705 z"
     id="path53" />
  <path
     style="fill:#000000;fill-opacity:1;fill-rule:evenodd;stroke:#000000;stroke-width:0.85;stroke-linecap:round;stroke-linejoin:round;stroke-opacity:1"
     d="m 34332024,74643750 48793,9705 41363,27639 27639,41363 9705,48793 v 1402500 l -9705,48793 -27639,41363 -41363,27639 -48793,9705 h -255000 l -48793,-9705 -41363,-27639 -27639,-41363 -9705,-48793 v -1402500 l 9705,-48793 27639,-41363 41363,-27639 48793,-9705 z"
     id="path54" />
  <path
     style="fill:#000000;fill-opacity:1;fill-rule:evenodd;stroke:#000000;stroke-width:0.85;stroke-linecap:round;stroke-linejoin:round;stroke-opacity:1"
     d="m 33062024,74643750 48793,9705 41363,27639 27639,41363 9705,48793 v 1402500 l -9705,48793 -27639,41363 -41363,27639 -48793,9705 h -255000 l -48793,-9705 -41363,-27639 -27639,-41363 -9705,-48793 v -1402500 l 9705,-48793 27639,-41363 41363,-27639 48793,-9705 z"
     id="path55" />
  <path
     style="fill:#000000;fill-opacity:1;fill-rule:evenodd;stroke:#000000;stroke-width:0.85;stroke-linecap:round;stroke-linejoin:round;stroke-opacity:1"
     d="m 33062024,79593750 48793,9705 41363,27639 27639,41363 9705,48793 v 1402500 l -9705,48793 -27639,41363 -41363,27639 -48793,9705 h -255000 l -48793,-9705 -41363,-27639 -27639,-41363 -9705,-48793 v -1402500 l 9705,-48793 27639,-41363 41363,-27639 48793,-9705 z"
     id="path56" />
  <path
     style="fill:#000000;fill-opacity:1;fill-rule:evenodd;stroke:#000000;stroke-width:0.85;stroke-linecap:round;stroke-linejoin:round;stroke-opacity:1"
     d="m 34332024,79593750 48793,9705 41363,27639 27639,41363 9705,48793 v 1402500 l -9705,48793 -27639,41363 -41363,27639 -48793,9705 h -255000 l -48793,-9705 -41363,-27639 -27639,-41363 -9705,-48793 v -1402500 l 9705,-48793 27639,-41363 41363,-27639 48793,-9705 z"
     id="path57" />
  <path
     style="fill:#000000;fill-opacity:1;fill-rule:evenodd;stroke:#000000;stroke-width:0.85;stroke-linecap:round;stroke-linejoin:round;stroke-opacity:1"
     d="m 35602024,79593750 48793,9705 41363,27639 27639,41363 9705,48793 v 1402500 l -9705,48793 -27639,41363 -41363,27639 -48793,9705 h -255000 l -48793,-9705 -41363,-27639 -27639,-41363 -9705,-48793 v -1402500 l 9705,-48793 27639,-41363 41363,-27639 48793,-9705 z"
     id="path58" />
  <path
     style="fill:#000000;fill-opacity:1;fill-rule:evenodd;stroke:#000000;stroke-width:0.85;stroke-linecap:round;stroke-linejoin:round;stroke-opacity:1"
     d="m 36872024,79593750 48793,9705 41363,27639 27639,41363 9705,48793 v 1402500 l -9705,48793 -27639,41363 -41363,27639 -48793,9705 h -255000 l -48793,-9705 -41363,-27639 -27639,-41363 -9705,-48793 v -1402500 l 9705,-48793 27639,-41363 41363,-27639 48793,-9705 z"
     id="path59" />
  <g
     id="g60"
     style="fill:#000000;fill-opacity:0;stroke:#000000;stroke-width:0;stroke-linecap:round;stroke-linejoin:round;stroke-opacity:1" />
  <g
     style="fill:#000000;fill-opacity:1;stroke:#000000;stroke-width:1;stroke-linecap:round;stroke-linejoin:round;stroke-opacity:1"
     id="g63">
    <path
       style="fill:#000000;fill-opacity:1;fill-rule:evenodd;stroke:#000000;stroke-width:1;stroke-linecap:round;stroke-linejoin:round;stroke-opacity:1"
       d="m 67839524,20877500 v -400000 h 650000 v 400000 z"
       id="path60" />
    <path
       style="fill:#000000;fill-opacity:1;fill-rule:evenodd;stroke:#000000;stroke-width:1;stroke-linecap:round;stroke-linejoin:round;stroke-opacity:1"
       d="m 67839524,20117500 v -400000 h 650000 v 400000 z"
       id="path61" />
    <path
       style="fill:#000000;fill-opacity:1;fill-rule:evenodd;stroke:#000000;stroke-width:1;stroke-linecap:round;stroke-linejoin:round;stroke-opacity:1"
       d="m 66839524,20117500 v -400000 h 650000 v 400000 z"
       id="path62" />
    <path
       style="fill:#000000;fill-opacity:1;fill-rule:evenodd;stroke:#000000;stroke-width:1;stroke-linecap:round;stroke-linejoin:round;stroke-opacity:1"
       d="m 66839524,20877500 v -400000 h 650000 v 400000 z"
       id="path63" />
  </g>
  <g
     id="g64"
     style="fill:#000000;fill-opacity:0;stroke:#000000;stroke-width:0;stroke-linecap:round;stroke-linejoin:round;stroke-opacity:1" />
  <g
     id="g65"
     style="fill:#000000;fill-opacity:0;stroke:#000000;stroke-width:0;stroke-linecap:round;stroke-linejoin:round;stroke-opacity:1" />
  <path
     style="fill:#000000;fill-opacity:1;fill-rule:evenodd;stroke:#000000;stroke-width:0.85;stroke-linecap:round;stroke-linejoin:round;stroke-opacity:1"
     d="m 59203274,39402500 65056,12940 55152,36852 36852,55152 12940,65056 v 340000 l -12940,65056 -36852,55152 -55152,36852 -65056,12940 h -467500 l -65056,-12940 -55152,-36852 -36852,-55152 -12940,-65056 v -340000 l 12940,-65056 36852,-55152 55152,-36852 65056,-12940 z"
     id="path65" />
  <path
     style="fill:#000000;fill-opacity:1;fill-rule:evenodd;stroke:#000000;stroke-width:0.85;stroke-linecap:round;stroke-linejoin:round;stroke-opacity:1"
     d="m 59203274,41052500 65056,12940 55152,36852 36852,55152 12940,65056 v 340000 l -12940,65056 -36852,55152 -55152,36852 -65056,12940 h -467500 l -65056,-12940 -55152,-36852 -36852,-55152 -12940,-65056 v -340000 l 12940,-65056 36852,-55152 55152,-36852 65056,-12940 z"
     id="path66" />
  <g
     id="g67"
     style="fill:#000000;fill-opacity:0;stroke:#000000;stroke-width:0;stroke-linecap:round;stroke-linejoin:round;stroke-opacity:1" />
  <g
     id="g68"
     style="fill:#000000;fill-opacity:0;stroke:#000000;stroke-width:0;stroke-linecap:round;stroke-linejoin:round;stroke-opacity:1" />
  <g
     id="g69"
     style="fill:#000000;fill-opacity:0;stroke:#000000;stroke-width:0;stroke-linecap:round;stroke-linejoin:round;stroke-opacity:1" />
  <g
     id="g70"
     style="fill:#000000;fill-opacity:0;stroke:#000000;stroke-width:0;stroke-linecap:round;stroke-linejoin:round;stroke-opacity:1" />
  <g
     id="g71"
     style="fill:#000000;fill-opacity:0;stroke:#000000;stroke-width:0;stroke-linecap:round;stroke-linejoin:round;stroke-opacity:1" />
  <path
     style="fill:#000000;fill-opacity:1;fill-rule:evenodd;stroke:#000000;stroke-width:0.793725;stroke-linecap:round;stroke-linejoin:round;stroke-opacity:1"
     d="m 24299524,24650500 h 490000 v 1710000 h -490000 z"
     id="path71" />
  <path
     style="fill:#000000;fill-opacity:1;fill-rule:evenodd;stroke:#000000;stroke-width:0.793725;stroke-linecap:round;stroke-linejoin:round;stroke-opacity:1"
     d="m 22257024,24650500 h 525000 v 1710000 h -525000 z"
     id="path72" />
  <path
     style="fill:#000000;fill-opacity:1;fill-rule:evenodd;stroke:#000000;stroke-width:0.793725;stroke-linecap:round;stroke-linejoin:round;stroke-opacity:1"
     d="m 21014524,24650500 h 560000 v 1710000 h -560000 z"
     id="path73" />
  <path
     style="fill:#000000;fill-opacity:1;fill-rule:evenodd;stroke:#000000;stroke-width:0.793725;stroke-linecap:round;stroke-linejoin:round;stroke-opacity:1"
     d="m 23299524,24650500 h 490000 v 1710000 h -490000 z"
     id="path74" />
  <path
     style="fill:#000000;fill-opacity:1;fill-rule:evenodd;stroke:#000000;stroke-width:0.793725;stroke-linecap:round;stroke-linejoin:round;stroke-opacity:1"
     d="m 25298524,24650500 h 532000 v 1710000 h -532000 z"
     id="path75" />
  <path
     style="fill:#000000;fill-opacity:1;fill-rule:evenodd;stroke:#000000;stroke-width:0.793725;stroke-linecap:round;stroke-linejoin:round;stroke-opacity:1"
     d="m 26507024,24650500 h 525000 v 1710000 h -525000 z"
     id="path76" />
  <g
     id="g77"
     style="fill:#000000;fill-opacity:0;stroke:#000000;stroke-width:0;stroke-linecap:round;stroke-linejoin:round;stroke-opacity:1" />
  <g
     id="g78"
     style="fill:#000000;fill-opacity:0;stroke:#000000;stroke-width:0;stroke-linecap:round;stroke-linejoin:round;stroke-opacity:1" />
  <path
     style="fill:#000000;fill-opacity:1;fill-rule:evenodd;stroke:#000000;stroke-width:0.85;stroke-linecap:round;stroke-linejoin:round;stroke-opacity:1"
     d="m 35750524,72463750 16176,-81320 46064,-68940 68940,-46064 81320,-16176 h 425000 l 81320,16176 68940,46064 46065,68940 16175,81320 v 807500 l -16175,81320 -46065,68940 -68940,46065 -81320,16175 h -425000 l -81320,-16175 -68940,-46065 -46064,-68940 -16176,-81320 z"
     id="path78" />
  <path
     style="fill:#000000;fill-opacity:1;fill-rule:evenodd;stroke:#000000;stroke-width:0.85;stroke-linecap:round;stroke-linejoin:round;stroke-opacity:1"
     d="m 37650524,72463750 16176,-81320 46064,-68940 68940,-46064 81320,-16176 h 425000 l 81320,16176 68940,46064 46065,68940 16175,81320 v 807500 l -16175,81320 -46065,68940 -68940,46065 -81320,16175 h -425000 l -81320,-16175 -68940,-46065 -46064,-68940 -16176,-81320 z"
     id="path79" />
  <g
     id="g80"
     style="fill:#000000;fill-opacity:0;stroke:#000000;stroke-width:0;stroke-linecap:round;stroke-linejoin:round;stroke-opacity:1" />
  <path
     style="fill:#000000;fill-opacity:1;fill-rule:evenodd;stroke:#000000;stroke-width:0.85;stroke-linecap:round;stroke-linejoin:round;stroke-opacity:1"
     d="m 72197774,28312500 -65056,-12940 -55152,-36852 -36852,-55152 -12940,-65056 v -340000 l 12940,-65056 36852,-55152 55152,-36852 65056,-12940 h 467500 l 65056,12940 55152,36852 36852,55152 12940,65056 v 340000 l -12940,65056 -36852,55152 -55152,36852 -65056,12940 z"
     id="path80" />
  <path
     style="fill:#000000;fill-opacity:1;fill-rule:evenodd;stroke:#000000;stroke-width:0.85;stroke-linecap:round;stroke-linejoin:round;stroke-opacity:1"
     d="m 72197774,26662500 -65056,-12940 -55152,-36852 -36852,-55152 -12940,-65056 v -340000 l 12940,-65056 36852,-55152 55152,-36852 65056,-12940 h 467500 l 65056,12940 55152,36852 36852,55152 12940,65056 v 340000 l -12940,65056 -36852,55152 -55152,36852 -65056,12940 z"
     id="path81" />
  <g
     id="g82"
     style="fill:#000000;fill-opacity:0;stroke:#000000;stroke-width:0;stroke-linecap:round;stroke-linejoin:round;stroke-opacity:1" />
  <g
     id="g83"
     style="fill:#000000;fill-opacity:0;stroke:#000000;stroke-width:0;stroke-linecap:round;stroke-linejoin:round;stroke-opacity:1" />
  <path
     style="fill:#000000;fill-opacity:1;fill-rule:evenodd;stroke:#000000;stroke-width:0.85;stroke-linecap:round;stroke-linejoin:round;stroke-opacity:1"
     d="m 26455774,37815000 9705,-48793 27639,-41363 41363,-27639 48793,-9705 h 1402500 l 48793,9705 41363,27639 27639,41363 9705,48793 v 255000 l -9705,48793 -27639,41363 -41363,27639 -48793,9705 h -1402500 l -48793,-9705 -41363,-27639 -27639,-41363 -9705,-48793 z"
     id="path83" />
  <path
     style="fill:#000000;fill-opacity:1;fill-rule:evenodd;stroke:#000000;stroke-width:0.85;stroke-linecap:round;stroke-linejoin:round;stroke-opacity:1"
     d="m 26455774,39085000 9705,-48793 27639,-41363 41363,-27639 48793,-9705 h 1402500 l 48793,9705 41363,27639 27639,41363 9705,48793 v 255000 l -9705,48793 -27639,41363 -41363,27639 -48793,9705 h -1402500 l -48793,-9705 -41363,-27639 -27639,-41363 -9705,-48793 z"
     id="path84" />
  <path
     style="fill:#000000;fill-opacity:1;fill-rule:evenodd;stroke:#000000;stroke-width:0.85;stroke-linecap:round;stroke-linejoin:round;stroke-opacity:1"
     d="m 26455774,40355000 9705,-48793 27639,-41363 41363,-27639 48793,-9705 h 1402500 l 48793,9705 41363,27639 27639,41363 9705,48793 v 255000 l -9705,48793 -27639,41363 -41363,27639 -48793,9705 h -1402500 l -48793,-9705 -41363,-27639 -27639,-41363 -9705,-48793 z"
     id="path85" />
  <path
     style="fill:#000000;fill-opacity:1;fill-rule:evenodd;stroke:#000000;stroke-width:0.85;stroke-linecap:round;stroke-linejoin:round;stroke-opacity:1"
     d="m 26455774,41625000 9705,-48793 27639,-41363 41363,-27639 48793,-9705 h 1402500 l 48793,9705 41363,27639 27639,41363 9705,48793 v 255000 l -9705,48793 -27639,41363 -41363,27639 -48793,9705 h -1402500 l -48793,-9705 -41363,-27639 -27639,-41363 -9705,-48793 z"
     id="path86" />
  <path
     style="fill:#000000;fill-opacity:1;fill-rule:evenodd;stroke:#000000;stroke-width:0.85;stroke-linecap:round;stroke-linejoin:round;stroke-opacity:1"
     d="m 26455774,42895000 9705,-48793 27639,-41363 41363,-27639 48793,-9705 h 1402500 l 48793,9705 41363,27639 27639,41363 9705,48793 v 255000 l -9705,48793 -27639,41363 -41363,27639 -48793,9705 h -1402500 l -48793,-9705 -41363,-27639 -27639,-41363 -9705,-48793 z"
     id="path87" />
  <path
     style="fill:#000000;fill-opacity:1;fill-rule:evenodd;stroke:#000000;stroke-width:0.85;stroke-linecap:round;stroke-linejoin:round;stroke-opacity:1"
     d="m 26455774,44165000 9705,-48793 27639,-41363 41363,-27639 48793,-9705 h 1402500 l 48793,9705 41363,27639 27639,41363 9705,48793 v 255000 l -9705,48793 -27639,41363 -41363,27639 -48793,9705 h -1402500 l -48793,-9705 -41363,-27639 -27639,-41363 -9705,-48793 z"
     id="path88" />
  <path
     style="fill:#000000;fill-opacity:1;fill-rule:evenodd;stroke:#000000;stroke-width:0.85;stroke-linecap:round;stroke-linejoin:round;stroke-opacity:1"
     d="m 26455774,45435000 9705,-48793 27639,-41363 41363,-27639 48793,-9705 h 1402500 l 48793,9705 41363,27639 27639,41363 9705,48793 v 255000 l -9705,48793 -27639,41363 -41363,27639 -48793,9705 h -1402500 l -48793,-9705 -41363,-27639 -27639,-41363 -9705,-48793 z"
     id="path89" />
  <path
     style="fill:#000000;fill-opacity:1;fill-rule:evenodd;stroke:#000000;stroke-width:0.85;stroke-linecap:round;stroke-linejoin:round;stroke-opacity:1"
     d="m 31405774,45435000 9705,-48793 27639,-41363 41363,-27639 48793,-9705 h 1402500 l 48793,9705 41363,27639 27639,41363 9705,48793 v 255000 l -9705,48793 -27639,41363 -41363,27639 -48793,9705 h -1402500 l -48793,-9705 -41363,-27639 -27639,-41363 -9705,-48793 z"
     id="path90" />
  <path
     style="fill:#000000;fill-opacity:1;fill-rule:evenodd;stroke:#000000;stroke-width:0.85;stroke-linecap:round;stroke-linejoin:round;stroke-opacity:1"
     d="m 31405774,44165000 9705,-48793 27639,-41363 41363,-27639 48793,-9705 h 1402500 l 48793,9705 41363,27639 27639,41363 9705,48793 v 255000 l -9705,48793 -27639,41363 -41363,27639 -48793,9705 h -1402500 l -48793,-9705 -41363,-27639 -27639,-41363 -9705,-48793 z"
     id="path91" />
  <path
     style="fill:#000000;fill-opacity:1;fill-rule:evenodd;stroke:#000000;stroke-width:0.85;stroke-linecap:round;stroke-linejoin:round;stroke-opacity:1"
     d="m 31405774,42895000 9705,-48793 27639,-41363 41363,-27639 48793,-9705 h 1402500 l 48793,9705 41363,27639 27639,41363 9705,48793 v 255000 l -9705,48793 -27639,41363 -41363,27639 -48793,9705 h -1402500 l -48793,-9705 -41363,-27639 -27639,-41363 -9705,-48793 z"
     id="path92" />
  <path
     style="fill:#000000;fill-opacity:1;fill-rule:evenodd;stroke:#000000;stroke-width:0.85;stroke-linecap:round;stroke-linejoin:round;stroke-opacity:1"
     d="m 31405774,41625000 9705,-48793 27639,-41363 41363,-27639 48793,-9705 h 1402500 l 48793,9705 41363,27639 27639,41363 9705,48793 v 255000 l -9705,48793 -27639,41363 -41363,27639 -48793,9705 h -1402500 l -48793,-9705 -41363,-27639 -27639,-41363 -9705,-48793 z"
     id="path93" />
  <path
     style="fill:#000000;fill-opacity:1;fill-rule:evenodd;stroke:#000000;stroke-width:0.85;stroke-linecap:round;stroke-linejoin:round;stroke-opacity:1"
     d="m 31405774,40355000 9705,-48793 27639,-41363 41363,-27639 48793,-9705 h 1402500 l 48793,9705 41363,27639 27639,41363 9705,48793 v 255000 l -9705,48793 -27639,41363 -41363,27639 -48793,9705 h -1402500 l -48793,-9705 -41363,-27639 -27639,-41363 -9705,-48793 z"
     id="path94" />
  <path
     style="fill:#000000;fill-opacity:1;fill-rule:evenodd;stroke:#000000;stroke-width:0.85;stroke-linecap:round;stroke-linejoin:round;stroke-opacity:1"
     d="m 31405774,39085000 9705,-48793 27639,-41363 41363,-27639 48793,-9705 h 1402500 l 48793,9705 41363,27639 27639,41363 9705,48793 v 255000 l -9705,48793 -27639,41363 -41363,27639 -48793,9705 h -1402500 l -48793,-9705 -41363,-27639 -27639,-41363 -9705,-48793 z"
     id="path95" />
  <path
     style="fill:#000000;fill-opacity:1;fill-rule:evenodd;stroke:#000000;stroke-width:0.85;stroke-linecap:round;stroke-linejoin:round;stroke-opacity:1"
     d="m 31405774,37815000 9705,-48793 27639,-41363 41363,-27639 48793,-9705 h 1402500 l 48793,9705 41363,27639 27639,41363 9705,48793 v 255000 l -9705,48793 -27639,41363 -41363,27639 -48793,9705 h -1402500 l -48793,-9705 -41363,-27639 -27639,-41363 -9705,-48793 z"
     id="path96" />
  <g
     id="g97"
     style="fill:#000000;fill-opacity:0;stroke:#000000;stroke-width:0;stroke-linecap:round;stroke-linejoin:round;stroke-opacity:1" />
  <path
     style="fill:#000000;fill-opacity:1;fill-rule:evenodd;stroke:#000000;stroke-width:0.85;stroke-linecap:round;stroke-linejoin:round;stroke-opacity:1"
     d="m 38994336,24408125 71156,14153 60322,40307 40307,60322 14153,71156 v 371875 l -14153,71155 -40307,60323 -60322,40306 -71156,14153 h -435625 l -71155,-14153 -60323,-40306 -40306,-60323 -14153,-71155 v -371875 l 14153,-71156 40306,-60322 60323,-40307 71155,-14153 z"
     id="path97" />
  <path
     style="fill:#000000;fill-opacity:1;fill-rule:evenodd;stroke:#000000;stroke-width:0.85;stroke-linecap:round;stroke-linejoin:round;stroke-opacity:1"
     d="m 38994336,25983125 71156,14153 60322,40306 40307,60323 14153,71155 v 371875 l -14153,71156 -40307,60322 -60322,40307 -71156,14153 h -435625 l -71155,-14153 -60323,-40307 -40306,-60322 -14153,-71156 v -371875 l 14153,-71155 40306,-60323 60323,-40306 71155,-14153 z"
     id="path98" />
  <g
     id="g99"
     style="fill:#000000;fill-opacity:0;stroke:#000000;stroke-width:0;stroke-linecap:round;stroke-linejoin:round;stroke-opacity:1" />
  <g
     id="g100"
     style="fill:#000000;fill-opacity:0;stroke:#000000;stroke-width:0;stroke-linecap:round;stroke-linejoin:round;stroke-opacity:1" />
  <g
     id="g101"
     style="fill:#000000;fill-opacity:0;stroke:#000000;stroke-width:0;stroke-linecap:round;stroke-linejoin:round;stroke-opacity:1" />
  <path
     style="fill:#000000;fill-opacity:1;fill-rule:evenodd;stroke:#000000;stroke-width:0.85;stroke-linecap:round;stroke-linejoin:round;stroke-opacity:1"
     d="m 38994336,20400125 71156,14153 60322,40306 40307,60323 14153,71155 v 371876 l -14153,71155 -40307,60323 -60322,40306 -71156,14153 h -435625 l -71155,-14153 -60323,-40306 -40306,-60323 -14153,-71155 v -371876 l 14153,-71155 40306,-60323 60323,-40306 71155,-14153 z"
     id="path101" />
  <path
     style="fill:#000000;fill-opacity:1;fill-rule:evenodd;stroke:#000000;stroke-width:0.85;stroke-linecap:round;stroke-linejoin:round;stroke-opacity:1"
     d="m 38994336,21975125 71156,14153 60322,40307 40307,60322 14153,71156 v 371875 l -14153,71155 -40307,60323 -60322,40306 -71156,14153 h -435625 l -71155,-14153 -60323,-40306 -40306,-60323 -14153,-71155 v -371875 l 14153,-71156 40306,-60322 60323,-40307 71155,-14153 z"
     id="path102" />
  <g
     id="g103"
     style="fill:#000000;fill-opacity:0;stroke:#000000;stroke-width:0;stroke-linecap:round;stroke-linejoin:round;stroke-opacity:1" />
  <g
     style="fill:#000000;fill-opacity:1;stroke:#000000;stroke-width:1;stroke-linecap:round;stroke-linejoin:round;stroke-opacity:1"
     id="g104">
    <path
       style="fill:#000000;fill-opacity:1;fill-rule:evenodd;stroke:#000000;stroke-width:1;stroke-linecap:round;stroke-linejoin:round;stroke-opacity:1"
       d="m 25742524,33747500 v -500000 h 500000 v 500000 z"
       id="path103" />
    <path
       style="fill:#000000;fill-opacity:1;fill-rule:evenodd;stroke:#000000;stroke-width:1;stroke-linecap:round;stroke-linejoin:round;stroke-opacity:1"
       d="m 27942524,33747500 v -500000 h 500000 v 500000 z"
       id="path104" />
  </g>
  <g
     id="g105"
     style="fill:#000000;fill-opacity:0;stroke:#000000;stroke-width:0;stroke-linecap:round;stroke-linejoin:round;stroke-opacity:1" />
  <path
     style="fill:#000000;fill-opacity:1;fill-rule:evenodd;stroke:#000000;stroke-width:0.85;stroke-linecap:round;stroke-linejoin:round;stroke-opacity:1"
     d="m 25080774,41139500 -65056,-12940 -55152,-36852 -36852,-55152 -12940,-65056 v -340000 l 12940,-65056 36852,-55152 55152,-36852 65056,-12940 h 467500 l 65056,12940 55152,36852 36852,55152 12940,65056 v 340000 l -12940,65056 -36852,55152 -55152,36852 -65056,12940 z"
     id="path105" />
  <path
     style="fill:#000000;fill-opacity:1;fill-rule:evenodd;stroke:#000000;stroke-width:0.85;stroke-linecap:round;stroke-linejoin:round;stroke-opacity:1"
     d="m 25080774,39489500 -65056,-12940 -55152,-36852 -36852,-55152 -12940,-65056 v -340000 l 12940,-65056 36852,-55152 55152,-36852 65056,-12940 h 467500 l 65056,12940 55152,36852 36852,55152 12940,65056 v 340000 l -12940,65056 -36852,55152 -55152,36852 -65056,12940 z"
     id="path106" />
  <g
     id="g107"
     style="fill:#000000;fill-opacity:0;stroke:#000000;stroke-width:0;stroke-linecap:round;stroke-linejoin:round;stroke-opacity:1" />
  <path
     style="fill:#000000;fill-opacity:1;fill-rule:evenodd;stroke:#000000;stroke-width:0.85;stroke-linecap:round;stroke-linejoin:round;stroke-opacity:1"
     d="m 26697024,30872000 14558,-73188 41458,-62046 62046,-41458 73188,-14558 h 382500 l 73188,14558 62046,41458 41458,62046 14558,73188 v 425000 l -14558,73188 -41458,62046 -62046,41458 -73188,14558 h -382500 l -73188,-14558 -62046,-41458 -41458,-62046 -14558,-73188 z"
     id="path107" />
  <path
     style="fill:#000000;fill-opacity:1;fill-rule:evenodd;stroke:#000000;stroke-width:0.85;stroke-linecap:round;stroke-linejoin:round;stroke-opacity:1"
     d="m 28247024,30872000 14558,-73188 41458,-62046 62046,-41458 73188,-14558 h 382500 l 73188,14558 62046,41458 41458,62046 14558,73188 v 425000 l -14558,73188 -41458,62046 -62046,41458 -73188,14558 h -382500 l -73188,-14558 -62046,-41458 -41458,-62046 -14558,-73188 z"
     id="path108" />
  <g
     id="g109"
     style="fill:#000000;fill-opacity:0;stroke:#000000;stroke-width:0;stroke-linecap:round;stroke-linejoin:round;stroke-opacity:1" />
  <g
     id="g110"
     style="fill:#000000;fill-opacity:0;stroke:#000000;stroke-width:0;stroke-linecap:round;stroke-linejoin:round;stroke-opacity:1" />
  <path
     style="fill:#000000;fill-opacity:1;fill-rule:evenodd;stroke:#000000;stroke-width:0.85;stroke-linecap:round;stroke-linejoin:round;stroke-opacity:1"
     d="m 26689524,29199750 12940,-65056 36852,-55152 55152,-36852 65056,-12940 h 340000 l 65056,12940 55152,36852 36852,55152 12940,65056 v 467500 l -12940,65056 -36852,55152 -55152,36852 -65056,12940 h -340000 l -65056,-12940 -55152,-36852 -36852,-55152 -12940,-65056 z"
     id="path110" />
  <path
     style="fill:#000000;fill-opacity:1;fill-rule:evenodd;stroke:#000000;stroke-width:0.85;stroke-linecap:round;stroke-linejoin:round;stroke-opacity:1"
     d="m 28339524,29199750 12940,-65056 36852,-55152 55152,-36852 65056,-12940 h 340000 l 65056,12940 55152,36852 36852,55152 12940,65056 v 467500 l -12940,65056 -36852,55152 -55152,36852 -65056,12940 h -340000 l -65056,-12940 -55152,-36852 -36852,-55152 -12940,-65056 z"
     id="path111" />
  <g
     id="g112"
     style="fill:#000000;fill-opacity:0;stroke:#000000;stroke-width:0;stroke-linecap:round;stroke-linejoin:round;stroke-opacity:1" />
  <g
     id="g113"
     style="fill:#000000;fill-opacity:0;stroke:#000000;stroke-width:0;stroke-linecap:round;stroke-linejoin:round;stroke-opacity:1" />
  <path
     style="fill:#000000;fill-opacity:1;fill-rule:evenodd;stroke:#000000;stroke-width:0.85;stroke-linecap:round;stroke-linejoin:round;stroke-opacity:1"
     d="m 26689524,27548750 12940,-65056 36852,-55152 55152,-36852 65056,-12940 h 340000 l 65056,12940 55152,36852 36852,55152 12940,65056 v 467500 l -12940,65056 -36852,55152 -55152,36852 -65056,12940 h -340000 l -65056,-12940 -55152,-36852 -36852,-55152 -12940,-65056 z"
     id="path113" />
  <path
     style="fill:#000000;fill-opacity:1;fill-rule:evenodd;stroke:#000000;stroke-width:0.85;stroke-linecap:round;stroke-linejoin:round;stroke-opacity:1"
     d="m 28339524,27548750 12940,-65056 36852,-55152 55152,-36852 65056,-12940 h 340000 l 65056,12940 55152,36852 36852,55152 12940,65056 v 467500 l -12940,65056 -36852,55152 -55152,36852 -65056,12940 h -340000 l -65056,-12940 -55152,-36852 -36852,-55152 -12940,-65056 z"
     id="path114" />
  <g
     id="g115"
     style="fill:#000000;fill-opacity:0;stroke:#000000;stroke-width:0;stroke-linecap:round;stroke-linejoin:round;stroke-opacity:1" />
  <g
     id="g116"
     style="fill:#000000;fill-opacity:0;stroke:#000000;stroke-width:0;stroke-linecap:round;stroke-linejoin:round;stroke-opacity:1" />
  <g
     id="g117"
     style="fill:#000000;fill-opacity:0;stroke:#000000;stroke-width:0;stroke-linecap:round;stroke-linejoin:round;stroke-opacity:1" />
  <g
     id="g118"
     style="fill:#000000;fill-opacity:0;stroke:#000000;stroke-width:0;stroke-linecap:round;stroke-linejoin:round;stroke-opacity:1" />
  <g
     id="g119"
     style="fill:#000000;fill-opacity:0;stroke:#000000;stroke-width:0;stroke-linecap:round;stroke-linejoin:round;stroke-opacity:1" />
  <g
     id="g120"
     style="fill:#000000;fill-opacity:0;stroke:#000000;stroke-width:0;stroke-linecap:round;stroke-linejoin:round;stroke-opacity:1" />
  <g
     id="g121"
     style="fill:#000000;fill-opacity:0;stroke:#000000;stroke-width:0;stroke-linecap:round;stroke-linejoin:round;stroke-opacity:1" />
  <g
     id="g122"
     style="fill:#000000;fill-opacity:0;stroke:#000000;stroke-width:0;stroke-linecap:round;stroke-linejoin:round;stroke-opacity:1" />
  <g
     id="g123"
     style="fill:#000000;fill-opacity:0;stroke:#000000;stroke-width:0;stroke-linecap:round;stroke-linejoin:round;stroke-opacity:1" />
  <metadata
     id="metadata124">
    <rdf:RDF>
      <cc:Work
         rdf:about="">
        <dc:title>SVG Picture created as AutoFeeder_Drum-type-F_Paste.svg date 2024/02/05 21:44:26 </dc:title>
      </cc:Work>
    </rdf:RDF>
  </metadata>
</svg>
