%TF.GenerationSoftware,KiCad,Pcbnew,(6.0.10-0)*%
%TF.CreationDate,2024-01-08T21:18:02+09:00*%
%TF.ProjectId,AutoFeeder_Drum-type,4175746f-4665-4656-9465-725f4472756d,02*%
%TF.SameCoordinates,Original*%
%TF.FileFunction,Drillmap*%
%TF.FilePolarity,Positive*%
%FSLAX45Y45*%
G04 Gerber Fmt 4.5, Leading zero omitted, Abs format (unit mm)*
G04 Created by KiCad (PCBNEW (6.0.10-0)) date 2024-01-08 21:18:02*
%MOMM*%
%LPD*%
G01*
G04 APERTURE LIST*
%ADD10C,0.100000*%
%ADD11C,0.200000*%
%ADD12C,0.110000*%
%ADD13C,0.150000*%
%ADD14C,0.320000*%
G04 APERTURE END LIST*
D10*
X18350000Y-9350000D02*
X18300000Y-9400000D01*
X19550000Y-9750000D02*
X19600000Y-9700000D01*
X18550000Y-6050000D02*
X19550000Y-6050000D01*
X18500000Y-6100000D02*
X18550000Y-6050000D01*
X17150000Y-11950000D02*
X17200000Y-12000000D01*
X19550000Y-9750000D02*
X18550000Y-9750000D01*
X18450000Y-8100000D02*
X18500000Y-8050000D01*
X13650000Y-6000000D02*
X18300000Y-6000000D01*
X17150000Y-8050000D02*
X17150000Y-11950000D01*
X15900000Y-8050000D02*
X15900000Y-13950000D01*
X19600000Y-9700000D02*
X19600000Y-8843512D01*
X18450000Y-7650000D02*
X18500000Y-7700000D01*
X18350000Y-6400000D02*
X18300000Y-6350000D01*
X18350000Y-7650000D02*
X18450000Y-7650000D01*
X17100000Y-8000000D02*
X17150000Y-8050000D01*
X18450000Y-6400000D02*
X18500000Y-6350000D01*
X18500000Y-8000000D02*
X20500000Y-8000000D01*
X19600000Y-6100000D02*
X19600000Y-7800000D01*
X18350000Y-7650000D02*
X18300000Y-7700000D01*
X18500000Y-9400000D02*
X18500000Y-9700000D01*
X18350000Y-6400000D02*
X18450000Y-6400000D01*
X13700000Y-9000000D02*
X15000000Y-9000000D01*
X18300000Y-9400000D02*
X18300000Y-11950000D01*
X17100000Y-8000000D02*
X15950000Y-8000000D01*
X15050000Y-13950000D02*
X15100000Y-14000000D01*
X20500000Y-8843512D02*
X19600000Y-8843512D01*
X15850000Y-14000000D02*
X15900000Y-13950000D01*
X18350000Y-9350000D02*
X18450000Y-9350000D01*
X15100000Y-14000000D02*
X15850000Y-14000000D01*
X18500000Y-8050000D02*
X18500000Y-8000000D01*
X18500000Y-9700000D02*
X18550000Y-9750000D01*
X15000000Y-9000000D02*
X15050000Y-9050000D01*
X15050000Y-9050000D02*
X15050000Y-13950000D01*
X15950000Y-8000000D02*
X15900000Y-8050000D01*
X18350000Y-8100000D02*
X18300000Y-8050000D01*
X18300000Y-7700000D02*
X18300000Y-8050000D01*
X19600000Y-7800000D02*
X18500000Y-7800000D01*
X13650000Y-8950000D02*
X13700000Y-9000000D01*
X18450000Y-9350000D02*
X18500000Y-9400000D01*
X18350000Y-8100000D02*
X18450000Y-8100000D01*
X17200000Y-12000000D02*
X18250000Y-12000000D01*
X20500000Y-8000000D02*
X20500000Y-8843512D01*
X13650000Y-6000000D02*
X13650000Y-8950000D01*
X18500000Y-7700000D02*
X18500000Y-7800000D01*
X18300000Y-6000000D02*
X18300000Y-6350000D01*
X18250000Y-12000000D02*
X18300000Y-11950000D01*
X19550000Y-6050000D02*
X19600000Y-6100000D01*
X18500000Y-6100000D02*
X18500000Y-6350000D01*
D11*
D12*
X13860000Y-7195000D02*
X13970000Y-7305000D01*
X13970000Y-7195000D02*
X13860000Y-7305000D01*
X13860000Y-7695000D02*
X13970000Y-7805000D01*
X13970000Y-7695000D02*
X13860000Y-7805000D01*
D13*
X18175000Y-7150000D02*
G75*
G03*
X18175000Y-7150000I-75000J0D01*
G01*
D11*
X18100000Y-7225000D02*
X18100000Y-7225000D01*
X18100000Y-7075000D02*
X18100000Y-7075000D01*
X18100000Y-7225000D02*
G75*
G03*
X18100000Y-7075000I0J75000D01*
G01*
X18100000Y-7075000D02*
G75*
G03*
X18100000Y-7225000I0J-75000D01*
G01*
D13*
X19425000Y-7600000D02*
G75*
G03*
X19425000Y-7600000I-75000J0D01*
G01*
D11*
X19350000Y-7675000D02*
X19350000Y-7675000D01*
X19350000Y-7525000D02*
X19350000Y-7525000D01*
X19350000Y-7675000D02*
G75*
G03*
X19350000Y-7525000I0J75000D01*
G01*
X19350000Y-7525000D02*
G75*
G03*
X19350000Y-7675000I0J-75000D01*
G01*
D13*
X19425000Y-8200000D02*
G75*
G03*
X19425000Y-8200000I-75000J0D01*
G01*
D11*
X19350000Y-8275000D02*
X19350000Y-8275000D01*
X19350000Y-8125000D02*
X19350000Y-8125000D01*
X19350000Y-8275000D02*
G75*
G03*
X19350000Y-8125000I0J75000D01*
G01*
X19350000Y-8125000D02*
G75*
G03*
X19350000Y-8275000I0J-75000D01*
G01*
X17000000Y-7400000D02*
X17000000Y-7600000D01*
X16900000Y-7500000D02*
X17100000Y-7500000D01*
X16950000Y-7600000D02*
X17050000Y-7600000D01*
X16950000Y-7400000D02*
X17050000Y-7400000D01*
X17050000Y-7600000D02*
G75*
G03*
X17050000Y-7400000I0J100000D01*
G01*
X16950000Y-7400000D02*
G75*
G03*
X16950000Y-7600000I0J-100000D01*
G01*
X18400000Y-6550000D02*
X18400000Y-6750000D01*
X18300000Y-6650000D02*
X18500000Y-6650000D01*
X18300000Y-6600000D02*
X18300000Y-6700000D01*
X18500000Y-6600000D02*
X18500000Y-6700000D01*
X18300000Y-6700000D02*
G75*
G03*
X18500000Y-6700000I100000J0D01*
G01*
X18500000Y-6600000D02*
G75*
G03*
X18300000Y-6600000I-100000J0D01*
G01*
X18400000Y-7100000D02*
X18400000Y-7300000D01*
X18300000Y-7200000D02*
X18500000Y-7200000D01*
X18300000Y-7000000D02*
X18300000Y-7400000D01*
X18500000Y-7000000D02*
X18500000Y-7400000D01*
X18300000Y-7400000D02*
G75*
G03*
X18500000Y-7400000I100000J0D01*
G01*
X18500000Y-7000000D02*
G75*
G03*
X18300000Y-7000000I-100000J0D01*
G01*
X18400000Y-8400000D02*
X18400000Y-8600000D01*
X18300000Y-8500000D02*
X18500000Y-8500000D01*
X18300000Y-8300000D02*
X18300000Y-8700000D01*
X18500000Y-8300000D02*
X18500000Y-8700000D01*
X18300000Y-8700000D02*
G75*
G03*
X18500000Y-8700000I100000J0D01*
G01*
X18500000Y-8300000D02*
G75*
G03*
X18300000Y-8300000I-100000J0D01*
G01*
X18400000Y-9000000D02*
X18400000Y-9200000D01*
X18300000Y-9100000D02*
X18500000Y-9100000D01*
X18300000Y-9050000D02*
X18300000Y-9150000D01*
X18500000Y-9050000D02*
X18500000Y-9150000D01*
X18300000Y-9150000D02*
G75*
G03*
X18500000Y-9150000I100000J0D01*
G01*
X18500000Y-9050000D02*
G75*
G03*
X18300000Y-9050000I-100000J0D01*
G01*
X19000000Y-9171000D02*
X19000000Y-9371000D01*
X18900000Y-9271000D02*
X19100000Y-9271000D01*
X18900000Y-9071000D02*
X18900000Y-9471000D01*
X19100000Y-9071000D02*
X19100000Y-9471000D01*
X18900000Y-9471000D02*
G75*
G03*
X19100000Y-9471000I100000J0D01*
G01*
X19100000Y-9071000D02*
G75*
G03*
X18900000Y-9071000I-100000J0D01*
G01*
X19050000Y-6400000D02*
X19050000Y-6600000D01*
X18950000Y-6500000D02*
X19150000Y-6500000D01*
X19000000Y-6600000D02*
X19100000Y-6600000D01*
X19000000Y-6400000D02*
X19100000Y-6400000D01*
X19100000Y-6600000D02*
G75*
G03*
X19100000Y-6400000I0J100000D01*
G01*
X19000000Y-6400000D02*
G75*
G03*
X19000000Y-6600000I0J-100000D01*
G01*
D14*
X15613138Y-11313138D02*
X15613138Y-11086862D01*
X15386862Y-11086862D01*
X15386862Y-11313138D01*
X15613138Y-11313138D01*
D11*
X13902619Y-14315476D02*
X13902619Y-14115476D01*
X13950238Y-14115476D01*
X13978809Y-14125000D01*
X13997857Y-14144048D01*
X14007381Y-14163095D01*
X14016905Y-14201190D01*
X14016905Y-14229762D01*
X14007381Y-14267857D01*
X13997857Y-14286905D01*
X13978809Y-14305952D01*
X13950238Y-14315476D01*
X13902619Y-14315476D01*
X14102619Y-14315476D02*
X14102619Y-14182143D01*
X14102619Y-14220238D02*
X14112143Y-14201190D01*
X14121667Y-14191667D01*
X14140714Y-14182143D01*
X14159762Y-14182143D01*
X14226428Y-14315476D02*
X14226428Y-14182143D01*
X14226428Y-14115476D02*
X14216905Y-14125000D01*
X14226428Y-14134524D01*
X14235952Y-14125000D01*
X14226428Y-14115476D01*
X14226428Y-14134524D01*
X14350238Y-14315476D02*
X14331190Y-14305952D01*
X14321667Y-14286905D01*
X14321667Y-14115476D01*
X14455000Y-14315476D02*
X14435952Y-14305952D01*
X14426428Y-14286905D01*
X14426428Y-14115476D01*
X14683571Y-14315476D02*
X14683571Y-14115476D01*
X14750238Y-14258333D01*
X14816905Y-14115476D01*
X14816905Y-14315476D01*
X14997857Y-14315476D02*
X14997857Y-14210714D01*
X14988333Y-14191667D01*
X14969286Y-14182143D01*
X14931190Y-14182143D01*
X14912143Y-14191667D01*
X14997857Y-14305952D02*
X14978809Y-14315476D01*
X14931190Y-14315476D01*
X14912143Y-14305952D01*
X14902619Y-14286905D01*
X14902619Y-14267857D01*
X14912143Y-14248809D01*
X14931190Y-14239286D01*
X14978809Y-14239286D01*
X14997857Y-14229762D01*
X15093095Y-14182143D02*
X15093095Y-14382143D01*
X15093095Y-14191667D02*
X15112143Y-14182143D01*
X15150238Y-14182143D01*
X15169286Y-14191667D01*
X15178809Y-14201190D01*
X15188333Y-14220238D01*
X15188333Y-14277381D01*
X15178809Y-14296428D01*
X15169286Y-14305952D01*
X15150238Y-14315476D01*
X15112143Y-14315476D01*
X15093095Y-14305952D01*
X15274048Y-14296428D02*
X15283571Y-14305952D01*
X15274048Y-14315476D01*
X15264524Y-14305952D01*
X15274048Y-14296428D01*
X15274048Y-14315476D01*
X15274048Y-14191667D02*
X15283571Y-14201190D01*
X15274048Y-14210714D01*
X15264524Y-14201190D01*
X15274048Y-14191667D01*
X15274048Y-14210714D01*
D12*
X13535000Y-14590000D02*
X13645000Y-14700000D01*
X13645000Y-14590000D02*
X13535000Y-14700000D01*
D11*
X14007381Y-14735476D02*
X13893095Y-14735476D01*
X13950238Y-14735476D02*
X13950238Y-14535476D01*
X13931190Y-14564048D01*
X13912143Y-14583095D01*
X13893095Y-14592619D01*
X14093095Y-14716428D02*
X14102619Y-14725952D01*
X14093095Y-14735476D01*
X14083571Y-14725952D01*
X14093095Y-14716428D01*
X14093095Y-14735476D01*
X14293095Y-14735476D02*
X14178809Y-14735476D01*
X14235952Y-14735476D02*
X14235952Y-14535476D01*
X14216905Y-14564048D01*
X14197857Y-14583095D01*
X14178809Y-14592619D01*
X14416905Y-14535476D02*
X14435952Y-14535476D01*
X14455000Y-14545000D01*
X14464524Y-14554524D01*
X14474048Y-14573571D01*
X14483571Y-14611667D01*
X14483571Y-14659286D01*
X14474048Y-14697381D01*
X14464524Y-14716428D01*
X14455000Y-14725952D01*
X14435952Y-14735476D01*
X14416905Y-14735476D01*
X14397857Y-14725952D01*
X14388333Y-14716428D01*
X14378809Y-14697381D01*
X14369286Y-14659286D01*
X14369286Y-14611667D01*
X14378809Y-14573571D01*
X14388333Y-14554524D01*
X14397857Y-14545000D01*
X14416905Y-14535476D01*
X14607381Y-14535476D02*
X14626428Y-14535476D01*
X14645476Y-14545000D01*
X14655000Y-14554524D01*
X14664524Y-14573571D01*
X14674048Y-14611667D01*
X14674048Y-14659286D01*
X14664524Y-14697381D01*
X14655000Y-14716428D01*
X14645476Y-14725952D01*
X14626428Y-14735476D01*
X14607381Y-14735476D01*
X14588333Y-14725952D01*
X14578809Y-14716428D01*
X14569286Y-14697381D01*
X14559762Y-14659286D01*
X14559762Y-14611667D01*
X14569286Y-14573571D01*
X14578809Y-14554524D01*
X14588333Y-14545000D01*
X14607381Y-14535476D01*
X14759762Y-14735476D02*
X14759762Y-14602143D01*
X14759762Y-14621190D02*
X14769286Y-14611667D01*
X14788333Y-14602143D01*
X14816905Y-14602143D01*
X14835952Y-14611667D01*
X14845476Y-14630714D01*
X14845476Y-14735476D01*
X14845476Y-14630714D02*
X14855000Y-14611667D01*
X14874048Y-14602143D01*
X14902619Y-14602143D01*
X14921667Y-14611667D01*
X14931190Y-14630714D01*
X14931190Y-14735476D01*
X15026428Y-14735476D02*
X15026428Y-14602143D01*
X15026428Y-14621190D02*
X15035952Y-14611667D01*
X15055000Y-14602143D01*
X15083571Y-14602143D01*
X15102619Y-14611667D01*
X15112143Y-14630714D01*
X15112143Y-14735476D01*
X15112143Y-14630714D02*
X15121667Y-14611667D01*
X15140714Y-14602143D01*
X15169286Y-14602143D01*
X15188333Y-14611667D01*
X15197857Y-14630714D01*
X15197857Y-14735476D01*
X15588333Y-14525952D02*
X15416905Y-14783095D01*
X15845476Y-14535476D02*
X15864524Y-14535476D01*
X15883571Y-14545000D01*
X15893095Y-14554524D01*
X15902619Y-14573571D01*
X15912143Y-14611667D01*
X15912143Y-14659286D01*
X15902619Y-14697381D01*
X15893095Y-14716428D01*
X15883571Y-14725952D01*
X15864524Y-14735476D01*
X15845476Y-14735476D01*
X15826428Y-14725952D01*
X15816905Y-14716428D01*
X15807381Y-14697381D01*
X15797857Y-14659286D01*
X15797857Y-14611667D01*
X15807381Y-14573571D01*
X15816905Y-14554524D01*
X15826428Y-14545000D01*
X15845476Y-14535476D01*
X15997857Y-14716428D02*
X16007381Y-14725952D01*
X15997857Y-14735476D01*
X15988333Y-14725952D01*
X15997857Y-14716428D01*
X15997857Y-14735476D01*
X16131190Y-14535476D02*
X16150238Y-14535476D01*
X16169286Y-14545000D01*
X16178809Y-14554524D01*
X16188333Y-14573571D01*
X16197857Y-14611667D01*
X16197857Y-14659286D01*
X16188333Y-14697381D01*
X16178809Y-14716428D01*
X16169286Y-14725952D01*
X16150238Y-14735476D01*
X16131190Y-14735476D01*
X16112143Y-14725952D01*
X16102619Y-14716428D01*
X16093095Y-14697381D01*
X16083571Y-14659286D01*
X16083571Y-14611667D01*
X16093095Y-14573571D01*
X16102619Y-14554524D01*
X16112143Y-14545000D01*
X16131190Y-14535476D01*
X16369286Y-14602143D02*
X16369286Y-14735476D01*
X16321667Y-14525952D02*
X16274048Y-14668809D01*
X16397857Y-14668809D01*
X16455000Y-14535476D02*
X16578809Y-14535476D01*
X16512143Y-14611667D01*
X16540714Y-14611667D01*
X16559762Y-14621190D01*
X16569286Y-14630714D01*
X16578809Y-14649762D01*
X16578809Y-14697381D01*
X16569286Y-14716428D01*
X16559762Y-14725952D01*
X16540714Y-14735476D01*
X16483571Y-14735476D01*
X16464524Y-14725952D01*
X16455000Y-14716428D01*
X16645476Y-14535476D02*
X16769286Y-14535476D01*
X16702619Y-14611667D01*
X16731190Y-14611667D01*
X16750238Y-14621190D01*
X16759762Y-14630714D01*
X16769286Y-14649762D01*
X16769286Y-14697381D01*
X16759762Y-14716428D01*
X16750238Y-14725952D01*
X16731190Y-14735476D01*
X16674048Y-14735476D01*
X16655000Y-14725952D01*
X16645476Y-14716428D01*
X16845476Y-14535476D02*
X16845476Y-14573571D01*
X16921667Y-14535476D02*
X16921667Y-14573571D01*
X17216905Y-14811667D02*
X17207381Y-14802143D01*
X17188333Y-14773571D01*
X17178810Y-14754524D01*
X17169286Y-14725952D01*
X17159762Y-14678333D01*
X17159762Y-14640238D01*
X17169286Y-14592619D01*
X17178810Y-14564048D01*
X17188333Y-14545000D01*
X17207381Y-14516428D01*
X17216905Y-14506905D01*
X17283571Y-14554524D02*
X17293095Y-14545000D01*
X17312143Y-14535476D01*
X17359762Y-14535476D01*
X17378810Y-14545000D01*
X17388333Y-14554524D01*
X17397857Y-14573571D01*
X17397857Y-14592619D01*
X17388333Y-14621190D01*
X17274048Y-14735476D01*
X17397857Y-14735476D01*
X17635952Y-14735476D02*
X17635952Y-14535476D01*
X17721667Y-14735476D02*
X17721667Y-14630714D01*
X17712143Y-14611667D01*
X17693095Y-14602143D01*
X17664524Y-14602143D01*
X17645476Y-14611667D01*
X17635952Y-14621190D01*
X17845476Y-14735476D02*
X17826429Y-14725952D01*
X17816905Y-14716428D01*
X17807381Y-14697381D01*
X17807381Y-14640238D01*
X17816905Y-14621190D01*
X17826429Y-14611667D01*
X17845476Y-14602143D01*
X17874048Y-14602143D01*
X17893095Y-14611667D01*
X17902619Y-14621190D01*
X17912143Y-14640238D01*
X17912143Y-14697381D01*
X17902619Y-14716428D01*
X17893095Y-14725952D01*
X17874048Y-14735476D01*
X17845476Y-14735476D01*
X18026429Y-14735476D02*
X18007381Y-14725952D01*
X17997857Y-14706905D01*
X17997857Y-14535476D01*
X18178810Y-14725952D02*
X18159762Y-14735476D01*
X18121667Y-14735476D01*
X18102619Y-14725952D01*
X18093095Y-14706905D01*
X18093095Y-14630714D01*
X18102619Y-14611667D01*
X18121667Y-14602143D01*
X18159762Y-14602143D01*
X18178810Y-14611667D01*
X18188333Y-14630714D01*
X18188333Y-14649762D01*
X18093095Y-14668809D01*
X18264524Y-14725952D02*
X18283571Y-14735476D01*
X18321667Y-14735476D01*
X18340714Y-14725952D01*
X18350238Y-14706905D01*
X18350238Y-14697381D01*
X18340714Y-14678333D01*
X18321667Y-14668809D01*
X18293095Y-14668809D01*
X18274048Y-14659286D01*
X18264524Y-14640238D01*
X18264524Y-14630714D01*
X18274048Y-14611667D01*
X18293095Y-14602143D01*
X18321667Y-14602143D01*
X18340714Y-14611667D01*
X18416905Y-14811667D02*
X18426429Y-14802143D01*
X18445476Y-14773571D01*
X18455000Y-14754524D01*
X18464524Y-14725952D01*
X18474048Y-14678333D01*
X18474048Y-14640238D01*
X18464524Y-14592619D01*
X18455000Y-14564048D01*
X18445476Y-14545000D01*
X18426429Y-14516428D01*
X18416905Y-14506905D01*
X18778810Y-14811667D02*
X18769286Y-14802143D01*
X18750238Y-14773571D01*
X18740714Y-14754524D01*
X18731190Y-14725952D01*
X18721667Y-14678333D01*
X18721667Y-14640238D01*
X18731190Y-14592619D01*
X18740714Y-14564048D01*
X18750238Y-14545000D01*
X18769286Y-14516428D01*
X18778810Y-14506905D01*
X18855000Y-14602143D02*
X18855000Y-14735476D01*
X18855000Y-14621190D02*
X18864524Y-14611667D01*
X18883571Y-14602143D01*
X18912143Y-14602143D01*
X18931190Y-14611667D01*
X18940714Y-14630714D01*
X18940714Y-14735476D01*
X19064524Y-14735476D02*
X19045476Y-14725952D01*
X19035952Y-14716428D01*
X19026429Y-14697381D01*
X19026429Y-14640238D01*
X19035952Y-14621190D01*
X19045476Y-14611667D01*
X19064524Y-14602143D01*
X19093095Y-14602143D01*
X19112143Y-14611667D01*
X19121667Y-14621190D01*
X19131190Y-14640238D01*
X19131190Y-14697381D01*
X19121667Y-14716428D01*
X19112143Y-14725952D01*
X19093095Y-14735476D01*
X19064524Y-14735476D01*
X19188333Y-14602143D02*
X19264524Y-14602143D01*
X19216905Y-14535476D02*
X19216905Y-14706905D01*
X19226429Y-14725952D01*
X19245476Y-14735476D01*
X19264524Y-14735476D01*
X19483571Y-14602143D02*
X19483571Y-14802143D01*
X19483571Y-14611667D02*
X19502619Y-14602143D01*
X19540714Y-14602143D01*
X19559762Y-14611667D01*
X19569286Y-14621190D01*
X19578810Y-14640238D01*
X19578810Y-14697381D01*
X19569286Y-14716428D01*
X19559762Y-14725952D01*
X19540714Y-14735476D01*
X19502619Y-14735476D01*
X19483571Y-14725952D01*
X19693095Y-14735476D02*
X19674048Y-14725952D01*
X19664524Y-14706905D01*
X19664524Y-14535476D01*
X19855000Y-14735476D02*
X19855000Y-14630714D01*
X19845476Y-14611667D01*
X19826429Y-14602143D01*
X19788333Y-14602143D01*
X19769286Y-14611667D01*
X19855000Y-14725952D02*
X19835952Y-14735476D01*
X19788333Y-14735476D01*
X19769286Y-14725952D01*
X19759762Y-14706905D01*
X19759762Y-14687857D01*
X19769286Y-14668809D01*
X19788333Y-14659286D01*
X19835952Y-14659286D01*
X19855000Y-14649762D01*
X19921667Y-14602143D02*
X19997857Y-14602143D01*
X19950238Y-14535476D02*
X19950238Y-14706905D01*
X19959762Y-14725952D01*
X19978810Y-14735476D01*
X19997857Y-14735476D01*
X20140714Y-14725952D02*
X20121667Y-14735476D01*
X20083571Y-14735476D01*
X20064524Y-14725952D01*
X20055000Y-14706905D01*
X20055000Y-14630714D01*
X20064524Y-14611667D01*
X20083571Y-14602143D01*
X20121667Y-14602143D01*
X20140714Y-14611667D01*
X20150238Y-14630714D01*
X20150238Y-14649762D01*
X20055000Y-14668809D01*
X20321667Y-14735476D02*
X20321667Y-14535476D01*
X20321667Y-14725952D02*
X20302619Y-14735476D01*
X20264524Y-14735476D01*
X20245476Y-14725952D01*
X20235952Y-14716428D01*
X20226429Y-14697381D01*
X20226429Y-14640238D01*
X20235952Y-14621190D01*
X20245476Y-14611667D01*
X20264524Y-14602143D01*
X20302619Y-14602143D01*
X20321667Y-14611667D01*
X20397857Y-14811667D02*
X20407381Y-14802143D01*
X20426429Y-14773571D01*
X20435952Y-14754524D01*
X20445476Y-14725952D01*
X20455000Y-14678333D01*
X20455000Y-14640238D01*
X20445476Y-14592619D01*
X20435952Y-14564048D01*
X20426429Y-14545000D01*
X20407381Y-14516428D01*
X20397857Y-14506905D01*
D13*
X13645000Y-14909000D02*
G75*
G03*
X13645000Y-14909000I-75000J0D01*
G01*
D11*
X14007381Y-14999476D02*
X13893095Y-14999476D01*
X13950238Y-14999476D02*
X13950238Y-14799476D01*
X13931190Y-14828048D01*
X13912143Y-14847095D01*
X13893095Y-14856619D01*
X14093095Y-14980428D02*
X14102619Y-14989952D01*
X14093095Y-14999476D01*
X14083571Y-14989952D01*
X14093095Y-14980428D01*
X14093095Y-14999476D01*
X14283571Y-14799476D02*
X14188333Y-14799476D01*
X14178809Y-14894714D01*
X14188333Y-14885190D01*
X14207381Y-14875667D01*
X14255000Y-14875667D01*
X14274048Y-14885190D01*
X14283571Y-14894714D01*
X14293095Y-14913762D01*
X14293095Y-14961381D01*
X14283571Y-14980428D01*
X14274048Y-14989952D01*
X14255000Y-14999476D01*
X14207381Y-14999476D01*
X14188333Y-14989952D01*
X14178809Y-14980428D01*
X14416905Y-14799476D02*
X14435952Y-14799476D01*
X14455000Y-14809000D01*
X14464524Y-14818524D01*
X14474048Y-14837571D01*
X14483571Y-14875667D01*
X14483571Y-14923286D01*
X14474048Y-14961381D01*
X14464524Y-14980428D01*
X14455000Y-14989952D01*
X14435952Y-14999476D01*
X14416905Y-14999476D01*
X14397857Y-14989952D01*
X14388333Y-14980428D01*
X14378809Y-14961381D01*
X14369286Y-14923286D01*
X14369286Y-14875667D01*
X14378809Y-14837571D01*
X14388333Y-14818524D01*
X14397857Y-14809000D01*
X14416905Y-14799476D01*
X14607381Y-14799476D02*
X14626428Y-14799476D01*
X14645476Y-14809000D01*
X14655000Y-14818524D01*
X14664524Y-14837571D01*
X14674048Y-14875667D01*
X14674048Y-14923286D01*
X14664524Y-14961381D01*
X14655000Y-14980428D01*
X14645476Y-14989952D01*
X14626428Y-14999476D01*
X14607381Y-14999476D01*
X14588333Y-14989952D01*
X14578809Y-14980428D01*
X14569286Y-14961381D01*
X14559762Y-14923286D01*
X14559762Y-14875667D01*
X14569286Y-14837571D01*
X14578809Y-14818524D01*
X14588333Y-14809000D01*
X14607381Y-14799476D01*
X14759762Y-14999476D02*
X14759762Y-14866143D01*
X14759762Y-14885190D02*
X14769286Y-14875667D01*
X14788333Y-14866143D01*
X14816905Y-14866143D01*
X14835952Y-14875667D01*
X14845476Y-14894714D01*
X14845476Y-14999476D01*
X14845476Y-14894714D02*
X14855000Y-14875667D01*
X14874048Y-14866143D01*
X14902619Y-14866143D01*
X14921667Y-14875667D01*
X14931190Y-14894714D01*
X14931190Y-14999476D01*
X15026428Y-14999476D02*
X15026428Y-14866143D01*
X15026428Y-14885190D02*
X15035952Y-14875667D01*
X15055000Y-14866143D01*
X15083571Y-14866143D01*
X15102619Y-14875667D01*
X15112143Y-14894714D01*
X15112143Y-14999476D01*
X15112143Y-14894714D02*
X15121667Y-14875667D01*
X15140714Y-14866143D01*
X15169286Y-14866143D01*
X15188333Y-14875667D01*
X15197857Y-14894714D01*
X15197857Y-14999476D01*
X15588333Y-14789952D02*
X15416905Y-15047095D01*
X15845476Y-14799476D02*
X15864524Y-14799476D01*
X15883571Y-14809000D01*
X15893095Y-14818524D01*
X15902619Y-14837571D01*
X15912143Y-14875667D01*
X15912143Y-14923286D01*
X15902619Y-14961381D01*
X15893095Y-14980428D01*
X15883571Y-14989952D01*
X15864524Y-14999476D01*
X15845476Y-14999476D01*
X15826428Y-14989952D01*
X15816905Y-14980428D01*
X15807381Y-14961381D01*
X15797857Y-14923286D01*
X15797857Y-14875667D01*
X15807381Y-14837571D01*
X15816905Y-14818524D01*
X15826428Y-14809000D01*
X15845476Y-14799476D01*
X15997857Y-14980428D02*
X16007381Y-14989952D01*
X15997857Y-14999476D01*
X15988333Y-14989952D01*
X15997857Y-14980428D01*
X15997857Y-14999476D01*
X16131190Y-14799476D02*
X16150238Y-14799476D01*
X16169286Y-14809000D01*
X16178809Y-14818524D01*
X16188333Y-14837571D01*
X16197857Y-14875667D01*
X16197857Y-14923286D01*
X16188333Y-14961381D01*
X16178809Y-14980428D01*
X16169286Y-14989952D01*
X16150238Y-14999476D01*
X16131190Y-14999476D01*
X16112143Y-14989952D01*
X16102619Y-14980428D01*
X16093095Y-14961381D01*
X16083571Y-14923286D01*
X16083571Y-14875667D01*
X16093095Y-14837571D01*
X16102619Y-14818524D01*
X16112143Y-14809000D01*
X16131190Y-14799476D01*
X16378809Y-14799476D02*
X16283571Y-14799476D01*
X16274048Y-14894714D01*
X16283571Y-14885190D01*
X16302619Y-14875667D01*
X16350238Y-14875667D01*
X16369286Y-14885190D01*
X16378809Y-14894714D01*
X16388333Y-14913762D01*
X16388333Y-14961381D01*
X16378809Y-14980428D01*
X16369286Y-14989952D01*
X16350238Y-14999476D01*
X16302619Y-14999476D01*
X16283571Y-14989952D01*
X16274048Y-14980428D01*
X16483571Y-14999476D02*
X16521667Y-14999476D01*
X16540714Y-14989952D01*
X16550238Y-14980428D01*
X16569286Y-14951857D01*
X16578809Y-14913762D01*
X16578809Y-14837571D01*
X16569286Y-14818524D01*
X16559762Y-14809000D01*
X16540714Y-14799476D01*
X16502619Y-14799476D01*
X16483571Y-14809000D01*
X16474048Y-14818524D01*
X16464524Y-14837571D01*
X16464524Y-14885190D01*
X16474048Y-14904238D01*
X16483571Y-14913762D01*
X16502619Y-14923286D01*
X16540714Y-14923286D01*
X16559762Y-14913762D01*
X16569286Y-14904238D01*
X16578809Y-14885190D01*
X16769286Y-14999476D02*
X16655000Y-14999476D01*
X16712143Y-14999476D02*
X16712143Y-14799476D01*
X16693095Y-14828048D01*
X16674048Y-14847095D01*
X16655000Y-14856619D01*
X16845476Y-14799476D02*
X16845476Y-14837571D01*
X16921667Y-14799476D02*
X16921667Y-14837571D01*
X17216905Y-15075667D02*
X17207381Y-15066143D01*
X17188333Y-15037571D01*
X17178810Y-15018524D01*
X17169286Y-14989952D01*
X17159762Y-14942333D01*
X17159762Y-14904238D01*
X17169286Y-14856619D01*
X17178810Y-14828048D01*
X17188333Y-14809000D01*
X17207381Y-14780428D01*
X17216905Y-14770905D01*
X17331190Y-14799476D02*
X17350238Y-14799476D01*
X17369286Y-14809000D01*
X17378810Y-14818524D01*
X17388333Y-14837571D01*
X17397857Y-14875667D01*
X17397857Y-14923286D01*
X17388333Y-14961381D01*
X17378810Y-14980428D01*
X17369286Y-14989952D01*
X17350238Y-14999476D01*
X17331190Y-14999476D01*
X17312143Y-14989952D01*
X17302619Y-14980428D01*
X17293095Y-14961381D01*
X17283571Y-14923286D01*
X17283571Y-14875667D01*
X17293095Y-14837571D01*
X17302619Y-14818524D01*
X17312143Y-14809000D01*
X17331190Y-14799476D01*
X17635952Y-14999476D02*
X17635952Y-14799476D01*
X17721667Y-14999476D02*
X17721667Y-14894714D01*
X17712143Y-14875667D01*
X17693095Y-14866143D01*
X17664524Y-14866143D01*
X17645476Y-14875667D01*
X17635952Y-14885190D01*
X17845476Y-14999476D02*
X17826429Y-14989952D01*
X17816905Y-14980428D01*
X17807381Y-14961381D01*
X17807381Y-14904238D01*
X17816905Y-14885190D01*
X17826429Y-14875667D01*
X17845476Y-14866143D01*
X17874048Y-14866143D01*
X17893095Y-14875667D01*
X17902619Y-14885190D01*
X17912143Y-14904238D01*
X17912143Y-14961381D01*
X17902619Y-14980428D01*
X17893095Y-14989952D01*
X17874048Y-14999476D01*
X17845476Y-14999476D01*
X18026429Y-14999476D02*
X18007381Y-14989952D01*
X17997857Y-14970905D01*
X17997857Y-14799476D01*
X18178810Y-14989952D02*
X18159762Y-14999476D01*
X18121667Y-14999476D01*
X18102619Y-14989952D01*
X18093095Y-14970905D01*
X18093095Y-14894714D01*
X18102619Y-14875667D01*
X18121667Y-14866143D01*
X18159762Y-14866143D01*
X18178810Y-14875667D01*
X18188333Y-14894714D01*
X18188333Y-14913762D01*
X18093095Y-14932809D01*
X18264524Y-14989952D02*
X18283571Y-14999476D01*
X18321667Y-14999476D01*
X18340714Y-14989952D01*
X18350238Y-14970905D01*
X18350238Y-14961381D01*
X18340714Y-14942333D01*
X18321667Y-14932809D01*
X18293095Y-14932809D01*
X18274048Y-14923286D01*
X18264524Y-14904238D01*
X18264524Y-14894714D01*
X18274048Y-14875667D01*
X18293095Y-14866143D01*
X18321667Y-14866143D01*
X18340714Y-14875667D01*
X18588333Y-14923286D02*
X18740714Y-14923286D01*
X18664524Y-14999476D02*
X18664524Y-14847095D01*
X18969286Y-14799476D02*
X19093095Y-14799476D01*
X19026429Y-14875667D01*
X19055000Y-14875667D01*
X19074048Y-14885190D01*
X19083571Y-14894714D01*
X19093095Y-14913762D01*
X19093095Y-14961381D01*
X19083571Y-14980428D01*
X19074048Y-14989952D01*
X19055000Y-14999476D01*
X18997857Y-14999476D01*
X18978810Y-14989952D01*
X18969286Y-14980428D01*
X19321667Y-14989952D02*
X19340714Y-14999476D01*
X19378810Y-14999476D01*
X19397857Y-14989952D01*
X19407381Y-14970905D01*
X19407381Y-14961381D01*
X19397857Y-14942333D01*
X19378810Y-14932809D01*
X19350238Y-14932809D01*
X19331190Y-14923286D01*
X19321667Y-14904238D01*
X19321667Y-14894714D01*
X19331190Y-14875667D01*
X19350238Y-14866143D01*
X19378810Y-14866143D01*
X19397857Y-14875667D01*
X19521667Y-14999476D02*
X19502619Y-14989952D01*
X19493095Y-14970905D01*
X19493095Y-14799476D01*
X19626429Y-14999476D02*
X19607381Y-14989952D01*
X19597857Y-14980428D01*
X19588333Y-14961381D01*
X19588333Y-14904238D01*
X19597857Y-14885190D01*
X19607381Y-14875667D01*
X19626429Y-14866143D01*
X19655000Y-14866143D01*
X19674048Y-14875667D01*
X19683571Y-14885190D01*
X19693095Y-14904238D01*
X19693095Y-14961381D01*
X19683571Y-14980428D01*
X19674048Y-14989952D01*
X19655000Y-14999476D01*
X19626429Y-14999476D01*
X19750238Y-14866143D02*
X19826429Y-14866143D01*
X19778810Y-14799476D02*
X19778810Y-14970905D01*
X19788333Y-14989952D01*
X19807381Y-14999476D01*
X19826429Y-14999476D01*
X19883571Y-14989952D02*
X19902619Y-14999476D01*
X19940714Y-14999476D01*
X19959762Y-14989952D01*
X19969286Y-14970905D01*
X19969286Y-14961381D01*
X19959762Y-14942333D01*
X19940714Y-14932809D01*
X19912143Y-14932809D01*
X19893095Y-14923286D01*
X19883571Y-14904238D01*
X19883571Y-14894714D01*
X19893095Y-14875667D01*
X19912143Y-14866143D01*
X19940714Y-14866143D01*
X19959762Y-14875667D01*
X20035952Y-15075667D02*
X20045476Y-15066143D01*
X20064524Y-15037571D01*
X20074048Y-15018524D01*
X20083571Y-14989952D01*
X20093095Y-14942333D01*
X20093095Y-14904238D01*
X20083571Y-14856619D01*
X20074048Y-14828048D01*
X20064524Y-14809000D01*
X20045476Y-14780428D01*
X20035952Y-14770905D01*
X20397857Y-15075667D02*
X20388333Y-15066143D01*
X20369286Y-15037571D01*
X20359762Y-15018524D01*
X20350238Y-14989952D01*
X20340714Y-14942333D01*
X20340714Y-14904238D01*
X20350238Y-14856619D01*
X20359762Y-14828048D01*
X20369286Y-14809000D01*
X20388333Y-14780428D01*
X20397857Y-14770905D01*
X20474048Y-14866143D02*
X20474048Y-14999476D01*
X20474048Y-14885190D02*
X20483571Y-14875667D01*
X20502619Y-14866143D01*
X20531190Y-14866143D01*
X20550238Y-14875667D01*
X20559762Y-14894714D01*
X20559762Y-14999476D01*
X20683571Y-14999476D02*
X20664524Y-14989952D01*
X20655000Y-14980428D01*
X20645476Y-14961381D01*
X20645476Y-14904238D01*
X20655000Y-14885190D01*
X20664524Y-14875667D01*
X20683571Y-14866143D01*
X20712143Y-14866143D01*
X20731190Y-14875667D01*
X20740714Y-14885190D01*
X20750238Y-14904238D01*
X20750238Y-14961381D01*
X20740714Y-14980428D01*
X20731190Y-14989952D01*
X20712143Y-14999476D01*
X20683571Y-14999476D01*
X20807381Y-14866143D02*
X20883571Y-14866143D01*
X20835952Y-14799476D02*
X20835952Y-14970905D01*
X20845476Y-14989952D01*
X20864524Y-14999476D01*
X20883571Y-14999476D01*
X21102619Y-14866143D02*
X21102619Y-15066143D01*
X21102619Y-14875667D02*
X21121667Y-14866143D01*
X21159762Y-14866143D01*
X21178810Y-14875667D01*
X21188333Y-14885190D01*
X21197857Y-14904238D01*
X21197857Y-14961381D01*
X21188333Y-14980428D01*
X21178810Y-14989952D01*
X21159762Y-14999476D01*
X21121667Y-14999476D01*
X21102619Y-14989952D01*
X21312143Y-14999476D02*
X21293095Y-14989952D01*
X21283571Y-14970905D01*
X21283571Y-14799476D01*
X21474048Y-14999476D02*
X21474048Y-14894714D01*
X21464524Y-14875667D01*
X21445476Y-14866143D01*
X21407381Y-14866143D01*
X21388333Y-14875667D01*
X21474048Y-14989952D02*
X21455000Y-14999476D01*
X21407381Y-14999476D01*
X21388333Y-14989952D01*
X21378810Y-14970905D01*
X21378810Y-14951857D01*
X21388333Y-14932809D01*
X21407381Y-14923286D01*
X21455000Y-14923286D01*
X21474048Y-14913762D01*
X21540714Y-14866143D02*
X21616905Y-14866143D01*
X21569286Y-14799476D02*
X21569286Y-14970905D01*
X21578810Y-14989952D01*
X21597857Y-14999476D01*
X21616905Y-14999476D01*
X21759762Y-14989952D02*
X21740714Y-14999476D01*
X21702619Y-14999476D01*
X21683571Y-14989952D01*
X21674048Y-14970905D01*
X21674048Y-14894714D01*
X21683571Y-14875667D01*
X21702619Y-14866143D01*
X21740714Y-14866143D01*
X21759762Y-14875667D01*
X21769286Y-14894714D01*
X21769286Y-14913762D01*
X21674048Y-14932809D01*
X21940714Y-14999476D02*
X21940714Y-14799476D01*
X21940714Y-14989952D02*
X21921667Y-14999476D01*
X21883571Y-14999476D01*
X21864524Y-14989952D01*
X21855000Y-14980428D01*
X21845476Y-14961381D01*
X21845476Y-14904238D01*
X21855000Y-14885190D01*
X21864524Y-14875667D01*
X21883571Y-14866143D01*
X21921667Y-14866143D01*
X21940714Y-14875667D01*
X22016905Y-15075667D02*
X22026429Y-15066143D01*
X22045476Y-15037571D01*
X22055000Y-15018524D01*
X22064524Y-14989952D01*
X22074048Y-14942333D01*
X22074048Y-14904238D01*
X22064524Y-14856619D01*
X22055000Y-14828048D01*
X22045476Y-14809000D01*
X22026429Y-14780428D01*
X22016905Y-14770905D01*
X13545000Y-15079000D02*
X13545000Y-15279000D01*
X13445000Y-15179000D02*
X13645000Y-15179000D01*
X13893095Y-15088524D02*
X13902619Y-15079000D01*
X13921667Y-15069476D01*
X13969286Y-15069476D01*
X13988333Y-15079000D01*
X13997857Y-15088524D01*
X14007381Y-15107571D01*
X14007381Y-15126619D01*
X13997857Y-15155190D01*
X13883571Y-15269476D01*
X14007381Y-15269476D01*
X14093095Y-15250428D02*
X14102619Y-15259952D01*
X14093095Y-15269476D01*
X14083571Y-15259952D01*
X14093095Y-15250428D01*
X14093095Y-15269476D01*
X14226428Y-15069476D02*
X14245476Y-15069476D01*
X14264524Y-15079000D01*
X14274048Y-15088524D01*
X14283571Y-15107571D01*
X14293095Y-15145667D01*
X14293095Y-15193286D01*
X14283571Y-15231381D01*
X14274048Y-15250428D01*
X14264524Y-15259952D01*
X14245476Y-15269476D01*
X14226428Y-15269476D01*
X14207381Y-15259952D01*
X14197857Y-15250428D01*
X14188333Y-15231381D01*
X14178809Y-15193286D01*
X14178809Y-15145667D01*
X14188333Y-15107571D01*
X14197857Y-15088524D01*
X14207381Y-15079000D01*
X14226428Y-15069476D01*
X14416905Y-15069476D02*
X14435952Y-15069476D01*
X14455000Y-15079000D01*
X14464524Y-15088524D01*
X14474048Y-15107571D01*
X14483571Y-15145667D01*
X14483571Y-15193286D01*
X14474048Y-15231381D01*
X14464524Y-15250428D01*
X14455000Y-15259952D01*
X14435952Y-15269476D01*
X14416905Y-15269476D01*
X14397857Y-15259952D01*
X14388333Y-15250428D01*
X14378809Y-15231381D01*
X14369286Y-15193286D01*
X14369286Y-15145667D01*
X14378809Y-15107571D01*
X14388333Y-15088524D01*
X14397857Y-15079000D01*
X14416905Y-15069476D01*
X14607381Y-15069476D02*
X14626428Y-15069476D01*
X14645476Y-15079000D01*
X14655000Y-15088524D01*
X14664524Y-15107571D01*
X14674048Y-15145667D01*
X14674048Y-15193286D01*
X14664524Y-15231381D01*
X14655000Y-15250428D01*
X14645476Y-15259952D01*
X14626428Y-15269476D01*
X14607381Y-15269476D01*
X14588333Y-15259952D01*
X14578809Y-15250428D01*
X14569286Y-15231381D01*
X14559762Y-15193286D01*
X14559762Y-15145667D01*
X14569286Y-15107571D01*
X14578809Y-15088524D01*
X14588333Y-15079000D01*
X14607381Y-15069476D01*
X14759762Y-15269476D02*
X14759762Y-15136143D01*
X14759762Y-15155190D02*
X14769286Y-15145667D01*
X14788333Y-15136143D01*
X14816905Y-15136143D01*
X14835952Y-15145667D01*
X14845476Y-15164714D01*
X14845476Y-15269476D01*
X14845476Y-15164714D02*
X14855000Y-15145667D01*
X14874048Y-15136143D01*
X14902619Y-15136143D01*
X14921667Y-15145667D01*
X14931190Y-15164714D01*
X14931190Y-15269476D01*
X15026428Y-15269476D02*
X15026428Y-15136143D01*
X15026428Y-15155190D02*
X15035952Y-15145667D01*
X15055000Y-15136143D01*
X15083571Y-15136143D01*
X15102619Y-15145667D01*
X15112143Y-15164714D01*
X15112143Y-15269476D01*
X15112143Y-15164714D02*
X15121667Y-15145667D01*
X15140714Y-15136143D01*
X15169286Y-15136143D01*
X15188333Y-15145667D01*
X15197857Y-15164714D01*
X15197857Y-15269476D01*
X15588333Y-15059952D02*
X15416905Y-15317095D01*
X15845476Y-15069476D02*
X15864524Y-15069476D01*
X15883571Y-15079000D01*
X15893095Y-15088524D01*
X15902619Y-15107571D01*
X15912143Y-15145667D01*
X15912143Y-15193286D01*
X15902619Y-15231381D01*
X15893095Y-15250428D01*
X15883571Y-15259952D01*
X15864524Y-15269476D01*
X15845476Y-15269476D01*
X15826428Y-15259952D01*
X15816905Y-15250428D01*
X15807381Y-15231381D01*
X15797857Y-15193286D01*
X15797857Y-15145667D01*
X15807381Y-15107571D01*
X15816905Y-15088524D01*
X15826428Y-15079000D01*
X15845476Y-15069476D01*
X15997857Y-15250428D02*
X16007381Y-15259952D01*
X15997857Y-15269476D01*
X15988333Y-15259952D01*
X15997857Y-15250428D01*
X15997857Y-15269476D01*
X16131190Y-15069476D02*
X16150238Y-15069476D01*
X16169286Y-15079000D01*
X16178809Y-15088524D01*
X16188333Y-15107571D01*
X16197857Y-15145667D01*
X16197857Y-15193286D01*
X16188333Y-15231381D01*
X16178809Y-15250428D01*
X16169286Y-15259952D01*
X16150238Y-15269476D01*
X16131190Y-15269476D01*
X16112143Y-15259952D01*
X16102619Y-15250428D01*
X16093095Y-15231381D01*
X16083571Y-15193286D01*
X16083571Y-15145667D01*
X16093095Y-15107571D01*
X16102619Y-15088524D01*
X16112143Y-15079000D01*
X16131190Y-15069476D01*
X16264524Y-15069476D02*
X16397857Y-15069476D01*
X16312143Y-15269476D01*
X16502619Y-15155190D02*
X16483571Y-15145667D01*
X16474048Y-15136143D01*
X16464524Y-15117095D01*
X16464524Y-15107571D01*
X16474048Y-15088524D01*
X16483571Y-15079000D01*
X16502619Y-15069476D01*
X16540714Y-15069476D01*
X16559762Y-15079000D01*
X16569286Y-15088524D01*
X16578809Y-15107571D01*
X16578809Y-15117095D01*
X16569286Y-15136143D01*
X16559762Y-15145667D01*
X16540714Y-15155190D01*
X16502619Y-15155190D01*
X16483571Y-15164714D01*
X16474048Y-15174238D01*
X16464524Y-15193286D01*
X16464524Y-15231381D01*
X16474048Y-15250428D01*
X16483571Y-15259952D01*
X16502619Y-15269476D01*
X16540714Y-15269476D01*
X16559762Y-15259952D01*
X16569286Y-15250428D01*
X16578809Y-15231381D01*
X16578809Y-15193286D01*
X16569286Y-15174238D01*
X16559762Y-15164714D01*
X16540714Y-15155190D01*
X16645476Y-15069476D02*
X16778810Y-15069476D01*
X16693095Y-15269476D01*
X16845476Y-15069476D02*
X16845476Y-15107571D01*
X16921667Y-15069476D02*
X16921667Y-15107571D01*
X17216905Y-15345667D02*
X17207381Y-15336143D01*
X17188333Y-15307571D01*
X17178810Y-15288524D01*
X17169286Y-15259952D01*
X17159762Y-15212333D01*
X17159762Y-15174238D01*
X17169286Y-15126619D01*
X17178810Y-15098048D01*
X17188333Y-15079000D01*
X17207381Y-15050428D01*
X17216905Y-15040905D01*
X17331190Y-15069476D02*
X17350238Y-15069476D01*
X17369286Y-15079000D01*
X17378810Y-15088524D01*
X17388333Y-15107571D01*
X17397857Y-15145667D01*
X17397857Y-15193286D01*
X17388333Y-15231381D01*
X17378810Y-15250428D01*
X17369286Y-15259952D01*
X17350238Y-15269476D01*
X17331190Y-15269476D01*
X17312143Y-15259952D01*
X17302619Y-15250428D01*
X17293095Y-15231381D01*
X17283571Y-15193286D01*
X17283571Y-15145667D01*
X17293095Y-15107571D01*
X17302619Y-15088524D01*
X17312143Y-15079000D01*
X17331190Y-15069476D01*
X17635952Y-15269476D02*
X17635952Y-15069476D01*
X17721667Y-15269476D02*
X17721667Y-15164714D01*
X17712143Y-15145667D01*
X17693095Y-15136143D01*
X17664524Y-15136143D01*
X17645476Y-15145667D01*
X17635952Y-15155190D01*
X17845476Y-15269476D02*
X17826429Y-15259952D01*
X17816905Y-15250428D01*
X17807381Y-15231381D01*
X17807381Y-15174238D01*
X17816905Y-15155190D01*
X17826429Y-15145667D01*
X17845476Y-15136143D01*
X17874048Y-15136143D01*
X17893095Y-15145667D01*
X17902619Y-15155190D01*
X17912143Y-15174238D01*
X17912143Y-15231381D01*
X17902619Y-15250428D01*
X17893095Y-15259952D01*
X17874048Y-15269476D01*
X17845476Y-15269476D01*
X18026429Y-15269476D02*
X18007381Y-15259952D01*
X17997857Y-15240905D01*
X17997857Y-15069476D01*
X18178810Y-15259952D02*
X18159762Y-15269476D01*
X18121667Y-15269476D01*
X18102619Y-15259952D01*
X18093095Y-15240905D01*
X18093095Y-15164714D01*
X18102619Y-15145667D01*
X18121667Y-15136143D01*
X18159762Y-15136143D01*
X18178810Y-15145667D01*
X18188333Y-15164714D01*
X18188333Y-15183762D01*
X18093095Y-15202809D01*
X18264524Y-15259952D02*
X18283571Y-15269476D01*
X18321667Y-15269476D01*
X18340714Y-15259952D01*
X18350238Y-15240905D01*
X18350238Y-15231381D01*
X18340714Y-15212333D01*
X18321667Y-15202809D01*
X18293095Y-15202809D01*
X18274048Y-15193286D01*
X18264524Y-15174238D01*
X18264524Y-15164714D01*
X18274048Y-15145667D01*
X18293095Y-15136143D01*
X18321667Y-15136143D01*
X18340714Y-15145667D01*
X18588333Y-15193286D02*
X18740714Y-15193286D01*
X18664524Y-15269476D02*
X18664524Y-15117095D01*
X18969286Y-15069476D02*
X19102619Y-15069476D01*
X19016905Y-15269476D01*
X19321667Y-15259952D02*
X19340714Y-15269476D01*
X19378810Y-15269476D01*
X19397857Y-15259952D01*
X19407381Y-15240905D01*
X19407381Y-15231381D01*
X19397857Y-15212333D01*
X19378810Y-15202809D01*
X19350238Y-15202809D01*
X19331190Y-15193286D01*
X19321667Y-15174238D01*
X19321667Y-15164714D01*
X19331190Y-15145667D01*
X19350238Y-15136143D01*
X19378810Y-15136143D01*
X19397857Y-15145667D01*
X19521667Y-15269476D02*
X19502619Y-15259952D01*
X19493095Y-15240905D01*
X19493095Y-15069476D01*
X19626429Y-15269476D02*
X19607381Y-15259952D01*
X19597857Y-15250428D01*
X19588333Y-15231381D01*
X19588333Y-15174238D01*
X19597857Y-15155190D01*
X19607381Y-15145667D01*
X19626429Y-15136143D01*
X19655000Y-15136143D01*
X19674048Y-15145667D01*
X19683571Y-15155190D01*
X19693095Y-15174238D01*
X19693095Y-15231381D01*
X19683571Y-15250428D01*
X19674048Y-15259952D01*
X19655000Y-15269476D01*
X19626429Y-15269476D01*
X19750238Y-15136143D02*
X19826429Y-15136143D01*
X19778810Y-15069476D02*
X19778810Y-15240905D01*
X19788333Y-15259952D01*
X19807381Y-15269476D01*
X19826429Y-15269476D01*
X19883571Y-15259952D02*
X19902619Y-15269476D01*
X19940714Y-15269476D01*
X19959762Y-15259952D01*
X19969286Y-15240905D01*
X19969286Y-15231381D01*
X19959762Y-15212333D01*
X19940714Y-15202809D01*
X19912143Y-15202809D01*
X19893095Y-15193286D01*
X19883571Y-15174238D01*
X19883571Y-15164714D01*
X19893095Y-15145667D01*
X19912143Y-15136143D01*
X19940714Y-15136143D01*
X19959762Y-15145667D01*
X20035952Y-15345667D02*
X20045476Y-15336143D01*
X20064524Y-15307571D01*
X20074048Y-15288524D01*
X20083571Y-15259952D01*
X20093095Y-15212333D01*
X20093095Y-15174238D01*
X20083571Y-15126619D01*
X20074048Y-15098048D01*
X20064524Y-15079000D01*
X20045476Y-15050428D01*
X20035952Y-15040905D01*
X20397857Y-15345667D02*
X20388333Y-15336143D01*
X20369286Y-15307571D01*
X20359762Y-15288524D01*
X20350238Y-15259952D01*
X20340714Y-15212333D01*
X20340714Y-15174238D01*
X20350238Y-15126619D01*
X20359762Y-15098048D01*
X20369286Y-15079000D01*
X20388333Y-15050428D01*
X20397857Y-15040905D01*
X20474048Y-15136143D02*
X20474048Y-15269476D01*
X20474048Y-15155190D02*
X20483571Y-15145667D01*
X20502619Y-15136143D01*
X20531190Y-15136143D01*
X20550238Y-15145667D01*
X20559762Y-15164714D01*
X20559762Y-15269476D01*
X20683571Y-15269476D02*
X20664524Y-15259952D01*
X20655000Y-15250428D01*
X20645476Y-15231381D01*
X20645476Y-15174238D01*
X20655000Y-15155190D01*
X20664524Y-15145667D01*
X20683571Y-15136143D01*
X20712143Y-15136143D01*
X20731190Y-15145667D01*
X20740714Y-15155190D01*
X20750238Y-15174238D01*
X20750238Y-15231381D01*
X20740714Y-15250428D01*
X20731190Y-15259952D01*
X20712143Y-15269476D01*
X20683571Y-15269476D01*
X20807381Y-15136143D02*
X20883571Y-15136143D01*
X20835952Y-15069476D02*
X20835952Y-15240905D01*
X20845476Y-15259952D01*
X20864524Y-15269476D01*
X20883571Y-15269476D01*
X21102619Y-15136143D02*
X21102619Y-15336143D01*
X21102619Y-15145667D02*
X21121667Y-15136143D01*
X21159762Y-15136143D01*
X21178810Y-15145667D01*
X21188333Y-15155190D01*
X21197857Y-15174238D01*
X21197857Y-15231381D01*
X21188333Y-15250428D01*
X21178810Y-15259952D01*
X21159762Y-15269476D01*
X21121667Y-15269476D01*
X21102619Y-15259952D01*
X21312143Y-15269476D02*
X21293095Y-15259952D01*
X21283571Y-15240905D01*
X21283571Y-15069476D01*
X21474048Y-15269476D02*
X21474048Y-15164714D01*
X21464524Y-15145667D01*
X21445476Y-15136143D01*
X21407381Y-15136143D01*
X21388333Y-15145667D01*
X21474048Y-15259952D02*
X21455000Y-15269476D01*
X21407381Y-15269476D01*
X21388333Y-15259952D01*
X21378810Y-15240905D01*
X21378810Y-15221857D01*
X21388333Y-15202809D01*
X21407381Y-15193286D01*
X21455000Y-15193286D01*
X21474048Y-15183762D01*
X21540714Y-15136143D02*
X21616905Y-15136143D01*
X21569286Y-15069476D02*
X21569286Y-15240905D01*
X21578810Y-15259952D01*
X21597857Y-15269476D01*
X21616905Y-15269476D01*
X21759762Y-15259952D02*
X21740714Y-15269476D01*
X21702619Y-15269476D01*
X21683571Y-15259952D01*
X21674048Y-15240905D01*
X21674048Y-15164714D01*
X21683571Y-15145667D01*
X21702619Y-15136143D01*
X21740714Y-15136143D01*
X21759762Y-15145667D01*
X21769286Y-15164714D01*
X21769286Y-15183762D01*
X21674048Y-15202809D01*
X21940714Y-15269476D02*
X21940714Y-15069476D01*
X21940714Y-15259952D02*
X21921667Y-15269476D01*
X21883571Y-15269476D01*
X21864524Y-15259952D01*
X21855000Y-15250428D01*
X21845476Y-15231381D01*
X21845476Y-15174238D01*
X21855000Y-15155190D01*
X21864524Y-15145667D01*
X21883571Y-15136143D01*
X21921667Y-15136143D01*
X21940714Y-15145667D01*
X22016905Y-15345667D02*
X22026429Y-15336143D01*
X22045476Y-15307571D01*
X22055000Y-15288524D01*
X22064524Y-15259952D01*
X22074048Y-15212333D01*
X22074048Y-15174238D01*
X22064524Y-15126619D01*
X22055000Y-15098048D01*
X22045476Y-15079000D01*
X22026429Y-15050428D01*
X22016905Y-15040905D01*
X13615711Y-15569711D02*
X13615711Y-15428289D01*
X13474289Y-15428289D01*
X13474289Y-15569711D01*
X13615711Y-15569711D01*
X13883571Y-15389476D02*
X14007381Y-15389476D01*
X13940714Y-15465667D01*
X13969286Y-15465667D01*
X13988333Y-15475190D01*
X13997857Y-15484714D01*
X14007381Y-15503762D01*
X14007381Y-15551381D01*
X13997857Y-15570428D01*
X13988333Y-15579952D01*
X13969286Y-15589476D01*
X13912143Y-15589476D01*
X13893095Y-15579952D01*
X13883571Y-15570428D01*
X14093095Y-15570428D02*
X14102619Y-15579952D01*
X14093095Y-15589476D01*
X14083571Y-15579952D01*
X14093095Y-15570428D01*
X14093095Y-15589476D01*
X14178809Y-15408524D02*
X14188333Y-15399000D01*
X14207381Y-15389476D01*
X14255000Y-15389476D01*
X14274048Y-15399000D01*
X14283571Y-15408524D01*
X14293095Y-15427571D01*
X14293095Y-15446619D01*
X14283571Y-15475190D01*
X14169286Y-15589476D01*
X14293095Y-15589476D01*
X14416905Y-15389476D02*
X14435952Y-15389476D01*
X14455000Y-15399000D01*
X14464524Y-15408524D01*
X14474048Y-15427571D01*
X14483571Y-15465667D01*
X14483571Y-15513286D01*
X14474048Y-15551381D01*
X14464524Y-15570428D01*
X14455000Y-15579952D01*
X14435952Y-15589476D01*
X14416905Y-15589476D01*
X14397857Y-15579952D01*
X14388333Y-15570428D01*
X14378809Y-15551381D01*
X14369286Y-15513286D01*
X14369286Y-15465667D01*
X14378809Y-15427571D01*
X14388333Y-15408524D01*
X14397857Y-15399000D01*
X14416905Y-15389476D01*
X14607381Y-15389476D02*
X14626428Y-15389476D01*
X14645476Y-15399000D01*
X14655000Y-15408524D01*
X14664524Y-15427571D01*
X14674048Y-15465667D01*
X14674048Y-15513286D01*
X14664524Y-15551381D01*
X14655000Y-15570428D01*
X14645476Y-15579952D01*
X14626428Y-15589476D01*
X14607381Y-15589476D01*
X14588333Y-15579952D01*
X14578809Y-15570428D01*
X14569286Y-15551381D01*
X14559762Y-15513286D01*
X14559762Y-15465667D01*
X14569286Y-15427571D01*
X14578809Y-15408524D01*
X14588333Y-15399000D01*
X14607381Y-15389476D01*
X14759762Y-15589476D02*
X14759762Y-15456143D01*
X14759762Y-15475190D02*
X14769286Y-15465667D01*
X14788333Y-15456143D01*
X14816905Y-15456143D01*
X14835952Y-15465667D01*
X14845476Y-15484714D01*
X14845476Y-15589476D01*
X14845476Y-15484714D02*
X14855000Y-15465667D01*
X14874048Y-15456143D01*
X14902619Y-15456143D01*
X14921667Y-15465667D01*
X14931190Y-15484714D01*
X14931190Y-15589476D01*
X15026428Y-15589476D02*
X15026428Y-15456143D01*
X15026428Y-15475190D02*
X15035952Y-15465667D01*
X15055000Y-15456143D01*
X15083571Y-15456143D01*
X15102619Y-15465667D01*
X15112143Y-15484714D01*
X15112143Y-15589476D01*
X15112143Y-15484714D02*
X15121667Y-15465667D01*
X15140714Y-15456143D01*
X15169286Y-15456143D01*
X15188333Y-15465667D01*
X15197857Y-15484714D01*
X15197857Y-15589476D01*
X15588333Y-15379952D02*
X15416905Y-15637095D01*
X15845476Y-15389476D02*
X15864524Y-15389476D01*
X15883571Y-15399000D01*
X15893095Y-15408524D01*
X15902619Y-15427571D01*
X15912143Y-15465667D01*
X15912143Y-15513286D01*
X15902619Y-15551381D01*
X15893095Y-15570428D01*
X15883571Y-15579952D01*
X15864524Y-15589476D01*
X15845476Y-15589476D01*
X15826428Y-15579952D01*
X15816905Y-15570428D01*
X15807381Y-15551381D01*
X15797857Y-15513286D01*
X15797857Y-15465667D01*
X15807381Y-15427571D01*
X15816905Y-15408524D01*
X15826428Y-15399000D01*
X15845476Y-15389476D01*
X15997857Y-15570428D02*
X16007381Y-15579952D01*
X15997857Y-15589476D01*
X15988333Y-15579952D01*
X15997857Y-15570428D01*
X15997857Y-15589476D01*
X16197857Y-15589476D02*
X16083571Y-15589476D01*
X16140714Y-15589476D02*
X16140714Y-15389476D01*
X16121667Y-15418048D01*
X16102619Y-15437095D01*
X16083571Y-15446619D01*
X16274048Y-15408524D02*
X16283571Y-15399000D01*
X16302619Y-15389476D01*
X16350238Y-15389476D01*
X16369286Y-15399000D01*
X16378809Y-15408524D01*
X16388333Y-15427571D01*
X16388333Y-15446619D01*
X16378809Y-15475190D01*
X16264524Y-15589476D01*
X16388333Y-15589476D01*
X16559762Y-15389476D02*
X16521667Y-15389476D01*
X16502619Y-15399000D01*
X16493095Y-15408524D01*
X16474048Y-15437095D01*
X16464524Y-15475190D01*
X16464524Y-15551381D01*
X16474048Y-15570428D01*
X16483571Y-15579952D01*
X16502619Y-15589476D01*
X16540714Y-15589476D01*
X16559762Y-15579952D01*
X16569286Y-15570428D01*
X16578809Y-15551381D01*
X16578809Y-15503762D01*
X16569286Y-15484714D01*
X16559762Y-15475190D01*
X16540714Y-15465667D01*
X16502619Y-15465667D01*
X16483571Y-15475190D01*
X16474048Y-15484714D01*
X16464524Y-15503762D01*
X16702619Y-15389476D02*
X16721667Y-15389476D01*
X16740714Y-15399000D01*
X16750238Y-15408524D01*
X16759762Y-15427571D01*
X16769286Y-15465667D01*
X16769286Y-15513286D01*
X16759762Y-15551381D01*
X16750238Y-15570428D01*
X16740714Y-15579952D01*
X16721667Y-15589476D01*
X16702619Y-15589476D01*
X16683571Y-15579952D01*
X16674048Y-15570428D01*
X16664524Y-15551381D01*
X16655000Y-15513286D01*
X16655000Y-15465667D01*
X16664524Y-15427571D01*
X16674048Y-15408524D01*
X16683571Y-15399000D01*
X16702619Y-15389476D01*
X16845476Y-15389476D02*
X16845476Y-15427571D01*
X16921667Y-15389476D02*
X16921667Y-15427571D01*
X17216905Y-15665667D02*
X17207381Y-15656143D01*
X17188333Y-15627571D01*
X17178810Y-15608524D01*
X17169286Y-15579952D01*
X17159762Y-15532333D01*
X17159762Y-15494238D01*
X17169286Y-15446619D01*
X17178810Y-15418048D01*
X17188333Y-15399000D01*
X17207381Y-15370428D01*
X17216905Y-15360905D01*
X17397857Y-15589476D02*
X17283571Y-15589476D01*
X17340714Y-15589476D02*
X17340714Y-15389476D01*
X17321667Y-15418048D01*
X17302619Y-15437095D01*
X17283571Y-15446619D01*
X17635952Y-15589476D02*
X17635952Y-15389476D01*
X17721667Y-15589476D02*
X17721667Y-15484714D01*
X17712143Y-15465667D01*
X17693095Y-15456143D01*
X17664524Y-15456143D01*
X17645476Y-15465667D01*
X17635952Y-15475190D01*
X17845476Y-15589476D02*
X17826429Y-15579952D01*
X17816905Y-15570428D01*
X17807381Y-15551381D01*
X17807381Y-15494238D01*
X17816905Y-15475190D01*
X17826429Y-15465667D01*
X17845476Y-15456143D01*
X17874048Y-15456143D01*
X17893095Y-15465667D01*
X17902619Y-15475190D01*
X17912143Y-15494238D01*
X17912143Y-15551381D01*
X17902619Y-15570428D01*
X17893095Y-15579952D01*
X17874048Y-15589476D01*
X17845476Y-15589476D01*
X18026429Y-15589476D02*
X18007381Y-15579952D01*
X17997857Y-15560905D01*
X17997857Y-15389476D01*
X18178810Y-15579952D02*
X18159762Y-15589476D01*
X18121667Y-15589476D01*
X18102619Y-15579952D01*
X18093095Y-15560905D01*
X18093095Y-15484714D01*
X18102619Y-15465667D01*
X18121667Y-15456143D01*
X18159762Y-15456143D01*
X18178810Y-15465667D01*
X18188333Y-15484714D01*
X18188333Y-15503762D01*
X18093095Y-15522809D01*
X18255000Y-15665667D02*
X18264524Y-15656143D01*
X18283571Y-15627571D01*
X18293095Y-15608524D01*
X18302619Y-15579952D01*
X18312143Y-15532333D01*
X18312143Y-15494238D01*
X18302619Y-15446619D01*
X18293095Y-15418048D01*
X18283571Y-15399000D01*
X18264524Y-15370428D01*
X18255000Y-15360905D01*
X18616905Y-15665667D02*
X18607381Y-15656143D01*
X18588333Y-15627571D01*
X18578810Y-15608524D01*
X18569286Y-15579952D01*
X18559762Y-15532333D01*
X18559762Y-15494238D01*
X18569286Y-15446619D01*
X18578810Y-15418048D01*
X18588333Y-15399000D01*
X18607381Y-15370428D01*
X18616905Y-15360905D01*
X18693095Y-15456143D02*
X18693095Y-15589476D01*
X18693095Y-15475190D02*
X18702619Y-15465667D01*
X18721667Y-15456143D01*
X18750238Y-15456143D01*
X18769286Y-15465667D01*
X18778810Y-15484714D01*
X18778810Y-15589476D01*
X18902619Y-15589476D02*
X18883571Y-15579952D01*
X18874048Y-15570428D01*
X18864524Y-15551381D01*
X18864524Y-15494238D01*
X18874048Y-15475190D01*
X18883571Y-15465667D01*
X18902619Y-15456143D01*
X18931190Y-15456143D01*
X18950238Y-15465667D01*
X18959762Y-15475190D01*
X18969286Y-15494238D01*
X18969286Y-15551381D01*
X18959762Y-15570428D01*
X18950238Y-15579952D01*
X18931190Y-15589476D01*
X18902619Y-15589476D01*
X19026429Y-15456143D02*
X19102619Y-15456143D01*
X19055000Y-15389476D02*
X19055000Y-15560905D01*
X19064524Y-15579952D01*
X19083571Y-15589476D01*
X19102619Y-15589476D01*
X19321667Y-15456143D02*
X19321667Y-15656143D01*
X19321667Y-15465667D02*
X19340714Y-15456143D01*
X19378810Y-15456143D01*
X19397857Y-15465667D01*
X19407381Y-15475190D01*
X19416905Y-15494238D01*
X19416905Y-15551381D01*
X19407381Y-15570428D01*
X19397857Y-15579952D01*
X19378810Y-15589476D01*
X19340714Y-15589476D01*
X19321667Y-15579952D01*
X19531190Y-15589476D02*
X19512143Y-15579952D01*
X19502619Y-15560905D01*
X19502619Y-15389476D01*
X19693095Y-15589476D02*
X19693095Y-15484714D01*
X19683571Y-15465667D01*
X19664524Y-15456143D01*
X19626429Y-15456143D01*
X19607381Y-15465667D01*
X19693095Y-15579952D02*
X19674048Y-15589476D01*
X19626429Y-15589476D01*
X19607381Y-15579952D01*
X19597857Y-15560905D01*
X19597857Y-15541857D01*
X19607381Y-15522809D01*
X19626429Y-15513286D01*
X19674048Y-15513286D01*
X19693095Y-15503762D01*
X19759762Y-15456143D02*
X19835952Y-15456143D01*
X19788333Y-15389476D02*
X19788333Y-15560905D01*
X19797857Y-15579952D01*
X19816905Y-15589476D01*
X19835952Y-15589476D01*
X19978810Y-15579952D02*
X19959762Y-15589476D01*
X19921667Y-15589476D01*
X19902619Y-15579952D01*
X19893095Y-15560905D01*
X19893095Y-15484714D01*
X19902619Y-15465667D01*
X19921667Y-15456143D01*
X19959762Y-15456143D01*
X19978810Y-15465667D01*
X19988333Y-15484714D01*
X19988333Y-15503762D01*
X19893095Y-15522809D01*
X20159762Y-15589476D02*
X20159762Y-15389476D01*
X20159762Y-15579952D02*
X20140714Y-15589476D01*
X20102619Y-15589476D01*
X20083571Y-15579952D01*
X20074048Y-15570428D01*
X20064524Y-15551381D01*
X20064524Y-15494238D01*
X20074048Y-15475190D01*
X20083571Y-15465667D01*
X20102619Y-15456143D01*
X20140714Y-15456143D01*
X20159762Y-15465667D01*
X20235952Y-15665667D02*
X20245476Y-15656143D01*
X20264524Y-15627571D01*
X20274048Y-15608524D01*
X20283571Y-15579952D01*
X20293095Y-15532333D01*
X20293095Y-15494238D01*
X20283571Y-15446619D01*
X20274048Y-15418048D01*
X20264524Y-15399000D01*
X20245476Y-15370428D01*
X20235952Y-15360905D01*
M02*
