G04 #@! TF.GenerationSoftware,KiCad,Pcbnew,(6.0.10-0)*
G04 #@! TF.CreationDate,2024-01-07T11:11:23+09:00*
G04 #@! TF.ProjectId,AutoFeeder_Drum-type,4175746f-4665-4656-9465-725f4472756d,02*
G04 #@! TF.SameCoordinates,Original*
G04 #@! TF.FileFunction,Soldermask,Bot*
G04 #@! TF.FilePolarity,Negative*
%FSLAX46Y46*%
G04 Gerber Fmt 4.6, Leading zero omitted, Abs format (unit mm)*
G04 Created by KiCad (PCBNEW (6.0.10-0)) date 2024-01-07 11:11:23*
%MOMM*%
%LPD*%
G01*
G04 APERTURE LIST*
G04 Aperture macros list*
%AMRoundRect*
0 Rectangle with rounded corners*
0 $1 Rounding radius*
0 $2 $3 $4 $5 $6 $7 $8 $9 X,Y pos of 4 corners*
0 Add a 4 corners polygon primitive as box body*
4,1,4,$2,$3,$4,$5,$6,$7,$8,$9,$2,$3,0*
0 Add four circle primitives for the rounded corners*
1,1,$1+$1,$2,$3*
1,1,$1+$1,$4,$5*
1,1,$1+$1,$6,$7*
1,1,$1+$1,$8,$9*
0 Add four rect primitives between the rounded corners*
20,1,$1+$1,$2,$3,$4,$5,0*
20,1,$1+$1,$4,$5,$6,$7,0*
20,1,$1+$1,$6,$7,$8,$9,0*
20,1,$1+$1,$8,$9,$2,$3,0*%
G04 Aperture macros list end*
%ADD10R,1.700000X1.700000*%
%ADD11O,1.700000X1.700000*%
%ADD12C,1.440000*%
%ADD13C,1.100000*%
%ADD14C,2.200000*%
%ADD15O,1.100000X1.700000*%
%ADD16RoundRect,0.250000X0.750000X-0.600000X0.750000X0.600000X-0.750000X0.600000X-0.750000X-0.600000X0*%
%ADD17O,2.000000X1.700000*%
%ADD18RoundRect,0.250000X0.600000X0.750000X-0.600000X0.750000X-0.600000X-0.750000X0.600000X-0.750000X0*%
%ADD19O,1.700000X2.000000*%
%ADD20C,1.700000*%
%ADD21RoundRect,0.200000X0.200000X0.275000X-0.200000X0.275000X-0.200000X-0.275000X0.200000X-0.275000X0*%
G04 APERTURE END LIST*
D10*
X194500000Y-73000000D03*
D11*
X191960000Y-73000000D03*
X189420000Y-73000000D03*
X186880000Y-73000000D03*
D10*
X154940000Y-71755000D03*
D11*
X154940000Y-74295000D03*
X154940000Y-76835000D03*
X154940000Y-79375000D03*
X154940000Y-81915000D03*
D10*
X151130000Y-74041000D03*
D11*
X151130000Y-71501000D03*
D12*
X178460000Y-97540000D03*
X181000000Y-95000000D03*
X178460000Y-92460000D03*
D10*
X178000000Y-70500000D03*
D11*
X178000000Y-73040000D03*
X178000000Y-75580000D03*
X178000000Y-78120000D03*
D13*
X139150000Y-77500000D03*
X139150000Y-72500000D03*
D10*
X180975000Y-107315000D03*
D11*
X180975000Y-104775000D03*
X180975000Y-102235000D03*
D10*
X194520000Y-84999999D03*
D11*
X191980000Y-84999999D03*
X189440000Y-84999999D03*
X186900000Y-84999999D03*
D10*
X169545000Y-65405000D03*
D11*
X169545000Y-62865000D03*
X172085000Y-65405000D03*
X172085000Y-62865000D03*
D12*
X178500000Y-90040000D03*
X181040000Y-87500000D03*
X178500000Y-84960000D03*
D14*
X154500000Y-112000000D03*
D15*
X139190000Y-66538000D03*
X139190000Y-62738000D03*
X147830000Y-62738000D03*
X147830000Y-66538000D03*
D10*
X173355000Y-108575000D03*
D11*
X173355000Y-106035000D03*
X173355000Y-103495000D03*
X173355000Y-100955000D03*
D12*
X178500000Y-117000000D03*
X181040000Y-114460000D03*
X178500000Y-111920000D03*
D16*
X153780000Y-136525000D03*
D17*
X153780000Y-134025000D03*
D18*
X142250000Y-87025000D03*
D19*
X139750000Y-87025000D03*
D20*
X154300000Y-62500000D03*
X154300000Y-65000000D03*
X154300000Y-67500000D03*
X151000000Y-62500000D03*
X151000000Y-65000000D03*
X151000000Y-67500000D03*
X198000000Y-85435120D03*
X200500000Y-85435120D03*
X203000000Y-85435120D03*
X198000000Y-82135120D03*
X200500000Y-82135120D03*
X203000000Y-82135120D03*
D21*
X194500000Y-93345000D03*
X192850000Y-93345000D03*
M02*
