M48
; DRILL file {KiCad (6.0.10-0)} date 
; FORMAT={-:-/ absolute / metric / decimal}
; #@! TF.CreationDate,2024-01-14T23:05:51+09:00
; #@! TF.GenerationSoftware,Kicad,Pcbnew,(6.0.10-0)
; #@! TF.FileFunction,Plated,1,2,PTH
FMAT,2
METRIC
; #@! TA.AperFunction,Plated,PTH,ViaDrill
T1C0.400
; #@! TA.AperFunction,Plated,PTH,ComponentDrill
T2C0.600
; #@! TA.AperFunction,Plated,PTH,ComponentDrill
T3C0.800
; #@! TA.AperFunction,Plated,PTH,ComponentDrill
T4C1.000
%
G90
G05
T1
X142.0Y-65.0
X144.175Y-75.327
X145.0Y-65.0
X145.161Y-85.092
X145.288Y-86.487
X145.415Y-83.058
X146.419Y-73.521
X147.447Y-77.724
X147.574Y-76.2
X148.971Y-84.201
X148.971Y-85.979
X149.1Y-73.533
X150.304Y-82.105
X151.676Y-110.515
X152.4Y-120.015
X153.035Y-118.745
X156.21Y-96.52
X156.21Y-118.745
X156.591Y-98.425
X156.718Y-110.998
X157.044Y-84.654
X160.02Y-69.596
X165.989Y-67.183
X172.339Y-77.47
X173.247Y-76.727
X173.99Y-75.819
X173.99Y-97.79
X174.424Y-74.496
X175.26Y-87.37
X175.26Y-97.155
X175.424Y-80.01
X175.895Y-112.141
X176.022Y-90.043
X181.685Y-68.505
X192.405Y-94.615
X194.31Y-90.805
T3
X151.0Y-62.5
X151.0Y-65.0
X151.0Y-67.5
X154.3Y-62.5
X154.3Y-65.0
X154.3Y-67.5
X178.46Y-92.46
X178.46Y-97.54
X178.5Y-84.96
X178.5Y-90.04
X178.5Y-113.665
X178.5Y-118.745
X181.0Y-95.0
X181.04Y-87.5
X181.04Y-116.205
X198.0Y-82.135
X198.0Y-85.435
X200.5Y-82.135
X200.5Y-85.435
X203.0Y-82.135
X203.0Y-85.435
T4
X139.7Y-82.55
X139.7Y-85.09
X139.7Y-87.63
X142.24Y-82.55
X142.24Y-85.09
X142.24Y-87.63
X151.257Y-71.755
X151.257Y-74.295
X153.78Y-126.405
X153.78Y-128.905
X154.94Y-71.755
X154.94Y-74.295
X154.94Y-76.835
X154.94Y-79.375
X154.94Y-81.915
X169.545Y-62.865
X169.545Y-65.405
X172.085Y-62.865
X172.085Y-65.405
X173.355Y-101.727
X173.355Y-104.267
X173.355Y-106.807
X173.355Y-109.347
X178.0Y-70.5
X178.0Y-73.04
X178.0Y-75.58
X178.0Y-78.12
X180.975Y-103.007
X180.975Y-105.547
X180.975Y-108.087
X186.88Y-73.0
X186.9Y-85.0
X189.42Y-73.0
X189.44Y-85.0
X191.96Y-73.0
X191.98Y-85.0
X194.5Y-73.0
X194.52Y-85.0
T2
X139.19Y-62.438G85X139.19Y-63.038
G05
X139.19Y-66.238G85X139.19Y-66.838
G05
X147.83Y-62.438G85X147.83Y-63.038
G05
X147.83Y-66.238G85X147.83Y-66.838
G05
T0
M30
