G04 #@! TF.GenerationSoftware,KiCad,Pcbnew,(6.0.10-0)*
G04 #@! TF.CreationDate,2024-01-14T23:05:48+09:00*
G04 #@! TF.ProjectId,AutoFeeder_Drum-type,4175746f-4665-4656-9465-725f4472756d,02*
G04 #@! TF.SameCoordinates,Original*
G04 #@! TF.FileFunction,Profile,NP*
%FSLAX46Y46*%
G04 Gerber Fmt 4.6, Leading zero omitted, Abs format (unit mm)*
G04 Created by KiCad (PCBNEW (6.0.10-0)) date 2024-01-14 23:05:48*
%MOMM*%
%LPD*%
G01*
G04 APERTURE LIST*
G04 #@! TA.AperFunction,Profile*
%ADD10C,0.100000*%
G04 #@! TD*
G04 APERTURE END LIST*
D10*
X183500000Y-93500000D02*
X183000000Y-94000000D01*
X193000000Y-97500000D02*
X196000000Y-94500000D01*
X185500000Y-60500000D02*
X194000000Y-60500000D01*
X185000000Y-61000000D02*
X185500000Y-60500000D01*
X171500000Y-119500000D02*
X172000000Y-120000000D01*
X193000000Y-97500000D02*
X185500000Y-97500002D01*
X184500000Y-81000000D02*
X185000000Y-80500000D01*
X136500000Y-60000000D02*
X183000000Y-60000000D01*
X171500000Y-80500000D02*
X171500000Y-119500000D01*
X159000000Y-80500000D02*
X159000000Y-139500000D01*
X196000000Y-94500000D02*
X196000000Y-88435120D01*
X184500000Y-76500000D02*
X185000000Y-77000000D01*
X183500000Y-64000000D02*
X183000000Y-63500000D01*
X183500000Y-76500000D02*
X184500000Y-76500000D01*
X171000000Y-80000000D02*
X171500000Y-80500000D01*
X184500000Y-64000000D02*
X185000000Y-63500000D01*
X185000000Y-80000000D02*
X205000000Y-80000000D01*
X196000000Y-62500000D02*
X196000000Y-78000000D01*
X183500000Y-76500000D02*
X183000000Y-77000000D01*
X185000000Y-94000000D02*
X185000000Y-97000002D01*
X183500000Y-64000000D02*
X184500000Y-64000000D01*
X137000000Y-90000000D02*
X150000000Y-90000000D01*
X183000000Y-94000000D02*
X183000000Y-119500000D01*
X171000000Y-80000000D02*
X159500000Y-80000000D01*
X150500000Y-139500000D02*
X151000000Y-140000000D01*
X205000000Y-88435120D02*
X196000000Y-88435120D01*
X158500000Y-140000000D02*
X159000000Y-139500000D01*
X183500000Y-93500000D02*
X184500000Y-93500000D01*
X151000000Y-140000000D02*
X158500000Y-140000000D01*
X185000000Y-80500000D02*
X185000000Y-80000000D01*
X185000000Y-97000002D02*
X185500000Y-97500002D01*
X150000000Y-90000000D02*
X150500000Y-90500000D01*
X150500000Y-90500000D02*
X150500000Y-139500000D01*
X159500000Y-80000000D02*
X159000000Y-80500000D01*
X183500000Y-81000000D02*
X183000000Y-80500000D01*
X183000000Y-77000000D02*
X183000000Y-80500000D01*
X196000000Y-78000000D02*
X185000000Y-78000000D01*
X136500000Y-89500000D02*
X137000000Y-90000000D01*
X184500000Y-93500000D02*
X185000000Y-94000000D01*
X183500000Y-81000000D02*
X184500000Y-81000000D01*
X172000000Y-120000000D02*
X182500000Y-120000000D01*
X205000000Y-80000000D02*
X205000000Y-88435120D01*
X136500000Y-60000000D02*
X136500000Y-89500000D01*
X185000000Y-77000000D02*
X185000000Y-78000000D01*
X183000000Y-60000000D02*
X183000000Y-63500000D01*
X182500000Y-120000000D02*
X183000000Y-119500000D01*
X194000000Y-60500000D02*
X196000000Y-62500000D01*
X185000000Y-61000000D02*
X185000000Y-63500000D01*
M02*
