<?xml version="1.0" standalone="no"?>
 <!DOCTYPE svg PUBLIC "-//W3C//DTD SVG 1.1//EN" 
 "http://www.w3.org/Graphics/SVG/1.1/DTD/svg11.dtd"> 
<svg
  xmlns:svg="http://www.w3.org/2000/svg"
  xmlns="http://www.w3.org/2000/svg"
  xmlns:xlink="http://www.w3.org/1999/xlink"
  version="1.1"
  width="9.875520cm" height="13.190220cm" viewBox="0 0 98755200 131902200">
<title>SVG Picture created as AutoFeeder_Drum-type-F_Paste.svg date 2024/01/08 22:08:12 </title>
  <desc>Picture generated by PCBNEW </desc>
<g style="fill:#000000; fill-opacity:1.000000;stroke:#000000; stroke-opacity:1.000000;
stroke-linecap:round; stroke-linejoin:round;"
 transform="translate(0 0) scale(1 1)">
</g>
<g style="fill:#000000; fill-opacity:0.0; 
stroke:#000000; stroke-width:0.000000; stroke-opacity:1; 
stroke-linecap:round; stroke-linejoin:round;">
<g >
</g>
<g >
</g>
<g style="fill:#000000; fill-opacity:0.0; 
stroke:#000000; stroke-width:0.000000; stroke-opacity:1; 
stroke-linecap:round; stroke-linejoin:round;">
</g>
<g style="fill:#000000; fill-opacity:0.0; 
stroke:#000000; stroke-width:1.000000; stroke-opacity:1; 
stroke-linecap:round; stroke-linejoin:round;">
</g>
<g style="fill:#000000; fill-opacity:1.0; 
stroke:#000000; stroke-width:1.000000; stroke-opacity:1; 
stroke-linecap:round; stroke-linejoin:round;">
<path style="fill:#000000; fill-opacity:1.0; 
stroke:#000000; stroke-width:1.000000; stroke-opacity:1; 
stroke-linecap:round; stroke-linejoin:round;fill-rule:evenodd;"
d="M 67269524.000000,34317500.000000
67286651.000000,34231396.000000
67335425.000000,34158401.000000
67408420.000000,34109627.000000
67494524.000000,34092500.000000
67944524.000000,34092500.000000
68030628.000000,34109627.000000
68103623.000000,34158401.000000
68152397.000000,34231396.000000
68169524.000000,34317500.000000
68169524.000000,34817500.000000
68152397.000000,34903604.000000
68103623.000000,34976599.000000
68030628.000000,35025373.000000
67944524.000000,35042500.000000
67494524.000000,35042500.000000
67408420.000000,35025373.000000
67335425.000000,34976599.000000
67286651.000000,34903604.000000
67269524.000000,34817500.000000
Z" /> 
<path style="fill:#000000; fill-opacity:1.0; 
stroke:#000000; stroke-width:1.000000; stroke-opacity:1; 
stroke-linecap:round; stroke-linejoin:round;fill-rule:evenodd;"
d="M 68819524.000000,34317500.000000
68836651.000000,34231396.000000
68885425.000000,34158401.000000
68958420.000000,34109627.000000
69044524.000000,34092500.000000
69494524.000000,34092500.000000
69580628.000000,34109627.000000
69653623.000000,34158401.000000
69702397.000000,34231396.000000
69719524.000000,34317500.000000
69719524.000000,34817500.000000
69702397.000000,34903604.000000
69653623.000000,34976599.000000
69580628.000000,35025373.000000
69494524.000000,35042500.000000
69044524.000000,35042500.000000
68958420.000000,35025373.000000
68885425.000000,34976599.000000
68836651.000000,34903604.000000
68819524.000000,34817500.000000
Z" /> 
</g>
<g >
</g>
<g >
</g>
<g style="fill:#000000; fill-opacity:1.0; 
stroke:#000000; stroke-width:1.000000; stroke-opacity:1; 
stroke-linecap:round; stroke-linejoin:round;">
<path style="fill:#000000; fill-opacity:1.0; 
stroke:#000000; stroke-width:1.000000; stroke-opacity:1; 
stroke-linecap:round; stroke-linejoin:round;fill-rule:evenodd;"
d="M 36994524.000000,58307500.000000
37080628.000000,58324627.000000
37153623.000000,58373401.000000
37202397.000000,58446396.000000
37219524.000000,58532500.000000
37219524.000000,58982500.000000
37202397.000000,59068604.000000
37153623.000000,59141599.000000
37080628.000000,59190373.000000
36994524.000000,59207500.000000
36494524.000000,59207500.000000
36408420.000000,59190373.000000
36335425.000000,59141599.000000
36286651.000000,59068604.000000
36269524.000000,58982500.000000
36269524.000000,58532500.000000
36286651.000000,58446396.000000
36335425.000000,58373401.000000
36408420.000000,58324627.000000
36494524.000000,58307500.000000
Z" /> 
<path style="fill:#000000; fill-opacity:1.0; 
stroke:#000000; stroke-width:1.000000; stroke-opacity:1; 
stroke-linecap:round; stroke-linejoin:round;fill-rule:evenodd;"
d="M 36994524.000000,59857500.000000
37080628.000000,59874627.000000
37153623.000000,59923401.000000
37202397.000000,59996396.000000
37219524.000000,60082500.000000
37219524.000000,60532500.000000
37202397.000000,60618604.000000
37153623.000000,60691599.000000
37080628.000000,60740373.000000
36994524.000000,60757500.000000
36494524.000000,60757500.000000
36408420.000000,60740373.000000
36335425.000000,60691599.000000
36286651.000000,60618604.000000
36269524.000000,60532500.000000
36269524.000000,60082500.000000
36286651.000000,59996396.000000
36335425.000000,59923401.000000
36408420.000000,59874627.000000
36494524.000000,59857500.000000
Z" /> 
</g>
<g >
</g>
<g style="fill:#000000; fill-opacity:1.0; 
stroke:#000000; stroke-width:1.000000; stroke-opacity:1; 
stroke-linecap:round; stroke-linejoin:round;">
<path style="fill:#000000; fill-opacity:1.0; 
stroke:#000000; stroke-width:1.000000; stroke-opacity:1; 
stroke-linecap:round; stroke-linejoin:round;fill-rule:evenodd;"
d="M 31365524.000000,36541500.000000
31348397.000000,36627604.000000
31299623.000000,36700599.000000
31226628.000000,36749373.000000
31140524.000000,36766500.000000
30690524.000000,36766500.000000
30604420.000000,36749373.000000
30531425.000000,36700599.000000
30482651.000000,36627604.000000
30465524.000000,36541500.000000
30465524.000000,36041500.000000
30482651.000000,35955396.000000
30531425.000000,35882401.000000
30604420.000000,35833627.000000
30690524.000000,35816500.000000
31140524.000000,35816500.000000
31226628.000000,35833627.000000
31299623.000000,35882401.000000
31348397.000000,35955396.000000
31365524.000000,36041500.000000
Z" /> 
<path style="fill:#000000; fill-opacity:1.0; 
stroke:#000000; stroke-width:1.000000; stroke-opacity:1; 
stroke-linecap:round; stroke-linejoin:round;fill-rule:evenodd;"
d="M 29815524.000000,36541500.000000
29798397.000000,36627604.000000
29749623.000000,36700599.000000
29676628.000000,36749373.000000
29590524.000000,36766500.000000
29140524.000000,36766500.000000
29054420.000000,36749373.000000
28981425.000000,36700599.000000
28932651.000000,36627604.000000
28915524.000000,36541500.000000
28915524.000000,36041500.000000
28932651.000000,35955396.000000
28981425.000000,35882401.000000
29054420.000000,35833627.000000
29140524.000000,35816500.000000
29590524.000000,35816500.000000
29676628.000000,35833627.000000
29749623.000000,35882401.000000
29798397.000000,35955396.000000
29815524.000000,36041500.000000
Z" /> 
</g>
<g >
</g>
<g style="fill:#000000; fill-opacity:1.0; 
stroke:#000000; stroke-width:1.000000; stroke-opacity:1; 
stroke-linecap:round; stroke-linejoin:round;">
<path style="fill:#000000; fill-opacity:1.0; 
stroke:#000000; stroke-width:1.000000; stroke-opacity:1; 
stroke-linecap:round; stroke-linejoin:round;fill-rule:evenodd;"
d="M 24978524.000000,35762500.000000
24993748.000000,35685963.000000
25037103.000000,35621079.000000
25101987.000000,35577724.000000
25178524.000000,35562500.000000
25578524.000000,35562500.000000
25655061.000000,35577724.000000
25719945.000000,35621079.000000
25763300.000000,35685963.000000
25778524.000000,35762500.000000
25778524.000000,36312500.000000
25763300.000000,36389037.000000
25719945.000000,36453921.000000
25655061.000000,36497276.000000
25578524.000000,36512500.000000
25178524.000000,36512500.000000
25101987.000000,36497276.000000
25037103.000000,36453921.000000
24993748.000000,36389037.000000
24978524.000000,36312500.000000
Z" /> 
<path style="fill:#000000; fill-opacity:1.0; 
stroke:#000000; stroke-width:1.000000; stroke-opacity:1; 
stroke-linecap:round; stroke-linejoin:round;fill-rule:evenodd;"
d="M 26628524.000000,35762500.000000
26643748.000000,35685963.000000
26687103.000000,35621079.000000
26751987.000000,35577724.000000
26828524.000000,35562500.000000
27228524.000000,35562500.000000
27305061.000000,35577724.000000
27369945.000000,35621079.000000
27413300.000000,35685963.000000
27428524.000000,35762500.000000
27428524.000000,36312500.000000
27413300.000000,36389037.000000
27369945.000000,36453921.000000
27305061.000000,36497276.000000
27228524.000000,36512500.000000
26828524.000000,36512500.000000
26751987.000000,36497276.000000
26687103.000000,36453921.000000
26643748.000000,36389037.000000
26628524.000000,36312500.000000
Z" /> 
</g>
<g >
</g>
<g >
</g>
<g >
</g>
<g >
</g>
<g style="fill:#000000; fill-opacity:1.0; 
stroke:#000000; stroke-width:1.000000; stroke-opacity:1; 
stroke-linecap:round; stroke-linejoin:round;">
<path style="fill:#000000; fill-opacity:1.0; 
stroke:#000000; stroke-width:1.000000; stroke-opacity:1; 
stroke-linecap:round; stroke-linejoin:round;fill-rule:evenodd;"
d="M 24334524.000000,34362500.000000
24334524.000000,36262500.000000
22534524.000000,36262500.000000
22534524.000000,34362500.000000
Z" /> 
<path style="fill:#000000; fill-opacity:1.0; 
stroke:#000000; stroke-width:1.000000; stroke-opacity:1; 
stroke-linecap:round; stroke-linejoin:round;fill-rule:evenodd;"
d="M 24334524.000000,29412500.000000
24334524.000000,31312500.000000
22534524.000000,31312500.000000
22534524.000000,29412500.000000
Z" /> 
<path style="fill:#000000; fill-opacity:1.0; 
stroke:#000000; stroke-width:1.000000; stroke-opacity:1; 
stroke-linecap:round; stroke-linejoin:round;fill-rule:evenodd;"
d="M 19434524.000000,26762500.000000
19434524.000000,28562500.000000
17734524.000000,28562500.000000
17734524.000000,26762500.000000
Z" /> 
<path style="fill:#000000; fill-opacity:1.0; 
stroke:#000000; stroke-width:1.000000; stroke-opacity:1; 
stroke-linecap:round; stroke-linejoin:round;fill-rule:evenodd;"
d="M 19434524.000000,37162500.000000
19434524.000000,38962500.000000
17734524.000000,38962500.000000
17734524.000000,37162500.000000
Z" /> 
<path style="fill:#000000; fill-opacity:1.0; 
stroke:#000000; stroke-width:1.000000; stroke-opacity:1; 
stroke-linecap:round; stroke-linejoin:round;fill-rule:evenodd;"
d="M 24334524.000000,31912500.000000
24334524.000000,33812500.000000
22534524.000000,33812500.000000
22534524.000000,31912500.000000
Z" /> 
</g>
<g >
</g>
<g >
</g>
<g >
</g>
<g >
</g>
<g >
</g>
<g style="fill:#000000; fill-opacity:1.0; 
stroke:#000000; stroke-width:1.000000; stroke-opacity:1; 
stroke-linecap:round; stroke-linejoin:round;">
<path style="fill:#000000; fill-opacity:1.0; 
stroke:#000000; stroke-width:1.000000; stroke-opacity:1; 
stroke-linecap:round; stroke-linejoin:round;fill-rule:evenodd;"
d="M 34954524.000000,63742500.000000
35354524.000000,63742500.000000
35354524.000000,64392500.000000
34954524.000000,64392500.000000
Z" /> 
<path style="fill:#000000; fill-opacity:1.0; 
stroke:#000000; stroke-width:1.000000; stroke-opacity:1; 
stroke-linecap:round; stroke-linejoin:round;fill-rule:evenodd;"
d="M 35714524.000000,63742500.000000
36114524.000000,63742500.000000
36114524.000000,64392500.000000
35714524.000000,64392500.000000
Z" /> 
<path style="fill:#000000; fill-opacity:1.0; 
stroke:#000000; stroke-width:1.000000; stroke-opacity:1; 
stroke-linecap:round; stroke-linejoin:round;fill-rule:evenodd;"
d="M 35714524.000000,62742500.000000
36114524.000000,62742500.000000
36114524.000000,63392500.000000
35714524.000000,63392500.000000
Z" /> 
<path style="fill:#000000; fill-opacity:1.0; 
stroke:#000000; stroke-width:1.000000; stroke-opacity:1; 
stroke-linecap:round; stroke-linejoin:round;fill-rule:evenodd;"
d="M 34954524.000000,62742500.000000
35354524.000000,62742500.000000
35354524.000000,63392500.000000
34954524.000000,63392500.000000
Z" /> 
</g>
<g >
</g>
<g >
</g>
<g >
</g>
<g >
</g>
<g >
</g>
<g style="fill:#000000; fill-opacity:1.0; 
stroke:#000000; stroke-width:1.000000; stroke-opacity:1; 
stroke-linecap:round; stroke-linejoin:round;">
<path style="fill:#000000; fill-opacity:1.0; 
stroke:#000000; stroke-width:1.000000; stroke-opacity:1; 
stroke-linecap:round; stroke-linejoin:round;fill-rule:evenodd;"
d="M 36469524.000000,54407500.000000
36392987.000000,54392276.000000
36328103.000000,54348921.000000
36284748.000000,54284037.000000
36269524.000000,54207500.000000
36269524.000000,53807500.000000
36284748.000000,53730963.000000
36328103.000000,53666079.000000
36392987.000000,53622724.000000
36469524.000000,53607500.000000
37019524.000000,53607500.000000
37096061.000000,53622724.000000
37160945.000000,53666079.000000
37204300.000000,53730963.000000
37219524.000000,53807500.000000
37219524.000000,54207500.000000
37204300.000000,54284037.000000
37160945.000000,54348921.000000
37096061.000000,54392276.000000
37019524.000000,54407500.000000
Z" /> 
<path style="fill:#000000; fill-opacity:1.0; 
stroke:#000000; stroke-width:1.000000; stroke-opacity:1; 
stroke-linecap:round; stroke-linejoin:round;fill-rule:evenodd;"
d="M 36469524.000000,52757500.000000
36392987.000000,52742276.000000
36328103.000000,52698921.000000
36284748.000000,52634037.000000
36269524.000000,52557500.000000
36269524.000000,52157500.000000
36284748.000000,52080963.000000
36328103.000000,52016079.000000
36392987.000000,51972724.000000
36469524.000000,51957500.000000
37019524.000000,51957500.000000
37096061.000000,51972724.000000
37160945.000000,52016079.000000
37204300.000000,52080963.000000
37219524.000000,52157500.000000
37219524.000000,52557500.000000
37204300.000000,52634037.000000
37160945.000000,52698921.000000
37096061.000000,52742276.000000
37019524.000000,52757500.000000
Z" /> 
</g>
<g >
</g>
<g style="fill:#000000; fill-opacity:1.0; 
stroke:#000000; stroke-width:1.000000; stroke-opacity:1; 
stroke-linecap:round; stroke-linejoin:round;">
<path style="fill:#000000; fill-opacity:1.0; 
stroke:#000000; stroke-width:1.000000; stroke-opacity:1; 
stroke-linecap:round; stroke-linejoin:round;fill-rule:evenodd;"
d="M 36699524.000000,56632500.000000
36684300.000000,56709037.000000
36640945.000000,56773921.000000
36576061.000000,56817276.000000
36499524.000000,56832500.000000
36099524.000000,56832500.000000
36022987.000000,56817276.000000
35958103.000000,56773921.000000
35914748.000000,56709037.000000
35899524.000000,56632500.000000
35899524.000000,56082500.000000
35914748.000000,56005963.000000
35958103.000000,55941079.000000
36022987.000000,55897724.000000
36099524.000000,55882500.000000
36499524.000000,55882500.000000
36576061.000000,55897724.000000
36640945.000000,55941079.000000
36684300.000000,56005963.000000
36699524.000000,56082500.000000
Z" /> 
<path style="fill:#000000; fill-opacity:1.0; 
stroke:#000000; stroke-width:1.000000; stroke-opacity:1; 
stroke-linecap:round; stroke-linejoin:round;fill-rule:evenodd;"
d="M 35049524.000000,56632500.000000
35034300.000000,56709037.000000
34990945.000000,56773921.000000
34926061.000000,56817276.000000
34849524.000000,56832500.000000
34449524.000000,56832500.000000
34372987.000000,56817276.000000
34308103.000000,56773921.000000
34264748.000000,56709037.000000
34249524.000000,56632500.000000
34249524.000000,56082500.000000
34264748.000000,56005963.000000
34308103.000000,55941079.000000
34372987.000000,55897724.000000
34449524.000000,55882500.000000
34849524.000000,55882500.000000
34926061.000000,55897724.000000
34990945.000000,55941079.000000
35034300.000000,56005963.000000
35049524.000000,56082500.000000
Z" /> 
</g>
<g >
</g>
<g style="fill:#000000; fill-opacity:1.0; 
stroke:#000000; stroke-width:1.000000; stroke-opacity:1; 
stroke-linecap:round; stroke-linejoin:round;">
<path style="fill:#000000; fill-opacity:1.0; 
stroke:#000000; stroke-width:1.000000; stroke-opacity:1; 
stroke-linecap:round; stroke-linejoin:round;fill-rule:evenodd;"
d="M 67839524.000000,55407500.000000
67839524.000000,55007500.000000
68489524.000000,55007500.000000
68489524.000000,55407500.000000
Z" /> 
<path style="fill:#000000; fill-opacity:1.0; 
stroke:#000000; stroke-width:1.000000; stroke-opacity:1; 
stroke-linecap:round; stroke-linejoin:round;fill-rule:evenodd;"
d="M 67839524.000000,54647500.000000
67839524.000000,54247500.000000
68489524.000000,54247500.000000
68489524.000000,54647500.000000
Z" /> 
<path style="fill:#000000; fill-opacity:1.0; 
stroke:#000000; stroke-width:1.000000; stroke-opacity:1; 
stroke-linecap:round; stroke-linejoin:round;fill-rule:evenodd;"
d="M 66839524.000000,54647500.000000
66839524.000000,54247500.000000
67489524.000000,54247500.000000
67489524.000000,54647500.000000
Z" /> 
<path style="fill:#000000; fill-opacity:1.0; 
stroke:#000000; stroke-width:1.000000; stroke-opacity:1; 
stroke-linecap:round; stroke-linejoin:round;fill-rule:evenodd;"
d="M 66839524.000000,55407500.000000
66839524.000000,55007500.000000
67489524.000000,55007500.000000
67489524.000000,55407500.000000
Z" /> 
</g>
<g >
</g>
<g style="fill:#000000; fill-opacity:1.0; 
stroke:#000000; stroke-width:1.000000; stroke-opacity:1; 
stroke-linecap:round; stroke-linejoin:round;">
<path style="fill:#000000; fill-opacity:1.0; 
stroke:#000000; stroke-width:1.000000; stroke-opacity:1; 
stroke-linecap:round; stroke-linejoin:round;fill-rule:evenodd;"
d="M 54122524.000000,76632500.000000
54045987.000000,76617276.000000
53981103.000000,76573921.000000
53937748.000000,76509037.000000
53922524.000000,76432500.000000
53922524.000000,76032500.000000
53937748.000000,75955963.000000
53981103.000000,75891079.000000
54045987.000000,75847724.000000
54122524.000000,75832500.000000
54672524.000000,75832500.000000
54749061.000000,75847724.000000
54813945.000000,75891079.000000
54857300.000000,75955963.000000
54872524.000000,76032500.000000
54872524.000000,76432500.000000
54857300.000000,76509037.000000
54813945.000000,76573921.000000
54749061.000000,76617276.000000
54672524.000000,76632500.000000
Z" /> 
<path style="fill:#000000; fill-opacity:1.0; 
stroke:#000000; stroke-width:1.000000; stroke-opacity:1; 
stroke-linecap:round; stroke-linejoin:round;fill-rule:evenodd;"
d="M 54122524.000000,74982500.000000
54045987.000000,74967276.000000
53981103.000000,74923921.000000
53937748.000000,74859037.000000
53922524.000000,74782500.000000
53922524.000000,74382500.000000
53937748.000000,74305963.000000
53981103.000000,74241079.000000
54045987.000000,74197724.000000
54122524.000000,74182500.000000
54672524.000000,74182500.000000
54749061.000000,74197724.000000
54813945.000000,74241079.000000
54857300.000000,74305963.000000
54872524.000000,74382500.000000
54872524.000000,74782500.000000
54857300.000000,74859037.000000
54813945.000000,74923921.000000
54749061.000000,74967276.000000
54672524.000000,74982500.000000
Z" /> 
</g>
<g >
</g>
<g style="fill:#000000; fill-opacity:1.0; 
stroke:#000000; stroke-width:1.000000; stroke-opacity:1; 
stroke-linecap:round; stroke-linejoin:round;">
<path style="fill:#000000; fill-opacity:1.0; 
stroke:#000000; stroke-width:1.000000; stroke-opacity:1; 
stroke-linecap:round; stroke-linejoin:round;fill-rule:evenodd;"
d="M 56069524.000000,39342500.000000
56146061.000000,39357724.000000
56210945.000000,39401079.000000
56254300.000000,39465963.000000
56269524.000000,39542500.000000
56269524.000000,39942500.000000
56254300.000000,40019037.000000
56210945.000000,40083921.000000
56146061.000000,40127276.000000
56069524.000000,40142500.000000
55519524.000000,40142500.000000
55442987.000000,40127276.000000
55378103.000000,40083921.000000
55334748.000000,40019037.000000
55319524.000000,39942500.000000
55319524.000000,39542500.000000
55334748.000000,39465963.000000
55378103.000000,39401079.000000
55442987.000000,39357724.000000
55519524.000000,39342500.000000
Z" /> 
<path style="fill:#000000; fill-opacity:1.0; 
stroke:#000000; stroke-width:1.000000; stroke-opacity:1; 
stroke-linecap:round; stroke-linejoin:round;fill-rule:evenodd;"
d="M 56069524.000000,40992500.000000
56146061.000000,41007724.000000
56210945.000000,41051079.000000
56254300.000000,41115963.000000
56269524.000000,41192500.000000
56269524.000000,41592500.000000
56254300.000000,41669037.000000
56210945.000000,41733921.000000
56146061.000000,41777276.000000
56069524.000000,41792500.000000
55519524.000000,41792500.000000
55442987.000000,41777276.000000
55378103.000000,41733921.000000
55334748.000000,41669037.000000
55319524.000000,41592500.000000
55319524.000000,41192500.000000
55334748.000000,41115963.000000
55378103.000000,41051079.000000
55442987.000000,41007724.000000
55519524.000000,40992500.000000
Z" /> 
</g>
<g >
</g>
<g style="fill:#000000; fill-opacity:1.0; 
stroke:#000000; stroke-width:1.000000; stroke-opacity:1; 
stroke-linecap:round; stroke-linejoin:round;">
<path style="fill:#000000; fill-opacity:1.0; 
stroke:#000000; stroke-width:1.000000; stroke-opacity:1; 
stroke-linecap:round; stroke-linejoin:round;fill-rule:evenodd;"
d="M 40001524.000000,28438500.000000
39986300.000000,28515037.000000
39942945.000000,28579921.000000
39878061.000000,28623276.000000
39801524.000000,28638500.000000
39401524.000000,28638500.000000
39324987.000000,28623276.000000
39260103.000000,28579921.000000
39216748.000000,28515037.000000
39201524.000000,28438500.000000
39201524.000000,27888500.000000
39216748.000000,27811963.000000
39260103.000000,27747079.000000
39324987.000000,27703724.000000
39401524.000000,27688500.000000
39801524.000000,27688500.000000
39878061.000000,27703724.000000
39942945.000000,27747079.000000
39986300.000000,27811963.000000
40001524.000000,27888500.000000
Z" /> 
<path style="fill:#000000; fill-opacity:1.0; 
stroke:#000000; stroke-width:1.000000; stroke-opacity:1; 
stroke-linecap:round; stroke-linejoin:round;fill-rule:evenodd;"
d="M 38351524.000000,28438500.000000
38336300.000000,28515037.000000
38292945.000000,28579921.000000
38228061.000000,28623276.000000
38151524.000000,28638500.000000
37751524.000000,28638500.000000
37674987.000000,28623276.000000
37610103.000000,28579921.000000
37566748.000000,28515037.000000
37551524.000000,28438500.000000
37551524.000000,27888500.000000
37566748.000000,27811963.000000
37610103.000000,27747079.000000
37674987.000000,27703724.000000
37751524.000000,27688500.000000
38151524.000000,27688500.000000
38228061.000000,27703724.000000
38292945.000000,27747079.000000
38336300.000000,27811963.000000
38351524.000000,27888500.000000
Z" /> 
</g>
<g >
</g>
<g >
</g>
<g >
</g>
<g >
</g>
<g style="fill:#000000; fill-opacity:1.0; 
stroke:#000000; stroke-width:1.000000; stroke-opacity:1; 
stroke-linecap:round; stroke-linejoin:round;">
<path style="fill:#000000; fill-opacity:1.0; 
stroke:#000000; stroke-width:1.000000; stroke-opacity:1; 
stroke-linecap:round; stroke-linejoin:round;fill-rule:evenodd;"
d="M 36894524.000000,81482500.000000
36951927.000000,81493918.000000
37000590.000000,81526434.000000
37033106.000000,81575097.000000
37044524.000000,81632500.000000
37044524.000000,83282500.000000
37033106.000000,83339903.000000
37000590.000000,83388566.000000
36951927.000000,83421082.000000
36894524.000000,83432500.000000
36594524.000000,83432500.000000
36537121.000000,83421082.000000
36488458.000000,83388566.000000
36455942.000000,83339903.000000
36444524.000000,83282500.000000
36444524.000000,81632500.000000
36455942.000000,81575097.000000
36488458.000000,81526434.000000
36537121.000000,81493918.000000
36594524.000000,81482500.000000
Z" /> 
<path style="fill:#000000; fill-opacity:1.0; 
stroke:#000000; stroke-width:1.000000; stroke-opacity:1; 
stroke-linecap:round; stroke-linejoin:round;fill-rule:evenodd;"
d="M 35624524.000000,81482500.000000
35681927.000000,81493918.000000
35730590.000000,81526434.000000
35763106.000000,81575097.000000
35774524.000000,81632500.000000
35774524.000000,83282500.000000
35763106.000000,83339903.000000
35730590.000000,83388566.000000
35681927.000000,83421082.000000
35624524.000000,83432500.000000
35324524.000000,83432500.000000
35267121.000000,83421082.000000
35218458.000000,83388566.000000
35185942.000000,83339903.000000
35174524.000000,83282500.000000
35174524.000000,81632500.000000
35185942.000000,81575097.000000
35218458.000000,81526434.000000
35267121.000000,81493918.000000
35324524.000000,81482500.000000
Z" /> 
<path style="fill:#000000; fill-opacity:1.0; 
stroke:#000000; stroke-width:1.000000; stroke-opacity:1; 
stroke-linecap:round; stroke-linejoin:round;fill-rule:evenodd;"
d="M 34354524.000000,81482500.000000
34411927.000000,81493918.000000
34460590.000000,81526434.000000
34493106.000000,81575097.000000
34504524.000000,81632500.000000
34504524.000000,83282500.000000
34493106.000000,83339903.000000
34460590.000000,83388566.000000
34411927.000000,83421082.000000
34354524.000000,83432500.000000
34054524.000000,83432500.000000
33997121.000000,83421082.000000
33948458.000000,83388566.000000
33915942.000000,83339903.000000
33904524.000000,83282500.000000
33904524.000000,81632500.000000
33915942.000000,81575097.000000
33948458.000000,81526434.000000
33997121.000000,81493918.000000
34054524.000000,81482500.000000
Z" /> 
<path style="fill:#000000; fill-opacity:1.0; 
stroke:#000000; stroke-width:1.000000; stroke-opacity:1; 
stroke-linecap:round; stroke-linejoin:round;fill-rule:evenodd;"
d="M 33084524.000000,81482500.000000
33141927.000000,81493918.000000
33190590.000000,81526434.000000
33223106.000000,81575097.000000
33234524.000000,81632500.000000
33234524.000000,83282500.000000
33223106.000000,83339903.000000
33190590.000000,83388566.000000
33141927.000000,83421082.000000
33084524.000000,83432500.000000
32784524.000000,83432500.000000
32727121.000000,83421082.000000
32678458.000000,83388566.000000
32645942.000000,83339903.000000
32634524.000000,83282500.000000
32634524.000000,81632500.000000
32645942.000000,81575097.000000
32678458.000000,81526434.000000
32727121.000000,81493918.000000
32784524.000000,81482500.000000
Z" /> 
<path style="fill:#000000; fill-opacity:1.0; 
stroke:#000000; stroke-width:1.000000; stroke-opacity:1; 
stroke-linecap:round; stroke-linejoin:round;fill-rule:evenodd;"
d="M 33084524.000000,86432500.000000
33141927.000000,86443918.000000
33190590.000000,86476434.000000
33223106.000000,86525097.000000
33234524.000000,86582500.000000
33234524.000000,88232500.000000
33223106.000000,88289903.000000
33190590.000000,88338566.000000
33141927.000000,88371082.000000
33084524.000000,88382500.000000
32784524.000000,88382500.000000
32727121.000000,88371082.000000
32678458.000000,88338566.000000
32645942.000000,88289903.000000
32634524.000000,88232500.000000
32634524.000000,86582500.000000
32645942.000000,86525097.000000
32678458.000000,86476434.000000
32727121.000000,86443918.000000
32784524.000000,86432500.000000
Z" /> 
<path style="fill:#000000; fill-opacity:1.0; 
stroke:#000000; stroke-width:1.000000; stroke-opacity:1; 
stroke-linecap:round; stroke-linejoin:round;fill-rule:evenodd;"
d="M 34354524.000000,86432500.000000
34411927.000000,86443918.000000
34460590.000000,86476434.000000
34493106.000000,86525097.000000
34504524.000000,86582500.000000
34504524.000000,88232500.000000
34493106.000000,88289903.000000
34460590.000000,88338566.000000
34411927.000000,88371082.000000
34354524.000000,88382500.000000
34054524.000000,88382500.000000
33997121.000000,88371082.000000
33948458.000000,88338566.000000
33915942.000000,88289903.000000
33904524.000000,88232500.000000
33904524.000000,86582500.000000
33915942.000000,86525097.000000
33948458.000000,86476434.000000
33997121.000000,86443918.000000
34054524.000000,86432500.000000
Z" /> 
<path style="fill:#000000; fill-opacity:1.0; 
stroke:#000000; stroke-width:1.000000; stroke-opacity:1; 
stroke-linecap:round; stroke-linejoin:round;fill-rule:evenodd;"
d="M 35624524.000000,86432500.000000
35681927.000000,86443918.000000
35730590.000000,86476434.000000
35763106.000000,86525097.000000
35774524.000000,86582500.000000
35774524.000000,88232500.000000
35763106.000000,88289903.000000
35730590.000000,88338566.000000
35681927.000000,88371082.000000
35624524.000000,88382500.000000
35324524.000000,88382500.000000
35267121.000000,88371082.000000
35218458.000000,88338566.000000
35185942.000000,88289903.000000
35174524.000000,88232500.000000
35174524.000000,86582500.000000
35185942.000000,86525097.000000
35218458.000000,86476434.000000
35267121.000000,86443918.000000
35324524.000000,86432500.000000
Z" /> 
<path style="fill:#000000; fill-opacity:1.0; 
stroke:#000000; stroke-width:1.000000; stroke-opacity:1; 
stroke-linecap:round; stroke-linejoin:round;fill-rule:evenodd;"
d="M 36894524.000000,86432500.000000
36951927.000000,86443918.000000
37000590.000000,86476434.000000
37033106.000000,86525097.000000
37044524.000000,86582500.000000
37044524.000000,88232500.000000
37033106.000000,88289903.000000
37000590.000000,88338566.000000
36951927.000000,88371082.000000
36894524.000000,88382500.000000
36594524.000000,88382500.000000
36537121.000000,88371082.000000
36488458.000000,88338566.000000
36455942.000000,88289903.000000
36444524.000000,88232500.000000
36444524.000000,86582500.000000
36455942.000000,86525097.000000
36488458.000000,86476434.000000
36537121.000000,86443918.000000
36594524.000000,86432500.000000
Z" /> 
</g>
<g >
</g>
<g style="fill:#000000; fill-opacity:1.0; 
stroke:#000000; stroke-width:1.000000; stroke-opacity:1; 
stroke-linecap:round; stroke-linejoin:round;">
<path style="fill:#000000; fill-opacity:1.0; 
stroke:#000000; stroke-width:1.000000; stroke-opacity:1; 
stroke-linecap:round; stroke-linejoin:round;fill-rule:evenodd;"
d="M 67839524.000000,20877500.000000
67839524.000000,20477500.000000
68489524.000000,20477500.000000
68489524.000000,20877500.000000
Z" /> 
<path style="fill:#000000; fill-opacity:1.0; 
stroke:#000000; stroke-width:1.000000; stroke-opacity:1; 
stroke-linecap:round; stroke-linejoin:round;fill-rule:evenodd;"
d="M 67839524.000000,20117500.000000
67839524.000000,19717500.000000
68489524.000000,19717500.000000
68489524.000000,20117500.000000
Z" /> 
<path style="fill:#000000; fill-opacity:1.0; 
stroke:#000000; stroke-width:1.000000; stroke-opacity:1; 
stroke-linecap:round; stroke-linejoin:round;fill-rule:evenodd;"
d="M 66839524.000000,20117500.000000
66839524.000000,19717500.000000
67489524.000000,19717500.000000
67489524.000000,20117500.000000
Z" /> 
<path style="fill:#000000; fill-opacity:1.0; 
stroke:#000000; stroke-width:1.000000; stroke-opacity:1; 
stroke-linecap:round; stroke-linejoin:round;fill-rule:evenodd;"
d="M 66839524.000000,20877500.000000
66839524.000000,20477500.000000
67489524.000000,20477500.000000
67489524.000000,20877500.000000
Z" /> 
</g>
<g >
</g>
<g >
</g>
<g style="fill:#000000; fill-opacity:1.0; 
stroke:#000000; stroke-width:1.000000; stroke-opacity:1; 
stroke-linecap:round; stroke-linejoin:round;">
<path style="fill:#000000; fill-opacity:1.0; 
stroke:#000000; stroke-width:1.000000; stroke-opacity:1; 
stroke-linecap:round; stroke-linejoin:round;fill-rule:evenodd;"
d="M 59244524.000000,39342500.000000
59321061.000000,39357724.000000
59385945.000000,39401079.000000
59429300.000000,39465963.000000
59444524.000000,39542500.000000
59444524.000000,39942500.000000
59429300.000000,40019037.000000
59385945.000000,40083921.000000
59321061.000000,40127276.000000
59244524.000000,40142500.000000
58694524.000000,40142500.000000
58617987.000000,40127276.000000
58553103.000000,40083921.000000
58509748.000000,40019037.000000
58494524.000000,39942500.000000
58494524.000000,39542500.000000
58509748.000000,39465963.000000
58553103.000000,39401079.000000
58617987.000000,39357724.000000
58694524.000000,39342500.000000
Z" /> 
<path style="fill:#000000; fill-opacity:1.0; 
stroke:#000000; stroke-width:1.000000; stroke-opacity:1; 
stroke-linecap:round; stroke-linejoin:round;fill-rule:evenodd;"
d="M 59244524.000000,40992500.000000
59321061.000000,41007724.000000
59385945.000000,41051079.000000
59429300.000000,41115963.000000
59444524.000000,41192500.000000
59444524.000000,41592500.000000
59429300.000000,41669037.000000
59385945.000000,41733921.000000
59321061.000000,41777276.000000
59244524.000000,41792500.000000
58694524.000000,41792500.000000
58617987.000000,41777276.000000
58553103.000000,41733921.000000
58509748.000000,41669037.000000
58494524.000000,41592500.000000
58494524.000000,41192500.000000
58509748.000000,41115963.000000
58553103.000000,41051079.000000
58617987.000000,41007724.000000
58694524.000000,40992500.000000
Z" /> 
</g>
<g >
</g>
<g >
</g>
<g >
</g>
<g >
</g>
<g >
</g>
<g style="fill:#000000; fill-opacity:1.0; 
stroke:#000000; stroke-width:1.000000; stroke-opacity:1; 
stroke-linecap:round; stroke-linejoin:round;">
<path style="fill:#000000; fill-opacity:1.0; 
stroke:#000000; stroke-width:1.000000; stroke-opacity:1; 
stroke-linecap:round; stroke-linejoin:round;fill-rule:evenodd;"
d="M 24194524.000000,25055500.000000
24894524.000000,25055500.000000
24894524.000000,26455500.000000
24194524.000000,26455500.000000
Z" /> 
<path style="fill:#000000; fill-opacity:1.0; 
stroke:#000000; stroke-width:1.000000; stroke-opacity:1; 
stroke-linecap:round; stroke-linejoin:round;fill-rule:evenodd;"
d="M 22144524.000000,25055500.000000
22894524.000000,25055500.000000
22894524.000000,26455500.000000
22144524.000000,26455500.000000
Z" /> 
<path style="fill:#000000; fill-opacity:1.0; 
stroke:#000000; stroke-width:1.000000; stroke-opacity:1; 
stroke-linecap:round; stroke-linejoin:round;fill-rule:evenodd;"
d="M 20894524.000000,25055500.000000
21694524.000000,25055500.000000
21694524.000000,26455500.000000
20894524.000000,26455500.000000
Z" /> 
<path style="fill:#000000; fill-opacity:1.0; 
stroke:#000000; stroke-width:1.000000; stroke-opacity:1; 
stroke-linecap:round; stroke-linejoin:round;fill-rule:evenodd;"
d="M 23194524.000000,25055500.000000
23894524.000000,25055500.000000
23894524.000000,26455500.000000
23194524.000000,26455500.000000
Z" /> 
<path style="fill:#000000; fill-opacity:1.0; 
stroke:#000000; stroke-width:1.000000; stroke-opacity:1; 
stroke-linecap:round; stroke-linejoin:round;fill-rule:evenodd;"
d="M 25184524.000000,25055500.000000
25944524.000000,25055500.000000
25944524.000000,26455500.000000
25184524.000000,26455500.000000
Z" /> 
<path style="fill:#000000; fill-opacity:1.0; 
stroke:#000000; stroke-width:1.000000; stroke-opacity:1; 
stroke-linecap:round; stroke-linejoin:round;fill-rule:evenodd;"
d="M 26394524.000000,25055500.000000
27144524.000000,25055500.000000
27144524.000000,26455500.000000
26394524.000000,26455500.000000
Z" /> 
</g>
<g >
</g>
<g style="fill:#000000; fill-opacity:1.0; 
stroke:#000000; stroke-width:1.000000; stroke-opacity:1; 
stroke-linecap:round; stroke-linejoin:round;">
<path style="fill:#000000; fill-opacity:1.0; 
stroke:#000000; stroke-width:1.000000; stroke-opacity:1; 
stroke-linecap:round; stroke-linejoin:round;fill-rule:evenodd;"
d="M 25740524.000000,33222500.000000
25755748.000000,33145963.000000
25799103.000000,33081079.000000
25863987.000000,33037724.000000
25940524.000000,33022500.000000
26340524.000000,33022500.000000
26417061.000000,33037724.000000
26481945.000000,33081079.000000
26525300.000000,33145963.000000
26540524.000000,33222500.000000
26540524.000000,33772500.000000
26525300.000000,33849037.000000
26481945.000000,33913921.000000
26417061.000000,33957276.000000
26340524.000000,33972500.000000
25940524.000000,33972500.000000
25863987.000000,33957276.000000
25799103.000000,33913921.000000
25755748.000000,33849037.000000
25740524.000000,33772500.000000
Z" /> 
<path style="fill:#000000; fill-opacity:1.0; 
stroke:#000000; stroke-width:1.000000; stroke-opacity:1; 
stroke-linecap:round; stroke-linejoin:round;fill-rule:evenodd;"
d="M 27390524.000000,33222500.000000
27405748.000000,33145963.000000
27449103.000000,33081079.000000
27513987.000000,33037724.000000
27590524.000000,33022500.000000
27990524.000000,33022500.000000
28067061.000000,33037724.000000
28131945.000000,33081079.000000
28175300.000000,33145963.000000
28190524.000000,33222500.000000
28190524.000000,33772500.000000
28175300.000000,33849037.000000
28131945.000000,33913921.000000
28067061.000000,33957276.000000
27990524.000000,33972500.000000
27590524.000000,33972500.000000
27513987.000000,33957276.000000
27449103.000000,33913921.000000
27405748.000000,33849037.000000
27390524.000000,33772500.000000
Z" /> 
</g>
<g >
</g>
<g >
</g>
<g style="fill:#000000; fill-opacity:1.0; 
stroke:#000000; stroke-width:1.000000; stroke-opacity:1; 
stroke-linecap:round; stroke-linejoin:round;">
<path style="fill:#000000; fill-opacity:1.0; 
stroke:#000000; stroke-width:1.000000; stroke-opacity:1; 
stroke-linecap:round; stroke-linejoin:round;fill-rule:evenodd;"
d="M 35675524.000000,79377500.000000
35694554.000000,79281829.000000
35748747.000000,79200723.000000
35829853.000000,79146530.000000
35925524.000000,79127500.000000
36425524.000000,79127500.000000
36521195.000000,79146530.000000
36602301.000000,79200723.000000
36656494.000000,79281829.000000
36675524.000000,79377500.000000
36675524.000000,80327500.000000
36656494.000000,80423171.000000
36602301.000000,80504277.000000
36521195.000000,80558470.000000
36425524.000000,80577500.000000
35925524.000000,80577500.000000
35829853.000000,80558470.000000
35748747.000000,80504277.000000
35694554.000000,80423171.000000
35675524.000000,80327500.000000
Z" /> 
<path style="fill:#000000; fill-opacity:1.0; 
stroke:#000000; stroke-width:1.000000; stroke-opacity:1; 
stroke-linecap:round; stroke-linejoin:round;fill-rule:evenodd;"
d="M 37575524.000000,79377500.000000
37594554.000000,79281829.000000
37648747.000000,79200723.000000
37729853.000000,79146530.000000
37825524.000000,79127500.000000
38325524.000000,79127500.000000
38421195.000000,79146530.000000
38502301.000000,79200723.000000
38556494.000000,79281829.000000
38575524.000000,79377500.000000
38575524.000000,80327500.000000
38556494.000000,80423171.000000
38502301.000000,80504277.000000
38421195.000000,80558470.000000
38325524.000000,80577500.000000
37825524.000000,80577500.000000
37729853.000000,80558470.000000
37648747.000000,80504277.000000
37594554.000000,80423171.000000
37575524.000000,80327500.000000
Z" /> 
</g>
<g >
</g>
<g style="fill:#000000; fill-opacity:1.0; 
stroke:#000000; stroke-width:1.000000; stroke-opacity:1; 
stroke-linecap:round; stroke-linejoin:round;">
<path style="fill:#000000; fill-opacity:1.0; 
stroke:#000000; stroke-width:1.000000; stroke-opacity:1; 
stroke-linecap:round; stroke-linejoin:round;fill-rule:evenodd;"
d="M 72156524.000000,28372500.000000
72079987.000000,28357276.000000
72015103.000000,28313921.000000
71971748.000000,28249037.000000
71956524.000000,28172500.000000
71956524.000000,27772500.000000
71971748.000000,27695963.000000
72015103.000000,27631079.000000
72079987.000000,27587724.000000
72156524.000000,27572500.000000
72706524.000000,27572500.000000
72783061.000000,27587724.000000
72847945.000000,27631079.000000
72891300.000000,27695963.000000
72906524.000000,27772500.000000
72906524.000000,28172500.000000
72891300.000000,28249037.000000
72847945.000000,28313921.000000
72783061.000000,28357276.000000
72706524.000000,28372500.000000
Z" /> 
<path style="fill:#000000; fill-opacity:1.0; 
stroke:#000000; stroke-width:1.000000; stroke-opacity:1; 
stroke-linecap:round; stroke-linejoin:round;fill-rule:evenodd;"
d="M 72156524.000000,26722500.000000
72079987.000000,26707276.000000
72015103.000000,26663921.000000
71971748.000000,26599037.000000
71956524.000000,26522500.000000
71956524.000000,26122500.000000
71971748.000000,26045963.000000
72015103.000000,25981079.000000
72079987.000000,25937724.000000
72156524.000000,25922500.000000
72706524.000000,25922500.000000
72783061.000000,25937724.000000
72847945.000000,25981079.000000
72891300.000000,26045963.000000
72906524.000000,26122500.000000
72906524.000000,26522500.000000
72891300.000000,26599037.000000
72847945.000000,26663921.000000
72783061.000000,26707276.000000
72706524.000000,26722500.000000
Z" /> 
</g>
<g >
</g>
<g >
</g>
<g style="fill:#000000; fill-opacity:1.0; 
stroke:#000000; stroke-width:1.000000; stroke-opacity:1; 
stroke-linecap:round; stroke-linejoin:round;">
<path style="fill:#000000; fill-opacity:1.0; 
stroke:#000000; stroke-width:1.000000; stroke-opacity:1; 
stroke-linecap:round; stroke-linejoin:round;fill-rule:evenodd;"
d="M 26309524.000000,37792500.000000
26320942.000000,37735097.000000
26353458.000000,37686434.000000
26402121.000000,37653918.000000
26459524.000000,37642500.000000
28109524.000000,37642500.000000
28166927.000000,37653918.000000
28215590.000000,37686434.000000
28248106.000000,37735097.000000
28259524.000000,37792500.000000
28259524.000000,38092500.000000
28248106.000000,38149903.000000
28215590.000000,38198566.000000
28166927.000000,38231082.000000
28109524.000000,38242500.000000
26459524.000000,38242500.000000
26402121.000000,38231082.000000
26353458.000000,38198566.000000
26320942.000000,38149903.000000
26309524.000000,38092500.000000
Z" /> 
<path style="fill:#000000; fill-opacity:1.0; 
stroke:#000000; stroke-width:1.000000; stroke-opacity:1; 
stroke-linecap:round; stroke-linejoin:round;fill-rule:evenodd;"
d="M 26309524.000000,39062500.000000
26320942.000000,39005097.000000
26353458.000000,38956434.000000
26402121.000000,38923918.000000
26459524.000000,38912500.000000
28109524.000000,38912500.000000
28166927.000000,38923918.000000
28215590.000000,38956434.000000
28248106.000000,39005097.000000
28259524.000000,39062500.000000
28259524.000000,39362500.000000
28248106.000000,39419903.000000
28215590.000000,39468566.000000
28166927.000000,39501082.000000
28109524.000000,39512500.000000
26459524.000000,39512500.000000
26402121.000000,39501082.000000
26353458.000000,39468566.000000
26320942.000000,39419903.000000
26309524.000000,39362500.000000
Z" /> 
<path style="fill:#000000; fill-opacity:1.0; 
stroke:#000000; stroke-width:1.000000; stroke-opacity:1; 
stroke-linecap:round; stroke-linejoin:round;fill-rule:evenodd;"
d="M 26309524.000000,40332500.000000
26320942.000000,40275097.000000
26353458.000000,40226434.000000
26402121.000000,40193918.000000
26459524.000000,40182500.000000
28109524.000000,40182500.000000
28166927.000000,40193918.000000
28215590.000000,40226434.000000
28248106.000000,40275097.000000
28259524.000000,40332500.000000
28259524.000000,40632500.000000
28248106.000000,40689903.000000
28215590.000000,40738566.000000
28166927.000000,40771082.000000
28109524.000000,40782500.000000
26459524.000000,40782500.000000
26402121.000000,40771082.000000
26353458.000000,40738566.000000
26320942.000000,40689903.000000
26309524.000000,40632500.000000
Z" /> 
<path style="fill:#000000; fill-opacity:1.0; 
stroke:#000000; stroke-width:1.000000; stroke-opacity:1; 
stroke-linecap:round; stroke-linejoin:round;fill-rule:evenodd;"
d="M 26309524.000000,41602500.000000
26320942.000000,41545097.000000
26353458.000000,41496434.000000
26402121.000000,41463918.000000
26459524.000000,41452500.000000
28109524.000000,41452500.000000
28166927.000000,41463918.000000
28215590.000000,41496434.000000
28248106.000000,41545097.000000
28259524.000000,41602500.000000
28259524.000000,41902500.000000
28248106.000000,41959903.000000
28215590.000000,42008566.000000
28166927.000000,42041082.000000
28109524.000000,42052500.000000
26459524.000000,42052500.000000
26402121.000000,42041082.000000
26353458.000000,42008566.000000
26320942.000000,41959903.000000
26309524.000000,41902500.000000
Z" /> 
<path style="fill:#000000; fill-opacity:1.0; 
stroke:#000000; stroke-width:1.000000; stroke-opacity:1; 
stroke-linecap:round; stroke-linejoin:round;fill-rule:evenodd;"
d="M 26309524.000000,42872500.000000
26320942.000000,42815097.000000
26353458.000000,42766434.000000
26402121.000000,42733918.000000
26459524.000000,42722500.000000
28109524.000000,42722500.000000
28166927.000000,42733918.000000
28215590.000000,42766434.000000
28248106.000000,42815097.000000
28259524.000000,42872500.000000
28259524.000000,43172500.000000
28248106.000000,43229903.000000
28215590.000000,43278566.000000
28166927.000000,43311082.000000
28109524.000000,43322500.000000
26459524.000000,43322500.000000
26402121.000000,43311082.000000
26353458.000000,43278566.000000
26320942.000000,43229903.000000
26309524.000000,43172500.000000
Z" /> 
<path style="fill:#000000; fill-opacity:1.0; 
stroke:#000000; stroke-width:1.000000; stroke-opacity:1; 
stroke-linecap:round; stroke-linejoin:round;fill-rule:evenodd;"
d="M 26309524.000000,44142500.000000
26320942.000000,44085097.000000
26353458.000000,44036434.000000
26402121.000000,44003918.000000
26459524.000000,43992500.000000
28109524.000000,43992500.000000
28166927.000000,44003918.000000
28215590.000000,44036434.000000
28248106.000000,44085097.000000
28259524.000000,44142500.000000
28259524.000000,44442500.000000
28248106.000000,44499903.000000
28215590.000000,44548566.000000
28166927.000000,44581082.000000
28109524.000000,44592500.000000
26459524.000000,44592500.000000
26402121.000000,44581082.000000
26353458.000000,44548566.000000
26320942.000000,44499903.000000
26309524.000000,44442500.000000
Z" /> 
<path style="fill:#000000; fill-opacity:1.0; 
stroke:#000000; stroke-width:1.000000; stroke-opacity:1; 
stroke-linecap:round; stroke-linejoin:round;fill-rule:evenodd;"
d="M 26309524.000000,45412500.000000
26320942.000000,45355097.000000
26353458.000000,45306434.000000
26402121.000000,45273918.000000
26459524.000000,45262500.000000
28109524.000000,45262500.000000
28166927.000000,45273918.000000
28215590.000000,45306434.000000
28248106.000000,45355097.000000
28259524.000000,45412500.000000
28259524.000000,45712500.000000
28248106.000000,45769903.000000
28215590.000000,45818566.000000
28166927.000000,45851082.000000
28109524.000000,45862500.000000
26459524.000000,45862500.000000
26402121.000000,45851082.000000
26353458.000000,45818566.000000
26320942.000000,45769903.000000
26309524.000000,45712500.000000
Z" /> 
<path style="fill:#000000; fill-opacity:1.0; 
stroke:#000000; stroke-width:1.000000; stroke-opacity:1; 
stroke-linecap:round; stroke-linejoin:round;fill-rule:evenodd;"
d="M 31259524.000000,45412500.000000
31270942.000000,45355097.000000
31303458.000000,45306434.000000
31352121.000000,45273918.000000
31409524.000000,45262500.000000
33059524.000000,45262500.000000
33116927.000000,45273918.000000
33165590.000000,45306434.000000
33198106.000000,45355097.000000
33209524.000000,45412500.000000
33209524.000000,45712500.000000
33198106.000000,45769903.000000
33165590.000000,45818566.000000
33116927.000000,45851082.000000
33059524.000000,45862500.000000
31409524.000000,45862500.000000
31352121.000000,45851082.000000
31303458.000000,45818566.000000
31270942.000000,45769903.000000
31259524.000000,45712500.000000
Z" /> 
<path style="fill:#000000; fill-opacity:1.0; 
stroke:#000000; stroke-width:1.000000; stroke-opacity:1; 
stroke-linecap:round; stroke-linejoin:round;fill-rule:evenodd;"
d="M 31259524.000000,44142500.000000
31270942.000000,44085097.000000
31303458.000000,44036434.000000
31352121.000000,44003918.000000
31409524.000000,43992500.000000
33059524.000000,43992500.000000
33116927.000000,44003918.000000
33165590.000000,44036434.000000
33198106.000000,44085097.000000
33209524.000000,44142500.000000
33209524.000000,44442500.000000
33198106.000000,44499903.000000
33165590.000000,44548566.000000
33116927.000000,44581082.000000
33059524.000000,44592500.000000
31409524.000000,44592500.000000
31352121.000000,44581082.000000
31303458.000000,44548566.000000
31270942.000000,44499903.000000
31259524.000000,44442500.000000
Z" /> 
<path style="fill:#000000; fill-opacity:1.0; 
stroke:#000000; stroke-width:1.000000; stroke-opacity:1; 
stroke-linecap:round; stroke-linejoin:round;fill-rule:evenodd;"
d="M 31259524.000000,42872500.000000
31270942.000000,42815097.000000
31303458.000000,42766434.000000
31352121.000000,42733918.000000
31409524.000000,42722500.000000
33059524.000000,42722500.000000
33116927.000000,42733918.000000
33165590.000000,42766434.000000
33198106.000000,42815097.000000
33209524.000000,42872500.000000
33209524.000000,43172500.000000
33198106.000000,43229903.000000
33165590.000000,43278566.000000
33116927.000000,43311082.000000
33059524.000000,43322500.000000
31409524.000000,43322500.000000
31352121.000000,43311082.000000
31303458.000000,43278566.000000
31270942.000000,43229903.000000
31259524.000000,43172500.000000
Z" /> 
<path style="fill:#000000; fill-opacity:1.0; 
stroke:#000000; stroke-width:1.000000; stroke-opacity:1; 
stroke-linecap:round; stroke-linejoin:round;fill-rule:evenodd;"
d="M 31259524.000000,41602500.000000
31270942.000000,41545097.000000
31303458.000000,41496434.000000
31352121.000000,41463918.000000
31409524.000000,41452500.000000
33059524.000000,41452500.000000
33116927.000000,41463918.000000
33165590.000000,41496434.000000
33198106.000000,41545097.000000
33209524.000000,41602500.000000
33209524.000000,41902500.000000
33198106.000000,41959903.000000
33165590.000000,42008566.000000
33116927.000000,42041082.000000
33059524.000000,42052500.000000
31409524.000000,42052500.000000
31352121.000000,42041082.000000
31303458.000000,42008566.000000
31270942.000000,41959903.000000
31259524.000000,41902500.000000
Z" /> 
<path style="fill:#000000; fill-opacity:1.0; 
stroke:#000000; stroke-width:1.000000; stroke-opacity:1; 
stroke-linecap:round; stroke-linejoin:round;fill-rule:evenodd;"
d="M 31259524.000000,40332500.000000
31270942.000000,40275097.000000
31303458.000000,40226434.000000
31352121.000000,40193918.000000
31409524.000000,40182500.000000
33059524.000000,40182500.000000
33116927.000000,40193918.000000
33165590.000000,40226434.000000
33198106.000000,40275097.000000
33209524.000000,40332500.000000
33209524.000000,40632500.000000
33198106.000000,40689903.000000
33165590.000000,40738566.000000
33116927.000000,40771082.000000
33059524.000000,40782500.000000
31409524.000000,40782500.000000
31352121.000000,40771082.000000
31303458.000000,40738566.000000
31270942.000000,40689903.000000
31259524.000000,40632500.000000
Z" /> 
<path style="fill:#000000; fill-opacity:1.0; 
stroke:#000000; stroke-width:1.000000; stroke-opacity:1; 
stroke-linecap:round; stroke-linejoin:round;fill-rule:evenodd;"
d="M 31259524.000000,39062500.000000
31270942.000000,39005097.000000
31303458.000000,38956434.000000
31352121.000000,38923918.000000
31409524.000000,38912500.000000
33059524.000000,38912500.000000
33116927.000000,38923918.000000
33165590.000000,38956434.000000
33198106.000000,39005097.000000
33209524.000000,39062500.000000
33209524.000000,39362500.000000
33198106.000000,39419903.000000
33165590.000000,39468566.000000
33116927.000000,39501082.000000
33059524.000000,39512500.000000
31409524.000000,39512500.000000
31352121.000000,39501082.000000
31303458.000000,39468566.000000
31270942.000000,39419903.000000
31259524.000000,39362500.000000
Z" /> 
<path style="fill:#000000; fill-opacity:1.0; 
stroke:#000000; stroke-width:1.000000; stroke-opacity:1; 
stroke-linecap:round; stroke-linejoin:round;fill-rule:evenodd;"
d="M 31259524.000000,37792500.000000
31270942.000000,37735097.000000
31303458.000000,37686434.000000
31352121.000000,37653918.000000
31409524.000000,37642500.000000
33059524.000000,37642500.000000
33116927.000000,37653918.000000
33165590.000000,37686434.000000
33198106.000000,37735097.000000
33209524.000000,37792500.000000
33209524.000000,38092500.000000
33198106.000000,38149903.000000
33165590.000000,38198566.000000
33116927.000000,38231082.000000
33059524.000000,38242500.000000
31409524.000000,38242500.000000
31352121.000000,38231082.000000
31303458.000000,38198566.000000
31270942.000000,38149903.000000
31259524.000000,38092500.000000
Z" /> 
</g>
<g >
</g>
<g style="fill:#000000; fill-opacity:1.0; 
stroke:#000000; stroke-width:1.000000; stroke-opacity:1; 
stroke-linecap:round; stroke-linejoin:round;">
<path style="fill:#000000; fill-opacity:1.0; 
stroke:#000000; stroke-width:1.000000; stroke-opacity:1; 
stroke-linecap:round; stroke-linejoin:round;fill-rule:evenodd;"
d="M 38524774.000000,24342500.000000
38608486.000000,24359151.000000
38679454.000000,24406570.000000
38726873.000000,24477538.000000
38743524.000000,24561250.000000
38743524.000000,24998750.000000
38726873.000000,25082462.000000
38679454.000000,25153430.000000
38608486.000000,25200849.000000
38524774.000000,25217500.000000
38012274.000000,25217500.000000
37928562.000000,25200849.000000
37857594.000000,25153430.000000
37810175.000000,25082462.000000
37793524.000000,24998750.000000
37793524.000000,24561250.000000
37810175.000000,24477538.000000
37857594.000000,24406570.000000
37928562.000000,24359151.000000
38012274.000000,24342500.000000
Z" /> 
<path style="fill:#000000; fill-opacity:1.0; 
stroke:#000000; stroke-width:1.000000; stroke-opacity:1; 
stroke-linecap:round; stroke-linejoin:round;fill-rule:evenodd;"
d="M 38524774.000000,25917500.000000
38608486.000000,25934151.000000
38679454.000000,25981570.000000
38726873.000000,26052538.000000
38743524.000000,26136250.000000
38743524.000000,26573750.000000
38726873.000000,26657462.000000
38679454.000000,26728430.000000
38608486.000000,26775849.000000
38524774.000000,26792500.000000
38012274.000000,26792500.000000
37928562.000000,26775849.000000
37857594.000000,26728430.000000
37810175.000000,26657462.000000
37793524.000000,26573750.000000
37793524.000000,26136250.000000
37810175.000000,26052538.000000
37857594.000000,25981570.000000
37928562.000000,25934151.000000
38012274.000000,25917500.000000
Z" /> 
</g>
<g >
</g>
<g >
</g>
<g >
</g>
<g style="fill:#000000; fill-opacity:1.0; 
stroke:#000000; stroke-width:1.000000; stroke-opacity:1; 
stroke-linecap:round; stroke-linejoin:round;">
<path style="fill:#000000; fill-opacity:1.0; 
stroke:#000000; stroke-width:1.000000; stroke-opacity:1; 
stroke-linecap:round; stroke-linejoin:round;fill-rule:evenodd;"
d="M 38524774.000000,20342500.000000
38608486.000000,20359151.000000
38679454.000000,20406570.000000
38726873.000000,20477538.000000
38743524.000000,20561250.000000
38743524.000000,20998750.000000
38726873.000000,21082462.000000
38679454.000000,21153430.000000
38608486.000000,21200849.000000
38524774.000000,21217500.000000
38012274.000000,21217500.000000
37928562.000000,21200849.000000
37857594.000000,21153430.000000
37810175.000000,21082462.000000
37793524.000000,20998750.000000
37793524.000000,20561250.000000
37810175.000000,20477538.000000
37857594.000000,20406570.000000
37928562.000000,20359151.000000
38012274.000000,20342500.000000
Z" /> 
<path style="fill:#000000; fill-opacity:1.0; 
stroke:#000000; stroke-width:1.000000; stroke-opacity:1; 
stroke-linecap:round; stroke-linejoin:round;fill-rule:evenodd;"
d="M 38524774.000000,21917500.000000
38608486.000000,21934151.000000
38679454.000000,21981570.000000
38726873.000000,22052538.000000
38743524.000000,22136250.000000
38743524.000000,22573750.000000
38726873.000000,22657462.000000
38679454.000000,22728430.000000
38608486.000000,22775849.000000
38524774.000000,22792500.000000
38012274.000000,22792500.000000
37928562.000000,22775849.000000
37857594.000000,22728430.000000
37810175.000000,22657462.000000
37793524.000000,22573750.000000
37793524.000000,22136250.000000
37810175.000000,22052538.000000
37857594.000000,21981570.000000
37928562.000000,21934151.000000
38012274.000000,21917500.000000
Z" /> 
</g>
<g >
</g>
<g style="fill:#000000; fill-opacity:1.0; 
stroke:#000000; stroke-width:1.000000; stroke-opacity:1; 
stroke-linecap:round; stroke-linejoin:round;">
<path style="fill:#000000; fill-opacity:1.0; 
stroke:#000000; stroke-width:1.000000; stroke-opacity:1; 
stroke-linecap:round; stroke-linejoin:round;fill-rule:evenodd;"
d="M 25039524.000000,41199500.000000
24962987.000000,41184276.000000
24898103.000000,41140921.000000
24854748.000000,41076037.000000
24839524.000000,40999500.000000
24839524.000000,40599500.000000
24854748.000000,40522963.000000
24898103.000000,40458079.000000
24962987.000000,40414724.000000
25039524.000000,40399500.000000
25589524.000000,40399500.000000
25666061.000000,40414724.000000
25730945.000000,40458079.000000
25774300.000000,40522963.000000
25789524.000000,40599500.000000
25789524.000000,40999500.000000
25774300.000000,41076037.000000
25730945.000000,41140921.000000
25666061.000000,41184276.000000
25589524.000000,41199500.000000
Z" /> 
<path style="fill:#000000; fill-opacity:1.0; 
stroke:#000000; stroke-width:1.000000; stroke-opacity:1; 
stroke-linecap:round; stroke-linejoin:round;fill-rule:evenodd;"
d="M 25039524.000000,39549500.000000
24962987.000000,39534276.000000
24898103.000000,39490921.000000
24854748.000000,39426037.000000
24839524.000000,39349500.000000
24839524.000000,38949500.000000
24854748.000000,38872963.000000
24898103.000000,38808079.000000
24962987.000000,38764724.000000
25039524.000000,38749500.000000
25589524.000000,38749500.000000
25666061.000000,38764724.000000
25730945.000000,38808079.000000
25774300.000000,38872963.000000
25789524.000000,38949500.000000
25789524.000000,39349500.000000
25774300.000000,39426037.000000
25730945.000000,39490921.000000
25666061.000000,39534276.000000
25589524.000000,39549500.000000
Z" /> 
</g>
<g >
</g>
<g style="fill:#000000; fill-opacity:1.0; 
stroke:#000000; stroke-width:1.000000; stroke-opacity:1; 
stroke-linecap:round; stroke-linejoin:round;">
<path style="fill:#000000; fill-opacity:1.0; 
stroke:#000000; stroke-width:1.000000; stroke-opacity:1; 
stroke-linecap:round; stroke-linejoin:round;fill-rule:evenodd;"
d="M 26629524.000000,30834500.000000
26646651.000000,30748396.000000
26695425.000000,30675401.000000
26768420.000000,30626627.000000
26854524.000000,30609500.000000
27304524.000000,30609500.000000
27390628.000000,30626627.000000
27463623.000000,30675401.000000
27512397.000000,30748396.000000
27529524.000000,30834500.000000
27529524.000000,31334500.000000
27512397.000000,31420604.000000
27463623.000000,31493599.000000
27390628.000000,31542373.000000
27304524.000000,31559500.000000
26854524.000000,31559500.000000
26768420.000000,31542373.000000
26695425.000000,31493599.000000
26646651.000000,31420604.000000
26629524.000000,31334500.000000
Z" /> 
<path style="fill:#000000; fill-opacity:1.0; 
stroke:#000000; stroke-width:1.000000; stroke-opacity:1; 
stroke-linecap:round; stroke-linejoin:round;fill-rule:evenodd;"
d="M 28179524.000000,30834500.000000
28196651.000000,30748396.000000
28245425.000000,30675401.000000
28318420.000000,30626627.000000
28404524.000000,30609500.000000
28854524.000000,30609500.000000
28940628.000000,30626627.000000
29013623.000000,30675401.000000
29062397.000000,30748396.000000
29079524.000000,30834500.000000
29079524.000000,31334500.000000
29062397.000000,31420604.000000
29013623.000000,31493599.000000
28940628.000000,31542373.000000
28854524.000000,31559500.000000
28404524.000000,31559500.000000
28318420.000000,31542373.000000
28245425.000000,31493599.000000
28196651.000000,31420604.000000
28179524.000000,31334500.000000
Z" /> 
</g>
<g >
</g>
<g >
</g>
<g style="fill:#000000; fill-opacity:1.0; 
stroke:#000000; stroke-width:1.000000; stroke-opacity:1; 
stroke-linecap:round; stroke-linejoin:round;">
<path style="fill:#000000; fill-opacity:1.0; 
stroke:#000000; stroke-width:1.000000; stroke-opacity:1; 
stroke-linecap:round; stroke-linejoin:round;fill-rule:evenodd;"
d="M 26629524.000000,29158500.000000
26644748.000000,29081963.000000
26688103.000000,29017079.000000
26752987.000000,28973724.000000
26829524.000000,28958500.000000
27229524.000000,28958500.000000
27306061.000000,28973724.000000
27370945.000000,29017079.000000
27414300.000000,29081963.000000
27429524.000000,29158500.000000
27429524.000000,29708500.000000
27414300.000000,29785037.000000
27370945.000000,29849921.000000
27306061.000000,29893276.000000
27229524.000000,29908500.000000
26829524.000000,29908500.000000
26752987.000000,29893276.000000
26688103.000000,29849921.000000
26644748.000000,29785037.000000
26629524.000000,29708500.000000
Z" /> 
<path style="fill:#000000; fill-opacity:1.0; 
stroke:#000000; stroke-width:1.000000; stroke-opacity:1; 
stroke-linecap:round; stroke-linejoin:round;fill-rule:evenodd;"
d="M 28279524.000000,29158500.000000
28294748.000000,29081963.000000
28338103.000000,29017079.000000
28402987.000000,28973724.000000
28479524.000000,28958500.000000
28879524.000000,28958500.000000
28956061.000000,28973724.000000
29020945.000000,29017079.000000
29064300.000000,29081963.000000
29079524.000000,29158500.000000
29079524.000000,29708500.000000
29064300.000000,29785037.000000
29020945.000000,29849921.000000
28956061.000000,29893276.000000
28879524.000000,29908500.000000
28479524.000000,29908500.000000
28402987.000000,29893276.000000
28338103.000000,29849921.000000
28294748.000000,29785037.000000
28279524.000000,29708500.000000
Z" /> 
</g>
<g >
</g>
<g >
</g>
<g style="fill:#000000; fill-opacity:1.0; 
stroke:#000000; stroke-width:1.000000; stroke-opacity:1; 
stroke-linecap:round; stroke-linejoin:round;">
<path style="fill:#000000; fill-opacity:1.0; 
stroke:#000000; stroke-width:1.000000; stroke-opacity:1; 
stroke-linecap:round; stroke-linejoin:round;fill-rule:evenodd;"
d="M 26629524.000000,27507500.000000
26644748.000000,27430963.000000
26688103.000000,27366079.000000
26752987.000000,27322724.000000
26829524.000000,27307500.000000
27229524.000000,27307500.000000
27306061.000000,27322724.000000
27370945.000000,27366079.000000
27414300.000000,27430963.000000
27429524.000000,27507500.000000
27429524.000000,28057500.000000
27414300.000000,28134037.000000
27370945.000000,28198921.000000
27306061.000000,28242276.000000
27229524.000000,28257500.000000
26829524.000000,28257500.000000
26752987.000000,28242276.000000
26688103.000000,28198921.000000
26644748.000000,28134037.000000
26629524.000000,28057500.000000
Z" /> 
<path style="fill:#000000; fill-opacity:1.0; 
stroke:#000000; stroke-width:1.000000; stroke-opacity:1; 
stroke-linecap:round; stroke-linejoin:round;fill-rule:evenodd;"
d="M 28279524.000000,27507500.000000
28294748.000000,27430963.000000
28338103.000000,27366079.000000
28402987.000000,27322724.000000
28479524.000000,27307500.000000
28879524.000000,27307500.000000
28956061.000000,27322724.000000
29020945.000000,27366079.000000
29064300.000000,27430963.000000
29079524.000000,27507500.000000
29079524.000000,28057500.000000
29064300.000000,28134037.000000
29020945.000000,28198921.000000
28956061.000000,28242276.000000
28879524.000000,28257500.000000
28479524.000000,28257500.000000
28402987.000000,28242276.000000
28338103.000000,28198921.000000
28294748.000000,28134037.000000
28279524.000000,28057500.000000
Z" /> 
</g>
<g >
</g>
<g >
</g>
<g >
</g>
<g >
</g>
<g >
</g>
<g >
</g>
<g >
</g>
<g >
</g>
<g >
</g>
</g> 
</svg>
