G04 #@! TF.GenerationSoftware,KiCad,Pcbnew,(6.0.10-0)*
G04 #@! TF.CreationDate,2024-01-14T23:05:48+09:00*
G04 #@! TF.ProjectId,AutoFeeder_Drum-type,4175746f-4665-4656-9465-725f4472756d,02*
G04 #@! TF.SameCoordinates,Original*
G04 #@! TF.FileFunction,Legend,Top*
G04 #@! TF.FilePolarity,Positive*
%FSLAX46Y46*%
G04 Gerber Fmt 4.6, Leading zero omitted, Abs format (unit mm)*
G04 Created by KiCad (PCBNEW (6.0.10-0)) date 2024-01-14 23:05:48*
%MOMM*%
%LPD*%
G01*
G04 APERTURE LIST*
G04 Aperture macros list*
%AMRoundRect*
0 Rectangle with rounded corners*
0 $1 Rounding radius*
0 $2 $3 $4 $5 $6 $7 $8 $9 X,Y pos of 4 corners*
0 Add a 4 corners polygon primitive as box body*
4,1,4,$2,$3,$4,$5,$6,$7,$8,$9,$2,$3,0*
0 Add four circle primitives for the rounded corners*
1,1,$1+$1,$2,$3*
1,1,$1+$1,$4,$5*
1,1,$1+$1,$6,$7*
1,1,$1+$1,$8,$9*
0 Add four rect primitives between the rounded corners*
20,1,$1+$1,$2,$3,$4,$5,0*
20,1,$1+$1,$4,$5,$6,$7,0*
20,1,$1+$1,$6,$7,$8,$9,0*
20,1,$1+$1,$8,$9,$2,$3,0*%
%AMFreePoly0*
4,1,22,0.550000,-0.750000,0.000000,-0.750000,0.000000,-0.745033,-0.079941,-0.743568,-0.215256,-0.701293,-0.333266,-0.622738,-0.424486,-0.514219,-0.481581,-0.384460,-0.499164,-0.250000,-0.500000,-0.250000,-0.500000,0.250000,-0.499164,0.250000,-0.499963,0.256109,-0.478152,0.396186,-0.417904,0.524511,-0.324060,0.630769,-0.204165,0.706417,-0.067858,0.745374,0.000000,0.744959,0.000000,0.750000,
0.550000,0.750000,0.550000,-0.750000,0.550000,-0.750000,$1*%
%AMFreePoly1*
4,1,20,0.000000,0.744959,0.073905,0.744508,0.209726,0.703889,0.328688,0.626782,0.421226,0.519385,0.479903,0.390333,0.500000,0.250000,0.500000,-0.250000,0.499851,-0.262216,0.476331,-0.402017,0.414519,-0.529596,0.319384,-0.634700,0.198574,-0.708877,0.061801,-0.746166,0.000000,-0.745033,0.000000,-0.750000,-0.550000,-0.750000,-0.550000,0.750000,0.000000,0.750000,0.000000,0.744959,
0.000000,0.744959,$1*%
G04 Aperture macros list end*
%ADD10C,0.150000*%
%ADD11C,0.250000*%
%ADD12C,0.120000*%
%ADD13C,0.100000*%
%ADD14C,0.200000*%
%ADD15RoundRect,0.225000X-0.225000X-0.250000X0.225000X-0.250000X0.225000X0.250000X-0.225000X0.250000X0*%
%ADD16R,1.700000X1.700000*%
%ADD17O,1.700000X1.700000*%
%ADD18RoundRect,0.225000X-0.250000X0.225000X-0.250000X-0.225000X0.250000X-0.225000X0.250000X0.225000X0*%
%ADD19RoundRect,0.225000X0.225000X0.250000X-0.225000X0.250000X-0.225000X-0.250000X0.225000X-0.250000X0*%
%ADD20RoundRect,0.200000X-0.200000X-0.275000X0.200000X-0.275000X0.200000X0.275000X-0.200000X0.275000X0*%
%ADD21C,1.440000*%
%ADD22FreePoly0,180.000000*%
%ADD23R,1.000000X1.500000*%
%ADD24FreePoly1,180.000000*%
%ADD25C,1.100000*%
%ADD26R,1.800000X1.900000*%
%ADD27R,1.700000X1.800000*%
%ADD28R,0.500000X0.500000*%
%ADD29C,2.000000*%
%ADD30R,0.400000X0.650000*%
%ADD31RoundRect,0.200000X0.275000X-0.200000X0.275000X0.200000X-0.275000X0.200000X-0.275000X-0.200000X0*%
%ADD32RoundRect,0.200000X0.200000X0.275000X-0.200000X0.275000X-0.200000X-0.275000X0.200000X-0.275000X0*%
%ADD33R,0.650000X0.400000*%
%ADD34RoundRect,0.200000X-0.275000X0.200000X-0.275000X-0.200000X0.275000X-0.200000X0.275000X0.200000X0*%
%ADD35RoundRect,0.150000X-0.150000X0.825000X-0.150000X-0.825000X0.150000X-0.825000X0.150000X0.825000X0*%
%ADD36C,3.200000*%
%ADD37R,0.700000X1.900000*%
%ADD38R,0.750000X1.900000*%
%ADD39R,0.800000X1.900000*%
%ADD40R,0.760000X1.900000*%
%ADD41O,1.100000X1.700000*%
%ADD42RoundRect,0.250000X-0.250000X-0.475000X0.250000X-0.475000X0.250000X0.475000X-0.250000X0.475000X0*%
%ADD43RoundRect,0.150000X-0.825000X-0.150000X0.825000X-0.150000X0.825000X0.150000X-0.825000X0.150000X0*%
%ADD44RoundRect,0.218750X-0.256250X0.218750X-0.256250X-0.218750X0.256250X-0.218750X0.256250X0.218750X0*%
%ADD45RoundRect,0.250000X0.750000X-0.600000X0.750000X0.600000X-0.750000X0.600000X-0.750000X-0.600000X0*%
%ADD46O,2.000000X1.700000*%
%ADD47C,1.700000*%
G04 APERTURE END LIST*
D10*
X155700000Y-65250000D02*
X156200000Y-65750000D01*
X158500000Y-105000000D02*
X157000000Y-105000000D01*
X155700000Y-64750000D02*
X156200000Y-64250000D01*
X167500000Y-68000000D02*
X167500000Y-79500000D01*
X190000000Y-62500000D02*
X195500000Y-62500000D01*
X150800000Y-68600000D02*
X150800000Y-69500000D01*
X182500000Y-105000000D02*
X182000000Y-105000000D01*
X156200000Y-65750000D02*
X156200000Y-64250000D01*
X151000000Y-105000000D02*
X152500000Y-105000000D01*
X154500000Y-69500000D02*
X154500000Y-68600000D01*
X156700000Y-65250000D02*
X156200000Y-65750000D01*
X172085000Y-104521000D02*
X172085000Y-100457000D01*
X150800000Y-60500000D02*
X150800000Y-61400000D01*
X150800000Y-69500000D02*
X154500000Y-69500000D01*
X156700000Y-64750000D02*
X156200000Y-64250000D01*
X154500000Y-60500000D02*
X150800000Y-60500000D01*
X182372000Y-105537000D02*
X182372000Y-110998000D01*
X172500000Y-105000000D02*
X172000000Y-105000000D01*
X172085000Y-100457000D02*
X182372000Y-100457000D01*
X182372000Y-100457000D02*
X182372000Y-104521000D01*
X159500000Y-73500000D02*
X159500000Y-79500000D01*
X159500000Y-60500000D02*
X159500000Y-68500000D01*
X144399000Y-89662000D02*
X143764000Y-89154000D01*
X185300000Y-62500000D02*
X185800000Y-62500000D01*
X172085000Y-110998000D02*
X172085000Y-105500000D01*
X182372000Y-110998000D02*
X172085000Y-110998000D01*
X154500000Y-61400000D02*
X154500000Y-60500000D01*
X146050000Y-89662000D02*
X144399000Y-89662000D01*
X156652380Y-70111714D02*
X156652380Y-70587904D01*
X155652380Y-70587904D01*
X156652380Y-69349809D02*
X156128571Y-69349809D01*
X156033333Y-69397428D01*
X155985714Y-69492666D01*
X155985714Y-69683142D01*
X156033333Y-69778380D01*
X156604761Y-69349809D02*
X156652380Y-69445047D01*
X156652380Y-69683142D01*
X156604761Y-69778380D01*
X156509523Y-69826000D01*
X156414285Y-69826000D01*
X156319047Y-69778380D01*
X156271428Y-69683142D01*
X156271428Y-69445047D01*
X156223809Y-69349809D01*
X156652380Y-68445047D02*
X155652380Y-68445047D01*
X156604761Y-68445047D02*
X156652380Y-68540285D01*
X156652380Y-68730761D01*
X156604761Y-68826000D01*
X156557142Y-68873619D01*
X156461904Y-68921238D01*
X156176190Y-68921238D01*
X156080952Y-68873619D01*
X156033333Y-68826000D01*
X155985714Y-68730761D01*
X155985714Y-68540285D01*
X156033333Y-68445047D01*
X156652380Y-67540285D02*
X155652380Y-67540285D01*
X156604761Y-67540285D02*
X156652380Y-67635523D01*
X156652380Y-67826000D01*
X156604761Y-67921238D01*
X156557142Y-67968857D01*
X156461904Y-68016476D01*
X156176190Y-68016476D01*
X156080952Y-67968857D01*
X156033333Y-67921238D01*
X155985714Y-67826000D01*
X155985714Y-67635523D01*
X156033333Y-67540285D01*
X156604761Y-66683142D02*
X156652380Y-66778380D01*
X156652380Y-66968857D01*
X156604761Y-67064095D01*
X156509523Y-67111714D01*
X156128571Y-67111714D01*
X156033333Y-67064095D01*
X155985714Y-66968857D01*
X155985714Y-66778380D01*
X156033333Y-66683142D01*
X156128571Y-66635523D01*
X156223809Y-66635523D01*
X156319047Y-67111714D01*
X156652380Y-66206952D02*
X155985714Y-66206952D01*
X156176190Y-66206952D02*
X156080952Y-66159333D01*
X156033333Y-66111714D01*
X155985714Y-66016476D01*
X155985714Y-65921238D01*
X166965380Y-67246333D02*
X167965380Y-66913000D01*
X166965380Y-66579666D01*
X167965380Y-66246333D02*
X166965380Y-66246333D01*
X166965380Y-66008238D01*
X167013000Y-65865380D01*
X167108238Y-65770142D01*
X167203476Y-65722523D01*
X167393952Y-65674904D01*
X167536809Y-65674904D01*
X167727285Y-65722523D01*
X167822523Y-65770142D01*
X167917761Y-65865380D01*
X167965380Y-66008238D01*
X167965380Y-66246333D01*
X167965380Y-65246333D02*
X166965380Y-65246333D01*
X166965380Y-65008238D01*
X167013000Y-64865380D01*
X167108238Y-64770142D01*
X167203476Y-64722523D01*
X167393952Y-64674904D01*
X167536809Y-64674904D01*
X167727285Y-64722523D01*
X167822523Y-64770142D01*
X167917761Y-64865380D01*
X167965380Y-65008238D01*
X167965380Y-65246333D01*
X144629142Y-85351904D02*
X144676761Y-85399523D01*
X144724380Y-85542380D01*
X144724380Y-85637619D01*
X144676761Y-85780476D01*
X144581523Y-85875714D01*
X144486285Y-85923333D01*
X144295809Y-85970952D01*
X144152952Y-85970952D01*
X143962476Y-85923333D01*
X143867238Y-85875714D01*
X143772000Y-85780476D01*
X143724380Y-85637619D01*
X143724380Y-85542380D01*
X143772000Y-85399523D01*
X143819619Y-85351904D01*
X143724380Y-85018571D02*
X144724380Y-84780476D01*
X144010095Y-84590000D01*
X144724380Y-84399523D01*
X143724380Y-84161428D01*
D11*
X189023761Y-96647000D02*
X189499952Y-96647000D01*
X189309476Y-97123190D02*
X189499952Y-96647000D01*
X189309476Y-96170809D01*
X189880904Y-96932714D02*
X189499952Y-96647000D01*
X189880904Y-96361285D01*
D10*
X174545952Y-99861666D02*
X175022142Y-99861666D01*
X174450714Y-100147380D02*
X174784047Y-99147380D01*
X175117380Y-100147380D01*
X175403095Y-100099761D02*
X175545952Y-100147380D01*
X175784047Y-100147380D01*
X175879285Y-100099761D01*
X175926904Y-100052142D01*
X175974523Y-99956904D01*
X175974523Y-99861666D01*
X175926904Y-99766428D01*
X175879285Y-99718809D01*
X175784047Y-99671190D01*
X175593571Y-99623571D01*
X175498333Y-99575952D01*
X175450714Y-99528333D01*
X175403095Y-99433095D01*
X175403095Y-99337857D01*
X175450714Y-99242619D01*
X175498333Y-99195000D01*
X175593571Y-99147380D01*
X175831666Y-99147380D01*
X175974523Y-99195000D01*
X176879285Y-99147380D02*
X176403095Y-99147380D01*
X176355476Y-99623571D01*
X176403095Y-99575952D01*
X176498333Y-99528333D01*
X176736428Y-99528333D01*
X176831666Y-99575952D01*
X176879285Y-99623571D01*
X176926904Y-99718809D01*
X176926904Y-99956904D01*
X176879285Y-100052142D01*
X176831666Y-100099761D01*
X176736428Y-100147380D01*
X176498333Y-100147380D01*
X176403095Y-100099761D01*
X176355476Y-100052142D01*
X177784047Y-99147380D02*
X177593571Y-99147380D01*
X177498333Y-99195000D01*
X177450714Y-99242619D01*
X177355476Y-99385476D01*
X177307857Y-99575952D01*
X177307857Y-99956904D01*
X177355476Y-100052142D01*
X177403095Y-100099761D01*
X177498333Y-100147380D01*
X177688809Y-100147380D01*
X177784047Y-100099761D01*
X177831666Y-100052142D01*
X177879285Y-99956904D01*
X177879285Y-99718809D01*
X177831666Y-99623571D01*
X177784047Y-99575952D01*
X177688809Y-99528333D01*
X177498333Y-99528333D01*
X177403095Y-99575952D01*
X177355476Y-99623571D01*
X177307857Y-99718809D01*
X178498333Y-99147380D02*
X178593571Y-99147380D01*
X178688809Y-99195000D01*
X178736428Y-99242619D01*
X178784047Y-99337857D01*
X178831666Y-99528333D01*
X178831666Y-99766428D01*
X178784047Y-99956904D01*
X178736428Y-100052142D01*
X178688809Y-100099761D01*
X178593571Y-100147380D01*
X178498333Y-100147380D01*
X178403095Y-100099761D01*
X178355476Y-100052142D01*
X178307857Y-99956904D01*
X178260238Y-99766428D01*
X178260238Y-99528333D01*
X178307857Y-99337857D01*
X178355476Y-99242619D01*
X178403095Y-99195000D01*
X178498333Y-99147380D01*
X179450714Y-99147380D02*
X179545952Y-99147380D01*
X179641190Y-99195000D01*
X179688809Y-99242619D01*
X179736428Y-99337857D01*
X179784047Y-99528333D01*
X179784047Y-99766428D01*
X179736428Y-99956904D01*
X179688809Y-100052142D01*
X179641190Y-100099761D01*
X179545952Y-100147380D01*
X179450714Y-100147380D01*
X179355476Y-100099761D01*
X179307857Y-100052142D01*
X179260238Y-99956904D01*
X179212619Y-99766428D01*
X179212619Y-99528333D01*
X179260238Y-99337857D01*
X179307857Y-99242619D01*
X179355476Y-99195000D01*
X179450714Y-99147380D01*
X143724380Y-88788761D02*
X144724380Y-88455428D01*
X143724380Y-88122095D01*
X144724380Y-87788761D02*
X143724380Y-87788761D01*
X144438666Y-87455428D01*
X143724380Y-87122095D01*
X144724380Y-87122095D01*
X174658976Y-107221761D02*
X174801833Y-107269380D01*
X175039928Y-107269380D01*
X175135166Y-107221761D01*
X175182785Y-107174142D01*
X175230404Y-107078904D01*
X175230404Y-106983666D01*
X175182785Y-106888428D01*
X175135166Y-106840809D01*
X175039928Y-106793190D01*
X174849452Y-106745571D01*
X174754214Y-106697952D01*
X174706595Y-106650333D01*
X174658976Y-106555095D01*
X174658976Y-106459857D01*
X174706595Y-106364619D01*
X174754214Y-106317000D01*
X174849452Y-106269380D01*
X175087547Y-106269380D01*
X175230404Y-106317000D01*
X176230404Y-107174142D02*
X176182785Y-107221761D01*
X176039928Y-107269380D01*
X175944690Y-107269380D01*
X175801833Y-107221761D01*
X175706595Y-107126523D01*
X175658976Y-107031285D01*
X175611357Y-106840809D01*
X175611357Y-106697952D01*
X175658976Y-106507476D01*
X175706595Y-106412238D01*
X175801833Y-106317000D01*
X175944690Y-106269380D01*
X176039928Y-106269380D01*
X176182785Y-106317000D01*
X176230404Y-106364619D01*
X177135166Y-107269380D02*
X176658976Y-107269380D01*
X176658976Y-106269380D01*
X174706595Y-109799380D02*
X174706595Y-108799380D01*
X174944690Y-108799380D01*
X175087547Y-108847000D01*
X175182785Y-108942238D01*
X175230404Y-109037476D01*
X175278023Y-109227952D01*
X175278023Y-109370809D01*
X175230404Y-109561285D01*
X175182785Y-109656523D01*
X175087547Y-109751761D01*
X174944690Y-109799380D01*
X174706595Y-109799380D01*
X175706595Y-109799380D02*
X175706595Y-108799380D01*
X176754214Y-109799380D02*
X176420880Y-109323190D01*
X176182785Y-109799380D02*
X176182785Y-108799380D01*
X176563738Y-108799380D01*
X176658976Y-108847000D01*
X176706595Y-108894619D01*
X176754214Y-108989857D01*
X176754214Y-109132714D01*
X176706595Y-109227952D01*
X176658976Y-109275571D01*
X176563738Y-109323190D01*
X176182785Y-109323190D01*
X137120380Y-82232476D02*
X137120380Y-82708666D01*
X137596571Y-82756285D01*
X137548952Y-82708666D01*
X137501333Y-82613428D01*
X137501333Y-82375333D01*
X137548952Y-82280095D01*
X137596571Y-82232476D01*
X137691809Y-82184857D01*
X137929904Y-82184857D01*
X138025142Y-82232476D01*
X138072761Y-82280095D01*
X138120380Y-82375333D01*
X138120380Y-82613428D01*
X138072761Y-82708666D01*
X138025142Y-82756285D01*
X137120380Y-81899142D02*
X138120380Y-81565809D01*
X137120380Y-81232476D01*
X138025142Y-85851904D02*
X138072761Y-85899523D01*
X138120380Y-86042380D01*
X138120380Y-86137619D01*
X138072761Y-86280476D01*
X137977523Y-86375714D01*
X137882285Y-86423333D01*
X137691809Y-86470952D01*
X137548952Y-86470952D01*
X137358476Y-86423333D01*
X137263238Y-86375714D01*
X137168000Y-86280476D01*
X137120380Y-86137619D01*
X137120380Y-86042380D01*
X137168000Y-85899523D01*
X137215619Y-85851904D01*
X138025142Y-84851904D02*
X138072761Y-84899523D01*
X138120380Y-85042380D01*
X138120380Y-85137619D01*
X138072761Y-85280476D01*
X137977523Y-85375714D01*
X137882285Y-85423333D01*
X137691809Y-85470952D01*
X137548952Y-85470952D01*
X137358476Y-85423333D01*
X137263238Y-85375714D01*
X137168000Y-85280476D01*
X137120380Y-85137619D01*
X137120380Y-85042380D01*
X137168000Y-84899523D01*
X137215619Y-84851904D01*
X137120380Y-84518571D02*
X138120380Y-84280476D01*
X137406095Y-84090000D01*
X138120380Y-83899523D01*
X137120380Y-83661428D01*
X174648761Y-63547476D02*
X174696380Y-63404619D01*
X174696380Y-63166523D01*
X174648761Y-63071285D01*
X174601142Y-63023666D01*
X174505904Y-62976047D01*
X174410666Y-62976047D01*
X174315428Y-63023666D01*
X174267809Y-63071285D01*
X174220190Y-63166523D01*
X174172571Y-63357000D01*
X174124952Y-63452238D01*
X174077333Y-63499857D01*
X173982095Y-63547476D01*
X173886857Y-63547476D01*
X173791619Y-63499857D01*
X173744000Y-63452238D01*
X173696380Y-63357000D01*
X173696380Y-63118904D01*
X173744000Y-62976047D01*
X174601142Y-61976047D02*
X174648761Y-62023666D01*
X174696380Y-62166523D01*
X174696380Y-62261761D01*
X174648761Y-62404619D01*
X174553523Y-62499857D01*
X174458285Y-62547476D01*
X174267809Y-62595095D01*
X174124952Y-62595095D01*
X173934476Y-62547476D01*
X173839238Y-62499857D01*
X173744000Y-62404619D01*
X173696380Y-62261761D01*
X173696380Y-62166523D01*
X173744000Y-62023666D01*
X173791619Y-61976047D01*
X174696380Y-61071285D02*
X174696380Y-61547476D01*
X173696380Y-61547476D01*
X178051976Y-106014380D02*
X178051976Y-105014380D01*
X178623404Y-106014380D01*
X178623404Y-105014380D01*
X179671023Y-105919142D02*
X179623404Y-105966761D01*
X179480547Y-106014380D01*
X179385309Y-106014380D01*
X179242452Y-105966761D01*
X179147214Y-105871523D01*
X179099595Y-105776285D01*
X179051976Y-105585809D01*
X179051976Y-105442952D01*
X179099595Y-105252476D01*
X179147214Y-105157238D01*
X179242452Y-105062000D01*
X179385309Y-105014380D01*
X179480547Y-105014380D01*
X179623404Y-105062000D01*
X179671023Y-105109619D01*
X156291595Y-79827380D02*
X156291595Y-78827380D01*
X156529690Y-78827380D01*
X156672547Y-78875000D01*
X156767785Y-78970238D01*
X156815404Y-79065476D01*
X156863023Y-79255952D01*
X156863023Y-79398809D01*
X156815404Y-79589285D01*
X156767785Y-79684523D01*
X156672547Y-79779761D01*
X156529690Y-79827380D01*
X156291595Y-79827380D01*
X157243976Y-79541666D02*
X157720166Y-79541666D01*
X157148738Y-79827380D02*
X157482071Y-78827380D01*
X157815404Y-79827380D01*
X158005880Y-78827380D02*
X158577309Y-78827380D01*
X158291595Y-79827380D02*
X158291595Y-78827380D01*
X156652380Y-63912571D02*
X155652380Y-63912571D01*
X156128571Y-63912571D02*
X156128571Y-63341142D01*
X156652380Y-63341142D02*
X155652380Y-63341142D01*
X156652380Y-62722095D02*
X156604761Y-62817333D01*
X156557142Y-62864952D01*
X156461904Y-62912571D01*
X156176190Y-62912571D01*
X156080952Y-62864952D01*
X156033333Y-62817333D01*
X155985714Y-62722095D01*
X155985714Y-62579238D01*
X156033333Y-62484000D01*
X156080952Y-62436380D01*
X156176190Y-62388761D01*
X156461904Y-62388761D01*
X156557142Y-62436380D01*
X156604761Y-62484000D01*
X156652380Y-62579238D01*
X156652380Y-62722095D01*
X156652380Y-61817333D02*
X156604761Y-61912571D01*
X156509523Y-61960190D01*
X155652380Y-61960190D01*
X156604761Y-61055428D02*
X156652380Y-61150666D01*
X156652380Y-61341142D01*
X156604761Y-61436380D01*
X156509523Y-61484000D01*
X156128571Y-61484000D01*
X156033333Y-61436380D01*
X155985714Y-61341142D01*
X155985714Y-61150666D01*
X156033333Y-61055428D01*
X156128571Y-61007809D01*
X156223809Y-61007809D01*
X156319047Y-61484000D01*
D11*
X188261761Y-63373000D02*
X188737952Y-63373000D01*
X188547476Y-63849190D02*
X188737952Y-63373000D01*
X188547476Y-62896809D01*
X189118904Y-63658714D02*
X188737952Y-63373000D01*
X189118904Y-63087285D01*
D10*
X174658976Y-104641761D02*
X174801833Y-104689380D01*
X175039928Y-104689380D01*
X175135166Y-104641761D01*
X175182785Y-104594142D01*
X175230404Y-104498904D01*
X175230404Y-104403666D01*
X175182785Y-104308428D01*
X175135166Y-104260809D01*
X175039928Y-104213190D01*
X174849452Y-104165571D01*
X174754214Y-104117952D01*
X174706595Y-104070333D01*
X174658976Y-103975095D01*
X174658976Y-103879857D01*
X174706595Y-103784619D01*
X174754214Y-103737000D01*
X174849452Y-103689380D01*
X175087547Y-103689380D01*
X175230404Y-103737000D01*
X175658976Y-104689380D02*
X175658976Y-103689380D01*
X175897071Y-103689380D01*
X176039928Y-103737000D01*
X176135166Y-103832238D01*
X176182785Y-103927476D01*
X176230404Y-104117952D01*
X176230404Y-104260809D01*
X176182785Y-104451285D01*
X176135166Y-104546523D01*
X176039928Y-104641761D01*
X175897071Y-104689380D01*
X175658976Y-104689380D01*
X176611357Y-104403666D02*
X177087547Y-104403666D01*
X176516119Y-104689380D02*
X176849452Y-103689380D01*
X177182785Y-104689380D01*
X137168000Y-88899904D02*
X137120380Y-88995142D01*
X137120380Y-89138000D01*
X137168000Y-89280857D01*
X137263238Y-89376095D01*
X137358476Y-89423714D01*
X137548952Y-89471333D01*
X137691809Y-89471333D01*
X137882285Y-89423714D01*
X137977523Y-89376095D01*
X138072761Y-89280857D01*
X138120380Y-89138000D01*
X138120380Y-89042761D01*
X138072761Y-88899904D01*
X138025142Y-88852285D01*
X137691809Y-88852285D01*
X137691809Y-89042761D01*
X138120380Y-88423714D02*
X137120380Y-88423714D01*
X138120380Y-87852285D01*
X137120380Y-87852285D01*
X138120380Y-87376095D02*
X137120380Y-87376095D01*
X137120380Y-87138000D01*
X137168000Y-86995142D01*
X137263238Y-86899904D01*
X137358476Y-86852285D01*
X137548952Y-86804666D01*
X137691809Y-86804666D01*
X137882285Y-86852285D01*
X137977523Y-86899904D01*
X138072761Y-86995142D01*
X138120380Y-87138000D01*
X138120380Y-87376095D01*
X174648761Y-67127285D02*
X174696380Y-66984428D01*
X174696380Y-66746333D01*
X174648761Y-66651095D01*
X174601142Y-66603476D01*
X174505904Y-66555857D01*
X174410666Y-66555857D01*
X174315428Y-66603476D01*
X174267809Y-66651095D01*
X174220190Y-66746333D01*
X174172571Y-66936809D01*
X174124952Y-67032047D01*
X174077333Y-67079666D01*
X173982095Y-67127285D01*
X173886857Y-67127285D01*
X173791619Y-67079666D01*
X173744000Y-67032047D01*
X173696380Y-66936809D01*
X173696380Y-66698714D01*
X173744000Y-66555857D01*
X174696380Y-66127285D02*
X173696380Y-66127285D01*
X173696380Y-65889190D01*
X173744000Y-65746333D01*
X173839238Y-65651095D01*
X173934476Y-65603476D01*
X174124952Y-65555857D01*
X174267809Y-65555857D01*
X174458285Y-65603476D01*
X174553523Y-65651095D01*
X174648761Y-65746333D01*
X174696380Y-65889190D01*
X174696380Y-66127285D01*
X174410666Y-65174904D02*
X174410666Y-64698714D01*
X174696380Y-65270142D02*
X173696380Y-64936809D01*
X174696380Y-64603476D01*
X156815404Y-76335000D02*
X156720166Y-76287380D01*
X156577309Y-76287380D01*
X156434452Y-76335000D01*
X156339214Y-76430238D01*
X156291595Y-76525476D01*
X156243976Y-76715952D01*
X156243976Y-76858809D01*
X156291595Y-77049285D01*
X156339214Y-77144523D01*
X156434452Y-77239761D01*
X156577309Y-77287380D01*
X156672547Y-77287380D01*
X156815404Y-77239761D01*
X156863023Y-77192142D01*
X156863023Y-76858809D01*
X156672547Y-76858809D01*
X157291595Y-77287380D02*
X157291595Y-76287380D01*
X157863023Y-77287380D01*
X157863023Y-76287380D01*
X158339214Y-77287380D02*
X158339214Y-76287380D01*
X158577309Y-76287380D01*
X158720166Y-76335000D01*
X158815404Y-76430238D01*
X158863023Y-76525476D01*
X158910642Y-76715952D01*
X158910642Y-76858809D01*
X158863023Y-77049285D01*
X158815404Y-77144523D01*
X158720166Y-77239761D01*
X158577309Y-77287380D01*
X158339214Y-77287380D01*
D11*
X154305000Y-106854761D02*
X154305000Y-107330952D01*
X153828809Y-107140476D02*
X154305000Y-107330952D01*
X154781190Y-107140476D01*
X154019285Y-107711904D02*
X154305000Y-107330952D01*
X154590714Y-107711904D01*
D10*
X177051976Y-108158428D02*
X177813880Y-108158428D01*
X177432928Y-108539380D02*
X177432928Y-107777476D01*
X178766261Y-107539380D02*
X178290071Y-107539380D01*
X178242452Y-108015571D01*
X178290071Y-107967952D01*
X178385309Y-107920333D01*
X178623404Y-107920333D01*
X178718642Y-107967952D01*
X178766261Y-108015571D01*
X178813880Y-108110809D01*
X178813880Y-108348904D01*
X178766261Y-108444142D01*
X178718642Y-108491761D01*
X178623404Y-108539380D01*
X178385309Y-108539380D01*
X178290071Y-108491761D01*
X178242452Y-108444142D01*
X179099595Y-107539380D02*
X179432928Y-108539380D01*
X179766261Y-107539380D01*
X174706595Y-102189380D02*
X174706595Y-101189380D01*
X175278023Y-102189380D01*
X175278023Y-101189380D01*
X176325642Y-102094142D02*
X176278023Y-102141761D01*
X176135166Y-102189380D01*
X176039928Y-102189380D01*
X175897071Y-102141761D01*
X175801833Y-102046523D01*
X175754214Y-101951285D01*
X175706595Y-101760809D01*
X175706595Y-101617952D01*
X175754214Y-101427476D01*
X175801833Y-101332238D01*
X175897071Y-101237000D01*
X176039928Y-101189380D01*
X176135166Y-101189380D01*
X176278023Y-101237000D01*
X176325642Y-101284619D01*
X156275738Y-73747380D02*
X156609071Y-74747380D01*
X156942404Y-73747380D01*
X157275738Y-74747380D02*
X157275738Y-73747380D01*
X157513833Y-73747380D01*
X157656690Y-73795000D01*
X157751928Y-73890238D01*
X157799547Y-73985476D01*
X157847166Y-74175952D01*
X157847166Y-74318809D01*
X157799547Y-74509285D01*
X157751928Y-74604523D01*
X157656690Y-74699761D01*
X157513833Y-74747380D01*
X157275738Y-74747380D01*
X158275738Y-74747380D02*
X158275738Y-73747380D01*
X158513833Y-73747380D01*
X158656690Y-73795000D01*
X158751928Y-73890238D01*
X158799547Y-73985476D01*
X158847166Y-74175952D01*
X158847166Y-74318809D01*
X158799547Y-74509285D01*
X158751928Y-74604523D01*
X158656690Y-74699761D01*
X158513833Y-74747380D01*
X158275738Y-74747380D01*
X167013000Y-63118904D02*
X166965380Y-63214142D01*
X166965380Y-63357000D01*
X167013000Y-63499857D01*
X167108238Y-63595095D01*
X167203476Y-63642714D01*
X167393952Y-63690333D01*
X167536809Y-63690333D01*
X167727285Y-63642714D01*
X167822523Y-63595095D01*
X167917761Y-63499857D01*
X167965380Y-63357000D01*
X167965380Y-63261761D01*
X167917761Y-63118904D01*
X167870142Y-63071285D01*
X167536809Y-63071285D01*
X167536809Y-63261761D01*
X167965380Y-62642714D02*
X166965380Y-62642714D01*
X167965380Y-62071285D01*
X166965380Y-62071285D01*
X167965380Y-61595095D02*
X166965380Y-61595095D01*
X166965380Y-61357000D01*
X167013000Y-61214142D01*
X167108238Y-61118904D01*
X167203476Y-61071285D01*
X167393952Y-61023666D01*
X167536809Y-61023666D01*
X167727285Y-61071285D01*
X167822523Y-61118904D01*
X167917761Y-61214142D01*
X167965380Y-61357000D01*
X167965380Y-61595095D01*
X177575785Y-102507000D02*
X177480547Y-102459380D01*
X177337690Y-102459380D01*
X177194833Y-102507000D01*
X177099595Y-102602238D01*
X177051976Y-102697476D01*
X177004357Y-102887952D01*
X177004357Y-103030809D01*
X177051976Y-103221285D01*
X177099595Y-103316523D01*
X177194833Y-103411761D01*
X177337690Y-103459380D01*
X177432928Y-103459380D01*
X177575785Y-103411761D01*
X177623404Y-103364142D01*
X177623404Y-103030809D01*
X177432928Y-103030809D01*
X178051976Y-103459380D02*
X178051976Y-102459380D01*
X178623404Y-103459380D01*
X178623404Y-102459380D01*
X179099595Y-103459380D02*
X179099595Y-102459380D01*
X179337690Y-102459380D01*
X179480547Y-102507000D01*
X179575785Y-102602238D01*
X179623404Y-102697476D01*
X179671023Y-102887952D01*
X179671023Y-103030809D01*
X179623404Y-103221285D01*
X179575785Y-103316523D01*
X179480547Y-103411761D01*
X179337690Y-103459380D01*
X179099595Y-103459380D01*
X156180500Y-71052000D02*
X157323357Y-71052000D01*
X156418595Y-72334380D02*
X156418595Y-71334380D01*
X156751928Y-72048666D01*
X157085261Y-71334380D01*
X157085261Y-72334380D01*
X157323357Y-71052000D02*
X158323357Y-71052000D01*
X158132880Y-72239142D02*
X158085261Y-72286761D01*
X157942404Y-72334380D01*
X157847166Y-72334380D01*
X157704309Y-72286761D01*
X157609071Y-72191523D01*
X157561452Y-72096285D01*
X157513833Y-71905809D01*
X157513833Y-71762952D01*
X157561452Y-71572476D01*
X157609071Y-71477238D01*
X157704309Y-71382000D01*
X157847166Y-71334380D01*
X157942404Y-71334380D01*
X158085261Y-71382000D01*
X158132880Y-71429619D01*
X158323357Y-71052000D02*
X159132880Y-71052000D01*
X159037642Y-72334380D02*
X158561452Y-72334380D01*
X158561452Y-71334380D01*
X159132880Y-71052000D02*
X160132880Y-71052000D01*
X159942404Y-72334380D02*
X159609071Y-71858190D01*
X159370976Y-72334380D02*
X159370976Y-71334380D01*
X159751928Y-71334380D01*
X159847166Y-71382000D01*
X159894785Y-71429619D01*
X159942404Y-71524857D01*
X159942404Y-71667714D01*
X159894785Y-71762952D01*
X159847166Y-71810571D01*
X159751928Y-71858190D01*
X159370976Y-71858190D01*
D11*
X157273761Y-116205000D02*
X157749952Y-116205000D01*
X157559476Y-116681190D02*
X157749952Y-116205000D01*
X157559476Y-115728809D01*
X158130904Y-116490714D02*
X157749952Y-116205000D01*
X158130904Y-115919285D01*
D10*
X156863023Y-82272142D02*
X156815404Y-82319761D01*
X156672547Y-82367380D01*
X156577309Y-82367380D01*
X156434452Y-82319761D01*
X156339214Y-82224523D01*
X156291595Y-82129285D01*
X156243976Y-81938809D01*
X156243976Y-81795952D01*
X156291595Y-81605476D01*
X156339214Y-81510238D01*
X156434452Y-81415000D01*
X156577309Y-81367380D01*
X156672547Y-81367380D01*
X156815404Y-81415000D01*
X156863023Y-81462619D01*
X157767785Y-82367380D02*
X157291595Y-82367380D01*
X157291595Y-81367380D01*
X158101119Y-82367380D02*
X158101119Y-81367380D01*
X158672547Y-82367380D02*
X158243976Y-81795952D01*
X158672547Y-81367380D02*
X158101119Y-81938809D01*
X190333333Y-76357142D02*
X190285714Y-76404761D01*
X190142857Y-76452380D01*
X190047619Y-76452380D01*
X189904761Y-76404761D01*
X189809523Y-76309523D01*
X189761904Y-76214285D01*
X189714285Y-76023809D01*
X189714285Y-75880952D01*
X189761904Y-75690476D01*
X189809523Y-75595238D01*
X189904761Y-75500000D01*
X190047619Y-75452380D01*
X190142857Y-75452380D01*
X190285714Y-75500000D01*
X190333333Y-75547619D01*
X190714285Y-75547619D02*
X190761904Y-75500000D01*
X190857142Y-75452380D01*
X191095238Y-75452380D01*
X191190476Y-75500000D01*
X191238095Y-75547619D01*
X191285714Y-75642857D01*
X191285714Y-75738095D01*
X191238095Y-75880952D01*
X190666666Y-76452380D01*
X191285714Y-76452380D01*
X151439666Y-75779380D02*
X151439666Y-76493666D01*
X151392047Y-76636523D01*
X151296809Y-76731761D01*
X151153952Y-76779380D01*
X151058714Y-76779380D01*
X151915857Y-76779380D02*
X151915857Y-75779380D01*
X152296809Y-75779380D01*
X152392047Y-75827000D01*
X152439666Y-75874619D01*
X152487285Y-75969857D01*
X152487285Y-76112714D01*
X152439666Y-76207952D01*
X152392047Y-76255571D01*
X152296809Y-76303190D01*
X151915857Y-76303190D01*
X152868238Y-75874619D02*
X152915857Y-75827000D01*
X153011095Y-75779380D01*
X153249190Y-75779380D01*
X153344428Y-75827000D01*
X153392047Y-75874619D01*
X153439666Y-75969857D01*
X153439666Y-76065095D01*
X153392047Y-76207952D01*
X152820619Y-76779380D01*
X153439666Y-76779380D01*
X155246142Y-101131666D02*
X155293761Y-101179285D01*
X155341380Y-101322142D01*
X155341380Y-101417380D01*
X155293761Y-101560238D01*
X155198523Y-101655476D01*
X155103285Y-101703095D01*
X154912809Y-101750714D01*
X154769952Y-101750714D01*
X154579476Y-101703095D01*
X154484238Y-101655476D01*
X154389000Y-101560238D01*
X154341380Y-101417380D01*
X154341380Y-101322142D01*
X154389000Y-101179285D01*
X154436619Y-101131666D01*
X154341380Y-100798333D02*
X154341380Y-100131666D01*
X155341380Y-100560238D01*
X149439333Y-76811142D02*
X149391714Y-76858761D01*
X149248857Y-76906380D01*
X149153619Y-76906380D01*
X149010761Y-76858761D01*
X148915523Y-76763523D01*
X148867904Y-76668285D01*
X148820285Y-76477809D01*
X148820285Y-76334952D01*
X148867904Y-76144476D01*
X148915523Y-76049238D01*
X149010761Y-75954000D01*
X149153619Y-75906380D01*
X149248857Y-75906380D01*
X149391714Y-75954000D01*
X149439333Y-76001619D01*
X150296476Y-76239714D02*
X150296476Y-76906380D01*
X150058380Y-75858761D02*
X149820285Y-76573047D01*
X150439333Y-76573047D01*
X145502333Y-77033380D02*
X145169000Y-76557190D01*
X144930904Y-77033380D02*
X144930904Y-76033380D01*
X145311857Y-76033380D01*
X145407095Y-76081000D01*
X145454714Y-76128619D01*
X145502333Y-76223857D01*
X145502333Y-76366714D01*
X145454714Y-76461952D01*
X145407095Y-76509571D01*
X145311857Y-76557190D01*
X144930904Y-76557190D01*
X146359476Y-76366714D02*
X146359476Y-77033380D01*
X146121380Y-75985761D02*
X145883285Y-76700047D01*
X146502333Y-76700047D01*
X174442380Y-95610238D02*
X173966190Y-95943571D01*
X174442380Y-96181666D02*
X173442380Y-96181666D01*
X173442380Y-95800714D01*
X173490000Y-95705476D01*
X173537619Y-95657857D01*
X173632857Y-95610238D01*
X173775714Y-95610238D01*
X173870952Y-95657857D01*
X173918571Y-95705476D01*
X173966190Y-95800714D01*
X173966190Y-96181666D01*
X173442380Y-95324523D02*
X174442380Y-94991190D01*
X173442380Y-94657857D01*
X173537619Y-94372142D02*
X173490000Y-94324523D01*
X173442380Y-94229285D01*
X173442380Y-93991190D01*
X173490000Y-93895952D01*
X173537619Y-93848333D01*
X173632857Y-93800714D01*
X173728095Y-93800714D01*
X173870952Y-93848333D01*
X174442380Y-94419761D01*
X174442380Y-93800714D01*
X153366666Y-108291380D02*
X153366666Y-109005666D01*
X153319047Y-109148523D01*
X153223809Y-109243761D01*
X153080952Y-109291380D01*
X152985714Y-109291380D01*
X153842857Y-109291380D02*
X153842857Y-108291380D01*
X154223809Y-108291380D01*
X154319047Y-108339000D01*
X154366666Y-108386619D01*
X154414285Y-108481857D01*
X154414285Y-108624714D01*
X154366666Y-108719952D01*
X154319047Y-108767571D01*
X154223809Y-108815190D01*
X153842857Y-108815190D01*
X155366666Y-109291380D02*
X154795238Y-109291380D01*
X155080952Y-109291380D02*
X155080952Y-108291380D01*
X154985714Y-108434238D01*
X154890476Y-108529476D01*
X154795238Y-108577095D01*
X177666666Y-67622380D02*
X177666666Y-68336666D01*
X177619047Y-68479523D01*
X177523809Y-68574761D01*
X177380952Y-68622380D01*
X177285714Y-68622380D01*
X178190476Y-68622380D02*
X178380952Y-68622380D01*
X178476190Y-68574761D01*
X178523809Y-68527142D01*
X178619047Y-68384285D01*
X178666666Y-68193809D01*
X178666666Y-67812857D01*
X178619047Y-67717619D01*
X178571428Y-67670000D01*
X178476190Y-67622380D01*
X178285714Y-67622380D01*
X178190476Y-67670000D01*
X178142857Y-67717619D01*
X178095238Y-67812857D01*
X178095238Y-68050952D01*
X178142857Y-68146190D01*
X178190476Y-68193809D01*
X178285714Y-68241428D01*
X178476190Y-68241428D01*
X178571428Y-68193809D01*
X178619047Y-68146190D01*
X178666666Y-68050952D01*
X145716666Y-88479380D02*
X145716666Y-89193666D01*
X145669047Y-89336523D01*
X145573809Y-89431761D01*
X145430952Y-89479380D01*
X145335714Y-89479380D01*
X146621428Y-88479380D02*
X146430952Y-88479380D01*
X146335714Y-88527000D01*
X146288095Y-88574619D01*
X146192857Y-88717476D01*
X146145238Y-88907952D01*
X146145238Y-89288904D01*
X146192857Y-89384142D01*
X146240476Y-89431761D01*
X146335714Y-89479380D01*
X146526190Y-89479380D01*
X146621428Y-89431761D01*
X146669047Y-89384142D01*
X146716666Y-89288904D01*
X146716666Y-89050809D01*
X146669047Y-88955571D01*
X146621428Y-88907952D01*
X146526190Y-88860333D01*
X146335714Y-88860333D01*
X146240476Y-88907952D01*
X146192857Y-88955571D01*
X146145238Y-89050809D01*
X138199761Y-67938333D02*
X138247380Y-67795476D01*
X138247380Y-67557380D01*
X138199761Y-67462142D01*
X138152142Y-67414523D01*
X138056904Y-67366904D01*
X137961666Y-67366904D01*
X137866428Y-67414523D01*
X137818809Y-67462142D01*
X137771190Y-67557380D01*
X137723571Y-67747857D01*
X137675952Y-67843095D01*
X137628333Y-67890714D01*
X137533095Y-67938333D01*
X137437857Y-67938333D01*
X137342619Y-67890714D01*
X137295000Y-67843095D01*
X137247380Y-67747857D01*
X137247380Y-67509761D01*
X137295000Y-67366904D01*
X137247380Y-67033571D02*
X138247380Y-66795476D01*
X137533095Y-66605000D01*
X138247380Y-66414523D01*
X137247380Y-66176428D01*
X138247380Y-65271666D02*
X138247380Y-65843095D01*
X138247380Y-65557380D02*
X137247380Y-65557380D01*
X137390238Y-65652619D01*
X137485476Y-65747857D01*
X137533095Y-65843095D01*
X152481904Y-91892380D02*
X152481904Y-90892380D01*
X152720000Y-90892380D01*
X152862857Y-90940000D01*
X152958095Y-91035238D01*
X153005714Y-91130476D01*
X153053333Y-91320952D01*
X153053333Y-91463809D01*
X153005714Y-91654285D01*
X152958095Y-91749523D01*
X152862857Y-91844761D01*
X152720000Y-91892380D01*
X152481904Y-91892380D01*
X153910476Y-91225714D02*
X153910476Y-91892380D01*
X153672380Y-90844761D02*
X153434285Y-91559047D01*
X154053333Y-91559047D01*
X152868380Y-105761904D02*
X153677904Y-105761904D01*
X153773142Y-105714285D01*
X153820761Y-105666666D01*
X153868380Y-105571428D01*
X153868380Y-105380952D01*
X153820761Y-105285714D01*
X153773142Y-105238095D01*
X153677904Y-105190476D01*
X152868380Y-105190476D01*
X152868380Y-104285714D02*
X152868380Y-104476190D01*
X152916000Y-104571428D01*
X152963619Y-104619047D01*
X153106476Y-104714285D01*
X153296952Y-104761904D01*
X153677904Y-104761904D01*
X153773142Y-104714285D01*
X153820761Y-104666666D01*
X153868380Y-104571428D01*
X153868380Y-104380952D01*
X153820761Y-104285714D01*
X153773142Y-104238095D01*
X153677904Y-104190476D01*
X153439809Y-104190476D01*
X153344571Y-104238095D01*
X153296952Y-104285714D01*
X153249333Y-104380952D01*
X153249333Y-104571428D01*
X153296952Y-104666666D01*
X153344571Y-104714285D01*
X153439809Y-104761904D01*
X190172380Y-82163332D02*
X190886666Y-82163332D01*
X191029523Y-82210951D01*
X191124761Y-82306189D01*
X191172380Y-82449046D01*
X191172380Y-82544284D01*
X190267619Y-81734760D02*
X190220000Y-81687141D01*
X190172380Y-81591903D01*
X190172380Y-81353808D01*
X190220000Y-81258570D01*
X190267619Y-81210951D01*
X190362857Y-81163332D01*
X190458095Y-81163332D01*
X190600952Y-81210951D01*
X191172380Y-81782379D01*
X191172380Y-81163332D01*
X155392380Y-95257857D02*
X154916190Y-95591190D01*
X155392380Y-95829285D02*
X154392380Y-95829285D01*
X154392380Y-95448333D01*
X154440000Y-95353095D01*
X154487619Y-95305476D01*
X154582857Y-95257857D01*
X154725714Y-95257857D01*
X154820952Y-95305476D01*
X154868571Y-95353095D01*
X154916190Y-95448333D01*
X154916190Y-95829285D01*
X155392380Y-94305476D02*
X155392380Y-94876904D01*
X155392380Y-94591190D02*
X154392380Y-94591190D01*
X154535238Y-94686428D01*
X154630476Y-94781666D01*
X154678095Y-94876904D01*
X154392380Y-93972142D02*
X154392380Y-93353095D01*
X154773333Y-93686428D01*
X154773333Y-93543571D01*
X154820952Y-93448333D01*
X154868571Y-93400714D01*
X154963809Y-93353095D01*
X155201904Y-93353095D01*
X155297142Y-93400714D01*
X155344761Y-93448333D01*
X155392380Y-93543571D01*
X155392380Y-93829285D01*
X155344761Y-93924523D01*
X155297142Y-93972142D01*
X154059884Y-99639380D02*
X153726551Y-99163190D01*
X153488456Y-99639380D02*
X153488456Y-98639380D01*
X153869408Y-98639380D01*
X153964646Y-98687000D01*
X154012265Y-98734619D01*
X154059884Y-98829857D01*
X154059884Y-98972714D01*
X154012265Y-99067952D01*
X153964646Y-99115571D01*
X153869408Y-99163190D01*
X153488456Y-99163190D01*
X155012265Y-99639380D02*
X154440837Y-99639380D01*
X154726551Y-99639380D02*
X154726551Y-98639380D01*
X154631313Y-98782238D01*
X154536075Y-98877476D01*
X154440837Y-98925095D01*
X155393218Y-98734619D02*
X155440837Y-98687000D01*
X155536075Y-98639380D01*
X155774170Y-98639380D01*
X155869408Y-98687000D01*
X155917027Y-98734619D01*
X155964646Y-98829857D01*
X155964646Y-98925095D01*
X155917027Y-99067952D01*
X155345599Y-99639380D01*
X155964646Y-99639380D01*
X186368095Y-93712380D02*
X186368095Y-94521904D01*
X186415714Y-94617142D01*
X186463333Y-94664761D01*
X186558571Y-94712380D01*
X186749047Y-94712380D01*
X186844285Y-94664761D01*
X186891904Y-94617142D01*
X186939523Y-94521904D01*
X186939523Y-93712380D01*
X187939523Y-94712380D02*
X187368095Y-94712380D01*
X187653809Y-94712380D02*
X187653809Y-93712380D01*
X187558571Y-93855238D01*
X187463333Y-93950476D01*
X187368095Y-93998095D01*
X173045380Y-92082857D02*
X172569190Y-92416190D01*
X173045380Y-92654285D02*
X172045380Y-92654285D01*
X172045380Y-92273333D01*
X172093000Y-92178095D01*
X172140619Y-92130476D01*
X172235857Y-92082857D01*
X172378714Y-92082857D01*
X172473952Y-92130476D01*
X172521571Y-92178095D01*
X172569190Y-92273333D01*
X172569190Y-92654285D01*
X173045380Y-91130476D02*
X173045380Y-91701904D01*
X173045380Y-91416190D02*
X172045380Y-91416190D01*
X172188238Y-91511428D01*
X172283476Y-91606666D01*
X172331095Y-91701904D01*
X172045380Y-90511428D02*
X172045380Y-90416190D01*
X172093000Y-90320952D01*
X172140619Y-90273333D01*
X172235857Y-90225714D01*
X172426333Y-90178095D01*
X172664428Y-90178095D01*
X172854904Y-90225714D01*
X172950142Y-90273333D01*
X172997761Y-90320952D01*
X173045380Y-90416190D01*
X173045380Y-90511428D01*
X172997761Y-90606666D01*
X172950142Y-90654285D01*
X172854904Y-90701904D01*
X172664428Y-90749523D01*
X172426333Y-90749523D01*
X172235857Y-90701904D01*
X172140619Y-90654285D01*
X172093000Y-90606666D01*
X172045380Y-90511428D01*
X174442380Y-82166666D02*
X173966190Y-82500000D01*
X174442380Y-82738095D02*
X173442380Y-82738095D01*
X173442380Y-82357142D01*
X173490000Y-82261904D01*
X173537619Y-82214285D01*
X173632857Y-82166666D01*
X173775714Y-82166666D01*
X173870952Y-82214285D01*
X173918571Y-82261904D01*
X173966190Y-82357142D01*
X173966190Y-82738095D01*
X174442380Y-81690476D02*
X174442380Y-81500000D01*
X174394761Y-81404761D01*
X174347142Y-81357142D01*
X174204285Y-81261904D01*
X174013809Y-81214285D01*
X173632857Y-81214285D01*
X173537619Y-81261904D01*
X173490000Y-81309523D01*
X173442380Y-81404761D01*
X173442380Y-81595238D01*
X173490000Y-81690476D01*
X173537619Y-81738095D01*
X173632857Y-81785714D01*
X173870952Y-81785714D01*
X173966190Y-81738095D01*
X174013809Y-81690476D01*
X174061428Y-81595238D01*
X174061428Y-81404761D01*
X174013809Y-81309523D01*
X173966190Y-81261904D01*
X173870952Y-81214285D01*
X161155142Y-70048380D02*
X160821809Y-69572190D01*
X160583714Y-70048380D02*
X160583714Y-69048380D01*
X160964666Y-69048380D01*
X161059904Y-69096000D01*
X161107523Y-69143619D01*
X161155142Y-69238857D01*
X161155142Y-69381714D01*
X161107523Y-69476952D01*
X161059904Y-69524571D01*
X160964666Y-69572190D01*
X160583714Y-69572190D01*
X162107523Y-70048380D02*
X161536095Y-70048380D01*
X161821809Y-70048380D02*
X161821809Y-69048380D01*
X161726571Y-69191238D01*
X161631333Y-69286476D01*
X161536095Y-69334095D01*
X163012285Y-69048380D02*
X162536095Y-69048380D01*
X162488476Y-69524571D01*
X162536095Y-69476952D01*
X162631333Y-69429333D01*
X162869428Y-69429333D01*
X162964666Y-69476952D01*
X163012285Y-69524571D01*
X163059904Y-69619809D01*
X163059904Y-69857904D01*
X163012285Y-69953142D01*
X162964666Y-70000761D01*
X162869428Y-70048380D01*
X162631333Y-70048380D01*
X162536095Y-70000761D01*
X162488476Y-69953142D01*
X170481666Y-67309380D02*
X170481666Y-68023666D01*
X170434047Y-68166523D01*
X170338809Y-68261761D01*
X170195952Y-68309380D01*
X170100714Y-68309380D01*
X171386428Y-67642714D02*
X171386428Y-68309380D01*
X171148333Y-67261761D02*
X170910238Y-67976047D01*
X171529285Y-67976047D01*
X174442380Y-88225238D02*
X173966190Y-88558571D01*
X174442380Y-88796666D02*
X173442380Y-88796666D01*
X173442380Y-88415714D01*
X173490000Y-88320476D01*
X173537619Y-88272857D01*
X173632857Y-88225238D01*
X173775714Y-88225238D01*
X173870952Y-88272857D01*
X173918571Y-88320476D01*
X173966190Y-88415714D01*
X173966190Y-88796666D01*
X173442380Y-87939523D02*
X174442380Y-87606190D01*
X173442380Y-87272857D01*
X174442380Y-86415714D02*
X174442380Y-86987142D01*
X174442380Y-86701428D02*
X173442380Y-86701428D01*
X173585238Y-86796666D01*
X173680476Y-86891904D01*
X173728095Y-86987142D01*
X157157380Y-120141904D02*
X157966904Y-120141904D01*
X158062142Y-120094285D01*
X158109761Y-120046666D01*
X158157380Y-119951428D01*
X158157380Y-119760952D01*
X158109761Y-119665714D01*
X158062142Y-119618095D01*
X157966904Y-119570476D01*
X157157380Y-119570476D01*
X157490714Y-118665714D02*
X158157380Y-118665714D01*
X157109761Y-118903809D02*
X157824047Y-119141904D01*
X157824047Y-118522857D01*
X188802380Y-62491904D02*
X189611904Y-62491904D01*
X189707142Y-62444285D01*
X189754761Y-62396666D01*
X189802380Y-62301428D01*
X189802380Y-62110952D01*
X189754761Y-62015714D01*
X189707142Y-61968095D01*
X189611904Y-61920476D01*
X188802380Y-61920476D01*
X188897619Y-61491904D02*
X188850000Y-61444285D01*
X188802380Y-61349047D01*
X188802380Y-61110952D01*
X188850000Y-61015714D01*
X188897619Y-60968095D01*
X188992857Y-60920476D01*
X189088095Y-60920476D01*
X189230952Y-60968095D01*
X189802380Y-61539523D01*
X189802380Y-60920476D01*
X177387380Y-82166666D02*
X176911190Y-82500000D01*
X177387380Y-82738095D02*
X176387380Y-82738095D01*
X176387380Y-82357142D01*
X176435000Y-82261904D01*
X176482619Y-82214285D01*
X176577857Y-82166666D01*
X176720714Y-82166666D01*
X176815952Y-82214285D01*
X176863571Y-82261904D01*
X176911190Y-82357142D01*
X176911190Y-82738095D01*
X176387380Y-81309523D02*
X176387380Y-81500000D01*
X176435000Y-81595238D01*
X176482619Y-81642857D01*
X176625476Y-81738095D01*
X176815952Y-81785714D01*
X177196904Y-81785714D01*
X177292142Y-81738095D01*
X177339761Y-81690476D01*
X177387380Y-81595238D01*
X177387380Y-81404761D01*
X177339761Y-81309523D01*
X177292142Y-81261904D01*
X177196904Y-81214285D01*
X176958809Y-81214285D01*
X176863571Y-81261904D01*
X176815952Y-81309523D01*
X176768333Y-81404761D01*
X176768333Y-81595238D01*
X176815952Y-81690476D01*
X176863571Y-81738095D01*
X176958809Y-81785714D01*
X152320666Y-77176380D02*
X152320666Y-77890666D01*
X152273047Y-78033523D01*
X152177809Y-78128761D01*
X152034952Y-78176380D01*
X151939714Y-78176380D01*
X152701619Y-77176380D02*
X153320666Y-77176380D01*
X152987333Y-77557333D01*
X153130190Y-77557333D01*
X153225428Y-77604952D01*
X153273047Y-77652571D01*
X153320666Y-77747809D01*
X153320666Y-77985904D01*
X153273047Y-78081142D01*
X153225428Y-78128761D01*
X153130190Y-78176380D01*
X152844476Y-78176380D01*
X152749238Y-78128761D01*
X152701619Y-78081142D01*
X137666666Y-63952380D02*
X137666666Y-64666666D01*
X137619047Y-64809523D01*
X137523809Y-64904761D01*
X137380952Y-64952380D01*
X137285714Y-64952380D01*
X138666666Y-64952380D02*
X138095238Y-64952380D01*
X138380952Y-64952380D02*
X138380952Y-63952380D01*
X138285714Y-64095238D01*
X138190476Y-64190476D01*
X138095238Y-64238095D01*
X156424333Y-113133142D02*
X156376714Y-113180761D01*
X156233857Y-113228380D01*
X156138619Y-113228380D01*
X155995761Y-113180761D01*
X155900523Y-113085523D01*
X155852904Y-112990285D01*
X155805285Y-112799809D01*
X155805285Y-112656952D01*
X155852904Y-112466476D01*
X155900523Y-112371238D01*
X155995761Y-112276000D01*
X156138619Y-112228380D01*
X156233857Y-112228380D01*
X156376714Y-112276000D01*
X156424333Y-112323619D01*
X157329095Y-112228380D02*
X156852904Y-112228380D01*
X156805285Y-112704571D01*
X156852904Y-112656952D01*
X156948142Y-112609333D01*
X157186238Y-112609333D01*
X157281476Y-112656952D01*
X157329095Y-112704571D01*
X157376714Y-112799809D01*
X157376714Y-113037904D01*
X157329095Y-113133142D01*
X157281476Y-113180761D01*
X157186238Y-113228380D01*
X156948142Y-113228380D01*
X156852904Y-113180761D01*
X156805285Y-113133142D01*
X190919380Y-68746666D02*
X190443190Y-69080000D01*
X190919380Y-69318095D02*
X189919380Y-69318095D01*
X189919380Y-68937142D01*
X189967000Y-68841904D01*
X190014619Y-68794285D01*
X190109857Y-68746666D01*
X190252714Y-68746666D01*
X190347952Y-68794285D01*
X190395571Y-68841904D01*
X190443190Y-68937142D01*
X190443190Y-69318095D01*
X189919380Y-67841904D02*
X189919380Y-68318095D01*
X190395571Y-68365714D01*
X190347952Y-68318095D01*
X190300333Y-68222857D01*
X190300333Y-67984761D01*
X190347952Y-67889523D01*
X190395571Y-67841904D01*
X190490809Y-67794285D01*
X190728904Y-67794285D01*
X190824142Y-67841904D01*
X190871761Y-67889523D01*
X190919380Y-67984761D01*
X190919380Y-68222857D01*
X190871761Y-68318095D01*
X190824142Y-68365714D01*
X148463095Y-87971380D02*
X148463095Y-88780904D01*
X148510714Y-88876142D01*
X148558333Y-88923761D01*
X148653571Y-88971380D01*
X148844047Y-88971380D01*
X148939285Y-88923761D01*
X148986904Y-88876142D01*
X149034523Y-88780904D01*
X149034523Y-87971380D01*
X149415476Y-87971380D02*
X150034523Y-87971380D01*
X149701190Y-88352333D01*
X149844047Y-88352333D01*
X149939285Y-88399952D01*
X149986904Y-88447571D01*
X150034523Y-88542809D01*
X150034523Y-88780904D01*
X149986904Y-88876142D01*
X149939285Y-88923761D01*
X149844047Y-88971380D01*
X149558333Y-88971380D01*
X149463095Y-88923761D01*
X149415476Y-88876142D01*
X160726380Y-67738095D02*
X159726380Y-67738095D01*
X159726380Y-67500000D01*
X159774000Y-67357142D01*
X159869238Y-67261904D01*
X159964476Y-67214285D01*
X160154952Y-67166666D01*
X160297809Y-67166666D01*
X160488285Y-67214285D01*
X160583523Y-67261904D01*
X160678761Y-67357142D01*
X160726380Y-67500000D01*
X160726380Y-67738095D01*
X159821619Y-66785714D02*
X159774000Y-66738095D01*
X159726380Y-66642857D01*
X159726380Y-66404761D01*
X159774000Y-66309523D01*
X159821619Y-66261904D01*
X159916857Y-66214285D01*
X160012095Y-66214285D01*
X160154952Y-66261904D01*
X160726380Y-66833333D01*
X160726380Y-66214285D01*
X174442380Y-116815238D02*
X173966190Y-117148571D01*
X174442380Y-117386666D02*
X173442380Y-117386666D01*
X173442380Y-117005714D01*
X173490000Y-116910476D01*
X173537619Y-116862857D01*
X173632857Y-116815238D01*
X173775714Y-116815238D01*
X173870952Y-116862857D01*
X173918571Y-116910476D01*
X173966190Y-117005714D01*
X173966190Y-117386666D01*
X173442380Y-116529523D02*
X174442380Y-116196190D01*
X173442380Y-115862857D01*
X173442380Y-115624761D02*
X173442380Y-115005714D01*
X173823333Y-115339047D01*
X173823333Y-115196190D01*
X173870952Y-115100952D01*
X173918571Y-115053333D01*
X174013809Y-115005714D01*
X174251904Y-115005714D01*
X174347142Y-115053333D01*
X174394761Y-115100952D01*
X174442380Y-115196190D01*
X174442380Y-115481904D01*
X174394761Y-115577142D01*
X174347142Y-115624761D01*
X158567380Y-128464523D02*
X157567380Y-128464523D01*
X158281666Y-128131190D01*
X157567380Y-127797857D01*
X158567380Y-127797857D01*
X158567380Y-126797857D02*
X158567380Y-127369285D01*
X158567380Y-127083571D02*
X157567380Y-127083571D01*
X157710238Y-127178809D01*
X157805476Y-127274047D01*
X157853095Y-127369285D01*
X160726380Y-63730095D02*
X159726380Y-63730095D01*
X159726380Y-63492000D01*
X159774000Y-63349142D01*
X159869238Y-63253904D01*
X159964476Y-63206285D01*
X160154952Y-63158666D01*
X160297809Y-63158666D01*
X160488285Y-63206285D01*
X160583523Y-63253904D01*
X160678761Y-63349142D01*
X160726380Y-63492000D01*
X160726380Y-63730095D01*
X160726380Y-62206285D02*
X160726380Y-62777714D01*
X160726380Y-62492000D02*
X159726380Y-62492000D01*
X159869238Y-62587238D01*
X159964476Y-62682476D01*
X160012095Y-62777714D01*
X148105904Y-75382380D02*
X148105904Y-74382380D01*
X148344000Y-74382380D01*
X148486857Y-74430000D01*
X148582095Y-74525238D01*
X148629714Y-74620476D01*
X148677333Y-74810952D01*
X148677333Y-74953809D01*
X148629714Y-75144285D01*
X148582095Y-75239523D01*
X148486857Y-75334761D01*
X148344000Y-75382380D01*
X148105904Y-75382380D01*
X149010666Y-74382380D02*
X149629714Y-74382380D01*
X149296380Y-74763333D01*
X149439238Y-74763333D01*
X149534476Y-74810952D01*
X149582095Y-74858571D01*
X149629714Y-74953809D01*
X149629714Y-75191904D01*
X149582095Y-75287142D01*
X149534476Y-75334761D01*
X149439238Y-75382380D01*
X149153523Y-75382380D01*
X149058285Y-75334761D01*
X149010666Y-75287142D01*
X145232380Y-79414666D02*
X144756190Y-79748000D01*
X145232380Y-79986095D02*
X144232380Y-79986095D01*
X144232380Y-79605142D01*
X144280000Y-79509904D01*
X144327619Y-79462285D01*
X144422857Y-79414666D01*
X144565714Y-79414666D01*
X144660952Y-79462285D01*
X144708571Y-79509904D01*
X144756190Y-79605142D01*
X144756190Y-79986095D01*
X144232380Y-79081333D02*
X144232380Y-78414666D01*
X145232380Y-78843238D01*
X144867333Y-72874142D02*
X144819714Y-72921761D01*
X144676857Y-72969380D01*
X144581619Y-72969380D01*
X144438761Y-72921761D01*
X144343523Y-72826523D01*
X144295904Y-72731285D01*
X144248285Y-72540809D01*
X144248285Y-72397952D01*
X144295904Y-72207476D01*
X144343523Y-72112238D01*
X144438761Y-72017000D01*
X144581619Y-71969380D01*
X144676857Y-71969380D01*
X144819714Y-72017000D01*
X144867333Y-72064619D01*
X145200666Y-71969380D02*
X145819714Y-71969380D01*
X145486380Y-72350333D01*
X145629238Y-72350333D01*
X145724476Y-72397952D01*
X145772095Y-72445571D01*
X145819714Y-72540809D01*
X145819714Y-72778904D01*
X145772095Y-72874142D01*
X145724476Y-72921761D01*
X145629238Y-72969380D01*
X145343523Y-72969380D01*
X145248285Y-72921761D01*
X145200666Y-72874142D01*
X144867333Y-71263380D02*
X144534000Y-70787190D01*
X144295904Y-71263380D02*
X144295904Y-70263380D01*
X144676857Y-70263380D01*
X144772095Y-70311000D01*
X144819714Y-70358619D01*
X144867333Y-70453857D01*
X144867333Y-70596714D01*
X144819714Y-70691952D01*
X144772095Y-70739571D01*
X144676857Y-70787190D01*
X144295904Y-70787190D01*
X145819714Y-71263380D02*
X145248285Y-71263380D01*
X145534000Y-71263380D02*
X145534000Y-70263380D01*
X145438761Y-70406238D01*
X145343523Y-70501476D01*
X145248285Y-70549095D01*
X149704761Y-66333333D02*
X149752380Y-66190476D01*
X149752380Y-65952380D01*
X149704761Y-65857142D01*
X149657142Y-65809523D01*
X149561904Y-65761904D01*
X149466666Y-65761904D01*
X149371428Y-65809523D01*
X149323809Y-65857142D01*
X149276190Y-65952380D01*
X149228571Y-66142857D01*
X149180952Y-66238095D01*
X149133333Y-66285714D01*
X149038095Y-66333333D01*
X148942857Y-66333333D01*
X148847619Y-66285714D01*
X148800000Y-66238095D01*
X148752380Y-66142857D01*
X148752380Y-65904761D01*
X148800000Y-65761904D01*
X148752380Y-65428571D02*
X149752380Y-65190476D01*
X149038095Y-65000000D01*
X149752380Y-64809523D01*
X148752380Y-64571428D01*
X148752380Y-64285714D02*
X148752380Y-63666666D01*
X149133333Y-64000000D01*
X149133333Y-63857142D01*
X149180952Y-63761904D01*
X149228571Y-63714285D01*
X149323809Y-63666666D01*
X149561904Y-63666666D01*
X149657142Y-63714285D01*
X149704761Y-63761904D01*
X149752380Y-63857142D01*
X149752380Y-64142857D01*
X149704761Y-64238095D01*
X149657142Y-64285714D01*
X144867333Y-69667380D02*
X144534000Y-69191190D01*
X144295904Y-69667380D02*
X144295904Y-68667380D01*
X144676857Y-68667380D01*
X144772095Y-68715000D01*
X144819714Y-68762619D01*
X144867333Y-68857857D01*
X144867333Y-69000714D01*
X144819714Y-69095952D01*
X144772095Y-69143571D01*
X144676857Y-69191190D01*
X144295904Y-69191190D01*
X145248285Y-68762619D02*
X145295904Y-68715000D01*
X145391142Y-68667380D01*
X145629238Y-68667380D01*
X145724476Y-68715000D01*
X145772095Y-68762619D01*
X145819714Y-68857857D01*
X145819714Y-68953095D01*
X145772095Y-69095952D01*
X145200666Y-69667380D01*
X145819714Y-69667380D01*
X190166666Y-69952380D02*
X190166666Y-70666666D01*
X190119047Y-70809523D01*
X190023809Y-70904761D01*
X189880952Y-70952380D01*
X189785714Y-70952380D01*
X191119047Y-69952380D02*
X190642857Y-69952380D01*
X190595238Y-70428571D01*
X190642857Y-70380952D01*
X190738095Y-70333333D01*
X190976190Y-70333333D01*
X191071428Y-70380952D01*
X191119047Y-70428571D01*
X191166666Y-70523809D01*
X191166666Y-70761904D01*
X191119047Y-70857142D01*
X191071428Y-70904761D01*
X190976190Y-70952380D01*
X190738095Y-70952380D01*
X190642857Y-70904761D01*
X190595238Y-70857142D01*
D12*
X187819420Y-75490000D02*
X188100580Y-75490000D01*
X187819420Y-76510000D02*
X188100580Y-76510000D01*
X152527000Y-75625000D02*
X152527000Y-73025000D01*
X152527000Y-75625000D02*
X152587000Y-75625000D01*
X149927000Y-73025000D02*
X149927000Y-70425000D01*
X152527000Y-73025000D02*
X149927000Y-73025000D01*
X149927000Y-70425000D02*
X152587000Y-70425000D01*
X151257000Y-75625000D02*
X149927000Y-75625000D01*
X149927000Y-75625000D02*
X149927000Y-74295000D01*
X152587000Y-75625000D02*
X152587000Y-70425000D01*
X155700000Y-100824420D02*
X155700000Y-101105580D01*
X156720000Y-100824420D02*
X156720000Y-101105580D01*
X149746580Y-77214000D02*
X149465420Y-77214000D01*
X149746580Y-78234000D02*
X149465420Y-78234000D01*
X145431742Y-78246500D02*
X145906258Y-78246500D01*
X145431742Y-77201500D02*
X145906258Y-77201500D01*
X174780000Y-98420000D02*
X177810000Y-98420000D01*
X174780000Y-91580000D02*
X177810000Y-91580000D01*
X179110000Y-91580000D02*
X182020000Y-91580000D01*
X179110000Y-98420000D02*
X182020000Y-98420000D01*
X174780000Y-91580000D02*
X174780000Y-98420000D01*
X182020000Y-91580000D02*
X182020000Y-98420000D01*
X155700000Y-109515000D02*
X155100000Y-109515000D01*
X156250000Y-110715000D02*
X156250000Y-111315000D01*
X152150000Y-111315000D02*
X152150000Y-110715000D01*
X152800000Y-110015000D02*
X155600000Y-110015000D01*
X155400000Y-109815000D02*
X155100000Y-109515000D01*
X155600000Y-112015000D02*
X152800000Y-112015000D01*
X155400000Y-109815000D02*
X155700000Y-109515000D01*
X152850000Y-110015000D02*
G75*
G03*
X152150000Y-110715000I0J-700000D01*
G01*
X155550000Y-112015000D02*
G75*
G03*
X156250000Y-111315000I1J699999D01*
G01*
X156250000Y-110715000D02*
G75*
G03*
X155550000Y-110015000I-699999J1D01*
G01*
X152150000Y-111315000D02*
G75*
G03*
X152850000Y-112015000I700000J0D01*
G01*
X176670000Y-71770000D02*
X179330000Y-71770000D01*
X179330000Y-71770000D02*
X179330000Y-79450000D01*
X176670000Y-79450000D02*
X179330000Y-79450000D01*
X176670000Y-71770000D02*
X176670000Y-79450000D01*
X176670000Y-69170000D02*
X178000000Y-69170000D01*
X176670000Y-70500000D02*
X176670000Y-69170000D01*
X143570000Y-86360000D02*
X140970000Y-86360000D01*
X138370000Y-88960000D02*
X138370000Y-81220000D01*
X140970000Y-86360000D02*
X140970000Y-88960000D01*
X143570000Y-87630000D02*
X143570000Y-88960000D01*
X143570000Y-81220000D02*
X138370000Y-81220000D01*
X140970000Y-88960000D02*
X138370000Y-88960000D01*
X143570000Y-88960000D02*
X142240000Y-88960000D01*
X143570000Y-86360000D02*
X143570000Y-81220000D01*
X143450000Y-77895000D02*
X143450000Y-80195000D01*
X143450000Y-80195000D02*
X139050000Y-80195000D01*
X143450000Y-70595000D02*
X143450000Y-68395000D01*
X143450000Y-68395000D02*
X139050000Y-68395000D01*
X151720000Y-88654000D02*
X151720000Y-90354000D01*
X151720000Y-90354000D02*
X154270000Y-90354000D01*
X151720000Y-88654000D02*
X154270000Y-88654000D01*
D13*
X155800000Y-104100000D02*
X155800000Y-105900000D01*
X155800000Y-105100000D02*
X155900000Y-105100000D01*
X155200000Y-104000000D02*
X155200000Y-103600000D01*
X155200000Y-103600000D02*
X155000000Y-103800000D01*
X154200000Y-104100000D02*
X154200000Y-105900000D01*
X155200000Y-106000000D02*
X155200000Y-106400000D01*
X155200000Y-103600000D02*
X155400000Y-103800000D01*
X154200000Y-105100000D02*
X154100000Y-105100000D01*
D14*
X154300000Y-106100000D02*
G75*
G03*
X154300000Y-106100000I-100000J0D01*
G01*
D12*
X195850000Y-83669999D02*
X195850000Y-84999999D01*
X193250000Y-86329999D02*
X185570000Y-86329999D01*
X193250000Y-83669999D02*
X193250000Y-86329999D01*
X185570000Y-83669999D02*
X185570000Y-86329999D01*
X193250000Y-83669999D02*
X185570000Y-83669999D01*
X194520000Y-83669999D02*
X195850000Y-83669999D01*
X155687500Y-94852258D02*
X155687500Y-94377742D01*
X156732500Y-94852258D02*
X156732500Y-94377742D01*
X155177258Y-98312500D02*
X154702742Y-98312500D01*
X155177258Y-97267500D02*
X154702742Y-97267500D01*
D13*
X186230000Y-97060000D02*
X188030000Y-97060000D01*
X187230000Y-97060000D02*
X187230000Y-97160000D01*
X185730000Y-96060000D02*
X185930000Y-96260000D01*
X186130000Y-96060000D02*
X185730000Y-96060000D01*
X188130000Y-96060000D02*
X188530000Y-96060000D01*
X185730000Y-96060000D02*
X185930000Y-95860000D01*
X186230000Y-95460000D02*
X188030000Y-95460000D01*
X187230000Y-95460000D02*
X187230000Y-95360000D01*
D14*
X188330000Y-97060000D02*
G75*
G03*
X188330000Y-97060000I-100000J0D01*
G01*
D12*
X173340500Y-91677258D02*
X173340500Y-91202742D01*
X174385500Y-91677258D02*
X174385500Y-91202742D01*
X174737500Y-81762742D02*
X174737500Y-82237258D01*
X175782500Y-81762742D02*
X175782500Y-82237258D01*
X158479258Y-69073500D02*
X158004742Y-69073500D01*
X158479258Y-70118500D02*
X158004742Y-70118500D01*
X170815000Y-66735000D02*
X170815000Y-64135000D01*
X168215000Y-66735000D02*
X168215000Y-65405000D01*
X170815000Y-66735000D02*
X173415000Y-66735000D01*
X169545000Y-66735000D02*
X168215000Y-66735000D01*
X173415000Y-66735000D02*
X173415000Y-61535000D01*
X170815000Y-64135000D02*
X168215000Y-64135000D01*
X168215000Y-64135000D02*
X168215000Y-61535000D01*
X168215000Y-61535000D02*
X173415000Y-61535000D01*
X174820000Y-84080000D02*
X174820000Y-90920000D01*
X174820000Y-84080000D02*
X177850000Y-84080000D01*
X174820000Y-90920000D02*
X177850000Y-90920000D01*
X182060000Y-84080000D02*
X182060000Y-90920000D01*
X179150000Y-84080000D02*
X182060000Y-84080000D01*
X179150000Y-90920000D02*
X182060000Y-90920000D01*
X156865000Y-119380000D02*
X156865000Y-121330000D01*
X151745000Y-119380000D02*
X151745000Y-121330000D01*
X151745000Y-119380000D02*
X151745000Y-117430000D01*
X156865000Y-119380000D02*
X156865000Y-115930000D01*
D13*
X185730000Y-61530000D02*
X185930000Y-61730000D01*
X187230000Y-62530000D02*
X187230000Y-62630000D01*
X186230000Y-62530000D02*
X188030000Y-62530000D01*
X186130000Y-61530000D02*
X185730000Y-61530000D01*
X185730000Y-61530000D02*
X185930000Y-61330000D01*
X188130000Y-61530000D02*
X188530000Y-61530000D01*
X187230000Y-60930000D02*
X187230000Y-60830000D01*
X186230000Y-60930000D02*
X188030000Y-60930000D01*
D14*
X188330000Y-62530000D02*
G75*
G03*
X188330000Y-62530000I-100000J0D01*
G01*
D12*
X177912500Y-81762742D02*
X177912500Y-82237258D01*
X178957500Y-81762742D02*
X178957500Y-82237258D01*
X153610000Y-73025000D02*
X153610000Y-83245000D01*
X153610000Y-73025000D02*
X156270000Y-73025000D01*
X153610000Y-71755000D02*
X153610000Y-70425000D01*
X153610000Y-83245000D02*
X156270000Y-83245000D01*
X153610000Y-70425000D02*
X154940000Y-70425000D01*
X140190000Y-68038000D02*
X139190000Y-68038000D01*
X147830000Y-61638000D02*
X147830000Y-61408000D01*
X147830000Y-65438000D02*
X147830000Y-63738000D01*
X147830000Y-68038000D02*
X146830000Y-68038000D01*
X147830000Y-61408000D02*
X139190000Y-61408000D01*
X139190000Y-68038000D02*
X139190000Y-67638000D01*
X139190000Y-61638000D02*
X139190000Y-61408000D01*
X147830000Y-68038000D02*
X147830000Y-67638000D01*
X139190000Y-65438000D02*
X139190000Y-63738000D01*
X156329748Y-115035000D02*
X156852252Y-115035000D01*
X156329748Y-113565000D02*
X156852252Y-113565000D01*
X192419500Y-68817258D02*
X192419500Y-68342742D01*
X191374500Y-68817258D02*
X191374500Y-68342742D01*
X149225000Y-78750000D02*
X151175000Y-78750000D01*
X149225000Y-87620000D02*
X147275000Y-87620000D01*
X149225000Y-87620000D02*
X151175000Y-87620000D01*
X149225000Y-78750000D02*
X145775000Y-78750000D01*
X158977000Y-67800000D02*
X158977000Y-65515000D01*
X158977000Y-65515000D02*
X157507000Y-65515000D01*
X157507000Y-65515000D02*
X157507000Y-67800000D01*
X174820000Y-112785000D02*
X174820000Y-119625000D01*
X182060000Y-112785000D02*
X182060000Y-119625000D01*
X174820000Y-112785000D02*
X177850000Y-112785000D01*
X179150000Y-119625000D02*
X182060000Y-119625000D01*
X174820000Y-119625000D02*
X177850000Y-119625000D01*
X179150000Y-112785000D02*
X182060000Y-112785000D01*
X156530000Y-124605000D02*
X156530000Y-127655000D01*
X153580000Y-124605000D02*
X156530000Y-124605000D01*
X151320000Y-123845000D02*
X151320000Y-131465000D01*
X152080000Y-128155000D02*
X152080000Y-127155000D01*
X157290000Y-131465000D02*
X157290000Y-123845000D01*
X152080000Y-123855000D02*
X151330000Y-123855000D01*
X153580000Y-123855000D02*
X153580000Y-124605000D01*
X151330000Y-131455000D02*
X152080000Y-131455000D01*
X151330000Y-127155000D02*
X151330000Y-128155000D01*
X152080000Y-131455000D02*
X152080000Y-129655000D01*
X151030000Y-130505000D02*
X151030000Y-131755000D01*
X157290000Y-123845000D02*
X151320000Y-123845000D01*
X152080000Y-129655000D02*
X151330000Y-129655000D01*
X151330000Y-128155000D02*
X152080000Y-128155000D01*
X151320000Y-131465000D02*
X157290000Y-131465000D01*
X151330000Y-123855000D02*
X151330000Y-125655000D01*
X153580000Y-131455000D02*
X153580000Y-130705000D01*
X153580000Y-130705000D02*
X156530000Y-130705000D01*
X152080000Y-125655000D02*
X152080000Y-123855000D01*
X151330000Y-129655000D02*
X151330000Y-131455000D01*
X152080000Y-127155000D02*
X151330000Y-127155000D01*
X151330000Y-125655000D02*
X152080000Y-125655000D01*
X156530000Y-130705000D02*
X156530000Y-127655000D01*
X151030000Y-131755000D02*
X152280000Y-131755000D01*
X157507000Y-61507000D02*
X157507000Y-63792000D01*
X158977000Y-61507000D02*
X157507000Y-61507000D01*
X158977000Y-63792000D02*
X158977000Y-61507000D01*
X145058000Y-74080000D02*
X147608000Y-74080000D01*
X145058000Y-75780000D02*
X147608000Y-75780000D01*
X145058000Y-74080000D02*
X145058000Y-75780000D01*
X144257500Y-81644258D02*
X144257500Y-81169742D01*
X145302500Y-81644258D02*
X145302500Y-81169742D01*
X147179420Y-73027000D02*
X147460580Y-73027000D01*
X147179420Y-72007000D02*
X147460580Y-72007000D01*
X147082742Y-70343500D02*
X147557258Y-70343500D01*
X147082742Y-71388500D02*
X147557258Y-71388500D01*
X147082742Y-68692500D02*
X147557258Y-68692500D01*
X147082742Y-69737500D02*
X147557258Y-69737500D01*
X185550000Y-71670000D02*
X185550000Y-74330000D01*
X193230000Y-74330000D02*
X185550000Y-74330000D01*
X193230000Y-71670000D02*
X193230000Y-74330000D01*
X195830000Y-71670000D02*
X195830000Y-73000000D01*
X194500000Y-71670000D02*
X195830000Y-71670000D01*
X193230000Y-71670000D02*
X185550000Y-71670000D01*
%LPC*%
D15*
X187185000Y-76000000D03*
X188735000Y-76000000D03*
D16*
X151257000Y-74295000D03*
D17*
X151257000Y-71755000D03*
D18*
X156210000Y-100190000D03*
X156210000Y-101740000D03*
D19*
X150381000Y-77724000D03*
X148831000Y-77724000D03*
D20*
X144844000Y-77724000D03*
X146494000Y-77724000D03*
D21*
X178460000Y-97540000D03*
X181000000Y-95000000D03*
X178460000Y-92460000D03*
D22*
X155500000Y-111015000D03*
D23*
X154200000Y-111015000D03*
D24*
X152900000Y-111015000D03*
D16*
X178000000Y-70500000D03*
D17*
X178000000Y-73040000D03*
X178000000Y-75580000D03*
X178000000Y-78120000D03*
D16*
X142240000Y-87630000D03*
D17*
X139700000Y-87630000D03*
X142240000Y-85090000D03*
X139700000Y-85090000D03*
X142240000Y-82550000D03*
X139700000Y-82550000D03*
D25*
X139150000Y-76795000D03*
X139150000Y-71795000D03*
D26*
X142900000Y-76745000D03*
X142900000Y-71795000D03*
D27*
X138050000Y-69095000D03*
X138050000Y-79495000D03*
D26*
X142900000Y-74295000D03*
D28*
X152120000Y-89504000D03*
X154320000Y-89504000D03*
D29*
X194500000Y-94000000D03*
D16*
X180975000Y-108087000D03*
D17*
X180975000Y-105547000D03*
X180975000Y-103007000D03*
D30*
X154620000Y-105500000D03*
X155380000Y-105500000D03*
X155380000Y-104500000D03*
X154620000Y-104500000D03*
D29*
X195000000Y-64000000D03*
X151700000Y-133200000D03*
D16*
X194520000Y-84999999D03*
D17*
X191980000Y-84999999D03*
X189440000Y-84999999D03*
X186900000Y-84999999D03*
D31*
X156210000Y-95440000D03*
X156210000Y-93790000D03*
D32*
X155765000Y-97790000D03*
X154115000Y-97790000D03*
D33*
X187630000Y-96640000D03*
X187630000Y-95880000D03*
X186630000Y-95880000D03*
X186630000Y-96640000D03*
D31*
X173863000Y-92265000D03*
X173863000Y-90615000D03*
D34*
X175260000Y-81175000D03*
X175260000Y-82825000D03*
D32*
X159067000Y-69596000D03*
X157417000Y-69596000D03*
D16*
X169545000Y-65405000D03*
D17*
X169545000Y-62865000D03*
X172085000Y-65405000D03*
X172085000Y-62865000D03*
D21*
X178500000Y-90040000D03*
X181040000Y-87500000D03*
X178500000Y-84960000D03*
D35*
X156210000Y-116905000D03*
X154940000Y-116905000D03*
X153670000Y-116905000D03*
X152400000Y-116905000D03*
X152400000Y-121855000D03*
X153670000Y-121855000D03*
X154940000Y-121855000D03*
X156210000Y-121855000D03*
D33*
X187630000Y-62110000D03*
X187630000Y-61350000D03*
X186630000Y-61350000D03*
X186630000Y-62110000D03*
D34*
X178435000Y-81175000D03*
X178435000Y-82825000D03*
D36*
X154500000Y-136500000D03*
D16*
X154940000Y-71755000D03*
D17*
X154940000Y-74295000D03*
X154940000Y-76835000D03*
X154940000Y-79375000D03*
X154940000Y-81915000D03*
D29*
X141500000Y-62500000D03*
D37*
X144010000Y-66938000D03*
D38*
X141985000Y-66938000D03*
D39*
X140760000Y-66938000D03*
D37*
X143010000Y-66938000D03*
D40*
X145030000Y-66938000D03*
D38*
X146235000Y-66938000D03*
D41*
X139190000Y-66538000D03*
X139190000Y-62738000D03*
X147830000Y-62738000D03*
X147830000Y-66538000D03*
D16*
X173355000Y-109347000D03*
D17*
X173355000Y-106807000D03*
X173355000Y-104267000D03*
X173355000Y-101727000D03*
D42*
X155641000Y-114300000D03*
X157541000Y-114300000D03*
D31*
X191897000Y-69405000D03*
X191897000Y-67755000D03*
D43*
X146750000Y-79375000D03*
X146750000Y-80645000D03*
X146750000Y-81915000D03*
X146750000Y-83185000D03*
X146750000Y-84455000D03*
X146750000Y-85725000D03*
X146750000Y-86995000D03*
X151700000Y-86995000D03*
X151700000Y-85725000D03*
X151700000Y-84455000D03*
X151700000Y-83185000D03*
X151700000Y-81915000D03*
X151700000Y-80645000D03*
X151700000Y-79375000D03*
D44*
X158242000Y-66212500D03*
X158242000Y-67787500D03*
D21*
X178500000Y-118745000D03*
X181040000Y-116205000D03*
X178500000Y-113665000D03*
D45*
X153780000Y-128905000D03*
D46*
X153780000Y-126405000D03*
D44*
X158242000Y-62204500D03*
X158242000Y-63779500D03*
D28*
X145458000Y-74930000D03*
X147658000Y-74930000D03*
D31*
X144780000Y-82232000D03*
X144780000Y-80582000D03*
D15*
X146545000Y-72517000D03*
X148095000Y-72517000D03*
D20*
X146495000Y-70866000D03*
X148145000Y-70866000D03*
D47*
X154300000Y-62500000D03*
X154300000Y-65000000D03*
X154300000Y-67500000D03*
X151000000Y-62500000D03*
X151000000Y-65000000D03*
X151000000Y-67500000D03*
D20*
X146495000Y-69215000D03*
X148145000Y-69215000D03*
D16*
X194500000Y-73000000D03*
D17*
X191960000Y-73000000D03*
X189420000Y-73000000D03*
X186880000Y-73000000D03*
D47*
X198000000Y-85435120D03*
X200500000Y-85435120D03*
X203000000Y-85435120D03*
X198000000Y-82135120D03*
X200500000Y-82135120D03*
X203000000Y-82135120D03*
M02*
