<?xml version="1.0" standalone="no"?>
 <!DOCTYPE svg PUBLIC "-//W3C//DTD SVG 1.1//EN" 
 "http://www.w3.org/Graphics/SVG/1.1/DTD/svg11.dtd"> 
<svg
  xmlns:svg="http://www.w3.org/2000/svg"
  xmlns="http://www.w3.org/2000/svg"
  xmlns:xlink="http://www.w3.org/1999/xlink"
  version="1.1"
  width="6.903720cm" height="8.008620cm" viewBox="0 0 69037200 80086200">
<title>SVG Picture created as AutoFeeder_Drum-type-F_Paste.svg date 2024/01/08 11:50:13 </title>
  <desc>Picture generated by PCBNEW </desc>
<g style="fill:#000000; fill-opacity:1.000000;stroke:#000000; stroke-opacity:1.000000;
stroke-linecap:round; stroke-linejoin:round;"
 transform="translate(0 0) scale(1 1)">
</g>
<g style="fill:#000000; fill-opacity:0.0; 
stroke:#000000; stroke-width:0.000000; stroke-opacity:1; 
stroke-linecap:round; stroke-linejoin:round;">
<g >
</g>
<g style="fill:#000000; fill-opacity:0.0; 
stroke:#000000; stroke-width:1.000000; stroke-opacity:1; 
stroke-linecap:round; stroke-linejoin:round;">
</g>
<g style="fill:#000000; fill-opacity:1.0; 
stroke:#000000; stroke-width:1.000000; stroke-opacity:1; 
stroke-linecap:round; stroke-linejoin:round;">
<path style="fill:#000000; fill-opacity:1.0; 
stroke:#000000; stroke-width:1.000000; stroke-opacity:1; 
stroke-linecap:round; stroke-linejoin:round;fill-rule:evenodd;"
d="M 21806250.000000,5825000.000000
21889962.000000,5841651.000000
21960930.000000,5889070.000000
22008349.000000,5960038.000000
22025000.000000,6043750.000000
22025000.000000,6481250.000000
22008349.000000,6564962.000000
21960930.000000,6635930.000000
21889962.000000,6683349.000000
21806250.000000,6700000.000000
21293750.000000,6700000.000000
21210038.000000,6683349.000000
21139070.000000,6635930.000000
21091651.000000,6564962.000000
21075000.000000,6481250.000000
21075000.000000,6043750.000000
21091651.000000,5960038.000000
21139070.000000,5889070.000000
21210038.000000,5841651.000000
21293750.000000,5825000.000000
Z" /> 
<path style="fill:#000000; fill-opacity:1.0; 
stroke:#000000; stroke-width:1.000000; stroke-opacity:1; 
stroke-linecap:round; stroke-linejoin:round;fill-rule:evenodd;"
d="M 21806250.000000,7400000.000000
21889962.000000,7416651.000000
21960930.000000,7464070.000000
22008349.000000,7535038.000000
22025000.000000,7618750.000000
22025000.000000,8056250.000000
22008349.000000,8139962.000000
21960930.000000,8210930.000000
21889962.000000,8258349.000000
21806250.000000,8275000.000000
21293750.000000,8275000.000000
21210038.000000,8258349.000000
21139070.000000,8210930.000000
21091651.000000,8139962.000000
21075000.000000,8056250.000000
21075000.000000,7618750.000000
21091651.000000,7535038.000000
21139070.000000,7464070.000000
21210038.000000,7416651.000000
21293750.000000,7400000.000000
Z" /> 
</g>
<g >
</g>
<g style="fill:#000000; fill-opacity:1.0; 
stroke:#000000; stroke-width:1.000000; stroke-opacity:1; 
stroke-linecap:round; stroke-linejoin:round;">
<path style="fill:#000000; fill-opacity:1.0; 
stroke:#000000; stroke-width:1.000000; stroke-opacity:1; 
stroke-linecap:round; stroke-linejoin:round;fill-rule:evenodd;"
d="M 50285000.000000,15800000.000000
50302127.000000,15713896.000000
50350901.000000,15640901.000000
50423896.000000,15592127.000000
50510000.000000,15575000.000000
50960000.000000,15575000.000000
51046104.000000,15592127.000000
51119099.000000,15640901.000000
51167873.000000,15713896.000000
51185000.000000,15800000.000000
51185000.000000,16300000.000000
51167873.000000,16386104.000000
51119099.000000,16459099.000000
51046104.000000,16507873.000000
50960000.000000,16525000.000000
50510000.000000,16525000.000000
50423896.000000,16507873.000000
50350901.000000,16459099.000000
50302127.000000,16386104.000000
50285000.000000,16300000.000000
Z" /> 
<path style="fill:#000000; fill-opacity:1.0; 
stroke:#000000; stroke-width:1.000000; stroke-opacity:1; 
stroke-linecap:round; stroke-linejoin:round;fill-rule:evenodd;"
d="M 51835000.000000,15800000.000000
51852127.000000,15713896.000000
51900901.000000,15640901.000000
51973896.000000,15592127.000000
52060000.000000,15575000.000000
52510000.000000,15575000.000000
52596104.000000,15592127.000000
52669099.000000,15640901.000000
52717873.000000,15713896.000000
52735000.000000,15800000.000000
52735000.000000,16300000.000000
52717873.000000,16386104.000000
52669099.000000,16459099.000000
52596104.000000,16507873.000000
52510000.000000,16525000.000000
52060000.000000,16525000.000000
51973896.000000,16507873.000000
51900901.000000,16459099.000000
51852127.000000,16386104.000000
51835000.000000,16300000.000000
Z" /> 
</g>
<g >
</g>
<g >
</g>
<g style="fill:#000000; fill-opacity:1.0; 
stroke:#000000; stroke-width:1.000000; stroke-opacity:1; 
stroke-linecap:round; stroke-linejoin:round;">
<path style="fill:#000000; fill-opacity:1.0; 
stroke:#000000; stroke-width:1.000000; stroke-opacity:1; 
stroke-linecap:round; stroke-linejoin:round;fill-rule:evenodd;"
d="M 20010000.000000,39790000.000000
20096104.000000,39807127.000000
20169099.000000,39855901.000000
20217873.000000,39928896.000000
20235000.000000,40015000.000000
20235000.000000,40465000.000000
20217873.000000,40551104.000000
20169099.000000,40624099.000000
20096104.000000,40672873.000000
20010000.000000,40690000.000000
19510000.000000,40690000.000000
19423896.000000,40672873.000000
19350901.000000,40624099.000000
19302127.000000,40551104.000000
19285000.000000,40465000.000000
19285000.000000,40015000.000000
19302127.000000,39928896.000000
19350901.000000,39855901.000000
19423896.000000,39807127.000000
19510000.000000,39790000.000000
Z" /> 
<path style="fill:#000000; fill-opacity:1.0; 
stroke:#000000; stroke-width:1.000000; stroke-opacity:1; 
stroke-linecap:round; stroke-linejoin:round;fill-rule:evenodd;"
d="M 20010000.000000,41340000.000000
20096104.000000,41357127.000000
20169099.000000,41405901.000000
20217873.000000,41478896.000000
20235000.000000,41565000.000000
20235000.000000,42015000.000000
20217873.000000,42101104.000000
20169099.000000,42174099.000000
20096104.000000,42222873.000000
20010000.000000,42240000.000000
19510000.000000,42240000.000000
19423896.000000,42222873.000000
19350901.000000,42174099.000000
19302127.000000,42101104.000000
19285000.000000,42015000.000000
19285000.000000,41565000.000000
19302127.000000,41478896.000000
19350901.000000,41405901.000000
19423896.000000,41357127.000000
19510000.000000,41340000.000000
Z" /> 
</g>
<g >
</g>
<g style="fill:#000000; fill-opacity:1.0; 
stroke:#000000; stroke-width:1.000000; stroke-opacity:1; 
stroke-linecap:round; stroke-linejoin:round;">
<path style="fill:#000000; fill-opacity:1.0; 
stroke:#000000; stroke-width:1.000000; stroke-opacity:1; 
stroke-linecap:round; stroke-linejoin:round;fill-rule:evenodd;"
d="M 14381000.000000,18024000.000000
14363873.000000,18110104.000000
14315099.000000,18183099.000000
14242104.000000,18231873.000000
14156000.000000,18249000.000000
13706000.000000,18249000.000000
13619896.000000,18231873.000000
13546901.000000,18183099.000000
13498127.000000,18110104.000000
13481000.000000,18024000.000000
13481000.000000,17524000.000000
13498127.000000,17437896.000000
13546901.000000,17364901.000000
13619896.000000,17316127.000000
13706000.000000,17299000.000000
14156000.000000,17299000.000000
14242104.000000,17316127.000000
14315099.000000,17364901.000000
14363873.000000,17437896.000000
14381000.000000,17524000.000000
Z" /> 
<path style="fill:#000000; fill-opacity:1.0; 
stroke:#000000; stroke-width:1.000000; stroke-opacity:1; 
stroke-linecap:round; stroke-linejoin:round;fill-rule:evenodd;"
d="M 12831000.000000,18024000.000000
12813873.000000,18110104.000000
12765099.000000,18183099.000000
12692104.000000,18231873.000000
12606000.000000,18249000.000000
12156000.000000,18249000.000000
12069896.000000,18231873.000000
11996901.000000,18183099.000000
11948127.000000,18110104.000000
11931000.000000,18024000.000000
11931000.000000,17524000.000000
11948127.000000,17437896.000000
11996901.000000,17364901.000000
12069896.000000,17316127.000000
12156000.000000,17299000.000000
12606000.000000,17299000.000000
12692104.000000,17316127.000000
12765099.000000,17364901.000000
12813873.000000,17437896.000000
12831000.000000,17524000.000000
Z" /> 
</g>
<g >
</g>
<g style="fill:#000000; fill-opacity:1.0; 
stroke:#000000; stroke-width:1.000000; stroke-opacity:1; 
stroke-linecap:round; stroke-linejoin:round;">
<path style="fill:#000000; fill-opacity:1.0; 
stroke:#000000; stroke-width:1.000000; stroke-opacity:1; 
stroke-linecap:round; stroke-linejoin:round;fill-rule:evenodd;"
d="M 7994000.000000,17245000.000000
8009224.000000,17168463.000000
8052579.000000,17103579.000000
8117463.000000,17060224.000000
8194000.000000,17045000.000000
8594000.000000,17045000.000000
8670537.000000,17060224.000000
8735421.000000,17103579.000000
8778776.000000,17168463.000000
8794000.000000,17245000.000000
8794000.000000,17795000.000000
8778776.000000,17871537.000000
8735421.000000,17936421.000000
8670537.000000,17979776.000000
8594000.000000,17995000.000000
8194000.000000,17995000.000000
8117463.000000,17979776.000000
8052579.000000,17936421.000000
8009224.000000,17871537.000000
7994000.000000,17795000.000000
Z" /> 
<path style="fill:#000000; fill-opacity:1.0; 
stroke:#000000; stroke-width:1.000000; stroke-opacity:1; 
stroke-linecap:round; stroke-linejoin:round;fill-rule:evenodd;"
d="M 9644000.000000,17245000.000000
9659224.000000,17168463.000000
9702579.000000,17103579.000000
9767463.000000,17060224.000000
9844000.000000,17045000.000000
10244000.000000,17045000.000000
10320537.000000,17060224.000000
10385421.000000,17103579.000000
10428776.000000,17168463.000000
10444000.000000,17245000.000000
10444000.000000,17795000.000000
10428776.000000,17871537.000000
10385421.000000,17936421.000000
10320537.000000,17979776.000000
10244000.000000,17995000.000000
9844000.000000,17995000.000000
9767463.000000,17979776.000000
9702579.000000,17936421.000000
9659224.000000,17871537.000000
9644000.000000,17795000.000000
Z" /> 
</g>
<g >
</g>
<g >
</g>
<g >
</g>
<g >
</g>
<g style="fill:#000000; fill-opacity:1.0; 
stroke:#000000; stroke-width:1.000000; stroke-opacity:1; 
stroke-linecap:round; stroke-linejoin:round;">
<path style="fill:#000000; fill-opacity:1.0; 
stroke:#000000; stroke-width:1.000000; stroke-opacity:1; 
stroke-linecap:round; stroke-linejoin:round;fill-rule:evenodd;"
d="M 7350000.000000,16550000.000000
7350000.000000,18450000.000000
5550000.000000,18450000.000000
5550000.000000,16550000.000000
Z" /> 
<path style="fill:#000000; fill-opacity:1.0; 
stroke:#000000; stroke-width:1.000000; stroke-opacity:1; 
stroke-linecap:round; stroke-linejoin:round;fill-rule:evenodd;"
d="M 7350000.000000,11600000.000000
7350000.000000,13500000.000000
5550000.000000,13500000.000000
5550000.000000,11600000.000000
Z" /> 
<path style="fill:#000000; fill-opacity:1.0; 
stroke:#000000; stroke-width:1.000000; stroke-opacity:1; 
stroke-linecap:round; stroke-linejoin:round;fill-rule:evenodd;"
d="M 2450000.000000,8950000.000000
2450000.000000,10750000.000000
750000.000000,10750000.000000
750000.000000,8950000.000000
Z" /> 
<path style="fill:#000000; fill-opacity:1.0; 
stroke:#000000; stroke-width:1.000000; stroke-opacity:1; 
stroke-linecap:round; stroke-linejoin:round;fill-rule:evenodd;"
d="M 2450000.000000,19350000.000000
2450000.000000,21150000.000000
750000.000000,21150000.000000
750000.000000,19350000.000000
Z" /> 
<path style="fill:#000000; fill-opacity:1.0; 
stroke:#000000; stroke-width:1.000000; stroke-opacity:1; 
stroke-linecap:round; stroke-linejoin:round;fill-rule:evenodd;"
d="M 7350000.000000,14100000.000000
7350000.000000,16000000.000000
5550000.000000,16000000.000000
5550000.000000,14100000.000000
Z" /> 
</g>
<g >
</g>
<g >
</g>
<g >
</g>
<g >
</g>
<g >
</g>
<g style="fill:#000000; fill-opacity:1.0; 
stroke:#000000; stroke-width:1.000000; stroke-opacity:1; 
stroke-linecap:round; stroke-linejoin:round;">
<path style="fill:#000000; fill-opacity:1.0; 
stroke:#000000; stroke-width:1.000000; stroke-opacity:1; 
stroke-linecap:round; stroke-linejoin:round;fill-rule:evenodd;"
d="M 17970000.000000,45225000.000000
18370000.000000,45225000.000000
18370000.000000,45875000.000000
17970000.000000,45875000.000000
Z" /> 
<path style="fill:#000000; fill-opacity:1.0; 
stroke:#000000; stroke-width:1.000000; stroke-opacity:1; 
stroke-linecap:round; stroke-linejoin:round;fill-rule:evenodd;"
d="M 18730000.000000,45225000.000000
19130000.000000,45225000.000000
19130000.000000,45875000.000000
18730000.000000,45875000.000000
Z" /> 
<path style="fill:#000000; fill-opacity:1.0; 
stroke:#000000; stroke-width:1.000000; stroke-opacity:1; 
stroke-linecap:round; stroke-linejoin:round;fill-rule:evenodd;"
d="M 18730000.000000,44225000.000000
19130000.000000,44225000.000000
19130000.000000,44875000.000000
18730000.000000,44875000.000000
Z" /> 
<path style="fill:#000000; fill-opacity:1.0; 
stroke:#000000; stroke-width:1.000000; stroke-opacity:1; 
stroke-linecap:round; stroke-linejoin:round;fill-rule:evenodd;"
d="M 17970000.000000,44225000.000000
18370000.000000,44225000.000000
18370000.000000,44875000.000000
17970000.000000,44875000.000000
Z" /> 
</g>
<g >
</g>
<g >
</g>
<g >
</g>
<g >
</g>
<g >
</g>
<g style="fill:#000000; fill-opacity:1.0; 
stroke:#000000; stroke-width:1.000000; stroke-opacity:1; 
stroke-linecap:round; stroke-linejoin:round;">
<path style="fill:#000000; fill-opacity:1.0; 
stroke:#000000; stroke-width:1.000000; stroke-opacity:1; 
stroke-linecap:round; stroke-linejoin:round;fill-rule:evenodd;"
d="M 19485000.000000,35890000.000000
19408463.000000,35874776.000000
19343579.000000,35831421.000000
19300224.000000,35766537.000000
19285000.000000,35690000.000000
19285000.000000,35290000.000000
19300224.000000,35213463.000000
19343579.000000,35148579.000000
19408463.000000,35105224.000000
19485000.000000,35090000.000000
20035000.000000,35090000.000000
20111537.000000,35105224.000000
20176421.000000,35148579.000000
20219776.000000,35213463.000000
20235000.000000,35290000.000000
20235000.000000,35690000.000000
20219776.000000,35766537.000000
20176421.000000,35831421.000000
20111537.000000,35874776.000000
20035000.000000,35890000.000000
Z" /> 
<path style="fill:#000000; fill-opacity:1.0; 
stroke:#000000; stroke-width:1.000000; stroke-opacity:1; 
stroke-linecap:round; stroke-linejoin:round;fill-rule:evenodd;"
d="M 19485000.000000,34240000.000000
19408463.000000,34224776.000000
19343579.000000,34181421.000000
19300224.000000,34116537.000000
19285000.000000,34040000.000000
19285000.000000,33640000.000000
19300224.000000,33563463.000000
19343579.000000,33498579.000000
19408463.000000,33455224.000000
19485000.000000,33440000.000000
20035000.000000,33440000.000000
20111537.000000,33455224.000000
20176421.000000,33498579.000000
20219776.000000,33563463.000000
20235000.000000,33640000.000000
20235000.000000,34040000.000000
20219776.000000,34116537.000000
20176421.000000,34181421.000000
20111537.000000,34224776.000000
20035000.000000,34240000.000000
Z" /> 
</g>
<g >
</g>
<g style="fill:#000000; fill-opacity:1.0; 
stroke:#000000; stroke-width:1.000000; stroke-opacity:1; 
stroke-linecap:round; stroke-linejoin:round;">
<path style="fill:#000000; fill-opacity:1.0; 
stroke:#000000; stroke-width:1.000000; stroke-opacity:1; 
stroke-linecap:round; stroke-linejoin:round;fill-rule:evenodd;"
d="M 19715000.000000,38115000.000000
19699776.000000,38191537.000000
19656421.000000,38256421.000000
19591537.000000,38299776.000000
19515000.000000,38315000.000000
19115000.000000,38315000.000000
19038463.000000,38299776.000000
18973579.000000,38256421.000000
18930224.000000,38191537.000000
18915000.000000,38115000.000000
18915000.000000,37565000.000000
18930224.000000,37488463.000000
18973579.000000,37423579.000000
19038463.000000,37380224.000000
19115000.000000,37365000.000000
19515000.000000,37365000.000000
19591537.000000,37380224.000000
19656421.000000,37423579.000000
19699776.000000,37488463.000000
19715000.000000,37565000.000000
Z" /> 
<path style="fill:#000000; fill-opacity:1.0; 
stroke:#000000; stroke-width:1.000000; stroke-opacity:1; 
stroke-linecap:round; stroke-linejoin:round;fill-rule:evenodd;"
d="M 18065000.000000,38115000.000000
18049776.000000,38191537.000000
18006421.000000,38256421.000000
17941537.000000,38299776.000000
17865000.000000,38315000.000000
17465000.000000,38315000.000000
17388463.000000,38299776.000000
17323579.000000,38256421.000000
17280224.000000,38191537.000000
17265000.000000,38115000.000000
17265000.000000,37565000.000000
17280224.000000,37488463.000000
17323579.000000,37423579.000000
17388463.000000,37380224.000000
17465000.000000,37365000.000000
17865000.000000,37365000.000000
17941537.000000,37380224.000000
18006421.000000,37423579.000000
18049776.000000,37488463.000000
18065000.000000,37565000.000000
Z" /> 
</g>
<g >
</g>
<g style="fill:#000000; fill-opacity:1.0; 
stroke:#000000; stroke-width:1.000000; stroke-opacity:1; 
stroke-linecap:round; stroke-linejoin:round;">
<path style="fill:#000000; fill-opacity:1.0; 
stroke:#000000; stroke-width:1.000000; stroke-opacity:1; 
stroke-linecap:round; stroke-linejoin:round;fill-rule:evenodd;"
d="M 50855000.000000,36890000.000000
50855000.000000,36490000.000000
51505000.000000,36490000.000000
51505000.000000,36890000.000000
Z" /> 
<path style="fill:#000000; fill-opacity:1.0; 
stroke:#000000; stroke-width:1.000000; stroke-opacity:1; 
stroke-linecap:round; stroke-linejoin:round;fill-rule:evenodd;"
d="M 50855000.000000,36130000.000000
50855000.000000,35730000.000000
51505000.000000,35730000.000000
51505000.000000,36130000.000000
Z" /> 
<path style="fill:#000000; fill-opacity:1.0; 
stroke:#000000; stroke-width:1.000000; stroke-opacity:1; 
stroke-linecap:round; stroke-linejoin:round;fill-rule:evenodd;"
d="M 49855000.000000,36130000.000000
49855000.000000,35730000.000000
50505000.000000,35730000.000000
50505000.000000,36130000.000000
Z" /> 
<path style="fill:#000000; fill-opacity:1.0; 
stroke:#000000; stroke-width:1.000000; stroke-opacity:1; 
stroke-linecap:round; stroke-linejoin:round;fill-rule:evenodd;"
d="M 49855000.000000,36890000.000000
49855000.000000,36490000.000000
50505000.000000,36490000.000000
50505000.000000,36890000.000000
Z" /> 
</g>
<g >
</g>
<g style="fill:#000000; fill-opacity:1.0; 
stroke:#000000; stroke-width:1.000000; stroke-opacity:1; 
stroke-linecap:round; stroke-linejoin:round;">
<path style="fill:#000000; fill-opacity:1.0; 
stroke:#000000; stroke-width:1.000000; stroke-opacity:1; 
stroke-linecap:round; stroke-linejoin:round;fill-rule:evenodd;"
d="M 37138000.000000,58115000.000000
37061463.000000,58099776.000000
36996579.000000,58056421.000000
36953224.000000,57991537.000000
36938000.000000,57915000.000000
36938000.000000,57515000.000000
36953224.000000,57438463.000000
36996579.000000,57373579.000000
37061463.000000,57330224.000000
37138000.000000,57315000.000000
37688000.000000,57315000.000000
37764537.000000,57330224.000000
37829421.000000,57373579.000000
37872776.000000,57438463.000000
37888000.000000,57515000.000000
37888000.000000,57915000.000000
37872776.000000,57991537.000000
37829421.000000,58056421.000000
37764537.000000,58099776.000000
37688000.000000,58115000.000000
Z" /> 
<path style="fill:#000000; fill-opacity:1.0; 
stroke:#000000; stroke-width:1.000000; stroke-opacity:1; 
stroke-linecap:round; stroke-linejoin:round;fill-rule:evenodd;"
d="M 37138000.000000,56465000.000000
37061463.000000,56449776.000000
36996579.000000,56406421.000000
36953224.000000,56341537.000000
36938000.000000,56265000.000000
36938000.000000,55865000.000000
36953224.000000,55788463.000000
36996579.000000,55723579.000000
37061463.000000,55680224.000000
37138000.000000,55665000.000000
37688000.000000,55665000.000000
37764537.000000,55680224.000000
37829421.000000,55723579.000000
37872776.000000,55788463.000000
37888000.000000,55865000.000000
37888000.000000,56265000.000000
37872776.000000,56341537.000000
37829421.000000,56406421.000000
37764537.000000,56449776.000000
37688000.000000,56465000.000000
Z" /> 
</g>
<g >
</g>
<g style="fill:#000000; fill-opacity:1.0; 
stroke:#000000; stroke-width:1.000000; stroke-opacity:1; 
stroke-linecap:round; stroke-linejoin:round;">
<path style="fill:#000000; fill-opacity:1.0; 
stroke:#000000; stroke-width:1.000000; stroke-opacity:1; 
stroke-linecap:round; stroke-linejoin:round;fill-rule:evenodd;"
d="M 39085000.000000,20825000.000000
39161537.000000,20840224.000000
39226421.000000,20883579.000000
39269776.000000,20948463.000000
39285000.000000,21025000.000000
39285000.000000,21425000.000000
39269776.000000,21501537.000000
39226421.000000,21566421.000000
39161537.000000,21609776.000000
39085000.000000,21625000.000000
38535000.000000,21625000.000000
38458463.000000,21609776.000000
38393579.000000,21566421.000000
38350224.000000,21501537.000000
38335000.000000,21425000.000000
38335000.000000,21025000.000000
38350224.000000,20948463.000000
38393579.000000,20883579.000000
38458463.000000,20840224.000000
38535000.000000,20825000.000000
Z" /> 
<path style="fill:#000000; fill-opacity:1.0; 
stroke:#000000; stroke-width:1.000000; stroke-opacity:1; 
stroke-linecap:round; stroke-linejoin:round;fill-rule:evenodd;"
d="M 39085000.000000,22475000.000000
39161537.000000,22490224.000000
39226421.000000,22533579.000000
39269776.000000,22598463.000000
39285000.000000,22675000.000000
39285000.000000,23075000.000000
39269776.000000,23151537.000000
39226421.000000,23216421.000000
39161537.000000,23259776.000000
39085000.000000,23275000.000000
38535000.000000,23275000.000000
38458463.000000,23259776.000000
38393579.000000,23216421.000000
38350224.000000,23151537.000000
38335000.000000,23075000.000000
38335000.000000,22675000.000000
38350224.000000,22598463.000000
38393579.000000,22533579.000000
38458463.000000,22490224.000000
38535000.000000,22475000.000000
Z" /> 
</g>
<g >
</g>
<g style="fill:#000000; fill-opacity:1.0; 
stroke:#000000; stroke-width:1.000000; stroke-opacity:1; 
stroke-linecap:round; stroke-linejoin:round;">
<path style="fill:#000000; fill-opacity:1.0; 
stroke:#000000; stroke-width:1.000000; stroke-opacity:1; 
stroke-linecap:round; stroke-linejoin:round;fill-rule:evenodd;"
d="M 21367000.000000,9921000.000000
21351776.000000,9997537.000000
21308421.000000,10062421.000000
21243537.000000,10105776.000000
21167000.000000,10121000.000000
20767000.000000,10121000.000000
20690463.000000,10105776.000000
20625579.000000,10062421.000000
20582224.000000,9997537.000000
20567000.000000,9921000.000000
20567000.000000,9371000.000000
20582224.000000,9294463.000000
20625579.000000,9229579.000000
20690463.000000,9186224.000000
20767000.000000,9171000.000000
21167000.000000,9171000.000000
21243537.000000,9186224.000000
21308421.000000,9229579.000000
21351776.000000,9294463.000000
21367000.000000,9371000.000000
Z" /> 
<path style="fill:#000000; fill-opacity:1.0; 
stroke:#000000; stroke-width:1.000000; stroke-opacity:1; 
stroke-linecap:round; stroke-linejoin:round;fill-rule:evenodd;"
d="M 23017000.000000,9921000.000000
23001776.000000,9997537.000000
22958421.000000,10062421.000000
22893537.000000,10105776.000000
22817000.000000,10121000.000000
22417000.000000,10121000.000000
22340463.000000,10105776.000000
22275579.000000,10062421.000000
22232224.000000,9997537.000000
22217000.000000,9921000.000000
22217000.000000,9371000.000000
22232224.000000,9294463.000000
22275579.000000,9229579.000000
22340463.000000,9186224.000000
22417000.000000,9171000.000000
22817000.000000,9171000.000000
22893537.000000,9186224.000000
22958421.000000,9229579.000000
23001776.000000,9294463.000000
23017000.000000,9371000.000000
Z" /> 
</g>
<g >
</g>
<g >
</g>
<g >
</g>
<g >
</g>
<g style="fill:#000000; fill-opacity:1.0; 
stroke:#000000; stroke-width:1.000000; stroke-opacity:1; 
stroke-linecap:round; stroke-linejoin:round;">
<path style="fill:#000000; fill-opacity:1.0; 
stroke:#000000; stroke-width:1.000000; stroke-opacity:1; 
stroke-linecap:round; stroke-linejoin:round;fill-rule:evenodd;"
d="M 19910000.000000,62965000.000000
19967403.000000,62976418.000000
20016066.000000,63008934.000000
20048582.000000,63057597.000000
20060000.000000,63115000.000000
20060000.000000,64765000.000000
20048582.000000,64822403.000000
20016066.000000,64871066.000000
19967403.000000,64903582.000000
19910000.000000,64915000.000000
19610000.000000,64915000.000000
19552597.000000,64903582.000000
19503934.000000,64871066.000000
19471418.000000,64822403.000000
19460000.000000,64765000.000000
19460000.000000,63115000.000000
19471418.000000,63057597.000000
19503934.000000,63008934.000000
19552597.000000,62976418.000000
19610000.000000,62965000.000000
Z" /> 
<path style="fill:#000000; fill-opacity:1.0; 
stroke:#000000; stroke-width:1.000000; stroke-opacity:1; 
stroke-linecap:round; stroke-linejoin:round;fill-rule:evenodd;"
d="M 18640000.000000,62965000.000000
18697403.000000,62976418.000000
18746066.000000,63008934.000000
18778582.000000,63057597.000000
18790000.000000,63115000.000000
18790000.000000,64765000.000000
18778582.000000,64822403.000000
18746066.000000,64871066.000000
18697403.000000,64903582.000000
18640000.000000,64915000.000000
18340000.000000,64915000.000000
18282597.000000,64903582.000000
18233934.000000,64871066.000000
18201418.000000,64822403.000000
18190000.000000,64765000.000000
18190000.000000,63115000.000000
18201418.000000,63057597.000000
18233934.000000,63008934.000000
18282597.000000,62976418.000000
18340000.000000,62965000.000000
Z" /> 
<path style="fill:#000000; fill-opacity:1.0; 
stroke:#000000; stroke-width:1.000000; stroke-opacity:1; 
stroke-linecap:round; stroke-linejoin:round;fill-rule:evenodd;"
d="M 17370000.000000,62965000.000000
17427403.000000,62976418.000000
17476066.000000,63008934.000000
17508582.000000,63057597.000000
17520000.000000,63115000.000000
17520000.000000,64765000.000000
17508582.000000,64822403.000000
17476066.000000,64871066.000000
17427403.000000,64903582.000000
17370000.000000,64915000.000000
17070000.000000,64915000.000000
17012597.000000,64903582.000000
16963934.000000,64871066.000000
16931418.000000,64822403.000000
16920000.000000,64765000.000000
16920000.000000,63115000.000000
16931418.000000,63057597.000000
16963934.000000,63008934.000000
17012597.000000,62976418.000000
17070000.000000,62965000.000000
Z" /> 
<path style="fill:#000000; fill-opacity:1.0; 
stroke:#000000; stroke-width:1.000000; stroke-opacity:1; 
stroke-linecap:round; stroke-linejoin:round;fill-rule:evenodd;"
d="M 16100000.000000,62965000.000000
16157403.000000,62976418.000000
16206066.000000,63008934.000000
16238582.000000,63057597.000000
16250000.000000,63115000.000000
16250000.000000,64765000.000000
16238582.000000,64822403.000000
16206066.000000,64871066.000000
16157403.000000,64903582.000000
16100000.000000,64915000.000000
15800000.000000,64915000.000000
15742597.000000,64903582.000000
15693934.000000,64871066.000000
15661418.000000,64822403.000000
15650000.000000,64765000.000000
15650000.000000,63115000.000000
15661418.000000,63057597.000000
15693934.000000,63008934.000000
15742597.000000,62976418.000000
15800000.000000,62965000.000000
Z" /> 
<path style="fill:#000000; fill-opacity:1.0; 
stroke:#000000; stroke-width:1.000000; stroke-opacity:1; 
stroke-linecap:round; stroke-linejoin:round;fill-rule:evenodd;"
d="M 16100000.000000,67915000.000000
16157403.000000,67926418.000000
16206066.000000,67958934.000000
16238582.000000,68007597.000000
16250000.000000,68065000.000000
16250000.000000,69715000.000000
16238582.000000,69772403.000000
16206066.000000,69821066.000000
16157403.000000,69853582.000000
16100000.000000,69865000.000000
15800000.000000,69865000.000000
15742597.000000,69853582.000000
15693934.000000,69821066.000000
15661418.000000,69772403.000000
15650000.000000,69715000.000000
15650000.000000,68065000.000000
15661418.000000,68007597.000000
15693934.000000,67958934.000000
15742597.000000,67926418.000000
15800000.000000,67915000.000000
Z" /> 
<path style="fill:#000000; fill-opacity:1.0; 
stroke:#000000; stroke-width:1.000000; stroke-opacity:1; 
stroke-linecap:round; stroke-linejoin:round;fill-rule:evenodd;"
d="M 17370000.000000,67915000.000000
17427403.000000,67926418.000000
17476066.000000,67958934.000000
17508582.000000,68007597.000000
17520000.000000,68065000.000000
17520000.000000,69715000.000000
17508582.000000,69772403.000000
17476066.000000,69821066.000000
17427403.000000,69853582.000000
17370000.000000,69865000.000000
17070000.000000,69865000.000000
17012597.000000,69853582.000000
16963934.000000,69821066.000000
16931418.000000,69772403.000000
16920000.000000,69715000.000000
16920000.000000,68065000.000000
16931418.000000,68007597.000000
16963934.000000,67958934.000000
17012597.000000,67926418.000000
17070000.000000,67915000.000000
Z" /> 
<path style="fill:#000000; fill-opacity:1.0; 
stroke:#000000; stroke-width:1.000000; stroke-opacity:1; 
stroke-linecap:round; stroke-linejoin:round;fill-rule:evenodd;"
d="M 18640000.000000,67915000.000000
18697403.000000,67926418.000000
18746066.000000,67958934.000000
18778582.000000,68007597.000000
18790000.000000,68065000.000000
18790000.000000,69715000.000000
18778582.000000,69772403.000000
18746066.000000,69821066.000000
18697403.000000,69853582.000000
18640000.000000,69865000.000000
18340000.000000,69865000.000000
18282597.000000,69853582.000000
18233934.000000,69821066.000000
18201418.000000,69772403.000000
18190000.000000,69715000.000000
18190000.000000,68065000.000000
18201418.000000,68007597.000000
18233934.000000,67958934.000000
18282597.000000,67926418.000000
18340000.000000,67915000.000000
Z" /> 
<path style="fill:#000000; fill-opacity:1.0; 
stroke:#000000; stroke-width:1.000000; stroke-opacity:1; 
stroke-linecap:round; stroke-linejoin:round;fill-rule:evenodd;"
d="M 19910000.000000,67915000.000000
19967403.000000,67926418.000000
20016066.000000,67958934.000000
20048582.000000,68007597.000000
20060000.000000,68065000.000000
20060000.000000,69715000.000000
20048582.000000,69772403.000000
20016066.000000,69821066.000000
19967403.000000,69853582.000000
19910000.000000,69865000.000000
19610000.000000,69865000.000000
19552597.000000,69853582.000000
19503934.000000,69821066.000000
19471418.000000,69772403.000000
19460000.000000,69715000.000000
19460000.000000,68065000.000000
19471418.000000,68007597.000000
19503934.000000,67958934.000000
19552597.000000,67926418.000000
19610000.000000,67915000.000000
Z" /> 
</g>
<g >
</g>
<g style="fill:#000000; fill-opacity:1.0; 
stroke:#000000; stroke-width:1.000000; stroke-opacity:1; 
stroke-linecap:round; stroke-linejoin:round;">
<path style="fill:#000000; fill-opacity:1.0; 
stroke:#000000; stroke-width:1.000000; stroke-opacity:1; 
stroke-linecap:round; stroke-linejoin:round;fill-rule:evenodd;"
d="M 50855000.000000,2360000.000000
50855000.000000,1960000.000000
51505000.000000,1960000.000000
51505000.000000,2360000.000000
Z" /> 
<path style="fill:#000000; fill-opacity:1.0; 
stroke:#000000; stroke-width:1.000000; stroke-opacity:1; 
stroke-linecap:round; stroke-linejoin:round;fill-rule:evenodd;"
d="M 50855000.000000,1600000.000000
50855000.000000,1200000.000000
51505000.000000,1200000.000000
51505000.000000,1600000.000000
Z" /> 
<path style="fill:#000000; fill-opacity:1.0; 
stroke:#000000; stroke-width:1.000000; stroke-opacity:1; 
stroke-linecap:round; stroke-linejoin:round;fill-rule:evenodd;"
d="M 49855000.000000,1600000.000000
49855000.000000,1200000.000000
50505000.000000,1200000.000000
50505000.000000,1600000.000000
Z" /> 
<path style="fill:#000000; fill-opacity:1.0; 
stroke:#000000; stroke-width:1.000000; stroke-opacity:1; 
stroke-linecap:round; stroke-linejoin:round;fill-rule:evenodd;"
d="M 49855000.000000,2360000.000000
49855000.000000,1960000.000000
50505000.000000,1960000.000000
50505000.000000,2360000.000000
Z" /> 
</g>
<g >
</g>
<g >
</g>
<g style="fill:#000000; fill-opacity:1.0; 
stroke:#000000; stroke-width:1.000000; stroke-opacity:1; 
stroke-linecap:round; stroke-linejoin:round;">
<path style="fill:#000000; fill-opacity:1.0; 
stroke:#000000; stroke-width:1.000000; stroke-opacity:1; 
stroke-linecap:round; stroke-linejoin:round;fill-rule:evenodd;"
d="M 42260000.000000,20825000.000000
42336537.000000,20840224.000000
42401421.000000,20883579.000000
42444776.000000,20948463.000000
42460000.000000,21025000.000000
42460000.000000,21425000.000000
42444776.000000,21501537.000000
42401421.000000,21566421.000000
42336537.000000,21609776.000000
42260000.000000,21625000.000000
41710000.000000,21625000.000000
41633463.000000,21609776.000000
41568579.000000,21566421.000000
41525224.000000,21501537.000000
41510000.000000,21425000.000000
41510000.000000,21025000.000000
41525224.000000,20948463.000000
41568579.000000,20883579.000000
41633463.000000,20840224.000000
41710000.000000,20825000.000000
Z" /> 
<path style="fill:#000000; fill-opacity:1.0; 
stroke:#000000; stroke-width:1.000000; stroke-opacity:1; 
stroke-linecap:round; stroke-linejoin:round;fill-rule:evenodd;"
d="M 42260000.000000,22475000.000000
42336537.000000,22490224.000000
42401421.000000,22533579.000000
42444776.000000,22598463.000000
42460000.000000,22675000.000000
42460000.000000,23075000.000000
42444776.000000,23151537.000000
42401421.000000,23216421.000000
42336537.000000,23259776.000000
42260000.000000,23275000.000000
41710000.000000,23275000.000000
41633463.000000,23259776.000000
41568579.000000,23216421.000000
41525224.000000,23151537.000000
41510000.000000,23075000.000000
41510000.000000,22675000.000000
41525224.000000,22598463.000000
41568579.000000,22533579.000000
41633463.000000,22490224.000000
41710000.000000,22475000.000000
Z" /> 
</g>
<g >
</g>
<g >
</g>
<g >
</g>
<g >
</g>
<g >
</g>
<g style="fill:#000000; fill-opacity:1.0; 
stroke:#000000; stroke-width:1.000000; stroke-opacity:1; 
stroke-linecap:round; stroke-linejoin:round;">
<path style="fill:#000000; fill-opacity:1.0; 
stroke:#000000; stroke-width:1.000000; stroke-opacity:1; 
stroke-linecap:round; stroke-linejoin:round;fill-rule:evenodd;"
d="M 7210000.000000,6738000.000000
7910000.000000,6738000.000000
7910000.000000,7938000.000000
7210000.000000,7938000.000000
Z" /> 
<path style="fill:#000000; fill-opacity:1.0; 
stroke:#000000; stroke-width:1.000000; stroke-opacity:1; 
stroke-linecap:round; stroke-linejoin:round;fill-rule:evenodd;"
d="M 5160000.000000,6738000.000000
5920000.000000,6738000.000000
5920000.000000,7938000.000000
5160000.000000,7938000.000000
Z" /> 
<path style="fill:#000000; fill-opacity:1.0; 
stroke:#000000; stroke-width:1.000000; stroke-opacity:1; 
stroke-linecap:round; stroke-linejoin:round;fill-rule:evenodd;"
d="M 3910000.000000,6738000.000000
4710000.000000,6738000.000000
4710000.000000,7938000.000000
3910000.000000,7938000.000000
Z" /> 
<path style="fill:#000000; fill-opacity:1.0; 
stroke:#000000; stroke-width:1.000000; stroke-opacity:1; 
stroke-linecap:round; stroke-linejoin:round;fill-rule:evenodd;"
d="M 6210000.000000,6738000.000000
6910000.000000,6738000.000000
6910000.000000,7938000.000000
6210000.000000,7938000.000000
Z" /> 
<path style="fill:#000000; fill-opacity:1.0; 
stroke:#000000; stroke-width:1.000000; stroke-opacity:1; 
stroke-linecap:round; stroke-linejoin:round;fill-rule:evenodd;"
d="M 8200000.000000,6738000.000000
8960000.000000,6738000.000000
8960000.000000,7938000.000000
8200000.000000,7938000.000000
Z" /> 
<path style="fill:#000000; fill-opacity:1.0; 
stroke:#000000; stroke-width:1.000000; stroke-opacity:1; 
stroke-linecap:round; stroke-linejoin:round;fill-rule:evenodd;"
d="M 9410000.000000,6738000.000000
10210000.000000,6738000.000000
10210000.000000,7938000.000000
9410000.000000,7938000.000000
Z" /> 
</g>
<g >
</g>
<g >
</g>
<g style="fill:#000000; fill-opacity:1.0; 
stroke:#000000; stroke-width:1.000000; stroke-opacity:1; 
stroke-linecap:round; stroke-linejoin:round;">
<path style="fill:#000000; fill-opacity:1.0; 
stroke:#000000; stroke-width:1.000000; stroke-opacity:1; 
stroke-linecap:round; stroke-linejoin:round;fill-rule:evenodd;"
d="M 18691000.000000,60860000.000000
18710030.000000,60764329.000000
18764223.000000,60683223.000000
18845329.000000,60629030.000000
18941000.000000,60610000.000000
19441000.000000,60610000.000000
19536671.000000,60629030.000000
19617777.000000,60683223.000000
19671970.000000,60764329.000000
19691000.000000,60860000.000000
19691000.000000,61810000.000000
19671970.000000,61905671.000000
19617777.000000,61986777.000000
19536671.000000,62040970.000000
19441000.000000,62060000.000000
18941000.000000,62060000.000000
18845329.000000,62040970.000000
18764223.000000,61986777.000000
18710030.000000,61905671.000000
18691000.000000,61810000.000000
Z" /> 
<path style="fill:#000000; fill-opacity:1.0; 
stroke:#000000; stroke-width:1.000000; stroke-opacity:1; 
stroke-linecap:round; stroke-linejoin:round;fill-rule:evenodd;"
d="M 20591000.000000,60860000.000000
20610030.000000,60764329.000000
20664223.000000,60683223.000000
20745329.000000,60629030.000000
20841000.000000,60610000.000000
21341000.000000,60610000.000000
21436671.000000,60629030.000000
21517777.000000,60683223.000000
21571970.000000,60764329.000000
21591000.000000,60860000.000000
21591000.000000,61810000.000000
21571970.000000,61905671.000000
21517777.000000,61986777.000000
21436671.000000,62040970.000000
21341000.000000,62060000.000000
20841000.000000,62060000.000000
20745329.000000,62040970.000000
20664223.000000,61986777.000000
20610030.000000,61905671.000000
20591000.000000,61810000.000000
Z" /> 
</g>
<g >
</g>
<g style="fill:#000000; fill-opacity:1.0; 
stroke:#000000; stroke-width:1.000000; stroke-opacity:1; 
stroke-linecap:round; stroke-linejoin:round;">
<path style="fill:#000000; fill-opacity:1.0; 
stroke:#000000; stroke-width:1.000000; stroke-opacity:1; 
stroke-linecap:round; stroke-linejoin:round;fill-rule:evenodd;"
d="M 55680000.000000,9855000.000000
55603463.000000,9839776.000000
55538579.000000,9796421.000000
55495224.000000,9731537.000000
55480000.000000,9655000.000000
55480000.000000,9255000.000000
55495224.000000,9178463.000000
55538579.000000,9113579.000000
55603463.000000,9070224.000000
55680000.000000,9055000.000000
56230000.000000,9055000.000000
56306537.000000,9070224.000000
56371421.000000,9113579.000000
56414776.000000,9178463.000000
56430000.000000,9255000.000000
56430000.000000,9655000.000000
56414776.000000,9731537.000000
56371421.000000,9796421.000000
56306537.000000,9839776.000000
56230000.000000,9855000.000000
Z" /> 
<path style="fill:#000000; fill-opacity:1.0; 
stroke:#000000; stroke-width:1.000000; stroke-opacity:1; 
stroke-linecap:round; stroke-linejoin:round;fill-rule:evenodd;"
d="M 55680000.000000,8205000.000000
55603463.000000,8189776.000000
55538579.000000,8146421.000000
55495224.000000,8081537.000000
55480000.000000,8005000.000000
55480000.000000,7605000.000000
55495224.000000,7528463.000000
55538579.000000,7463579.000000
55603463.000000,7420224.000000
55680000.000000,7405000.000000
56230000.000000,7405000.000000
56306537.000000,7420224.000000
56371421.000000,7463579.000000
56414776.000000,7528463.000000
56430000.000000,7605000.000000
56430000.000000,8005000.000000
56414776.000000,8081537.000000
56371421.000000,8146421.000000
56306537.000000,8189776.000000
56230000.000000,8205000.000000
Z" /> 
</g>
<g >
</g>
<g >
</g>
<g style="fill:#000000; fill-opacity:1.0; 
stroke:#000000; stroke-width:1.000000; stroke-opacity:1; 
stroke-linecap:round; stroke-linejoin:round;">
<path style="fill:#000000; fill-opacity:1.0; 
stroke:#000000; stroke-width:1.000000; stroke-opacity:1; 
stroke-linecap:round; stroke-linejoin:round;fill-rule:evenodd;"
d="M 9325000.000000,19275000.000000
9336418.000000,19217597.000000
9368934.000000,19168934.000000
9417597.000000,19136418.000000
9475000.000000,19125000.000000
11125000.000000,19125000.000000
11182403.000000,19136418.000000
11231066.000000,19168934.000000
11263582.000000,19217597.000000
11275000.000000,19275000.000000
11275000.000000,19575000.000000
11263582.000000,19632403.000000
11231066.000000,19681066.000000
11182403.000000,19713582.000000
11125000.000000,19725000.000000
9475000.000000,19725000.000000
9417597.000000,19713582.000000
9368934.000000,19681066.000000
9336418.000000,19632403.000000
9325000.000000,19575000.000000
Z" /> 
<path style="fill:#000000; fill-opacity:1.0; 
stroke:#000000; stroke-width:1.000000; stroke-opacity:1; 
stroke-linecap:round; stroke-linejoin:round;fill-rule:evenodd;"
d="M 9325000.000000,20545000.000000
9336418.000000,20487597.000000
9368934.000000,20438934.000000
9417597.000000,20406418.000000
9475000.000000,20395000.000000
11125000.000000,20395000.000000
11182403.000000,20406418.000000
11231066.000000,20438934.000000
11263582.000000,20487597.000000
11275000.000000,20545000.000000
11275000.000000,20845000.000000
11263582.000000,20902403.000000
11231066.000000,20951066.000000
11182403.000000,20983582.000000
11125000.000000,20995000.000000
9475000.000000,20995000.000000
9417597.000000,20983582.000000
9368934.000000,20951066.000000
9336418.000000,20902403.000000
9325000.000000,20845000.000000
Z" /> 
<path style="fill:#000000; fill-opacity:1.0; 
stroke:#000000; stroke-width:1.000000; stroke-opacity:1; 
stroke-linecap:round; stroke-linejoin:round;fill-rule:evenodd;"
d="M 9325000.000000,21815000.000000
9336418.000000,21757597.000000
9368934.000000,21708934.000000
9417597.000000,21676418.000000
9475000.000000,21665000.000000
11125000.000000,21665000.000000
11182403.000000,21676418.000000
11231066.000000,21708934.000000
11263582.000000,21757597.000000
11275000.000000,21815000.000000
11275000.000000,22115000.000000
11263582.000000,22172403.000000
11231066.000000,22221066.000000
11182403.000000,22253582.000000
11125000.000000,22265000.000000
9475000.000000,22265000.000000
9417597.000000,22253582.000000
9368934.000000,22221066.000000
9336418.000000,22172403.000000
9325000.000000,22115000.000000
Z" /> 
<path style="fill:#000000; fill-opacity:1.0; 
stroke:#000000; stroke-width:1.000000; stroke-opacity:1; 
stroke-linecap:round; stroke-linejoin:round;fill-rule:evenodd;"
d="M 9325000.000000,23085000.000000
9336418.000000,23027597.000000
9368934.000000,22978934.000000
9417597.000000,22946418.000000
9475000.000000,22935000.000000
11125000.000000,22935000.000000
11182403.000000,22946418.000000
11231066.000000,22978934.000000
11263582.000000,23027597.000000
11275000.000000,23085000.000000
11275000.000000,23385000.000000
11263582.000000,23442403.000000
11231066.000000,23491066.000000
11182403.000000,23523582.000000
11125000.000000,23535000.000000
9475000.000000,23535000.000000
9417597.000000,23523582.000000
9368934.000000,23491066.000000
9336418.000000,23442403.000000
9325000.000000,23385000.000000
Z" /> 
<path style="fill:#000000; fill-opacity:1.0; 
stroke:#000000; stroke-width:1.000000; stroke-opacity:1; 
stroke-linecap:round; stroke-linejoin:round;fill-rule:evenodd;"
d="M 9325000.000000,24355000.000000
9336418.000000,24297597.000000
9368934.000000,24248934.000000
9417597.000000,24216418.000000
9475000.000000,24205000.000000
11125000.000000,24205000.000000
11182403.000000,24216418.000000
11231066.000000,24248934.000000
11263582.000000,24297597.000000
11275000.000000,24355000.000000
11275000.000000,24655000.000000
11263582.000000,24712403.000000
11231066.000000,24761066.000000
11182403.000000,24793582.000000
11125000.000000,24805000.000000
9475000.000000,24805000.000000
9417597.000000,24793582.000000
9368934.000000,24761066.000000
9336418.000000,24712403.000000
9325000.000000,24655000.000000
Z" /> 
<path style="fill:#000000; fill-opacity:1.0; 
stroke:#000000; stroke-width:1.000000; stroke-opacity:1; 
stroke-linecap:round; stroke-linejoin:round;fill-rule:evenodd;"
d="M 9325000.000000,25625000.000000
9336418.000000,25567597.000000
9368934.000000,25518934.000000
9417597.000000,25486418.000000
9475000.000000,25475000.000000
11125000.000000,25475000.000000
11182403.000000,25486418.000000
11231066.000000,25518934.000000
11263582.000000,25567597.000000
11275000.000000,25625000.000000
11275000.000000,25925000.000000
11263582.000000,25982403.000000
11231066.000000,26031066.000000
11182403.000000,26063582.000000
11125000.000000,26075000.000000
9475000.000000,26075000.000000
9417597.000000,26063582.000000
9368934.000000,26031066.000000
9336418.000000,25982403.000000
9325000.000000,25925000.000000
Z" /> 
<path style="fill:#000000; fill-opacity:1.0; 
stroke:#000000; stroke-width:1.000000; stroke-opacity:1; 
stroke-linecap:round; stroke-linejoin:round;fill-rule:evenodd;"
d="M 9325000.000000,26895000.000000
9336418.000000,26837597.000000
9368934.000000,26788934.000000
9417597.000000,26756418.000000
9475000.000000,26745000.000000
11125000.000000,26745000.000000
11182403.000000,26756418.000000
11231066.000000,26788934.000000
11263582.000000,26837597.000000
11275000.000000,26895000.000000
11275000.000000,27195000.000000
11263582.000000,27252403.000000
11231066.000000,27301066.000000
11182403.000000,27333582.000000
11125000.000000,27345000.000000
9475000.000000,27345000.000000
9417597.000000,27333582.000000
9368934.000000,27301066.000000
9336418.000000,27252403.000000
9325000.000000,27195000.000000
Z" /> 
<path style="fill:#000000; fill-opacity:1.0; 
stroke:#000000; stroke-width:1.000000; stroke-opacity:1; 
stroke-linecap:round; stroke-linejoin:round;fill-rule:evenodd;"
d="M 14275000.000000,26895000.000000
14286418.000000,26837597.000000
14318934.000000,26788934.000000
14367597.000000,26756418.000000
14425000.000000,26745000.000000
16075000.000000,26745000.000000
16132403.000000,26756418.000000
16181066.000000,26788934.000000
16213582.000000,26837597.000000
16225000.000000,26895000.000000
16225000.000000,27195000.000000
16213582.000000,27252403.000000
16181066.000000,27301066.000000
16132403.000000,27333582.000000
16075000.000000,27345000.000000
14425000.000000,27345000.000000
14367597.000000,27333582.000000
14318934.000000,27301066.000000
14286418.000000,27252403.000000
14275000.000000,27195000.000000
Z" /> 
<path style="fill:#000000; fill-opacity:1.0; 
stroke:#000000; stroke-width:1.000000; stroke-opacity:1; 
stroke-linecap:round; stroke-linejoin:round;fill-rule:evenodd;"
d="M 14275000.000000,25625000.000000
14286418.000000,25567597.000000
14318934.000000,25518934.000000
14367597.000000,25486418.000000
14425000.000000,25475000.000000
16075000.000000,25475000.000000
16132403.000000,25486418.000000
16181066.000000,25518934.000000
16213582.000000,25567597.000000
16225000.000000,25625000.000000
16225000.000000,25925000.000000
16213582.000000,25982403.000000
16181066.000000,26031066.000000
16132403.000000,26063582.000000
16075000.000000,26075000.000000
14425000.000000,26075000.000000
14367597.000000,26063582.000000
14318934.000000,26031066.000000
14286418.000000,25982403.000000
14275000.000000,25925000.000000
Z" /> 
<path style="fill:#000000; fill-opacity:1.0; 
stroke:#000000; stroke-width:1.000000; stroke-opacity:1; 
stroke-linecap:round; stroke-linejoin:round;fill-rule:evenodd;"
d="M 14275000.000000,24355000.000000
14286418.000000,24297597.000000
14318934.000000,24248934.000000
14367597.000000,24216418.000000
14425000.000000,24205000.000000
16075000.000000,24205000.000000
16132403.000000,24216418.000000
16181066.000000,24248934.000000
16213582.000000,24297597.000000
16225000.000000,24355000.000000
16225000.000000,24655000.000000
16213582.000000,24712403.000000
16181066.000000,24761066.000000
16132403.000000,24793582.000000
16075000.000000,24805000.000000
14425000.000000,24805000.000000
14367597.000000,24793582.000000
14318934.000000,24761066.000000
14286418.000000,24712403.000000
14275000.000000,24655000.000000
Z" /> 
<path style="fill:#000000; fill-opacity:1.0; 
stroke:#000000; stroke-width:1.000000; stroke-opacity:1; 
stroke-linecap:round; stroke-linejoin:round;fill-rule:evenodd;"
d="M 14275000.000000,23085000.000000
14286418.000000,23027597.000000
14318934.000000,22978934.000000
14367597.000000,22946418.000000
14425000.000000,22935000.000000
16075000.000000,22935000.000000
16132403.000000,22946418.000000
16181066.000000,22978934.000000
16213582.000000,23027597.000000
16225000.000000,23085000.000000
16225000.000000,23385000.000000
16213582.000000,23442403.000000
16181066.000000,23491066.000000
16132403.000000,23523582.000000
16075000.000000,23535000.000000
14425000.000000,23535000.000000
14367597.000000,23523582.000000
14318934.000000,23491066.000000
14286418.000000,23442403.000000
14275000.000000,23385000.000000
Z" /> 
<path style="fill:#000000; fill-opacity:1.0; 
stroke:#000000; stroke-width:1.000000; stroke-opacity:1; 
stroke-linecap:round; stroke-linejoin:round;fill-rule:evenodd;"
d="M 14275000.000000,21815000.000000
14286418.000000,21757597.000000
14318934.000000,21708934.000000
14367597.000000,21676418.000000
14425000.000000,21665000.000000
16075000.000000,21665000.000000
16132403.000000,21676418.000000
16181066.000000,21708934.000000
16213582.000000,21757597.000000
16225000.000000,21815000.000000
16225000.000000,22115000.000000
16213582.000000,22172403.000000
16181066.000000,22221066.000000
16132403.000000,22253582.000000
16075000.000000,22265000.000000
14425000.000000,22265000.000000
14367597.000000,22253582.000000
14318934.000000,22221066.000000
14286418.000000,22172403.000000
14275000.000000,22115000.000000
Z" /> 
<path style="fill:#000000; fill-opacity:1.0; 
stroke:#000000; stroke-width:1.000000; stroke-opacity:1; 
stroke-linecap:round; stroke-linejoin:round;fill-rule:evenodd;"
d="M 14275000.000000,20545000.000000
14286418.000000,20487597.000000
14318934.000000,20438934.000000
14367597.000000,20406418.000000
14425000.000000,20395000.000000
16075000.000000,20395000.000000
16132403.000000,20406418.000000
16181066.000000,20438934.000000
16213582.000000,20487597.000000
16225000.000000,20545000.000000
16225000.000000,20845000.000000
16213582.000000,20902403.000000
16181066.000000,20951066.000000
16132403.000000,20983582.000000
16075000.000000,20995000.000000
14425000.000000,20995000.000000
14367597.000000,20983582.000000
14318934.000000,20951066.000000
14286418.000000,20902403.000000
14275000.000000,20845000.000000
Z" /> 
<path style="fill:#000000; fill-opacity:1.0; 
stroke:#000000; stroke-width:1.000000; stroke-opacity:1; 
stroke-linecap:round; stroke-linejoin:round;fill-rule:evenodd;"
d="M 14275000.000000,19275000.000000
14286418.000000,19217597.000000
14318934.000000,19168934.000000
14367597.000000,19136418.000000
14425000.000000,19125000.000000
16075000.000000,19125000.000000
16132403.000000,19136418.000000
16181066.000000,19168934.000000
16213582.000000,19217597.000000
16225000.000000,19275000.000000
16225000.000000,19575000.000000
16213582.000000,19632403.000000
16181066.000000,19681066.000000
16132403.000000,19713582.000000
16075000.000000,19725000.000000
14425000.000000,19725000.000000
14367597.000000,19713582.000000
14318934.000000,19681066.000000
14286418.000000,19632403.000000
14275000.000000,19575000.000000
Z" /> 
</g>
<g >
</g>
<g >
</g>
<g >
</g>
<g >
</g>
<g style="fill:#000000; fill-opacity:1.0; 
stroke:#000000; stroke-width:1.000000; stroke-opacity:1; 
stroke-linecap:round; stroke-linejoin:round;">
<path style="fill:#000000; fill-opacity:1.0; 
stroke:#000000; stroke-width:1.000000; stroke-opacity:1; 
stroke-linecap:round; stroke-linejoin:round;fill-rule:evenodd;"
d="M 21806250.000000,1825000.000000
21889962.000000,1841651.000000
21960930.000000,1889070.000000
22008349.000000,1960038.000000
22025000.000000,2043750.000000
22025000.000000,2481250.000000
22008349.000000,2564962.000000
21960930.000000,2635930.000000
21889962.000000,2683349.000000
21806250.000000,2700000.000000
21293750.000000,2700000.000000
21210038.000000,2683349.000000
21139070.000000,2635930.000000
21091651.000000,2564962.000000
21075000.000000,2481250.000000
21075000.000000,2043750.000000
21091651.000000,1960038.000000
21139070.000000,1889070.000000
21210038.000000,1841651.000000
21293750.000000,1825000.000000
Z" /> 
<path style="fill:#000000; fill-opacity:1.0; 
stroke:#000000; stroke-width:1.000000; stroke-opacity:1; 
stroke-linecap:round; stroke-linejoin:round;fill-rule:evenodd;"
d="M 21806250.000000,3400000.000000
21889962.000000,3416651.000000
21960930.000000,3464070.000000
22008349.000000,3535038.000000
22025000.000000,3618750.000000
22025000.000000,4056250.000000
22008349.000000,4139962.000000
21960930.000000,4210930.000000
21889962.000000,4258349.000000
21806250.000000,4275000.000000
21293750.000000,4275000.000000
21210038.000000,4258349.000000
21139070.000000,4210930.000000
21091651.000000,4139962.000000
21075000.000000,4056250.000000
21075000.000000,3618750.000000
21091651.000000,3535038.000000
21139070.000000,3464070.000000
21210038.000000,3416651.000000
21293750.000000,3400000.000000
Z" /> 
</g>
<g >
</g>
<g style="fill:#000000; fill-opacity:1.0; 
stroke:#000000; stroke-width:1.000000; stroke-opacity:1; 
stroke-linecap:round; stroke-linejoin:round;">
<path style="fill:#000000; fill-opacity:1.0; 
stroke:#000000; stroke-width:1.000000; stroke-opacity:1; 
stroke-linecap:round; stroke-linejoin:round;fill-rule:evenodd;"
d="M 7775000.000000,22555000.000000
7698463.000000,22539776.000000
7633579.000000,22496421.000000
7590224.000000,22431537.000000
7575000.000000,22355000.000000
7575000.000000,21955000.000000
7590224.000000,21878463.000000
7633579.000000,21813579.000000
7698463.000000,21770224.000000
7775000.000000,21755000.000000
8325000.000000,21755000.000000
8401537.000000,21770224.000000
8466421.000000,21813579.000000
8509776.000000,21878463.000000
8525000.000000,21955000.000000
8525000.000000,22355000.000000
8509776.000000,22431537.000000
8466421.000000,22496421.000000
8401537.000000,22539776.000000
8325000.000000,22555000.000000
Z" /> 
<path style="fill:#000000; fill-opacity:1.0; 
stroke:#000000; stroke-width:1.000000; stroke-opacity:1; 
stroke-linecap:round; stroke-linejoin:round;fill-rule:evenodd;"
d="M 7775000.000000,20905000.000000
7698463.000000,20889776.000000
7633579.000000,20846421.000000
7590224.000000,20781537.000000
7575000.000000,20705000.000000
7575000.000000,20305000.000000
7590224.000000,20228463.000000
7633579.000000,20163579.000000
7698463.000000,20120224.000000
7775000.000000,20105000.000000
8325000.000000,20105000.000000
8401537.000000,20120224.000000
8466421.000000,20163579.000000
8509776.000000,20228463.000000
8525000.000000,20305000.000000
8525000.000000,20705000.000000
8509776.000000,20781537.000000
8466421.000000,20846421.000000
8401537.000000,20889776.000000
8325000.000000,20905000.000000
Z" /> 
</g>
<g >
</g>
<g style="fill:#000000; fill-opacity:1.0; 
stroke:#000000; stroke-width:1.000000; stroke-opacity:1; 
stroke-linecap:round; stroke-linejoin:round;">
<path style="fill:#000000; fill-opacity:1.0; 
stroke:#000000; stroke-width:1.000000; stroke-opacity:1; 
stroke-linecap:round; stroke-linejoin:round;fill-rule:evenodd;"
d="M 5275000.000000,22300000.000000
5257873.000000,22386104.000000
5209099.000000,22459099.000000
5136104.000000,22507873.000000
5050000.000000,22525000.000000
4600000.000000,22525000.000000
4513896.000000,22507873.000000
4440901.000000,22459099.000000
4392127.000000,22386104.000000
4375000.000000,22300000.000000
4375000.000000,21800000.000000
4392127.000000,21713896.000000
4440901.000000,21640901.000000
4513896.000000,21592127.000000
4600000.000000,21575000.000000
5050000.000000,21575000.000000
5136104.000000,21592127.000000
5209099.000000,21640901.000000
5257873.000000,21713896.000000
5275000.000000,21800000.000000
Z" /> 
<path style="fill:#000000; fill-opacity:1.0; 
stroke:#000000; stroke-width:1.000000; stroke-opacity:1; 
stroke-linecap:round; stroke-linejoin:round;fill-rule:evenodd;"
d="M 3725000.000000,22300000.000000
3707873.000000,22386104.000000
3659099.000000,22459099.000000
3586104.000000,22507873.000000
3500000.000000,22525000.000000
3050000.000000,22525000.000000
2963896.000000,22507873.000000
2890901.000000,22459099.000000
2842127.000000,22386104.000000
2825000.000000,22300000.000000
2825000.000000,21800000.000000
2842127.000000,21713896.000000
2890901.000000,21640901.000000
2963896.000000,21592127.000000
3050000.000000,21575000.000000
3500000.000000,21575000.000000
3586104.000000,21592127.000000
3659099.000000,21640901.000000
3707873.000000,21713896.000000
3725000.000000,21800000.000000
Z" /> 
</g>
<g >
</g>
<g >
</g>
<g style="fill:#000000; fill-opacity:1.0; 
stroke:#000000; stroke-width:1.000000; stroke-opacity:1; 
stroke-linecap:round; stroke-linejoin:round;">
<path style="fill:#000000; fill-opacity:1.0; 
stroke:#000000; stroke-width:1.000000; stroke-opacity:1; 
stroke-linecap:round; stroke-linejoin:round;fill-rule:evenodd;"
d="M 9264000.000000,10950000.000000
9279224.000000,10873463.000000
9322579.000000,10808579.000000
9387463.000000,10765224.000000
9464000.000000,10750000.000000
9864000.000000,10750000.000000
9940537.000000,10765224.000000
10005421.000000,10808579.000000
10048776.000000,10873463.000000
10064000.000000,10950000.000000
10064000.000000,11500000.000000
10048776.000000,11576537.000000
10005421.000000,11641421.000000
9940537.000000,11684776.000000
9864000.000000,11700000.000000
9464000.000000,11700000.000000
9387463.000000,11684776.000000
9322579.000000,11641421.000000
9279224.000000,11576537.000000
9264000.000000,11500000.000000
Z" /> 
<path style="fill:#000000; fill-opacity:1.0; 
stroke:#000000; stroke-width:1.000000; stroke-opacity:1; 
stroke-linecap:round; stroke-linejoin:round;fill-rule:evenodd;"
d="M 10914000.000000,10950000.000000
10929224.000000,10873463.000000
10972579.000000,10808579.000000
11037463.000000,10765224.000000
11114000.000000,10750000.000000
11514000.000000,10750000.000000
11590537.000000,10765224.000000
11655421.000000,10808579.000000
11698776.000000,10873463.000000
11714000.000000,10950000.000000
11714000.000000,11500000.000000
11698776.000000,11576537.000000
11655421.000000,11641421.000000
11590537.000000,11684776.000000
11514000.000000,11700000.000000
11114000.000000,11700000.000000
11037463.000000,11684776.000000
10972579.000000,11641421.000000
10929224.000000,11576537.000000
10914000.000000,11500000.000000
Z" /> 
</g>
<g >
</g>
<g >
</g>
<g style="fill:#000000; fill-opacity:1.0; 
stroke:#000000; stroke-width:1.000000; stroke-opacity:1; 
stroke-linecap:round; stroke-linejoin:round;">
<path style="fill:#000000; fill-opacity:1.0; 
stroke:#000000; stroke-width:1.000000; stroke-opacity:1; 
stroke-linecap:round; stroke-linejoin:round;fill-rule:evenodd;"
d="M 9264000.000000,8990000.000000
9279224.000000,8913463.000000
9322579.000000,8848579.000000
9387463.000000,8805224.000000
9464000.000000,8790000.000000
9864000.000000,8790000.000000
9940537.000000,8805224.000000
10005421.000000,8848579.000000
10048776.000000,8913463.000000
10064000.000000,8990000.000000
10064000.000000,9540000.000000
10048776.000000,9616537.000000
10005421.000000,9681421.000000
9940537.000000,9724776.000000
9864000.000000,9740000.000000
9464000.000000,9740000.000000
9387463.000000,9724776.000000
9322579.000000,9681421.000000
9279224.000000,9616537.000000
9264000.000000,9540000.000000
Z" /> 
<path style="fill:#000000; fill-opacity:1.0; 
stroke:#000000; stroke-width:1.000000; stroke-opacity:1; 
stroke-linecap:round; stroke-linejoin:round;fill-rule:evenodd;"
d="M 10914000.000000,8990000.000000
10929224.000000,8913463.000000
10972579.000000,8848579.000000
11037463.000000,8805224.000000
11114000.000000,8790000.000000
11514000.000000,8790000.000000
11590537.000000,8805224.000000
11655421.000000,8848579.000000
11698776.000000,8913463.000000
11714000.000000,8990000.000000
11714000.000000,9540000.000000
11698776.000000,9616537.000000
11655421.000000,9681421.000000
11590537.000000,9724776.000000
11514000.000000,9740000.000000
11114000.000000,9740000.000000
11037463.000000,9724776.000000
10972579.000000,9681421.000000
10929224.000000,9616537.000000
10914000.000000,9540000.000000
Z" /> 
</g>
<g >
</g>
<g >
</g>
<g >
</g>
<g >
</g>
<g >
</g>
<g >
</g>
<g >
</g>
<g >
</g>
<g >
</g>
</g> 
</svg>
