G04 #@! TF.GenerationSoftware,KiCad,Pcbnew,(6.0.10-0)*
G04 #@! TF.CreationDate,2024-01-08T11:48:59+09:00*
G04 #@! TF.ProjectId,AutoFeeder_Drum-type,4175746f-4665-4656-9465-725f4472756d,02*
G04 #@! TF.SameCoordinates,Original*
G04 #@! TF.FileFunction,Soldermask,Top*
G04 #@! TF.FilePolarity,Negative*
%FSLAX46Y46*%
G04 Gerber Fmt 4.6, Leading zero omitted, Abs format (unit mm)*
G04 Created by KiCad (PCBNEW (6.0.10-0)) date 2024-01-08 11:48:59*
%MOMM*%
%LPD*%
G01*
G04 APERTURE LIST*
G04 Aperture macros list*
%AMRoundRect*
0 Rectangle with rounded corners*
0 $1 Rounding radius*
0 $2 $3 $4 $5 $6 $7 $8 $9 X,Y pos of 4 corners*
0 Add a 4 corners polygon primitive as box body*
4,1,4,$2,$3,$4,$5,$6,$7,$8,$9,$2,$3,0*
0 Add four circle primitives for the rounded corners*
1,1,$1+$1,$2,$3*
1,1,$1+$1,$4,$5*
1,1,$1+$1,$6,$7*
1,1,$1+$1,$8,$9*
0 Add four rect primitives between the rounded corners*
20,1,$1+$1,$2,$3,$4,$5,0*
20,1,$1+$1,$4,$5,$6,$7,0*
20,1,$1+$1,$6,$7,$8,$9,0*
20,1,$1+$1,$8,$9,$2,$3,0*%
%AMFreePoly0*
4,1,22,0.550000,-0.750000,0.000000,-0.750000,0.000000,-0.745033,-0.079941,-0.743568,-0.215256,-0.701293,-0.333266,-0.622738,-0.424486,-0.514219,-0.481581,-0.384460,-0.499164,-0.250000,-0.500000,-0.250000,-0.500000,0.250000,-0.499164,0.250000,-0.499963,0.256109,-0.478152,0.396186,-0.417904,0.524511,-0.324060,0.630769,-0.204165,0.706417,-0.067858,0.745374,0.000000,0.744959,0.000000,0.750000,
0.550000,0.750000,0.550000,-0.750000,0.550000,-0.750000,$1*%
%AMFreePoly1*
4,1,20,0.000000,0.744959,0.073905,0.744508,0.209726,0.703889,0.328688,0.626782,0.421226,0.519385,0.479903,0.390333,0.500000,0.250000,0.500000,-0.250000,0.499851,-0.262216,0.476331,-0.402017,0.414519,-0.529596,0.319384,-0.634700,0.198574,-0.708877,0.061801,-0.746166,0.000000,-0.745033,0.000000,-0.750000,-0.550000,-0.750000,-0.550000,0.750000,0.000000,0.750000,0.000000,0.744959,
0.000000,0.744959,$1*%
G04 Aperture macros list end*
%ADD10RoundRect,0.218750X-0.256250X0.218750X-0.256250X-0.218750X0.256250X-0.218750X0.256250X0.218750X0*%
%ADD11RoundRect,0.225000X-0.225000X-0.250000X0.225000X-0.250000X0.225000X0.250000X-0.225000X0.250000X0*%
%ADD12R,1.700000X1.700000*%
%ADD13O,1.700000X1.700000*%
%ADD14RoundRect,0.225000X-0.250000X0.225000X-0.250000X-0.225000X0.250000X-0.225000X0.250000X0.225000X0*%
%ADD15RoundRect,0.225000X0.225000X0.250000X-0.225000X0.250000X-0.225000X-0.250000X0.225000X-0.250000X0*%
%ADD16RoundRect,0.200000X-0.200000X-0.275000X0.200000X-0.275000X0.200000X0.275000X-0.200000X0.275000X0*%
%ADD17C,1.440000*%
%ADD18FreePoly0,180.000000*%
%ADD19R,1.000000X1.500000*%
%ADD20FreePoly1,180.000000*%
%ADD21C,1.100000*%
%ADD22R,1.800000X1.900000*%
%ADD23R,1.700000X1.800000*%
%ADD24C,2.000000*%
%ADD25R,0.400000X0.650000*%
%ADD26RoundRect,0.200000X0.275000X-0.200000X0.275000X0.200000X-0.275000X0.200000X-0.275000X-0.200000X0*%
%ADD27RoundRect,0.200000X0.200000X0.275000X-0.200000X0.275000X-0.200000X-0.275000X0.200000X-0.275000X0*%
%ADD28R,0.650000X0.400000*%
%ADD29RoundRect,0.200000X-0.275000X0.200000X-0.275000X-0.200000X0.275000X-0.200000X0.275000X0.200000X0*%
%ADD30RoundRect,0.150000X-0.150000X0.825000X-0.150000X-0.825000X0.150000X-0.825000X0.150000X0.825000X0*%
%ADD31C,2.200000*%
%ADD32R,0.700000X1.200000*%
%ADD33R,0.760000X1.200000*%
%ADD34R,0.800000X1.200000*%
%ADD35O,1.100000X1.700000*%
%ADD36RoundRect,0.250000X-0.250000X-0.475000X0.250000X-0.475000X0.250000X0.475000X-0.250000X0.475000X0*%
%ADD37RoundRect,0.150000X-0.825000X-0.150000X0.825000X-0.150000X0.825000X0.150000X-0.825000X0.150000X0*%
%ADD38RoundRect,0.250000X0.750000X-0.600000X0.750000X0.600000X-0.750000X0.600000X-0.750000X-0.600000X0*%
%ADD39O,2.000000X1.700000*%
%ADD40RoundRect,0.250000X0.600000X0.750000X-0.600000X0.750000X-0.600000X-0.750000X0.600000X-0.750000X0*%
%ADD41O,1.700000X2.000000*%
%ADD42C,1.700000*%
G04 APERTURE END LIST*
D10*
X158000000Y-66212500D03*
X158000000Y-67787500D03*
D11*
X187185000Y-76000000D03*
X188735000Y-76000000D03*
D12*
X151130000Y-74041000D03*
D13*
X151130000Y-71501000D03*
D14*
X156210000Y-100190000D03*
X156210000Y-101740000D03*
D15*
X150381000Y-77724000D03*
X148831000Y-77724000D03*
D16*
X144844000Y-77470000D03*
X146494000Y-77470000D03*
D17*
X178460000Y-97540000D03*
X181000000Y-95000000D03*
X178460000Y-92460000D03*
D18*
X155500000Y-118000000D03*
D19*
X154200000Y-118000000D03*
D20*
X152900000Y-118000000D03*
D12*
X178000000Y-70500000D03*
D13*
X178000000Y-73040000D03*
X178000000Y-75580000D03*
X178000000Y-78120000D03*
D21*
X139150000Y-77500000D03*
X139150000Y-72500000D03*
D22*
X142900000Y-77450000D03*
X142900000Y-72500000D03*
D23*
X138050000Y-69800000D03*
X138050000Y-80200000D03*
D22*
X142900000Y-75000000D03*
D24*
X194310000Y-96434999D03*
D12*
X180975000Y-107315000D03*
D13*
X180975000Y-104775000D03*
X180975000Y-102235000D03*
D25*
X154620000Y-105500000D03*
X155380000Y-105500000D03*
X155380000Y-104500000D03*
X154620000Y-104500000D03*
D24*
X194000000Y-64000000D03*
X152000000Y-120500000D03*
D12*
X194520000Y-84999999D03*
D13*
X191980000Y-84999999D03*
X189440000Y-84999999D03*
X186900000Y-84999999D03*
D26*
X156210000Y-95440000D03*
X156210000Y-93790000D03*
D27*
X155765000Y-97790000D03*
X154115000Y-97790000D03*
D28*
X187630000Y-96640000D03*
X187630000Y-95880000D03*
X186630000Y-95880000D03*
X186630000Y-96640000D03*
D26*
X173863000Y-117665000D03*
X173863000Y-116015000D03*
D29*
X175260000Y-81175000D03*
X175260000Y-82825000D03*
D27*
X157417000Y-69596000D03*
X159067000Y-69596000D03*
D12*
X169545000Y-65405000D03*
D13*
X169545000Y-62865000D03*
X172085000Y-65405000D03*
X172085000Y-62865000D03*
D17*
X178500000Y-90040000D03*
X181040000Y-87500000D03*
X178500000Y-84960000D03*
D30*
X156210000Y-123890000D03*
X154940000Y-123890000D03*
X153670000Y-123890000D03*
X152400000Y-123890000D03*
X152400000Y-128840000D03*
X153670000Y-128840000D03*
X154940000Y-128840000D03*
X156210000Y-128840000D03*
D28*
X187630000Y-62110000D03*
X187630000Y-61350000D03*
X186630000Y-61350000D03*
X186630000Y-62110000D03*
D29*
X178435000Y-81175000D03*
X178435000Y-82825000D03*
D12*
X154940000Y-71755000D03*
D13*
X154940000Y-74295000D03*
X154940000Y-76835000D03*
X154940000Y-79375000D03*
X154940000Y-81915000D03*
D31*
X154500000Y-112000000D03*
D24*
X141500000Y-63000000D03*
D32*
X144010000Y-67288000D03*
D33*
X141990000Y-67288000D03*
D34*
X140760000Y-67288000D03*
D32*
X143010000Y-67288000D03*
D33*
X145030000Y-67288000D03*
D34*
X146260000Y-67288000D03*
D35*
X139190000Y-66538000D03*
X139190000Y-62738000D03*
X147830000Y-62738000D03*
X147830000Y-66538000D03*
D12*
X173355000Y-108575000D03*
D13*
X173355000Y-106035000D03*
X173355000Y-103495000D03*
X173355000Y-100955000D03*
D36*
X155641000Y-121285000D03*
X157541000Y-121285000D03*
D26*
X192405000Y-69405000D03*
X192405000Y-67755000D03*
D37*
X146750000Y-79375000D03*
X146750000Y-80645000D03*
X146750000Y-81915000D03*
X146750000Y-83185000D03*
X146750000Y-84455000D03*
X146750000Y-85725000D03*
X146750000Y-86995000D03*
X151700000Y-86995000D03*
X151700000Y-85725000D03*
X151700000Y-84455000D03*
X151700000Y-83185000D03*
X151700000Y-81915000D03*
X151700000Y-80645000D03*
X151700000Y-79375000D03*
D17*
X178500000Y-117000000D03*
X181040000Y-114460000D03*
X178500000Y-111920000D03*
D38*
X153780000Y-136525000D03*
D39*
X153780000Y-134025000D03*
D40*
X142250000Y-87025000D03*
D41*
X139750000Y-87025000D03*
D10*
X158000000Y-62212500D03*
X158000000Y-63787500D03*
D26*
X144500000Y-82105000D03*
X144500000Y-80455000D03*
D15*
X141275000Y-82000000D03*
X139725000Y-82000000D03*
D16*
X146114000Y-71175000D03*
X147764000Y-71175000D03*
D42*
X154300000Y-62500000D03*
X154300000Y-65000000D03*
X154300000Y-67500000D03*
X151000000Y-62500000D03*
X151000000Y-65000000D03*
X151000000Y-67500000D03*
D16*
X146114000Y-69215000D03*
X147764000Y-69215000D03*
D12*
X194500000Y-73000000D03*
D13*
X191960000Y-73000000D03*
X189420000Y-73000000D03*
X186880000Y-73000000D03*
D42*
X198000000Y-85435120D03*
X200500000Y-85435120D03*
X203000000Y-85435120D03*
X198000000Y-82135120D03*
X200500000Y-82135120D03*
X203000000Y-82135120D03*
M02*
