G04 #@! TF.GenerationSoftware,KiCad,Pcbnew,(6.0.10-0)*
G04 #@! TF.CreationDate,2024-06-01T19:56:01+09:00*
G04 #@! TF.ProjectId,AutoFeeder_Drum-type,4175746f-4665-4656-9465-725f4472756d,01*
G04 #@! TF.SameCoordinates,Original*
G04 #@! TF.FileFunction,Paste,Top*
G04 #@! TF.FilePolarity,Positive*
%FSLAX46Y46*%
G04 Gerber Fmt 4.6, Leading zero omitted, Abs format (unit mm)*
G04 Created by KiCad (PCBNEW (6.0.10-0)) date 2024-06-01 19:56:01*
%MOMM*%
%LPD*%
G01*
G04 APERTURE LIST*
G04 Aperture macros list*
%AMRoundRect*
0 Rectangle with rounded corners*
0 $1 Rounding radius*
0 $2 $3 $4 $5 $6 $7 $8 $9 X,Y pos of 4 corners*
0 Add a 4 corners polygon primitive as box body*
4,1,4,$2,$3,$4,$5,$6,$7,$8,$9,$2,$3,0*
0 Add four circle primitives for the rounded corners*
1,1,$1+$1,$2,$3*
1,1,$1+$1,$4,$5*
1,1,$1+$1,$6,$7*
1,1,$1+$1,$8,$9*
0 Add four rect primitives between the rounded corners*
20,1,$1+$1,$2,$3,$4,$5,0*
20,1,$1+$1,$4,$5,$6,$7,0*
20,1,$1+$1,$6,$7,$8,$9,0*
20,1,$1+$1,$8,$9,$2,$3,0*%
%AMFreePoly0*
4,1,9,3.862500,-0.866500,0.737500,-0.866500,0.737500,-0.450000,-0.737500,-0.450000,-0.737500,0.450000,0.737500,0.450000,0.737500,0.866500,3.862500,0.866500,3.862500,-0.866500,3.862500,-0.866500,$1*%
G04 Aperture macros list end*
%ADD10RoundRect,0.200000X-0.200000X-0.275000X0.200000X-0.275000X0.200000X0.275000X-0.200000X0.275000X0*%
%ADD11RoundRect,0.150000X0.825000X0.150000X-0.825000X0.150000X-0.825000X-0.150000X0.825000X-0.150000X0*%
%ADD12RoundRect,0.200000X-0.275000X0.200000X-0.275000X-0.200000X0.275000X-0.200000X0.275000X0.200000X0*%
%ADD13RoundRect,0.225000X0.250000X-0.225000X0.250000X0.225000X-0.250000X0.225000X-0.250000X-0.225000X0*%
%ADD14RoundRect,0.225000X-0.250000X0.225000X-0.250000X-0.225000X0.250000X-0.225000X0.250000X0.225000X0*%
%ADD15RoundRect,0.150000X-0.825000X-0.150000X0.825000X-0.150000X0.825000X0.150000X-0.825000X0.150000X0*%
%ADD16RoundRect,0.250000X0.250000X0.475000X-0.250000X0.475000X-0.250000X-0.475000X0.250000X-0.475000X0*%
%ADD17RoundRect,0.200000X0.200000X0.275000X-0.200000X0.275000X-0.200000X-0.275000X0.200000X-0.275000X0*%
%ADD18R,0.900000X1.300000*%
%ADD19FreePoly0,270.000000*%
%ADD20RoundRect,0.218750X0.218750X0.256250X-0.218750X0.256250X-0.218750X-0.256250X0.218750X-0.256250X0*%
%ADD21R,0.700000X2.000000*%
%ADD22R,0.760000X2.000000*%
%ADD23R,0.800000X2.000000*%
%ADD24R,1.800000X1.900000*%
%ADD25R,1.700000X1.800000*%
%ADD26R,0.500000X0.500000*%
%ADD27R,0.400000X0.650000*%
%ADD28RoundRect,0.250000X-0.475000X0.250000X-0.475000X-0.250000X0.475000X-0.250000X0.475000X0.250000X0*%
G04 APERTURE END LIST*
D10*
X119167500Y-92075000D03*
X120817500Y-92075000D03*
D11*
X131510000Y-137160000D03*
X131510000Y-135890000D03*
X131510000Y-134620000D03*
X131510000Y-133350000D03*
X126560000Y-133350000D03*
X126560000Y-134620000D03*
X126560000Y-135890000D03*
X126560000Y-137160000D03*
D12*
X116970000Y-109030000D03*
X116970000Y-110680000D03*
X140000000Y-117275000D03*
X140000000Y-118925000D03*
D13*
X127000000Y-112281000D03*
X127000000Y-110731000D03*
D14*
X127254000Y-105524000D03*
X127254000Y-107074000D03*
D15*
X131640000Y-112395000D03*
X131640000Y-113665000D03*
X131640000Y-114935000D03*
X131640000Y-116205000D03*
X131640000Y-117475000D03*
X131640000Y-118745000D03*
X131640000Y-120015000D03*
X136590000Y-120015000D03*
X136590000Y-118745000D03*
X136590000Y-117475000D03*
X136590000Y-116205000D03*
X136590000Y-114935000D03*
X136590000Y-113665000D03*
X136590000Y-112395000D03*
D16*
X134935000Y-109220000D03*
X133035000Y-109220000D03*
D12*
X127000000Y-96727742D03*
X127000000Y-98377742D03*
X134115000Y-72200000D03*
X134115000Y-73850000D03*
D17*
X137350000Y-129540000D03*
X135700000Y-129540000D03*
D10*
X125667000Y-130175000D03*
X127317000Y-130175000D03*
D18*
X123420000Y-129795000D03*
D19*
X121920000Y-129882500D03*
D18*
X120420000Y-129795000D03*
D20*
X116335000Y-92075000D03*
X114760000Y-92075000D03*
D21*
X138500000Y-133200000D03*
D22*
X140520000Y-133200000D03*
D23*
X141750000Y-133200000D03*
D21*
X139500000Y-133200000D03*
D22*
X137480000Y-133200000D03*
D23*
X136250000Y-133200000D03*
D10*
X139510000Y-129540000D03*
X141160000Y-129540000D03*
D24*
X118869000Y-103415000D03*
X118869000Y-98465000D03*
D25*
X114019000Y-106165000D03*
X114019000Y-95765000D03*
D24*
X118869000Y-100965000D03*
D12*
X138000000Y-103175000D03*
X138000000Y-104825000D03*
X128905000Y-113475000D03*
X128905000Y-115125000D03*
D26*
X121920000Y-122385000D03*
X121920000Y-120185000D03*
D14*
X130175000Y-104127000D03*
X130175000Y-105677000D03*
D12*
X124237500Y-96775000D03*
X124237500Y-98425000D03*
D16*
X123450000Y-127000000D03*
X121550000Y-127000000D03*
D26*
X121920000Y-99865000D03*
X121920000Y-102065000D03*
D27*
X121880000Y-79027400D03*
X121120000Y-79027400D03*
X121120000Y-80027400D03*
X121880000Y-80027400D03*
D28*
X123571000Y-135702000D03*
X123571000Y-137602000D03*
M02*
