G04 #@! TF.GenerationSoftware,KiCad,Pcbnew,(6.0.10-0)*
G04 #@! TF.CreationDate,2024-06-01T19:56:01+09:00*
G04 #@! TF.ProjectId,AutoFeeder_Drum-type,4175746f-4665-4656-9465-725f4472756d,01*
G04 #@! TF.SameCoordinates,Original*
G04 #@! TF.FileFunction,Soldermask,Bot*
G04 #@! TF.FilePolarity,Negative*
%FSLAX46Y46*%
G04 Gerber Fmt 4.6, Leading zero omitted, Abs format (unit mm)*
G04 Created by KiCad (PCBNEW (6.0.10-0)) date 2024-06-01 19:56:01*
%MOMM*%
%LPD*%
G01*
G04 APERTURE LIST*
G04 Aperture macros list*
%AMRoundRect*
0 Rectangle with rounded corners*
0 $1 Rounding radius*
0 $2 $3 $4 $5 $6 $7 $8 $9 X,Y pos of 4 corners*
0 Add a 4 corners polygon primitive as box body*
4,1,4,$2,$3,$4,$5,$6,$7,$8,$9,$2,$3,0*
0 Add four circle primitives for the rounded corners*
1,1,$1+$1,$2,$3*
1,1,$1+$1,$4,$5*
1,1,$1+$1,$6,$7*
1,1,$1+$1,$8,$9*
0 Add four rect primitives between the rounded corners*
20,1,$1+$1,$2,$3,$4,$5,0*
20,1,$1+$1,$4,$5,$6,$7,0*
20,1,$1+$1,$6,$7,$8,$9,0*
20,1,$1+$1,$8,$9,$2,$3,0*%
%AMFreePoly0*
4,1,22,0.550000,-0.750000,0.000000,-0.750000,0.000000,-0.745033,-0.079941,-0.743568,-0.215256,-0.701293,-0.333266,-0.622738,-0.424486,-0.514219,-0.481581,-0.384460,-0.499164,-0.250000,-0.500000,-0.250000,-0.500000,0.250000,-0.499164,0.250000,-0.499963,0.256109,-0.478152,0.396186,-0.417904,0.524511,-0.324060,0.630769,-0.204165,0.706417,-0.067858,0.745374,0.000000,0.744959,0.000000,0.750000,
0.550000,0.750000,0.550000,-0.750000,0.550000,-0.750000,$1*%
%AMFreePoly1*
4,1,20,0.000000,0.744959,0.073905,0.744508,0.209726,0.703889,0.328688,0.626782,0.421226,0.519385,0.479903,0.390333,0.500000,0.250000,0.500000,-0.250000,0.499851,-0.262216,0.476331,-0.402017,0.414519,-0.529596,0.319384,-0.634700,0.198574,-0.708877,0.061801,-0.746166,0.000000,-0.745033,0.000000,-0.750000,-0.550000,-0.750000,-0.550000,0.750000,0.000000,0.750000,0.000000,0.744959,
0.000000,0.744959,$1*%
G04 Aperture macros list end*
%ADD10R,1.700000X1.700000*%
%ADD11O,1.700000X1.700000*%
%ADD12O,2.000000X5.000000*%
%ADD13C,2.700000*%
%ADD14C,1.620000*%
%ADD15O,1.100000X1.700000*%
%ADD16C,1.100000*%
%ADD17O,4.000000X5.000000*%
%ADD18FreePoly0,0.000000*%
%ADD19R,1.000000X1.500000*%
%ADD20FreePoly1,0.000000*%
%ADD21RoundRect,0.250000X-0.750000X0.600000X-0.750000X-0.600000X0.750000X-0.600000X0.750000X0.600000X0*%
%ADD22O,2.000000X1.700000*%
%ADD23RoundRect,0.150000X0.675000X0.150000X-0.675000X0.150000X-0.675000X-0.150000X0.675000X-0.150000X0*%
%ADD24C,1.700000*%
G04 APERTURE END LIST*
D10*
X115700000Y-118745000D03*
D11*
X115700000Y-116205000D03*
X118240000Y-118745000D03*
X118240000Y-116205000D03*
D12*
X130500000Y-82500000D03*
D10*
X125225000Y-123825000D03*
D11*
X127765000Y-123825000D03*
X130305000Y-123825000D03*
X132845000Y-123825000D03*
X135385000Y-123825000D03*
D13*
X141500000Y-73000000D03*
X141500000Y-86000000D03*
D14*
X140000000Y-101500000D03*
X142500000Y-104000000D03*
X140000000Y-106500000D03*
D15*
X143320000Y-133425500D03*
X134680000Y-133425500D03*
X143320000Y-137225500D03*
X134680000Y-137225500D03*
D14*
X140000000Y-110000000D03*
X142500000Y-112500000D03*
X140000000Y-115000000D03*
D13*
X141500000Y-96000000D03*
D16*
X115119000Y-98465000D03*
X115119000Y-103465000D03*
D12*
X130500000Y-76500000D03*
D10*
X127000000Y-75717400D03*
D11*
X127000000Y-78257400D03*
X127000000Y-80797400D03*
X127000000Y-83337400D03*
D17*
X138000000Y-79500000D03*
D13*
X141500000Y-124000000D03*
D18*
X127100000Y-98425000D03*
D19*
X128400000Y-98425000D03*
D20*
X129700000Y-98425000D03*
D21*
X116713000Y-133985000D03*
D22*
X116713000Y-136485000D03*
D10*
X127762000Y-127000000D03*
D11*
X130302000Y-127000000D03*
D10*
X134191200Y-83312000D03*
D23*
X128625000Y-103095000D03*
X128625000Y-104365000D03*
X128625000Y-105635000D03*
X128625000Y-106905000D03*
X123375000Y-106905000D03*
X123375000Y-105635000D03*
X123375000Y-104365000D03*
X123375000Y-103095000D03*
D10*
X141800000Y-78250000D03*
D24*
X141800000Y-80790000D03*
X134180000Y-80790000D03*
X134180000Y-78250000D03*
D10*
X115700000Y-128270000D03*
D11*
X118240000Y-128270000D03*
X115700000Y-125730000D03*
X118240000Y-125730000D03*
X115700000Y-123190000D03*
X118240000Y-123190000D03*
D24*
X134191200Y-75717400D03*
M02*
