G04 #@! TF.GenerationSoftware,KiCad,Pcbnew,(6.0.10-0)*
G04 #@! TF.CreationDate,2024-06-01T19:56:01+09:00*
G04 #@! TF.ProjectId,AutoFeeder_Drum-type,4175746f-4665-4656-9465-725f4472756d,01*
G04 #@! TF.SameCoordinates,Original*
G04 #@! TF.FileFunction,Copper,L2,Bot*
G04 #@! TF.FilePolarity,Positive*
%FSLAX46Y46*%
G04 Gerber Fmt 4.6, Leading zero omitted, Abs format (unit mm)*
G04 Created by KiCad (PCBNEW (6.0.10-0)) date 2024-06-01 19:56:01*
%MOMM*%
%LPD*%
G01*
G04 APERTURE LIST*
G04 Aperture macros list*
%AMRoundRect*
0 Rectangle with rounded corners*
0 $1 Rounding radius*
0 $2 $3 $4 $5 $6 $7 $8 $9 X,Y pos of 4 corners*
0 Add a 4 corners polygon primitive as box body*
4,1,4,$2,$3,$4,$5,$6,$7,$8,$9,$2,$3,0*
0 Add four circle primitives for the rounded corners*
1,1,$1+$1,$2,$3*
1,1,$1+$1,$4,$5*
1,1,$1+$1,$6,$7*
1,1,$1+$1,$8,$9*
0 Add four rect primitives between the rounded corners*
20,1,$1+$1,$2,$3,$4,$5,0*
20,1,$1+$1,$4,$5,$6,$7,0*
20,1,$1+$1,$6,$7,$8,$9,0*
20,1,$1+$1,$8,$9,$2,$3,0*%
%AMFreePoly0*
4,1,22,0.550000,-0.750000,0.000000,-0.750000,0.000000,-0.745033,-0.079941,-0.743568,-0.215256,-0.701293,-0.333266,-0.622738,-0.424486,-0.514219,-0.481581,-0.384460,-0.499164,-0.250000,-0.500000,-0.250000,-0.500000,0.250000,-0.499164,0.250000,-0.499963,0.256109,-0.478152,0.396186,-0.417904,0.524511,-0.324060,0.630769,-0.204165,0.706417,-0.067858,0.745374,0.000000,0.744959,0.000000,0.750000,
0.550000,0.750000,0.550000,-0.750000,0.550000,-0.750000,$1*%
%AMFreePoly1*
4,1,20,0.000000,0.744959,0.073905,0.744508,0.209726,0.703889,0.328688,0.626782,0.421226,0.519385,0.479903,0.390333,0.500000,0.250000,0.500000,-0.250000,0.499851,-0.262216,0.476331,-0.402017,0.414519,-0.529596,0.319384,-0.634700,0.198574,-0.708877,0.061801,-0.746166,0.000000,-0.745033,0.000000,-0.750000,-0.550000,-0.750000,-0.550000,0.750000,0.000000,0.750000,0.000000,0.744959,
0.000000,0.744959,$1*%
G04 Aperture macros list end*
G04 #@! TA.AperFunction,ComponentPad*
%ADD10R,1.700000X1.700000*%
G04 #@! TD*
G04 #@! TA.AperFunction,ComponentPad*
%ADD11O,1.700000X1.700000*%
G04 #@! TD*
G04 #@! TA.AperFunction,ComponentPad*
%ADD12C,0.600000*%
G04 #@! TD*
G04 #@! TA.AperFunction,ComponentPad*
%ADD13C,1.620000*%
G04 #@! TD*
G04 #@! TA.AperFunction,ComponentPad*
%ADD14O,1.100000X1.700000*%
G04 #@! TD*
G04 #@! TA.AperFunction,SMDPad,CuDef*
%ADD15FreePoly0,0.000000*%
G04 #@! TD*
G04 #@! TA.AperFunction,SMDPad,CuDef*
%ADD16R,1.000000X1.500000*%
G04 #@! TD*
G04 #@! TA.AperFunction,SMDPad,CuDef*
%ADD17FreePoly1,0.000000*%
G04 #@! TD*
G04 #@! TA.AperFunction,ComponentPad*
%ADD18RoundRect,0.250000X-0.750000X0.600000X-0.750000X-0.600000X0.750000X-0.600000X0.750000X0.600000X0*%
G04 #@! TD*
G04 #@! TA.AperFunction,ComponentPad*
%ADD19O,2.000000X1.700000*%
G04 #@! TD*
G04 #@! TA.AperFunction,SMDPad,CuDef*
%ADD20RoundRect,0.150000X0.675000X0.150000X-0.675000X0.150000X-0.675000X-0.150000X0.675000X-0.150000X0*%
G04 #@! TD*
G04 #@! TA.AperFunction,ComponentPad*
%ADD21C,1.700000*%
G04 #@! TD*
G04 #@! TA.AperFunction,ViaPad*
%ADD22C,0.800000*%
G04 #@! TD*
G04 #@! TA.AperFunction,Conductor*
%ADD23C,0.250000*%
G04 #@! TD*
G04 #@! TA.AperFunction,Conductor*
%ADD24C,0.400000*%
G04 #@! TD*
G04 APERTURE END LIST*
G36*
X128000000Y-98725000D02*
G01*
X127500000Y-98725000D01*
X127500000Y-98125000D01*
X128000000Y-98125000D01*
X128000000Y-98725000D01*
G37*
D10*
X115700000Y-118745000D03*
D11*
X115700000Y-116205000D03*
X118240000Y-118745000D03*
X118240000Y-116205000D03*
D12*
X121920000Y-131064000D03*
D10*
X125225000Y-123825000D03*
D11*
X127765000Y-123825000D03*
X130305000Y-123825000D03*
X132845000Y-123825000D03*
X135385000Y-123825000D03*
D12*
X121920000Y-132080000D03*
D13*
X140000000Y-101500000D03*
X142500000Y-104000000D03*
X140000000Y-106500000D03*
D14*
X143320000Y-133425500D03*
X134680000Y-133425500D03*
X143320000Y-137225500D03*
X134680000Y-137225500D03*
D13*
X140000000Y-110000000D03*
X142500000Y-112500000D03*
X140000000Y-115000000D03*
D12*
X121920000Y-133096000D03*
D10*
X127000000Y-75717400D03*
D11*
X127000000Y-78257400D03*
X127000000Y-80797400D03*
X127000000Y-83337400D03*
D15*
X127100000Y-98425000D03*
D16*
X128400000Y-98425000D03*
D17*
X129700000Y-98425000D03*
D18*
X116713000Y-133985000D03*
D19*
X116713000Y-136485000D03*
D10*
X127762000Y-127000000D03*
D11*
X130302000Y-127000000D03*
D10*
X134191200Y-83312000D03*
D20*
X128625000Y-103095000D03*
X128625000Y-104365000D03*
X128625000Y-105635000D03*
X128625000Y-106905000D03*
X123375000Y-106905000D03*
X123375000Y-105635000D03*
X123375000Y-104365000D03*
X123375000Y-103095000D03*
D10*
X141800000Y-78250000D03*
D21*
X141800000Y-80790000D03*
X134180000Y-80790000D03*
X134180000Y-78250000D03*
D10*
X115700000Y-128270000D03*
D11*
X118240000Y-128270000D03*
X115700000Y-125730000D03*
X118240000Y-125730000D03*
X115700000Y-123190000D03*
X118240000Y-123190000D03*
D21*
X134191200Y-75717400D03*
D22*
X134750000Y-112395000D03*
X127254000Y-108204000D03*
X121550000Y-128408000D03*
X125476000Y-138303000D03*
X115700000Y-95885000D03*
X115700000Y-106045000D03*
X134620000Y-129540000D03*
X142240000Y-129540000D03*
X127000000Y-109855000D03*
X130077000Y-106905000D03*
X124378700Y-80878700D03*
X130149000Y-103095000D03*
X130175000Y-115734500D03*
X126495000Y-115570000D03*
X126495000Y-118745000D03*
X129924000Y-118745000D03*
X124717000Y-104394000D03*
X123963500Y-116205000D03*
X135131000Y-117475000D03*
X124688000Y-105635000D03*
X123955000Y-117475000D03*
X135131000Y-118745000D03*
X132845000Y-96520000D03*
X121643500Y-92075000D03*
X120145000Y-109855000D03*
X135128000Y-116205000D03*
X129286000Y-137160000D03*
X125095000Y-135890000D03*
X127254000Y-104365000D03*
X133599701Y-114930701D03*
X133099000Y-113665000D03*
X121920000Y-119380000D03*
X129924000Y-120015000D03*
X120780000Y-124460000D03*
D23*
X135128000Y-116205000D02*
X133096000Y-116205000D01*
X133096000Y-116205000D02*
X124587000Y-109855000D01*
X124587000Y-109855000D02*
X120145000Y-109855000D01*
X118240000Y-118745000D02*
X123955000Y-117475000D01*
D24*
X129286000Y-137160000D02*
X124841000Y-137160000D01*
X124841000Y-137160000D02*
X116713000Y-136485000D01*
X125095000Y-135890000D02*
X116713000Y-133985000D01*
D23*
X135385000Y-123825000D02*
X133480000Y-125730000D01*
X133480000Y-125730000D02*
X118240000Y-125730000D01*
X127000000Y-74000000D02*
X127500000Y-73500000D01*
X130077000Y-106905000D02*
X128625000Y-106905000D01*
X127500000Y-73500000D02*
X132500000Y-73500000D01*
X127000000Y-75717400D02*
X127000000Y-74000000D01*
X132000000Y-84662000D02*
X132000000Y-82970000D01*
D24*
X124378700Y-80878700D02*
X127000000Y-78257400D01*
D23*
X130149000Y-103095000D02*
X130149000Y-98874000D01*
X129761500Y-85375000D02*
X131287000Y-85375000D01*
X124378700Y-80878700D02*
X125542000Y-82042000D01*
X125542000Y-82042000D02*
X127762000Y-82042000D01*
X129032000Y-84645500D02*
X129761500Y-85375000D01*
X127762000Y-82042000D02*
X129032000Y-83312000D01*
D24*
X130149000Y-103095000D02*
X128625000Y-103095000D01*
D23*
X131287000Y-85375000D02*
X132000000Y-84662000D01*
X130149000Y-98874000D02*
X129700000Y-98425000D01*
X129032000Y-83312000D02*
X129032000Y-84645500D01*
X132000000Y-82970000D02*
X134180000Y-80790000D01*
X130010500Y-115570000D02*
X130175000Y-115734500D01*
X126495000Y-115570000D02*
X130010500Y-115570000D01*
X127000000Y-80797400D02*
X128422400Y-79375000D01*
X128422400Y-79375000D02*
X133055000Y-79375000D01*
X133055000Y-79375000D02*
X134180000Y-78250000D01*
X129924000Y-118745000D02*
X126495000Y-118745000D01*
X124688000Y-104365000D02*
X123375000Y-104365000D01*
X124717000Y-104394000D02*
X124688000Y-104365000D01*
X123963500Y-116205000D02*
X118240000Y-116205000D01*
X123963500Y-116205000D02*
X135131000Y-117475000D01*
X135131000Y-118745000D02*
X129921000Y-117729000D01*
X129921000Y-117729000D02*
X123955000Y-117475000D01*
X124688000Y-105635000D02*
X123375000Y-105635000D01*
X132845000Y-96520000D02*
X121643500Y-92075000D01*
X123955000Y-101600000D02*
X127765000Y-101600000D01*
X123375000Y-103095000D02*
X123375000Y-102180000D01*
X128400000Y-100965000D02*
X128400000Y-98425000D01*
X127765000Y-101600000D02*
X128400000Y-100965000D01*
X123375000Y-102180000D02*
X123955000Y-101600000D01*
D24*
X127254000Y-104365000D02*
X128625000Y-104365000D01*
X133599701Y-114930701D02*
X139930701Y-114930701D01*
X139930701Y-114930701D02*
X140000000Y-115000000D01*
X142500000Y-112500000D02*
X140000000Y-110000000D01*
X135255000Y-113665000D02*
X142500000Y-112500000D01*
X133099000Y-113665000D02*
X135255000Y-113665000D01*
D23*
X129924000Y-120015000D02*
X122555000Y-120015000D01*
X122555000Y-120015000D02*
X121920000Y-119380000D01*
X120780000Y-124460000D02*
X116970000Y-124460000D01*
X116970000Y-124460000D02*
X115700000Y-125730000D01*
G04 #@! TA.AperFunction,Conductor*
G36*
X143942121Y-70520002D02*
G01*
X143988614Y-70573658D01*
X144000000Y-70626000D01*
X144000000Y-103548648D01*
X143979998Y-103616769D01*
X143926342Y-103663262D01*
X143856068Y-103673366D01*
X143791488Y-103643872D01*
X143752293Y-103581259D01*
X143744669Y-103552805D01*
X143740923Y-103542513D01*
X143648105Y-103343464D01*
X143642627Y-103333978D01*
X143604672Y-103279771D01*
X143594194Y-103271396D01*
X143580746Y-103278464D01*
X142872022Y-103987188D01*
X142864408Y-104001132D01*
X142864539Y-104002965D01*
X142868790Y-104009580D01*
X143581468Y-104722258D01*
X143593242Y-104728688D01*
X143605258Y-104719391D01*
X143642627Y-104666022D01*
X143648105Y-104656536D01*
X143740923Y-104457487D01*
X143744669Y-104447195D01*
X143752293Y-104418741D01*
X143789245Y-104358118D01*
X143853105Y-104327097D01*
X143923600Y-104335525D01*
X143978347Y-104380728D01*
X144000000Y-104451352D01*
X144000000Y-132079003D01*
X143979998Y-132147124D01*
X143926342Y-132193617D01*
X143856068Y-132203721D01*
X143814072Y-132189839D01*
X143737393Y-132148379D01*
X143726093Y-132143629D01*
X143591307Y-132101905D01*
X143577205Y-132101699D01*
X143574000Y-132108455D01*
X143574000Y-134735547D01*
X143577973Y-134749078D01*
X143585768Y-134750198D01*
X143712342Y-134712946D01*
X143723710Y-134708353D01*
X143815625Y-134660301D01*
X143885260Y-134646467D01*
X143951321Y-134672477D01*
X143992833Y-134730073D01*
X144000000Y-134771963D01*
X144000000Y-135879003D01*
X143979998Y-135947124D01*
X143926342Y-135993617D01*
X143856068Y-136003721D01*
X143814072Y-135989839D01*
X143737393Y-135948379D01*
X143726093Y-135943629D01*
X143591307Y-135901905D01*
X143577205Y-135901699D01*
X143574000Y-135908455D01*
X143574000Y-138535547D01*
X143577973Y-138549078D01*
X143585768Y-138550198D01*
X143712342Y-138512946D01*
X143723710Y-138508353D01*
X143815625Y-138460301D01*
X143885260Y-138446467D01*
X143951321Y-138472477D01*
X143992833Y-138530073D01*
X144000000Y-138571963D01*
X144000000Y-139374000D01*
X143979998Y-139442121D01*
X143926342Y-139488614D01*
X143874000Y-139500000D01*
X113552190Y-139500000D01*
X113484069Y-139479998D01*
X113463095Y-139463095D01*
X113036905Y-139036905D01*
X113002879Y-138974593D01*
X113000000Y-138947810D01*
X113000000Y-136430800D01*
X115454801Y-136430800D01*
X115464545Y-136641333D01*
X115513924Y-136846226D01*
X115516406Y-136851684D01*
X115516407Y-136851688D01*
X115520936Y-136861649D01*
X115601157Y-137038084D01*
X115723096Y-137209986D01*
X115875340Y-137355728D01*
X115880375Y-137358979D01*
X116047360Y-137466800D01*
X116047363Y-137466801D01*
X116052397Y-137470052D01*
X116247878Y-137548834D01*
X116370688Y-137572817D01*
X116450283Y-137588361D01*
X116450286Y-137588361D01*
X116454729Y-137589229D01*
X116460270Y-137589500D01*
X116915659Y-137589500D01*
X117072806Y-137574507D01*
X117275042Y-137515177D01*
X117361650Y-137470571D01*
X117457079Y-137421422D01*
X117457082Y-137421420D01*
X117462410Y-137418676D01*
X117538408Y-137358979D01*
X117623432Y-137292192D01*
X117623436Y-137292188D01*
X117628149Y-137288486D01*
X117692674Y-137214128D01*
X117762350Y-137133835D01*
X117762354Y-137133830D01*
X117766281Y-137129304D01*
X117781942Y-137102233D01*
X117833367Y-137053284D01*
X117901434Y-137039760D01*
X120841908Y-137283955D01*
X124738371Y-137607542D01*
X124755123Y-137610844D01*
X124755203Y-137610436D01*
X124762246Y-137611808D01*
X124769097Y-137613975D01*
X124775768Y-137614500D01*
X124816934Y-137614500D01*
X124827362Y-137614932D01*
X124832730Y-137615378D01*
X124832733Y-137615378D01*
X124837417Y-137615767D01*
X124852311Y-137614777D01*
X124860668Y-137614500D01*
X128764203Y-137614500D01*
X128832324Y-137634502D01*
X128849002Y-137647306D01*
X128904076Y-137697419D01*
X129043293Y-137773008D01*
X129196522Y-137813207D01*
X129280477Y-137814526D01*
X129347319Y-137815576D01*
X129347322Y-137815576D01*
X129354916Y-137815695D01*
X129509332Y-137780329D01*
X129588691Y-137740416D01*
X129644072Y-137712563D01*
X129644075Y-137712561D01*
X129650855Y-137709151D01*
X129656626Y-137704222D01*
X129656629Y-137704220D01*
X129765536Y-137611204D01*
X129765536Y-137611203D01*
X129771314Y-137606269D01*
X129794053Y-137574624D01*
X133622000Y-137574624D01*
X133622301Y-137580772D01*
X133636527Y-137725861D01*
X133638910Y-137737896D01*
X133695317Y-137924723D01*
X133699992Y-137936065D01*
X133791612Y-138108379D01*
X133798399Y-138118595D01*
X133921747Y-138269835D01*
X133930391Y-138278539D01*
X134080763Y-138402938D01*
X134090931Y-138409797D01*
X134262607Y-138502621D01*
X134273907Y-138507371D01*
X134408693Y-138549095D01*
X134422795Y-138549301D01*
X134426000Y-138542545D01*
X134426000Y-138535547D01*
X134934000Y-138535547D01*
X134937973Y-138549078D01*
X134945768Y-138550198D01*
X135072342Y-138512946D01*
X135083710Y-138508353D01*
X135256666Y-138417934D01*
X135266928Y-138411218D01*
X135419020Y-138288932D01*
X135427786Y-138280348D01*
X135553236Y-138130844D01*
X135560160Y-138120733D01*
X135654184Y-137949702D01*
X135659012Y-137938438D01*
X135718025Y-137752405D01*
X135720573Y-137740416D01*
X135737607Y-137588553D01*
X135738000Y-137581529D01*
X135738000Y-137574624D01*
X142262000Y-137574624D01*
X142262301Y-137580772D01*
X142276527Y-137725861D01*
X142278910Y-137737896D01*
X142335317Y-137924723D01*
X142339992Y-137936065D01*
X142431612Y-138108379D01*
X142438399Y-138118595D01*
X142561747Y-138269835D01*
X142570391Y-138278539D01*
X142720763Y-138402938D01*
X142730931Y-138409797D01*
X142902607Y-138502621D01*
X142913907Y-138507371D01*
X143048693Y-138549095D01*
X143062795Y-138549301D01*
X143066000Y-138542545D01*
X143066000Y-137497615D01*
X143061525Y-137482376D01*
X143060135Y-137481171D01*
X143052452Y-137479500D01*
X142280115Y-137479500D01*
X142264876Y-137483975D01*
X142263671Y-137485365D01*
X142262000Y-137493048D01*
X142262000Y-137574624D01*
X135738000Y-137574624D01*
X135738000Y-137497615D01*
X135733525Y-137482376D01*
X135732135Y-137481171D01*
X135724452Y-137479500D01*
X134952115Y-137479500D01*
X134936876Y-137483975D01*
X134935671Y-137485365D01*
X134934000Y-137493048D01*
X134934000Y-138535547D01*
X134426000Y-138535547D01*
X134426000Y-137497615D01*
X134421525Y-137482376D01*
X134420135Y-137481171D01*
X134412452Y-137479500D01*
X133640115Y-137479500D01*
X133624876Y-137483975D01*
X133623671Y-137485365D01*
X133622000Y-137493048D01*
X133622000Y-137574624D01*
X129794053Y-137574624D01*
X129863755Y-137477624D01*
X129922842Y-137330641D01*
X129945162Y-137173807D01*
X129945307Y-137160000D01*
X129926276Y-137002733D01*
X129907629Y-136953385D01*
X133622000Y-136953385D01*
X133626475Y-136968624D01*
X133627865Y-136969829D01*
X133635548Y-136971500D01*
X134407885Y-136971500D01*
X134423124Y-136967025D01*
X134424329Y-136965635D01*
X134426000Y-136957952D01*
X134426000Y-136953385D01*
X134934000Y-136953385D01*
X134938475Y-136968624D01*
X134939865Y-136969829D01*
X134947548Y-136971500D01*
X135719885Y-136971500D01*
X135735124Y-136967025D01*
X135736329Y-136965635D01*
X135738000Y-136957952D01*
X135738000Y-136953385D01*
X142262000Y-136953385D01*
X142266475Y-136968624D01*
X142267865Y-136969829D01*
X142275548Y-136971500D01*
X143047885Y-136971500D01*
X143063124Y-136967025D01*
X143064329Y-136965635D01*
X143066000Y-136957952D01*
X143066000Y-135915453D01*
X143062027Y-135901922D01*
X143054232Y-135900802D01*
X142927658Y-135938054D01*
X142916290Y-135942647D01*
X142743334Y-136033066D01*
X142733072Y-136039782D01*
X142580980Y-136162068D01*
X142572214Y-136170652D01*
X142446764Y-136320156D01*
X142439840Y-136330267D01*
X142345816Y-136501298D01*
X142340988Y-136512562D01*
X142281975Y-136698595D01*
X142279427Y-136710584D01*
X142262393Y-136862447D01*
X142262000Y-136869471D01*
X142262000Y-136953385D01*
X135738000Y-136953385D01*
X135738000Y-136876376D01*
X135737699Y-136870228D01*
X135723473Y-136725139D01*
X135721090Y-136713104D01*
X135664683Y-136526277D01*
X135660008Y-136514935D01*
X135568388Y-136342621D01*
X135561601Y-136332405D01*
X135438253Y-136181165D01*
X135429609Y-136172461D01*
X135279237Y-136048062D01*
X135269069Y-136041203D01*
X135097393Y-135948379D01*
X135086093Y-135943629D01*
X134951307Y-135901905D01*
X134937205Y-135901699D01*
X134934000Y-135908455D01*
X134934000Y-136953385D01*
X134426000Y-136953385D01*
X134426000Y-135915453D01*
X134422027Y-135901922D01*
X134414232Y-135900802D01*
X134287658Y-135938054D01*
X134276290Y-135942647D01*
X134103334Y-136033066D01*
X134093072Y-136039782D01*
X133940980Y-136162068D01*
X133932214Y-136170652D01*
X133806764Y-136320156D01*
X133799840Y-136330267D01*
X133705816Y-136501298D01*
X133700988Y-136512562D01*
X133641975Y-136698595D01*
X133639427Y-136710584D01*
X133622393Y-136862447D01*
X133622000Y-136869471D01*
X133622000Y-136953385D01*
X129907629Y-136953385D01*
X129870280Y-136854546D01*
X129780553Y-136723992D01*
X129768333Y-136713104D01*
X129737348Y-136685498D01*
X129662275Y-136618611D01*
X129654889Y-136614700D01*
X129528988Y-136548039D01*
X129528989Y-136548039D01*
X129522274Y-136544484D01*
X129368633Y-136505892D01*
X129361034Y-136505852D01*
X129361033Y-136505852D01*
X129295181Y-136505507D01*
X129210221Y-136505062D01*
X129202841Y-136506834D01*
X129202839Y-136506834D01*
X129063563Y-136540271D01*
X129063560Y-136540272D01*
X129056184Y-136542043D01*
X128915414Y-136614700D01*
X128909695Y-136619689D01*
X128846923Y-136674449D01*
X128782441Y-136704157D01*
X128764093Y-136705500D01*
X125461226Y-136705500D01*
X125393105Y-136685498D01*
X125346612Y-136631842D01*
X125336508Y-136561568D01*
X125366002Y-136496988D01*
X125404612Y-136466935D01*
X125453072Y-136442563D01*
X125453075Y-136442561D01*
X125459855Y-136439151D01*
X125465626Y-136434222D01*
X125465629Y-136434220D01*
X125574536Y-136341204D01*
X125574536Y-136341203D01*
X125580314Y-136336269D01*
X125672755Y-136207624D01*
X125731842Y-136060641D01*
X125748495Y-135943629D01*
X125753581Y-135907891D01*
X125753581Y-135907888D01*
X125754162Y-135903807D01*
X125754307Y-135890000D01*
X125735276Y-135732733D01*
X125679280Y-135584546D01*
X125589553Y-135453992D01*
X125471275Y-135348611D01*
X125331274Y-135274484D01*
X125177633Y-135235892D01*
X125170034Y-135235852D01*
X125170033Y-135235852D01*
X125104181Y-135235507D01*
X125019221Y-135235062D01*
X125011841Y-135236834D01*
X125011839Y-135236834D01*
X124872563Y-135270271D01*
X124872560Y-135270272D01*
X124865184Y-135272043D01*
X124858443Y-135275522D01*
X124858433Y-135275526D01*
X124772026Y-135320125D01*
X124702319Y-135333595D01*
X124686320Y-135331028D01*
X118065576Y-133826313D01*
X118003582Y-133791711D01*
X117994456Y-133774624D01*
X133622000Y-133774624D01*
X133622301Y-133780772D01*
X133636527Y-133925861D01*
X133638910Y-133937896D01*
X133695317Y-134124723D01*
X133699992Y-134136065D01*
X133791612Y-134308379D01*
X133798399Y-134318595D01*
X133921747Y-134469835D01*
X133930391Y-134478539D01*
X134080763Y-134602938D01*
X134090931Y-134609797D01*
X134262607Y-134702621D01*
X134273907Y-134707371D01*
X134408693Y-134749095D01*
X134422795Y-134749301D01*
X134426000Y-134742545D01*
X134426000Y-134735547D01*
X134934000Y-134735547D01*
X134937973Y-134749078D01*
X134945768Y-134750198D01*
X135072342Y-134712946D01*
X135083710Y-134708353D01*
X135256666Y-134617934D01*
X135266928Y-134611218D01*
X135419020Y-134488932D01*
X135427786Y-134480348D01*
X135553236Y-134330844D01*
X135560160Y-134320733D01*
X135654184Y-134149702D01*
X135659012Y-134138438D01*
X135718025Y-133952405D01*
X135720573Y-133940416D01*
X135737607Y-133788553D01*
X135738000Y-133781529D01*
X135738000Y-133774624D01*
X142262000Y-133774624D01*
X142262301Y-133780772D01*
X142276527Y-133925861D01*
X142278910Y-133937896D01*
X142335317Y-134124723D01*
X142339992Y-134136065D01*
X142431612Y-134308379D01*
X142438399Y-134318595D01*
X142561747Y-134469835D01*
X142570391Y-134478539D01*
X142720763Y-134602938D01*
X142730931Y-134609797D01*
X142902607Y-134702621D01*
X142913907Y-134707371D01*
X143048693Y-134749095D01*
X143062795Y-134749301D01*
X143066000Y-134742545D01*
X143066000Y-133697615D01*
X143061525Y-133682376D01*
X143060135Y-133681171D01*
X143052452Y-133679500D01*
X142280115Y-133679500D01*
X142264876Y-133683975D01*
X142263671Y-133685365D01*
X142262000Y-133693048D01*
X142262000Y-133774624D01*
X135738000Y-133774624D01*
X135738000Y-133697615D01*
X135733525Y-133682376D01*
X135732135Y-133681171D01*
X135724452Y-133679500D01*
X134952115Y-133679500D01*
X134936876Y-133683975D01*
X134935671Y-133685365D01*
X134934000Y-133693048D01*
X134934000Y-134735547D01*
X134426000Y-134735547D01*
X134426000Y-133697615D01*
X134421525Y-133682376D01*
X134420135Y-133681171D01*
X134412452Y-133679500D01*
X133640115Y-133679500D01*
X133624876Y-133683975D01*
X133623671Y-133685365D01*
X133622000Y-133693048D01*
X133622000Y-133774624D01*
X117994456Y-133774624D01*
X117970136Y-133729086D01*
X117967500Y-133703446D01*
X117967500Y-133337244D01*
X117960798Y-133275552D01*
X117915000Y-133153385D01*
X133622000Y-133153385D01*
X133626475Y-133168624D01*
X133627865Y-133169829D01*
X133635548Y-133171500D01*
X134407885Y-133171500D01*
X134423124Y-133167025D01*
X134424329Y-133165635D01*
X134426000Y-133157952D01*
X134426000Y-133153385D01*
X134934000Y-133153385D01*
X134938475Y-133168624D01*
X134939865Y-133169829D01*
X134947548Y-133171500D01*
X135719885Y-133171500D01*
X135735124Y-133167025D01*
X135736329Y-133165635D01*
X135738000Y-133157952D01*
X135738000Y-133153385D01*
X142262000Y-133153385D01*
X142266475Y-133168624D01*
X142267865Y-133169829D01*
X142275548Y-133171500D01*
X143047885Y-133171500D01*
X143063124Y-133167025D01*
X143064329Y-133165635D01*
X143066000Y-133157952D01*
X143066000Y-132115453D01*
X143062027Y-132101922D01*
X143054232Y-132100802D01*
X142927658Y-132138054D01*
X142916290Y-132142647D01*
X142743334Y-132233066D01*
X142733072Y-132239782D01*
X142580980Y-132362068D01*
X142572214Y-132370652D01*
X142446764Y-132520156D01*
X142439840Y-132530267D01*
X142345816Y-132701298D01*
X142340988Y-132712562D01*
X142281975Y-132898595D01*
X142279427Y-132910584D01*
X142262393Y-133062447D01*
X142262000Y-133069471D01*
X142262000Y-133153385D01*
X135738000Y-133153385D01*
X135738000Y-133076376D01*
X135737699Y-133070228D01*
X135723473Y-132925139D01*
X135721090Y-132913104D01*
X135664683Y-132726277D01*
X135660008Y-132714935D01*
X135568388Y-132542621D01*
X135561601Y-132532405D01*
X135438253Y-132381165D01*
X135429609Y-132372461D01*
X135279237Y-132248062D01*
X135269069Y-132241203D01*
X135097393Y-132148379D01*
X135086093Y-132143629D01*
X134951307Y-132101905D01*
X134937205Y-132101699D01*
X134934000Y-132108455D01*
X134934000Y-133153385D01*
X134426000Y-133153385D01*
X134426000Y-132115453D01*
X134422027Y-132101922D01*
X134414232Y-132100802D01*
X134287658Y-132138054D01*
X134276290Y-132142647D01*
X134103334Y-132233066D01*
X134093072Y-132239782D01*
X133940980Y-132362068D01*
X133932214Y-132370652D01*
X133806764Y-132520156D01*
X133799840Y-132530267D01*
X133705816Y-132701298D01*
X133700988Y-132712562D01*
X133641975Y-132898595D01*
X133639427Y-132910584D01*
X133622393Y-133062447D01*
X133622000Y-133069471D01*
X133622000Y-133153385D01*
X117915000Y-133153385D01*
X117910071Y-133140236D01*
X117904691Y-133133057D01*
X117904689Y-133133054D01*
X117828785Y-133031776D01*
X117823404Y-133024596D01*
X117802977Y-133009287D01*
X117714946Y-132943311D01*
X117714943Y-132943309D01*
X117707764Y-132937929D01*
X117602839Y-132898595D01*
X117579843Y-132889974D01*
X117579841Y-132889974D01*
X117572448Y-132887202D01*
X117564598Y-132886349D01*
X117564597Y-132886349D01*
X117514153Y-132880869D01*
X117514152Y-132880869D01*
X117510756Y-132880500D01*
X115915244Y-132880500D01*
X115911848Y-132880869D01*
X115911847Y-132880869D01*
X115861403Y-132886349D01*
X115861402Y-132886349D01*
X115853552Y-132887202D01*
X115846159Y-132889974D01*
X115846157Y-132889974D01*
X115823161Y-132898595D01*
X115718236Y-132937929D01*
X115711057Y-132943309D01*
X115711054Y-132943311D01*
X115623023Y-133009287D01*
X115602596Y-133024596D01*
X115597215Y-133031776D01*
X115521311Y-133133054D01*
X115521309Y-133133057D01*
X115515929Y-133140236D01*
X115465202Y-133275552D01*
X115458500Y-133337244D01*
X115458500Y-134632756D01*
X115458869Y-134636152D01*
X115458869Y-134636153D01*
X115459990Y-134646467D01*
X115465202Y-134694448D01*
X115467974Y-134701841D01*
X115467974Y-134701843D01*
X115472136Y-134712946D01*
X115515929Y-134829764D01*
X115521309Y-134836943D01*
X115521311Y-134836946D01*
X115587287Y-134924977D01*
X115602596Y-134945404D01*
X115609776Y-134950785D01*
X115711054Y-135026689D01*
X115711057Y-135026691D01*
X115718236Y-135032071D01*
X115807954Y-135065704D01*
X115846157Y-135080026D01*
X115846159Y-135080026D01*
X115853552Y-135082798D01*
X115861402Y-135083651D01*
X115861403Y-135083651D01*
X115911847Y-135089131D01*
X115915244Y-135089500D01*
X117510756Y-135089500D01*
X117514153Y-135089131D01*
X117564597Y-135083651D01*
X117564598Y-135083651D01*
X117572448Y-135082798D01*
X117579841Y-135080026D01*
X117579843Y-135080026D01*
X117618046Y-135065704D01*
X117707764Y-135032071D01*
X117714943Y-135026691D01*
X117714946Y-135026689D01*
X117816224Y-134950785D01*
X117823404Y-134945404D01*
X117838713Y-134924977D01*
X117904689Y-134836946D01*
X117904691Y-134836943D01*
X117910071Y-134829764D01*
X117913221Y-134821361D01*
X117915008Y-134818097D01*
X117965266Y-134767950D01*
X118034656Y-134752936D01*
X118053447Y-134755737D01*
X122320979Y-135725631D01*
X124485166Y-136217492D01*
X124547160Y-136252094D01*
X124561823Y-136270083D01*
X124591667Y-136314495D01*
X124591671Y-136314499D01*
X124595908Y-136320805D01*
X124601527Y-136325918D01*
X124601528Y-136325919D01*
X124707460Y-136422309D01*
X124713076Y-136427419D01*
X124719749Y-136431042D01*
X124764684Y-136455440D01*
X124815006Y-136505523D01*
X124830262Y-136574861D01*
X124805609Y-136641440D01*
X124748875Y-136684122D01*
X124694134Y-136691739D01*
X117987988Y-136134818D01*
X117921758Y-136109248D01*
X117883717Y-136061402D01*
X117832328Y-135948379D01*
X117824843Y-135931916D01*
X117702904Y-135760014D01*
X117550660Y-135614272D01*
X117515623Y-135591649D01*
X117378640Y-135503200D01*
X117378637Y-135503199D01*
X117373603Y-135499948D01*
X117178122Y-135421166D01*
X117043739Y-135394923D01*
X116975717Y-135381639D01*
X116975714Y-135381639D01*
X116971271Y-135380771D01*
X116965730Y-135380500D01*
X116510341Y-135380500D01*
X116353194Y-135395493D01*
X116150958Y-135454823D01*
X116145619Y-135457573D01*
X115968921Y-135548578D01*
X115968918Y-135548580D01*
X115963590Y-135551324D01*
X115958875Y-135555028D01*
X115802568Y-135677808D01*
X115802564Y-135677812D01*
X115797851Y-135681514D01*
X115793920Y-135686044D01*
X115793919Y-135686045D01*
X115663650Y-135836165D01*
X115663646Y-135836170D01*
X115659719Y-135840696D01*
X115554181Y-136023126D01*
X115485043Y-136222222D01*
X115484183Y-136228155D01*
X115484182Y-136228158D01*
X115467586Y-136342621D01*
X115454801Y-136430800D01*
X113000000Y-136430800D01*
X113000000Y-125700964D01*
X114591148Y-125700964D01*
X114604424Y-125903522D01*
X114605845Y-125909118D01*
X114605846Y-125909123D01*
X114640300Y-126044781D01*
X114654392Y-126100269D01*
X114656809Y-126105512D01*
X114720809Y-126244339D01*
X114739377Y-126284616D01*
X114742710Y-126289332D01*
X114821617Y-126400983D01*
X114856533Y-126450389D01*
X115001938Y-126592035D01*
X115170720Y-126704812D01*
X115176023Y-126707090D01*
X115176026Y-126707092D01*
X115334355Y-126775115D01*
X115357228Y-126784942D01*
X115414313Y-126797859D01*
X115549579Y-126828467D01*
X115549584Y-126828468D01*
X115555216Y-126829742D01*
X115560987Y-126829969D01*
X115560989Y-126829969D01*
X115620756Y-126832317D01*
X115758053Y-126837712D01*
X115858499Y-126823148D01*
X115953231Y-126809413D01*
X115953236Y-126809412D01*
X115958945Y-126808584D01*
X115964409Y-126806729D01*
X115964414Y-126806728D01*
X116145693Y-126745192D01*
X116145698Y-126745190D01*
X116151165Y-126743334D01*
X116328276Y-126644147D01*
X116371683Y-126608046D01*
X116479913Y-126518031D01*
X116484345Y-126514345D01*
X116541463Y-126445669D01*
X116610453Y-126362718D01*
X116610455Y-126362715D01*
X116614147Y-126358276D01*
X116713334Y-126181165D01*
X116715190Y-126175698D01*
X116715192Y-126175693D01*
X116776728Y-125994414D01*
X116776729Y-125994409D01*
X116778584Y-125988945D01*
X116779412Y-125983236D01*
X116779413Y-125983231D01*
X116807179Y-125791727D01*
X116807712Y-125788053D01*
X116809232Y-125730000D01*
X116790658Y-125527859D01*
X116789090Y-125522299D01*
X116737127Y-125338053D01*
X116737126Y-125338051D01*
X116735557Y-125332487D01*
X116736058Y-125332346D01*
X116730618Y-125265289D01*
X116764894Y-125201800D01*
X117090289Y-124876405D01*
X117152601Y-124842379D01*
X117179384Y-124839500D01*
X117275700Y-124839500D01*
X117343821Y-124859502D01*
X117390314Y-124913158D01*
X117400418Y-124983432D01*
X117374650Y-125043506D01*
X117309720Y-125125869D01*
X117307031Y-125130980D01*
X117307029Y-125130983D01*
X117294073Y-125155609D01*
X117215203Y-125305515D01*
X117155007Y-125499378D01*
X117131148Y-125700964D01*
X117144424Y-125903522D01*
X117145845Y-125909118D01*
X117145846Y-125909123D01*
X117180300Y-126044781D01*
X117194392Y-126100269D01*
X117196809Y-126105512D01*
X117260809Y-126244339D01*
X117279377Y-126284616D01*
X117282710Y-126289332D01*
X117361617Y-126400983D01*
X117396533Y-126450389D01*
X117541938Y-126592035D01*
X117710720Y-126704812D01*
X117716023Y-126707090D01*
X117716026Y-126707092D01*
X117812954Y-126748735D01*
X117867647Y-126794003D01*
X117889184Y-126861654D01*
X117870727Y-126930210D01*
X117818136Y-126977904D01*
X117802361Y-126984268D01*
X117716868Y-127012212D01*
X117707359Y-127016209D01*
X117518463Y-127114542D01*
X117509738Y-127120036D01*
X117339433Y-127247905D01*
X117331726Y-127254748D01*
X117184590Y-127408717D01*
X117178104Y-127416727D01*
X117058098Y-127592649D01*
X117053000Y-127601623D01*
X117044787Y-127619316D01*
X116997963Y-127672683D01*
X116929720Y-127692264D01*
X116861724Y-127671841D01*
X116815564Y-127617899D01*
X116804499Y-127566266D01*
X116804499Y-127394934D01*
X116789734Y-127320699D01*
X116733484Y-127236516D01*
X116649301Y-127180266D01*
X116575067Y-127165500D01*
X115700142Y-127165500D01*
X114824934Y-127165501D01*
X114789182Y-127172612D01*
X114762874Y-127177844D01*
X114762872Y-127177845D01*
X114750699Y-127180266D01*
X114740379Y-127187161D01*
X114740378Y-127187162D01*
X114679985Y-127227516D01*
X114666516Y-127236516D01*
X114610266Y-127320699D01*
X114595500Y-127394933D01*
X114595501Y-129145066D01*
X114610266Y-129219301D01*
X114666516Y-129303484D01*
X114750699Y-129359734D01*
X114824933Y-129374500D01*
X115699858Y-129374500D01*
X116575066Y-129374499D01*
X116610818Y-129367388D01*
X116637126Y-129362156D01*
X116637128Y-129362155D01*
X116649301Y-129359734D01*
X116659621Y-129352839D01*
X116659622Y-129352838D01*
X116723168Y-129310377D01*
X116733484Y-129303484D01*
X116789734Y-129219301D01*
X116804500Y-129145067D01*
X116804500Y-128973428D01*
X116824502Y-128905307D01*
X116878158Y-128858814D01*
X116948432Y-128848710D01*
X117013012Y-128878204D01*
X117037933Y-128907593D01*
X117137694Y-129070388D01*
X117143777Y-129078699D01*
X117283213Y-129239667D01*
X117290580Y-129246883D01*
X117454434Y-129382916D01*
X117462881Y-129388831D01*
X117646756Y-129496279D01*
X117656042Y-129500729D01*
X117855001Y-129576703D01*
X117864899Y-129579579D01*
X117968250Y-129600606D01*
X117982299Y-129599410D01*
X117986000Y-129589065D01*
X117986000Y-129588517D01*
X118494000Y-129588517D01*
X118498064Y-129602359D01*
X118511478Y-129604393D01*
X118518184Y-129603534D01*
X118528262Y-129601392D01*
X118732255Y-129540191D01*
X118741842Y-129536433D01*
X118933095Y-129442739D01*
X118941945Y-129437464D01*
X119115328Y-129313792D01*
X119123200Y-129307139D01*
X119274052Y-129156812D01*
X119280730Y-129148965D01*
X119405003Y-128976020D01*
X119410313Y-128967183D01*
X119504670Y-128776267D01*
X119508469Y-128766672D01*
X119570377Y-128562910D01*
X119572555Y-128552837D01*
X119573986Y-128541962D01*
X119571775Y-128527778D01*
X119558617Y-128524000D01*
X118512115Y-128524000D01*
X118496876Y-128528475D01*
X118495671Y-128529865D01*
X118494000Y-128537548D01*
X118494000Y-129588517D01*
X117986000Y-129588517D01*
X117986000Y-128142000D01*
X118006002Y-128073879D01*
X118059658Y-128027386D01*
X118112000Y-128016000D01*
X119558344Y-128016000D01*
X119571875Y-128012027D01*
X119573180Y-128002947D01*
X119531214Y-127835875D01*
X119527894Y-127826124D01*
X119442972Y-127630814D01*
X119438105Y-127621739D01*
X119322426Y-127442926D01*
X119316136Y-127434757D01*
X119172806Y-127277240D01*
X119165273Y-127270215D01*
X118998139Y-127138222D01*
X118989552Y-127132517D01*
X118803117Y-127029599D01*
X118793705Y-127025369D01*
X118679391Y-126984888D01*
X118621855Y-126943294D01*
X118595939Y-126877196D01*
X118609873Y-126807580D01*
X118659232Y-126756549D01*
X118680943Y-126746804D01*
X118691165Y-126743334D01*
X118868276Y-126644147D01*
X118911683Y-126608046D01*
X119019913Y-126518031D01*
X119024345Y-126514345D01*
X119081463Y-126445669D01*
X119150453Y-126362718D01*
X119150455Y-126362715D01*
X119154147Y-126358276D01*
X119253334Y-126181165D01*
X119253787Y-126181419D01*
X119297368Y-126130151D01*
X119366488Y-126109500D01*
X126531500Y-126109500D01*
X126599621Y-126129502D01*
X126646114Y-126183158D01*
X126657500Y-126235500D01*
X126657501Y-127054344D01*
X126657501Y-127875066D01*
X126672266Y-127949301D01*
X126679161Y-127959620D01*
X126679162Y-127959622D01*
X126716833Y-128016000D01*
X126728516Y-128033484D01*
X126812699Y-128089734D01*
X126886933Y-128104500D01*
X127761858Y-128104500D01*
X128637066Y-128104499D01*
X128672818Y-128097388D01*
X128699126Y-128092156D01*
X128699128Y-128092155D01*
X128711301Y-128089734D01*
X128721621Y-128082839D01*
X128721622Y-128082838D01*
X128785168Y-128040377D01*
X128795484Y-128033484D01*
X128851734Y-127949301D01*
X128866500Y-127875067D01*
X128866499Y-126235500D01*
X128886501Y-126167379D01*
X128940157Y-126120886D01*
X128992499Y-126109500D01*
X129337700Y-126109500D01*
X129405821Y-126129502D01*
X129452314Y-126183158D01*
X129462418Y-126253432D01*
X129436650Y-126313506D01*
X129371720Y-126395869D01*
X129369031Y-126400980D01*
X129369029Y-126400983D01*
X129321128Y-126492027D01*
X129277203Y-126575515D01*
X129268828Y-126602487D01*
X129220991Y-126756549D01*
X129217007Y-126769378D01*
X129193148Y-126970964D01*
X129206424Y-127173522D01*
X129207845Y-127179118D01*
X129207846Y-127179123D01*
X129227053Y-127254748D01*
X129256392Y-127370269D01*
X129258809Y-127375512D01*
X129296010Y-127456208D01*
X129341377Y-127554616D01*
X129344710Y-127559332D01*
X129388815Y-127621739D01*
X129458533Y-127720389D01*
X129603938Y-127862035D01*
X129772720Y-127974812D01*
X129778023Y-127977090D01*
X129778026Y-127977092D01*
X129909283Y-128033484D01*
X129959228Y-128054942D01*
X130032244Y-128071464D01*
X130151579Y-128098467D01*
X130151584Y-128098468D01*
X130157216Y-128099742D01*
X130162987Y-128099969D01*
X130162989Y-128099969D01*
X130222756Y-128102317D01*
X130360053Y-128107712D01*
X130467348Y-128092155D01*
X130555231Y-128079413D01*
X130555236Y-128079412D01*
X130560945Y-128078584D01*
X130566409Y-128076729D01*
X130566414Y-128076728D01*
X130747693Y-128015192D01*
X130747698Y-128015190D01*
X130753165Y-128013334D01*
X130771713Y-128002947D01*
X130827683Y-127971602D01*
X130930276Y-127914147D01*
X130969969Y-127881135D01*
X131081913Y-127788031D01*
X131086345Y-127784345D01*
X131143463Y-127715669D01*
X131212453Y-127632718D01*
X131212455Y-127632715D01*
X131216147Y-127628276D01*
X131315334Y-127451165D01*
X131317190Y-127445698D01*
X131317192Y-127445693D01*
X131378728Y-127264414D01*
X131378729Y-127264409D01*
X131380584Y-127258945D01*
X131381412Y-127253236D01*
X131381413Y-127253231D01*
X131409179Y-127061727D01*
X131409712Y-127058053D01*
X131411232Y-127000000D01*
X131396244Y-126836883D01*
X131393187Y-126803613D01*
X131393186Y-126803610D01*
X131392658Y-126797859D01*
X131388372Y-126782662D01*
X131339125Y-126608046D01*
X131339124Y-126608044D01*
X131337557Y-126602487D01*
X131326978Y-126581033D01*
X131250331Y-126425609D01*
X131247776Y-126420428D01*
X131165979Y-126310888D01*
X131141247Y-126244339D01*
X131156421Y-126174983D01*
X131206683Y-126124841D01*
X131266937Y-126109500D01*
X133426080Y-126109500D01*
X133450028Y-126112049D01*
X133451693Y-126112128D01*
X133461876Y-126114320D01*
X133472217Y-126113096D01*
X133495223Y-126110373D01*
X133501154Y-126110023D01*
X133501146Y-126109928D01*
X133506324Y-126109500D01*
X133511524Y-126109500D01*
X133516653Y-126108646D01*
X133516656Y-126108646D01*
X133530565Y-126106331D01*
X133536443Y-126105494D01*
X133577001Y-126100694D01*
X133577002Y-126100694D01*
X133587341Y-126099470D01*
X133595593Y-126095507D01*
X133604626Y-126094004D01*
X133613795Y-126089057D01*
X133613797Y-126089056D01*
X133649732Y-126069666D01*
X133655025Y-126066969D01*
X133694082Y-126048215D01*
X133694086Y-126048212D01*
X133701232Y-126044781D01*
X133705508Y-126041186D01*
X133707431Y-126039263D01*
X133709363Y-126037491D01*
X133709442Y-126037448D01*
X133709555Y-126037572D01*
X133710095Y-126037096D01*
X133715814Y-126034010D01*
X133752417Y-125994413D01*
X133755846Y-125990848D01*
X134859107Y-124887587D01*
X134921419Y-124853561D01*
X134997941Y-124860915D01*
X135016276Y-124868792D01*
X135042228Y-124879942D01*
X135090236Y-124890805D01*
X135234579Y-124923467D01*
X135234584Y-124923468D01*
X135240216Y-124924742D01*
X135245987Y-124924969D01*
X135245989Y-124924969D01*
X135305756Y-124927317D01*
X135443053Y-124932712D01*
X135550348Y-124917155D01*
X135638231Y-124904413D01*
X135638236Y-124904412D01*
X135643945Y-124903584D01*
X135649409Y-124901729D01*
X135649414Y-124901728D01*
X135830693Y-124840192D01*
X135830698Y-124840190D01*
X135836165Y-124838334D01*
X135846383Y-124832612D01*
X135914138Y-124794667D01*
X136013276Y-124739147D01*
X136018383Y-124734900D01*
X136148396Y-124626768D01*
X136169345Y-124609345D01*
X136278675Y-124477891D01*
X136295453Y-124457718D01*
X136295455Y-124457715D01*
X136299147Y-124453276D01*
X136386394Y-124297485D01*
X136395510Y-124281208D01*
X136395511Y-124281206D01*
X136398334Y-124276165D01*
X136400190Y-124270698D01*
X136400192Y-124270693D01*
X136461728Y-124089414D01*
X136461729Y-124089409D01*
X136463584Y-124083945D01*
X136464412Y-124078236D01*
X136464413Y-124078231D01*
X136475756Y-124000000D01*
X139890539Y-124000000D01*
X139910354Y-124251775D01*
X139911508Y-124256582D01*
X139911509Y-124256588D01*
X139934479Y-124352262D01*
X139969312Y-124497351D01*
X139971205Y-124501922D01*
X139971206Y-124501924D01*
X140058145Y-124711812D01*
X140065960Y-124730680D01*
X140197919Y-124946017D01*
X140361939Y-125138061D01*
X140553983Y-125302081D01*
X140769320Y-125434040D01*
X140773890Y-125435933D01*
X140773894Y-125435935D01*
X140940910Y-125505115D01*
X141002649Y-125530688D01*
X141088865Y-125551387D01*
X141243412Y-125588491D01*
X141243418Y-125588492D01*
X141248225Y-125589646D01*
X141336253Y-125596574D01*
X141434507Y-125604307D01*
X141434516Y-125604307D01*
X141436964Y-125604500D01*
X141563036Y-125604500D01*
X141565484Y-125604307D01*
X141565493Y-125604307D01*
X141663747Y-125596574D01*
X141751775Y-125589646D01*
X141756582Y-125588492D01*
X141756588Y-125588491D01*
X141911135Y-125551387D01*
X141997351Y-125530688D01*
X142059090Y-125505115D01*
X142226106Y-125435935D01*
X142226110Y-125435933D01*
X142230680Y-125434040D01*
X142446017Y-125302081D01*
X142638061Y-125138061D01*
X142802081Y-124946017D01*
X142934040Y-124730680D01*
X142941856Y-124711812D01*
X143028794Y-124501924D01*
X143028795Y-124501922D01*
X143030688Y-124497351D01*
X143065521Y-124352262D01*
X143088491Y-124256588D01*
X143088492Y-124256582D01*
X143089646Y-124251775D01*
X143109461Y-124000000D01*
X143089646Y-123748225D01*
X143088492Y-123743418D01*
X143088491Y-123743412D01*
X143031843Y-123507461D01*
X143030688Y-123502649D01*
X143028794Y-123498076D01*
X142935935Y-123273894D01*
X142935933Y-123273890D01*
X142934040Y-123269320D01*
X142802081Y-123053983D01*
X142638061Y-122861939D01*
X142446017Y-122697919D01*
X142230680Y-122565960D01*
X142226110Y-122564067D01*
X142226106Y-122564065D01*
X142001924Y-122471206D01*
X142001922Y-122471205D01*
X141997351Y-122469312D01*
X141891316Y-122443855D01*
X141756588Y-122411509D01*
X141756582Y-122411508D01*
X141751775Y-122410354D01*
X141663747Y-122403426D01*
X141565493Y-122395693D01*
X141565484Y-122395693D01*
X141563036Y-122395500D01*
X141436964Y-122395500D01*
X141434516Y-122395693D01*
X141434507Y-122395693D01*
X141336253Y-122403426D01*
X141248225Y-122410354D01*
X141243418Y-122411508D01*
X141243412Y-122411509D01*
X141108684Y-122443855D01*
X141002649Y-122469312D01*
X140998078Y-122471205D01*
X140998076Y-122471206D01*
X140773894Y-122564065D01*
X140773890Y-122564067D01*
X140769320Y-122565960D01*
X140553983Y-122697919D01*
X140361939Y-122861939D01*
X140197919Y-123053983D01*
X140065960Y-123269320D01*
X140064067Y-123273890D01*
X140064065Y-123273894D01*
X139971206Y-123498076D01*
X139969312Y-123502649D01*
X139968157Y-123507461D01*
X139911509Y-123743412D01*
X139911508Y-123743418D01*
X139910354Y-123748225D01*
X139890539Y-124000000D01*
X136475756Y-124000000D01*
X136492179Y-123886727D01*
X136492712Y-123883053D01*
X136494232Y-123825000D01*
X136482797Y-123700551D01*
X136476187Y-123628613D01*
X136476186Y-123628610D01*
X136475658Y-123622859D01*
X136474090Y-123617299D01*
X136422125Y-123433046D01*
X136422124Y-123433044D01*
X136420557Y-123427487D01*
X136409978Y-123406033D01*
X136333331Y-123250609D01*
X136330776Y-123245428D01*
X136209320Y-123082779D01*
X136108690Y-122989757D01*
X136064503Y-122948911D01*
X136060258Y-122944987D01*
X136055375Y-122941906D01*
X136055371Y-122941903D01*
X135893464Y-122839748D01*
X135888581Y-122836667D01*
X135700039Y-122761446D01*
X135694379Y-122760320D01*
X135694375Y-122760319D01*
X135506613Y-122722971D01*
X135506610Y-122722971D01*
X135500946Y-122721844D01*
X135495171Y-122721768D01*
X135495167Y-122721768D01*
X135393793Y-122720441D01*
X135297971Y-122719187D01*
X135292274Y-122720166D01*
X135292273Y-122720166D01*
X135204397Y-122735266D01*
X135097910Y-122753564D01*
X134907463Y-122823824D01*
X134733010Y-122927612D01*
X134728670Y-122931418D01*
X134728666Y-122931421D01*
X134593205Y-123050218D01*
X134580392Y-123061455D01*
X134454720Y-123220869D01*
X134452031Y-123225980D01*
X134452029Y-123225983D01*
X134426822Y-123273894D01*
X134360203Y-123400515D01*
X134300007Y-123594378D01*
X134276148Y-123795964D01*
X134289424Y-123998522D01*
X134290845Y-124004118D01*
X134290846Y-124004123D01*
X134331358Y-124163635D01*
X134339392Y-124195269D01*
X134346375Y-124210417D01*
X134356730Y-124280652D01*
X134327468Y-124345338D01*
X134321044Y-124352262D01*
X133359711Y-125313595D01*
X133297399Y-125347621D01*
X133270616Y-125350500D01*
X130804721Y-125350500D01*
X130736600Y-125330498D01*
X130690107Y-125276842D01*
X130680003Y-125206568D01*
X130709497Y-125141988D01*
X130768513Y-125103814D01*
X130797255Y-125095191D01*
X130806842Y-125091433D01*
X130998095Y-124997739D01*
X131006945Y-124992464D01*
X131180328Y-124868792D01*
X131188200Y-124862139D01*
X131339052Y-124711812D01*
X131345730Y-124703965D01*
X131470003Y-124531020D01*
X131475313Y-124522183D01*
X131569670Y-124331267D01*
X131573469Y-124321672D01*
X131590066Y-124267047D01*
X131629007Y-124207683D01*
X131693862Y-124178796D01*
X131764038Y-124189558D01*
X131817256Y-124236551D01*
X131825048Y-124250922D01*
X131884377Y-124379616D01*
X131887710Y-124384332D01*
X131964183Y-124492539D01*
X132001533Y-124545389D01*
X132146938Y-124687035D01*
X132315720Y-124799812D01*
X132321023Y-124802090D01*
X132321026Y-124802092D01*
X132493995Y-124876405D01*
X132502228Y-124879942D01*
X132550236Y-124890805D01*
X132694579Y-124923467D01*
X132694584Y-124923468D01*
X132700216Y-124924742D01*
X132705987Y-124924969D01*
X132705989Y-124924969D01*
X132765756Y-124927317D01*
X132903053Y-124932712D01*
X133010348Y-124917155D01*
X133098231Y-124904413D01*
X133098236Y-124904412D01*
X133103945Y-124903584D01*
X133109409Y-124901729D01*
X133109414Y-124901728D01*
X133290693Y-124840192D01*
X133290698Y-124840190D01*
X133296165Y-124838334D01*
X133306383Y-124832612D01*
X133374138Y-124794667D01*
X133473276Y-124739147D01*
X133478383Y-124734900D01*
X133608396Y-124626768D01*
X133629345Y-124609345D01*
X133738675Y-124477891D01*
X133755453Y-124457718D01*
X133755455Y-124457715D01*
X133759147Y-124453276D01*
X133846394Y-124297485D01*
X133855510Y-124281208D01*
X133855511Y-124281206D01*
X133858334Y-124276165D01*
X133860190Y-124270698D01*
X133860192Y-124270693D01*
X133921728Y-124089414D01*
X133921729Y-124089409D01*
X133923584Y-124083945D01*
X133924412Y-124078236D01*
X133924413Y-124078231D01*
X133952179Y-123886727D01*
X133952712Y-123883053D01*
X133954232Y-123825000D01*
X133942797Y-123700551D01*
X133936187Y-123628613D01*
X133936186Y-123628610D01*
X133935658Y-123622859D01*
X133934090Y-123617299D01*
X133882125Y-123433046D01*
X133882124Y-123433044D01*
X133880557Y-123427487D01*
X133869978Y-123406033D01*
X133793331Y-123250609D01*
X133790776Y-123245428D01*
X133669320Y-123082779D01*
X133568690Y-122989757D01*
X133524503Y-122948911D01*
X133520258Y-122944987D01*
X133515375Y-122941906D01*
X133515371Y-122941903D01*
X133353464Y-122839748D01*
X133348581Y-122836667D01*
X133160039Y-122761446D01*
X133154379Y-122760320D01*
X133154375Y-122760319D01*
X132966613Y-122722971D01*
X132966610Y-122722971D01*
X132960946Y-122721844D01*
X132955171Y-122721768D01*
X132955167Y-122721768D01*
X132853793Y-122720441D01*
X132757971Y-122719187D01*
X132752274Y-122720166D01*
X132752273Y-122720166D01*
X132664397Y-122735266D01*
X132557910Y-122753564D01*
X132367463Y-122823824D01*
X132193010Y-122927612D01*
X132188670Y-122931418D01*
X132188666Y-122931421D01*
X132053205Y-123050218D01*
X132040392Y-123061455D01*
X131914720Y-123220869D01*
X131912031Y-123225980D01*
X131912029Y-123225983D01*
X131822589Y-123395980D01*
X131773170Y-123446952D01*
X131704037Y-123463115D01*
X131637141Y-123439336D01*
X131597003Y-123384973D01*
X131594955Y-123385863D01*
X131507972Y-123185814D01*
X131503105Y-123176739D01*
X131387426Y-122997926D01*
X131381136Y-122989757D01*
X131237806Y-122832240D01*
X131230273Y-122825215D01*
X131063139Y-122693222D01*
X131054552Y-122687517D01*
X130868117Y-122584599D01*
X130858705Y-122580369D01*
X130657959Y-122509280D01*
X130647988Y-122506646D01*
X130576837Y-122493972D01*
X130563540Y-122495432D01*
X130559000Y-122509989D01*
X130559000Y-123953000D01*
X130538998Y-124021121D01*
X130485342Y-124067614D01*
X130433000Y-124079000D01*
X130177000Y-124079000D01*
X130108879Y-124058998D01*
X130062386Y-124005342D01*
X130051000Y-123953000D01*
X130051000Y-122508102D01*
X130047082Y-122494758D01*
X130032806Y-122492771D01*
X129994324Y-122498660D01*
X129984288Y-122501051D01*
X129781868Y-122567212D01*
X129772359Y-122571209D01*
X129583463Y-122669542D01*
X129574738Y-122675036D01*
X129404433Y-122802905D01*
X129396726Y-122809748D01*
X129249590Y-122963717D01*
X129243104Y-122971727D01*
X129123098Y-123147649D01*
X129118000Y-123156623D01*
X129028338Y-123349783D01*
X129024777Y-123359464D01*
X129020291Y-123375640D01*
X128982813Y-123435939D01*
X128918684Y-123466403D01*
X128848266Y-123457360D01*
X128793915Y-123411682D01*
X128785867Y-123397698D01*
X128713331Y-123250609D01*
X128710776Y-123245428D01*
X128589320Y-123082779D01*
X128488690Y-122989757D01*
X128444503Y-122948911D01*
X128440258Y-122944987D01*
X128435375Y-122941906D01*
X128435371Y-122941903D01*
X128273464Y-122839748D01*
X128268581Y-122836667D01*
X128080039Y-122761446D01*
X128074379Y-122760320D01*
X128074375Y-122760319D01*
X127886613Y-122722971D01*
X127886610Y-122722971D01*
X127880946Y-122721844D01*
X127875171Y-122721768D01*
X127875167Y-122721768D01*
X127773793Y-122720441D01*
X127677971Y-122719187D01*
X127672274Y-122720166D01*
X127672273Y-122720166D01*
X127584397Y-122735266D01*
X127477910Y-122753564D01*
X127287463Y-122823824D01*
X127113010Y-122927612D01*
X127108670Y-122931418D01*
X127108666Y-122931421D01*
X126973205Y-123050218D01*
X126960392Y-123061455D01*
X126834720Y-123220869D01*
X126832031Y-123225980D01*
X126832029Y-123225983D01*
X126806822Y-123273894D01*
X126740203Y-123400515D01*
X126680007Y-123594378D01*
X126656148Y-123795964D01*
X126669424Y-123998522D01*
X126670845Y-124004118D01*
X126670846Y-124004123D01*
X126711358Y-124163635D01*
X126719392Y-124195269D01*
X126721807Y-124200507D01*
X126721809Y-124200512D01*
X126772409Y-124310273D01*
X126804377Y-124379616D01*
X126807710Y-124384332D01*
X126884183Y-124492539D01*
X126921533Y-124545389D01*
X127066938Y-124687035D01*
X127235720Y-124799812D01*
X127241023Y-124802090D01*
X127241026Y-124802092D01*
X127413995Y-124876405D01*
X127422228Y-124879942D01*
X127470236Y-124890805D01*
X127614579Y-124923467D01*
X127614584Y-124923468D01*
X127620216Y-124924742D01*
X127625987Y-124924969D01*
X127625989Y-124924969D01*
X127685756Y-124927317D01*
X127823053Y-124932712D01*
X127930348Y-124917155D01*
X128018231Y-124904413D01*
X128018236Y-124904412D01*
X128023945Y-124903584D01*
X128029409Y-124901729D01*
X128029414Y-124901728D01*
X128210693Y-124840192D01*
X128210698Y-124840190D01*
X128216165Y-124838334D01*
X128226383Y-124832612D01*
X128294138Y-124794667D01*
X128393276Y-124739147D01*
X128398383Y-124734900D01*
X128528396Y-124626768D01*
X128549345Y-124609345D01*
X128658675Y-124477891D01*
X128675453Y-124457718D01*
X128675455Y-124457715D01*
X128679147Y-124453276D01*
X128766394Y-124297485D01*
X128775510Y-124281208D01*
X128775511Y-124281206D01*
X128778334Y-124276165D01*
X128780720Y-124269135D01*
X128781170Y-124268496D01*
X128782541Y-124265416D01*
X128783146Y-124265685D01*
X128821553Y-124211059D01*
X128887305Y-124184278D01*
X128957098Y-124197295D01*
X129008773Y-124245980D01*
X129016777Y-124262229D01*
X129086770Y-124434603D01*
X129091413Y-124443794D01*
X129202694Y-124625388D01*
X129208777Y-124633699D01*
X129348213Y-124794667D01*
X129355580Y-124801883D01*
X129519434Y-124937916D01*
X129527881Y-124943831D01*
X129711756Y-125051279D01*
X129721043Y-125055729D01*
X129854759Y-125106790D01*
X129911262Y-125149777D01*
X129935555Y-125216489D01*
X129919925Y-125285743D01*
X129869334Y-125335554D01*
X129809810Y-125350500D01*
X120938239Y-125350500D01*
X120870118Y-125330498D01*
X120823625Y-125276842D01*
X120813521Y-125206568D01*
X120843015Y-125141988D01*
X120902741Y-125103604D01*
X120910109Y-125101680D01*
X120995929Y-125082025D01*
X120995933Y-125082024D01*
X121003332Y-125080329D01*
X121076547Y-125043506D01*
X121138072Y-125012563D01*
X121138075Y-125012561D01*
X121144855Y-125009151D01*
X121150626Y-125004222D01*
X121150629Y-125004220D01*
X121259536Y-124911204D01*
X121259536Y-124911203D01*
X121265314Y-124906269D01*
X121357755Y-124777624D01*
X121416842Y-124630641D01*
X121422965Y-124587615D01*
X121438581Y-124477891D01*
X121438581Y-124477888D01*
X121439162Y-124473807D01*
X121439307Y-124460000D01*
X121420276Y-124302733D01*
X121364280Y-124154546D01*
X121342629Y-124123043D01*
X121278855Y-124030251D01*
X121278854Y-124030249D01*
X121274553Y-124023992D01*
X121156275Y-123918611D01*
X121148889Y-123914700D01*
X121022988Y-123848039D01*
X121022989Y-123848039D01*
X121016274Y-123844484D01*
X120862633Y-123805892D01*
X120855034Y-123805852D01*
X120855033Y-123805852D01*
X120789181Y-123805507D01*
X120704221Y-123805062D01*
X120696841Y-123806834D01*
X120696839Y-123806834D01*
X120557563Y-123840271D01*
X120557560Y-123840272D01*
X120550184Y-123842043D01*
X120409414Y-123914700D01*
X120290039Y-124018838D01*
X120285672Y-124025051D01*
X120285667Y-124025057D01*
X120284336Y-124026951D01*
X120283013Y-124028005D01*
X120280589Y-124030697D01*
X120280140Y-124030293D01*
X120228802Y-124071183D01*
X120181250Y-124080500D01*
X119204734Y-124080500D01*
X119136613Y-124060498D01*
X119090120Y-124006842D01*
X119080016Y-123936568D01*
X119107860Y-123873931D01*
X119150449Y-123822724D01*
X119150456Y-123822714D01*
X119154147Y-123818276D01*
X119253334Y-123641165D01*
X119255190Y-123635698D01*
X119255192Y-123635693D01*
X119316728Y-123454414D01*
X119316729Y-123454409D01*
X119318584Y-123448945D01*
X119319412Y-123443236D01*
X119319413Y-123443231D01*
X119347179Y-123251727D01*
X119347712Y-123248053D01*
X119349232Y-123190000D01*
X119330658Y-122987859D01*
X119326108Y-122971727D01*
X119319961Y-122949933D01*
X124120500Y-122949933D01*
X124120501Y-124700066D01*
X124135266Y-124774301D01*
X124142161Y-124784620D01*
X124142162Y-124784622D01*
X124180755Y-124842379D01*
X124191516Y-124858484D01*
X124275699Y-124914734D01*
X124349933Y-124929500D01*
X125224858Y-124929500D01*
X126100066Y-124929499D01*
X126135818Y-124922388D01*
X126162126Y-124917156D01*
X126162128Y-124917155D01*
X126174301Y-124914734D01*
X126184621Y-124907839D01*
X126184622Y-124907838D01*
X126248168Y-124865377D01*
X126258484Y-124858484D01*
X126314734Y-124774301D01*
X126329500Y-124700067D01*
X126329499Y-122949934D01*
X126314734Y-122875699D01*
X126288654Y-122836667D01*
X126265377Y-122801832D01*
X126258484Y-122791516D01*
X126174301Y-122735266D01*
X126100067Y-122720500D01*
X125225142Y-122720500D01*
X124349934Y-122720501D01*
X124314182Y-122727612D01*
X124287874Y-122732844D01*
X124287872Y-122732845D01*
X124275699Y-122735266D01*
X124265379Y-122742161D01*
X124265378Y-122742162D01*
X124204985Y-122782516D01*
X124191516Y-122791516D01*
X124135266Y-122875699D01*
X124120500Y-122949933D01*
X119319961Y-122949933D01*
X119277125Y-122798046D01*
X119277124Y-122798044D01*
X119275557Y-122792487D01*
X119264978Y-122771033D01*
X119188331Y-122615609D01*
X119185776Y-122610428D01*
X119064320Y-122447779D01*
X118915258Y-122309987D01*
X118910375Y-122306906D01*
X118910371Y-122306903D01*
X118748464Y-122204748D01*
X118743581Y-122201667D01*
X118555039Y-122126446D01*
X118549379Y-122125320D01*
X118549375Y-122125319D01*
X118361613Y-122087971D01*
X118361610Y-122087971D01*
X118355946Y-122086844D01*
X118350171Y-122086768D01*
X118350167Y-122086768D01*
X118248793Y-122085441D01*
X118152971Y-122084187D01*
X118147274Y-122085166D01*
X118147273Y-122085166D01*
X117958607Y-122117585D01*
X117952910Y-122118564D01*
X117762463Y-122188824D01*
X117588010Y-122292612D01*
X117583670Y-122296418D01*
X117583666Y-122296421D01*
X117439733Y-122422648D01*
X117435392Y-122426455D01*
X117309720Y-122585869D01*
X117307031Y-122590980D01*
X117307029Y-122590983D01*
X117294073Y-122615609D01*
X117215203Y-122765515D01*
X117180990Y-122875699D01*
X117159476Y-122944987D01*
X117155007Y-122959378D01*
X117131148Y-123160964D01*
X117144424Y-123363522D01*
X117145845Y-123369118D01*
X117145846Y-123369123D01*
X117170553Y-123466403D01*
X117194392Y-123560269D01*
X117196809Y-123565512D01*
X117234010Y-123646208D01*
X117279377Y-123744616D01*
X117282710Y-123749332D01*
X117376314Y-123881780D01*
X117399295Y-123948955D01*
X117382310Y-124017890D01*
X117330753Y-124066699D01*
X117273417Y-124080500D01*
X117023920Y-124080500D01*
X116999973Y-124077951D01*
X116998307Y-124077872D01*
X116988124Y-124075680D01*
X116977782Y-124076904D01*
X116977779Y-124076904D01*
X116954787Y-124079626D01*
X116948846Y-124079977D01*
X116948854Y-124080072D01*
X116943674Y-124080500D01*
X116938476Y-124080500D01*
X116933354Y-124081353D01*
X116933349Y-124081353D01*
X116919427Y-124083671D01*
X116913550Y-124084508D01*
X116907049Y-124085277D01*
X116872997Y-124089307D01*
X116872995Y-124089308D01*
X116862659Y-124090531D01*
X116854410Y-124094492D01*
X116845374Y-124095996D01*
X116836205Y-124100943D01*
X116836203Y-124100944D01*
X116800240Y-124120348D01*
X116794951Y-124123043D01*
X116755915Y-124141788D01*
X116748768Y-124145220D01*
X116744492Y-124148814D01*
X116742552Y-124150754D01*
X116740641Y-124152507D01*
X116740551Y-124152556D01*
X116740439Y-124152433D01*
X116739904Y-124152905D01*
X116734186Y-124155990D01*
X116727119Y-124163635D01*
X116697584Y-124195586D01*
X116694154Y-124199152D01*
X116225144Y-124668162D01*
X116162832Y-124702188D01*
X116089360Y-124696097D01*
X116015039Y-124666446D01*
X116009379Y-124665320D01*
X116009375Y-124665319D01*
X115821613Y-124627971D01*
X115821610Y-124627971D01*
X115815946Y-124626844D01*
X115810171Y-124626768D01*
X115810167Y-124626768D01*
X115708793Y-124625441D01*
X115612971Y-124624187D01*
X115607274Y-124625166D01*
X115607273Y-124625166D01*
X115418607Y-124657585D01*
X115412910Y-124658564D01*
X115222463Y-124728824D01*
X115048010Y-124832612D01*
X115043670Y-124836418D01*
X115043666Y-124836421D01*
X114918697Y-124946017D01*
X114895392Y-124966455D01*
X114769720Y-125125869D01*
X114767031Y-125130980D01*
X114767029Y-125130983D01*
X114754073Y-125155609D01*
X114675203Y-125305515D01*
X114615007Y-125499378D01*
X114591148Y-125700964D01*
X113000000Y-125700964D01*
X113000000Y-123160964D01*
X114591148Y-123160964D01*
X114604424Y-123363522D01*
X114605845Y-123369118D01*
X114605846Y-123369123D01*
X114630553Y-123466403D01*
X114654392Y-123560269D01*
X114656809Y-123565512D01*
X114694010Y-123646208D01*
X114739377Y-123744616D01*
X114856533Y-123910389D01*
X115001938Y-124052035D01*
X115006742Y-124055245D01*
X115030595Y-124071183D01*
X115170720Y-124164812D01*
X115176023Y-124167090D01*
X115176026Y-124167092D01*
X115264707Y-124205192D01*
X115357228Y-124244942D01*
X115387426Y-124251775D01*
X115549579Y-124288467D01*
X115549584Y-124288468D01*
X115555216Y-124289742D01*
X115560987Y-124289969D01*
X115560989Y-124289969D01*
X115620756Y-124292317D01*
X115758053Y-124297712D01*
X115875714Y-124280652D01*
X115953231Y-124269413D01*
X115953236Y-124269412D01*
X115958945Y-124268584D01*
X115964409Y-124266729D01*
X115964414Y-124266728D01*
X116145693Y-124205192D01*
X116145698Y-124205190D01*
X116151165Y-124203334D01*
X116158633Y-124199152D01*
X116248517Y-124148814D01*
X116328276Y-124104147D01*
X116338077Y-124095996D01*
X116459426Y-123995070D01*
X116484345Y-123974345D01*
X116567859Y-123873931D01*
X116610453Y-123822718D01*
X116610455Y-123822715D01*
X116614147Y-123818276D01*
X116713334Y-123641165D01*
X116715190Y-123635698D01*
X116715192Y-123635693D01*
X116776728Y-123454414D01*
X116776729Y-123454409D01*
X116778584Y-123448945D01*
X116779412Y-123443236D01*
X116779413Y-123443231D01*
X116807179Y-123251727D01*
X116807712Y-123248053D01*
X116809232Y-123190000D01*
X116790658Y-122987859D01*
X116786108Y-122971727D01*
X116737125Y-122798046D01*
X116737124Y-122798044D01*
X116735557Y-122792487D01*
X116724978Y-122771033D01*
X116648331Y-122615609D01*
X116645776Y-122610428D01*
X116524320Y-122447779D01*
X116375258Y-122309987D01*
X116370375Y-122306906D01*
X116370371Y-122306903D01*
X116208464Y-122204748D01*
X116203581Y-122201667D01*
X116015039Y-122126446D01*
X116009379Y-122125320D01*
X116009375Y-122125319D01*
X115821613Y-122087971D01*
X115821610Y-122087971D01*
X115815946Y-122086844D01*
X115810171Y-122086768D01*
X115810167Y-122086768D01*
X115708793Y-122085441D01*
X115612971Y-122084187D01*
X115607274Y-122085166D01*
X115607273Y-122085166D01*
X115418607Y-122117585D01*
X115412910Y-122118564D01*
X115222463Y-122188824D01*
X115048010Y-122292612D01*
X115043670Y-122296418D01*
X115043666Y-122296421D01*
X114899733Y-122422648D01*
X114895392Y-122426455D01*
X114769720Y-122585869D01*
X114767031Y-122590980D01*
X114767029Y-122590983D01*
X114754073Y-122615609D01*
X114675203Y-122765515D01*
X114640990Y-122875699D01*
X114619476Y-122944987D01*
X114615007Y-122959378D01*
X114591148Y-123160964D01*
X113000000Y-123160964D01*
X113000000Y-116472966D01*
X114368257Y-116472966D01*
X114398565Y-116607446D01*
X114401645Y-116617275D01*
X114481770Y-116814603D01*
X114486413Y-116823794D01*
X114597694Y-117005388D01*
X114603777Y-117013699D01*
X114743213Y-117174667D01*
X114750580Y-117181883D01*
X114914434Y-117317916D01*
X114922881Y-117323831D01*
X115063005Y-117405713D01*
X115111729Y-117457352D01*
X115124800Y-117527135D01*
X115098069Y-117592906D01*
X115040022Y-117633785D01*
X114999436Y-117640501D01*
X114824934Y-117640501D01*
X114789182Y-117647612D01*
X114762874Y-117652844D01*
X114762872Y-117652845D01*
X114750699Y-117655266D01*
X114740379Y-117662161D01*
X114740378Y-117662162D01*
X114679985Y-117702516D01*
X114666516Y-117711516D01*
X114610266Y-117795699D01*
X114595500Y-117869933D01*
X114595501Y-119620066D01*
X114610266Y-119694301D01*
X114617161Y-119704620D01*
X114617162Y-119704622D01*
X114657516Y-119765015D01*
X114666516Y-119778484D01*
X114750699Y-119834734D01*
X114824933Y-119849500D01*
X115699858Y-119849500D01*
X116575066Y-119849499D01*
X116610818Y-119842388D01*
X116637126Y-119837156D01*
X116637128Y-119837155D01*
X116649301Y-119834734D01*
X116659621Y-119827839D01*
X116659622Y-119827838D01*
X116723168Y-119785377D01*
X116733484Y-119778484D01*
X116774833Y-119716602D01*
X116782839Y-119704620D01*
X116789734Y-119694301D01*
X116804500Y-119620067D01*
X116804499Y-117869934D01*
X116789734Y-117795699D01*
X116763654Y-117756667D01*
X116740377Y-117721832D01*
X116733484Y-117711516D01*
X116649301Y-117655266D01*
X116575067Y-117640500D01*
X116400334Y-117640500D01*
X116332213Y-117620498D01*
X116285720Y-117566842D01*
X116275616Y-117496568D01*
X116305110Y-117431988D01*
X116344902Y-117401348D01*
X116393100Y-117377736D01*
X116401945Y-117372464D01*
X116575328Y-117248792D01*
X116583200Y-117242139D01*
X116734052Y-117091812D01*
X116740730Y-117083965D01*
X116865003Y-116911020D01*
X116870313Y-116902183D01*
X116964670Y-116711267D01*
X116968469Y-116701672D01*
X116985066Y-116647047D01*
X117024007Y-116587683D01*
X117088862Y-116558796D01*
X117159038Y-116569558D01*
X117212256Y-116616551D01*
X117220048Y-116630922D01*
X117279377Y-116759616D01*
X117396533Y-116925389D01*
X117541938Y-117067035D01*
X117710720Y-117179812D01*
X117716023Y-117182090D01*
X117716026Y-117182092D01*
X117891921Y-117257662D01*
X117897228Y-117259942D01*
X117970244Y-117276464D01*
X118089579Y-117303467D01*
X118089584Y-117303468D01*
X118095216Y-117304742D01*
X118100987Y-117304969D01*
X118100989Y-117304969D01*
X118160756Y-117307317D01*
X118298053Y-117312712D01*
X118398499Y-117298148D01*
X118493231Y-117284413D01*
X118493236Y-117284412D01*
X118498945Y-117283584D01*
X118504409Y-117281729D01*
X118504414Y-117281728D01*
X118685693Y-117220192D01*
X118685698Y-117220190D01*
X118691165Y-117218334D01*
X118868276Y-117119147D01*
X118930934Y-117067035D01*
X118995696Y-117013172D01*
X119024345Y-116989345D01*
X119096837Y-116902183D01*
X119150453Y-116837718D01*
X119150455Y-116837715D01*
X119154147Y-116833276D01*
X119253334Y-116656165D01*
X119253787Y-116656419D01*
X119297368Y-116605151D01*
X119366488Y-116584500D01*
X123363641Y-116584500D01*
X123431762Y-116604502D01*
X123459022Y-116628169D01*
X123460172Y-116629501D01*
X123464408Y-116635805D01*
X123486831Y-116656208D01*
X123581576Y-116742419D01*
X123579763Y-116744411D01*
X123615822Y-116790196D01*
X123622621Y-116860867D01*
X123590133Y-116923994D01*
X123581711Y-116932058D01*
X123465039Y-117033838D01*
X123373950Y-117163444D01*
X123371192Y-117170517D01*
X123370825Y-117171202D01*
X123321007Y-117221785D01*
X123287115Y-117234661D01*
X119252916Y-118131151D01*
X119182080Y-118126402D01*
X119124627Y-118083541D01*
X119064320Y-118002779D01*
X118915258Y-117864987D01*
X118910375Y-117861906D01*
X118910371Y-117861903D01*
X118748464Y-117759748D01*
X118743581Y-117756667D01*
X118555039Y-117681446D01*
X118549379Y-117680320D01*
X118549375Y-117680319D01*
X118361613Y-117642971D01*
X118361610Y-117642971D01*
X118355946Y-117641844D01*
X118350171Y-117641768D01*
X118350167Y-117641768D01*
X118248793Y-117640441D01*
X118152971Y-117639187D01*
X118147274Y-117640166D01*
X118147273Y-117640166D01*
X118059397Y-117655266D01*
X117952910Y-117673564D01*
X117762463Y-117743824D01*
X117588010Y-117847612D01*
X117583670Y-117851418D01*
X117583666Y-117851421D01*
X117498393Y-117926204D01*
X117435392Y-117981455D01*
X117309720Y-118140869D01*
X117307031Y-118145980D01*
X117307029Y-118145983D01*
X117276142Y-118204689D01*
X117215203Y-118320515D01*
X117155007Y-118514378D01*
X117131148Y-118715964D01*
X117144424Y-118918522D01*
X117145845Y-118924118D01*
X117145846Y-118924123D01*
X117192971Y-119109674D01*
X117194392Y-119115269D01*
X117196809Y-119120512D01*
X117244320Y-119223571D01*
X117279377Y-119299616D01*
X117282710Y-119304332D01*
X117369605Y-119427286D01*
X117396533Y-119465389D01*
X117400675Y-119469424D01*
X117404973Y-119473611D01*
X117541938Y-119607035D01*
X117710720Y-119719812D01*
X117716023Y-119722090D01*
X117716026Y-119722092D01*
X117847283Y-119778484D01*
X117897228Y-119799942D01*
X117945236Y-119810805D01*
X118089579Y-119843467D01*
X118089584Y-119843468D01*
X118095216Y-119844742D01*
X118100987Y-119844969D01*
X118100989Y-119844969D01*
X118160756Y-119847317D01*
X118298053Y-119852712D01*
X118405348Y-119837155D01*
X118493231Y-119824413D01*
X118493236Y-119824412D01*
X118498945Y-119823584D01*
X118504409Y-119821729D01*
X118504414Y-119821728D01*
X118685693Y-119760192D01*
X118685698Y-119760190D01*
X118691165Y-119758334D01*
X118868276Y-119659147D01*
X118896709Y-119635500D01*
X119014316Y-119537686D01*
X119024345Y-119529345D01*
X119058769Y-119487955D01*
X119150453Y-119377718D01*
X119150455Y-119377715D01*
X119154147Y-119373276D01*
X119253334Y-119196165D01*
X119255190Y-119190698D01*
X119255192Y-119190693D01*
X119316728Y-119009414D01*
X119316729Y-119009409D01*
X119318584Y-119003945D01*
X119322568Y-118976469D01*
X119352139Y-118911924D01*
X119411912Y-118873612D01*
X119419931Y-118871551D01*
X123452937Y-117975327D01*
X123523774Y-117980076D01*
X123565071Y-118005135D01*
X123573076Y-118012419D01*
X123712293Y-118088008D01*
X123865522Y-118128207D01*
X123949477Y-118129526D01*
X124016319Y-118130576D01*
X124016322Y-118130576D01*
X124023916Y-118130695D01*
X124178332Y-118095329D01*
X124248742Y-118059917D01*
X124313072Y-118027563D01*
X124313075Y-118027561D01*
X124319855Y-118024151D01*
X124325626Y-118019222D01*
X124325629Y-118019220D01*
X124434538Y-117926202D01*
X124440314Y-117921269D01*
X124441824Y-117919168D01*
X124500827Y-117883665D01*
X124538102Y-117879670D01*
X126102186Y-117946260D01*
X126169394Y-117969142D01*
X126213562Y-118024726D01*
X126220668Y-118095366D01*
X126188455Y-118158634D01*
X126154615Y-118184112D01*
X126131161Y-118196217D01*
X126131157Y-118196220D01*
X126124414Y-118199700D01*
X126005039Y-118303838D01*
X125913950Y-118433444D01*
X125856406Y-118581037D01*
X125855414Y-118588570D01*
X125855414Y-118588571D01*
X125837212Y-118726834D01*
X125835729Y-118738096D01*
X125839035Y-118768039D01*
X125850691Y-118873612D01*
X125853113Y-118895553D01*
X125855723Y-118902684D01*
X125855723Y-118902686D01*
X125894780Y-119009414D01*
X125907553Y-119044319D01*
X125911789Y-119050622D01*
X125911789Y-119050623D01*
X125958753Y-119120512D01*
X125995908Y-119175805D01*
X126001525Y-119180916D01*
X126001528Y-119180919D01*
X126048402Y-119223571D01*
X126113076Y-119282419D01*
X126252293Y-119358008D01*
X126338584Y-119380646D01*
X126365182Y-119387624D01*
X126425997Y-119424258D01*
X126457352Y-119487955D01*
X126449293Y-119558493D01*
X126404377Y-119613476D01*
X126333208Y-119635500D01*
X122764384Y-119635500D01*
X122696263Y-119615498D01*
X122675289Y-119598595D01*
X122610143Y-119533449D01*
X122576117Y-119471137D01*
X122574495Y-119426601D01*
X122578581Y-119397892D01*
X122578581Y-119397886D01*
X122579162Y-119393807D01*
X122579307Y-119380000D01*
X122560276Y-119222733D01*
X122504280Y-119074546D01*
X122459516Y-119009414D01*
X122418855Y-118950251D01*
X122418854Y-118950249D01*
X122414553Y-118943992D01*
X122296275Y-118838611D01*
X122288889Y-118834700D01*
X122162988Y-118768039D01*
X122162989Y-118768039D01*
X122156274Y-118764484D01*
X122002633Y-118725892D01*
X121995034Y-118725852D01*
X121995033Y-118725852D01*
X121929181Y-118725507D01*
X121844221Y-118725062D01*
X121836841Y-118726834D01*
X121836839Y-118726834D01*
X121697563Y-118760271D01*
X121697560Y-118760272D01*
X121690184Y-118762043D01*
X121549414Y-118834700D01*
X121430039Y-118938838D01*
X121338950Y-119068444D01*
X121336190Y-119075524D01*
X121287188Y-119201208D01*
X121281406Y-119216037D01*
X121280414Y-119223570D01*
X121280414Y-119223571D01*
X121261752Y-119365329D01*
X121260729Y-119373096D01*
X121263763Y-119400576D01*
X121273518Y-119488930D01*
X121278113Y-119530553D01*
X121280723Y-119537684D01*
X121280723Y-119537686D01*
X121316518Y-119635500D01*
X121332553Y-119679319D01*
X121336789Y-119685622D01*
X121336789Y-119685623D01*
X121349555Y-119704620D01*
X121420908Y-119810805D01*
X121426527Y-119815918D01*
X121426528Y-119815919D01*
X121480768Y-119865273D01*
X121538076Y-119917419D01*
X121677293Y-119993008D01*
X121830522Y-120033207D01*
X121927138Y-120034725D01*
X121988772Y-120035693D01*
X122056570Y-120056762D01*
X122075888Y-120072582D01*
X122248522Y-120245216D01*
X122263664Y-120263964D01*
X122264779Y-120265189D01*
X122270429Y-120273940D01*
X122278607Y-120280387D01*
X122278609Y-120280389D01*
X122296800Y-120294729D01*
X122301241Y-120298675D01*
X122301303Y-120298602D01*
X122305267Y-120301961D01*
X122308944Y-120305638D01*
X122324692Y-120316892D01*
X122329362Y-120320398D01*
X122369647Y-120352156D01*
X122378281Y-120355188D01*
X122385734Y-120360514D01*
X122434850Y-120375203D01*
X122440492Y-120377036D01*
X122481367Y-120391390D01*
X122488851Y-120394018D01*
X122494416Y-120394500D01*
X122497124Y-120394500D01*
X122499758Y-120394614D01*
X122499856Y-120394643D01*
X122499849Y-120394807D01*
X122500553Y-120394851D01*
X122506778Y-120396713D01*
X122560635Y-120394597D01*
X122565582Y-120394500D01*
X129324141Y-120394500D01*
X129392262Y-120414502D01*
X129419522Y-120438169D01*
X129420672Y-120439501D01*
X129424908Y-120445805D01*
X129542076Y-120552419D01*
X129681293Y-120628008D01*
X129834522Y-120668207D01*
X129918477Y-120669526D01*
X129985319Y-120670576D01*
X129985322Y-120670576D01*
X129992916Y-120670695D01*
X130147332Y-120635329D01*
X130217742Y-120599917D01*
X130282072Y-120567563D01*
X130282075Y-120567561D01*
X130288855Y-120564151D01*
X130294626Y-120559222D01*
X130294629Y-120559220D01*
X130403536Y-120466204D01*
X130403536Y-120466203D01*
X130409314Y-120461269D01*
X130501755Y-120332624D01*
X130560842Y-120185641D01*
X130583162Y-120028807D01*
X130583307Y-120015000D01*
X130564276Y-119857733D01*
X130508280Y-119709546D01*
X130482603Y-119672185D01*
X130422855Y-119585251D01*
X130422854Y-119585249D01*
X130418553Y-119578992D01*
X130316375Y-119487955D01*
X130300275Y-119473611D01*
X130302413Y-119471211D01*
X130267021Y-119427286D01*
X130259436Y-119356696D01*
X130291220Y-119293211D01*
X130301602Y-119283264D01*
X130403536Y-119196204D01*
X130403536Y-119196203D01*
X130409314Y-119191269D01*
X130501755Y-119062624D01*
X130560842Y-118915641D01*
X130567117Y-118871551D01*
X130582581Y-118762891D01*
X130582581Y-118762888D01*
X130583162Y-118758807D01*
X130583307Y-118745000D01*
X130564276Y-118587733D01*
X130508280Y-118439546D01*
X130506300Y-118436665D01*
X130492805Y-118368746D01*
X130518813Y-118302685D01*
X130576407Y-118261171D01*
X130642418Y-118256333D01*
X134471188Y-119002979D01*
X134534221Y-119035649D01*
X134551653Y-119056373D01*
X134631908Y-119175805D01*
X134637525Y-119180916D01*
X134637528Y-119180919D01*
X134684402Y-119223571D01*
X134749076Y-119282419D01*
X134888293Y-119358008D01*
X135041522Y-119398207D01*
X135125477Y-119399526D01*
X135192319Y-119400576D01*
X135192322Y-119400576D01*
X135199916Y-119400695D01*
X135354332Y-119365329D01*
X135424742Y-119329917D01*
X135489072Y-119297563D01*
X135489075Y-119297561D01*
X135495855Y-119294151D01*
X135501626Y-119289222D01*
X135501629Y-119289220D01*
X135610536Y-119196204D01*
X135610536Y-119196203D01*
X135616314Y-119191269D01*
X135708755Y-119062624D01*
X135767842Y-118915641D01*
X135774117Y-118871551D01*
X135789581Y-118762891D01*
X135789581Y-118762888D01*
X135790162Y-118758807D01*
X135790307Y-118745000D01*
X135771276Y-118587733D01*
X135715280Y-118439546D01*
X135664390Y-118365500D01*
X135629855Y-118315251D01*
X135629854Y-118315249D01*
X135625553Y-118308992D01*
X135571880Y-118261171D01*
X135507275Y-118203611D01*
X135509413Y-118201211D01*
X135474021Y-118157286D01*
X135466436Y-118086696D01*
X135498220Y-118023211D01*
X135508602Y-118013264D01*
X135610536Y-117926204D01*
X135610538Y-117926202D01*
X135616314Y-117921269D01*
X135708755Y-117792624D01*
X135767842Y-117645641D01*
X135786601Y-117513832D01*
X135789581Y-117492891D01*
X135789581Y-117492888D01*
X135790162Y-117488807D01*
X135790307Y-117475000D01*
X135771276Y-117317733D01*
X135715280Y-117169546D01*
X135704795Y-117154290D01*
X135629855Y-117045251D01*
X135629854Y-117045249D01*
X135625553Y-117038992D01*
X135616194Y-117030653D01*
X135507275Y-116933611D01*
X135509025Y-116931647D01*
X135472347Y-116886087D01*
X135464792Y-116815493D01*
X135496602Y-116752022D01*
X135506949Y-116742114D01*
X135607532Y-116656208D01*
X135607535Y-116656205D01*
X135613314Y-116651269D01*
X135705755Y-116522624D01*
X135764842Y-116375641D01*
X135777934Y-116283651D01*
X135786581Y-116222891D01*
X135786581Y-116222888D01*
X135787162Y-116218807D01*
X135787307Y-116205000D01*
X135768276Y-116047733D01*
X135712280Y-115899546D01*
X135661390Y-115825500D01*
X135626855Y-115775251D01*
X135626854Y-115775249D01*
X135622553Y-115768992D01*
X135607105Y-115755228D01*
X135559712Y-115713003D01*
X135504275Y-115663611D01*
X135496889Y-115659700D01*
X135426734Y-115622555D01*
X135375891Y-115573002D01*
X135359909Y-115503828D01*
X135383863Y-115436994D01*
X135440147Y-115393721D01*
X135485693Y-115385201D01*
X138924151Y-115385201D01*
X138992272Y-115405203D01*
X139036217Y-115453607D01*
X139098067Y-115573954D01*
X139098072Y-115573962D01*
X139100887Y-115579439D01*
X139230557Y-115743042D01*
X139389536Y-115878343D01*
X139394914Y-115881349D01*
X139394916Y-115881350D01*
X139450107Y-115912195D01*
X139571766Y-115980188D01*
X139770308Y-116044698D01*
X139977599Y-116069416D01*
X139983734Y-116068944D01*
X139983736Y-116068944D01*
X140179602Y-116053874D01*
X140179607Y-116053873D01*
X140185743Y-116053401D01*
X140191675Y-116051745D01*
X140191679Y-116051744D01*
X140295092Y-116022870D01*
X140386812Y-115997261D01*
X140573148Y-115903136D01*
X140604882Y-115878343D01*
X140732796Y-115778405D01*
X140737652Y-115774611D01*
X140757306Y-115751842D01*
X140870031Y-115621249D01*
X140870032Y-115621247D01*
X140874060Y-115616581D01*
X140891208Y-115586396D01*
X140917515Y-115540086D01*
X140977175Y-115435066D01*
X141043069Y-115236980D01*
X141069234Y-115029866D01*
X141069651Y-115000000D01*
X141049280Y-114792237D01*
X140988942Y-114592388D01*
X140927164Y-114476201D01*
X140893831Y-114413510D01*
X140893829Y-114413508D01*
X140890935Y-114408064D01*
X140817676Y-114318239D01*
X140762888Y-114251062D01*
X140762885Y-114251059D01*
X140758993Y-114246287D01*
X140754244Y-114242358D01*
X140602891Y-114117148D01*
X140602888Y-114117146D01*
X140598141Y-114113219D01*
X140414506Y-114013928D01*
X140215083Y-113952196D01*
X140208958Y-113951552D01*
X140208957Y-113951552D01*
X140013596Y-113931019D01*
X140013595Y-113931019D01*
X140007468Y-113930375D01*
X139879421Y-113942028D01*
X139805708Y-113948736D01*
X139805707Y-113948736D01*
X139799567Y-113949295D01*
X139599302Y-114008237D01*
X139593837Y-114011094D01*
X139431799Y-114095805D01*
X139414298Y-114104954D01*
X139251604Y-114235764D01*
X139247646Y-114240482D01*
X139247643Y-114240484D01*
X139170903Y-114331940D01*
X139117417Y-114395682D01*
X139110610Y-114408064D01*
X139109051Y-114410900D01*
X139058707Y-114460960D01*
X138998636Y-114476201D01*
X134121488Y-114476201D01*
X134053367Y-114456199D01*
X134037669Y-114444278D01*
X133991659Y-114403285D01*
X133975976Y-114389312D01*
X133914672Y-114356853D01*
X133863830Y-114307301D01*
X133847849Y-114238127D01*
X133871803Y-114171293D01*
X133928087Y-114128020D01*
X133973633Y-114119500D01*
X135212120Y-114119500D01*
X135230558Y-114120857D01*
X135237780Y-114121925D01*
X135248970Y-114123581D01*
X135248972Y-114123581D01*
X135256083Y-114124633D01*
X135262752Y-114124092D01*
X135321790Y-114114599D01*
X135322950Y-114114418D01*
X135350422Y-114110288D01*
X135384646Y-114105143D01*
X135384650Y-114105142D01*
X135390151Y-114104315D01*
X135391992Y-114103430D01*
X135393662Y-114103041D01*
X139925314Y-113374349D01*
X141545906Y-113113757D01*
X141616338Y-113122690D01*
X141664655Y-113159894D01*
X141679463Y-113178577D01*
X141726729Y-113238213D01*
X141726732Y-113238216D01*
X141730557Y-113243042D01*
X141889536Y-113378343D01*
X141894914Y-113381349D01*
X141894916Y-113381350D01*
X141933898Y-113403136D01*
X142071766Y-113480188D01*
X142270308Y-113544698D01*
X142477599Y-113569416D01*
X142483734Y-113568944D01*
X142483736Y-113568944D01*
X142679602Y-113553874D01*
X142679607Y-113553873D01*
X142685743Y-113553401D01*
X142691675Y-113551745D01*
X142691679Y-113551744D01*
X142786277Y-113525331D01*
X142886812Y-113497261D01*
X143073148Y-113403136D01*
X143104882Y-113378343D01*
X143232796Y-113278405D01*
X143237652Y-113274611D01*
X143269070Y-113238213D01*
X143370031Y-113121249D01*
X143370032Y-113121247D01*
X143374060Y-113116581D01*
X143477175Y-112935066D01*
X143543069Y-112736980D01*
X143569234Y-112529866D01*
X143569651Y-112500000D01*
X143549280Y-112292237D01*
X143488942Y-112092388D01*
X143390935Y-111908064D01*
X143342036Y-111848107D01*
X143262888Y-111751062D01*
X143262885Y-111751059D01*
X143258993Y-111746287D01*
X143254244Y-111742358D01*
X143102891Y-111617148D01*
X143102888Y-111617146D01*
X143098141Y-111613219D01*
X142914506Y-111513928D01*
X142715083Y-111452196D01*
X142708958Y-111451552D01*
X142708957Y-111451552D01*
X142513596Y-111431019D01*
X142513595Y-111431019D01*
X142507468Y-111430375D01*
X142431229Y-111437313D01*
X142305705Y-111448736D01*
X142305701Y-111448737D01*
X142299567Y-111449295D01*
X142211011Y-111475359D01*
X142140015Y-111475405D01*
X142086341Y-111443581D01*
X141057325Y-110414565D01*
X141023299Y-110352253D01*
X141026862Y-110285701D01*
X141043069Y-110236980D01*
X141069234Y-110029866D01*
X141069651Y-110000000D01*
X141049280Y-109792237D01*
X140988942Y-109592388D01*
X140969289Y-109555426D01*
X140893831Y-109413510D01*
X140893829Y-109413508D01*
X140890935Y-109408064D01*
X140811001Y-109310055D01*
X140762888Y-109251062D01*
X140762885Y-109251059D01*
X140758993Y-109246287D01*
X140752027Y-109240524D01*
X140602891Y-109117148D01*
X140602888Y-109117146D01*
X140598141Y-109113219D01*
X140414506Y-109013928D01*
X140215083Y-108952196D01*
X140208958Y-108951552D01*
X140208957Y-108951552D01*
X140013596Y-108931019D01*
X140013595Y-108931019D01*
X140007468Y-108930375D01*
X139879421Y-108942028D01*
X139805708Y-108948736D01*
X139805707Y-108948736D01*
X139799567Y-108949295D01*
X139599302Y-109008237D01*
X139414298Y-109104954D01*
X139251604Y-109235764D01*
X139247646Y-109240482D01*
X139247643Y-109240484D01*
X139186283Y-109313611D01*
X139117417Y-109395682D01*
X139114453Y-109401074D01*
X139114450Y-109401078D01*
X139050258Y-109517844D01*
X139016846Y-109578620D01*
X138953723Y-109777607D01*
X138930453Y-109985065D01*
X138947922Y-110193092D01*
X138949621Y-110199017D01*
X139003613Y-110387309D01*
X139005464Y-110393765D01*
X139008279Y-110399242D01*
X139008280Y-110399245D01*
X139098072Y-110573962D01*
X139100887Y-110579439D01*
X139230557Y-110743042D01*
X139389536Y-110878343D01*
X139571766Y-110980188D01*
X139770308Y-111044698D01*
X139977599Y-111069416D01*
X139983734Y-111068944D01*
X139983736Y-111068944D01*
X140053714Y-111063560D01*
X140185743Y-111053401D01*
X140191675Y-111051745D01*
X140191679Y-111051744D01*
X140290638Y-111024114D01*
X140361628Y-111025060D01*
X140413617Y-111056377D01*
X141375358Y-112018118D01*
X141409384Y-112080430D01*
X141404319Y-112151245D01*
X141361772Y-112208081D01*
X141306268Y-112231614D01*
X135343081Y-113190498D01*
X135228629Y-113208902D01*
X135208625Y-113210500D01*
X133620787Y-113210500D01*
X133552666Y-113190498D01*
X133536968Y-113178577D01*
X133475275Y-113123611D01*
X133467889Y-113119700D01*
X133341988Y-113053039D01*
X133341989Y-113053039D01*
X133335274Y-113049484D01*
X133181633Y-113010892D01*
X133174034Y-113010852D01*
X133174033Y-113010852D01*
X133108181Y-113010507D01*
X133023221Y-113010062D01*
X133015841Y-113011834D01*
X133015839Y-113011834D01*
X132876563Y-113045271D01*
X132876560Y-113045272D01*
X132869184Y-113047043D01*
X132728414Y-113119700D01*
X132609039Y-113223838D01*
X132517950Y-113353444D01*
X132507070Y-113381350D01*
X132468535Y-113480188D01*
X132460406Y-113501037D01*
X132459414Y-113508570D01*
X132459414Y-113508571D01*
X132454909Y-113542794D01*
X132439729Y-113658096D01*
X132457113Y-113815553D01*
X132459723Y-113822684D01*
X132459723Y-113822686D01*
X132507117Y-113952196D01*
X132511553Y-113964319D01*
X132515789Y-113970622D01*
X132515789Y-113970623D01*
X132543665Y-114012106D01*
X132599908Y-114095805D01*
X132605527Y-114100918D01*
X132605528Y-114100919D01*
X132630995Y-114124092D01*
X132717076Y-114202419D01*
X132856293Y-114278008D01*
X133009328Y-114318156D01*
X133009330Y-114318157D01*
X133009522Y-114318207D01*
X133009514Y-114318239D01*
X133071228Y-114345925D01*
X133110011Y-114405393D01*
X133110486Y-114476388D01*
X133092442Y-114514151D01*
X133033310Y-114598288D01*
X133018651Y-114619145D01*
X132961107Y-114766738D01*
X132960115Y-114774271D01*
X132960115Y-114774272D01*
X132941471Y-114915892D01*
X132940430Y-114923797D01*
X132944468Y-114960369D01*
X132952141Y-115029866D01*
X132957814Y-115081254D01*
X132960424Y-115088385D01*
X132960424Y-115088387D01*
X133007368Y-115216667D01*
X133012254Y-115230020D01*
X133100609Y-115361506D01*
X133106228Y-115366619D01*
X133106229Y-115366620D01*
X133149548Y-115406037D01*
X133217777Y-115468120D01*
X133356994Y-115543709D01*
X133486270Y-115577624D01*
X133547085Y-115614258D01*
X133578440Y-115677955D01*
X133570381Y-115748493D01*
X133525465Y-115803476D01*
X133454296Y-115825500D01*
X133263830Y-115825500D01*
X133195709Y-115805498D01*
X133188471Y-115800481D01*
X127357882Y-111449295D01*
X124820087Y-109555418D01*
X124817451Y-109553395D01*
X124780533Y-109524292D01*
X124780531Y-109524291D01*
X124772353Y-109517844D01*
X124762532Y-109514395D01*
X124762530Y-109514394D01*
X124745827Y-109508529D01*
X124729823Y-109501631D01*
X124704826Y-109488738D01*
X124694524Y-109487220D01*
X124694521Y-109487219D01*
X124690344Y-109486604D01*
X124666960Y-109480832D01*
X124660630Y-109478609D01*
X124660629Y-109478609D01*
X124653149Y-109475982D01*
X124647584Y-109475500D01*
X124624221Y-109475500D01*
X124605853Y-109474154D01*
X124590136Y-109471838D01*
X124579834Y-109470320D01*
X124569594Y-109472221D01*
X124563335Y-109473383D01*
X124540336Y-109475500D01*
X120744682Y-109475500D01*
X120676561Y-109455498D01*
X120650114Y-109429860D01*
X120648878Y-109430949D01*
X120643855Y-109425251D01*
X120639553Y-109418992D01*
X120521275Y-109313611D01*
X120513889Y-109309700D01*
X120403141Y-109251062D01*
X120381274Y-109239484D01*
X120227633Y-109200892D01*
X120220034Y-109200852D01*
X120220033Y-109200852D01*
X120154181Y-109200507D01*
X120069221Y-109200062D01*
X120061841Y-109201834D01*
X120061839Y-109201834D01*
X119922563Y-109235271D01*
X119922560Y-109235272D01*
X119915184Y-109237043D01*
X119774414Y-109309700D01*
X119655039Y-109413838D01*
X119563950Y-109543444D01*
X119506406Y-109691037D01*
X119505414Y-109698570D01*
X119505414Y-109698571D01*
X119495782Y-109771738D01*
X119485729Y-109848096D01*
X119486563Y-109855646D01*
X119502115Y-109996512D01*
X119503113Y-110005553D01*
X119557553Y-110154319D01*
X119561789Y-110160622D01*
X119561789Y-110160623D01*
X119628245Y-110259519D01*
X119645908Y-110285805D01*
X119651527Y-110290918D01*
X119651528Y-110290919D01*
X119662903Y-110301269D01*
X119763076Y-110392419D01*
X119902293Y-110468008D01*
X120055522Y-110508207D01*
X120139477Y-110509526D01*
X120206319Y-110510576D01*
X120206322Y-110510576D01*
X120213916Y-110510695D01*
X120368332Y-110475329D01*
X120438742Y-110439917D01*
X120503072Y-110407563D01*
X120503075Y-110407561D01*
X120509855Y-110404151D01*
X120515626Y-110399222D01*
X120515629Y-110399220D01*
X120624542Y-110306199D01*
X120624543Y-110306198D01*
X120630314Y-110301269D01*
X120640586Y-110286974D01*
X120696581Y-110243326D01*
X120742909Y-110234500D01*
X124419170Y-110234500D01*
X124487291Y-110254502D01*
X124494529Y-110259519D01*
X128835324Y-113498918D01*
X132807158Y-116462973D01*
X132862903Y-116504574D01*
X132865549Y-116506605D01*
X132902469Y-116535710D01*
X132902473Y-116535712D01*
X132910647Y-116542156D01*
X132920466Y-116545604D01*
X132920469Y-116545606D01*
X132937179Y-116551474D01*
X132953175Y-116558368D01*
X132978174Y-116571261D01*
X132988477Y-116572779D01*
X132988482Y-116572781D01*
X132992661Y-116573397D01*
X133016038Y-116579167D01*
X133029851Y-116584018D01*
X133035416Y-116584500D01*
X133058778Y-116584500D01*
X133077148Y-116585846D01*
X133092863Y-116588162D01*
X133092864Y-116588162D01*
X133103165Y-116589680D01*
X133119664Y-116586617D01*
X133142663Y-116584500D01*
X134528141Y-116584500D01*
X134596262Y-116604502D01*
X134623522Y-116628169D01*
X134624672Y-116629501D01*
X134628908Y-116635805D01*
X134743952Y-116740486D01*
X134746076Y-116742419D01*
X134745754Y-116742773D01*
X134786647Y-116794667D01*
X134793465Y-116865336D01*
X134760995Y-116928472D01*
X134752548Y-116936561D01*
X134679358Y-117000409D01*
X134614876Y-117030117D01*
X134582293Y-117030653D01*
X133227166Y-116876544D01*
X130494104Y-116565732D01*
X130428679Y-116538161D01*
X130388547Y-116479595D01*
X130386448Y-116408630D01*
X130423050Y-116347795D01*
X130451728Y-116327974D01*
X130533069Y-116287065D01*
X130533075Y-116287061D01*
X130539855Y-116283651D01*
X130545626Y-116278722D01*
X130545629Y-116278720D01*
X130654536Y-116185704D01*
X130654536Y-116185703D01*
X130660314Y-116180769D01*
X130752755Y-116052124D01*
X130811842Y-115905141D01*
X130823176Y-115825500D01*
X130833581Y-115752391D01*
X130833581Y-115752388D01*
X130834162Y-115748307D01*
X130834307Y-115734500D01*
X130833483Y-115727686D01*
X130821108Y-115625428D01*
X130815276Y-115577233D01*
X130759280Y-115429046D01*
X130742893Y-115405203D01*
X130673855Y-115304751D01*
X130673854Y-115304749D01*
X130669553Y-115298492D01*
X130551275Y-115193111D01*
X130543889Y-115189200D01*
X130429885Y-115128838D01*
X130411274Y-115118984D01*
X130257633Y-115080392D01*
X130250034Y-115080352D01*
X130250033Y-115080352D01*
X130184181Y-115080007D01*
X130099221Y-115079562D01*
X130091841Y-115081334D01*
X130091839Y-115081334D01*
X129952563Y-115114771D01*
X129952560Y-115114772D01*
X129945184Y-115116543D01*
X129840649Y-115170498D01*
X129829086Y-115176466D01*
X129771296Y-115190500D01*
X127094682Y-115190500D01*
X127026561Y-115170498D01*
X127000114Y-115144860D01*
X126998878Y-115145949D01*
X126993855Y-115140251D01*
X126989553Y-115133992D01*
X126871275Y-115028611D01*
X126863889Y-115024700D01*
X126737988Y-114958039D01*
X126737989Y-114958039D01*
X126731274Y-114954484D01*
X126577633Y-114915892D01*
X126570034Y-114915852D01*
X126570033Y-114915852D01*
X126504181Y-114915507D01*
X126419221Y-114915062D01*
X126411841Y-114916834D01*
X126411839Y-114916834D01*
X126272563Y-114950271D01*
X126272560Y-114950272D01*
X126265184Y-114952043D01*
X126124414Y-115024700D01*
X126005039Y-115128838D01*
X125913950Y-115258444D01*
X125911190Y-115265524D01*
X125861191Y-115393765D01*
X125856406Y-115406037D01*
X125855414Y-115413570D01*
X125855414Y-115413571D01*
X125837212Y-115551834D01*
X125835729Y-115563096D01*
X125840464Y-115605983D01*
X125846395Y-115659700D01*
X125853113Y-115720553D01*
X125855723Y-115727684D01*
X125855723Y-115727686D01*
X125904211Y-115860187D01*
X125908837Y-115931033D01*
X125874427Y-115993134D01*
X125811905Y-116026772D01*
X125771648Y-116028681D01*
X124597360Y-115895138D01*
X124531935Y-115867567D01*
X124507757Y-115841312D01*
X124462355Y-115775251D01*
X124462354Y-115775249D01*
X124458053Y-115768992D01*
X124442605Y-115755228D01*
X124395212Y-115713003D01*
X124339775Y-115663611D01*
X124332389Y-115659700D01*
X124221276Y-115600869D01*
X124199774Y-115589484D01*
X124046133Y-115550892D01*
X124038534Y-115550852D01*
X124038533Y-115550852D01*
X123972681Y-115550507D01*
X123887721Y-115550062D01*
X123880341Y-115551834D01*
X123880339Y-115551834D01*
X123741063Y-115585271D01*
X123741060Y-115585272D01*
X123733684Y-115587043D01*
X123592914Y-115659700D01*
X123473539Y-115763838D01*
X123469172Y-115770051D01*
X123469167Y-115770057D01*
X123467836Y-115771951D01*
X123466513Y-115773005D01*
X123464089Y-115775697D01*
X123463640Y-115775293D01*
X123412302Y-115816183D01*
X123364750Y-115825500D01*
X119362792Y-115825500D01*
X119294671Y-115805498D01*
X119249786Y-115755228D01*
X119188331Y-115630609D01*
X119185776Y-115625428D01*
X119154772Y-115583908D01*
X119094973Y-115503828D01*
X119064320Y-115462779D01*
X118915258Y-115324987D01*
X118910375Y-115321906D01*
X118910371Y-115321903D01*
X118764728Y-115230010D01*
X118743581Y-115216667D01*
X118555039Y-115141446D01*
X118549379Y-115140320D01*
X118549375Y-115140319D01*
X118361613Y-115102971D01*
X118361610Y-115102971D01*
X118355946Y-115101844D01*
X118350171Y-115101768D01*
X118350167Y-115101768D01*
X118248793Y-115100441D01*
X118152971Y-115099187D01*
X118147274Y-115100166D01*
X118147273Y-115100166D01*
X117979814Y-115128941D01*
X117952910Y-115133564D01*
X117762463Y-115203824D01*
X117588010Y-115307612D01*
X117583670Y-115311418D01*
X117583666Y-115311421D01*
X117449542Y-115429046D01*
X117435392Y-115441455D01*
X117309720Y-115600869D01*
X117307031Y-115605980D01*
X117307029Y-115605983D01*
X117217589Y-115775980D01*
X117168170Y-115826952D01*
X117099037Y-115843115D01*
X117032141Y-115819336D01*
X116992003Y-115764973D01*
X116989955Y-115765863D01*
X116902972Y-115565814D01*
X116898105Y-115556739D01*
X116782426Y-115377926D01*
X116776136Y-115369757D01*
X116632806Y-115212240D01*
X116625273Y-115205215D01*
X116458139Y-115073222D01*
X116449552Y-115067517D01*
X116263117Y-114964599D01*
X116253705Y-114960369D01*
X116052959Y-114889280D01*
X116042988Y-114886646D01*
X115971837Y-114873972D01*
X115958540Y-114875432D01*
X115954000Y-114889989D01*
X115954000Y-116333000D01*
X115933998Y-116401121D01*
X115880342Y-116447614D01*
X115828000Y-116459000D01*
X114383225Y-116459000D01*
X114369694Y-116462973D01*
X114368257Y-116472966D01*
X113000000Y-116472966D01*
X113000000Y-115939183D01*
X114364389Y-115939183D01*
X114365912Y-115947607D01*
X114378292Y-115951000D01*
X115427885Y-115951000D01*
X115443124Y-115946525D01*
X115444329Y-115945135D01*
X115446000Y-115937452D01*
X115446000Y-114888102D01*
X115442082Y-114874758D01*
X115427806Y-114872771D01*
X115389324Y-114878660D01*
X115379288Y-114881051D01*
X115176868Y-114947212D01*
X115167359Y-114951209D01*
X114978463Y-115049542D01*
X114969738Y-115055036D01*
X114799433Y-115182905D01*
X114791726Y-115189748D01*
X114644590Y-115343717D01*
X114638104Y-115351727D01*
X114518098Y-115527649D01*
X114513000Y-115536623D01*
X114423338Y-115729783D01*
X114419775Y-115739470D01*
X114364389Y-115939183D01*
X113000000Y-115939183D01*
X113000000Y-107086834D01*
X122295500Y-107086834D01*
X122310502Y-107181555D01*
X122368674Y-107295723D01*
X122459277Y-107386326D01*
X122573445Y-107444498D01*
X122668166Y-107459500D01*
X124081834Y-107459500D01*
X124176555Y-107444498D01*
X124290723Y-107386326D01*
X124381326Y-107295723D01*
X124439498Y-107181555D01*
X124441190Y-107170871D01*
X127298456Y-107170871D01*
X127339107Y-107310790D01*
X127345352Y-107325221D01*
X127421911Y-107454678D01*
X127431551Y-107467104D01*
X127537896Y-107573449D01*
X127550322Y-107583089D01*
X127679779Y-107659648D01*
X127694210Y-107665893D01*
X127840065Y-107708269D01*
X127852667Y-107710570D01*
X127881084Y-107712807D01*
X127886014Y-107713000D01*
X128352885Y-107713000D01*
X128368124Y-107708525D01*
X128369329Y-107707135D01*
X128371000Y-107699452D01*
X128371000Y-107694884D01*
X128879000Y-107694884D01*
X128883475Y-107710123D01*
X128884865Y-107711328D01*
X128892548Y-107712999D01*
X129363984Y-107712999D01*
X129368920Y-107712805D01*
X129397336Y-107710570D01*
X129409931Y-107708270D01*
X129555790Y-107665893D01*
X129570221Y-107659648D01*
X129699678Y-107583089D01*
X129712104Y-107573449D01*
X129818449Y-107467104D01*
X129828089Y-107454678D01*
X129904648Y-107325221D01*
X129910893Y-107310790D01*
X129949939Y-107176395D01*
X129949899Y-107162294D01*
X129942630Y-107159000D01*
X128897115Y-107159000D01*
X128881876Y-107163475D01*
X128880671Y-107164865D01*
X128879000Y-107172548D01*
X128879000Y-107694884D01*
X128371000Y-107694884D01*
X128371000Y-107177115D01*
X128366525Y-107161876D01*
X128365135Y-107160671D01*
X128357452Y-107159000D01*
X127313122Y-107159000D01*
X127299591Y-107162973D01*
X127298456Y-107170871D01*
X124441190Y-107170871D01*
X124454500Y-107086834D01*
X124454500Y-106723166D01*
X124439498Y-106628445D01*
X124381326Y-106514277D01*
X124326670Y-106459621D01*
X124292644Y-106397309D01*
X124297709Y-106326494D01*
X124340256Y-106269658D01*
X124406776Y-106244847D01*
X124447738Y-106248650D01*
X124591171Y-106286279D01*
X124591175Y-106286280D01*
X124598522Y-106288207D01*
X124682477Y-106289526D01*
X124749319Y-106290576D01*
X124749322Y-106290576D01*
X124756916Y-106290695D01*
X124911332Y-106255329D01*
X125005701Y-106207867D01*
X125046072Y-106187563D01*
X125046075Y-106187561D01*
X125052855Y-106184151D01*
X125058626Y-106179222D01*
X125058629Y-106179220D01*
X125167536Y-106086204D01*
X125167536Y-106086203D01*
X125173314Y-106081269D01*
X125265755Y-105952624D01*
X125324842Y-105805641D01*
X125347162Y-105648807D01*
X125347307Y-105635000D01*
X125328276Y-105477733D01*
X125272280Y-105329546D01*
X125213946Y-105244669D01*
X125186855Y-105205251D01*
X125186854Y-105205249D01*
X125182553Y-105198992D01*
X125094501Y-105120541D01*
X125056946Y-105060290D01*
X125057925Y-104989301D01*
X125096489Y-104930653D01*
X125196536Y-104845204D01*
X125196536Y-104845203D01*
X125202314Y-104840269D01*
X125294755Y-104711624D01*
X125353842Y-104564641D01*
X125360828Y-104515553D01*
X125375581Y-104411891D01*
X125375581Y-104411888D01*
X125376162Y-104407807D01*
X125376307Y-104394000D01*
X125357276Y-104236733D01*
X125301280Y-104088546D01*
X125249230Y-104012812D01*
X125215855Y-103964251D01*
X125215854Y-103964249D01*
X125211553Y-103957992D01*
X125093275Y-103852611D01*
X125085889Y-103848700D01*
X124959988Y-103782039D01*
X124959989Y-103782039D01*
X124953274Y-103778484D01*
X124799633Y-103739892D01*
X124792034Y-103739852D01*
X124792033Y-103739852D01*
X124726181Y-103739507D01*
X124641221Y-103739062D01*
X124633841Y-103740834D01*
X124633839Y-103740834D01*
X124494563Y-103774271D01*
X124494560Y-103774272D01*
X124487184Y-103776043D01*
X124346414Y-103848700D01*
X124345432Y-103846797D01*
X124288111Y-103865239D01*
X124227673Y-103851548D01*
X124209458Y-103842267D01*
X124157843Y-103793519D01*
X124140777Y-103724604D01*
X124163678Y-103657402D01*
X124209458Y-103617733D01*
X124215313Y-103614750D01*
X124290723Y-103576326D01*
X124381326Y-103485723D01*
X124439498Y-103371555D01*
X124454500Y-103276834D01*
X124454500Y-102913166D01*
X124439498Y-102818445D01*
X124381326Y-102704277D01*
X124290723Y-102613674D01*
X124176555Y-102555502D01*
X124081834Y-102540500D01*
X123880500Y-102540500D01*
X123812379Y-102520498D01*
X123765886Y-102466842D01*
X123754500Y-102414500D01*
X123754500Y-102389384D01*
X123774502Y-102321263D01*
X123791405Y-102300289D01*
X124075289Y-102016405D01*
X124137601Y-101982379D01*
X124164384Y-101979500D01*
X127711080Y-101979500D01*
X127735028Y-101982049D01*
X127736693Y-101982128D01*
X127746876Y-101984320D01*
X127757217Y-101983096D01*
X127780223Y-101980373D01*
X127786154Y-101980023D01*
X127786146Y-101979928D01*
X127791324Y-101979500D01*
X127796524Y-101979500D01*
X127801653Y-101978646D01*
X127801656Y-101978646D01*
X127815565Y-101976331D01*
X127821443Y-101975494D01*
X127862001Y-101970694D01*
X127862002Y-101970694D01*
X127872341Y-101969470D01*
X127880593Y-101965507D01*
X127889626Y-101964004D01*
X127898795Y-101959057D01*
X127898797Y-101959056D01*
X127934732Y-101939666D01*
X127940025Y-101936969D01*
X127979082Y-101918215D01*
X127979086Y-101918212D01*
X127986232Y-101914781D01*
X127990508Y-101911186D01*
X127992431Y-101909263D01*
X127994363Y-101907491D01*
X127994442Y-101907448D01*
X127994555Y-101907572D01*
X127995095Y-101907096D01*
X128000814Y-101904010D01*
X128037422Y-101864408D01*
X128040846Y-101860848D01*
X128630216Y-101271478D01*
X128648964Y-101256336D01*
X128650189Y-101255221D01*
X128658940Y-101249571D01*
X128665387Y-101241393D01*
X128665389Y-101241391D01*
X128679729Y-101223200D01*
X128683675Y-101218759D01*
X128683602Y-101218697D01*
X128686961Y-101214733D01*
X128690638Y-101211056D01*
X128701892Y-101195308D01*
X128705398Y-101190638D01*
X128737156Y-101150353D01*
X128740188Y-101141719D01*
X128745514Y-101134266D01*
X128760203Y-101085150D01*
X128762036Y-101079508D01*
X128776390Y-101038633D01*
X128776390Y-101038632D01*
X128779018Y-101031149D01*
X128779500Y-101025584D01*
X128779500Y-101022876D01*
X128779614Y-101020242D01*
X128779643Y-101020144D01*
X128779807Y-101020151D01*
X128779851Y-101019447D01*
X128781713Y-101013222D01*
X128779597Y-100959365D01*
X128779500Y-100954418D01*
X128779500Y-99555499D01*
X128799502Y-99487378D01*
X128853158Y-99440885D01*
X128905500Y-99429499D01*
X128925066Y-99429499D01*
X128999301Y-99414734D01*
X129000136Y-99418934D01*
X129047324Y-99413843D01*
X129050680Y-99414828D01*
X129050699Y-99414734D01*
X129150000Y-99434486D01*
X129643500Y-99434486D01*
X129711621Y-99454488D01*
X129758114Y-99508144D01*
X129769500Y-99560486D01*
X129769500Y-102500188D01*
X129749498Y-102568309D01*
X129726333Y-102595133D01*
X129709922Y-102609450D01*
X129645442Y-102639157D01*
X129627094Y-102640500D01*
X129615946Y-102640500D01*
X129547825Y-102620498D01*
X129546946Y-102619897D01*
X129540723Y-102613674D01*
X129426555Y-102555502D01*
X129331834Y-102540500D01*
X127918166Y-102540500D01*
X127823445Y-102555502D01*
X127709277Y-102613674D01*
X127618674Y-102704277D01*
X127560502Y-102818445D01*
X127545500Y-102913166D01*
X127545500Y-103276834D01*
X127560502Y-103371555D01*
X127618674Y-103485723D01*
X127709277Y-103576326D01*
X127784687Y-103614750D01*
X127790542Y-103617733D01*
X127842157Y-103666482D01*
X127859223Y-103735397D01*
X127836322Y-103802598D01*
X127790546Y-103842265D01*
X127778635Y-103848334D01*
X127708860Y-103861440D01*
X127642637Y-103832354D01*
X127642187Y-103833001D01*
X127638885Y-103830706D01*
X127637612Y-103830147D01*
X127635951Y-103828667D01*
X127635945Y-103828663D01*
X127630275Y-103823611D01*
X127622889Y-103819700D01*
X127496988Y-103753039D01*
X127496989Y-103753039D01*
X127490274Y-103749484D01*
X127336633Y-103710892D01*
X127329034Y-103710852D01*
X127329033Y-103710852D01*
X127263181Y-103710507D01*
X127178221Y-103710062D01*
X127170841Y-103711834D01*
X127170839Y-103711834D01*
X127031563Y-103745271D01*
X127031560Y-103745272D01*
X127024184Y-103747043D01*
X126883414Y-103819700D01*
X126764039Y-103923838D01*
X126672950Y-104053444D01*
X126644178Y-104127241D01*
X126618707Y-104192571D01*
X126615406Y-104201037D01*
X126614414Y-104208570D01*
X126614414Y-104208571D01*
X126606393Y-104269500D01*
X126594729Y-104358096D01*
X126612113Y-104515553D01*
X126614723Y-104522684D01*
X126614723Y-104522686D01*
X126658223Y-104641555D01*
X126666553Y-104664319D01*
X126754908Y-104795805D01*
X126760527Y-104800918D01*
X126760528Y-104800919D01*
X126828078Y-104862384D01*
X126872076Y-104902419D01*
X127011293Y-104978008D01*
X127164522Y-105018207D01*
X127248477Y-105019526D01*
X127315319Y-105020576D01*
X127315322Y-105020576D01*
X127322916Y-105020695D01*
X127477332Y-104985329D01*
X127618855Y-104914151D01*
X127624630Y-104909218D01*
X127624634Y-104909216D01*
X127638364Y-104897490D01*
X127703154Y-104868459D01*
X127777394Y-104881034D01*
X127790540Y-104887732D01*
X127842156Y-104936480D01*
X127859223Y-105005394D01*
X127836323Y-105072596D01*
X127790542Y-105112267D01*
X127709277Y-105153674D01*
X127618674Y-105244277D01*
X127560502Y-105358445D01*
X127545500Y-105453166D01*
X127545500Y-105816834D01*
X127560502Y-105911555D01*
X127618674Y-106025723D01*
X127621442Y-106028491D01*
X127644180Y-106092217D01*
X127628101Y-106161369D01*
X127582525Y-106207867D01*
X127550323Y-106226911D01*
X127537896Y-106236551D01*
X127431551Y-106342896D01*
X127421911Y-106355322D01*
X127345352Y-106484779D01*
X127339107Y-106499210D01*
X127300061Y-106633605D01*
X127300101Y-106647706D01*
X127307370Y-106651000D01*
X129936878Y-106651000D01*
X129950409Y-106647027D01*
X129951544Y-106639129D01*
X129910893Y-106499210D01*
X129904772Y-106485065D01*
X138930453Y-106485065D01*
X138932317Y-106507266D01*
X138942927Y-106633605D01*
X138947922Y-106693092D01*
X139005464Y-106893765D01*
X139008279Y-106899242D01*
X139008280Y-106899245D01*
X139029446Y-106940429D01*
X139100887Y-107079439D01*
X139230557Y-107243042D01*
X139389536Y-107378343D01*
X139394914Y-107381349D01*
X139394916Y-107381350D01*
X139433898Y-107403136D01*
X139571766Y-107480188D01*
X139770308Y-107544698D01*
X139977599Y-107569416D01*
X139983734Y-107568944D01*
X139983736Y-107568944D01*
X140179602Y-107553874D01*
X140179607Y-107553873D01*
X140185743Y-107553401D01*
X140191675Y-107551745D01*
X140191679Y-107551744D01*
X140286277Y-107525331D01*
X140386812Y-107497261D01*
X140573148Y-107403136D01*
X140603638Y-107379315D01*
X140732796Y-107278405D01*
X140737652Y-107274611D01*
X140769072Y-107238211D01*
X140870031Y-107121249D01*
X140870032Y-107121247D01*
X140874060Y-107116581D01*
X140977175Y-106935066D01*
X141043069Y-106736980D01*
X141069234Y-106529866D01*
X141069651Y-106500000D01*
X141049280Y-106292237D01*
X140988942Y-106092388D01*
X140890935Y-105908064D01*
X140842036Y-105848107D01*
X140762888Y-105751062D01*
X140762885Y-105751059D01*
X140758993Y-105746287D01*
X140754244Y-105742358D01*
X140602891Y-105617148D01*
X140602888Y-105617146D01*
X140598141Y-105613219D01*
X140414506Y-105513928D01*
X140215083Y-105452196D01*
X140208958Y-105451552D01*
X140208957Y-105451552D01*
X140013596Y-105431019D01*
X140013595Y-105431019D01*
X140007468Y-105430375D01*
X139879421Y-105442028D01*
X139805708Y-105448736D01*
X139805707Y-105448736D01*
X139799567Y-105449295D01*
X139599302Y-105508237D01*
X139414298Y-105604954D01*
X139251604Y-105735764D01*
X139117417Y-105895682D01*
X139114453Y-105901074D01*
X139114450Y-105901078D01*
X139050782Y-106016890D01*
X139016846Y-106078620D01*
X138953723Y-106277607D01*
X138930453Y-106485065D01*
X129904772Y-106485065D01*
X129904648Y-106484779D01*
X129828089Y-106355322D01*
X129818449Y-106342896D01*
X129712104Y-106236551D01*
X129699677Y-106226911D01*
X129667475Y-106207867D01*
X129619022Y-106155974D01*
X129606317Y-106086123D01*
X129628418Y-106028631D01*
X129631326Y-106025723D01*
X129689498Y-105911555D01*
X129704500Y-105816834D01*
X129704500Y-105453166D01*
X129689498Y-105358445D01*
X129631326Y-105244277D01*
X129540723Y-105153674D01*
X129459458Y-105112267D01*
X129439316Y-105093243D01*
X141771312Y-105093243D01*
X141780608Y-105105258D01*
X141833974Y-105142625D01*
X141843469Y-105148108D01*
X142042513Y-105240923D01*
X142052805Y-105244669D01*
X142264942Y-105301511D01*
X142275737Y-105303414D01*
X142494525Y-105322556D01*
X142505475Y-105322556D01*
X142724263Y-105303414D01*
X142735058Y-105301511D01*
X142947195Y-105244669D01*
X142957487Y-105240923D01*
X143156531Y-105148108D01*
X143166026Y-105142625D01*
X143220230Y-105104671D01*
X143228605Y-105094194D01*
X143221537Y-105080747D01*
X142512812Y-104372022D01*
X142498868Y-104364408D01*
X142497035Y-104364539D01*
X142490420Y-104368790D01*
X141777742Y-105081468D01*
X141771312Y-105093243D01*
X129439316Y-105093243D01*
X129407843Y-105063518D01*
X129390777Y-104994603D01*
X129413678Y-104927402D01*
X129459458Y-104887733D01*
X129472605Y-104881034D01*
X129540723Y-104846326D01*
X129631326Y-104755723D01*
X129689498Y-104641555D01*
X129704500Y-104546834D01*
X129704500Y-104183166D01*
X129689498Y-104088445D01*
X129647222Y-104005475D01*
X141177444Y-104005475D01*
X141196586Y-104224263D01*
X141198489Y-104235058D01*
X141255331Y-104447195D01*
X141259077Y-104457487D01*
X141351895Y-104656536D01*
X141357373Y-104666022D01*
X141395328Y-104720229D01*
X141405806Y-104728604D01*
X141419254Y-104721536D01*
X142127978Y-104012812D01*
X142135592Y-103998868D01*
X142135461Y-103997035D01*
X142131210Y-103990420D01*
X141418532Y-103277742D01*
X141406758Y-103271312D01*
X141394742Y-103280609D01*
X141357373Y-103333978D01*
X141351895Y-103343464D01*
X141259077Y-103542513D01*
X141255331Y-103552805D01*
X141198489Y-103764942D01*
X141196586Y-103775737D01*
X141177444Y-103994525D01*
X141177444Y-104005475D01*
X129647222Y-104005475D01*
X129631326Y-103974277D01*
X129540723Y-103883674D01*
X129459458Y-103842267D01*
X129407843Y-103793518D01*
X129390777Y-103724603D01*
X129413678Y-103657402D01*
X129459458Y-103617733D01*
X129475729Y-103609442D01*
X129540723Y-103576326D01*
X129544371Y-103572678D01*
X129608750Y-103549706D01*
X129615946Y-103549500D01*
X129627203Y-103549500D01*
X129695324Y-103569502D01*
X129712002Y-103582306D01*
X129767076Y-103632419D01*
X129906293Y-103708008D01*
X130059522Y-103748207D01*
X130143477Y-103749526D01*
X130210319Y-103750576D01*
X130210322Y-103750576D01*
X130217916Y-103750695D01*
X130372332Y-103715329D01*
X130455767Y-103673366D01*
X130507072Y-103647563D01*
X130507075Y-103647561D01*
X130513855Y-103644151D01*
X130519626Y-103639222D01*
X130519629Y-103639220D01*
X130628536Y-103546204D01*
X130628536Y-103546203D01*
X130634314Y-103541269D01*
X130726755Y-103412624D01*
X130785842Y-103265641D01*
X130805578Y-103126964D01*
X130807581Y-103112891D01*
X130807581Y-103112888D01*
X130808162Y-103108807D01*
X130808307Y-103095000D01*
X130789276Y-102937733D01*
X130777212Y-102905806D01*
X141771396Y-102905806D01*
X141778464Y-102919254D01*
X142487188Y-103627978D01*
X142501132Y-103635592D01*
X142502965Y-103635461D01*
X142509580Y-103631210D01*
X143222258Y-102918532D01*
X143228688Y-102906757D01*
X143219392Y-102894742D01*
X143166026Y-102857375D01*
X143156531Y-102851892D01*
X142957487Y-102759077D01*
X142947195Y-102755331D01*
X142735058Y-102698489D01*
X142724263Y-102696586D01*
X142505475Y-102677444D01*
X142494525Y-102677444D01*
X142275737Y-102696586D01*
X142264942Y-102698489D01*
X142052805Y-102755331D01*
X142042513Y-102759077D01*
X141843464Y-102851895D01*
X141833978Y-102857373D01*
X141779771Y-102895328D01*
X141771396Y-102905806D01*
X130777212Y-102905806D01*
X130733280Y-102789546D01*
X130701743Y-102743659D01*
X130647855Y-102665251D01*
X130647854Y-102665249D01*
X130643553Y-102658992D01*
X130570681Y-102594065D01*
X130570169Y-102593243D01*
X139271312Y-102593243D01*
X139280608Y-102605258D01*
X139333974Y-102642625D01*
X139343469Y-102648108D01*
X139542513Y-102740923D01*
X139552805Y-102744669D01*
X139764942Y-102801511D01*
X139775737Y-102803414D01*
X139994525Y-102822556D01*
X140005475Y-102822556D01*
X140224263Y-102803414D01*
X140235058Y-102801511D01*
X140447195Y-102744669D01*
X140457487Y-102740923D01*
X140656531Y-102648108D01*
X140666026Y-102642625D01*
X140720230Y-102604671D01*
X140728605Y-102594194D01*
X140721537Y-102580747D01*
X140012812Y-101872022D01*
X139998868Y-101864408D01*
X139997035Y-101864539D01*
X139990420Y-101868790D01*
X139277742Y-102581468D01*
X139271312Y-102593243D01*
X130570169Y-102593243D01*
X130533126Y-102533816D01*
X130528500Y-102499989D01*
X130528500Y-101505475D01*
X138677444Y-101505475D01*
X138696586Y-101724263D01*
X138698489Y-101735058D01*
X138755331Y-101947195D01*
X138759077Y-101957487D01*
X138851895Y-102156536D01*
X138857373Y-102166022D01*
X138895328Y-102220229D01*
X138905806Y-102228604D01*
X138919254Y-102221536D01*
X139627978Y-101512812D01*
X139634356Y-101501132D01*
X140364408Y-101501132D01*
X140364539Y-101502965D01*
X140368790Y-101509580D01*
X141081468Y-102222258D01*
X141093242Y-102228688D01*
X141105258Y-102219391D01*
X141142627Y-102166022D01*
X141148105Y-102156536D01*
X141240923Y-101957487D01*
X141244669Y-101947195D01*
X141301511Y-101735058D01*
X141303414Y-101724263D01*
X141322556Y-101505475D01*
X141322556Y-101494525D01*
X141303414Y-101275737D01*
X141301511Y-101264942D01*
X141244669Y-101052805D01*
X141240923Y-101042513D01*
X141148105Y-100843464D01*
X141142627Y-100833978D01*
X141104672Y-100779771D01*
X141094194Y-100771396D01*
X141080746Y-100778464D01*
X140372022Y-101487188D01*
X140364408Y-101501132D01*
X139634356Y-101501132D01*
X139635592Y-101498868D01*
X139635461Y-101497035D01*
X139631210Y-101490420D01*
X138918532Y-100777742D01*
X138906758Y-100771312D01*
X138894742Y-100780609D01*
X138857373Y-100833978D01*
X138851895Y-100843464D01*
X138759077Y-101042513D01*
X138755331Y-101052805D01*
X138698489Y-101264942D01*
X138696586Y-101275737D01*
X138677444Y-101494525D01*
X138677444Y-101505475D01*
X130528500Y-101505475D01*
X130528500Y-100405806D01*
X139271396Y-100405806D01*
X139278464Y-100419254D01*
X139987188Y-101127978D01*
X140001132Y-101135592D01*
X140002965Y-101135461D01*
X140009580Y-101131210D01*
X140722258Y-100418532D01*
X140728688Y-100406757D01*
X140719392Y-100394742D01*
X140666026Y-100357375D01*
X140656531Y-100351892D01*
X140457487Y-100259077D01*
X140447195Y-100255331D01*
X140235058Y-100198489D01*
X140224263Y-100196586D01*
X140005475Y-100177444D01*
X139994525Y-100177444D01*
X139775737Y-100196586D01*
X139764942Y-100198489D01*
X139552805Y-100255331D01*
X139542513Y-100259077D01*
X139343464Y-100351895D01*
X139333978Y-100357373D01*
X139279771Y-100395328D01*
X139271396Y-100405806D01*
X130528500Y-100405806D01*
X130528500Y-98927920D01*
X130531049Y-98903972D01*
X130531128Y-98902307D01*
X130533320Y-98892124D01*
X130529373Y-98858777D01*
X130529023Y-98852846D01*
X130528928Y-98852854D01*
X130528500Y-98847676D01*
X130528500Y-98842476D01*
X130527646Y-98837344D01*
X130525331Y-98823435D01*
X130524494Y-98817557D01*
X130519694Y-98776999D01*
X130519694Y-98776998D01*
X130518470Y-98766659D01*
X130514507Y-98758407D01*
X130513004Y-98749374D01*
X130488665Y-98704266D01*
X130485986Y-98699009D01*
X130472615Y-98671165D01*
X130461475Y-98634499D01*
X130460758Y-98629495D01*
X130459486Y-98611637D01*
X130459486Y-98248571D01*
X130460509Y-98232602D01*
X130460881Y-98230393D01*
X130464458Y-98190516D01*
X130464609Y-98178174D01*
X130462007Y-98138214D01*
X130441703Y-97996437D01*
X130428927Y-97952744D01*
X130422310Y-97930117D01*
X130422310Y-97930116D01*
X130421054Y-97925822D01*
X130361774Y-97795443D01*
X130322136Y-97733462D01*
X130228646Y-97624961D01*
X130173204Y-97576596D01*
X130053019Y-97498696D01*
X129986231Y-97467836D01*
X129880265Y-97436146D01*
X129853311Y-97428085D01*
X129853306Y-97428084D01*
X129849013Y-97426800D01*
X129844581Y-97426138D01*
X129844578Y-97426137D01*
X129780681Y-97416588D01*
X129780678Y-97416588D01*
X129776250Y-97415926D01*
X129706345Y-97415499D01*
X129637509Y-97415078D01*
X129637504Y-97415078D01*
X129633029Y-97415051D01*
X129630560Y-97415389D01*
X129626718Y-97415514D01*
X129150000Y-97415514D01*
X129050699Y-97435266D01*
X129049864Y-97431070D01*
X129002620Y-97436146D01*
X128999319Y-97435177D01*
X128999301Y-97435266D01*
X128931135Y-97421707D01*
X128925067Y-97420500D01*
X128902691Y-97420500D01*
X128159104Y-97420501D01*
X128090984Y-97400499D01*
X128053107Y-97362621D01*
X128042743Y-97346494D01*
X128031057Y-97333007D01*
X127934281Y-97249150D01*
X127919272Y-97239504D01*
X127802788Y-97186308D01*
X127785675Y-97181283D01*
X127654446Y-97162415D01*
X127645505Y-97161776D01*
X127368115Y-97161776D01*
X127352876Y-97166251D01*
X127351671Y-97167641D01*
X127350000Y-97175324D01*
X127350000Y-99670109D01*
X127354475Y-99685348D01*
X127355865Y-99686553D01*
X127363548Y-99688224D01*
X127647743Y-99688224D01*
X127652250Y-99688063D01*
X127716300Y-99683482D01*
X127729522Y-99681096D01*
X127859002Y-99643078D01*
X127929999Y-99643078D01*
X127989725Y-99681462D01*
X128019218Y-99746043D01*
X128020500Y-99763974D01*
X128020500Y-100755616D01*
X128000498Y-100823737D01*
X127983595Y-100844711D01*
X127644711Y-101183595D01*
X127582399Y-101217621D01*
X127555616Y-101220500D01*
X124008920Y-101220500D01*
X123984972Y-101217951D01*
X123983307Y-101217872D01*
X123973124Y-101215680D01*
X123939777Y-101219627D01*
X123933846Y-101219977D01*
X123933854Y-101220072D01*
X123928676Y-101220500D01*
X123923476Y-101220500D01*
X123918347Y-101221354D01*
X123918344Y-101221354D01*
X123904435Y-101223669D01*
X123898557Y-101224506D01*
X123857999Y-101229306D01*
X123857998Y-101229306D01*
X123847659Y-101230530D01*
X123839407Y-101234493D01*
X123830374Y-101235996D01*
X123821205Y-101240943D01*
X123821203Y-101240944D01*
X123785268Y-101260334D01*
X123779975Y-101263031D01*
X123740918Y-101281785D01*
X123740914Y-101281788D01*
X123733768Y-101285219D01*
X123729492Y-101288814D01*
X123727569Y-101290737D01*
X123725637Y-101292509D01*
X123725558Y-101292552D01*
X123725445Y-101292428D01*
X123724905Y-101292904D01*
X123719186Y-101295990D01*
X123712119Y-101303635D01*
X123682584Y-101335586D01*
X123679154Y-101339152D01*
X123144784Y-101873522D01*
X123126036Y-101888664D01*
X123124811Y-101889779D01*
X123116060Y-101895429D01*
X123109613Y-101903607D01*
X123109611Y-101903609D01*
X123095271Y-101921800D01*
X123091325Y-101926241D01*
X123091398Y-101926303D01*
X123088039Y-101930267D01*
X123084362Y-101933944D01*
X123073108Y-101949692D01*
X123069602Y-101954362D01*
X123037844Y-101994647D01*
X123034812Y-102003281D01*
X123029486Y-102010734D01*
X123026501Y-102020715D01*
X123014799Y-102059844D01*
X123012964Y-102065492D01*
X122995982Y-102113851D01*
X122995500Y-102119416D01*
X122995500Y-102122124D01*
X122995386Y-102124758D01*
X122995357Y-102124856D01*
X122995193Y-102124849D01*
X122995149Y-102125553D01*
X122993287Y-102131778D01*
X122995403Y-102185635D01*
X122995500Y-102190582D01*
X122995500Y-102414500D01*
X122975498Y-102482621D01*
X122921842Y-102529114D01*
X122869500Y-102540500D01*
X122668166Y-102540500D01*
X122573445Y-102555502D01*
X122459277Y-102613674D01*
X122368674Y-102704277D01*
X122310502Y-102818445D01*
X122295500Y-102913166D01*
X122295500Y-103276834D01*
X122310502Y-103371555D01*
X122368674Y-103485723D01*
X122459277Y-103576326D01*
X122534687Y-103614750D01*
X122540542Y-103617733D01*
X122592157Y-103666482D01*
X122609223Y-103735397D01*
X122586322Y-103802598D01*
X122540542Y-103842267D01*
X122459277Y-103883674D01*
X122368674Y-103974277D01*
X122310502Y-104088445D01*
X122295500Y-104183166D01*
X122295500Y-104546834D01*
X122310502Y-104641555D01*
X122368674Y-104755723D01*
X122459277Y-104846326D01*
X122527395Y-104881034D01*
X122540542Y-104887733D01*
X122592157Y-104936482D01*
X122609223Y-105005397D01*
X122586322Y-105072598D01*
X122540542Y-105112267D01*
X122459277Y-105153674D01*
X122368674Y-105244277D01*
X122310502Y-105358445D01*
X122295500Y-105453166D01*
X122295500Y-105816834D01*
X122310502Y-105911555D01*
X122368674Y-106025723D01*
X122459277Y-106116326D01*
X122534687Y-106154750D01*
X122540542Y-106157733D01*
X122592157Y-106206482D01*
X122609223Y-106275397D01*
X122586322Y-106342598D01*
X122540542Y-106382267D01*
X122459277Y-106423674D01*
X122368674Y-106514277D01*
X122310502Y-106628445D01*
X122295500Y-106723166D01*
X122295500Y-107086834D01*
X113000000Y-107086834D01*
X113000000Y-103459348D01*
X114309429Y-103459348D01*
X114310165Y-103466351D01*
X114310165Y-103466352D01*
X114327153Y-103627978D01*
X114328295Y-103638848D01*
X114386460Y-103809707D01*
X114399035Y-103830147D01*
X114474579Y-103952941D01*
X114481034Y-103963434D01*
X114607315Y-104092388D01*
X114759027Y-104190160D01*
X114765647Y-104192569D01*
X114765650Y-104192571D01*
X114922012Y-104249482D01*
X114928631Y-104251891D01*
X114935619Y-104252774D01*
X114935620Y-104252774D01*
X114949062Y-104254472D01*
X115068022Y-104269500D01*
X115164387Y-104269500D01*
X115298364Y-104254472D01*
X115305016Y-104252155D01*
X115305018Y-104252155D01*
X115385112Y-104224263D01*
X115468813Y-104195115D01*
X115621876Y-104099471D01*
X115634075Y-104087357D01*
X115744948Y-103977256D01*
X115744951Y-103977252D01*
X115749945Y-103972293D01*
X115759378Y-103957430D01*
X115809040Y-103879174D01*
X115846656Y-103819901D01*
X115871360Y-103750524D01*
X115904839Y-103656506D01*
X115904840Y-103656501D01*
X115907201Y-103649871D01*
X115908034Y-103642885D01*
X115908035Y-103642881D01*
X115927737Y-103477645D01*
X115928571Y-103470652D01*
X115918156Y-103371555D01*
X115910442Y-103298160D01*
X115910441Y-103298156D01*
X115909705Y-103291152D01*
X115851540Y-103120293D01*
X115756966Y-102966566D01*
X115686631Y-102894742D01*
X115635612Y-102842643D01*
X115635611Y-102842642D01*
X115630685Y-102837612D01*
X115478973Y-102739840D01*
X115472353Y-102737431D01*
X115472350Y-102737429D01*
X115315988Y-102680518D01*
X115315987Y-102680518D01*
X115309369Y-102678109D01*
X115302381Y-102677226D01*
X115302380Y-102677226D01*
X115278369Y-102674193D01*
X115169978Y-102660500D01*
X115073613Y-102660500D01*
X114939636Y-102675528D01*
X114932984Y-102677845D01*
X114932982Y-102677845D01*
X114879166Y-102696586D01*
X114769187Y-102734885D01*
X114730472Y-102759077D01*
X114628884Y-102822556D01*
X114616124Y-102830529D01*
X114611126Y-102835492D01*
X114611125Y-102835493D01*
X114493052Y-102952744D01*
X114493049Y-102952748D01*
X114488055Y-102957707D01*
X114484281Y-102963653D01*
X114484280Y-102963655D01*
X114451075Y-103015978D01*
X114391344Y-103110099D01*
X114388979Y-103116741D01*
X114333161Y-103273494D01*
X114333160Y-103273499D01*
X114330799Y-103280129D01*
X114329966Y-103287115D01*
X114329965Y-103287119D01*
X114328649Y-103298160D01*
X114309429Y-103459348D01*
X113000000Y-103459348D01*
X113000000Y-98459348D01*
X114309429Y-98459348D01*
X114328295Y-98638848D01*
X114386460Y-98809707D01*
X114413004Y-98852854D01*
X114459186Y-98927920D01*
X114481034Y-98963434D01*
X114607315Y-99092388D01*
X114759027Y-99190160D01*
X114765647Y-99192569D01*
X114765650Y-99192571D01*
X114922012Y-99249482D01*
X114928631Y-99251891D01*
X114935619Y-99252774D01*
X114935620Y-99252774D01*
X114949062Y-99254472D01*
X115068022Y-99269500D01*
X115164387Y-99269500D01*
X115298364Y-99254472D01*
X115305016Y-99252155D01*
X115305018Y-99252155D01*
X115375021Y-99227777D01*
X115468813Y-99195115D01*
X115621876Y-99099471D01*
X115634075Y-99087357D01*
X115744948Y-98977256D01*
X115744951Y-98977252D01*
X115749945Y-98972293D01*
X115759378Y-98957430D01*
X115812995Y-98872942D01*
X115846656Y-98819901D01*
X115875035Y-98740203D01*
X115878349Y-98730896D01*
X126086059Y-98730896D01*
X126086585Y-98739818D01*
X126103993Y-98872942D01*
X126105780Y-98881705D01*
X126142500Y-99013222D01*
X126145513Y-99021648D01*
X126199585Y-99144535D01*
X126203761Y-99152445D01*
X126275908Y-99268356D01*
X126281173Y-99275610D01*
X126367555Y-99378374D01*
X126373782Y-99384794D01*
X126475572Y-99475806D01*
X126482656Y-99481286D01*
X126594410Y-99555676D01*
X126602192Y-99560092D01*
X126725434Y-99618875D01*
X126733769Y-99622146D01*
X126832709Y-99653057D01*
X126846808Y-99653300D01*
X126850000Y-99646617D01*
X126850000Y-98693115D01*
X126845525Y-98677876D01*
X126844135Y-98676671D01*
X126836452Y-98675000D01*
X126104857Y-98675000D01*
X126089618Y-98679475D01*
X126088143Y-98681177D01*
X126086581Y-98688152D01*
X126086059Y-98730896D01*
X115878349Y-98730896D01*
X115904839Y-98656506D01*
X115904840Y-98656501D01*
X115907201Y-98649871D01*
X115908034Y-98642885D01*
X115908035Y-98642881D01*
X115927737Y-98477645D01*
X115928571Y-98470652D01*
X115909705Y-98291152D01*
X115863998Y-98156888D01*
X126086963Y-98156888D01*
X126091251Y-98172179D01*
X126092320Y-98173128D01*
X126100678Y-98175000D01*
X126831885Y-98175000D01*
X126847124Y-98170525D01*
X126848329Y-98169135D01*
X126850000Y-98161452D01*
X126850000Y-97210731D01*
X126846027Y-97197200D01*
X126837999Y-97196046D01*
X126757019Y-97219189D01*
X126748605Y-97222256D01*
X126623969Y-97278008D01*
X126616077Y-97282235D01*
X126502538Y-97353873D01*
X126495325Y-97359176D01*
X126391344Y-97447672D01*
X126384955Y-97453945D01*
X126296081Y-97554577D01*
X126290661Y-97561672D01*
X126215693Y-97675800D01*
X126211324Y-97683610D01*
X126154266Y-97805139D01*
X126151051Y-97813481D01*
X126111127Y-97944067D01*
X126109126Y-97952784D01*
X126088470Y-98085452D01*
X126087727Y-98094344D01*
X126086963Y-98156888D01*
X115863998Y-98156888D01*
X115851540Y-98120293D01*
X115756966Y-97966566D01*
X115630685Y-97837612D01*
X115478973Y-97739840D01*
X115472353Y-97737431D01*
X115472350Y-97737429D01*
X115315988Y-97680518D01*
X115315987Y-97680518D01*
X115309369Y-97678109D01*
X115302381Y-97677226D01*
X115302380Y-97677226D01*
X115278369Y-97674193D01*
X115169978Y-97660500D01*
X115073613Y-97660500D01*
X114939636Y-97675528D01*
X114932984Y-97677845D01*
X114932982Y-97677845D01*
X114862979Y-97702223D01*
X114769187Y-97734885D01*
X114616124Y-97830529D01*
X114611126Y-97835492D01*
X114611125Y-97835493D01*
X114493052Y-97952744D01*
X114493049Y-97952748D01*
X114488055Y-97957707D01*
X114484281Y-97963653D01*
X114484280Y-97963655D01*
X114466202Y-97992141D01*
X114391344Y-98110099D01*
X114388979Y-98116741D01*
X114333161Y-98273494D01*
X114333160Y-98273499D01*
X114330799Y-98280129D01*
X114329966Y-98287115D01*
X114329965Y-98287119D01*
X114328649Y-98298160D01*
X114309429Y-98459348D01*
X113000000Y-98459348D01*
X113000000Y-92068096D01*
X120984229Y-92068096D01*
X121001613Y-92225553D01*
X121056053Y-92374319D01*
X121144408Y-92505805D01*
X121261576Y-92612419D01*
X121400793Y-92688008D01*
X121554022Y-92728207D01*
X121637977Y-92729526D01*
X121704819Y-92730576D01*
X121704822Y-92730576D01*
X121712416Y-92730695D01*
X121866832Y-92695329D01*
X121953477Y-92651752D01*
X122023321Y-92639014D01*
X122056564Y-92647201D01*
X132151949Y-96653270D01*
X132207889Y-96696988D01*
X132223801Y-96727086D01*
X132254941Y-96812183D01*
X132254943Y-96812187D01*
X132257553Y-96819319D01*
X132345908Y-96950805D01*
X132351527Y-96955918D01*
X132351528Y-96955919D01*
X132362903Y-96966269D01*
X132463076Y-97057419D01*
X132602293Y-97133008D01*
X132755522Y-97173207D01*
X132839477Y-97174526D01*
X132906319Y-97175576D01*
X132906322Y-97175576D01*
X132913916Y-97175695D01*
X133068332Y-97140329D01*
X133138742Y-97104917D01*
X133203072Y-97072563D01*
X133203075Y-97072561D01*
X133209855Y-97069151D01*
X133215626Y-97064222D01*
X133215629Y-97064220D01*
X133324536Y-96971204D01*
X133324536Y-96971203D01*
X133330314Y-96966269D01*
X133422755Y-96837624D01*
X133481842Y-96690641D01*
X133504162Y-96533807D01*
X133504307Y-96520000D01*
X133485276Y-96362733D01*
X133429280Y-96214546D01*
X133339553Y-96083992D01*
X133245282Y-96000000D01*
X139890539Y-96000000D01*
X139910354Y-96251775D01*
X139911508Y-96256582D01*
X139911509Y-96256588D01*
X139935288Y-96355631D01*
X139969312Y-96497351D01*
X139971205Y-96501922D01*
X139971206Y-96501924D01*
X140033896Y-96653270D01*
X140065960Y-96730680D01*
X140197919Y-96946017D01*
X140361939Y-97138061D01*
X140553983Y-97302081D01*
X140652775Y-97362621D01*
X140756424Y-97426137D01*
X140769320Y-97434040D01*
X140773890Y-97435933D01*
X140773894Y-97435935D01*
X140998076Y-97528794D01*
X141002649Y-97530688D01*
X141088865Y-97551387D01*
X141243412Y-97588491D01*
X141243418Y-97588492D01*
X141248225Y-97589646D01*
X141336253Y-97596574D01*
X141434507Y-97604307D01*
X141434516Y-97604307D01*
X141436964Y-97604500D01*
X141563036Y-97604500D01*
X141565484Y-97604307D01*
X141565493Y-97604307D01*
X141663747Y-97596574D01*
X141751775Y-97589646D01*
X141756582Y-97588492D01*
X141756588Y-97588491D01*
X141911135Y-97551387D01*
X141997351Y-97530688D01*
X142001924Y-97528794D01*
X142226106Y-97435935D01*
X142226110Y-97435933D01*
X142230680Y-97434040D01*
X142243577Y-97426137D01*
X142347225Y-97362621D01*
X142446017Y-97302081D01*
X142638061Y-97138061D01*
X142802081Y-96946017D01*
X142934040Y-96730680D01*
X142966105Y-96653270D01*
X143028794Y-96501924D01*
X143028795Y-96501922D01*
X143030688Y-96497351D01*
X143064712Y-96355631D01*
X143088491Y-96256588D01*
X143088492Y-96256582D01*
X143089646Y-96251775D01*
X143109461Y-96000000D01*
X143089646Y-95748225D01*
X143088492Y-95743418D01*
X143088491Y-95743412D01*
X143031843Y-95507461D01*
X143030688Y-95502649D01*
X142934040Y-95269320D01*
X142802081Y-95053983D01*
X142638061Y-94861939D01*
X142446017Y-94697919D01*
X142230680Y-94565960D01*
X142226110Y-94564067D01*
X142226106Y-94564065D01*
X142001924Y-94471206D01*
X142001922Y-94471205D01*
X141997351Y-94469312D01*
X141911135Y-94448613D01*
X141756588Y-94411509D01*
X141756582Y-94411508D01*
X141751775Y-94410354D01*
X141663747Y-94403426D01*
X141565493Y-94395693D01*
X141565484Y-94395693D01*
X141563036Y-94395500D01*
X141436964Y-94395500D01*
X141434516Y-94395693D01*
X141434507Y-94395693D01*
X141336253Y-94403426D01*
X141248225Y-94410354D01*
X141243418Y-94411508D01*
X141243412Y-94411509D01*
X141088865Y-94448613D01*
X141002649Y-94469312D01*
X140998078Y-94471205D01*
X140998076Y-94471206D01*
X140773894Y-94564065D01*
X140773890Y-94564067D01*
X140769320Y-94565960D01*
X140553983Y-94697919D01*
X140361939Y-94861939D01*
X140197919Y-95053983D01*
X140065960Y-95269320D01*
X139969312Y-95502649D01*
X139968157Y-95507461D01*
X139911509Y-95743412D01*
X139911508Y-95743418D01*
X139910354Y-95748225D01*
X139890539Y-96000000D01*
X133245282Y-96000000D01*
X133221275Y-95978611D01*
X133081274Y-95904484D01*
X132927633Y-95865892D01*
X132920034Y-95865852D01*
X132920033Y-95865852D01*
X132854181Y-95865507D01*
X132769221Y-95865062D01*
X132761841Y-95866834D01*
X132761839Y-95866834D01*
X132622563Y-95900271D01*
X132622560Y-95900272D01*
X132615184Y-95902043D01*
X132536375Y-95942719D01*
X132466669Y-95956188D01*
X132432112Y-95947869D01*
X132331740Y-95908039D01*
X128520107Y-94395500D01*
X122336856Y-91941851D01*
X122280916Y-91898133D01*
X122265464Y-91869273D01*
X122230464Y-91776649D01*
X122227780Y-91769546D01*
X122138053Y-91638992D01*
X122019775Y-91533611D01*
X122012389Y-91529700D01*
X121886488Y-91463039D01*
X121886489Y-91463039D01*
X121879774Y-91459484D01*
X121726133Y-91420892D01*
X121718534Y-91420852D01*
X121718533Y-91420852D01*
X121652681Y-91420507D01*
X121567721Y-91420062D01*
X121560341Y-91421834D01*
X121560339Y-91421834D01*
X121421063Y-91455271D01*
X121421060Y-91455272D01*
X121413684Y-91457043D01*
X121272914Y-91529700D01*
X121153539Y-91633838D01*
X121062450Y-91763444D01*
X121004906Y-91911037D01*
X120984229Y-92068096D01*
X113000000Y-92068096D01*
X113000000Y-91552190D01*
X113020002Y-91484069D01*
X113036905Y-91463095D01*
X113963095Y-90536905D01*
X114025407Y-90502879D01*
X114052190Y-90500000D01*
X130500000Y-90500000D01*
X132000000Y-89000000D01*
X132000000Y-86000000D01*
X139890539Y-86000000D01*
X139910354Y-86251775D01*
X139911508Y-86256582D01*
X139911509Y-86256588D01*
X139922488Y-86302317D01*
X139969312Y-86497351D01*
X139971205Y-86501922D01*
X139971206Y-86501924D01*
X140052293Y-86697684D01*
X140065960Y-86730680D01*
X140197919Y-86946017D01*
X140361939Y-87138061D01*
X140553983Y-87302081D01*
X140769320Y-87434040D01*
X140773890Y-87435933D01*
X140773894Y-87435935D01*
X140998076Y-87528794D01*
X141002649Y-87530688D01*
X141088865Y-87551387D01*
X141243412Y-87588491D01*
X141243418Y-87588492D01*
X141248225Y-87589646D01*
X141336253Y-87596574D01*
X141434507Y-87604307D01*
X141434516Y-87604307D01*
X141436964Y-87604500D01*
X141563036Y-87604500D01*
X141565484Y-87604307D01*
X141565493Y-87604307D01*
X141663747Y-87596574D01*
X141751775Y-87589646D01*
X141756582Y-87588492D01*
X141756588Y-87588491D01*
X141911135Y-87551387D01*
X141997351Y-87530688D01*
X142001924Y-87528794D01*
X142226106Y-87435935D01*
X142226110Y-87435933D01*
X142230680Y-87434040D01*
X142446017Y-87302081D01*
X142638061Y-87138061D01*
X142802081Y-86946017D01*
X142934040Y-86730680D01*
X142947708Y-86697684D01*
X143028794Y-86501924D01*
X143028795Y-86501922D01*
X143030688Y-86497351D01*
X143077512Y-86302317D01*
X143088491Y-86256588D01*
X143088492Y-86256582D01*
X143089646Y-86251775D01*
X143109461Y-86000000D01*
X143089646Y-85748225D01*
X143088492Y-85743418D01*
X143088491Y-85743412D01*
X143031843Y-85507461D01*
X143030688Y-85502649D01*
X142934040Y-85269320D01*
X142802081Y-85053983D01*
X142638061Y-84861939D01*
X142446017Y-84697919D01*
X142230680Y-84565960D01*
X142226110Y-84564067D01*
X142226106Y-84564065D01*
X142001924Y-84471206D01*
X142001922Y-84471205D01*
X141997351Y-84469312D01*
X141911135Y-84448613D01*
X141756588Y-84411509D01*
X141756582Y-84411508D01*
X141751775Y-84410354D01*
X141663747Y-84403426D01*
X141565493Y-84395693D01*
X141565484Y-84395693D01*
X141563036Y-84395500D01*
X141436964Y-84395500D01*
X141434516Y-84395693D01*
X141434507Y-84395693D01*
X141336253Y-84403426D01*
X141248225Y-84410354D01*
X141243418Y-84411508D01*
X141243412Y-84411509D01*
X141088865Y-84448613D01*
X141002649Y-84469312D01*
X140998078Y-84471205D01*
X140998076Y-84471206D01*
X140773894Y-84564065D01*
X140773890Y-84564067D01*
X140769320Y-84565960D01*
X140553983Y-84697919D01*
X140361939Y-84861939D01*
X140197919Y-85053983D01*
X140065960Y-85269320D01*
X139969312Y-85502649D01*
X139968157Y-85507461D01*
X139911509Y-85743412D01*
X139911508Y-85743418D01*
X139910354Y-85748225D01*
X139890539Y-86000000D01*
X132000000Y-86000000D01*
X132000000Y-85250884D01*
X132020002Y-85182763D01*
X132036905Y-85161789D01*
X132230216Y-84968478D01*
X132248964Y-84953336D01*
X132250189Y-84952221D01*
X132258940Y-84946571D01*
X132265387Y-84938393D01*
X132265389Y-84938391D01*
X132279729Y-84920200D01*
X132283678Y-84915756D01*
X132283604Y-84915694D01*
X132286957Y-84911737D01*
X132290638Y-84908056D01*
X132301865Y-84892346D01*
X132305421Y-84887609D01*
X132310384Y-84881314D01*
X132337156Y-84847353D01*
X132340189Y-84838716D01*
X132345513Y-84831266D01*
X132360202Y-84782151D01*
X132362034Y-84776514D01*
X132376390Y-84735633D01*
X132376390Y-84735632D01*
X132379018Y-84728149D01*
X132379500Y-84722584D01*
X132379500Y-84719876D01*
X132379614Y-84717242D01*
X132379643Y-84717144D01*
X132379807Y-84717151D01*
X132379851Y-84716447D01*
X132381713Y-84710222D01*
X132379597Y-84656365D01*
X132379500Y-84651418D01*
X132379500Y-84206669D01*
X132833201Y-84206669D01*
X132833571Y-84213490D01*
X132839095Y-84264352D01*
X132842721Y-84279604D01*
X132887876Y-84400054D01*
X132896414Y-84415649D01*
X132972915Y-84517724D01*
X132985476Y-84530285D01*
X133087551Y-84606786D01*
X133103146Y-84615324D01*
X133223594Y-84660478D01*
X133238849Y-84664105D01*
X133289714Y-84669631D01*
X133296528Y-84670000D01*
X133919085Y-84670000D01*
X133934324Y-84665525D01*
X133935529Y-84664135D01*
X133937200Y-84656452D01*
X133937200Y-84651884D01*
X134445200Y-84651884D01*
X134449675Y-84667123D01*
X134451065Y-84668328D01*
X134458748Y-84669999D01*
X135085869Y-84669999D01*
X135092690Y-84669629D01*
X135143552Y-84664105D01*
X135158804Y-84660479D01*
X135279254Y-84615324D01*
X135294849Y-84606786D01*
X135396924Y-84530285D01*
X135409485Y-84517724D01*
X135485986Y-84415649D01*
X135494524Y-84400054D01*
X135539678Y-84279606D01*
X135543305Y-84264351D01*
X135548831Y-84213486D01*
X135549200Y-84206672D01*
X135549200Y-83584115D01*
X135544725Y-83568876D01*
X135543335Y-83567671D01*
X135535652Y-83566000D01*
X134463315Y-83566000D01*
X134448076Y-83570475D01*
X134446871Y-83571865D01*
X134445200Y-83579548D01*
X134445200Y-84651884D01*
X133937200Y-84651884D01*
X133937200Y-83584115D01*
X133932725Y-83568876D01*
X133931335Y-83567671D01*
X133923652Y-83566000D01*
X132851316Y-83566000D01*
X132836077Y-83570475D01*
X132834872Y-83571865D01*
X132833201Y-83579548D01*
X132833201Y-84206669D01*
X132379500Y-84206669D01*
X132379500Y-83179384D01*
X132399502Y-83111263D01*
X132416405Y-83090289D01*
X132618105Y-82888589D01*
X132680417Y-82854563D01*
X132751232Y-82859628D01*
X132808068Y-82902175D01*
X132832879Y-82968695D01*
X132833200Y-82977684D01*
X132833200Y-83039885D01*
X132837675Y-83055124D01*
X132839065Y-83056329D01*
X132846748Y-83058000D01*
X135531084Y-83058000D01*
X135546323Y-83053525D01*
X135547528Y-83052135D01*
X135549199Y-83044452D01*
X135549199Y-82417331D01*
X135548829Y-82410510D01*
X135543305Y-82359648D01*
X135539679Y-82344396D01*
X135494524Y-82223946D01*
X135485986Y-82208351D01*
X135409485Y-82106276D01*
X135396924Y-82093715D01*
X135294849Y-82017214D01*
X135279254Y-82008676D01*
X135158806Y-81963522D01*
X135143551Y-81959895D01*
X135092686Y-81954369D01*
X135085872Y-81954000D01*
X134844988Y-81954000D01*
X134776867Y-81933998D01*
X134730374Y-81880342D01*
X134720270Y-81810068D01*
X134749764Y-81745488D01*
X134783419Y-81718068D01*
X134808276Y-81704147D01*
X134817488Y-81696486D01*
X134935696Y-81598172D01*
X134964345Y-81574345D01*
X134999641Y-81531907D01*
X135090453Y-81422718D01*
X135090455Y-81422715D01*
X135094147Y-81418276D01*
X135193334Y-81241165D01*
X135195190Y-81235698D01*
X135195192Y-81235693D01*
X135256728Y-81054414D01*
X135256729Y-81054409D01*
X135258584Y-81048945D01*
X135259412Y-81043236D01*
X135259413Y-81043231D01*
X135283268Y-80878700D01*
X135287712Y-80848053D01*
X135289232Y-80790000D01*
X135270658Y-80587859D01*
X135264713Y-80566778D01*
X135217125Y-80398046D01*
X135217124Y-80398044D01*
X135215557Y-80392487D01*
X135205906Y-80372915D01*
X135128331Y-80215609D01*
X135125776Y-80210428D01*
X135121565Y-80204788D01*
X135074483Y-80141739D01*
X135025372Y-80075971D01*
X135745500Y-80075971D01*
X135760303Y-80298839D01*
X135819501Y-80592429D01*
X135917008Y-80875609D01*
X135918877Y-80879342D01*
X135918879Y-80879346D01*
X136009741Y-81060793D01*
X136051111Y-81143407D01*
X136072864Y-81175415D01*
X136169263Y-81317262D01*
X136219453Y-81391115D01*
X136222239Y-81394231D01*
X136357128Y-81545096D01*
X136419078Y-81614384D01*
X136646479Y-81809289D01*
X136649981Y-81811563D01*
X136894149Y-81970129D01*
X136894154Y-81970132D01*
X136897659Y-81972408D01*
X137168206Y-82100873D01*
X137172189Y-82102152D01*
X137172192Y-82102153D01*
X137378920Y-82168526D01*
X137453366Y-82192428D01*
X137521155Y-82204625D01*
X137744022Y-82244725D01*
X137744027Y-82244726D01*
X137748131Y-82245464D01*
X137752298Y-82245653D01*
X137752305Y-82245654D01*
X138043150Y-82258861D01*
X138043155Y-82258861D01*
X138047320Y-82259050D01*
X138051468Y-82258687D01*
X138051472Y-82258687D01*
X138341518Y-82233311D01*
X138341517Y-82233311D01*
X138345679Y-82232947D01*
X138349751Y-82232037D01*
X138349756Y-82232036D01*
X138633885Y-82168526D01*
X138633888Y-82168525D01*
X138637964Y-82167614D01*
X138919040Y-82064198D01*
X139183970Y-81924516D01*
X139197567Y-81914853D01*
X141039977Y-81914853D01*
X141045258Y-81921907D01*
X141206756Y-82016279D01*
X141216042Y-82020729D01*
X141415001Y-82096703D01*
X141424899Y-82099579D01*
X141633595Y-82142038D01*
X141643823Y-82143257D01*
X141856650Y-82151062D01*
X141866936Y-82150595D01*
X142078185Y-82123534D01*
X142088262Y-82121392D01*
X142292255Y-82060191D01*
X142301842Y-82056433D01*
X142493098Y-81962738D01*
X142501944Y-81957465D01*
X142549247Y-81923723D01*
X142557648Y-81913023D01*
X142550660Y-81899870D01*
X141812812Y-81162022D01*
X141798868Y-81154408D01*
X141797035Y-81154539D01*
X141790420Y-81158790D01*
X141046737Y-81902473D01*
X141039977Y-81914853D01*
X139197567Y-81914853D01*
X139342911Y-81811563D01*
X139424689Y-81753447D01*
X139424695Y-81753442D01*
X139428099Y-81751023D01*
X139431148Y-81748179D01*
X139431155Y-81748174D01*
X139644082Y-81549616D01*
X139644084Y-81549614D01*
X139647138Y-81546766D01*
X139837239Y-81315334D01*
X139840854Y-81309505D01*
X139943838Y-81143407D01*
X139995061Y-81060793D01*
X140117832Y-80787615D01*
X140125509Y-80761863D01*
X140438050Y-80761863D01*
X140450309Y-80974477D01*
X140451745Y-80984697D01*
X140498565Y-81192446D01*
X140501645Y-81202275D01*
X140581770Y-81399603D01*
X140586413Y-81408794D01*
X140666460Y-81539420D01*
X140676916Y-81548880D01*
X140685694Y-81545096D01*
X141427978Y-80802812D01*
X141434356Y-80791132D01*
X142164408Y-80791132D01*
X142164539Y-80792965D01*
X142168790Y-80799580D01*
X142910474Y-81541264D01*
X142922484Y-81547823D01*
X142934223Y-81538855D01*
X142965004Y-81496019D01*
X142970315Y-81487180D01*
X143064670Y-81296267D01*
X143068469Y-81286672D01*
X143130376Y-81082915D01*
X143132555Y-81072834D01*
X143160590Y-80859887D01*
X143161109Y-80853212D01*
X143162572Y-80793364D01*
X143162378Y-80786646D01*
X143144781Y-80572604D01*
X143143096Y-80562424D01*
X143091214Y-80355875D01*
X143087894Y-80346124D01*
X143002972Y-80150814D01*
X142998105Y-80141739D01*
X142933063Y-80041197D01*
X142922377Y-80031995D01*
X142912812Y-80036398D01*
X142172022Y-80777188D01*
X142164408Y-80791132D01*
X141434356Y-80791132D01*
X141435592Y-80788868D01*
X141435461Y-80787035D01*
X141431210Y-80780420D01*
X140689849Y-80039059D01*
X140678313Y-80032759D01*
X140666031Y-80042382D01*
X140618089Y-80112662D01*
X140613004Y-80121613D01*
X140523338Y-80314783D01*
X140519775Y-80324470D01*
X140462864Y-80529681D01*
X140460933Y-80539800D01*
X140438302Y-80751574D01*
X140438050Y-80761863D01*
X140125509Y-80761863D01*
X140203395Y-80500599D01*
X140250247Y-80204788D01*
X140254024Y-80121613D01*
X140254436Y-80112545D01*
X140254436Y-80112526D01*
X140254500Y-80111126D01*
X140254500Y-78924029D01*
X140239697Y-78701161D01*
X140180499Y-78407571D01*
X140082992Y-78124391D01*
X140048374Y-78055259D01*
X139950764Y-77860337D01*
X139950763Y-77860335D01*
X139948889Y-77856593D01*
X139878530Y-77753062D01*
X139782898Y-77612344D01*
X139782896Y-77612341D01*
X139780547Y-77608885D01*
X139580922Y-77385616D01*
X139568458Y-77374933D01*
X140695500Y-77374933D01*
X140695501Y-79125066D01*
X140710266Y-79199301D01*
X140717161Y-79209620D01*
X140717162Y-79209622D01*
X140757516Y-79270015D01*
X140766516Y-79283484D01*
X140850699Y-79339734D01*
X140924933Y-79354500D01*
X141101500Y-79354500D01*
X141169621Y-79374502D01*
X141216114Y-79428158D01*
X141226218Y-79498432D01*
X141196724Y-79563012D01*
X141159681Y-79592263D01*
X141078462Y-79634543D01*
X141069734Y-79640039D01*
X141049677Y-79655099D01*
X141041223Y-79666427D01*
X141047968Y-79678758D01*
X141787188Y-80417978D01*
X141801132Y-80425592D01*
X141802965Y-80425461D01*
X141809580Y-80421210D01*
X142553389Y-79677401D01*
X142560410Y-79664544D01*
X142553611Y-79655213D01*
X142549554Y-79652518D01*
X142437765Y-79590807D01*
X142387795Y-79540375D01*
X142373023Y-79470932D01*
X142398139Y-79404527D01*
X142455170Y-79362242D01*
X142498658Y-79354499D01*
X142675066Y-79354499D01*
X142710818Y-79347388D01*
X142737126Y-79342156D01*
X142737128Y-79342155D01*
X142749301Y-79339734D01*
X142759621Y-79332839D01*
X142759622Y-79332838D01*
X142823168Y-79290377D01*
X142833484Y-79283484D01*
X142889734Y-79199301D01*
X142904500Y-79125067D01*
X142904499Y-77374934D01*
X142889734Y-77300699D01*
X142863654Y-77261667D01*
X142840377Y-77226832D01*
X142833484Y-77216516D01*
X142749301Y-77160266D01*
X142675067Y-77145500D01*
X141800142Y-77145500D01*
X140924934Y-77145501D01*
X140894335Y-77151587D01*
X140862874Y-77157844D01*
X140862872Y-77157845D01*
X140850699Y-77160266D01*
X140840379Y-77167161D01*
X140840378Y-77167162D01*
X140779985Y-77207516D01*
X140766516Y-77216516D01*
X140710266Y-77300699D01*
X140695500Y-77374933D01*
X139568458Y-77374933D01*
X139353521Y-77190711D01*
X139263604Y-77132318D01*
X139105851Y-77029871D01*
X139105846Y-77029868D01*
X139102341Y-77027592D01*
X138831794Y-76899127D01*
X138827811Y-76897848D01*
X138827808Y-76897847D01*
X138550621Y-76808852D01*
X138550620Y-76808852D01*
X138546634Y-76807572D01*
X138465470Y-76792969D01*
X138255978Y-76755275D01*
X138255973Y-76755274D01*
X138251869Y-76754536D01*
X138247702Y-76754347D01*
X138247695Y-76754346D01*
X137956850Y-76741139D01*
X137956845Y-76741139D01*
X137952680Y-76740950D01*
X137948532Y-76741313D01*
X137948528Y-76741313D01*
X137698066Y-76763226D01*
X137654321Y-76767053D01*
X137650249Y-76767963D01*
X137650244Y-76767964D01*
X137366115Y-76831474D01*
X137366112Y-76831475D01*
X137362036Y-76832386D01*
X137080960Y-76935802D01*
X136816030Y-77075484D01*
X136812625Y-77077904D01*
X136575311Y-77246553D01*
X136575305Y-77246558D01*
X136571901Y-77248977D01*
X136568852Y-77251821D01*
X136568845Y-77251826D01*
X136355918Y-77450384D01*
X136352862Y-77453234D01*
X136162761Y-77684666D01*
X136004939Y-77939207D01*
X135882168Y-78212385D01*
X135796605Y-78499401D01*
X135749753Y-78795212D01*
X135749594Y-78798721D01*
X135745780Y-78882718D01*
X135745500Y-78888874D01*
X135745500Y-80075971D01*
X135025372Y-80075971D01*
X135004320Y-80047779D01*
X134855258Y-79909987D01*
X134850375Y-79906906D01*
X134850371Y-79906903D01*
X134704728Y-79815010D01*
X134683581Y-79801667D01*
X134495039Y-79726446D01*
X134489379Y-79725320D01*
X134489375Y-79725319D01*
X134301613Y-79687971D01*
X134301610Y-79687971D01*
X134295946Y-79686844D01*
X134290171Y-79686768D01*
X134290167Y-79686768D01*
X134188793Y-79685441D01*
X134092971Y-79684187D01*
X134087274Y-79685166D01*
X134087273Y-79685166D01*
X133898607Y-79717585D01*
X133892910Y-79718564D01*
X133702463Y-79788824D01*
X133528010Y-79892612D01*
X133523670Y-79896418D01*
X133523666Y-79896421D01*
X133503723Y-79913911D01*
X133375392Y-80026455D01*
X133371817Y-80030990D01*
X133371816Y-80030991D01*
X133365456Y-80039059D01*
X133249720Y-80185869D01*
X133247031Y-80190980D01*
X133247029Y-80190983D01*
X133234073Y-80215609D01*
X133155203Y-80365515D01*
X133095007Y-80559378D01*
X133071148Y-80760964D01*
X133084424Y-80963522D01*
X133085845Y-80969118D01*
X133085846Y-80969123D01*
X133130990Y-81146872D01*
X133134392Y-81160269D01*
X133141375Y-81175417D01*
X133151730Y-81245652D01*
X133122468Y-81310338D01*
X133116044Y-81317262D01*
X132215095Y-82218211D01*
X132152783Y-82252237D01*
X132081968Y-82247172D01*
X132025132Y-82204625D01*
X132000321Y-82138105D01*
X132000000Y-82129116D01*
X132000000Y-79880500D01*
X132020002Y-79812379D01*
X132073658Y-79765886D01*
X132126000Y-79754500D01*
X133001080Y-79754500D01*
X133025028Y-79757049D01*
X133026693Y-79757128D01*
X133036876Y-79759320D01*
X133047217Y-79758096D01*
X133070223Y-79755373D01*
X133076154Y-79755023D01*
X133076146Y-79754928D01*
X133081324Y-79754500D01*
X133086524Y-79754500D01*
X133091653Y-79753646D01*
X133091656Y-79753646D01*
X133105565Y-79751331D01*
X133111443Y-79750494D01*
X133152001Y-79745694D01*
X133152002Y-79745694D01*
X133162341Y-79744470D01*
X133170593Y-79740507D01*
X133179626Y-79739004D01*
X133188795Y-79734057D01*
X133188797Y-79734056D01*
X133224732Y-79714666D01*
X133230025Y-79711969D01*
X133269082Y-79693215D01*
X133269086Y-79693212D01*
X133276232Y-79689781D01*
X133280508Y-79686186D01*
X133282431Y-79684263D01*
X133284363Y-79682491D01*
X133284442Y-79682448D01*
X133284555Y-79682572D01*
X133285095Y-79682096D01*
X133290814Y-79679010D01*
X133327417Y-79639413D01*
X133330846Y-79635848D01*
X133654107Y-79312587D01*
X133716419Y-79278561D01*
X133792941Y-79285915D01*
X133837228Y-79304942D01*
X133910244Y-79321464D01*
X134029579Y-79348467D01*
X134029584Y-79348468D01*
X134035216Y-79349742D01*
X134040987Y-79349969D01*
X134040989Y-79349969D01*
X134100756Y-79352317D01*
X134238053Y-79357712D01*
X134345348Y-79342155D01*
X134433231Y-79329413D01*
X134433236Y-79329412D01*
X134438945Y-79328584D01*
X134444409Y-79326729D01*
X134444414Y-79326728D01*
X134625693Y-79265192D01*
X134625698Y-79265190D01*
X134631165Y-79263334D01*
X134808276Y-79164147D01*
X134847969Y-79131135D01*
X134935696Y-79058172D01*
X134964345Y-79034345D01*
X135053485Y-78927167D01*
X135090453Y-78882718D01*
X135090455Y-78882715D01*
X135094147Y-78878276D01*
X135193334Y-78701165D01*
X135195190Y-78695698D01*
X135195192Y-78695693D01*
X135256728Y-78514414D01*
X135256729Y-78514409D01*
X135258584Y-78508945D01*
X135259412Y-78503236D01*
X135259413Y-78503231D01*
X135287179Y-78311727D01*
X135287712Y-78308053D01*
X135289232Y-78250000D01*
X135274342Y-78087952D01*
X135271187Y-78053613D01*
X135271186Y-78053610D01*
X135270658Y-78047859D01*
X135264713Y-78026778D01*
X135217125Y-77858046D01*
X135217124Y-77858044D01*
X135215557Y-77852487D01*
X135205906Y-77832915D01*
X135128331Y-77675609D01*
X135125776Y-77670428D01*
X135004320Y-77507779D01*
X134855258Y-77369987D01*
X134850375Y-77366906D01*
X134850371Y-77366903D01*
X134688464Y-77264748D01*
X134683581Y-77261667D01*
X134495039Y-77186446D01*
X134489379Y-77185320D01*
X134489375Y-77185319D01*
X134301613Y-77147971D01*
X134301610Y-77147971D01*
X134295946Y-77146844D01*
X134290171Y-77146768D01*
X134290167Y-77146768D01*
X134188793Y-77145441D01*
X134092971Y-77144187D01*
X134087274Y-77145166D01*
X134087273Y-77145166D01*
X133999397Y-77160266D01*
X133892910Y-77178564D01*
X133702463Y-77248824D01*
X133528010Y-77352612D01*
X133523670Y-77356418D01*
X133523666Y-77356421D01*
X133493481Y-77382893D01*
X133375392Y-77486455D01*
X133249720Y-77645869D01*
X133247031Y-77650980D01*
X133247029Y-77650983D01*
X133199128Y-77742027D01*
X133155203Y-77825515D01*
X133095007Y-78019378D01*
X133071148Y-78220964D01*
X133084424Y-78423522D01*
X133085845Y-78429118D01*
X133085846Y-78429123D01*
X133104742Y-78503523D01*
X133134392Y-78620269D01*
X133141375Y-78635417D01*
X133151730Y-78705652D01*
X133122468Y-78770338D01*
X133116044Y-78777262D01*
X132934711Y-78958595D01*
X132872399Y-78992621D01*
X132845616Y-78995500D01*
X132126000Y-78995500D01*
X132057879Y-78975498D01*
X132011386Y-78921842D01*
X132000000Y-78869500D01*
X132000000Y-75688364D01*
X133082348Y-75688364D01*
X133095624Y-75890922D01*
X133097045Y-75896518D01*
X133097046Y-75896523D01*
X133117319Y-75976345D01*
X133145592Y-76087669D01*
X133148009Y-76092912D01*
X133185210Y-76173608D01*
X133230577Y-76272016D01*
X133347733Y-76437789D01*
X133493138Y-76579435D01*
X133661920Y-76692212D01*
X133667223Y-76694490D01*
X133667226Y-76694492D01*
X133806541Y-76754346D01*
X133848428Y-76772342D01*
X133921444Y-76788864D01*
X134040779Y-76815867D01*
X134040784Y-76815868D01*
X134046416Y-76817142D01*
X134052187Y-76817369D01*
X134052189Y-76817369D01*
X134111956Y-76819717D01*
X134249253Y-76825112D01*
X134349699Y-76810548D01*
X134444431Y-76796813D01*
X134444436Y-76796812D01*
X134450145Y-76795984D01*
X134455609Y-76794129D01*
X134455614Y-76794128D01*
X134636893Y-76732592D01*
X134636898Y-76732590D01*
X134642365Y-76730734D01*
X134819476Y-76631547D01*
X134882134Y-76579435D01*
X134971113Y-76505431D01*
X134975545Y-76501745D01*
X135105347Y-76345676D01*
X135204534Y-76168565D01*
X135206390Y-76163098D01*
X135206392Y-76163093D01*
X135267928Y-75981814D01*
X135267929Y-75981809D01*
X135269784Y-75976345D01*
X135270612Y-75970636D01*
X135270613Y-75970631D01*
X135298379Y-75779127D01*
X135298912Y-75775453D01*
X135300432Y-75717400D01*
X135281858Y-75515259D01*
X135280290Y-75509699D01*
X135228325Y-75325446D01*
X135228324Y-75325444D01*
X135226757Y-75319887D01*
X135216178Y-75298433D01*
X135139531Y-75143009D01*
X135136976Y-75137828D01*
X135015520Y-74975179D01*
X134866458Y-74837387D01*
X134861575Y-74834306D01*
X134861571Y-74834303D01*
X134699664Y-74732148D01*
X134694781Y-74729067D01*
X134506239Y-74653846D01*
X134500579Y-74652720D01*
X134500575Y-74652719D01*
X134312813Y-74615371D01*
X134312810Y-74615371D01*
X134307146Y-74614244D01*
X134301371Y-74614168D01*
X134301367Y-74614168D01*
X134199993Y-74612841D01*
X134104171Y-74611587D01*
X134098474Y-74612566D01*
X134098473Y-74612566D01*
X133909807Y-74644985D01*
X133904110Y-74645964D01*
X133713663Y-74716224D01*
X133539210Y-74820012D01*
X133534870Y-74823818D01*
X133534866Y-74823821D01*
X133398763Y-74943181D01*
X133386592Y-74953855D01*
X133260920Y-75113269D01*
X133258231Y-75118380D01*
X133258229Y-75118383D01*
X133245273Y-75143009D01*
X133166403Y-75292915D01*
X133106207Y-75486778D01*
X133082348Y-75688364D01*
X132000000Y-75688364D01*
X132000000Y-73000000D01*
X139890539Y-73000000D01*
X139910354Y-73251775D01*
X139911508Y-73256582D01*
X139911509Y-73256588D01*
X139912205Y-73259486D01*
X139969312Y-73497351D01*
X140065960Y-73730680D01*
X140197919Y-73946017D01*
X140361939Y-74138061D01*
X140553983Y-74302081D01*
X140769320Y-74434040D01*
X140773890Y-74435933D01*
X140773894Y-74435935D01*
X140998076Y-74528794D01*
X141002649Y-74530688D01*
X141088865Y-74551387D01*
X141243412Y-74588491D01*
X141243418Y-74588492D01*
X141248225Y-74589646D01*
X141336253Y-74596574D01*
X141434507Y-74604307D01*
X141434516Y-74604307D01*
X141436964Y-74604500D01*
X141563036Y-74604500D01*
X141565484Y-74604307D01*
X141565493Y-74604307D01*
X141663747Y-74596574D01*
X141751775Y-74589646D01*
X141756582Y-74588492D01*
X141756588Y-74588491D01*
X141911135Y-74551387D01*
X141997351Y-74530688D01*
X142001924Y-74528794D01*
X142226106Y-74435935D01*
X142226110Y-74435933D01*
X142230680Y-74434040D01*
X142446017Y-74302081D01*
X142638061Y-74138061D01*
X142802081Y-73946017D01*
X142934040Y-73730680D01*
X143030688Y-73497351D01*
X143087795Y-73259486D01*
X143088491Y-73256588D01*
X143088492Y-73256582D01*
X143089646Y-73251775D01*
X143109461Y-73000000D01*
X143089646Y-72748225D01*
X143088492Y-72743418D01*
X143088491Y-72743412D01*
X143031843Y-72507461D01*
X143030688Y-72502649D01*
X142985926Y-72394583D01*
X142935935Y-72273894D01*
X142935933Y-72273890D01*
X142934040Y-72269320D01*
X142802081Y-72053983D01*
X142638061Y-71861939D01*
X142446017Y-71697919D01*
X142230680Y-71565960D01*
X142226110Y-71564067D01*
X142226106Y-71564065D01*
X142001924Y-71471206D01*
X142001922Y-71471205D01*
X141997351Y-71469312D01*
X141911135Y-71448613D01*
X141756588Y-71411509D01*
X141756582Y-71411508D01*
X141751775Y-71410354D01*
X141663747Y-71403426D01*
X141565493Y-71395693D01*
X141565484Y-71395693D01*
X141563036Y-71395500D01*
X141436964Y-71395500D01*
X141434516Y-71395693D01*
X141434507Y-71395693D01*
X141336253Y-71403426D01*
X141248225Y-71410354D01*
X141243418Y-71411508D01*
X141243412Y-71411509D01*
X141088865Y-71448613D01*
X141002649Y-71469312D01*
X140998078Y-71471205D01*
X140998076Y-71471206D01*
X140773894Y-71564065D01*
X140773890Y-71564067D01*
X140769320Y-71565960D01*
X140553983Y-71697919D01*
X140361939Y-71861939D01*
X140197919Y-72053983D01*
X140065960Y-72269320D01*
X140064067Y-72273890D01*
X140064065Y-72273894D01*
X140014074Y-72394583D01*
X139969312Y-72502649D01*
X139968157Y-72507461D01*
X139911509Y-72743412D01*
X139911508Y-72743418D01*
X139910354Y-72748225D01*
X139890539Y-73000000D01*
X132000000Y-73000000D01*
X132000000Y-70626000D01*
X132020002Y-70557879D01*
X132073658Y-70511386D01*
X132126000Y-70500000D01*
X143874000Y-70500000D01*
X143942121Y-70520002D01*
G37*
G04 #@! TD.AperFunction*
G04 #@! TA.AperFunction,Conductor*
G36*
X128942121Y-73028502D02*
G01*
X128988614Y-73082158D01*
X129000000Y-73134500D01*
X129000000Y-74810474D01*
X128998161Y-74831920D01*
X128992821Y-74862836D01*
X128991500Y-74891925D01*
X128991500Y-78061001D01*
X128991702Y-78063509D01*
X128991702Y-78063514D01*
X128999594Y-78161600D01*
X129000000Y-78171705D01*
X129000000Y-78615500D01*
X128979998Y-78683621D01*
X128926342Y-78730114D01*
X128874000Y-78741500D01*
X128501163Y-78741500D01*
X128489979Y-78740973D01*
X128482491Y-78739299D01*
X128447049Y-78740413D01*
X128378334Y-78722561D01*
X128330178Y-78670392D01*
X128317872Y-78600470D01*
X128322533Y-78577846D01*
X128330865Y-78550422D01*
X128332370Y-78545469D01*
X128361529Y-78323990D01*
X128363156Y-78257400D01*
X128344852Y-78034761D01*
X128290431Y-77818102D01*
X128201354Y-77613240D01*
X128080014Y-77425677D01*
X128076540Y-77421859D01*
X128076533Y-77421850D01*
X127932435Y-77263488D01*
X127901383Y-77199642D01*
X127909779Y-77129144D01*
X127954956Y-77074376D01*
X127981400Y-77060707D01*
X128088052Y-77020725D01*
X128103649Y-77012186D01*
X128205724Y-76935685D01*
X128218285Y-76923124D01*
X128294786Y-76821049D01*
X128303324Y-76805454D01*
X128348478Y-76685006D01*
X128352105Y-76669751D01*
X128357631Y-76618886D01*
X128358000Y-76612072D01*
X128358000Y-75989515D01*
X128353525Y-75974276D01*
X128352135Y-75973071D01*
X128344452Y-75971400D01*
X125660116Y-75971400D01*
X125644877Y-75975875D01*
X125643672Y-75977265D01*
X125642001Y-75984948D01*
X125642001Y-76612069D01*
X125642371Y-76618890D01*
X125647895Y-76669752D01*
X125651521Y-76685004D01*
X125696676Y-76805454D01*
X125705214Y-76821049D01*
X125781715Y-76923124D01*
X125794276Y-76935685D01*
X125896351Y-77012186D01*
X125911946Y-77020724D01*
X126020827Y-77061542D01*
X126077591Y-77104184D01*
X126102291Y-77170745D01*
X126087083Y-77240094D01*
X126067691Y-77266575D01*
X125944200Y-77395801D01*
X125940629Y-77399538D01*
X125814743Y-77584080D01*
X125720688Y-77786705D01*
X125660989Y-78001970D01*
X125637251Y-78224095D01*
X125637548Y-78229248D01*
X125637548Y-78229251D01*
X125643011Y-78323990D01*
X125650110Y-78447115D01*
X125651247Y-78452161D01*
X125651248Y-78452167D01*
X125663946Y-78508510D01*
X125659410Y-78579362D01*
X125630124Y-78625306D01*
X124312167Y-79943263D01*
X124249269Y-79977415D01*
X124096412Y-80009906D01*
X124090382Y-80012591D01*
X124090381Y-80012591D01*
X123927978Y-80084897D01*
X123927976Y-80084898D01*
X123921948Y-80087582D01*
X123767447Y-80199834D01*
X123639660Y-80341756D01*
X123544173Y-80507144D01*
X123485158Y-80688772D01*
X123465196Y-80878700D01*
X123485158Y-81068628D01*
X123544173Y-81250256D01*
X123639660Y-81415644D01*
X123767447Y-81557566D01*
X123827365Y-81601099D01*
X123882240Y-81640968D01*
X123921948Y-81669818D01*
X123927976Y-81672502D01*
X123927978Y-81672503D01*
X124090381Y-81744809D01*
X124096412Y-81747494D01*
X124189812Y-81767347D01*
X124276756Y-81785828D01*
X124276761Y-81785828D01*
X124283213Y-81787200D01*
X124339106Y-81787200D01*
X124407227Y-81807202D01*
X124428201Y-81824105D01*
X125038343Y-82434247D01*
X125045887Y-82442537D01*
X125050000Y-82449018D01*
X125055777Y-82454443D01*
X125099667Y-82495658D01*
X125102509Y-82498413D01*
X125122231Y-82518135D01*
X125125355Y-82520558D01*
X125125359Y-82520562D01*
X125125424Y-82520612D01*
X125134445Y-82528317D01*
X125166679Y-82558586D01*
X125173627Y-82562405D01*
X125173629Y-82562407D01*
X125184432Y-82568346D01*
X125200959Y-82579202D01*
X125210698Y-82586757D01*
X125210700Y-82586758D01*
X125216960Y-82591614D01*
X125257540Y-82609174D01*
X125268188Y-82614391D01*
X125306940Y-82635695D01*
X125314616Y-82637666D01*
X125314619Y-82637667D01*
X125326562Y-82640733D01*
X125345267Y-82647137D01*
X125363855Y-82655181D01*
X125371678Y-82656420D01*
X125371688Y-82656423D01*
X125407524Y-82662099D01*
X125419144Y-82664505D01*
X125454289Y-82673528D01*
X125461970Y-82675500D01*
X125482224Y-82675500D01*
X125501934Y-82677051D01*
X125521943Y-82680220D01*
X125529835Y-82679474D01*
X125565961Y-82676059D01*
X125577819Y-82675500D01*
X125612042Y-82675500D01*
X125680163Y-82695502D01*
X125726656Y-82749158D01*
X125736760Y-82819432D01*
X125726330Y-82854549D01*
X125722869Y-82862004D01*
X125722865Y-82862016D01*
X125720688Y-82866705D01*
X125660989Y-83081970D01*
X125637251Y-83304095D01*
X125650110Y-83527115D01*
X125651247Y-83532161D01*
X125651248Y-83532167D01*
X125660767Y-83574404D01*
X125699222Y-83745039D01*
X125783266Y-83952016D01*
X125810923Y-83997148D01*
X125880161Y-84110134D01*
X125899987Y-84142488D01*
X126046250Y-84311338D01*
X126218126Y-84454032D01*
X126411000Y-84566738D01*
X126619692Y-84646430D01*
X126624760Y-84647461D01*
X126624763Y-84647462D01*
X126732017Y-84669283D01*
X126838597Y-84690967D01*
X126843772Y-84691157D01*
X126843774Y-84691157D01*
X127056673Y-84698964D01*
X127056677Y-84698964D01*
X127061837Y-84699153D01*
X127066957Y-84698497D01*
X127066959Y-84698497D01*
X127278288Y-84671425D01*
X127278289Y-84671425D01*
X127283416Y-84670768D01*
X127327824Y-84657445D01*
X127492429Y-84608061D01*
X127492434Y-84608059D01*
X127497384Y-84606574D01*
X127697994Y-84508296D01*
X127879860Y-84378573D01*
X128038096Y-84220889D01*
X128097594Y-84138089D01*
X128168453Y-84039477D01*
X128169745Y-84040406D01*
X128216731Y-83997148D01*
X128286668Y-83984933D01*
X128352108Y-84012468D01*
X128392273Y-84071012D01*
X128398500Y-84110134D01*
X128398500Y-84566733D01*
X128397973Y-84577916D01*
X128396298Y-84585409D01*
X128396547Y-84593335D01*
X128396547Y-84593336D01*
X128398438Y-84653486D01*
X128398500Y-84657445D01*
X128398500Y-84685356D01*
X128398997Y-84689290D01*
X128398997Y-84689291D01*
X128399005Y-84689356D01*
X128399938Y-84701193D01*
X128401327Y-84745389D01*
X128406978Y-84764839D01*
X128410987Y-84784200D01*
X128413526Y-84804297D01*
X128416445Y-84811668D01*
X128416445Y-84811670D01*
X128429804Y-84845412D01*
X128433649Y-84856642D01*
X128445982Y-84899093D01*
X128450015Y-84905912D01*
X128450017Y-84905917D01*
X128456293Y-84916528D01*
X128464988Y-84934276D01*
X128472448Y-84953117D01*
X128477110Y-84959533D01*
X128477110Y-84959534D01*
X128498436Y-84988887D01*
X128504952Y-84998807D01*
X128527458Y-85036862D01*
X128541779Y-85051183D01*
X128554619Y-85066216D01*
X128566528Y-85082607D01*
X128591330Y-85103125D01*
X128600593Y-85110788D01*
X128609374Y-85118778D01*
X128963096Y-85472501D01*
X128997121Y-85534813D01*
X129000000Y-85561596D01*
X129000000Y-85865500D01*
X128979998Y-85933621D01*
X128926342Y-85980114D01*
X128874000Y-85991500D01*
X118762817Y-85991500D01*
X118694696Y-85971498D01*
X118673722Y-85954595D01*
X118545405Y-85826278D01*
X118511379Y-85763966D01*
X118508500Y-85737183D01*
X118508500Y-75445285D01*
X125642000Y-75445285D01*
X125646475Y-75460524D01*
X125647865Y-75461729D01*
X125655548Y-75463400D01*
X126727885Y-75463400D01*
X126743124Y-75458925D01*
X126744329Y-75457535D01*
X126746000Y-75449852D01*
X126746000Y-75445285D01*
X127254000Y-75445285D01*
X127258475Y-75460524D01*
X127259865Y-75461729D01*
X127267548Y-75463400D01*
X128339884Y-75463400D01*
X128355123Y-75458925D01*
X128356328Y-75457535D01*
X128357999Y-75449852D01*
X128357999Y-74822731D01*
X128357629Y-74815910D01*
X128352105Y-74765048D01*
X128348479Y-74749796D01*
X128303324Y-74629346D01*
X128294786Y-74613751D01*
X128218285Y-74511676D01*
X128205724Y-74499115D01*
X128103649Y-74422614D01*
X128088054Y-74414076D01*
X127967606Y-74368922D01*
X127952351Y-74365295D01*
X127901486Y-74359769D01*
X127894672Y-74359400D01*
X127272115Y-74359400D01*
X127256876Y-74363875D01*
X127255671Y-74365265D01*
X127254000Y-74372948D01*
X127254000Y-75445285D01*
X126746000Y-75445285D01*
X126746000Y-74377516D01*
X126741525Y-74362277D01*
X126740135Y-74361072D01*
X126732452Y-74359401D01*
X126105331Y-74359401D01*
X126098510Y-74359771D01*
X126047648Y-74365295D01*
X126032396Y-74368921D01*
X125911946Y-74414076D01*
X125896351Y-74422614D01*
X125794276Y-74499115D01*
X125781715Y-74511676D01*
X125705214Y-74613751D01*
X125696676Y-74629346D01*
X125651522Y-74749794D01*
X125647895Y-74765049D01*
X125642369Y-74815914D01*
X125642000Y-74822728D01*
X125642000Y-75445285D01*
X118508500Y-75445285D01*
X118508500Y-73262818D01*
X118528502Y-73194697D01*
X118545405Y-73173722D01*
X118673724Y-73045404D01*
X118736036Y-73011379D01*
X118762819Y-73008500D01*
X128874000Y-73008500D01*
X128942121Y-73028502D01*
G37*
G04 #@! TD.AperFunction*
M02*
