<?xml version="1.0" encoding="UTF-8" standalone="no"?>
<svg
   version="1.1"
   width="20.609560cm"
   height="11.422380cm"
   viewBox="0 0 206095600 114223800"
   id="svg114"
   sodipodi:docname="AutoFeeder_Drum-type-F_Paste.svg"
   inkscape:version="1.4-beta (62f545ba, 2024-04-22)"
   xmlns:inkscape="http://www.inkscape.org/namespaces/inkscape"
   xmlns:sodipodi="http://sodipodi.sourceforge.net/DTD/sodipodi-0.dtd"
   xmlns="http://www.w3.org/2000/svg"
   xmlns:svg="http://www.w3.org/2000/svg">
  <defs
     id="defs114" />
  <sodipodi:namedview
     id="namedview114"
     pagecolor="#ffffff"
     bordercolor="#666666"
     borderopacity="1.0"
     inkscape:showpageshadow="2"
     inkscape:pageopacity="0.0"
     inkscape:pagecheckerboard="0"
     inkscape:deskcolor="#d1d1d1"
     inkscape:document-units="cm"
     inkscape:zoom="4.0237536"
     inkscape:cx="105.62277"
     inkscape:cy="267.90905"
     inkscape:window-width="2080"
     inkscape:window-height="1309"
     inkscape:window-x="0"
     inkscape:window-y="25"
     inkscape:window-maximized="0"
     inkscape:current-layer="svg114" />
  <title
     id="title1">SVG Picture created as AutoFeeder_Drum-type-F_Paste.svg date 2024/06/20 01:04:53 </title>
  <desc
     id="desc1">Picture generated by PCBNEW </desc>
  <g
     style="fill:#000000; fill-opacity:1.000000;stroke:#000000; stroke-opacity:1.000000; stroke-linecap:round; stroke-linejoin:round;"
     transform="translate(0 0) scale(1 1)"
     id="g1" />
  <g
     id="g2"
     style="fill:#000000;fill-opacity:0;stroke:#000000;stroke-width:0;stroke-linecap:round;stroke-linejoin:round;stroke-opacity:1" />
  <g
     style="fill:#000000;fill-opacity:0;stroke:#000000;stroke-width:1;stroke-linecap:round;stroke-linejoin:round;stroke-opacity:1"
     id="g3" />
  <path
     style="fill:#000000;fill-opacity:1;fill-rule:evenodd;stroke:#000000;stroke-width:0.8;stroke-linecap:round;stroke-linejoin:round;stroke-opacity:1"
     d="m 27382024,46430000 12179,-61230 34684,-51907 51907,-34684 61230,-12179 h 320000 l 61230,12179 51907,34684 34684,51907 12179,61230 v 440000 l -12179,61230 -34684,51907 -51907,34684 -61230,12179 h -320000 l -61230,-12179 -51907,-34684 -34684,-51907 -12179,-61230 z"
     id="path3" />
  <path
     style="fill:#000000;fill-opacity:1;fill-rule:evenodd;stroke:#000000;stroke-width:0.8;stroke-linecap:round;stroke-linejoin:round;stroke-opacity:1"
     d="m 29032024,46430000 12179,-61230 34684,-51907 51907,-34684 61230,-12179 h 320000 l 61230,12179 51907,34684 34684,51907 12179,61230 v 440000 l -12179,61230 -34684,51907 -51907,34684 -61230,12179 h -320000 l -61230,-12179 -51907,-34684 -34684,-51907 -12179,-61230 z"
     id="path4" />
  <g
     id="g5"
     style="fill:#000000;fill-opacity:0;stroke:#000000;stroke-width:0;stroke-linecap:round;stroke-linejoin:round;stroke-opacity:1" />
  <path
     style="fill:#000000;fill-opacity:1;fill-rule:evenodd;stroke:#000000;stroke-width:0.8;stroke-linecap:round;stroke-linejoin:round;stroke-opacity:1"
     d="m 40824524,91855000 -9134,45922 -26013,38931 -38931,26013 -45922,9134 h -1320000 l -45922,-9134 -38931,-26013 -26013,-38931 -9134,-45922 v -240000 l 9134,-45922 26013,-38931 38931,-26013 45922,-9134 h 1320000 l 45922,9134 38931,26013 26013,38931 9134,45922 z"
     id="path5" />
  <path
     style="fill:#000000;fill-opacity:1;fill-rule:evenodd;stroke:#000000;stroke-width:0.8;stroke-linecap:round;stroke-linejoin:round;stroke-opacity:1"
     d="m 40824524,90585000 -9134,45922 -26013,38931 -38931,26013 -45922,9134 h -1320000 l -45922,-9134 -38931,-26013 -26013,-38931 -9134,-45922 v -240000 l 9134,-45922 26013,-38931 38931,-26013 45922,-9134 h 1320000 l 45922,9134 38931,26013 26013,38931 9134,45922 z"
     id="path6" />
  <path
     style="fill:#000000;fill-opacity:1;fill-rule:evenodd;stroke:#000000;stroke-width:0.8;stroke-linecap:round;stroke-linejoin:round;stroke-opacity:1"
     d="m 40824524,89315000 -9134,45922 -26013,38931 -38931,26013 -45922,9134 h -1320000 l -45922,-9134 -38931,-26013 -26013,-38931 -9134,-45922 v -240000 l 9134,-45922 26013,-38931 38931,-26013 45922,-9134 h 1320000 l 45922,9134 38931,26013 26013,38931 9134,45922 z"
     id="path7" />
  <path
     style="fill:#000000;fill-opacity:1;fill-rule:evenodd;stroke:#000000;stroke-width:0.8;stroke-linecap:round;stroke-linejoin:round;stroke-opacity:1"
     d="m 40824524,88045000 -9134,45922 -26013,38931 -38931,26013 -45922,9134 h -1320000 l -45922,-9134 -38931,-26013 -26013,-38931 -9134,-45922 v -240000 l 9134,-45922 26013,-38931 38931,-26013 45922,-9134 h 1320000 l 45922,9134 38931,26013 26013,38931 9134,45922 z"
     id="path8" />
  <path
     style="fill:#000000;fill-opacity:1;fill-rule:evenodd;stroke:#000000;stroke-width:0.8;stroke-linecap:round;stroke-linejoin:round;stroke-opacity:1"
     d="m 35874524,88045000 -9134,45922 -26013,38931 -38931,26013 -45922,9134 h -1320000 l -45922,-9134 -38931,-26013 -26013,-38931 -9134,-45922 v -240000 l 9134,-45922 26013,-38931 38931,-26013 45922,-9134 h 1320000 l 45922,9134 38931,26013 26013,38931 9134,45922 z"
     id="path9" />
  <path
     style="fill:#000000;fill-opacity:1;fill-rule:evenodd;stroke:#000000;stroke-width:0.8;stroke-linecap:round;stroke-linejoin:round;stroke-opacity:1"
     d="m 35874524,89315000 -9134,45922 -26013,38931 -38931,26013 -45922,9134 h -1320000 l -45922,-9134 -38931,-26013 -26013,-38931 -9134,-45922 v -240000 l 9134,-45922 26013,-38931 38931,-26013 45922,-9134 h 1320000 l 45922,9134 38931,26013 26013,38931 9134,45922 z"
     id="path10" />
  <path
     style="fill:#000000;fill-opacity:1;fill-rule:evenodd;stroke:#000000;stroke-width:0.8;stroke-linecap:round;stroke-linejoin:round;stroke-opacity:1"
     d="m 35874524,90585000 -9134,45922 -26013,38931 -38931,26013 -45922,9134 h -1320000 l -45922,-9134 -38931,-26013 -26013,-38931 -9134,-45922 v -240000 l 9134,-45922 26013,-38931 38931,-26013 45922,-9134 h 1320000 l 45922,9134 38931,26013 26013,38931 9134,45922 z"
     id="path11" />
  <path
     style="fill:#000000;fill-opacity:1;fill-rule:evenodd;stroke:#000000;stroke-width:0.8;stroke-linecap:round;stroke-linejoin:round;stroke-opacity:1"
     d="m 35874524,91855000 -9134,45922 -26013,38931 -38931,26013 -45922,9134 h -1320000 l -45922,-9134 -38931,-26013 -26013,-38931 -9134,-45922 v -240000 l 9134,-45922 26013,-38931 38931,-26013 45922,-9134 h 1320000 l 45922,9134 38931,26013 26013,38931 9134,45922 z"
     id="path12" />
  <g
     id="g13"
     style="fill:#000000;fill-opacity:0;stroke:#000000;stroke-width:0;stroke-linecap:round;stroke-linejoin:round;stroke-opacity:1" />
  <path
     style="fill:#000000;fill-opacity:1;fill-rule:evenodd;stroke:#000000;stroke-width:0.8;stroke-linecap:round;stroke-linejoin:round;stroke-opacity:1"
     d="m 25724524,63285000 61230,12179 51907,34684 34684,51907 12179,61230 v 320000 l -12179,61230 -34684,51907 -51907,34684 -61230,12179 h -440000 l -61230,-12179 -51907,-34684 -34684,-51907 -12179,-61230 v -320000 l 12179,-61230 34684,-51907 51907,-34684 61230,-12179 z"
     id="path13" />
  <path
     style="fill:#000000;fill-opacity:1;fill-rule:evenodd;stroke:#000000;stroke-width:0.8;stroke-linecap:round;stroke-linejoin:round;stroke-opacity:1"
     d="m 25724524,64935000 61230,12179 51907,34684 34684,51907 12179,61230 v 320000 l -12179,61230 -34684,51907 -51907,34684 -61230,12179 h -440000 l -61230,-12179 -51907,-34684 -34684,-51907 -12179,-61230 v -320000 l 12179,-61230 34684,-51907 51907,-34684 61230,-12179 z"
     id="path14" />
  <g
     id="g15"
     style="fill:#000000;fill-opacity:0;stroke:#000000;stroke-width:0;stroke-linecap:round;stroke-linejoin:round;stroke-opacity:1" />
  <path
     style="fill:#000000;fill-opacity:1;fill-rule:evenodd;stroke:#000000;stroke-width:0.8;stroke-linecap:round;stroke-linejoin:round;stroke-opacity:1"
     d="m 48754524,71530000 61230,12179 51907,34684 34684,51907 12179,61230 v 320000 l -12179,61230 -34684,51907 -51907,34684 -61230,12179 h -440000 l -61230,-12179 -51907,-34684 -34684,-51907 -12179,-61230 v -320000 l 12179,-61230 34684,-51907 51907,-34684 61230,-12179 z"
     id="path15" />
  <path
     style="fill:#000000;fill-opacity:1;fill-rule:evenodd;stroke:#000000;stroke-width:0.8;stroke-linecap:round;stroke-linejoin:round;stroke-opacity:1"
     d="m 48754524,73180000 61230,12179 51907,34684 34684,51907 12179,61230 v 320000 l -12179,61230 -34684,51907 -51907,34684 -61230,12179 h -440000 l -61230,-12179 -51907,-34684 -34684,-51907 -12179,-61230 v -320000 l 12179,-61230 34684,-51907 51907,-34684 61230,-12179 z"
     id="path16" />
  <g
     id="g17"
     style="fill:#000000;fill-opacity:0;stroke:#000000;stroke-width:0;stroke-linecap:round;stroke-linejoin:round;stroke-opacity:1" />
  <g
     id="g18"
     style="fill:#000000;fill-opacity:0;stroke:#000000;stroke-width:0;stroke-linecap:round;stroke-linejoin:round;stroke-opacity:1" />
  <g
     id="g19"
     style="fill:#000000;fill-opacity:0;stroke:#000000;stroke-width:0;stroke-linecap:round;stroke-linejoin:round;stroke-opacity:1" />
  <g
     id="g20"
     style="fill:#000000;fill-opacity:0;stroke:#000000;stroke-width:0;stroke-linecap:round;stroke-linejoin:round;stroke-opacity:1" />
  <path
     style="fill:#000000;fill-opacity:1;fill-rule:evenodd;stroke:#000000;stroke-width:0.8;stroke-linecap:round;stroke-linejoin:round;stroke-opacity:1"
     d="m 35334524,67216000 -68883,-13702 -58396,-39019 -39019,-58396 -13702,-68883 v -360000 l 13702,-68883 39019,-58396 58396,-39019 68883,-13702 h 400000 l 68883,13702 58396,39019 39019,58396 13702,68883 v 360000 l -13702,68883 -39019,58396 -58396,39019 -68883,13702 z"
     id="path20" />
  <path
     style="fill:#000000;fill-opacity:1;fill-rule:evenodd;stroke:#000000;stroke-width:0.8;stroke-linecap:round;stroke-linejoin:round;stroke-opacity:1"
     d="m 35334524,65666000 -68883,-13702 -58396,-39019 -39019,-58396 -13702,-68883 v -360000 l 13702,-68883 39019,-58396 58396,-39019 68883,-13702 h 400000 l 68883,13702 58396,39019 39019,58396 13702,68883 v 360000 l -13702,68883 -39019,58396 -58396,39019 -68883,13702 z"
     id="path21" />
  <g
     id="g22"
     style="fill:#000000;fill-opacity:0;stroke:#000000;stroke-width:0;stroke-linecap:round;stroke-linejoin:round;stroke-opacity:1" />
  <g
     id="g23"
     style="fill:#000000;fill-opacity:0;stroke:#000000;stroke-width:0;stroke-linecap:round;stroke-linejoin:round;stroke-opacity:1" />
  <path
     style="fill:#000000;fill-opacity:1;fill-rule:evenodd;stroke:#000000;stroke-width:0.8;stroke-linecap:round;stroke-linejoin:round;stroke-opacity:1"
     d="m 35988524,59739000 68883,13702 58396,39019 39019,58396 13702,68883 v 360000 l -13702,68883 -39019,58396 -58396,39019 -68883,13702 h -400000 l -68883,-13702 -58396,-39019 -39019,-58396 -13702,-68883 v -360000 l 13702,-68883 39019,-58396 58396,-39019 68883,-13702 z"
     id="path23" />
  <path
     style="fill:#000000;fill-opacity:1;fill-rule:evenodd;stroke:#000000;stroke-width:0.8;stroke-linecap:round;stroke-linejoin:round;stroke-opacity:1"
     d="m 35988524,61289000 68883,13702 58396,39019 39019,58396 13702,68883 v 360000 l -13702,68883 -39019,58396 -58396,39019 -68883,13702 h -400000 l -68883,-13702 -58396,-39019 -39019,-58396 -13702,-68883 v -360000 l 13702,-68883 39019,-58396 58396,-39019 68883,-13702 z"
     id="path24" />
  <g
     id="g25"
     style="fill:#000000;fill-opacity:0;stroke:#000000;stroke-width:0;stroke-linecap:round;stroke-linejoin:round;stroke-opacity:1" />
  <g
     id="g26"
     style="fill:#000000;fill-opacity:0;stroke:#000000;stroke-width:0;stroke-linecap:round;stroke-linejoin:round;stroke-opacity:1" />
  <g
     id="g27"
     style="fill:#000000;fill-opacity:0;stroke:#000000;stroke-width:0;stroke-linecap:round;stroke-linejoin:round;stroke-opacity:1" />
  <path
     style="fill:#000000;fill-opacity:1;fill-rule:evenodd;stroke:#000000;stroke-width:0.8;stroke-linecap:round;stroke-linejoin:round;stroke-opacity:1"
     d="m 39394524,66850000 9134,-45922 26013,-38931 38931,-26013 45922,-9134 h 1320000 l 45922,9134 38931,26013 26013,38931 9134,45922 v 240000 l -9134,45922 -26013,38931 -38931,26013 -45922,9134 h -1320000 l -45922,-9134 -38931,-26013 -26013,-38931 -9134,-45922 z"
     id="path27" />
  <path
     style="fill:#000000;fill-opacity:1;fill-rule:evenodd;stroke:#000000;stroke-width:0.8;stroke-linecap:round;stroke-linejoin:round;stroke-opacity:1"
     d="m 39394524,68120000 9134,-45922 26013,-38931 38931,-26013 45922,-9134 h 1320000 l 45922,9134 38931,26013 26013,38931 9134,45922 v 240000 l -9134,45922 -26013,38931 -38931,26013 -45922,9134 h -1320000 l -45922,-9134 -38931,-26013 -26013,-38931 -9134,-45922 z"
     id="path28" />
  <path
     style="fill:#000000;fill-opacity:1;fill-rule:evenodd;stroke:#000000;stroke-width:0.8;stroke-linecap:round;stroke-linejoin:round;stroke-opacity:1"
     d="m 39394524,69390000 9134,-45922 26013,-38931 38931,-26013 45922,-9134 h 1320000 l 45922,9134 38931,26013 26013,38931 9134,45922 v 240000 l -9134,45922 -26013,38931 -38931,26013 -45922,9134 h -1320000 l -45922,-9134 -38931,-26013 -26013,-38931 -9134,-45922 z"
     id="path29" />
  <path
     style="fill:#000000;fill-opacity:1;fill-rule:evenodd;stroke:#000000;stroke-width:0.8;stroke-linecap:round;stroke-linejoin:round;stroke-opacity:1"
     d="m 39394524,70660000 9134,-45922 26013,-38931 38931,-26013 45922,-9134 h 1320000 l 45922,9134 38931,26013 26013,38931 9134,45922 v 240000 l -9134,45922 -26013,38931 -38931,26013 -45922,9134 h -1320000 l -45922,-9134 -38931,-26013 -26013,-38931 -9134,-45922 z"
     id="path30" />
  <path
     style="fill:#000000;fill-opacity:1;fill-rule:evenodd;stroke:#000000;stroke-width:0.8;stroke-linecap:round;stroke-linejoin:round;stroke-opacity:1"
     d="m 39394524,71930000 9134,-45922 26013,-38931 38931,-26013 45922,-9134 h 1320000 l 45922,9134 38931,26013 26013,38931 9134,45922 v 240000 l -9134,45922 -26013,38931 -38931,26013 -45922,9134 h -1320000 l -45922,-9134 -38931,-26013 -26013,-38931 -9134,-45922 z"
     id="path31" />
  <path
     style="fill:#000000;fill-opacity:1;fill-rule:evenodd;stroke:#000000;stroke-width:0.8;stroke-linecap:round;stroke-linejoin:round;stroke-opacity:1"
     d="m 39394524,73200000 9134,-45922 26013,-38931 38931,-26013 45922,-9134 h 1320000 l 45922,9134 38931,26013 26013,38931 9134,45922 v 240000 l -9134,45922 -26013,38931 -38931,26013 -45922,9134 h -1320000 l -45922,-9134 -38931,-26013 -26013,-38931 -9134,-45922 z"
     id="path32" />
  <path
     style="fill:#000000;fill-opacity:1;fill-rule:evenodd;stroke:#000000;stroke-width:0.8;stroke-linecap:round;stroke-linejoin:round;stroke-opacity:1"
     d="m 39394524,74470000 9134,-45922 26013,-38931 38931,-26013 45922,-9134 h 1320000 l 45922,9134 38931,26013 26013,38931 9134,45922 v 240000 l -9134,45922 -26013,38931 -38931,26013 -45922,9134 h -1320000 l -45922,-9134 -38931,-26013 -26013,-38931 -9134,-45922 z"
     id="path33" />
  <path
     style="fill:#000000;fill-opacity:1;fill-rule:evenodd;stroke:#000000;stroke-width:0.8;stroke-linecap:round;stroke-linejoin:round;stroke-opacity:1"
     d="m 44344524,74470000 9134,-45922 26013,-38931 38931,-26013 45922,-9134 h 1320000 l 45922,9134 38931,26013 26013,38931 9134,45922 v 240000 l -9134,45922 -26013,38931 -38931,26013 -45922,9134 h -1320000 l -45922,-9134 -38931,-26013 -26013,-38931 -9134,-45922 z"
     id="path34" />
  <path
     style="fill:#000000;fill-opacity:1;fill-rule:evenodd;stroke:#000000;stroke-width:0.8;stroke-linecap:round;stroke-linejoin:round;stroke-opacity:1"
     d="m 44344524,73200000 9134,-45922 26013,-38931 38931,-26013 45922,-9134 h 1320000 l 45922,9134 38931,26013 26013,38931 9134,45922 v 240000 l -9134,45922 -26013,38931 -38931,26013 -45922,9134 h -1320000 l -45922,-9134 -38931,-26013 -26013,-38931 -9134,-45922 z"
     id="path35" />
  <path
     style="fill:#000000;fill-opacity:1;fill-rule:evenodd;stroke:#000000;stroke-width:0.8;stroke-linecap:round;stroke-linejoin:round;stroke-opacity:1"
     d="m 44344524,71930000 9134,-45922 26013,-38931 38931,-26013 45922,-9134 h 1320000 l 45922,9134 38931,26013 26013,38931 9134,45922 v 240000 l -9134,45922 -26013,38931 -38931,26013 -45922,9134 h -1320000 l -45922,-9134 -38931,-26013 -26013,-38931 -9134,-45922 z"
     id="path36" />
  <path
     style="fill:#000000;fill-opacity:1;fill-rule:evenodd;stroke:#000000;stroke-width:0.8;stroke-linecap:round;stroke-linejoin:round;stroke-opacity:1"
     d="m 44344524,70660000 9134,-45922 26013,-38931 38931,-26013 45922,-9134 h 1320000 l 45922,9134 38931,26013 26013,38931 9134,45922 v 240000 l -9134,45922 -26013,38931 -38931,26013 -45922,9134 h -1320000 l -45922,-9134 -38931,-26013 -26013,-38931 -9134,-45922 z"
     id="path37" />
  <path
     style="fill:#000000;fill-opacity:1;fill-rule:evenodd;stroke:#000000;stroke-width:0.8;stroke-linecap:round;stroke-linejoin:round;stroke-opacity:1"
     d="m 44344524,69390000 9134,-45922 26013,-38931 38931,-26013 45922,-9134 h 1320000 l 45922,9134 38931,26013 26013,38931 9134,45922 v 240000 l -9134,45922 -26013,38931 -38931,26013 -45922,9134 h -1320000 l -45922,-9134 -38931,-26013 -26013,-38931 -9134,-45922 z"
     id="path38" />
  <path
     style="fill:#000000;fill-opacity:1;fill-rule:evenodd;stroke:#000000;stroke-width:0.8;stroke-linecap:round;stroke-linejoin:round;stroke-opacity:1"
     d="m 44344524,68120000 9134,-45922 26013,-38931 38931,-26013 45922,-9134 h 1320000 l 45922,9134 38931,26013 26013,38931 9134,45922 v 240000 l -9134,45922 -26013,38931 -38931,26013 -45922,9134 h -1320000 l -45922,-9134 -38931,-26013 -26013,-38931 -9134,-45922 z"
     id="path39" />
  <path
     style="fill:#000000;fill-opacity:1;fill-rule:evenodd;stroke:#000000;stroke-width:0.8;stroke-linecap:round;stroke-linejoin:round;stroke-opacity:1"
     d="m 44344524,66850000 9134,-45922 26013,-38931 38931,-26013 45922,-9134 h 1320000 l 45922,9134 38931,26013 26013,38931 9134,45922 v 240000 l -9134,45922 -26013,38931 -38931,26013 -45922,9134 h -1320000 l -45922,-9134 -38931,-26013 -26013,-38931 -9134,-45922 z"
     id="path40" />
  <g
     id="g41"
     style="fill:#000000;fill-opacity:0;stroke:#000000;stroke-width:0;stroke-linecap:round;stroke-linejoin:round;stroke-opacity:1" />
  <path
     style="fill:#000000;fill-opacity:1;fill-rule:evenodd;stroke:#000000;stroke-width:0.8;stroke-linecap:round;stroke-linejoin:round;stroke-opacity:1"
     d="m 43869524,64175000 -15224,76537 -43354,64885 -64885,43354 -76537,15224 h -400000 l -76537,-15224 -64885,-43354 -43354,-64885 -15224,-76537 v -760000 l 15224,-76537 43354,-64885 64885,-43354 76537,-15224 h 400000 l 76537,15224 64885,43354 43354,64885 15224,76537 z"
     id="path41" />
  <path
     style="fill:#000000;fill-opacity:1;fill-rule:evenodd;stroke:#000000;stroke-width:0.8;stroke-linecap:round;stroke-linejoin:round;stroke-opacity:1"
     d="m 41969524,64175000 -15224,76537 -43354,64885 -64885,43354 -76537,15224 h -400000 l -76537,-15224 -64885,-43354 -43354,-64885 -15224,-76537 v -760000 l 15224,-76537 43354,-64885 64885,-43354 76537,-15224 h 400000 l 76537,15224 64885,43354 43354,64885 15224,76537 z"
     id="path42" />
  <g
     id="g43"
     style="fill:#000000;fill-opacity:0;stroke:#000000;stroke-width:0;stroke-linecap:round;stroke-linejoin:round;stroke-opacity:1" />
  <path
     style="fill:#000000;fill-opacity:1;fill-rule:evenodd;stroke:#000000;stroke-width:0.8;stroke-linecap:round;stroke-linejoin:round;stroke-opacity:1"
     d="m 35754524,50982742 61230,12179 51907,34684 34684,51907 12179,61230 v 320000 l -12179,61230 -34684,51907 -51907,34684 -61230,12179 h -440000 l -61230,-12179 -51907,-34684 -34684,-51907 -12179,-61230 v -320000 l 12179,-61230 34684,-51907 51907,-34684 61230,-12179 z"
     id="path43" />
  <path
     style="fill:#000000;fill-opacity:1;fill-rule:evenodd;stroke:#000000;stroke-width:0.8;stroke-linecap:round;stroke-linejoin:round;stroke-opacity:1"
     d="m 35754524,52632742 61230,12179 51907,34684 34684,51907 12179,61230 v 320000 l -12179,61230 -34684,51907 -51907,34684 -61230,12179 h -440000 l -61230,-12179 -51907,-34684 -34684,-51907 -12179,-61230 v -320000 l 12179,-61230 34684,-51907 51907,-34684 61230,-12179 z"
     id="path44" />
  <g
     id="g45"
     style="fill:#000000;fill-opacity:0;stroke:#000000;stroke-width:0;stroke-linecap:round;stroke-linejoin:round;stroke-opacity:1" />
  <path
     style="fill:#000000;fill-opacity:1;fill-rule:evenodd;stroke:#000000;stroke-width:0.8;stroke-linecap:round;stroke-linejoin:round;stroke-opacity:1"
     d="m 42869524,26455000 61230,12179 51907,34684 34684,51907 12179,61230 v 320000 l -12179,61230 -34684,51907 -51907,34684 -61230,12179 h -440000 l -61230,-12179 -51907,-34684 -34684,-51907 -12179,-61230 v -320000 l 12179,-61230 34684,-51907 51907,-34684 61230,-12179 z"
     id="path45" />
  <path
     style="fill:#000000;fill-opacity:1;fill-rule:evenodd;stroke:#000000;stroke-width:0.8;stroke-linecap:round;stroke-linejoin:round;stroke-opacity:1"
     d="m 42869524,28105000 61230,12179 51907,34684 34684,51907 12179,61230 v 320000 l -12179,61230 -34684,51907 -51907,34684 -61230,12179 h -440000 l -61230,-12179 -51907,-34684 -34684,-51907 -12179,-61230 v -320000 l 12179,-61230 34684,-51907 51907,-34684 61230,-12179 z"
     id="path46" />
  <g
     id="g47"
     style="fill:#000000;fill-opacity:0;stroke:#000000;stroke-width:0;stroke-linecap:round;stroke-linejoin:round;stroke-opacity:1" />
  <g
     id="g48"
     style="fill:#000000;fill-opacity:0;stroke:#000000;stroke-width:0;stroke-linecap:round;stroke-linejoin:round;stroke-opacity:1" />
  <path
     style="fill:#000000;fill-opacity:1;fill-rule:evenodd;stroke:#000000;stroke-width:0.8;stroke-linecap:round;stroke-linejoin:round;stroke-opacity:1"
     d="m 46204524,84335000 -12179,61230 -34684,51907 -51907,34684 -61230,12179 h -320000 l -61230,-12179 -51907,-34684 -34684,-51907 -12179,-61230 v -440000 l 12179,-61230 34684,-51907 51907,-34684 61230,-12179 h 320000 l 61230,12179 51907,34684 34684,51907 12179,61230 z"
     id="path48" />
  <path
     style="fill:#000000;fill-opacity:1;fill-rule:evenodd;stroke:#000000;stroke-width:0.8;stroke-linecap:round;stroke-linejoin:round;stroke-opacity:1"
     d="m 44554524,84335000 -12179,61230 -34684,51907 -51907,34684 -61230,12179 h -320000 l -61230,-12179 -51907,-34684 -34684,-51907 -12179,-61230 v -440000 l 12179,-61230 34684,-51907 51907,-34684 61230,-12179 h 320000 l 61230,12179 51907,34684 34684,51907 12179,61230 z"
     id="path49" />
  <g
     id="g50"
     style="fill:#000000;fill-opacity:0;stroke:#000000;stroke-width:0;stroke-linecap:round;stroke-linejoin:round;stroke-opacity:1" />
  <g
     id="g51"
     style="fill:#000000;fill-opacity:0;stroke:#000000;stroke-width:0;stroke-linecap:round;stroke-linejoin:round;stroke-opacity:1" />
  <path
     style="fill:#000000;fill-opacity:1;fill-rule:evenodd;stroke:#000000;stroke-width:0.8;stroke-linecap:round;stroke-linejoin:round;stroke-opacity:1"
     d="m 33881524,84530000 12179,-61230 34684,-51907 51907,-34684 61230,-12179 h 320000 l 61230,12179 51907,34684 34684,51907 12179,61230 v 440000 l -12179,61230 -34684,51907 -51907,34684 -61230,12179 h -320000 l -61230,-12179 -51907,-34684 -34684,-51907 -12179,-61230 z"
     id="path51" />
  <path
     style="fill:#000000;fill-opacity:1;fill-rule:evenodd;stroke:#000000;stroke-width:0.8;stroke-linecap:round;stroke-linejoin:round;stroke-opacity:1"
     d="m 35531524,84530000 12179,-61230 34684,-51907 51907,-34684 61230,-12179 h 320000 l 61230,12179 51907,34684 34684,51907 12179,61230 v 440000 l -12179,61230 -34684,51907 -51907,34684 -61230,12179 h -320000 l -61230,-12179 -51907,-34684 -34684,-51907 -12179,-61230 z"
     id="path52" />
  <g
     id="g53"
     style="fill:#000000;fill-opacity:0;stroke:#000000;stroke-width:0;stroke-linecap:round;stroke-linejoin:round;stroke-opacity:1" />
  <path
     style="fill:#000000;fill-opacity:1;fill-rule:evenodd;stroke:#000000;stroke-width:0.8;stroke-linecap:round;stroke-linejoin:round;stroke-opacity:1"
     d="m 31594524,83850000 h 720000 v 1040000 h -720000 z"
     id="path53" />
  <path
     style="fill:#000000;fill-opacity:1;fill-rule:evenodd;stroke:#000000;stroke-width:0.8;stroke-linecap:round;stroke-linejoin:round;stroke-opacity:1"
     d="m 30095798,83843651 h 720000 v 1040000 h -720000 z"
     id="path53-9" />
  <path
     style="fill:#000000;fill-opacity:1;fill-rule:evenodd;stroke:#000000;stroke-width:0.8;stroke-linecap:round;stroke-linejoin:round;stroke-opacity:1"
     d="m 30091007,86294458 h 720000 v 1040000 h -720000 z"
     id="path53-9-8" />
  <path
     style="fill:#000000;fill-opacity:1;fill-rule:evenodd;stroke:#000000;stroke-width:0.8;stroke-linecap:round;stroke-linejoin:round;stroke-opacity:1"
     d="m 28594524,83850000 h 720000 v 1040000 h -720000 z"
     id="path55" />
  <g
     id="g56"
     style="fill:#000000;fill-opacity:0;stroke:#000000;stroke-width:0;stroke-linecap:round;stroke-linejoin:round;stroke-opacity:1" />
  <g
     id="g57"
     style="fill:#000000;fill-opacity:0;stroke:#000000;stroke-width:0;stroke-linecap:round;stroke-linejoin:round;stroke-opacity:1" />
  <g
     id="g58"
     style="fill:#000000;fill-opacity:0;stroke:#000000;stroke-width:0;stroke-linecap:round;stroke-linejoin:round;stroke-opacity:1" />
  <path
     style="fill:#000000;fill-opacity:1;fill-rule:evenodd;stroke:#000000;stroke-width:0.8;stroke-linecap:round;stroke-linejoin:round;stroke-opacity:1"
     d="m 25219524,46855000 -13321,66970 -37935,56774 -56774,37935 -66970,13321 h -350000 l -66970,-13321 -56774,-37935 -37935,-56774 -13321,-66970 v -410000 l 13321,-66970 37935,-56774 56774,-37935 66970,-13321 h 350000 l 66970,13321 56774,37935 37935,56774 13321,66970 z"
     id="path58" />
  <path
     style="fill:#000000;fill-opacity:1;fill-rule:evenodd;stroke:#000000;stroke-width:0.8;stroke-linecap:round;stroke-linejoin:round;stroke-opacity:1"
     d="m 23644524,46855000 -13321,66970 -37935,56774 -56774,37935 -66970,13321 h -350000 l -66970,-13321 -56774,-37935 -37935,-56774 -13321,-66970 v -410000 l 13321,-66970 37935,-56774 56774,-37935 66970,-13321 h 350000 l 66970,13321 56774,37935 37935,56774 13321,66970 z"
     id="path59" />
  <g
     id="g60"
     style="fill:#000000;fill-opacity:0;stroke:#000000;stroke-width:0;stroke-linecap:round;stroke-linejoin:round;stroke-opacity:1" />
  <path
     style="fill:#000000;fill-opacity:1;fill-rule:evenodd;stroke:#000000;stroke-width:0.8;stroke-linecap:round;stroke-linejoin:round;stroke-opacity:1"
     d="m 47314524,88575000 h -560000 v -1600000 h 560000 z"
     id="path60" />
  <path
     style="fill:#000000;fill-opacity:1;fill-rule:evenodd;stroke:#000000;stroke-width:0.8;stroke-linecap:round;stroke-linejoin:round;stroke-opacity:1"
     d="m 49358524,88575000 h -608000 v -1600000 h 608000 z"
     id="path61" />
  <path
     style="fill:#000000;fill-opacity:1;fill-rule:evenodd;stroke:#000000;stroke-width:0.8;stroke-linecap:round;stroke-linejoin:round;stroke-opacity:1"
     d="m 50604524,88575000 h -640000 v -1600000 h 640000 z"
     id="path62" />
  <path
     style="fill:#000000;fill-opacity:1;fill-rule:evenodd;stroke:#000000;stroke-width:0.8;stroke-linecap:round;stroke-linejoin:round;stroke-opacity:1"
     d="m 48314524,88575000 h -560000 v -1600000 h 560000 z"
     id="path63" />
  <path
     style="fill:#000000;fill-opacity:1;fill-rule:evenodd;stroke:#000000;stroke-width:0.8;stroke-linecap:round;stroke-linejoin:round;stroke-opacity:1"
     d="m 46318524,88575000 h -608000 v -1600000 h 608000 z"
     id="path64" />
  <path
     style="fill:#000000;fill-opacity:1;fill-rule:evenodd;stroke:#000000;stroke-width:0.8;stroke-linecap:round;stroke-linejoin:round;stroke-opacity:1"
     d="m 45104524,88575000 h -640000 v -1600000 h 640000 z"
     id="path65" />
  <g
     id="g66"
     style="fill:#000000;fill-opacity:0;stroke:#000000;stroke-width:0;stroke-linecap:round;stroke-linejoin:round;stroke-opacity:1" />
  <path
     style="fill:#000000;fill-opacity:1;fill-rule:evenodd;stroke:#000000;stroke-width:0.8;stroke-linecap:round;stroke-linejoin:round;stroke-opacity:1"
     d="m 47724524,83895000 12179,-61230 34684,-51907 51907,-34684 61230,-12179 h 320000 l 61230,12179 51907,34684 34684,51907 12179,61230 v 440000 l -12179,61230 -34684,51907 -51907,34684 -61230,12179 h -320000 l -61230,-12179 -51907,-34684 -34684,-51907 -12179,-61230 z"
     id="path66" />
  <path
     style="fill:#000000;fill-opacity:1;fill-rule:evenodd;stroke:#000000;stroke-width:0.8;stroke-linecap:round;stroke-linejoin:round;stroke-opacity:1"
     d="m 49374524,83895000 12179,-61230 34684,-51907 51907,-34684 61230,-12179 h 320000 l 61230,12179 51907,34684 34684,51907 12179,61230 v 440000 l -12179,61230 -34684,51907 -51907,34684 -61230,12179 h -320000 l -61230,-12179 -51907,-34684 -34684,-51907 -12179,-61230 z"
     id="path67" />
  <g
     id="g68"
     style="fill:#000000;fill-opacity:0;stroke:#000000;stroke-width:0;stroke-linecap:round;stroke-linejoin:round;stroke-opacity:1" />
  <g
     id="g69"
     style="fill:#000000;fill-opacity:0;stroke:#000000;stroke-width:0;stroke-linecap:round;stroke-linejoin:round;stroke-opacity:1" />
  <g
     id="g70"
     style="fill:#000000;fill-opacity:0;stroke:#000000;stroke-width:0;stroke-linecap:round;stroke-linejoin:round;stroke-opacity:1" />
  <g
     id="g71"
     style="fill:#000000;fill-opacity:0;stroke:#000000;stroke-width:0;stroke-linecap:round;stroke-linejoin:round;stroke-opacity:1" />
  <g
     id="g72"
     style="fill:#000000;fill-opacity:0;stroke:#000000;stroke-width:0;stroke-linecap:round;stroke-linejoin:round;stroke-opacity:1" />
  <path
     style="fill:#000000;fill-opacity:1;fill-rule:evenodd;stroke:#000000;stroke-width:0.64;stroke-linecap:round;stroke-linejoin:round;stroke-opacity:1"
     d="m 27979524,57382000 v 1216000 h -1152000 v -1216000 z"
     id="path72" />
  <path
     style="fill:#000000;fill-opacity:1;fill-rule:evenodd;stroke:#000000;stroke-width:0.64;stroke-linecap:round;stroke-linejoin:round;stroke-opacity:1"
     d="m 27979524,52432000 v 1216000 h -1152000 v -1216000 z"
     id="path73" />
  <path
     style="fill:#000000;fill-opacity:1;fill-rule:evenodd;stroke:#000000;stroke-width:0.64;stroke-linecap:round;stroke-linejoin:round;stroke-opacity:1"
     d="m 23097524,60164000 v 1152000 h -1088000 v -1152000 z"
     id="path74" />
  <path
     style="fill:#000000;fill-opacity:1;fill-rule:evenodd;stroke:#000000;stroke-width:0.64;stroke-linecap:round;stroke-linejoin:round;stroke-opacity:1"
     d="m 23097524,49764000 v 1152000 h -1088000 v -1152000 z"
     id="path75" />
  <path
     style="fill:#000000;fill-opacity:1;fill-rule:evenodd;stroke:#000000;stroke-width:0.64;stroke-linecap:round;stroke-linejoin:round;stroke-opacity:1"
     d="m 27979524,54932000 v 1216000 h -1152000 v -1216000 z"
     id="path76" />
  <g
     id="g77"
     style="fill:#000000;fill-opacity:0;stroke:#000000;stroke-width:0;stroke-linecap:round;stroke-linejoin:round;stroke-opacity:1" />
  <path
     style="fill:#000000;fill-opacity:1;fill-rule:evenodd;stroke:#000000;stroke-width:0.8;stroke-linecap:round;stroke-linejoin:round;stroke-opacity:1"
     d="m 46754524,57430000 61230,12179 51907,34684 34684,51907 12179,61230 v 320000 l -12179,61230 -34684,51907 -51907,34684 -61230,12179 h -440000 l -61230,-12179 -51907,-34684 -34684,-51907 -12179,-61230 v -320000 l 12179,-61230 34684,-51907 51907,-34684 61230,-12179 z"
     id="path77" />
  <path
     style="fill:#000000;fill-opacity:1;fill-rule:evenodd;stroke:#000000;stroke-width:0.8;stroke-linecap:round;stroke-linejoin:round;stroke-opacity:1"
     d="m 46754524,59080000 61230,12179 51907,34684 34684,51907 12179,61230 v 320000 l -12179,61230 -34684,51907 -51907,34684 -61230,12179 h -440000 l -61230,-12179 -51907,-34684 -34684,-51907 -12179,-61230 v -320000 l 12179,-61230 34684,-51907 51907,-34684 61230,-12179 z"
     id="path78" />
  <g
     id="g79"
     style="fill:#000000;fill-opacity:0;stroke:#000000;stroke-width:0;stroke-linecap:round;stroke-linejoin:round;stroke-opacity:1" />
  <g
     id="g80"
     style="fill:#000000;fill-opacity:0;stroke:#000000;stroke-width:0;stroke-linecap:round;stroke-linejoin:round;stroke-opacity:1" />
  <path
     style="fill:#000000;fill-opacity:1;fill-rule:evenodd;stroke:#000000;stroke-width:0.8;stroke-linecap:round;stroke-linejoin:round;stroke-opacity:1"
     d="m 37659524,67730000 61230,12179 51907,34684 34684,51907 12179,61230 v 320000 l -12179,61230 -34684,51907 -51907,34684 -61230,12179 h -440000 l -61230,-12179 -51907,-34684 -34684,-51907 -12179,-61230 v -320000 l 12179,-61230 34684,-51907 51907,-34684 61230,-12179 z"
     id="path80" />
  <path
     style="fill:#000000;fill-opacity:1;fill-rule:evenodd;stroke:#000000;stroke-width:0.8;stroke-linecap:round;stroke-linejoin:round;stroke-opacity:1"
     d="m 37659524,69380000 61230,12179 51907,34684 34684,51907 12179,61230 v 320000 l -12179,61230 -34684,51907 -51907,34684 -61230,12179 h -440000 l -61230,-12179 -51907,-34684 -34684,-51907 -12179,-61230 v -320000 l 12179,-61230 34684,-51907 51907,-34684 61230,-12179 z"
     id="path81" />
  <g
     id="g82"
     style="fill:#000000;fill-opacity:0;stroke:#000000;stroke-width:0;stroke-linecap:round;stroke-linejoin:round;stroke-opacity:1" />
  <g
     style="fill:#000000;fill-opacity:1;stroke:#000000;stroke-width:1;stroke-linecap:round;stroke-linejoin:round;stroke-opacity:1"
     id="g83">
    <path
       style="fill:#000000;fill-opacity:1;fill-rule:evenodd;stroke:#000000;stroke-width:1;stroke-linecap:round;stroke-linejoin:round;stroke-opacity:1"
       d="m 30704524,77210000 h -500000 v -500000 h 500000 z"
       id="path82" />
    <path
       style="fill:#000000;fill-opacity:1;fill-rule:evenodd;stroke:#000000;stroke-width:1;stroke-linecap:round;stroke-linejoin:round;stroke-opacity:1"
       d="m 30704524,75010000 h -500000 v -500000 h 500000 z"
       id="path83" />
  </g>
  <g
     id="g84"
     style="fill:#000000;fill-opacity:0;stroke:#000000;stroke-width:0;stroke-linecap:round;stroke-linejoin:round;stroke-opacity:1" />
  <path
     style="fill:#000000;fill-opacity:1;fill-rule:evenodd;stroke:#000000;stroke-width:0.8;stroke-linecap:round;stroke-linejoin:round;stroke-opacity:1"
     d="m 38909524,58342000 68883,13702 58396,39019 39019,58396 13702,68883 v 360000 l -13702,68883 -39019,58396 -58396,39019 -68883,13702 h -400000 l -68883,-13702 -58396,-39019 -39019,-58396 -13702,-68883 v -360000 l 13702,-68883 39019,-58396 58396,-39019 68883,-13702 z"
     id="path84" />
  <path
     style="fill:#000000;fill-opacity:1;fill-rule:evenodd;stroke:#000000;stroke-width:0.8;stroke-linecap:round;stroke-linejoin:round;stroke-opacity:1"
     d="m 38909524,59892000 68883,13702 58396,39019 39019,58396 13702,68883 v 360000 l -13702,68883 -39019,58396 -58396,39019 -68883,13702 h -400000 l -68883,-13702 -58396,-39019 -39019,-58396 -13702,-68883 v -360000 l 13702,-68883 39019,-58396 58396,-39019 68883,-13702 z"
     id="path85" />
  <g
     id="g86"
     style="fill:#000000;fill-opacity:0;stroke:#000000;stroke-width:0;stroke-linecap:round;stroke-linejoin:round;stroke-opacity:1" />
  <path
     style="fill:#000000;fill-opacity:1;fill-rule:evenodd;stroke:#000000;stroke-width:0.8;stroke-linecap:round;stroke-linejoin:round;stroke-opacity:1"
     d="m 32992024,51030000 61230,12179 51907,34684 34684,51907 12179,61230 v 320000 l -12179,61230 -34684,51907 -51907,34684 -61230,12179 h -440000 l -61230,-12179 -51907,-34684 -34684,-51907 -12179,-61230 v -320000 l 12179,-61230 34684,-51907 51907,-34684 61230,-12179 z"
     id="path86" />
  <path
     style="fill:#000000;fill-opacity:1;fill-rule:evenodd;stroke:#000000;stroke-width:0.8;stroke-linecap:round;stroke-linejoin:round;stroke-opacity:1"
     d="m 32992024,52680000 61230,12179 51907,34684 34684,51907 12179,61230 v 320000 l -12179,61230 -34684,51907 -51907,34684 -61230,12179 h -440000 l -61230,-12179 -51907,-34684 -34684,-51907 -12179,-61230 v -320000 l 12179,-61230 34684,-51907 51907,-34684 61230,-12179 z"
     id="path87" />
  <g
     id="g88"
     style="fill:#000000;fill-opacity:0;stroke:#000000;stroke-width:0;stroke-linecap:round;stroke-linejoin:round;stroke-opacity:1" />
  <g
     id="g89"
     style="fill:#000000;fill-opacity:0;stroke:#000000;stroke-width:0;stroke-linecap:round;stroke-linejoin:round;stroke-opacity:1" />
  <path
     style="fill:#000000;fill-opacity:1;fill-rule:evenodd;stroke:#000000;stroke-width:0.8;stroke-linecap:round;stroke-linejoin:round;stroke-opacity:1"
     d="m 32384524,81955000 -15224,76537 -43354,64885 -64885,43354 -76537,15224 h -400000 l -76537,-15224 -64885,-43354 -43354,-64885 -15224,-76537 v -760000 l 15224,-76537 43354,-64885 64885,-43354 76537,-15224 h 400000 l 76537,15224 64885,43354 43354,64885 15224,76537 z"
     id="path89" />
  <path
     style="fill:#000000;fill-opacity:1;fill-rule:evenodd;stroke:#000000;stroke-width:0.8;stroke-linecap:round;stroke-linejoin:round;stroke-opacity:1"
     d="m 30484524,81955000 -15224,76537 -43354,64885 -64885,43354 -76537,15224 h -400000 l -76537,-15224 -64885,-43354 -43354,-64885 -15224,-76537 v -760000 l 15224,-76537 43354,-64885 64885,-43354 76537,-15224 h 400000 l 76537,15224 64885,43354 43354,64885 15224,76537 z"
     id="path90" />
  <g
     id="g91"
     style="fill:#000000;fill-opacity:0;stroke:#000000;stroke-width:0;stroke-linecap:round;stroke-linejoin:round;stroke-opacity:1" />
  <g
     id="g92"
     style="fill:#000000;fill-opacity:0;stroke:#000000;stroke-width:0;stroke-linecap:round;stroke-linejoin:round;stroke-opacity:1" />
  <g
     style="fill:#000000;fill-opacity:1;stroke:#000000;stroke-width:1;stroke-linecap:round;stroke-linejoin:round;stroke-opacity:1"
     id="g93">
    <path
       style="fill:#000000;fill-opacity:1;fill-rule:evenodd;stroke:#000000;stroke-width:1;stroke-linecap:round;stroke-linejoin:round;stroke-opacity:1"
       d="m 30204524,54190000 h 500000 v 500000 h -500000 z"
       id="path92" />
    <path
       style="fill:#000000;fill-opacity:1;fill-rule:evenodd;stroke:#000000;stroke-width:1;stroke-linecap:round;stroke-linejoin:round;stroke-opacity:1"
       d="m 30204524,56390000 h 500000 v 500000 h -500000 z"
       id="path93" />
  </g>
  <g
     id="g94"
     style="fill:#000000;fill-opacity:0;stroke:#000000;stroke-width:0;stroke-linecap:round;stroke-linejoin:round;stroke-opacity:1" />
  <g
     id="g95"
     style="fill:#000000;fill-opacity:0;stroke:#000000;stroke-width:0;stroke-linecap:round;stroke-linejoin:round;stroke-opacity:1" />
  <g
     style="fill:#000000;fill-opacity:1;stroke:#000000;stroke-width:1;stroke-linecap:round;stroke-linejoin:round;stroke-opacity:1"
     id="g98">
    <path
       style="fill:#000000;fill-opacity:1;fill-rule:evenodd;stroke:#000000;stroke-width:1;stroke-linecap:round;stroke-linejoin:round;stroke-opacity:1"
       d="m 30614524,33927400 h -400000 v -650000 h 400000 z"
       id="path95" />
    <path
       style="fill:#000000;fill-opacity:1;fill-rule:evenodd;stroke:#000000;stroke-width:1;stroke-linecap:round;stroke-linejoin:round;stroke-opacity:1"
       d="m 29854524,33927400 h -400000 v -650000 h 400000 z"
       id="path96" />
    <path
       style="fill:#000000;fill-opacity:1;fill-rule:evenodd;stroke:#000000;stroke-width:1;stroke-linecap:round;stroke-linejoin:round;stroke-opacity:1"
       d="m 29854524,34927400 h -400000 v -650000 h 400000 z"
       id="path97" />
    <path
       style="fill:#000000;fill-opacity:1;fill-rule:evenodd;stroke:#000000;stroke-width:1;stroke-linecap:round;stroke-linejoin:round;stroke-opacity:1"
       d="m 30614524,34927400 h -400000 v -650000 h 400000 z"
       id="path98" />
  </g>
  <g
     id="g99"
     style="fill:#000000;fill-opacity:0;stroke:#000000;stroke-width:0;stroke-linecap:round;stroke-linejoin:round;stroke-opacity:1" />
  <path
     style="fill:#000000;fill-opacity:1;fill-rule:evenodd;stroke:#000000;stroke-width:0.8;stroke-linecap:round;stroke-linejoin:round;stroke-opacity:1"
     d="m 32485524,89877000 76537,15224 64885,43354 43354,64885 15224,76537 v 400000 l -15224,76537 -43354,64885 -64885,43354 -76537,15224 h -760000 l -76537,-15224 -64885,-43354 -43354,-64885 -15224,-76537 v -400000 l 15224,-76537 43354,-64885 64885,-43354 76537,-15224 z"
     id="path99" />
  <path
     style="fill:#000000;fill-opacity:1;fill-rule:evenodd;stroke:#000000;stroke-width:0.8;stroke-linecap:round;stroke-linejoin:round;stroke-opacity:1"
     d="m 32485524,91777000 76537,15224 64885,43354 43354,64885 15224,76537 v 400000 l -15224,76537 -43354,64885 -64885,43354 -76537,15224 h -760000 l -76537,-15224 -64885,-43354 -43354,-64885 -15224,-76537 v -400000 l 15224,-76537 43354,-64885 64885,-43354 76537,-15224 z"
     id="path100" />
  <g
     id="g101"
     style="fill:#000000;fill-opacity:0;stroke:#000000;stroke-width:0;stroke-linecap:round;stroke-linejoin:round;stroke-opacity:1" />
  <g
     id="g102"
     style="fill:#000000;fill-opacity:0;stroke:#000000;stroke-width:0;stroke-linecap:round;stroke-linejoin:round;stroke-opacity:1" />
  <g
     id="g103"
     style="fill:#000000;fill-opacity:0;stroke:#000000;stroke-width:0;stroke-linecap:round;stroke-linejoin:round;stroke-opacity:1" />
  <g
     id="g104"
     style="fill:#000000;fill-opacity:0;stroke:#000000;stroke-width:0;stroke-linecap:round;stroke-linejoin:round;stroke-opacity:1" />
  <g
     id="g105"
     style="fill:#000000;fill-opacity:0;stroke:#000000;stroke-width:0;stroke-linecap:round;stroke-linejoin:round;stroke-opacity:1" />
  <g
     id="g106"
     style="fill:#000000;fill-opacity:0;stroke:#000000;stroke-width:0;stroke-linecap:round;stroke-linejoin:round;stroke-opacity:1" />
  <g
     id="g107"
     style="fill:#000000;fill-opacity:0;stroke:#000000;stroke-width:0;stroke-linecap:round;stroke-linejoin:round;stroke-opacity:1" />
  <g
     id="g108"
     style="fill:#000000;fill-opacity:0;stroke:#000000;stroke-width:0;stroke-linecap:round;stroke-linejoin:round;stroke-opacity:1" />
  <g
     id="g109"
     style="fill:#000000;fill-opacity:0;stroke:#000000;stroke-width:0;stroke-linecap:round;stroke-linejoin:round;stroke-opacity:1" />
  <g
     id="g110"
     style="fill:#000000;fill-opacity:0;stroke:#000000;stroke-width:0;stroke-linecap:round;stroke-linejoin:round;stroke-opacity:1" />
  <g
     id="g111"
     style="fill:#000000;fill-opacity:0;stroke:#000000;stroke-width:0;stroke-linecap:round;stroke-linejoin:round;stroke-opacity:1" />
  <g
     id="g112"
     style="fill:#000000;fill-opacity:0;stroke:#000000;stroke-width:0;stroke-linecap:round;stroke-linejoin:round;stroke-opacity:1" />
  <g
     id="g113"
     style="fill:#000000;fill-opacity:0;stroke:#000000;stroke-width:0;stroke-linecap:round;stroke-linejoin:round;stroke-opacity:1" />
</svg>
