M48
; DRILL file {KiCad (6.0.10-0)} date 
; FORMAT={-:-/ absolute / metric / decimal}
; #@! TF.CreationDate,2024-06-01T19:56:05+09:00
; #@! TF.GenerationSoftware,Kicad,Pcbnew,(6.0.10-0)
; #@! TF.FileFunction,Plated,1,2,PTH
FMAT,2
METRIC
; #@! TA.AperFunction,Plated,PTH,ViaDrill
T1C0.400
; #@! TA.AperFunction,Plated,PTH,ComponentDrill
T2C0.400
; #@! TA.AperFunction,Plated,PTH,ComponentDrill
T3C0.600
; #@! TA.AperFunction,Plated,PTH,ComponentDrill
T4C0.900
; #@! TA.AperFunction,Plated,PTH,ComponentDrill
T5C1.000
%
G90
G05
T1
X115.7Y-95.885
X115.7Y-106.045
X120.145Y-109.855
X120.78Y-124.46
X121.55Y-128.408
X121.643Y-92.075
X121.92Y-119.38
X123.955Y-117.475
X123.963Y-116.205
X124.379Y-80.879
X124.688Y-105.635
X124.717Y-104.394
X125.095Y-135.89
X125.476Y-138.303
X126.495Y-115.57
X126.495Y-118.745
X127.0Y-109.855
X127.254Y-104.365
X127.254Y-108.204
X129.286Y-137.16
X129.924Y-118.745
X129.924Y-120.015
X130.077Y-106.905
X130.149Y-103.095
X130.175Y-115.734
X132.845Y-96.52
X133.099Y-113.665
X133.6Y-114.931
X134.62Y-129.54
X134.75Y-112.395
X135.128Y-116.205
X135.131Y-117.475
X135.131Y-118.745
X142.24Y-129.54
T2
X121.92Y-131.064
X121.92Y-132.08
X121.92Y-133.096
T4
X134.18Y-78.25
X134.18Y-80.79
X134.191Y-75.717
X134.191Y-83.312
X140.0Y-101.5
X140.0Y-106.5
X140.0Y-110.0
X140.0Y-115.0
X141.8Y-78.25
X141.8Y-80.79
X142.5Y-104.0
X142.5Y-112.5
T5
X115.7Y-116.205
X115.7Y-118.745
X115.7Y-123.19
X115.7Y-125.73
X115.7Y-128.27
X116.713Y-133.985
X116.713Y-136.485
X118.24Y-116.205
X118.24Y-118.745
X118.24Y-123.19
X118.24Y-125.73
X118.24Y-128.27
X125.225Y-123.825
X127.0Y-75.717
X127.0Y-78.257
X127.0Y-80.797
X127.0Y-83.337
X127.762Y-127.0
X127.765Y-123.825
X130.302Y-127.0
X130.305Y-123.825
X132.845Y-123.825
X135.385Y-123.825
T3
X134.68Y-133.725G85X134.68Y-133.125
G05
X134.68Y-137.525G85X134.68Y-136.925
G05
X143.32Y-133.725G85X143.32Y-133.125
G05
X143.32Y-137.525G85X143.32Y-136.925
G05
T0
M30
