G04 #@! TF.GenerationSoftware,KiCad,Pcbnew,(6.0.10-0)*
G04 #@! TF.CreationDate,2024-06-01T19:56:01+09:00*
G04 #@! TF.ProjectId,AutoFeeder_Drum-type,4175746f-4665-4656-9465-725f4472756d,01*
G04 #@! TF.SameCoordinates,Original*
G04 #@! TF.FileFunction,Legend,Bot*
G04 #@! TF.FilePolarity,Positive*
%FSLAX46Y46*%
G04 Gerber Fmt 4.6, Leading zero omitted, Abs format (unit mm)*
G04 Created by KiCad (PCBNEW (6.0.10-0)) date 2024-06-01 19:56:01*
%MOMM*%
%LPD*%
G01*
G04 APERTURE LIST*
G04 Aperture macros list*
%AMRoundRect*
0 Rectangle with rounded corners*
0 $1 Rounding radius*
0 $2 $3 $4 $5 $6 $7 $8 $9 X,Y pos of 4 corners*
0 Add a 4 corners polygon primitive as box body*
4,1,4,$2,$3,$4,$5,$6,$7,$8,$9,$2,$3,0*
0 Add four circle primitives for the rounded corners*
1,1,$1+$1,$2,$3*
1,1,$1+$1,$4,$5*
1,1,$1+$1,$6,$7*
1,1,$1+$1,$8,$9*
0 Add four rect primitives between the rounded corners*
20,1,$1+$1,$2,$3,$4,$5,0*
20,1,$1+$1,$4,$5,$6,$7,0*
20,1,$1+$1,$6,$7,$8,$9,0*
20,1,$1+$1,$8,$9,$2,$3,0*%
%AMFreePoly0*
4,1,22,0.550000,-0.750000,0.000000,-0.750000,0.000000,-0.745033,-0.079941,-0.743568,-0.215256,-0.701293,-0.333266,-0.622738,-0.424486,-0.514219,-0.481581,-0.384460,-0.499164,-0.250000,-0.500000,-0.250000,-0.500000,0.250000,-0.499164,0.250000,-0.499963,0.256109,-0.478152,0.396186,-0.417904,0.524511,-0.324060,0.630769,-0.204165,0.706417,-0.067858,0.745374,0.000000,0.744959,0.000000,0.750000,
0.550000,0.750000,0.550000,-0.750000,0.550000,-0.750000,$1*%
%AMFreePoly1*
4,1,20,0.000000,0.744959,0.073905,0.744508,0.209726,0.703889,0.328688,0.626782,0.421226,0.519385,0.479903,0.390333,0.500000,0.250000,0.500000,-0.250000,0.499851,-0.262216,0.476331,-0.402017,0.414519,-0.529596,0.319384,-0.634700,0.198574,-0.708877,0.061801,-0.746166,0.000000,-0.745033,0.000000,-0.750000,-0.550000,-0.750000,-0.550000,0.750000,0.000000,0.750000,0.000000,0.744959,
0.000000,0.744959,$1*%
G04 Aperture macros list end*
%ADD10C,0.200000*%
%ADD11C,0.150000*%
%ADD12C,0.120000*%
%ADD13R,1.700000X1.700000*%
%ADD14O,1.700000X1.700000*%
%ADD15O,2.000000X5.000000*%
%ADD16C,2.700000*%
%ADD17C,1.620000*%
%ADD18O,1.100000X1.700000*%
%ADD19C,1.100000*%
%ADD20O,4.000000X5.000000*%
%ADD21FreePoly0,0.000000*%
%ADD22R,1.000000X1.500000*%
%ADD23FreePoly1,0.000000*%
%ADD24RoundRect,0.250000X-0.750000X0.600000X-0.750000X-0.600000X0.750000X-0.600000X0.750000X0.600000X0*%
%ADD25O,2.000000X1.700000*%
%ADD26RoundRect,0.150000X0.675000X0.150000X-0.675000X0.150000X-0.675000X-0.150000X0.675000X-0.150000X0*%
%ADD27C,1.700000*%
G04 APERTURE END LIST*
D10*
X115697000Y-129841761D02*
X115697000Y-130317952D01*
X115220809Y-130127476D02*
X115697000Y-130317952D01*
X116173190Y-130127476D01*
X115411285Y-130698904D02*
X115697000Y-130317952D01*
X115982714Y-130698904D01*
D11*
X126000000Y-104500000D02*
X126000000Y-105000000D01*
X129500000Y-85000000D02*
X129500000Y-86000000D01*
X137000000Y-88500000D02*
X137000000Y-98500000D01*
X129500000Y-79000000D02*
X129500000Y-80000000D01*
X137000000Y-76100000D02*
X137000000Y-70500000D01*
X129500000Y-73000000D02*
X129500000Y-74000000D01*
X126500000Y-105000000D02*
X126000000Y-105000000D01*
X135000000Y-105000000D02*
G75*
G03*
X135000000Y-105000000I-9000000J0D01*
G01*
X126000000Y-105000000D02*
X126000000Y-105500000D01*
X138000000Y-105000000D02*
G75*
G03*
X138000000Y-105000000I-12000000J0D01*
G01*
X125500000Y-105000000D02*
X126000000Y-105000000D01*
X137000000Y-113500000D02*
X137000000Y-139500000D01*
X137000000Y-88500000D02*
X137000000Y-82500000D01*
X121893214Y-127770000D02*
X121988452Y-127722380D01*
X122131309Y-127722380D01*
X122274166Y-127770000D01*
X122369404Y-127865238D01*
X122417023Y-127960476D01*
X122464642Y-128150952D01*
X122464642Y-128293809D01*
X122417023Y-128484285D01*
X122369404Y-128579523D01*
X122274166Y-128674761D01*
X122131309Y-128722380D01*
X122036071Y-128722380D01*
X121893214Y-128674761D01*
X121845595Y-128627142D01*
X121845595Y-128293809D01*
X122036071Y-128293809D01*
X121417023Y-128722380D02*
X121417023Y-127722380D01*
X120845595Y-128722380D01*
X120845595Y-127722380D01*
X120369404Y-128722380D02*
X120369404Y-127722380D01*
X120131309Y-127722380D01*
X119988452Y-127770000D01*
X119893214Y-127865238D01*
X119845595Y-127960476D01*
X119797976Y-128150952D01*
X119797976Y-128293809D01*
X119845595Y-128484285D01*
X119893214Y-128579523D01*
X119988452Y-128674761D01*
X120131309Y-128722380D01*
X120369404Y-128722380D01*
X114025142Y-125468095D02*
X114072761Y-125420476D01*
X114120380Y-125277619D01*
X114120380Y-125182380D01*
X114072761Y-125039523D01*
X113977523Y-124944285D01*
X113882285Y-124896666D01*
X113691809Y-124849047D01*
X113548952Y-124849047D01*
X113358476Y-124896666D01*
X113263238Y-124944285D01*
X113168000Y-125039523D01*
X113120380Y-125182380D01*
X113120380Y-125277619D01*
X113168000Y-125420476D01*
X113215619Y-125468095D01*
X113120380Y-125801428D02*
X114120380Y-126039523D01*
X113406095Y-126230000D01*
X114120380Y-126420476D01*
X113120380Y-126658571D01*
X122000833Y-126087142D02*
X122048452Y-126134761D01*
X122191309Y-126182380D01*
X122286547Y-126182380D01*
X122429404Y-126134761D01*
X122524642Y-126039523D01*
X122572261Y-125944285D01*
X122619880Y-125753809D01*
X122619880Y-125610952D01*
X122572261Y-125420476D01*
X122524642Y-125325238D01*
X122429404Y-125230000D01*
X122286547Y-125182380D01*
X122191309Y-125182380D01*
X122048452Y-125230000D01*
X122000833Y-125277619D01*
X121000833Y-126087142D02*
X121048452Y-126134761D01*
X121191309Y-126182380D01*
X121286547Y-126182380D01*
X121429404Y-126134761D01*
X121524642Y-126039523D01*
X121572261Y-125944285D01*
X121619880Y-125753809D01*
X121619880Y-125610952D01*
X121572261Y-125420476D01*
X121524642Y-125325238D01*
X121429404Y-125230000D01*
X121286547Y-125182380D01*
X121191309Y-125182380D01*
X121048452Y-125230000D01*
X121000833Y-125277619D01*
X120667500Y-125182380D02*
X120429404Y-126182380D01*
X120238928Y-125468095D01*
X120048452Y-126182380D01*
X119810357Y-125182380D01*
X113739428Y-127317619D02*
X113739428Y-128079523D01*
X114120380Y-127698571D02*
X113358476Y-127698571D01*
X114120380Y-128555714D02*
X113120380Y-128555714D01*
X113834666Y-128889047D01*
X113120380Y-129222380D01*
X114120380Y-129222380D01*
D10*
X130860761Y-103124000D02*
X131336952Y-103124000D01*
X131146476Y-102647809D02*
X131336952Y-103124000D01*
X131146476Y-103600190D01*
X131717904Y-102838285D02*
X131336952Y-103124000D01*
X131717904Y-103409714D01*
D11*
X122477023Y-123261428D02*
X121715119Y-123261428D01*
X122096071Y-123642380D02*
X122096071Y-122880476D01*
X120762738Y-122642380D02*
X121238928Y-122642380D01*
X121286547Y-123118571D01*
X121238928Y-123070952D01*
X121143690Y-123023333D01*
X120905595Y-123023333D01*
X120810357Y-123070952D01*
X120762738Y-123118571D01*
X120715119Y-123213809D01*
X120715119Y-123451904D01*
X120762738Y-123547142D01*
X120810357Y-123594761D01*
X120905595Y-123642380D01*
X121143690Y-123642380D01*
X121238928Y-123594761D01*
X121286547Y-123547142D01*
X120429404Y-122642380D02*
X120096071Y-123642380D01*
X119762738Y-122642380D01*
D10*
X125225000Y-125396761D02*
X125225000Y-125872952D01*
X125701190Y-125682476D02*
X125225000Y-125872952D01*
X124748809Y-125682476D01*
X125510714Y-126253904D02*
X125225000Y-125872952D01*
X124939285Y-126253904D01*
D11*
X129233333Y-99677380D02*
X129233333Y-100391666D01*
X129280952Y-100534523D01*
X129376190Y-100629761D01*
X129519047Y-100677380D01*
X129614285Y-100677380D01*
X128757142Y-100677380D02*
X128757142Y-99677380D01*
X128376190Y-99677380D01*
X128280952Y-99725000D01*
X128233333Y-99772619D01*
X128185714Y-99867857D01*
X128185714Y-100010714D01*
X128233333Y-100105952D01*
X128280952Y-100153571D01*
X128376190Y-100201190D01*
X128757142Y-100201190D01*
X127852380Y-99677380D02*
X127233333Y-99677380D01*
X127566666Y-100058333D01*
X127423809Y-100058333D01*
X127328571Y-100105952D01*
X127280952Y-100153571D01*
X127233333Y-100248809D01*
X127233333Y-100486904D01*
X127280952Y-100582142D01*
X127328571Y-100629761D01*
X127423809Y-100677380D01*
X127709523Y-100677380D01*
X127804761Y-100629761D01*
X127852380Y-100582142D01*
X113990380Y-134425476D02*
X112990380Y-134425476D01*
X113704666Y-134758809D01*
X112990380Y-135092142D01*
X113990380Y-135092142D01*
X113990380Y-136092142D02*
X113990380Y-135520714D01*
X113990380Y-135806428D02*
X112990380Y-135806428D01*
X113133238Y-135711190D01*
X113228476Y-135615952D01*
X113276095Y-135520714D01*
X124944380Y-130551666D02*
X125658666Y-130551666D01*
X125801523Y-130504047D01*
X125896761Y-130408809D01*
X125944380Y-130265952D01*
X125944380Y-130170714D01*
X125944380Y-131027857D02*
X124944380Y-131027857D01*
X124944380Y-131408809D01*
X124992000Y-131504047D01*
X125039619Y-131551666D01*
X125134857Y-131599285D01*
X125277714Y-131599285D01*
X125372952Y-131551666D01*
X125420571Y-131504047D01*
X125468190Y-131408809D01*
X125468190Y-131027857D01*
X125944380Y-132551666D02*
X125944380Y-131980238D01*
X125944380Y-132265952D02*
X124944380Y-132265952D01*
X125087238Y-132170714D01*
X125182476Y-132075476D01*
X125230095Y-131980238D01*
X126761904Y-101052380D02*
X126761904Y-101861904D01*
X126714285Y-101957142D01*
X126666666Y-102004761D01*
X126571428Y-102052380D01*
X126380952Y-102052380D01*
X126285714Y-102004761D01*
X126238095Y-101957142D01*
X126190476Y-101861904D01*
X126190476Y-101052380D01*
X125285714Y-101385714D02*
X125285714Y-102052380D01*
X125523809Y-101004761D02*
X125761904Y-101719047D01*
X125142857Y-101719047D01*
X142561904Y-82452380D02*
X142561904Y-83261904D01*
X142514285Y-83357142D01*
X142466666Y-83404761D01*
X142371428Y-83452380D01*
X142180952Y-83452380D01*
X142085714Y-83404761D01*
X142038095Y-83357142D01*
X141990476Y-83261904D01*
X141990476Y-82452380D01*
X140990476Y-83452380D02*
X141561904Y-83452380D01*
X141276190Y-83452380D02*
X141276190Y-82452380D01*
X141371428Y-82595238D01*
X141466666Y-82690476D01*
X141561904Y-82738095D01*
X117303333Y-120610380D02*
X117303333Y-121324666D01*
X117350952Y-121467523D01*
X117446190Y-121562761D01*
X117589047Y-121610380D01*
X117684285Y-121610380D01*
X116398571Y-120943714D02*
X116398571Y-121610380D01*
X116636666Y-120562761D02*
X116874761Y-121277047D01*
X116255714Y-121277047D01*
D12*
X127000000Y-99425000D02*
X129800000Y-99425000D01*
X130450000Y-98725000D02*
X130450000Y-98125000D01*
X129800000Y-97425000D02*
X127000000Y-97425000D01*
X126350000Y-98125000D02*
X126350000Y-98725000D01*
X126900000Y-96925000D02*
X127500000Y-96925000D01*
X127200000Y-97225000D02*
X127500000Y-96925000D01*
X127200000Y-97225000D02*
X126900000Y-96925000D01*
X129750000Y-99425000D02*
G75*
G03*
X130450000Y-98725000I0J700000D01*
G01*
X126350000Y-98725000D02*
G75*
G03*
X127050000Y-99425000I699999J-1D01*
G01*
X130450000Y-98125000D02*
G75*
G03*
X129750000Y-97425000I-700000J0D01*
G01*
X127050000Y-97425000D02*
G75*
G03*
X126350000Y-98125000I-1J-699999D01*
G01*
X114253000Y-139045000D02*
X114253000Y-131425000D01*
X114263000Y-131435000D02*
X115013000Y-131435000D01*
X114263000Y-139035000D02*
X114263000Y-137235000D01*
X115013000Y-137235000D02*
X115013000Y-139035000D01*
X114263000Y-134735000D02*
X115013000Y-134735000D01*
X115013000Y-131435000D02*
X115013000Y-133235000D01*
X113963000Y-131135000D02*
X115213000Y-131135000D01*
X115013000Y-133235000D02*
X114263000Y-133235000D01*
X115013000Y-134735000D02*
X115013000Y-135735000D01*
X120223000Y-131425000D02*
X120223000Y-139045000D01*
X113963000Y-132385000D02*
X113963000Y-131135000D01*
X119463000Y-138285000D02*
X119463000Y-135235000D01*
X114253000Y-131425000D02*
X120223000Y-131425000D01*
X116513000Y-131435000D02*
X116513000Y-132185000D01*
X115013000Y-135735000D02*
X114263000Y-135735000D01*
X119463000Y-132185000D02*
X119463000Y-135235000D01*
X116513000Y-139035000D02*
X116513000Y-138285000D01*
X115013000Y-139035000D02*
X114263000Y-139035000D01*
X116513000Y-132185000D02*
X119463000Y-132185000D01*
X114263000Y-135735000D02*
X114263000Y-134735000D01*
X114263000Y-133235000D02*
X114263000Y-131435000D01*
X120223000Y-139045000D02*
X114253000Y-139045000D01*
X116513000Y-138285000D02*
X119463000Y-138285000D01*
X114263000Y-137235000D02*
X115013000Y-137235000D01*
X129922000Y-137100000D02*
X130682000Y-137100000D01*
X128142000Y-128110000D02*
X128142000Y-128440000D01*
X126432000Y-131100000D02*
X126432000Y-128440000D01*
X128142000Y-137100000D02*
X128142000Y-131100000D01*
X127382000Y-137100000D02*
X128142000Y-137100000D01*
X129032000Y-128440000D02*
X129032000Y-131100000D01*
X130682000Y-128042929D02*
X130682000Y-128440000D01*
X129922000Y-128042929D02*
X129922000Y-128440000D01*
X127682000Y-131100000D02*
X127682000Y-137100000D01*
X127382000Y-131100000D02*
X127382000Y-137100000D01*
X127442000Y-131100000D02*
X127442000Y-137100000D01*
X127562000Y-131100000D02*
X127562000Y-137100000D01*
X126492000Y-125730000D02*
X126492000Y-127000000D01*
X127762000Y-125730000D02*
X126492000Y-125730000D01*
X131632000Y-131100000D02*
X126432000Y-131100000D01*
X131632000Y-128440000D02*
X131632000Y-131100000D01*
X129922000Y-131100000D02*
X129922000Y-137100000D01*
X128042000Y-131100000D02*
X128042000Y-137100000D01*
X130682000Y-137100000D02*
X130682000Y-131100000D01*
X127382000Y-128110000D02*
X127382000Y-128440000D01*
X126432000Y-128440000D02*
X131632000Y-128440000D01*
X127802000Y-131100000D02*
X127802000Y-137100000D01*
X127922000Y-131100000D02*
X127922000Y-137100000D01*
X126000000Y-107560000D02*
X124050000Y-107560000D01*
X126000000Y-102440000D02*
X129450000Y-102440000D01*
X126000000Y-107560000D02*
X127950000Y-107560000D01*
X126000000Y-102440000D02*
X124050000Y-102440000D01*
X137990000Y-82695000D02*
X138625000Y-83965000D01*
X144000000Y-77050000D02*
X144000000Y-81950000D01*
X137990000Y-76345000D02*
X138625000Y-75075000D01*
X139400000Y-81950000D02*
X144000000Y-81950000D01*
X137990000Y-82695000D02*
X137990000Y-85235000D01*
X134000000Y-77050000D02*
X135300000Y-77050000D01*
X132000000Y-70450000D02*
X132000000Y-88550000D01*
X134000000Y-88550000D02*
X134000000Y-84950000D01*
X134000000Y-81950000D02*
X135300000Y-81950000D01*
X137355000Y-75075000D02*
X137990000Y-76345000D01*
X134000000Y-70450000D02*
X132000000Y-70450000D01*
X133037000Y-79520000D02*
X132402000Y-79520000D01*
X139400000Y-77050000D02*
X144000000Y-77050000D01*
X134000000Y-88550000D02*
X132000000Y-88550000D01*
X137355000Y-83965000D02*
X137990000Y-82695000D01*
X134000000Y-70450000D02*
X134000000Y-74050000D01*
X137990000Y-73805000D02*
X137990000Y-76345000D01*
X139400000Y-81950000D02*
X144000000Y-81950000D01*
X114370000Y-128270000D02*
X114370000Y-129600000D01*
X116970000Y-127000000D02*
X116970000Y-129600000D01*
X114370000Y-127000000D02*
X116970000Y-127000000D01*
X114370000Y-129600000D02*
X115700000Y-129600000D01*
X114370000Y-121860000D02*
X119570000Y-121860000D01*
X116970000Y-129600000D02*
X119570000Y-129600000D01*
X119570000Y-129600000D02*
X119570000Y-121860000D01*
X114370000Y-127000000D02*
X114370000Y-121860000D01*
%LPC*%
D13*
X115700000Y-118745000D03*
D14*
X115700000Y-116205000D03*
X118240000Y-118745000D03*
X118240000Y-116205000D03*
D15*
X130500000Y-82500000D03*
D13*
X125225000Y-123825000D03*
D14*
X127765000Y-123825000D03*
X130305000Y-123825000D03*
X132845000Y-123825000D03*
X135385000Y-123825000D03*
D16*
X141500000Y-73000000D03*
X141500000Y-86000000D03*
D17*
X140000000Y-101500000D03*
X142500000Y-104000000D03*
X140000000Y-106500000D03*
D18*
X143320000Y-133425500D03*
X134680000Y-133425500D03*
X143320000Y-137225500D03*
X134680000Y-137225500D03*
D17*
X140000000Y-110000000D03*
X142500000Y-112500000D03*
X140000000Y-115000000D03*
D16*
X141500000Y-96000000D03*
D19*
X115119000Y-98465000D03*
X115119000Y-103465000D03*
D15*
X130500000Y-76500000D03*
D13*
X127000000Y-75717400D03*
D14*
X127000000Y-78257400D03*
X127000000Y-80797400D03*
X127000000Y-83337400D03*
D20*
X138000000Y-79500000D03*
D16*
X141500000Y-124000000D03*
D21*
X127100000Y-98425000D03*
D22*
X128400000Y-98425000D03*
D23*
X129700000Y-98425000D03*
D24*
X116713000Y-133985000D03*
D25*
X116713000Y-136485000D03*
D13*
X127762000Y-127000000D03*
D14*
X130302000Y-127000000D03*
D13*
X134191200Y-83312000D03*
D26*
X128625000Y-103095000D03*
X128625000Y-104365000D03*
X128625000Y-105635000D03*
X128625000Y-106905000D03*
X123375000Y-106905000D03*
X123375000Y-105635000D03*
X123375000Y-104365000D03*
X123375000Y-103095000D03*
D13*
X141800000Y-78250000D03*
D27*
X141800000Y-80790000D03*
X134180000Y-80790000D03*
X134180000Y-78250000D03*
D13*
X115700000Y-128270000D03*
D14*
X118240000Y-128270000D03*
X115700000Y-125730000D03*
X118240000Y-125730000D03*
X115700000Y-123190000D03*
X118240000Y-123190000D03*
D27*
X134191200Y-75717400D03*
M02*
