G04 #@! TF.GenerationSoftware,KiCad,Pcbnew,(6.0.10-0)*
G04 #@! TF.CreationDate,2023-11-26T23:42:56+09:00*
G04 #@! TF.ProjectId,AutoFeeder_Drum-type,4175746f-4665-4656-9465-725f4472756d,01*
G04 #@! TF.SameCoordinates,Original*
G04 #@! TF.FileFunction,Copper,L2,Bot*
G04 #@! TF.FilePolarity,Positive*
%FSLAX46Y46*%
G04 Gerber Fmt 4.6, Leading zero omitted, Abs format (unit mm)*
G04 Created by KiCad (PCBNEW (6.0.10-0)) date 2023-11-26 23:42:56*
%MOMM*%
%LPD*%
G01*
G04 APERTURE LIST*
G04 Aperture macros list*
%AMRoundRect*
0 Rectangle with rounded corners*
0 $1 Rounding radius*
0 $2 $3 $4 $5 $6 $7 $8 $9 X,Y pos of 4 corners*
0 Add a 4 corners polygon primitive as box body*
4,1,4,$2,$3,$4,$5,$6,$7,$8,$9,$2,$3,0*
0 Add four circle primitives for the rounded corners*
1,1,$1+$1,$2,$3*
1,1,$1+$1,$4,$5*
1,1,$1+$1,$6,$7*
1,1,$1+$1,$8,$9*
0 Add four rect primitives between the rounded corners*
20,1,$1+$1,$2,$3,$4,$5,0*
20,1,$1+$1,$4,$5,$6,$7,0*
20,1,$1+$1,$6,$7,$8,$9,0*
20,1,$1+$1,$8,$9,$2,$3,0*%
G04 Aperture macros list end*
G04 #@! TA.AperFunction,ComponentPad*
%ADD10R,1.700000X1.700000*%
G04 #@! TD*
G04 #@! TA.AperFunction,ComponentPad*
%ADD11O,1.700000X1.700000*%
G04 #@! TD*
G04 #@! TA.AperFunction,ComponentPad*
%ADD12C,1.440000*%
G04 #@! TD*
G04 #@! TA.AperFunction,ComponentPad*
%ADD13C,1.400000*%
G04 #@! TD*
G04 #@! TA.AperFunction,ComponentPad*
%ADD14O,1.100000X1.700000*%
G04 #@! TD*
G04 #@! TA.AperFunction,ComponentPad*
%ADD15RoundRect,0.250000X0.750000X-0.600000X0.750000X0.600000X-0.750000X0.600000X-0.750000X-0.600000X0*%
G04 #@! TD*
G04 #@! TA.AperFunction,ComponentPad*
%ADD16O,2.000000X1.700000*%
G04 #@! TD*
G04 #@! TA.AperFunction,ViaPad*
%ADD17C,0.800000*%
G04 #@! TD*
G04 #@! TA.AperFunction,Conductor*
%ADD18C,0.250000*%
G04 #@! TD*
G04 #@! TA.AperFunction,Conductor*
%ADD19C,0.400000*%
G04 #@! TD*
G04 APERTURE END LIST*
D10*
X138811000Y-82677000D03*
D11*
X141351000Y-82677000D03*
X138811000Y-85217000D03*
X141351000Y-85217000D03*
X138811000Y-87757000D03*
X141351000Y-87757000D03*
D10*
X149860000Y-70993000D03*
D11*
X152400000Y-70993000D03*
X149860000Y-73533000D03*
X152400000Y-73533000D03*
D12*
X153035000Y-62230000D03*
X150495000Y-64770000D03*
X153035000Y-67310000D03*
D13*
X141204000Y-78994000D03*
X138664000Y-78994000D03*
D10*
X146177000Y-76200000D03*
D11*
X146177000Y-78740000D03*
X146177000Y-81280000D03*
X146177000Y-83820000D03*
X146177000Y-86360000D03*
D14*
X139190000Y-66030000D03*
X139190000Y-62230000D03*
X147830000Y-62230000D03*
X147830000Y-66030000D03*
D15*
X153780000Y-136525000D03*
D16*
X153780000Y-134025000D03*
D17*
X156718000Y-117983000D03*
X165735000Y-60960000D03*
X156591000Y-98425000D03*
X161099000Y-66485000D03*
X145000000Y-65500000D03*
X161544000Y-63754000D03*
X141986000Y-65500000D03*
X139319000Y-74168000D03*
X142240000Y-77724000D03*
X156210000Y-72517000D03*
X155989232Y-80216445D03*
X156845000Y-86360000D03*
X161470000Y-62050000D03*
X151473500Y-84455000D03*
X153035000Y-125730000D03*
X147955000Y-87630000D03*
X152400000Y-127000000D03*
X153580202Y-84036798D03*
X153697836Y-85443164D03*
X155575000Y-96520000D03*
X155575000Y-90805000D03*
X148556879Y-80041498D03*
X144907000Y-82550000D03*
X156228750Y-76835000D03*
X156337000Y-82296000D03*
X149925000Y-78105000D03*
X156210000Y-125730000D03*
X151676000Y-117475000D03*
D18*
X147955000Y-87630000D02*
X150495000Y-87630000D01*
X150495000Y-87630000D02*
X151765000Y-88900000D01*
X151765000Y-116078000D02*
X152400500Y-116713500D01*
X152400500Y-116713500D02*
X152400500Y-125339195D01*
X151765000Y-88900000D02*
X151765000Y-116078000D01*
X152310000Y-125429695D02*
X152310000Y-126910000D01*
X152400500Y-125339195D02*
X152310000Y-125429695D01*
X152310000Y-126910000D02*
X152400000Y-127000000D01*
X142240000Y-77724000D02*
X144653000Y-77724000D01*
X144653000Y-77724000D02*
X146177000Y-76200000D01*
X155448000Y-73279000D02*
X156210000Y-72517000D01*
X155989232Y-78265232D02*
X155448000Y-77724000D01*
X155989232Y-80216445D02*
X155989232Y-78265232D01*
X155448000Y-77724000D02*
X155448000Y-73279000D01*
X157353000Y-66167000D02*
X161470000Y-62050000D01*
X156845000Y-86360000D02*
X157353000Y-85852000D01*
X157353000Y-85852000D02*
X157353000Y-66167000D01*
X151473500Y-87252625D02*
X151473500Y-84455000D01*
X153035000Y-116205000D02*
X152400000Y-115570000D01*
X152400000Y-115570000D02*
X152400000Y-88179125D01*
X153035000Y-125730000D02*
X153035000Y-116205000D01*
X152400000Y-88179125D02*
X151473500Y-87252625D01*
X153220000Y-83676596D02*
X153580202Y-84036798D01*
X153220000Y-74353000D02*
X153220000Y-83676596D01*
X152400000Y-73533000D02*
X153220000Y-74353000D01*
X154305202Y-84835798D02*
X154305202Y-81661202D01*
X153670000Y-81026000D02*
X153670000Y-72898000D01*
X153035000Y-72263000D02*
X151130000Y-72263000D01*
X153670000Y-72898000D02*
X153035000Y-72263000D01*
X153697836Y-85443164D02*
X154305202Y-84835798D01*
X154305202Y-81661202D02*
X153670000Y-81026000D01*
X151130000Y-72263000D02*
X149860000Y-73533000D01*
X155575000Y-90805000D02*
X155575000Y-96520000D01*
X141351000Y-80010000D02*
X138811000Y-82550000D01*
X148525381Y-80010000D02*
X141351000Y-80010000D01*
X148556879Y-80041498D02*
X148525381Y-80010000D01*
X138811000Y-82550000D02*
X138811000Y-82677000D01*
X144907000Y-82550000D02*
X141478000Y-82550000D01*
X141478000Y-82550000D02*
X141351000Y-82677000D01*
X156845000Y-77451250D02*
X156228750Y-76835000D01*
X156337000Y-82296000D02*
X156845000Y-81788000D01*
X156845000Y-81788000D02*
X156845000Y-77451250D01*
D19*
X146812000Y-78105000D02*
X149925000Y-78105000D01*
X146177000Y-78740000D02*
X144145000Y-78740000D01*
X144145000Y-78740000D02*
X143891000Y-78994000D01*
X146177000Y-78740000D02*
X146812000Y-78105000D01*
X143891000Y-78994000D02*
X141204000Y-78994000D01*
X156210000Y-134095000D02*
X153780000Y-136525000D01*
X156210000Y-125730000D02*
X156210000Y-134095000D01*
X151676000Y-117475000D02*
X151130000Y-116929000D01*
X150495000Y-88900000D02*
X145161000Y-88900000D01*
X145161000Y-88900000D02*
X141478000Y-85217000D01*
X141478000Y-85217000D02*
X141351000Y-85217000D01*
X151130000Y-116929000D02*
X151130000Y-89535000D01*
X151130000Y-89535000D02*
X150495000Y-88900000D01*
G04 #@! TA.AperFunction,Conductor*
G36*
X167433621Y-60528502D02*
G01*
X167480114Y-60582158D01*
X167491500Y-60634500D01*
X167491500Y-69237183D01*
X167471498Y-69305304D01*
X167454595Y-69326278D01*
X167326278Y-69454595D01*
X167263966Y-69488621D01*
X167237183Y-69491500D01*
X159008623Y-69491500D01*
X159007853Y-69491498D01*
X159007037Y-69491493D01*
X158930279Y-69491024D01*
X158907918Y-69497415D01*
X158901847Y-69499150D01*
X158885085Y-69502728D01*
X158855813Y-69506920D01*
X158847645Y-69510634D01*
X158847644Y-69510634D01*
X158832438Y-69517548D01*
X158814914Y-69523996D01*
X158790229Y-69531051D01*
X158782635Y-69535843D01*
X158782632Y-69535844D01*
X158765220Y-69546830D01*
X158750137Y-69554969D01*
X158723218Y-69567208D01*
X158716416Y-69573069D01*
X158703765Y-69583970D01*
X158688761Y-69595073D01*
X158667042Y-69608776D01*
X158661103Y-69615501D01*
X158661099Y-69615504D01*
X158647468Y-69630938D01*
X158635276Y-69642982D01*
X158619673Y-69656427D01*
X158619671Y-69656430D01*
X158612873Y-69662287D01*
X158607993Y-69669816D01*
X158607992Y-69669817D01*
X158598906Y-69683835D01*
X158587615Y-69698709D01*
X158576569Y-69711217D01*
X158570622Y-69717951D01*
X158560858Y-69738747D01*
X158558058Y-69744711D01*
X158549737Y-69759691D01*
X158538529Y-69776983D01*
X158538527Y-69776988D01*
X158533648Y-69784515D01*
X158531078Y-69793108D01*
X158531076Y-69793113D01*
X158526289Y-69809120D01*
X158519628Y-69826564D01*
X158512533Y-69841676D01*
X158508719Y-69849800D01*
X158507338Y-69858667D01*
X158507338Y-69858668D01*
X158504170Y-69879015D01*
X158500387Y-69895732D01*
X158494485Y-69915466D01*
X158494484Y-69915472D01*
X158491914Y-69924066D01*
X158491859Y-69933037D01*
X158491859Y-69933038D01*
X158491704Y-69958497D01*
X158491671Y-69959289D01*
X158491500Y-69960386D01*
X158491500Y-69991377D01*
X158491498Y-69992147D01*
X158491296Y-70025285D01*
X158491024Y-70069721D01*
X158491408Y-70071065D01*
X158491500Y-70072410D01*
X158491500Y-105919000D01*
X158471498Y-105987121D01*
X158417842Y-106033614D01*
X158365500Y-106045000D01*
X154423000Y-106045000D01*
X154354879Y-106024998D01*
X154308386Y-105971342D01*
X154297000Y-105919000D01*
X154297000Y-96520000D01*
X154661496Y-96520000D01*
X154681458Y-96709928D01*
X154740473Y-96891556D01*
X154835960Y-97056944D01*
X154963747Y-97198866D01*
X155118248Y-97311118D01*
X155124276Y-97313802D01*
X155124278Y-97313803D01*
X155286681Y-97386109D01*
X155292712Y-97388794D01*
X155386112Y-97408647D01*
X155473056Y-97427128D01*
X155473061Y-97427128D01*
X155479513Y-97428500D01*
X155670487Y-97428500D01*
X155676939Y-97427128D01*
X155676944Y-97427128D01*
X155763888Y-97408647D01*
X155857288Y-97388794D01*
X155863319Y-97386109D01*
X156025722Y-97313803D01*
X156025724Y-97313802D01*
X156031752Y-97311118D01*
X156186253Y-97198866D01*
X156314040Y-97056944D01*
X156409527Y-96891556D01*
X156468542Y-96709928D01*
X156488504Y-96520000D01*
X156468542Y-96330072D01*
X156409527Y-96148444D01*
X156314040Y-95983056D01*
X156240863Y-95901785D01*
X156210147Y-95837779D01*
X156208500Y-95817476D01*
X156208500Y-91507524D01*
X156228502Y-91439403D01*
X156240858Y-91423221D01*
X156314040Y-91341944D01*
X156409527Y-91176556D01*
X156468542Y-90994928D01*
X156488504Y-90805000D01*
X156468542Y-90615072D01*
X156409527Y-90433444D01*
X156314040Y-90268056D01*
X156186253Y-90126134D01*
X156031752Y-90013882D01*
X156025724Y-90011198D01*
X156025722Y-90011197D01*
X155863319Y-89938891D01*
X155863318Y-89938891D01*
X155857288Y-89936206D01*
X155763888Y-89916353D01*
X155676944Y-89897872D01*
X155676939Y-89897872D01*
X155670487Y-89896500D01*
X155479513Y-89896500D01*
X155473061Y-89897872D01*
X155473056Y-89897872D01*
X155386112Y-89916353D01*
X155292712Y-89936206D01*
X155286682Y-89938891D01*
X155286681Y-89938891D01*
X155124278Y-90011197D01*
X155124276Y-90011198D01*
X155118248Y-90013882D01*
X154963747Y-90126134D01*
X154835960Y-90268056D01*
X154740473Y-90433444D01*
X154681458Y-90615072D01*
X154661496Y-90805000D01*
X154681458Y-90994928D01*
X154740473Y-91176556D01*
X154835960Y-91341944D01*
X154909137Y-91423215D01*
X154939853Y-91487221D01*
X154941500Y-91507524D01*
X154941500Y-95817476D01*
X154921498Y-95885597D01*
X154909142Y-95901779D01*
X154835960Y-95983056D01*
X154740473Y-96148444D01*
X154681458Y-96330072D01*
X154661496Y-96520000D01*
X154297000Y-96520000D01*
X154297000Y-89000000D01*
X153670000Y-89000000D01*
X153670000Y-106680000D01*
X158365500Y-106680000D01*
X158433621Y-106700002D01*
X158480114Y-106753658D01*
X158491500Y-106806000D01*
X158491500Y-139237183D01*
X158471498Y-139305304D01*
X158454595Y-139326278D01*
X158326278Y-139454595D01*
X158263966Y-139488621D01*
X158237183Y-139491500D01*
X151262817Y-139491500D01*
X151194696Y-139471498D01*
X151173722Y-139454595D01*
X151045405Y-139326278D01*
X151011379Y-139263966D01*
X151008500Y-139237183D01*
X151008500Y-133960774D01*
X152268102Y-133960774D01*
X152276751Y-134191158D01*
X152324093Y-134416791D01*
X152326051Y-134421750D01*
X152326052Y-134421752D01*
X152402943Y-134616450D01*
X152408776Y-134631221D01*
X152528377Y-134828317D01*
X152679477Y-135002445D01*
X152715120Y-135031670D01*
X152755114Y-135090329D01*
X152757046Y-135161299D01*
X152720302Y-135222048D01*
X152701532Y-135236248D01*
X152570579Y-135317285D01*
X152555652Y-135326522D01*
X152430695Y-135451697D01*
X152337885Y-135602262D01*
X152282203Y-135770139D01*
X152271500Y-135874600D01*
X152271500Y-137175400D01*
X152282474Y-137281166D01*
X152338450Y-137448946D01*
X152431522Y-137599348D01*
X152556697Y-137724305D01*
X152562927Y-137728145D01*
X152562928Y-137728146D01*
X152700090Y-137812694D01*
X152707262Y-137817115D01*
X152787005Y-137843564D01*
X152868611Y-137870632D01*
X152868613Y-137870632D01*
X152875139Y-137872797D01*
X152881975Y-137873497D01*
X152881978Y-137873498D01*
X152925031Y-137877909D01*
X152979600Y-137883500D01*
X154580400Y-137883500D01*
X154583646Y-137883163D01*
X154583650Y-137883163D01*
X154679308Y-137873238D01*
X154679312Y-137873237D01*
X154686166Y-137872526D01*
X154692702Y-137870345D01*
X154692704Y-137870345D01*
X154824806Y-137826272D01*
X154853946Y-137816550D01*
X155004348Y-137723478D01*
X155129305Y-137598303D01*
X155222115Y-137447738D01*
X155277797Y-137279861D01*
X155288500Y-137175400D01*
X155288500Y-136070660D01*
X155308502Y-136002539D01*
X155325405Y-135981565D01*
X156690520Y-134616450D01*
X156696785Y-134610596D01*
X156697238Y-134610201D01*
X156740385Y-134572561D01*
X156777129Y-134520280D01*
X156781061Y-134514986D01*
X156815791Y-134470693D01*
X156820476Y-134464718D01*
X156823599Y-134457802D01*
X156824983Y-134455516D01*
X156833357Y-134440835D01*
X156834622Y-134438475D01*
X156838990Y-134432261D01*
X156845022Y-134416791D01*
X156862202Y-134372725D01*
X156864759Y-134366642D01*
X156887918Y-134315352D01*
X156891045Y-134308427D01*
X156892429Y-134300960D01*
X156893230Y-134298405D01*
X156897859Y-134282152D01*
X156898522Y-134279572D01*
X156901282Y-134272491D01*
X156909622Y-134209139D01*
X156910653Y-134202632D01*
X156911813Y-134196377D01*
X156922296Y-134139814D01*
X156918709Y-134077608D01*
X156918500Y-134070354D01*
X156918500Y-126348744D01*
X156938502Y-126280623D01*
X156942564Y-126274683D01*
X156944621Y-126271852D01*
X156949040Y-126266944D01*
X157044527Y-126101556D01*
X157103542Y-125919928D01*
X157123504Y-125730000D01*
X157103542Y-125540072D01*
X157044527Y-125358444D01*
X157039459Y-125349665D01*
X156987334Y-125259383D01*
X156949040Y-125193056D01*
X156821253Y-125051134D01*
X156666752Y-124938882D01*
X156660724Y-124936198D01*
X156660722Y-124936197D01*
X156498319Y-124863891D01*
X156498318Y-124863891D01*
X156492288Y-124861206D01*
X156398888Y-124841353D01*
X156311944Y-124822872D01*
X156311939Y-124822872D01*
X156305487Y-124821500D01*
X156114513Y-124821500D01*
X156108061Y-124822872D01*
X156108056Y-124822872D01*
X156021112Y-124841353D01*
X155927712Y-124861206D01*
X155921682Y-124863891D01*
X155921681Y-124863891D01*
X155759278Y-124936197D01*
X155759276Y-124936198D01*
X155753248Y-124938882D01*
X155598747Y-125051134D01*
X155470960Y-125193056D01*
X155432666Y-125259383D01*
X155380542Y-125349665D01*
X155375473Y-125358444D01*
X155316458Y-125540072D01*
X155296496Y-125730000D01*
X155316458Y-125919928D01*
X155375473Y-126101556D01*
X155470960Y-126266944D01*
X155475379Y-126271852D01*
X155477436Y-126274683D01*
X155501295Y-126341551D01*
X155501500Y-126348744D01*
X155501500Y-133684916D01*
X155481498Y-133753037D01*
X155427842Y-133799530D01*
X155357568Y-133809634D01*
X155292988Y-133780140D01*
X155254604Y-133720414D01*
X155252185Y-133710790D01*
X155237002Y-133638428D01*
X155235907Y-133633209D01*
X155151224Y-133418779D01*
X155031623Y-133221683D01*
X154944755Y-133121576D01*
X154884023Y-133051588D01*
X154884021Y-133051586D01*
X154880523Y-133047555D01*
X154838970Y-133013484D01*
X154706373Y-132904760D01*
X154706367Y-132904756D01*
X154702245Y-132901376D01*
X154697609Y-132898737D01*
X154697606Y-132898735D01*
X154506529Y-132789968D01*
X154501886Y-132787325D01*
X154285175Y-132708663D01*
X154279926Y-132707714D01*
X154279923Y-132707713D01*
X154062392Y-132668377D01*
X154062385Y-132668376D01*
X154058308Y-132667639D01*
X154040586Y-132666803D01*
X154035644Y-132666570D01*
X154035637Y-132666570D01*
X154034156Y-132666500D01*
X153572110Y-132666500D01*
X153505191Y-132672178D01*
X153405591Y-132680629D01*
X153405587Y-132680630D01*
X153400280Y-132681080D01*
X153395125Y-132682418D01*
X153395119Y-132682419D01*
X153182297Y-132737657D01*
X153182293Y-132737658D01*
X153177128Y-132738999D01*
X153172262Y-132741191D01*
X153172259Y-132741192D01*
X153063980Y-132789968D01*
X152966925Y-132833688D01*
X152775681Y-132962441D01*
X152608865Y-133121576D01*
X152471246Y-133306542D01*
X152366760Y-133512051D01*
X152365178Y-133517145D01*
X152365177Y-133517148D01*
X152313084Y-133684916D01*
X152298393Y-133732227D01*
X152268102Y-133960774D01*
X151008500Y-133960774D01*
X151008500Y-118360289D01*
X151028502Y-118292168D01*
X151082158Y-118245675D01*
X151152432Y-118235571D01*
X151208562Y-118258354D01*
X151219248Y-118266118D01*
X151225276Y-118268802D01*
X151225278Y-118268803D01*
X151387681Y-118341109D01*
X151393712Y-118343794D01*
X151487112Y-118363647D01*
X151574056Y-118382128D01*
X151574061Y-118382128D01*
X151580513Y-118383500D01*
X151641000Y-118383500D01*
X151709121Y-118403502D01*
X151755614Y-118457158D01*
X151767000Y-118509500D01*
X151767000Y-125063276D01*
X151756637Y-125113316D01*
X151742826Y-125145232D01*
X151737609Y-125155882D01*
X151716305Y-125194635D01*
X151714334Y-125202310D01*
X151714334Y-125202311D01*
X151711267Y-125214257D01*
X151704863Y-125232961D01*
X151696819Y-125251550D01*
X151695580Y-125259373D01*
X151695577Y-125259383D01*
X151689901Y-125295219D01*
X151687495Y-125306839D01*
X151676500Y-125349665D01*
X151676500Y-125369919D01*
X151674949Y-125389629D01*
X151671780Y-125409638D01*
X151672526Y-125417530D01*
X151675941Y-125453656D01*
X151676500Y-125465514D01*
X151676500Y-126402379D01*
X151659619Y-126465378D01*
X151565473Y-126628444D01*
X151506458Y-126810072D01*
X151486496Y-127000000D01*
X151506458Y-127189928D01*
X151565473Y-127371556D01*
X151660960Y-127536944D01*
X151788747Y-127678866D01*
X151943248Y-127791118D01*
X151949276Y-127793802D01*
X151949278Y-127793803D01*
X152111681Y-127866109D01*
X152117712Y-127868794D01*
X152211112Y-127888647D01*
X152298056Y-127907128D01*
X152298061Y-127907128D01*
X152304513Y-127908500D01*
X152495487Y-127908500D01*
X152501939Y-127907128D01*
X152501944Y-127907128D01*
X152588888Y-127888647D01*
X152682288Y-127868794D01*
X152688319Y-127866109D01*
X152850722Y-127793803D01*
X152850724Y-127793802D01*
X152856752Y-127791118D01*
X153011253Y-127678866D01*
X153139040Y-127536944D01*
X153234527Y-127371556D01*
X153293542Y-127189928D01*
X153313504Y-127000000D01*
X153293542Y-126810072D01*
X153271629Y-126742630D01*
X153269602Y-126671662D01*
X153306264Y-126610864D01*
X153340214Y-126588587D01*
X153485719Y-126523805D01*
X153485726Y-126523801D01*
X153491752Y-126521118D01*
X153646253Y-126408866D01*
X153743500Y-126300862D01*
X153769621Y-126271852D01*
X153769622Y-126271851D01*
X153774040Y-126266944D01*
X153869527Y-126101556D01*
X153928542Y-125919928D01*
X153948504Y-125730000D01*
X153928542Y-125540072D01*
X153869527Y-125358444D01*
X153864459Y-125349665D01*
X153812334Y-125259383D01*
X153774040Y-125193056D01*
X153700863Y-125111785D01*
X153670147Y-125047779D01*
X153668500Y-125027476D01*
X153668500Y-116283768D01*
X153669027Y-116272585D01*
X153670702Y-116265092D01*
X153668562Y-116197001D01*
X153668500Y-116193044D01*
X153668500Y-116165144D01*
X153667996Y-116161153D01*
X153667063Y-116149311D01*
X153665923Y-116113036D01*
X153665674Y-116105111D01*
X153660021Y-116085652D01*
X153656012Y-116066293D01*
X153655846Y-116064983D01*
X153653474Y-116046203D01*
X153650558Y-116038837D01*
X153650556Y-116038831D01*
X153637200Y-116005098D01*
X153633355Y-115993868D01*
X153623230Y-115959017D01*
X153623230Y-115959016D01*
X153621019Y-115951407D01*
X153610705Y-115933966D01*
X153602008Y-115916213D01*
X153597472Y-115904758D01*
X153594552Y-115897383D01*
X153568563Y-115861612D01*
X153562047Y-115851692D01*
X153543578Y-115820463D01*
X153539542Y-115813638D01*
X153525221Y-115799317D01*
X153512380Y-115784283D01*
X153505132Y-115774307D01*
X153500472Y-115767893D01*
X153466407Y-115739712D01*
X153457626Y-115731722D01*
X153070404Y-115344499D01*
X153036379Y-115282187D01*
X153033500Y-115255404D01*
X153033500Y-113101206D01*
X153053502Y-113033085D01*
X153107158Y-112986592D01*
X153177432Y-112976488D01*
X153242012Y-113005982D01*
X153255311Y-113019375D01*
X153359102Y-113140898D01*
X153551624Y-113305328D01*
X153767498Y-113437616D01*
X153772068Y-113439509D01*
X153772072Y-113439511D01*
X153996836Y-113532611D01*
X154001409Y-113534505D01*
X154086032Y-113554821D01*
X154242784Y-113592454D01*
X154242790Y-113592455D01*
X154247597Y-113593609D01*
X154347416Y-113601465D01*
X154434345Y-113608307D01*
X154434352Y-113608307D01*
X154436801Y-113608500D01*
X154563199Y-113608500D01*
X154565648Y-113608307D01*
X154565655Y-113608307D01*
X154652584Y-113601465D01*
X154752403Y-113593609D01*
X154757210Y-113592455D01*
X154757216Y-113592454D01*
X154913968Y-113554821D01*
X154998591Y-113534505D01*
X155003164Y-113532611D01*
X155227928Y-113439511D01*
X155227932Y-113439509D01*
X155232502Y-113437616D01*
X155448376Y-113305328D01*
X155640898Y-113140898D01*
X155805328Y-112948376D01*
X155937616Y-112732502D01*
X156034505Y-112498591D01*
X156093609Y-112252403D01*
X156113474Y-112000000D01*
X156093609Y-111747597D01*
X156034505Y-111501409D01*
X155937616Y-111267498D01*
X155805328Y-111051624D01*
X155640898Y-110859102D01*
X155448376Y-110694672D01*
X155232502Y-110562384D01*
X155227932Y-110560491D01*
X155227928Y-110560489D01*
X155003164Y-110467389D01*
X155003162Y-110467388D01*
X154998591Y-110465495D01*
X154913968Y-110445179D01*
X154757216Y-110407546D01*
X154757210Y-110407545D01*
X154752403Y-110406391D01*
X154652584Y-110398535D01*
X154565655Y-110391693D01*
X154565648Y-110391693D01*
X154563199Y-110391500D01*
X154436801Y-110391500D01*
X154434352Y-110391693D01*
X154434345Y-110391693D01*
X154347416Y-110398535D01*
X154247597Y-110406391D01*
X154242790Y-110407545D01*
X154242784Y-110407546D01*
X154086032Y-110445179D01*
X154001409Y-110465495D01*
X153996838Y-110467388D01*
X153996836Y-110467389D01*
X153772072Y-110560489D01*
X153772068Y-110560491D01*
X153767498Y-110562384D01*
X153551624Y-110694672D01*
X153359102Y-110859102D01*
X153355894Y-110862858D01*
X153255311Y-110980625D01*
X153195860Y-111019434D01*
X153124865Y-111019940D01*
X153064867Y-110981984D01*
X153034914Y-110917615D01*
X153033500Y-110898794D01*
X153033500Y-88257892D01*
X153034027Y-88246709D01*
X153035702Y-88239216D01*
X153033562Y-88171125D01*
X153033500Y-88167168D01*
X153033500Y-88139269D01*
X153032996Y-88135278D01*
X153032063Y-88123436D01*
X153030923Y-88087161D01*
X153030674Y-88079236D01*
X153028462Y-88071622D01*
X153028461Y-88071617D01*
X153025023Y-88059784D01*
X153021012Y-88040420D01*
X153019467Y-88028189D01*
X153018474Y-88020328D01*
X153015557Y-88012961D01*
X153015556Y-88012956D01*
X153002198Y-87979217D01*
X152998354Y-87967990D01*
X152993640Y-87951767D01*
X152986018Y-87925532D01*
X152975707Y-87908097D01*
X152967012Y-87890349D01*
X152959552Y-87871508D01*
X152933564Y-87835738D01*
X152927048Y-87825818D01*
X152908580Y-87794590D01*
X152908578Y-87794587D01*
X152904542Y-87787763D01*
X152890221Y-87773442D01*
X152877380Y-87758408D01*
X152870131Y-87748431D01*
X152865472Y-87742018D01*
X152859367Y-87736967D01*
X152859362Y-87736962D01*
X152831396Y-87713826D01*
X152822618Y-87705838D01*
X152143905Y-87027125D01*
X152109879Y-86964813D01*
X152107000Y-86938030D01*
X152107000Y-85157524D01*
X152127002Y-85089403D01*
X152139358Y-85073221D01*
X152212540Y-84991944D01*
X152308027Y-84826556D01*
X152367042Y-84644928D01*
X152374120Y-84577590D01*
X152386314Y-84461565D01*
X152387004Y-84455000D01*
X152373493Y-84326453D01*
X152367732Y-84271635D01*
X152367732Y-84271633D01*
X152367042Y-84265072D01*
X152308027Y-84083444D01*
X152280347Y-84035500D01*
X152239865Y-83965384D01*
X152212540Y-83918056D01*
X152192359Y-83895642D01*
X152089175Y-83781045D01*
X152089174Y-83781044D01*
X152084753Y-83776134D01*
X151930252Y-83663882D01*
X151924224Y-83661198D01*
X151924222Y-83661197D01*
X151761819Y-83588891D01*
X151761818Y-83588891D01*
X151755788Y-83586206D01*
X151634800Y-83560489D01*
X151575444Y-83547872D01*
X151575439Y-83547872D01*
X151568987Y-83546500D01*
X151378013Y-83546500D01*
X151371561Y-83547872D01*
X151371556Y-83547872D01*
X151312200Y-83560489D01*
X151191212Y-83586206D01*
X151185182Y-83588891D01*
X151185181Y-83588891D01*
X151022778Y-83661197D01*
X151022776Y-83661198D01*
X151016748Y-83663882D01*
X150862247Y-83776134D01*
X150857826Y-83781044D01*
X150857825Y-83781045D01*
X150754642Y-83895642D01*
X150734460Y-83918056D01*
X150707135Y-83965384D01*
X150666654Y-84035500D01*
X150638973Y-84083444D01*
X150579958Y-84265072D01*
X150579268Y-84271633D01*
X150579268Y-84271635D01*
X150573507Y-84326453D01*
X150559996Y-84455000D01*
X150560686Y-84461565D01*
X150572881Y-84577590D01*
X150579958Y-84644928D01*
X150638973Y-84826556D01*
X150734460Y-84991944D01*
X150807637Y-85073215D01*
X150838353Y-85137221D01*
X150840000Y-85157524D01*
X150840000Y-86898513D01*
X150819998Y-86966634D01*
X150766342Y-87013127D01*
X150696068Y-87023231D01*
X150679876Y-87019732D01*
X150673145Y-87016819D01*
X150665321Y-87015580D01*
X150665315Y-87015578D01*
X150629476Y-87009901D01*
X150617856Y-87007495D01*
X150582711Y-86998472D01*
X150582710Y-86998472D01*
X150575030Y-86996500D01*
X150554776Y-86996500D01*
X150535065Y-86994949D01*
X150522886Y-86993020D01*
X150515057Y-86991780D01*
X150507165Y-86992526D01*
X150471039Y-86995941D01*
X150459181Y-86996500D01*
X148663200Y-86996500D01*
X148595079Y-86976498D01*
X148575853Y-86960157D01*
X148575580Y-86960460D01*
X148570668Y-86956037D01*
X148566253Y-86951134D01*
X148500557Y-86903403D01*
X148417094Y-86842763D01*
X148417093Y-86842762D01*
X148411752Y-86838882D01*
X148405724Y-86836198D01*
X148405722Y-86836197D01*
X148243319Y-86763891D01*
X148243318Y-86763891D01*
X148237288Y-86761206D01*
X148124721Y-86737279D01*
X148056944Y-86722872D01*
X148056939Y-86722872D01*
X148050487Y-86721500D01*
X147859513Y-86721500D01*
X147853061Y-86722872D01*
X147853056Y-86722872D01*
X147783604Y-86737635D01*
X147674604Y-86760804D01*
X147674601Y-86760804D01*
X147672712Y-86761206D01*
X147672639Y-86760860D01*
X147605363Y-86762781D01*
X147544566Y-86726116D01*
X147513243Y-86662403D01*
X147512476Y-86624474D01*
X147513184Y-86619101D01*
X147538529Y-86426590D01*
X147538611Y-86423240D01*
X147540074Y-86363365D01*
X147540074Y-86363361D01*
X147540156Y-86360000D01*
X147521852Y-86137361D01*
X147467431Y-85920702D01*
X147378354Y-85715840D01*
X147315994Y-85619446D01*
X147259822Y-85532617D01*
X147259820Y-85532614D01*
X147257014Y-85528277D01*
X147106670Y-85363051D01*
X147102619Y-85359852D01*
X147102615Y-85359848D01*
X146935414Y-85227800D01*
X146935410Y-85227798D01*
X146931359Y-85224598D01*
X146890053Y-85201796D01*
X146840084Y-85151364D01*
X146825312Y-85081921D01*
X146850428Y-85015516D01*
X146877780Y-84988909D01*
X146930670Y-84951183D01*
X147056860Y-84861173D01*
X147215096Y-84703489D01*
X147274594Y-84620689D01*
X147342435Y-84526277D01*
X147345453Y-84522077D01*
X147378605Y-84455000D01*
X147442136Y-84326453D01*
X147442137Y-84326451D01*
X147444430Y-84321811D01*
X147483101Y-84194530D01*
X147507865Y-84113023D01*
X147507865Y-84113021D01*
X147509370Y-84108069D01*
X147538529Y-83886590D01*
X147538615Y-83883081D01*
X147540074Y-83823365D01*
X147540074Y-83823361D01*
X147540156Y-83820000D01*
X147521852Y-83597361D01*
X147467431Y-83380702D01*
X147378354Y-83175840D01*
X147257014Y-82988277D01*
X147106670Y-82823051D01*
X147102619Y-82819852D01*
X147102615Y-82819848D01*
X146935414Y-82687800D01*
X146935410Y-82687798D01*
X146931359Y-82684598D01*
X146890053Y-82661796D01*
X146840084Y-82611364D01*
X146825312Y-82541921D01*
X146850428Y-82475516D01*
X146877780Y-82448909D01*
X146921603Y-82417650D01*
X147056860Y-82321173D01*
X147215096Y-82163489D01*
X147345453Y-81982077D01*
X147376766Y-81918721D01*
X147442136Y-81786453D01*
X147442137Y-81786451D01*
X147444430Y-81781811D01*
X147494379Y-81617411D01*
X147507865Y-81573023D01*
X147507865Y-81573021D01*
X147509370Y-81568069D01*
X147538529Y-81346590D01*
X147539206Y-81318869D01*
X147540074Y-81283365D01*
X147540074Y-81283361D01*
X147540156Y-81280000D01*
X147521852Y-81057361D01*
X147467431Y-80840702D01*
X147458318Y-80819743D01*
X147449497Y-80749297D01*
X147480163Y-80685265D01*
X147540579Y-80647977D01*
X147573867Y-80643500D01*
X147820318Y-80643500D01*
X147888439Y-80663502D01*
X147913954Y-80685189D01*
X147914023Y-80685265D01*
X147945626Y-80720364D01*
X147967208Y-80736044D01*
X148074897Y-80814285D01*
X148100127Y-80832616D01*
X148106155Y-80835300D01*
X148106157Y-80835301D01*
X148240943Y-80895311D01*
X148274591Y-80910292D01*
X148367992Y-80930145D01*
X148454935Y-80948626D01*
X148454940Y-80948626D01*
X148461392Y-80949998D01*
X148652366Y-80949998D01*
X148658818Y-80948626D01*
X148658823Y-80948626D01*
X148745766Y-80930145D01*
X148839167Y-80910292D01*
X148872815Y-80895311D01*
X149007601Y-80835301D01*
X149007603Y-80835300D01*
X149013631Y-80832616D01*
X149038862Y-80814285D01*
X149143599Y-80738188D01*
X149168132Y-80720364D01*
X149219331Y-80663502D01*
X149291500Y-80583350D01*
X149291501Y-80583349D01*
X149295919Y-80578442D01*
X149391406Y-80413054D01*
X149450421Y-80231426D01*
X149460566Y-80134907D01*
X149469693Y-80048063D01*
X149470383Y-80041498D01*
X149457960Y-79923301D01*
X149451111Y-79858133D01*
X149451111Y-79858131D01*
X149450421Y-79851570D01*
X149391406Y-79669942D01*
X149295919Y-79504554D01*
X149214135Y-79413723D01*
X149172554Y-79367543D01*
X149172553Y-79367542D01*
X149168132Y-79362632D01*
X149013631Y-79250380D01*
X149007603Y-79247696D01*
X149007601Y-79247695D01*
X148845198Y-79175389D01*
X148845197Y-79175389D01*
X148839167Y-79172704D01*
X148745767Y-79152851D01*
X148658823Y-79134370D01*
X148658818Y-79134370D01*
X148652366Y-79132998D01*
X148461392Y-79132998D01*
X148454940Y-79134370D01*
X148454935Y-79134370D01*
X148367991Y-79152851D01*
X148274591Y-79172704D01*
X148268561Y-79175389D01*
X148268560Y-79175389D01*
X148106157Y-79247695D01*
X148106155Y-79247696D01*
X148100127Y-79250380D01*
X147978405Y-79338817D01*
X147959660Y-79352436D01*
X147892793Y-79376294D01*
X147885599Y-79376500D01*
X147573477Y-79376500D01*
X147505356Y-79356498D01*
X147458863Y-79302842D01*
X147448759Y-79232568D01*
X147452917Y-79213879D01*
X147509370Y-79028069D01*
X147523196Y-78923053D01*
X147551919Y-78858126D01*
X147611184Y-78819035D01*
X147648118Y-78813500D01*
X149313595Y-78813500D01*
X149381716Y-78833502D01*
X149387656Y-78837564D01*
X149468248Y-78896118D01*
X149474276Y-78898802D01*
X149474278Y-78898803D01*
X149528745Y-78923053D01*
X149642712Y-78973794D01*
X149712016Y-78988525D01*
X149823056Y-79012128D01*
X149823061Y-79012128D01*
X149829513Y-79013500D01*
X150020487Y-79013500D01*
X150026939Y-79012128D01*
X150026944Y-79012128D01*
X150137984Y-78988525D01*
X150207288Y-78973794D01*
X150321255Y-78923053D01*
X150375722Y-78898803D01*
X150375724Y-78898802D01*
X150381752Y-78896118D01*
X150536253Y-78783866D01*
X150664040Y-78641944D01*
X150759527Y-78476556D01*
X150818542Y-78294928D01*
X150838504Y-78105000D01*
X150826576Y-77991514D01*
X150819232Y-77921635D01*
X150819232Y-77921633D01*
X150818542Y-77915072D01*
X150759527Y-77733444D01*
X150754075Y-77724000D01*
X150667341Y-77573774D01*
X150664040Y-77568056D01*
X150536253Y-77426134D01*
X150426951Y-77346721D01*
X150387094Y-77317763D01*
X150387093Y-77317762D01*
X150381752Y-77313882D01*
X150375724Y-77311198D01*
X150375722Y-77311197D01*
X150213319Y-77238891D01*
X150213318Y-77238891D01*
X150207288Y-77236206D01*
X150113887Y-77216353D01*
X150026944Y-77197872D01*
X150026939Y-77197872D01*
X150020487Y-77196500D01*
X149829513Y-77196500D01*
X149823061Y-77197872D01*
X149823056Y-77197872D01*
X149736113Y-77216353D01*
X149642712Y-77236206D01*
X149636682Y-77238891D01*
X149636681Y-77238891D01*
X149474278Y-77311197D01*
X149474276Y-77311198D01*
X149468248Y-77313882D01*
X149462907Y-77317762D01*
X149462906Y-77317763D01*
X149387656Y-77372436D01*
X149320789Y-77396294D01*
X149313595Y-77396500D01*
X147622002Y-77396500D01*
X147553881Y-77376498D01*
X147507388Y-77322842D01*
X147497284Y-77252568D01*
X147504020Y-77226271D01*
X147525971Y-77167718D01*
X147525973Y-77167712D01*
X147528745Y-77160316D01*
X147535500Y-77098134D01*
X147535500Y-75301866D01*
X147528745Y-75239684D01*
X147477615Y-75103295D01*
X147390261Y-74986739D01*
X147273705Y-74899385D01*
X147137316Y-74848255D01*
X147075134Y-74841500D01*
X145278866Y-74841500D01*
X145216684Y-74848255D01*
X145080295Y-74899385D01*
X144963739Y-74986739D01*
X144876385Y-75103295D01*
X144825255Y-75239684D01*
X144818500Y-75301866D01*
X144818500Y-76610405D01*
X144798498Y-76678526D01*
X144781595Y-76699500D01*
X144427500Y-77053595D01*
X144365188Y-77087621D01*
X144338405Y-77090500D01*
X142948200Y-77090500D01*
X142880079Y-77070498D01*
X142860853Y-77054157D01*
X142860580Y-77054460D01*
X142855668Y-77050037D01*
X142851253Y-77045134D01*
X142696752Y-76932882D01*
X142690724Y-76930198D01*
X142690722Y-76930197D01*
X142528319Y-76857891D01*
X142528318Y-76857891D01*
X142522288Y-76855206D01*
X142428888Y-76835353D01*
X142341944Y-76816872D01*
X142341939Y-76816872D01*
X142335487Y-76815500D01*
X142144513Y-76815500D01*
X142138061Y-76816872D01*
X142138056Y-76816872D01*
X142051112Y-76835353D01*
X141957712Y-76855206D01*
X141951682Y-76857891D01*
X141951681Y-76857891D01*
X141789278Y-76930197D01*
X141789276Y-76930198D01*
X141783248Y-76932882D01*
X141628747Y-77045134D01*
X141624326Y-77050044D01*
X141624325Y-77050045D01*
X141581026Y-77098134D01*
X141500960Y-77187056D01*
X141405473Y-77352444D01*
X141346458Y-77534072D01*
X141345768Y-77540633D01*
X141345768Y-77540635D01*
X141332326Y-77668533D01*
X141305313Y-77734190D01*
X141247092Y-77774820D01*
X141207874Y-77781223D01*
X141204000Y-77780884D01*
X140993345Y-77799314D01*
X140988032Y-77800738D01*
X140988030Y-77800738D01*
X140794400Y-77852621D01*
X140794398Y-77852622D01*
X140789090Y-77854044D01*
X140784109Y-77856366D01*
X140784108Y-77856367D01*
X140602423Y-77941088D01*
X140602420Y-77941090D01*
X140597442Y-77943411D01*
X140424224Y-78064699D01*
X140274699Y-78214224D01*
X140153411Y-78387442D01*
X140151090Y-78392420D01*
X140151088Y-78392423D01*
X140088037Y-78527636D01*
X140064044Y-78579090D01*
X140062622Y-78584397D01*
X140062618Y-78584408D01*
X140055447Y-78611171D01*
X140018496Y-78671793D01*
X139954635Y-78702815D01*
X139884140Y-78694386D01*
X139829394Y-78649182D01*
X139812034Y-78611170D01*
X139804908Y-78584574D01*
X139801159Y-78574277D01*
X139716479Y-78392677D01*
X139711001Y-78383189D01*
X139689689Y-78352752D01*
X139679212Y-78344377D01*
X139665764Y-78351446D01*
X139036022Y-78981188D01*
X139028408Y-78995132D01*
X139028539Y-78996965D01*
X139032790Y-79003580D01*
X139666486Y-79637276D01*
X139678261Y-79643706D01*
X139690276Y-79634410D01*
X139711001Y-79604811D01*
X139716479Y-79595323D01*
X139801159Y-79413723D01*
X139804908Y-79403426D01*
X139812034Y-79376830D01*
X139848986Y-79316207D01*
X139912846Y-79285186D01*
X139983341Y-79293614D01*
X140038088Y-79338817D01*
X140055447Y-79376829D01*
X140062618Y-79403592D01*
X140062622Y-79403603D01*
X140064044Y-79408910D01*
X140066366Y-79413891D01*
X140066367Y-79413892D01*
X140108644Y-79504554D01*
X140153411Y-79600558D01*
X140274699Y-79773776D01*
X140393914Y-79892991D01*
X140427940Y-79955303D01*
X140422875Y-80026118D01*
X140393914Y-80071181D01*
X139183500Y-81281595D01*
X139121188Y-81315621D01*
X139094405Y-81318500D01*
X137912866Y-81318500D01*
X137850684Y-81325255D01*
X137714295Y-81376385D01*
X137597739Y-81463739D01*
X137510385Y-81580295D01*
X137459255Y-81716684D01*
X137452500Y-81778866D01*
X137452500Y-83575134D01*
X137459255Y-83637316D01*
X137510385Y-83773705D01*
X137597739Y-83890261D01*
X137714295Y-83977615D01*
X137722704Y-83980767D01*
X137722705Y-83980768D01*
X137831960Y-84021726D01*
X137888725Y-84064367D01*
X137913425Y-84130929D01*
X137898218Y-84200278D01*
X137878825Y-84226759D01*
X137755590Y-84355717D01*
X137749104Y-84363727D01*
X137629098Y-84539649D01*
X137624000Y-84548623D01*
X137534338Y-84741783D01*
X137530775Y-84751470D01*
X137475389Y-84951183D01*
X137476912Y-84959607D01*
X137489292Y-84963000D01*
X138939000Y-84963000D01*
X139007121Y-84983002D01*
X139053614Y-85036658D01*
X139065000Y-85089000D01*
X139065000Y-85345000D01*
X139044998Y-85413121D01*
X138991342Y-85459614D01*
X138939000Y-85471000D01*
X137494225Y-85471000D01*
X137480694Y-85474973D01*
X137479257Y-85484966D01*
X137509565Y-85619446D01*
X137512645Y-85629275D01*
X137592770Y-85826603D01*
X137597413Y-85835794D01*
X137708694Y-86017388D01*
X137714777Y-86025699D01*
X137854213Y-86186667D01*
X137861580Y-86193883D01*
X138025434Y-86329916D01*
X138033881Y-86335831D01*
X138102969Y-86376203D01*
X138151693Y-86427842D01*
X138164764Y-86497625D01*
X138138033Y-86563396D01*
X138097584Y-86596752D01*
X138084607Y-86603507D01*
X138080474Y-86606610D01*
X138080471Y-86606612D01*
X137914061Y-86731556D01*
X137905965Y-86737635D01*
X137872719Y-86772425D01*
X137787300Y-86861811D01*
X137751629Y-86899138D01*
X137748720Y-86903403D01*
X137748714Y-86903411D01*
X137705586Y-86966634D01*
X137625743Y-87083680D01*
X137593193Y-87153803D01*
X137539953Y-87268500D01*
X137531688Y-87286305D01*
X137471989Y-87501570D01*
X137448251Y-87723695D01*
X137448548Y-87728848D01*
X137448548Y-87728851D01*
X137454202Y-87826908D01*
X137461110Y-87946715D01*
X137462247Y-87951761D01*
X137462248Y-87951767D01*
X137479471Y-88028189D01*
X137510222Y-88164639D01*
X137594266Y-88371616D01*
X137645019Y-88454438D01*
X137708291Y-88557688D01*
X137710987Y-88562088D01*
X137857250Y-88730938D01*
X138029126Y-88873632D01*
X138222000Y-88986338D01*
X138226825Y-88988180D01*
X138226826Y-88988181D01*
X138269496Y-89004475D01*
X138430692Y-89066030D01*
X138435760Y-89067061D01*
X138435763Y-89067062D01*
X138543017Y-89088883D01*
X138649597Y-89110567D01*
X138654772Y-89110757D01*
X138654774Y-89110757D01*
X138867673Y-89118564D01*
X138867677Y-89118564D01*
X138872837Y-89118753D01*
X138877957Y-89118097D01*
X138877959Y-89118097D01*
X139089288Y-89091025D01*
X139089289Y-89091025D01*
X139094416Y-89090368D01*
X139099366Y-89088883D01*
X139303429Y-89027661D01*
X139303434Y-89027659D01*
X139308384Y-89026174D01*
X139508994Y-88927896D01*
X139690860Y-88798173D01*
X139849096Y-88640489D01*
X139908594Y-88557689D01*
X139979453Y-88459077D01*
X139980776Y-88460028D01*
X140027645Y-88416857D01*
X140097580Y-88404625D01*
X140163026Y-88432144D01*
X140190875Y-88463994D01*
X140250987Y-88562088D01*
X140397250Y-88730938D01*
X140569126Y-88873632D01*
X140762000Y-88986338D01*
X140766825Y-88988180D01*
X140766826Y-88988181D01*
X140809496Y-89004475D01*
X140970692Y-89066030D01*
X140975760Y-89067061D01*
X140975763Y-89067062D01*
X141083017Y-89088883D01*
X141189597Y-89110567D01*
X141194772Y-89110757D01*
X141194774Y-89110757D01*
X141407673Y-89118564D01*
X141407677Y-89118564D01*
X141412837Y-89118753D01*
X141417957Y-89118097D01*
X141417959Y-89118097D01*
X141629288Y-89091025D01*
X141629289Y-89091025D01*
X141634416Y-89090368D01*
X141639366Y-89088883D01*
X141843429Y-89027661D01*
X141843434Y-89027659D01*
X141848384Y-89026174D01*
X142048994Y-88927896D01*
X142230860Y-88798173D01*
X142389096Y-88640489D01*
X142448594Y-88557689D01*
X142516435Y-88463277D01*
X142519453Y-88459077D01*
X142540320Y-88416857D01*
X142616136Y-88263453D01*
X142616137Y-88263451D01*
X142618430Y-88258811D01*
X142659560Y-88123436D01*
X142681865Y-88050023D01*
X142681865Y-88050021D01*
X142683370Y-88045069D01*
X142712529Y-87823590D01*
X142712619Y-87819928D01*
X142714156Y-87757000D01*
X142715690Y-87757037D01*
X142732158Y-87694248D01*
X142784437Y-87646213D01*
X142854387Y-87634067D01*
X142919799Y-87661668D01*
X142929189Y-87670159D01*
X144535435Y-89276405D01*
X144569461Y-89338717D01*
X144564396Y-89409532D01*
X144521849Y-89466368D01*
X144455329Y-89491179D01*
X144446340Y-89491500D01*
X137262817Y-89491500D01*
X137194696Y-89471498D01*
X137173722Y-89454595D01*
X137045405Y-89326278D01*
X137011379Y-89263966D01*
X137008500Y-89237183D01*
X137008500Y-80008261D01*
X138014294Y-80008261D01*
X138023590Y-80020276D01*
X138053189Y-80041001D01*
X138062677Y-80046479D01*
X138244277Y-80131159D01*
X138254571Y-80134907D01*
X138448122Y-80186769D01*
X138458909Y-80188671D01*
X138658525Y-80206135D01*
X138669475Y-80206135D01*
X138869091Y-80188671D01*
X138879878Y-80186769D01*
X139073429Y-80134907D01*
X139083723Y-80131159D01*
X139265323Y-80046479D01*
X139274811Y-80041001D01*
X139305248Y-80019689D01*
X139313623Y-80009212D01*
X139306554Y-79995764D01*
X138676812Y-79366022D01*
X138662868Y-79358408D01*
X138661035Y-79358539D01*
X138654420Y-79362790D01*
X138020724Y-79996486D01*
X138014294Y-80008261D01*
X137008500Y-80008261D01*
X137008500Y-78999475D01*
X137451865Y-78999475D01*
X137469329Y-79199091D01*
X137471231Y-79209878D01*
X137523093Y-79403429D01*
X137526841Y-79413723D01*
X137611521Y-79595323D01*
X137616999Y-79604811D01*
X137638311Y-79635248D01*
X137648788Y-79643623D01*
X137662236Y-79636554D01*
X138291978Y-79006812D01*
X138299592Y-78992868D01*
X138299461Y-78991035D01*
X138295210Y-78984420D01*
X137661514Y-78350724D01*
X137649739Y-78344294D01*
X137637724Y-78353590D01*
X137616999Y-78383189D01*
X137611521Y-78392677D01*
X137526841Y-78574277D01*
X137523093Y-78584571D01*
X137471231Y-78778122D01*
X137469329Y-78788909D01*
X137451865Y-78988525D01*
X137451865Y-78999475D01*
X137008500Y-78999475D01*
X137008500Y-77978788D01*
X138014377Y-77978788D01*
X138021446Y-77992236D01*
X138651188Y-78621978D01*
X138665132Y-78629592D01*
X138666965Y-78629461D01*
X138673580Y-78625210D01*
X139307276Y-77991514D01*
X139313706Y-77979739D01*
X139304410Y-77967724D01*
X139274811Y-77946999D01*
X139265323Y-77941521D01*
X139083723Y-77856841D01*
X139073429Y-77853093D01*
X138879878Y-77801231D01*
X138869091Y-77799329D01*
X138669475Y-77781865D01*
X138658525Y-77781865D01*
X138458909Y-77799329D01*
X138448122Y-77801231D01*
X138254571Y-77853093D01*
X138244277Y-77856841D01*
X138062677Y-77941521D01*
X138053189Y-77946999D01*
X138022752Y-77968311D01*
X138014377Y-77978788D01*
X137008500Y-77978788D01*
X137008500Y-73499695D01*
X148497251Y-73499695D01*
X148510110Y-73722715D01*
X148511247Y-73727761D01*
X148511248Y-73727767D01*
X148535304Y-73834508D01*
X148559222Y-73940639D01*
X148643266Y-74147616D01*
X148694942Y-74231944D01*
X148757291Y-74333688D01*
X148759987Y-74338088D01*
X148906250Y-74506938D01*
X149078126Y-74649632D01*
X149271000Y-74762338D01*
X149479692Y-74842030D01*
X149484760Y-74843061D01*
X149484763Y-74843062D01*
X149592017Y-74864883D01*
X149698597Y-74886567D01*
X149703772Y-74886757D01*
X149703774Y-74886757D01*
X149916673Y-74894564D01*
X149916677Y-74894564D01*
X149921837Y-74894753D01*
X149926957Y-74894097D01*
X149926959Y-74894097D01*
X150138288Y-74867025D01*
X150138289Y-74867025D01*
X150143416Y-74866368D01*
X150148366Y-74864883D01*
X150352429Y-74803661D01*
X150352434Y-74803659D01*
X150357384Y-74802174D01*
X150557994Y-74703896D01*
X150739860Y-74574173D01*
X150898096Y-74416489D01*
X150957594Y-74333689D01*
X151028453Y-74235077D01*
X151029776Y-74236028D01*
X151076645Y-74192857D01*
X151146580Y-74180625D01*
X151212026Y-74208144D01*
X151239875Y-74239994D01*
X151299987Y-74338088D01*
X151446250Y-74506938D01*
X151618126Y-74649632D01*
X151811000Y-74762338D01*
X152019692Y-74842030D01*
X152024760Y-74843061D01*
X152024763Y-74843062D01*
X152132017Y-74864883D01*
X152238597Y-74886567D01*
X152243772Y-74886757D01*
X152243774Y-74886757D01*
X152461837Y-74894753D01*
X152461778Y-74896363D01*
X152523740Y-74911539D01*
X152572620Y-74963029D01*
X152586500Y-75020519D01*
X152586500Y-83597829D01*
X152585973Y-83609012D01*
X152584298Y-83616505D01*
X152584547Y-83624431D01*
X152584547Y-83624432D01*
X152586438Y-83684582D01*
X152586500Y-83688541D01*
X152586500Y-83716452D01*
X152586997Y-83720386D01*
X152586997Y-83720387D01*
X152587005Y-83720452D01*
X152587938Y-83732289D01*
X152589327Y-83776485D01*
X152594309Y-83793632D01*
X152594978Y-83795935D01*
X152598987Y-83815296D01*
X152601526Y-83835393D01*
X152604445Y-83842764D01*
X152604445Y-83842766D01*
X152617804Y-83876508D01*
X152621649Y-83887738D01*
X152622382Y-83890261D01*
X152633982Y-83930189D01*
X152638015Y-83937008D01*
X152638017Y-83937013D01*
X152644293Y-83947624D01*
X152652990Y-83965377D01*
X152658541Y-83979398D01*
X152667388Y-84025776D01*
X152667388Y-84030232D01*
X152666698Y-84036798D01*
X152686660Y-84226726D01*
X152745675Y-84408354D01*
X152748978Y-84414076D01*
X152748979Y-84414077D01*
X152760837Y-84434616D01*
X152841162Y-84573742D01*
X152965083Y-84711370D01*
X152968949Y-84715664D01*
X152968164Y-84716371D01*
X153002163Y-84771554D01*
X153000812Y-84842538D01*
X152974251Y-84889055D01*
X152963216Y-84901311D01*
X152958796Y-84906220D01*
X152955494Y-84911939D01*
X152955492Y-84911942D01*
X152875068Y-85051240D01*
X152863309Y-85071608D01*
X152804294Y-85253236D01*
X152803604Y-85259797D01*
X152803604Y-85259799D01*
X152801677Y-85278131D01*
X152784332Y-85443164D01*
X152785022Y-85449729D01*
X152803406Y-85624639D01*
X152804294Y-85633092D01*
X152863309Y-85814720D01*
X152958796Y-85980108D01*
X153086583Y-86122030D01*
X153152707Y-86170072D01*
X153221939Y-86220372D01*
X153241084Y-86234282D01*
X153247112Y-86236966D01*
X153247114Y-86236967D01*
X153409517Y-86309273D01*
X153415548Y-86311958D01*
X153501967Y-86330327D01*
X153595892Y-86350292D01*
X153595897Y-86350292D01*
X153602349Y-86351664D01*
X153793323Y-86351664D01*
X153799775Y-86350292D01*
X153799780Y-86350292D01*
X153893705Y-86330327D01*
X153980124Y-86311958D01*
X153986155Y-86309273D01*
X154148558Y-86236967D01*
X154148560Y-86236966D01*
X154154588Y-86234282D01*
X154173734Y-86220372D01*
X154242965Y-86170072D01*
X154309089Y-86122030D01*
X154436876Y-85980108D01*
X154532363Y-85814720D01*
X154591378Y-85633092D01*
X154592267Y-85624639D01*
X154602796Y-85524457D01*
X154608743Y-85467870D01*
X154635756Y-85402214D01*
X154644958Y-85391946D01*
X154697449Y-85339455D01*
X154705739Y-85331911D01*
X154712220Y-85327798D01*
X154758861Y-85278130D01*
X154761615Y-85275289D01*
X154781336Y-85255568D01*
X154783814Y-85252373D01*
X154791520Y-85243351D01*
X154816360Y-85216899D01*
X154821788Y-85211119D01*
X154831548Y-85193366D01*
X154842401Y-85176843D01*
X154849955Y-85167104D01*
X154854815Y-85160839D01*
X154872378Y-85120255D01*
X154877585Y-85109625D01*
X154898897Y-85070858D01*
X154900868Y-85063181D01*
X154900870Y-85063176D01*
X154903934Y-85051240D01*
X154910340Y-85032528D01*
X154915235Y-85021217D01*
X154918383Y-85013943D01*
X154919623Y-85006115D01*
X154919625Y-85006108D01*
X154925301Y-84970274D01*
X154927707Y-84958654D01*
X154936730Y-84923509D01*
X154936730Y-84923508D01*
X154938702Y-84915828D01*
X154938702Y-84895574D01*
X154940253Y-84875863D01*
X154942182Y-84863684D01*
X154943422Y-84855855D01*
X154942163Y-84842538D01*
X154939261Y-84811831D01*
X154938702Y-84799974D01*
X154938702Y-81739969D01*
X154939229Y-81728786D01*
X154940904Y-81721293D01*
X154938764Y-81653216D01*
X154938702Y-81649257D01*
X154938702Y-81621346D01*
X154938197Y-81617346D01*
X154937264Y-81605503D01*
X154936124Y-81569231D01*
X154935875Y-81561312D01*
X154930224Y-81541860D01*
X154926216Y-81522508D01*
X154924669Y-81510265D01*
X154923676Y-81502405D01*
X154920758Y-81495034D01*
X154907402Y-81461299D01*
X154903557Y-81450072D01*
X154897693Y-81429890D01*
X154891220Y-81407609D01*
X154887186Y-81400787D01*
X154887183Y-81400781D01*
X154880908Y-81390170D01*
X154872212Y-81372420D01*
X154867674Y-81360958D01*
X154867671Y-81360953D01*
X154864754Y-81353585D01*
X154846187Y-81328029D01*
X154838775Y-81317827D01*
X154832259Y-81307909D01*
X154813777Y-81276659D01*
X154809744Y-81269839D01*
X154795420Y-81255515D01*
X154782578Y-81240480D01*
X154770674Y-81224095D01*
X154736608Y-81195913D01*
X154727829Y-81187924D01*
X154340405Y-80800500D01*
X154306379Y-80738188D01*
X154303500Y-80711405D01*
X154303500Y-73258943D01*
X154809780Y-73258943D01*
X154810526Y-73266835D01*
X154813941Y-73302961D01*
X154814500Y-73314819D01*
X154814500Y-77645233D01*
X154813973Y-77656416D01*
X154812298Y-77663909D01*
X154812547Y-77671835D01*
X154812547Y-77671836D01*
X154814438Y-77731986D01*
X154814500Y-77735945D01*
X154814500Y-77763856D01*
X154814997Y-77767790D01*
X154814997Y-77767791D01*
X154815005Y-77767856D01*
X154815938Y-77779693D01*
X154817327Y-77823889D01*
X154822978Y-77843339D01*
X154826987Y-77862700D01*
X154829526Y-77882797D01*
X154832445Y-77890168D01*
X154832445Y-77890170D01*
X154845804Y-77923912D01*
X154849649Y-77935142D01*
X154851502Y-77941521D01*
X154861982Y-77977593D01*
X154866015Y-77984412D01*
X154866017Y-77984417D01*
X154872293Y-77995028D01*
X154880988Y-78012776D01*
X154888448Y-78031617D01*
X154893110Y-78038033D01*
X154893110Y-78038034D01*
X154914436Y-78067387D01*
X154920952Y-78077307D01*
X154937330Y-78105000D01*
X154943458Y-78115362D01*
X154957779Y-78129683D01*
X154970619Y-78144716D01*
X154982528Y-78161107D01*
X154988634Y-78166158D01*
X155016605Y-78189298D01*
X155025384Y-78197288D01*
X155318827Y-78490731D01*
X155352853Y-78553043D01*
X155355732Y-78579826D01*
X155355732Y-79513921D01*
X155335730Y-79582042D01*
X155323374Y-79598224D01*
X155250192Y-79679501D01*
X155154705Y-79844889D01*
X155095690Y-80026517D01*
X155095000Y-80033078D01*
X155095000Y-80033080D01*
X155094115Y-80041498D01*
X155075728Y-80216445D01*
X155095690Y-80406373D01*
X155154705Y-80588001D01*
X155250192Y-80753389D01*
X155254610Y-80758296D01*
X155254611Y-80758297D01*
X155280844Y-80787432D01*
X155377979Y-80895311D01*
X155532480Y-81007563D01*
X155538508Y-81010247D01*
X155538510Y-81010248D01*
X155700913Y-81082554D01*
X155706944Y-81085239D01*
X155790959Y-81103097D01*
X155887288Y-81123573D01*
X155887293Y-81123573D01*
X155893745Y-81124945D01*
X156084719Y-81124945D01*
X156084719Y-81127817D01*
X156142180Y-81138331D01*
X156194022Y-81186839D01*
X156211500Y-81250863D01*
X156211500Y-81291847D01*
X156191498Y-81359968D01*
X156137842Y-81406461D01*
X156111698Y-81415093D01*
X156054712Y-81427206D01*
X156034653Y-81436137D01*
X155886278Y-81502197D01*
X155886276Y-81502198D01*
X155880248Y-81504882D01*
X155725747Y-81617134D01*
X155721326Y-81622044D01*
X155721325Y-81622045D01*
X155669293Y-81679833D01*
X155597960Y-81759056D01*
X155502473Y-81924444D01*
X155443458Y-82106072D01*
X155423496Y-82296000D01*
X155424186Y-82302565D01*
X155442364Y-82475516D01*
X155443458Y-82485928D01*
X155502473Y-82667556D01*
X155597960Y-82832944D01*
X155725747Y-82974866D01*
X155880248Y-83087118D01*
X155886276Y-83089802D01*
X155886278Y-83089803D01*
X155954500Y-83120177D01*
X156054712Y-83164794D01*
X156142716Y-83183500D01*
X156235056Y-83203128D01*
X156235061Y-83203128D01*
X156241513Y-83204500D01*
X156432487Y-83204500D01*
X156438939Y-83203128D01*
X156438944Y-83203128D01*
X156567303Y-83175844D01*
X156638094Y-83181246D01*
X156694726Y-83224063D01*
X156719220Y-83290701D01*
X156719500Y-83299091D01*
X156719500Y-85355847D01*
X156699498Y-85423968D01*
X156645842Y-85470461D01*
X156619698Y-85479093D01*
X156562712Y-85491206D01*
X156556683Y-85493890D01*
X156556684Y-85493890D01*
X156394278Y-85566197D01*
X156394276Y-85566198D01*
X156388248Y-85568882D01*
X156233747Y-85681134D01*
X156229326Y-85686044D01*
X156229325Y-85686045D01*
X156202498Y-85715840D01*
X156105960Y-85823056D01*
X156102659Y-85828774D01*
X156014994Y-85980614D01*
X156010473Y-85988444D01*
X155951458Y-86170072D01*
X155950768Y-86176633D01*
X155950768Y-86176635D01*
X155938548Y-86292905D01*
X155931496Y-86360000D01*
X155932186Y-86366565D01*
X155938844Y-86429908D01*
X155951458Y-86549928D01*
X156010473Y-86731556D01*
X156013776Y-86737278D01*
X156013777Y-86737279D01*
X156034069Y-86772425D01*
X156105960Y-86896944D01*
X156110378Y-86901851D01*
X156110379Y-86901852D01*
X156212778Y-87015578D01*
X156233747Y-87038866D01*
X156388248Y-87151118D01*
X156394276Y-87153802D01*
X156394278Y-87153803D01*
X156419625Y-87165088D01*
X156562712Y-87228794D01*
X156656113Y-87248647D01*
X156743056Y-87267128D01*
X156743061Y-87267128D01*
X156749513Y-87268500D01*
X156940487Y-87268500D01*
X156946939Y-87267128D01*
X156946944Y-87267128D01*
X157033888Y-87248647D01*
X157127288Y-87228794D01*
X157270375Y-87165088D01*
X157295722Y-87153803D01*
X157295724Y-87153802D01*
X157301752Y-87151118D01*
X157456253Y-87038866D01*
X157477222Y-87015578D01*
X157579621Y-86901852D01*
X157579622Y-86901851D01*
X157584040Y-86896944D01*
X157655931Y-86772425D01*
X157676223Y-86737279D01*
X157676224Y-86737278D01*
X157679527Y-86731556D01*
X157738542Y-86549928D01*
X157755775Y-86385968D01*
X157782787Y-86320313D01*
X157789228Y-86312895D01*
X157806660Y-86294331D01*
X157809413Y-86291491D01*
X157829134Y-86271770D01*
X157831612Y-86268575D01*
X157839318Y-86259553D01*
X157864158Y-86233101D01*
X157869586Y-86227321D01*
X157879346Y-86209568D01*
X157890199Y-86193045D01*
X157897753Y-86183306D01*
X157902613Y-86177041D01*
X157920176Y-86136457D01*
X157925383Y-86125827D01*
X157946695Y-86087060D01*
X157948666Y-86079383D01*
X157948668Y-86079378D01*
X157951732Y-86067442D01*
X157958138Y-86048730D01*
X157963034Y-86037417D01*
X157966181Y-86030145D01*
X157971791Y-85994729D01*
X157973097Y-85986481D01*
X157975504Y-85974860D01*
X157984528Y-85939711D01*
X157984528Y-85939710D01*
X157986500Y-85932030D01*
X157986500Y-85911769D01*
X157988051Y-85892058D01*
X157989979Y-85879885D01*
X157991219Y-85872057D01*
X157987059Y-85828046D01*
X157986500Y-85816189D01*
X157986500Y-66481594D01*
X158006502Y-66413473D01*
X158023405Y-66392499D01*
X161420499Y-62995405D01*
X161482811Y-62961379D01*
X161509594Y-62958500D01*
X161565487Y-62958500D01*
X161571939Y-62957128D01*
X161571944Y-62957128D01*
X161674563Y-62935315D01*
X161752288Y-62918794D01*
X161904330Y-62851101D01*
X161920722Y-62843803D01*
X161920724Y-62843802D01*
X161926752Y-62841118D01*
X162081253Y-62728866D01*
X162085675Y-62723955D01*
X162204621Y-62591852D01*
X162204622Y-62591851D01*
X162209040Y-62586944D01*
X162304527Y-62421556D01*
X162363542Y-62239928D01*
X162364586Y-62230000D01*
X162382814Y-62056565D01*
X162383504Y-62050000D01*
X162365725Y-61880845D01*
X162364232Y-61866635D01*
X162364232Y-61866633D01*
X162363542Y-61860072D01*
X162304527Y-61678444D01*
X162209040Y-61513056D01*
X162081253Y-61371134D01*
X161926752Y-61258882D01*
X161920724Y-61256198D01*
X161920722Y-61256197D01*
X161758319Y-61183891D01*
X161758318Y-61183891D01*
X161752288Y-61181206D01*
X161658887Y-61161353D01*
X161571944Y-61142872D01*
X161571939Y-61142872D01*
X161565487Y-61141500D01*
X161374513Y-61141500D01*
X161368061Y-61142872D01*
X161368056Y-61142872D01*
X161281113Y-61161353D01*
X161187712Y-61181206D01*
X161181682Y-61183891D01*
X161181681Y-61183891D01*
X161019278Y-61256197D01*
X161019276Y-61256198D01*
X161013248Y-61258882D01*
X160858747Y-61371134D01*
X160730960Y-61513056D01*
X160635473Y-61678444D01*
X160576458Y-61860072D01*
X160575768Y-61866633D01*
X160575768Y-61866635D01*
X160574275Y-61880845D01*
X160559509Y-62021338D01*
X160559093Y-62025292D01*
X160532080Y-62090949D01*
X160522878Y-62101217D01*
X156960747Y-65663348D01*
X156952461Y-65670888D01*
X156945982Y-65675000D01*
X156940557Y-65680777D01*
X156899357Y-65724651D01*
X156896602Y-65727493D01*
X156876865Y-65747230D01*
X156874385Y-65750427D01*
X156866682Y-65759447D01*
X156836414Y-65791679D01*
X156832595Y-65798625D01*
X156832593Y-65798628D01*
X156826652Y-65809434D01*
X156815801Y-65825953D01*
X156803386Y-65841959D01*
X156800241Y-65849228D01*
X156800238Y-65849232D01*
X156785826Y-65882537D01*
X156780609Y-65893187D01*
X156759305Y-65931940D01*
X156757334Y-65939615D01*
X156757334Y-65939616D01*
X156754267Y-65951562D01*
X156747863Y-65970266D01*
X156739819Y-65988855D01*
X156738580Y-65996678D01*
X156738577Y-65996688D01*
X156732901Y-66032524D01*
X156730495Y-66044144D01*
X156719500Y-66086970D01*
X156719500Y-66107224D01*
X156717949Y-66126934D01*
X156714780Y-66146943D01*
X156715526Y-66154835D01*
X156718941Y-66190961D01*
X156719500Y-66202819D01*
X156719500Y-71555344D01*
X156699498Y-71623465D01*
X156645842Y-71669958D01*
X156575568Y-71680062D01*
X156542251Y-71670451D01*
X156498319Y-71650891D01*
X156498318Y-71650891D01*
X156492288Y-71648206D01*
X156398887Y-71628353D01*
X156311944Y-71609872D01*
X156311939Y-71609872D01*
X156305487Y-71608500D01*
X156114513Y-71608500D01*
X156108061Y-71609872D01*
X156108056Y-71609872D01*
X156021113Y-71628353D01*
X155927712Y-71648206D01*
X155921682Y-71650891D01*
X155921681Y-71650891D01*
X155759278Y-71723197D01*
X155759276Y-71723198D01*
X155753248Y-71725882D01*
X155598747Y-71838134D01*
X155594326Y-71843044D01*
X155594325Y-71843045D01*
X155551026Y-71891134D01*
X155470960Y-71980056D01*
X155375473Y-72145444D01*
X155316458Y-72327072D01*
X155315768Y-72333633D01*
X155315768Y-72333635D01*
X155306195Y-72424722D01*
X155299828Y-72485303D01*
X155299093Y-72492292D01*
X155272080Y-72557949D01*
X155262879Y-72568217D01*
X155155957Y-72675138D01*
X155055742Y-72775353D01*
X155047463Y-72782887D01*
X155040982Y-72787000D01*
X154994357Y-72836651D01*
X154991602Y-72839493D01*
X154971865Y-72859230D01*
X154969385Y-72862427D01*
X154961682Y-72871447D01*
X154931414Y-72903679D01*
X154927595Y-72910625D01*
X154927593Y-72910628D01*
X154921652Y-72921434D01*
X154910801Y-72937953D01*
X154898386Y-72953959D01*
X154895241Y-72961228D01*
X154895238Y-72961232D01*
X154880826Y-72994537D01*
X154875609Y-73005187D01*
X154854305Y-73043940D01*
X154852334Y-73051615D01*
X154852334Y-73051616D01*
X154849267Y-73063562D01*
X154842863Y-73082266D01*
X154834819Y-73100855D01*
X154833580Y-73108678D01*
X154833577Y-73108688D01*
X154827901Y-73144524D01*
X154825495Y-73156144D01*
X154814500Y-73198970D01*
X154814500Y-73219224D01*
X154812949Y-73238934D01*
X154809780Y-73258943D01*
X154303500Y-73258943D01*
X154303500Y-72976768D01*
X154304027Y-72965585D01*
X154305702Y-72958092D01*
X154303562Y-72890001D01*
X154303500Y-72886044D01*
X154303500Y-72858144D01*
X154302996Y-72854153D01*
X154302063Y-72842311D01*
X154301975Y-72839493D01*
X154300674Y-72798111D01*
X154295021Y-72778652D01*
X154291012Y-72759293D01*
X154290846Y-72757983D01*
X154288474Y-72739203D01*
X154285558Y-72731837D01*
X154285556Y-72731831D01*
X154272200Y-72698098D01*
X154268355Y-72686868D01*
X154258230Y-72652017D01*
X154258230Y-72652016D01*
X154256019Y-72644407D01*
X154245705Y-72626966D01*
X154237008Y-72609213D01*
X154232472Y-72597758D01*
X154229552Y-72590383D01*
X154203563Y-72554612D01*
X154197047Y-72544692D01*
X154178578Y-72513463D01*
X154174542Y-72506638D01*
X154160221Y-72492317D01*
X154147380Y-72477283D01*
X154140132Y-72467307D01*
X154135472Y-72460893D01*
X154101407Y-72432712D01*
X154092626Y-72424722D01*
X153558232Y-71890327D01*
X153524207Y-71828015D01*
X153529272Y-71757199D01*
X153545000Y-71727715D01*
X153568453Y-71695077D01*
X153667430Y-71494811D01*
X153732370Y-71281069D01*
X153761529Y-71059590D01*
X153763156Y-70993000D01*
X153744852Y-70770361D01*
X153690431Y-70553702D01*
X153601354Y-70348840D01*
X153480014Y-70161277D01*
X153329670Y-69996051D01*
X153325619Y-69992852D01*
X153325615Y-69992848D01*
X153158414Y-69860800D01*
X153158410Y-69860798D01*
X153154359Y-69857598D01*
X152958789Y-69749638D01*
X152953920Y-69747914D01*
X152953916Y-69747912D01*
X152753087Y-69676795D01*
X152753083Y-69676794D01*
X152748212Y-69675069D01*
X152743119Y-69674162D01*
X152743116Y-69674161D01*
X152533373Y-69636800D01*
X152533367Y-69636799D01*
X152528284Y-69635894D01*
X152454452Y-69634992D01*
X152310081Y-69633228D01*
X152310079Y-69633228D01*
X152304911Y-69633165D01*
X152084091Y-69666955D01*
X151871756Y-69736357D01*
X151841443Y-69752137D01*
X151684676Y-69833745D01*
X151673607Y-69839507D01*
X151669474Y-69842610D01*
X151669471Y-69842612D01*
X151514321Y-69959102D01*
X151494965Y-69973635D01*
X151438537Y-70032684D01*
X151414283Y-70058064D01*
X151352759Y-70093494D01*
X151281846Y-70090037D01*
X151224060Y-70048791D01*
X151205207Y-70015243D01*
X151163767Y-69904703D01*
X151160615Y-69896295D01*
X151073261Y-69779739D01*
X150956705Y-69692385D01*
X150820316Y-69641255D01*
X150758134Y-69634500D01*
X148961866Y-69634500D01*
X148899684Y-69641255D01*
X148763295Y-69692385D01*
X148646739Y-69779739D01*
X148559385Y-69896295D01*
X148508255Y-70032684D01*
X148501500Y-70094866D01*
X148501500Y-71891134D01*
X148508255Y-71953316D01*
X148559385Y-72089705D01*
X148646739Y-72206261D01*
X148763295Y-72293615D01*
X148771704Y-72296767D01*
X148771705Y-72296768D01*
X148880451Y-72337535D01*
X148937216Y-72380176D01*
X148961916Y-72446738D01*
X148946709Y-72516087D01*
X148927316Y-72542568D01*
X148854819Y-72618432D01*
X148800629Y-72675138D01*
X148797715Y-72679410D01*
X148797714Y-72679411D01*
X148784967Y-72698098D01*
X148674743Y-72859680D01*
X148651094Y-72910628D01*
X148585650Y-73051616D01*
X148580688Y-73062305D01*
X148520989Y-73277570D01*
X148497251Y-73499695D01*
X137008500Y-73499695D01*
X137008500Y-66382237D01*
X138131500Y-66382237D01*
X138131800Y-66385293D01*
X138131800Y-66385300D01*
X138146034Y-66530466D01*
X138146635Y-66536592D01*
X138186474Y-66668546D01*
X138193979Y-66693404D01*
X138206632Y-66735315D01*
X138209527Y-66740760D01*
X138209528Y-66740762D01*
X138287936Y-66888223D01*
X138304087Y-66918599D01*
X138352917Y-66978471D01*
X138431390Y-67074689D01*
X138431393Y-67074692D01*
X138435285Y-67079464D01*
X138440033Y-67083392D01*
X138440034Y-67083393D01*
X138455102Y-67095858D01*
X138595230Y-67211783D01*
X138600647Y-67214712D01*
X138600650Y-67214714D01*
X138772410Y-67307584D01*
X138772415Y-67307586D01*
X138777830Y-67310514D01*
X138976129Y-67371898D01*
X138982254Y-67372542D01*
X138982255Y-67372542D01*
X139176446Y-67392952D01*
X139176448Y-67392952D01*
X139182575Y-67393596D01*
X139268485Y-67385777D01*
X139383164Y-67375341D01*
X139383167Y-67375340D01*
X139389303Y-67374782D01*
X139395209Y-67373044D01*
X139395213Y-67373043D01*
X139582531Y-67317912D01*
X139582530Y-67317912D01*
X139588440Y-67316173D01*
X139772400Y-67220001D01*
X139934177Y-67089929D01*
X139939662Y-67083393D01*
X140063650Y-66935629D01*
X140067609Y-66930911D01*
X140070573Y-66925519D01*
X140070576Y-66925515D01*
X140164646Y-66754402D01*
X140167613Y-66749005D01*
X140230379Y-66551139D01*
X140231350Y-66542489D01*
X140244034Y-66429404D01*
X140248500Y-66389587D01*
X140248500Y-66382237D01*
X146771500Y-66382237D01*
X146771800Y-66385293D01*
X146771800Y-66385300D01*
X146786034Y-66530466D01*
X146786635Y-66536592D01*
X146826474Y-66668546D01*
X146833979Y-66693404D01*
X146846632Y-66735315D01*
X146849527Y-66740760D01*
X146849528Y-66740762D01*
X146927936Y-66888223D01*
X146944087Y-66918599D01*
X146992917Y-66978471D01*
X147071390Y-67074689D01*
X147071393Y-67074692D01*
X147075285Y-67079464D01*
X147080033Y-67083392D01*
X147080034Y-67083393D01*
X147095102Y-67095858D01*
X147235230Y-67211783D01*
X147240647Y-67214712D01*
X147240650Y-67214714D01*
X147412410Y-67307584D01*
X147412415Y-67307586D01*
X147417830Y-67310514D01*
X147616129Y-67371898D01*
X147622254Y-67372542D01*
X147622255Y-67372542D01*
X147816446Y-67392952D01*
X147816448Y-67392952D01*
X147822575Y-67393596D01*
X147908485Y-67385777D01*
X148023164Y-67375341D01*
X148023167Y-67375340D01*
X148029303Y-67374782D01*
X148035209Y-67373044D01*
X148035213Y-67373043D01*
X148222531Y-67317912D01*
X148222530Y-67317912D01*
X148228440Y-67316173D01*
X148240248Y-67310000D01*
X151801807Y-67310000D01*
X151820542Y-67524142D01*
X151876178Y-67731777D01*
X151967024Y-67926596D01*
X152090319Y-68102681D01*
X152242319Y-68254681D01*
X152418403Y-68377976D01*
X152423381Y-68380297D01*
X152423384Y-68380299D01*
X152608241Y-68466499D01*
X152613223Y-68468822D01*
X152618531Y-68470244D01*
X152618533Y-68470245D01*
X152815543Y-68523034D01*
X152815545Y-68523034D01*
X152820858Y-68524458D01*
X153035000Y-68543193D01*
X153249142Y-68524458D01*
X153254455Y-68523034D01*
X153254457Y-68523034D01*
X153451467Y-68470245D01*
X153451469Y-68470244D01*
X153456777Y-68468822D01*
X153461759Y-68466499D01*
X153646616Y-68380299D01*
X153646619Y-68380297D01*
X153651597Y-68377976D01*
X153827681Y-68254681D01*
X153979681Y-68102681D01*
X154102976Y-67926596D01*
X154193822Y-67731777D01*
X154249458Y-67524142D01*
X154268193Y-67310000D01*
X154249458Y-67095858D01*
X154243786Y-67074689D01*
X154195245Y-66893533D01*
X154195244Y-66893531D01*
X154193822Y-66888223D01*
X154131420Y-66754402D01*
X154105299Y-66698385D01*
X154105297Y-66698382D01*
X154102976Y-66693404D01*
X153979681Y-66517319D01*
X153827681Y-66365319D01*
X153651597Y-66242024D01*
X153646619Y-66239703D01*
X153646616Y-66239701D01*
X153461759Y-66153501D01*
X153461758Y-66153500D01*
X153456777Y-66151178D01*
X153451469Y-66149756D01*
X153451467Y-66149755D01*
X153254457Y-66096966D01*
X153254455Y-66096966D01*
X153249142Y-66095542D01*
X153035000Y-66076807D01*
X152820858Y-66095542D01*
X152815545Y-66096966D01*
X152815543Y-66096966D01*
X152618533Y-66149755D01*
X152618531Y-66149756D01*
X152613223Y-66151178D01*
X152608243Y-66153500D01*
X152608241Y-66153501D01*
X152423385Y-66239701D01*
X152423382Y-66239703D01*
X152418404Y-66242024D01*
X152242319Y-66365319D01*
X152090319Y-66517319D01*
X151967024Y-66693404D01*
X151964703Y-66698382D01*
X151964701Y-66698385D01*
X151938580Y-66754402D01*
X151876178Y-66888223D01*
X151874756Y-66893531D01*
X151874755Y-66893533D01*
X151826214Y-67074689D01*
X151820542Y-67095858D01*
X151801807Y-67310000D01*
X148240248Y-67310000D01*
X148412400Y-67220001D01*
X148574177Y-67089929D01*
X148579662Y-67083393D01*
X148703650Y-66935629D01*
X148707609Y-66930911D01*
X148710573Y-66925519D01*
X148710576Y-66925515D01*
X148804646Y-66754402D01*
X148807613Y-66749005D01*
X148870379Y-66551139D01*
X148871350Y-66542489D01*
X148884034Y-66429404D01*
X148888500Y-66389587D01*
X148888500Y-65677763D01*
X148887780Y-65670413D01*
X148873966Y-65529534D01*
X148873965Y-65529531D01*
X148873365Y-65523408D01*
X148813368Y-65324685D01*
X148742699Y-65191777D01*
X148718809Y-65146847D01*
X148718808Y-65146845D01*
X148715913Y-65141401D01*
X148591991Y-64989457D01*
X148588610Y-64985311D01*
X148588607Y-64985308D01*
X148584715Y-64980536D01*
X148577770Y-64974790D01*
X148429518Y-64852145D01*
X148429519Y-64852145D01*
X148424770Y-64848217D01*
X148419353Y-64845288D01*
X148419350Y-64845286D01*
X148280111Y-64770000D01*
X149261807Y-64770000D01*
X149280542Y-64984142D01*
X149281966Y-64989455D01*
X149281966Y-64989457D01*
X149320827Y-65134485D01*
X149336178Y-65191777D01*
X149338500Y-65196757D01*
X149338501Y-65196759D01*
X149391771Y-65310995D01*
X149427024Y-65386596D01*
X149550319Y-65562681D01*
X149702319Y-65714681D01*
X149878403Y-65837976D01*
X149883381Y-65840297D01*
X149883384Y-65840299D01*
X150068241Y-65926499D01*
X150073223Y-65928822D01*
X150078531Y-65930244D01*
X150078533Y-65930245D01*
X150275543Y-65983034D01*
X150275545Y-65983034D01*
X150280858Y-65984458D01*
X150495000Y-66003193D01*
X150709142Y-65984458D01*
X150714455Y-65983034D01*
X150714457Y-65983034D01*
X150911467Y-65930245D01*
X150911469Y-65930244D01*
X150916777Y-65928822D01*
X150921759Y-65926499D01*
X151106616Y-65840299D01*
X151106619Y-65840297D01*
X151111597Y-65837976D01*
X151287681Y-65714681D01*
X151439681Y-65562681D01*
X151562976Y-65386596D01*
X151598230Y-65310995D01*
X151651499Y-65196759D01*
X151651500Y-65196757D01*
X151653822Y-65191777D01*
X151669174Y-65134485D01*
X151708034Y-64989457D01*
X151708034Y-64989455D01*
X151709458Y-64984142D01*
X151728193Y-64770000D01*
X151709458Y-64555858D01*
X151653822Y-64348223D01*
X151562976Y-64153404D01*
X151439681Y-63977319D01*
X151287681Y-63825319D01*
X151111597Y-63702024D01*
X151106619Y-63699703D01*
X151106616Y-63699701D01*
X150921759Y-63613501D01*
X150921758Y-63613500D01*
X150916777Y-63611178D01*
X150911469Y-63609756D01*
X150911467Y-63609755D01*
X150714457Y-63556966D01*
X150714455Y-63556966D01*
X150709142Y-63555542D01*
X150495000Y-63536807D01*
X150280858Y-63555542D01*
X150275545Y-63556966D01*
X150275543Y-63556966D01*
X150078533Y-63609755D01*
X150078531Y-63609756D01*
X150073223Y-63611178D01*
X150068243Y-63613500D01*
X150068241Y-63613501D01*
X149883385Y-63699701D01*
X149883382Y-63699703D01*
X149878404Y-63702024D01*
X149702319Y-63825319D01*
X149550319Y-63977319D01*
X149427024Y-64153404D01*
X149336178Y-64348223D01*
X149280542Y-64555858D01*
X149261807Y-64770000D01*
X148280111Y-64770000D01*
X148247590Y-64752416D01*
X148247585Y-64752414D01*
X148242170Y-64749486D01*
X148043871Y-64688102D01*
X148037746Y-64687458D01*
X148037745Y-64687458D01*
X147843554Y-64667048D01*
X147843552Y-64667048D01*
X147837425Y-64666404D01*
X147751515Y-64674223D01*
X147636836Y-64684659D01*
X147636833Y-64684660D01*
X147630697Y-64685218D01*
X147624791Y-64686956D01*
X147624787Y-64686957D01*
X147476932Y-64730473D01*
X147431560Y-64743827D01*
X147247600Y-64839999D01*
X147085823Y-64970071D01*
X147081865Y-64974788D01*
X147081863Y-64974790D01*
X147078614Y-64978662D01*
X146952391Y-65129089D01*
X146949427Y-65134481D01*
X146949424Y-65134485D01*
X146945622Y-65141401D01*
X146852387Y-65310995D01*
X146789621Y-65508861D01*
X146788935Y-65514978D01*
X146788934Y-65514982D01*
X146787989Y-65523408D01*
X146771500Y-65670413D01*
X146771500Y-66382237D01*
X140248500Y-66382237D01*
X140248500Y-65677763D01*
X140247780Y-65670413D01*
X140233966Y-65529534D01*
X140233965Y-65529531D01*
X140233365Y-65523408D01*
X140173368Y-65324685D01*
X140102699Y-65191777D01*
X140078809Y-65146847D01*
X140078808Y-65146845D01*
X140075913Y-65141401D01*
X139951991Y-64989457D01*
X139948610Y-64985311D01*
X139948607Y-64985308D01*
X139944715Y-64980536D01*
X139937770Y-64974790D01*
X139789518Y-64852145D01*
X139789519Y-64852145D01*
X139784770Y-64848217D01*
X139779353Y-64845288D01*
X139779350Y-64845286D01*
X139607590Y-64752416D01*
X139607585Y-64752414D01*
X139602170Y-64749486D01*
X139403871Y-64688102D01*
X139397746Y-64687458D01*
X139397745Y-64687458D01*
X139203554Y-64667048D01*
X139203552Y-64667048D01*
X139197425Y-64666404D01*
X139111515Y-64674223D01*
X138996836Y-64684659D01*
X138996833Y-64684660D01*
X138990697Y-64685218D01*
X138984791Y-64686956D01*
X138984787Y-64686957D01*
X138836932Y-64730473D01*
X138791560Y-64743827D01*
X138607600Y-64839999D01*
X138445823Y-64970071D01*
X138441865Y-64974788D01*
X138441863Y-64974790D01*
X138438614Y-64978662D01*
X138312391Y-65129089D01*
X138309427Y-65134481D01*
X138309424Y-65134485D01*
X138305622Y-65141401D01*
X138212387Y-65310995D01*
X138149621Y-65508861D01*
X138148935Y-65514978D01*
X138148934Y-65514982D01*
X138147989Y-65523408D01*
X138131500Y-65670413D01*
X138131500Y-66382237D01*
X137008500Y-66382237D01*
X137008500Y-62582237D01*
X138131500Y-62582237D01*
X138131800Y-62585293D01*
X138131800Y-62585300D01*
X138138807Y-62656759D01*
X138146635Y-62736592D01*
X138206632Y-62935315D01*
X138209527Y-62940760D01*
X138209528Y-62940762D01*
X138220491Y-62961379D01*
X138304087Y-63118599D01*
X138346650Y-63170786D01*
X138431390Y-63274689D01*
X138431393Y-63274692D01*
X138435285Y-63279464D01*
X138440033Y-63283392D01*
X138440034Y-63283393D01*
X138453848Y-63294821D01*
X138595230Y-63411783D01*
X138600647Y-63414712D01*
X138600650Y-63414714D01*
X138772410Y-63507584D01*
X138772415Y-63507586D01*
X138777830Y-63510514D01*
X138976129Y-63571898D01*
X138982254Y-63572542D01*
X138982255Y-63572542D01*
X139176446Y-63592952D01*
X139176448Y-63592952D01*
X139182575Y-63593596D01*
X139268485Y-63585777D01*
X139383164Y-63575341D01*
X139383167Y-63575340D01*
X139389303Y-63574782D01*
X139395209Y-63573044D01*
X139395213Y-63573043D01*
X139582531Y-63517912D01*
X139582530Y-63517912D01*
X139588440Y-63516173D01*
X139772400Y-63420001D01*
X139934177Y-63289929D01*
X139939662Y-63283393D01*
X140063650Y-63135629D01*
X140067609Y-63130911D01*
X140070573Y-63125519D01*
X140070576Y-63125515D01*
X140164646Y-62954402D01*
X140167613Y-62949005D01*
X140230379Y-62751139D01*
X140231350Y-62742489D01*
X140248107Y-62593087D01*
X140248500Y-62589587D01*
X140248500Y-62582237D01*
X146771500Y-62582237D01*
X146771800Y-62585293D01*
X146771800Y-62585300D01*
X146778807Y-62656759D01*
X146786635Y-62736592D01*
X146846632Y-62935315D01*
X146849527Y-62940760D01*
X146849528Y-62940762D01*
X146860491Y-62961379D01*
X146944087Y-63118599D01*
X146986650Y-63170786D01*
X147071390Y-63274689D01*
X147071393Y-63274692D01*
X147075285Y-63279464D01*
X147080033Y-63283392D01*
X147080034Y-63283393D01*
X147093848Y-63294821D01*
X147235230Y-63411783D01*
X147240647Y-63414712D01*
X147240650Y-63414714D01*
X147412410Y-63507584D01*
X147412415Y-63507586D01*
X147417830Y-63510514D01*
X147616129Y-63571898D01*
X147622254Y-63572542D01*
X147622255Y-63572542D01*
X147816446Y-63592952D01*
X147816448Y-63592952D01*
X147822575Y-63593596D01*
X147908485Y-63585777D01*
X148023164Y-63575341D01*
X148023167Y-63575340D01*
X148029303Y-63574782D01*
X148035209Y-63573044D01*
X148035213Y-63573043D01*
X148222531Y-63517912D01*
X148222530Y-63517912D01*
X148228440Y-63516173D01*
X148412400Y-63420001D01*
X148574177Y-63289929D01*
X148579662Y-63283393D01*
X148703650Y-63135629D01*
X148707609Y-63130911D01*
X148710573Y-63125519D01*
X148710576Y-63125515D01*
X148804646Y-62954402D01*
X148807613Y-62949005D01*
X148870379Y-62751139D01*
X148871350Y-62742489D01*
X148888107Y-62593087D01*
X148888500Y-62589587D01*
X148888500Y-62230000D01*
X151801807Y-62230000D01*
X151820542Y-62444142D01*
X151876178Y-62651777D01*
X151878500Y-62656757D01*
X151878501Y-62656759D01*
X151964470Y-62841118D01*
X151967024Y-62846596D01*
X152090319Y-63022681D01*
X152242319Y-63174681D01*
X152418403Y-63297976D01*
X152423381Y-63300297D01*
X152423384Y-63300299D01*
X152608241Y-63386499D01*
X152613223Y-63388822D01*
X152618531Y-63390244D01*
X152618533Y-63390245D01*
X152815543Y-63443034D01*
X152815545Y-63443034D01*
X152820858Y-63444458D01*
X153035000Y-63463193D01*
X153249142Y-63444458D01*
X153254455Y-63443034D01*
X153254457Y-63443034D01*
X153451467Y-63390245D01*
X153451469Y-63390244D01*
X153456777Y-63388822D01*
X153461759Y-63386499D01*
X153646616Y-63300299D01*
X153646619Y-63300297D01*
X153651597Y-63297976D01*
X153827681Y-63174681D01*
X153979681Y-63022681D01*
X154102976Y-62846596D01*
X154105531Y-62841118D01*
X154191499Y-62656759D01*
X154191500Y-62656757D01*
X154193822Y-62651777D01*
X154249458Y-62444142D01*
X154268193Y-62230000D01*
X154249458Y-62015858D01*
X154193822Y-61808223D01*
X154102976Y-61613404D01*
X153979681Y-61437319D01*
X153827681Y-61285319D01*
X153651597Y-61162024D01*
X153646619Y-61159703D01*
X153646616Y-61159701D01*
X153461759Y-61073501D01*
X153461758Y-61073500D01*
X153456777Y-61071178D01*
X153451469Y-61069756D01*
X153451467Y-61069755D01*
X153254457Y-61016966D01*
X153254455Y-61016966D01*
X153249142Y-61015542D01*
X153035000Y-60996807D01*
X152820858Y-61015542D01*
X152815545Y-61016966D01*
X152815543Y-61016966D01*
X152618533Y-61069755D01*
X152618531Y-61069756D01*
X152613223Y-61071178D01*
X152608243Y-61073500D01*
X152608241Y-61073501D01*
X152423385Y-61159701D01*
X152423382Y-61159703D01*
X152418404Y-61162024D01*
X152242319Y-61285319D01*
X152090319Y-61437319D01*
X151967024Y-61613404D01*
X151876178Y-61808223D01*
X151820542Y-62015858D01*
X151801807Y-62230000D01*
X148888500Y-62230000D01*
X148888500Y-61877763D01*
X148887780Y-61870413D01*
X148873966Y-61729534D01*
X148873965Y-61729531D01*
X148873365Y-61723408D01*
X148813368Y-61524685D01*
X148715913Y-61341401D01*
X148648612Y-61258882D01*
X148588610Y-61185311D01*
X148588607Y-61185308D01*
X148584715Y-61180536D01*
X148577770Y-61174790D01*
X148429518Y-61052145D01*
X148429519Y-61052145D01*
X148424770Y-61048217D01*
X148419353Y-61045288D01*
X148419350Y-61045286D01*
X148247590Y-60952416D01*
X148247585Y-60952414D01*
X148242170Y-60949486D01*
X148043871Y-60888102D01*
X148037746Y-60887458D01*
X148037745Y-60887458D01*
X147843554Y-60867048D01*
X147843552Y-60867048D01*
X147837425Y-60866404D01*
X147751515Y-60874223D01*
X147636836Y-60884659D01*
X147636833Y-60884660D01*
X147630697Y-60885218D01*
X147624791Y-60886956D01*
X147624787Y-60886957D01*
X147476932Y-60930473D01*
X147431560Y-60943827D01*
X147247600Y-61039999D01*
X147085823Y-61170071D01*
X147081865Y-61174788D01*
X147081863Y-61174790D01*
X147073035Y-61185311D01*
X146952391Y-61329089D01*
X146949427Y-61334481D01*
X146949424Y-61334485D01*
X146895032Y-61433424D01*
X146852387Y-61510995D01*
X146789621Y-61708861D01*
X146788935Y-61714978D01*
X146788934Y-61714982D01*
X146787989Y-61723408D01*
X146771500Y-61870413D01*
X146771500Y-62582237D01*
X140248500Y-62582237D01*
X140248500Y-61877763D01*
X140247780Y-61870413D01*
X140233966Y-61729534D01*
X140233965Y-61729531D01*
X140233365Y-61723408D01*
X140173368Y-61524685D01*
X140075913Y-61341401D01*
X140008612Y-61258882D01*
X139948610Y-61185311D01*
X139948607Y-61185308D01*
X139944715Y-61180536D01*
X139937770Y-61174790D01*
X139789518Y-61052145D01*
X139789519Y-61052145D01*
X139784770Y-61048217D01*
X139779353Y-61045288D01*
X139779350Y-61045286D01*
X139607590Y-60952416D01*
X139607585Y-60952414D01*
X139602170Y-60949486D01*
X139403871Y-60888102D01*
X139397746Y-60887458D01*
X139397745Y-60887458D01*
X139203554Y-60867048D01*
X139203552Y-60867048D01*
X139197425Y-60866404D01*
X139111515Y-60874223D01*
X138996836Y-60884659D01*
X138996833Y-60884660D01*
X138990697Y-60885218D01*
X138984791Y-60886956D01*
X138984787Y-60886957D01*
X138836932Y-60930473D01*
X138791560Y-60943827D01*
X138607600Y-61039999D01*
X138445823Y-61170071D01*
X138441865Y-61174788D01*
X138441863Y-61174790D01*
X138433035Y-61185311D01*
X138312391Y-61329089D01*
X138309427Y-61334481D01*
X138309424Y-61334485D01*
X138255032Y-61433424D01*
X138212387Y-61510995D01*
X138149621Y-61708861D01*
X138148935Y-61714978D01*
X138148934Y-61714982D01*
X138147989Y-61723408D01*
X138131500Y-61870413D01*
X138131500Y-62582237D01*
X137008500Y-62582237D01*
X137008500Y-60634500D01*
X137028502Y-60566379D01*
X137082158Y-60519886D01*
X137134500Y-60508500D01*
X167365500Y-60508500D01*
X167433621Y-60528502D01*
G37*
G04 #@! TD.AperFunction*
M02*
