M48
; DRILL file {KiCad (6.0.10-0)} date 
; FORMAT={-:-/ absolute / metric / decimal}
; #@! TF.CreationDate,2023-11-26T23:43:00+09:00
; #@! TF.GenerationSoftware,Kicad,Pcbnew,(6.0.10-0)
; #@! TF.FileFunction,Plated,1,2,PTH
FMAT,2
METRIC
; #@! TA.AperFunction,Plated,PTH,ViaDrill
T1C0.400
; #@! TA.AperFunction,Plated,PTH,ComponentDrill
T2C0.600
; #@! TA.AperFunction,Plated,PTH,ComponentDrill
T3C0.800
; #@! TA.AperFunction,Plated,PTH,ComponentDrill
T4C1.000
%
G90
G05
T1
X139.319Y-74.168
X141.986Y-65.5
X142.24Y-77.724
X144.907Y-82.55
X145.0Y-65.5
X147.955Y-87.63
X148.557Y-80.041
X149.925Y-78.105
X151.474Y-84.455
X151.676Y-117.475
X152.4Y-127.0
X153.035Y-125.73
X153.58Y-84.037
X153.698Y-85.443
X155.575Y-90.805
X155.575Y-96.52
X155.989Y-80.216
X156.21Y-72.517
X156.21Y-125.73
X156.229Y-76.835
X156.337Y-82.296
X156.591Y-98.425
X156.718Y-117.983
X156.845Y-86.36
X161.099Y-66.485
X161.47Y-62.05
X161.544Y-63.754
X165.735Y-60.96
T3
X138.664Y-78.994
X141.204Y-78.994
X150.495Y-64.77
X153.035Y-62.23
X153.035Y-67.31
T4
X138.811Y-82.677
X138.811Y-85.217
X138.811Y-87.757
X141.351Y-82.677
X141.351Y-85.217
X141.351Y-87.757
X146.177Y-76.2
X146.177Y-78.74
X146.177Y-81.28
X146.177Y-83.82
X146.177Y-86.36
X149.86Y-70.993
X149.86Y-73.533
X152.4Y-70.993
X152.4Y-73.533
X153.78Y-134.025
X153.78Y-136.525
T2
X139.19Y-61.93G85X139.19Y-62.53
G05
X139.19Y-65.73G85X139.19Y-66.33
G05
X147.83Y-61.93G85X147.83Y-62.53
G05
X147.83Y-65.73G85X147.83Y-66.33
G05
T0
M30
