G04 #@! TF.GenerationSoftware,KiCad,Pcbnew,(6.0.10-0)*
G04 #@! TF.CreationDate,2023-11-26T23:42:56+09:00*
G04 #@! TF.ProjectId,AutoFeeder_Drum-type,4175746f-4665-4656-9465-725f4472756d,01*
G04 #@! TF.SameCoordinates,Original*
G04 #@! TF.FileFunction,Copper,L1,Top*
G04 #@! TF.FilePolarity,Positive*
%FSLAX46Y46*%
G04 Gerber Fmt 4.6, Leading zero omitted, Abs format (unit mm)*
G04 Created by KiCad (PCBNEW (6.0.10-0)) date 2023-11-26 23:42:56*
%MOMM*%
%LPD*%
G01*
G04 APERTURE LIST*
G04 Aperture macros list*
%AMRoundRect*
0 Rectangle with rounded corners*
0 $1 Rounding radius*
0 $2 $3 $4 $5 $6 $7 $8 $9 X,Y pos of 4 corners*
0 Add a 4 corners polygon primitive as box body*
4,1,4,$2,$3,$4,$5,$6,$7,$8,$9,$2,$3,0*
0 Add four circle primitives for the rounded corners*
1,1,$1+$1,$2,$3*
1,1,$1+$1,$4,$5*
1,1,$1+$1,$6,$7*
1,1,$1+$1,$8,$9*
0 Add four rect primitives between the rounded corners*
20,1,$1+$1,$2,$3,$4,$5,0*
20,1,$1+$1,$4,$5,$6,$7,0*
20,1,$1+$1,$6,$7,$8,$9,0*
20,1,$1+$1,$8,$9,$2,$3,0*%
%AMFreePoly0*
4,1,22,0.550000,-0.750000,0.000000,-0.750000,0.000000,-0.745033,-0.079941,-0.743568,-0.215256,-0.701293,-0.333266,-0.622738,-0.424486,-0.514219,-0.481581,-0.384460,-0.499164,-0.250000,-0.500000,-0.250000,-0.500000,0.250000,-0.499164,0.250000,-0.499963,0.256109,-0.478152,0.396186,-0.417904,0.524511,-0.324060,0.630769,-0.204165,0.706417,-0.067858,0.745374,0.000000,0.744959,0.000000,0.750000,
0.550000,0.750000,0.550000,-0.750000,0.550000,-0.750000,$1*%
%AMFreePoly1*
4,1,20,0.000000,0.744959,0.073905,0.744508,0.209726,0.703889,0.328688,0.626782,0.421226,0.519385,0.479903,0.390333,0.500000,0.250000,0.500000,-0.250000,0.499851,-0.262216,0.476331,-0.402017,0.414519,-0.529596,0.319384,-0.634700,0.198574,-0.708877,0.061801,-0.746166,0.000000,-0.745033,0.000000,-0.750000,-0.550000,-0.750000,-0.550000,0.750000,0.000000,0.750000,0.000000,0.744959,
0.000000,0.744959,$1*%
G04 Aperture macros list end*
G04 #@! TA.AperFunction,SMDPad,CuDef*
%ADD10FreePoly0,180.000000*%
G04 #@! TD*
G04 #@! TA.AperFunction,SMDPad,CuDef*
%ADD11R,1.000000X1.500000*%
G04 #@! TD*
G04 #@! TA.AperFunction,SMDPad,CuDef*
%ADD12FreePoly1,180.000000*%
G04 #@! TD*
G04 #@! TA.AperFunction,SMDPad,CuDef*
%ADD13RoundRect,0.225000X-0.250000X0.225000X-0.250000X-0.225000X0.250000X-0.225000X0.250000X0.225000X0*%
G04 #@! TD*
G04 #@! TA.AperFunction,SMDPad,CuDef*
%ADD14RoundRect,0.225000X0.225000X0.250000X-0.225000X0.250000X-0.225000X-0.250000X0.225000X-0.250000X0*%
G04 #@! TD*
G04 #@! TA.AperFunction,SMDPad,CuDef*
%ADD15RoundRect,0.200000X-0.200000X-0.275000X0.200000X-0.275000X0.200000X0.275000X-0.200000X0.275000X0*%
G04 #@! TD*
G04 #@! TA.AperFunction,SMDPad,CuDef*
%ADD16RoundRect,0.250000X-0.250000X-0.475000X0.250000X-0.475000X0.250000X0.475000X-0.250000X0.475000X0*%
G04 #@! TD*
G04 #@! TA.AperFunction,SMDPad,CuDef*
%ADD17RoundRect,0.200000X-0.275000X0.200000X-0.275000X-0.200000X0.275000X-0.200000X0.275000X0.200000X0*%
G04 #@! TD*
G04 #@! TA.AperFunction,SMDPad,CuDef*
%ADD18R,0.400000X0.650000*%
G04 #@! TD*
G04 #@! TA.AperFunction,SMDPad,CuDef*
%ADD19RoundRect,0.200000X0.275000X-0.200000X0.275000X0.200000X-0.275000X0.200000X-0.275000X-0.200000X0*%
G04 #@! TD*
G04 #@! TA.AperFunction,ComponentPad*
%ADD20R,1.700000X1.700000*%
G04 #@! TD*
G04 #@! TA.AperFunction,ComponentPad*
%ADD21O,1.700000X1.700000*%
G04 #@! TD*
G04 #@! TA.AperFunction,SMDPad,CuDef*
%ADD22RoundRect,0.200000X0.200000X0.275000X-0.200000X0.275000X-0.200000X-0.275000X0.200000X-0.275000X0*%
G04 #@! TD*
G04 #@! TA.AperFunction,ComponentPad*
%ADD23C,1.440000*%
G04 #@! TD*
G04 #@! TA.AperFunction,SMDPad,CuDef*
%ADD24RoundRect,0.150000X-0.150000X0.825000X-0.150000X-0.825000X0.150000X-0.825000X0.150000X0.825000X0*%
G04 #@! TD*
G04 #@! TA.AperFunction,ComponentPad*
%ADD25C,1.400000*%
G04 #@! TD*
G04 #@! TA.AperFunction,SMDPad,CuDef*
%ADD26RoundRect,0.150000X0.150000X-0.512500X0.150000X0.512500X-0.150000X0.512500X-0.150000X-0.512500X0*%
G04 #@! TD*
G04 #@! TA.AperFunction,SMDPad,CuDef*
%ADD27R,0.700000X1.200000*%
G04 #@! TD*
G04 #@! TA.AperFunction,SMDPad,CuDef*
%ADD28R,0.760000X1.200000*%
G04 #@! TD*
G04 #@! TA.AperFunction,SMDPad,CuDef*
%ADD29R,0.800000X1.200000*%
G04 #@! TD*
G04 #@! TA.AperFunction,ComponentPad*
%ADD30O,1.100000X1.700000*%
G04 #@! TD*
G04 #@! TA.AperFunction,SMDPad,CuDef*
%ADD31RoundRect,0.150000X-0.825000X-0.150000X0.825000X-0.150000X0.825000X0.150000X-0.825000X0.150000X0*%
G04 #@! TD*
G04 #@! TA.AperFunction,ComponentPad*
%ADD32RoundRect,0.250000X0.750000X-0.600000X0.750000X0.600000X-0.750000X0.600000X-0.750000X-0.600000X0*%
G04 #@! TD*
G04 #@! TA.AperFunction,ComponentPad*
%ADD33O,2.000000X1.700000*%
G04 #@! TD*
G04 #@! TA.AperFunction,SMDPad,CuDef*
%ADD34RoundRect,0.218750X0.256250X-0.218750X0.256250X0.218750X-0.256250X0.218750X-0.256250X-0.218750X0*%
G04 #@! TD*
G04 #@! TA.AperFunction,SMDPad,CuDef*
%ADD35RoundRect,0.225000X0.250000X-0.225000X0.250000X0.225000X-0.250000X0.225000X-0.250000X-0.225000X0*%
G04 #@! TD*
G04 #@! TA.AperFunction,ViaPad*
%ADD36C,0.800000*%
G04 #@! TD*
G04 #@! TA.AperFunction,Conductor*
%ADD37C,0.400000*%
G04 #@! TD*
G04 #@! TA.AperFunction,Conductor*
%ADD38C,0.250000*%
G04 #@! TD*
G04 #@! TA.AperFunction,Conductor*
%ADD39C,0.350000*%
G04 #@! TD*
G04 APERTURE END LIST*
G36*
X155078000Y-118283000D02*
G01*
X154578000Y-118283000D01*
X154578000Y-117683000D01*
X155078000Y-117683000D01*
X155078000Y-118283000D01*
G37*
D10*
X155478000Y-117983000D03*
D11*
X154178000Y-117983000D03*
D12*
X152878000Y-117983000D03*
D13*
X156210000Y-100190000D03*
X156210000Y-101740000D03*
D14*
X153175000Y-77216000D03*
X151625000Y-77216000D03*
D15*
X162370000Y-63754000D03*
X164020000Y-63754000D03*
D16*
X140909000Y-75311000D03*
X142809000Y-75311000D03*
D17*
X162560000Y-66485000D03*
X162560000Y-68135000D03*
X138430000Y-74740000D03*
X138430000Y-76390000D03*
D18*
X154620000Y-105500000D03*
X155380000Y-105500000D03*
X155380000Y-104500000D03*
X154620000Y-104500000D03*
D19*
X156210000Y-95440000D03*
X156210000Y-93790000D03*
D20*
X138811000Y-82677000D03*
D21*
X141351000Y-82677000D03*
X138811000Y-85217000D03*
X141351000Y-85217000D03*
X138811000Y-87757000D03*
X141351000Y-87757000D03*
D22*
X155765000Y-97790000D03*
X154115000Y-97790000D03*
X160210000Y-66548000D03*
X158560000Y-66548000D03*
D20*
X149860000Y-70993000D03*
D21*
X152400000Y-70993000D03*
X149860000Y-73533000D03*
X152400000Y-73533000D03*
D23*
X153035000Y-62230000D03*
X150495000Y-64770000D03*
X153035000Y-67310000D03*
D24*
X156210000Y-123890000D03*
X154940000Y-123890000D03*
X153670000Y-123890000D03*
X152400000Y-123890000D03*
X152400000Y-128840000D03*
X153670000Y-128840000D03*
X154940000Y-128840000D03*
X156210000Y-128840000D03*
D18*
X166120000Y-63050000D03*
X166880000Y-63050000D03*
X166880000Y-62050000D03*
X166120000Y-62050000D03*
D25*
X141204000Y-78994000D03*
X138664000Y-78994000D03*
D20*
X146177000Y-76200000D03*
D21*
X146177000Y-78740000D03*
X146177000Y-81280000D03*
X146177000Y-83820000D03*
X146177000Y-86360000D03*
D26*
X141290000Y-72892500D03*
X142240000Y-72892500D03*
X143190000Y-72892500D03*
X143190000Y-70617500D03*
X142240000Y-70617500D03*
X141290000Y-70617500D03*
D19*
X138430000Y-73215000D03*
X138430000Y-71565000D03*
D27*
X144010000Y-66780000D03*
D28*
X141990000Y-66780000D03*
D29*
X140760000Y-66780000D03*
D27*
X143010000Y-66780000D03*
D28*
X145030000Y-66780000D03*
D29*
X146260000Y-66780000D03*
D30*
X139190000Y-66030000D03*
X139190000Y-62230000D03*
X147830000Y-62230000D03*
X147830000Y-66030000D03*
D16*
X155641000Y-121285000D03*
X157541000Y-121285000D03*
D31*
X149925000Y-79375000D03*
X149925000Y-80645000D03*
X149925000Y-81915000D03*
X149925000Y-83185000D03*
X149925000Y-84455000D03*
X149925000Y-85725000D03*
X149925000Y-86995000D03*
X154875000Y-86995000D03*
X154875000Y-85725000D03*
X154875000Y-84455000D03*
X154875000Y-83185000D03*
X154875000Y-81915000D03*
X154875000Y-80645000D03*
X154875000Y-79375000D03*
D32*
X153780000Y-136525000D03*
D33*
X153780000Y-134025000D03*
D34*
X156210000Y-71272500D03*
X156210000Y-69697500D03*
X156210000Y-75590500D03*
X156210000Y-74015500D03*
D19*
X143510000Y-79819000D03*
X143510000Y-78169000D03*
D35*
X157099000Y-80658000D03*
X157099000Y-79108000D03*
D14*
X164605000Y-60960000D03*
X163055000Y-60960000D03*
D22*
X141541000Y-68707000D03*
X139891000Y-68707000D03*
X160210000Y-61976000D03*
X158560000Y-61976000D03*
D15*
X143320000Y-68707000D03*
X144970000Y-68707000D03*
D36*
X156718000Y-117983000D03*
X165735000Y-60960000D03*
X156591000Y-98425000D03*
X161099000Y-66485000D03*
X145000000Y-65500000D03*
X161544000Y-63754000D03*
X141986000Y-65500000D03*
X139319000Y-74168000D03*
X142240000Y-77724000D03*
X156210000Y-72517000D03*
X155989232Y-80216445D03*
X156845000Y-86360000D03*
X161470000Y-62050000D03*
X151473500Y-84455000D03*
X153035000Y-125730000D03*
X147955000Y-87630000D03*
X152400000Y-127000000D03*
X153580202Y-84036798D03*
X153697836Y-85443164D03*
X155575000Y-96520000D03*
X155575000Y-90805000D03*
X148556879Y-80041498D03*
X144907000Y-82550000D03*
X156228750Y-76835000D03*
X156337000Y-82296000D03*
X149925000Y-78105000D03*
X156210000Y-125730000D03*
X151676000Y-117475000D03*
D37*
X153670000Y-123890000D02*
X153670000Y-122428000D01*
X153670000Y-122428000D02*
X154813000Y-121285000D01*
X154813000Y-121285000D02*
X155641000Y-121285000D01*
X154178000Y-117983000D02*
X154178000Y-119822000D01*
X154178000Y-119822000D02*
X155641000Y-121285000D01*
X156718000Y-117983000D02*
X155478000Y-117983000D01*
X151676000Y-117475000D02*
X152184000Y-117983000D01*
X152184000Y-117983000D02*
X152878000Y-117983000D01*
D38*
X139832500Y-72892500D02*
X141290000Y-72892500D01*
X138430000Y-76390000D02*
X139830000Y-76390000D01*
X138430000Y-73215000D02*
X139510000Y-73215000D01*
X139830000Y-76390000D02*
X140909000Y-75311000D01*
D37*
X140909000Y-75311000D02*
X140909000Y-73721000D01*
X140909000Y-73721000D02*
X141290000Y-73340000D01*
D38*
X139510000Y-73215000D02*
X139832500Y-72892500D01*
D37*
X141290000Y-73340000D02*
X141290000Y-72892500D01*
D38*
X144780000Y-81280000D02*
X144780000Y-80010000D01*
X150936751Y-81280000D02*
X153797000Y-79375000D01*
X166880000Y-63050000D02*
X166880000Y-64260000D01*
X166880000Y-64260000D02*
X166370000Y-64770000D01*
X144780000Y-80010000D02*
X147320000Y-80010000D01*
X156067500Y-105500000D02*
X156210000Y-105357500D01*
D39*
X142809000Y-75311000D02*
X142621000Y-75123000D01*
X142621000Y-75123000D02*
X142621000Y-74422000D01*
X142240000Y-74041000D02*
X142240000Y-72892500D01*
D38*
X146177000Y-81280000D02*
X144780000Y-81280000D01*
X155575000Y-64770000D02*
X153035000Y-67310000D01*
X166370000Y-64770000D02*
X155575000Y-64770000D01*
X155380000Y-105500000D02*
X156067500Y-105500000D01*
D39*
X142621000Y-74422000D02*
X142240000Y-74041000D01*
D38*
X153797000Y-79375000D02*
X154875000Y-79375000D01*
X156210000Y-105357500D02*
X156210000Y-101740000D01*
X146177000Y-81280000D02*
X150936751Y-81280000D01*
D37*
X141990000Y-65504000D02*
X141990000Y-66780000D01*
D38*
X161544000Y-63754000D02*
X162370000Y-63754000D01*
X161099000Y-66485000D02*
X160273000Y-66485000D01*
X156400000Y-98425000D02*
X155765000Y-97790000D01*
X165735000Y-60960000D02*
X166605000Y-60960000D01*
X166605000Y-60960000D02*
X166880000Y-61235000D01*
X166880000Y-61235000D02*
X166880000Y-62050000D01*
X160273000Y-66485000D02*
X160210000Y-66548000D01*
X156591000Y-98425000D02*
X156400000Y-98425000D01*
D37*
X145000000Y-65500000D02*
X145030000Y-65530000D01*
D38*
X156210000Y-100190000D02*
X155380000Y-100190000D01*
X155380000Y-100190000D02*
X155380000Y-104500000D01*
X156591000Y-98425000D02*
X156210000Y-98806000D01*
D37*
X145030000Y-65530000D02*
X145030000Y-66780000D01*
D38*
X165735000Y-60960000D02*
X164605000Y-60960000D01*
X156210000Y-98806000D02*
X156210000Y-100190000D01*
X138747000Y-74740000D02*
X138430000Y-74740000D01*
X139319000Y-74168000D02*
X138747000Y-74740000D01*
X161099000Y-66485000D02*
X162560000Y-66485000D01*
D37*
X141986000Y-65500000D02*
X141990000Y-65504000D01*
D38*
X142240000Y-77724000D02*
X142240000Y-78549000D01*
X142240000Y-78549000D02*
X143510000Y-79819000D01*
X146810604Y-85090000D02*
X148715604Y-83185000D01*
X143510000Y-83058000D02*
X145542000Y-85090000D01*
X151003000Y-83185000D02*
X153797000Y-81270000D01*
X156487000Y-81270000D02*
X157099000Y-80658000D01*
X148715604Y-83185000D02*
X149925000Y-83185000D01*
X149925000Y-83185000D02*
X151003000Y-83185000D01*
X145542000Y-85090000D02*
X146810604Y-85090000D01*
X143510000Y-79819000D02*
X143510000Y-83058000D01*
X153797000Y-81270000D02*
X156487000Y-81270000D01*
X144010000Y-66780000D02*
X144010000Y-67445000D01*
X143320000Y-70487500D02*
X143190000Y-70617500D01*
X143320000Y-68135000D02*
X143320000Y-68707000D01*
X143320000Y-68707000D02*
X143320000Y-70487500D01*
X144010000Y-67445000D02*
X143320000Y-68135000D01*
X142240000Y-68326000D02*
X143010000Y-67556000D01*
X143010000Y-67556000D02*
X143010000Y-66780000D01*
X142240000Y-68707000D02*
X142240000Y-68326000D01*
X141541000Y-68707000D02*
X142240000Y-68707000D01*
X142240000Y-69596000D02*
X142240000Y-68707000D01*
X142240000Y-70617500D02*
X142240000Y-69596000D01*
X154875000Y-80645000D02*
X153797000Y-80645000D01*
X155560677Y-80645000D02*
X154875000Y-80645000D01*
X156210000Y-72517000D02*
X156210000Y-71272500D01*
X153797000Y-80645000D02*
X151003000Y-82550000D01*
X151003000Y-82550000D02*
X147447000Y-82550000D01*
X155989232Y-80216445D02*
X155560677Y-80645000D01*
X147447000Y-82550000D02*
X146177000Y-83820000D01*
X158560000Y-66548000D02*
X158052000Y-66548000D01*
X156210000Y-68390000D02*
X156210000Y-69697500D01*
X158052000Y-66548000D02*
X156210000Y-68390000D01*
X141290000Y-70617500D02*
X140583500Y-70617500D01*
X140583500Y-70617500D02*
X139636000Y-71565000D01*
X139636000Y-71565000D02*
X138430000Y-71565000D01*
X164724000Y-63050000D02*
X164020000Y-63754000D01*
X166120000Y-63050000D02*
X164724000Y-63050000D01*
X154875000Y-86995000D02*
X156210000Y-86995000D01*
X160284000Y-62050000D02*
X160210000Y-61976000D01*
X161470000Y-62050000D02*
X166120000Y-62050000D01*
X161470000Y-62050000D02*
X160284000Y-62050000D01*
X156210000Y-86995000D02*
X156845000Y-86360000D01*
X152400000Y-125095000D02*
X153035000Y-125730000D01*
X151473500Y-84455000D02*
X149925000Y-84455000D01*
X152400000Y-123890000D02*
X152400000Y-125095000D01*
X147955000Y-87630000D02*
X147955000Y-86839124D01*
X147955000Y-86839124D02*
X149069124Y-85725000D01*
X152400000Y-127000000D02*
X152400000Y-128840000D01*
X149069124Y-85725000D02*
X149925000Y-85725000D01*
X153580202Y-84036798D02*
X154051000Y-84455000D01*
X154051000Y-84455000D02*
X154875000Y-84455000D01*
X154137896Y-85725000D02*
X154875000Y-85725000D01*
X153697836Y-85443164D02*
X154137896Y-85725000D01*
X154095000Y-97810000D02*
X154115000Y-97790000D01*
X154095000Y-105410000D02*
X154095000Y-97810000D01*
X154620000Y-105500000D02*
X154185000Y-105500000D01*
X154185000Y-105500000D02*
X154095000Y-105410000D01*
X154940000Y-99060000D02*
X154620000Y-99380000D01*
X155575000Y-96075000D02*
X156210000Y-95440000D01*
X154940000Y-97155000D02*
X154940000Y-99060000D01*
X149925000Y-86995000D02*
X155575000Y-90805000D01*
X155575000Y-96520000D02*
X155575000Y-96075000D01*
X154620000Y-99380000D02*
X154620000Y-104500000D01*
X155575000Y-96520000D02*
X154940000Y-97155000D01*
X148717000Y-80645000D02*
X149925000Y-80645000D01*
X148556879Y-80041498D02*
X148556879Y-80484879D01*
X148556879Y-80484879D02*
X148717000Y-80645000D01*
X144907000Y-82550000D02*
X146810604Y-82550000D01*
X147445604Y-81915000D02*
X149925000Y-81915000D01*
X146810604Y-82550000D02*
X147445604Y-81915000D01*
X151257000Y-85344000D02*
X151013000Y-85100000D01*
X147447000Y-86233000D02*
X147447000Y-86995000D01*
X152527000Y-84899500D02*
X152082500Y-85344000D01*
X146812000Y-87630000D02*
X141478000Y-87630000D01*
X148580000Y-85100000D02*
X147447000Y-86233000D01*
X152527000Y-83947000D02*
X152527000Y-84899500D01*
X154875000Y-83185000D02*
X153289000Y-83185000D01*
X141478000Y-87630000D02*
X141351000Y-87757000D01*
X147447000Y-86995000D02*
X146812000Y-87630000D01*
X152082500Y-85344000D02*
X151257000Y-85344000D01*
X153289000Y-83185000D02*
X152527000Y-83947000D01*
X151013000Y-85100000D02*
X148580000Y-85100000D01*
X156210000Y-76816250D02*
X156210000Y-75590500D01*
X148717000Y-83820000D02*
X146177000Y-86360000D01*
X154875000Y-81915000D02*
X153797000Y-81915000D01*
X156337000Y-82296000D02*
X155956000Y-81915000D01*
X153797000Y-81915000D02*
X151003000Y-83820000D01*
X155956000Y-81915000D02*
X154875000Y-81915000D01*
X156228750Y-76835000D02*
X156210000Y-76816250D01*
X151003000Y-83820000D02*
X148717000Y-83820000D01*
X162560000Y-68135000D02*
X158242500Y-68135000D01*
X157480000Y-68897500D02*
X157480000Y-72745500D01*
X157480000Y-72745500D02*
X156210000Y-74015500D01*
X158242500Y-68135000D02*
X157480000Y-68897500D01*
D37*
X146177000Y-78740000D02*
X148610000Y-76307000D01*
D38*
X144463000Y-78169000D02*
X145034000Y-78740000D01*
D37*
X148610000Y-72243000D02*
X149860000Y-70993000D01*
D38*
X145034000Y-78740000D02*
X146177000Y-78740000D01*
D37*
X148610000Y-76307000D02*
X148610000Y-72243000D01*
X149925000Y-78105000D02*
X149925000Y-79375000D01*
X149925000Y-78105000D02*
X150814000Y-77216000D01*
D38*
X143510000Y-78169000D02*
X144463000Y-78169000D01*
D37*
X150814000Y-77216000D02*
X151625000Y-77216000D01*
X156210000Y-123890000D02*
X156210000Y-125730000D01*
X154940000Y-128840000D02*
X154940000Y-132865000D01*
X154940000Y-132865000D02*
X153780000Y-134025000D01*
D38*
X158560000Y-61976000D02*
X158496000Y-62040000D01*
X153225000Y-62040000D02*
X153035000Y-62230000D01*
X158496000Y-62040000D02*
X153225000Y-62040000D01*
D37*
X154940000Y-123890000D02*
X154940000Y-121986000D01*
X154940000Y-125730000D02*
X153670000Y-127000000D01*
X153670000Y-127000000D02*
X153670000Y-128840000D01*
X154940000Y-123890000D02*
X154940000Y-125730000D01*
X154940000Y-121986000D02*
X155641000Y-121285000D01*
G04 #@! TA.AperFunction,Conductor*
G36*
X162041207Y-60528502D02*
G01*
X162087700Y-60582158D01*
X162098430Y-60647345D01*
X162097327Y-60658104D01*
X162097000Y-60664514D01*
X162097000Y-60687885D01*
X162101475Y-60703124D01*
X162102865Y-60704329D01*
X162110548Y-60706000D01*
X163183000Y-60706000D01*
X163251121Y-60726002D01*
X163297614Y-60779658D01*
X163309000Y-60832000D01*
X163309000Y-61088000D01*
X163288998Y-61156121D01*
X163235342Y-61202614D01*
X163183000Y-61214000D01*
X162115115Y-61214000D01*
X162099876Y-61218475D01*
X162086477Y-61233938D01*
X162026750Y-61272322D01*
X161955754Y-61272322D01*
X161930171Y-61261366D01*
X161926752Y-61258882D01*
X161877636Y-61237014D01*
X161758319Y-61183891D01*
X161758318Y-61183891D01*
X161752288Y-61181206D01*
X161658887Y-61161353D01*
X161571944Y-61142872D01*
X161571939Y-61142872D01*
X161565487Y-61141500D01*
X161374513Y-61141500D01*
X161368061Y-61142872D01*
X161368056Y-61142872D01*
X161281113Y-61161353D01*
X161187712Y-61181206D01*
X161062364Y-61237014D01*
X160991999Y-61246448D01*
X160927702Y-61216342D01*
X160922022Y-61211002D01*
X160850381Y-61139361D01*
X160703699Y-61050528D01*
X160696452Y-61048257D01*
X160696450Y-61048256D01*
X160592059Y-61015542D01*
X160540062Y-60999247D01*
X160466635Y-60992500D01*
X160463737Y-60992500D01*
X160209335Y-60992501D01*
X159953366Y-60992501D01*
X159950508Y-60992764D01*
X159950499Y-60992764D01*
X159914996Y-60996026D01*
X159879938Y-60999247D01*
X159873560Y-61001246D01*
X159873559Y-61001246D01*
X159723550Y-61048256D01*
X159723548Y-61048257D01*
X159716301Y-61050528D01*
X159569619Y-61139361D01*
X159474095Y-61234885D01*
X159411783Y-61268911D01*
X159340968Y-61263846D01*
X159295905Y-61234885D01*
X159200381Y-61139361D01*
X159053699Y-61050528D01*
X159046452Y-61048257D01*
X159046450Y-61048256D01*
X158942059Y-61015542D01*
X158890062Y-60999247D01*
X158816635Y-60992500D01*
X158813737Y-60992500D01*
X158559335Y-60992501D01*
X158303366Y-60992501D01*
X158300508Y-60992764D01*
X158300499Y-60992764D01*
X158264996Y-60996026D01*
X158229938Y-60999247D01*
X158223560Y-61001246D01*
X158223559Y-61001246D01*
X158073550Y-61048256D01*
X158073548Y-61048257D01*
X158066301Y-61050528D01*
X157919619Y-61139361D01*
X157798361Y-61260619D01*
X157759580Y-61324656D01*
X157746792Y-61345771D01*
X157694395Y-61393677D01*
X157639016Y-61406500D01*
X154001052Y-61406500D01*
X153932931Y-61386498D01*
X153911957Y-61369595D01*
X153827681Y-61285319D01*
X153651597Y-61162024D01*
X153646619Y-61159703D01*
X153646616Y-61159701D01*
X153461759Y-61073501D01*
X153461758Y-61073500D01*
X153456777Y-61071178D01*
X153451469Y-61069756D01*
X153451467Y-61069755D01*
X153254457Y-61016966D01*
X153254455Y-61016966D01*
X153249142Y-61015542D01*
X153035000Y-60996807D01*
X152820858Y-61015542D01*
X152815545Y-61016966D01*
X152815543Y-61016966D01*
X152618533Y-61069755D01*
X152618531Y-61069756D01*
X152613223Y-61071178D01*
X152608243Y-61073500D01*
X152608241Y-61073501D01*
X152423385Y-61159701D01*
X152423382Y-61159703D01*
X152418404Y-61162024D01*
X152242319Y-61285319D01*
X152090319Y-61437319D01*
X151967024Y-61613404D01*
X151964703Y-61618382D01*
X151964701Y-61618385D01*
X151912822Y-61729639D01*
X151876178Y-61808223D01*
X151874756Y-61813531D01*
X151874755Y-61813533D01*
X151831670Y-61974329D01*
X151820542Y-62015858D01*
X151801807Y-62230000D01*
X151820542Y-62444142D01*
X151821966Y-62449455D01*
X151821966Y-62449457D01*
X151856711Y-62579124D01*
X151876178Y-62651777D01*
X151878500Y-62656757D01*
X151878501Y-62656759D01*
X151964470Y-62841118D01*
X151967024Y-62846596D01*
X152090319Y-63022681D01*
X152242319Y-63174681D01*
X152418403Y-63297976D01*
X152423381Y-63300297D01*
X152423384Y-63300299D01*
X152587272Y-63376721D01*
X152613223Y-63388822D01*
X152618531Y-63390244D01*
X152618533Y-63390245D01*
X152815543Y-63443034D01*
X152815545Y-63443034D01*
X152820858Y-63444458D01*
X153035000Y-63463193D01*
X153249142Y-63444458D01*
X153254455Y-63443034D01*
X153254457Y-63443034D01*
X153451467Y-63390245D01*
X153451469Y-63390244D01*
X153456777Y-63388822D01*
X153482728Y-63376721D01*
X153646616Y-63300299D01*
X153646619Y-63300297D01*
X153651597Y-63297976D01*
X153827681Y-63174681D01*
X153979681Y-63022681D01*
X154102976Y-62846596D01*
X154105531Y-62841118D01*
X154138460Y-62770500D01*
X154149768Y-62746250D01*
X154196685Y-62692965D01*
X154263963Y-62673500D01*
X157728290Y-62673500D01*
X157796411Y-62693502D01*
X157817385Y-62710405D01*
X157919619Y-62812639D01*
X158066301Y-62901472D01*
X158073548Y-62903743D01*
X158073550Y-62903744D01*
X158120551Y-62918473D01*
X158229938Y-62952753D01*
X158303365Y-62959500D01*
X158306263Y-62959500D01*
X158560665Y-62959499D01*
X158816634Y-62959499D01*
X158819492Y-62959236D01*
X158819501Y-62959236D01*
X158855004Y-62955974D01*
X158890062Y-62952753D01*
X158985843Y-62922737D01*
X159046450Y-62903744D01*
X159046452Y-62903743D01*
X159053699Y-62901472D01*
X159200381Y-62812639D01*
X159295905Y-62717115D01*
X159358217Y-62683089D01*
X159429032Y-62688154D01*
X159474095Y-62717115D01*
X159569619Y-62812639D01*
X159716301Y-62901472D01*
X159723548Y-62903743D01*
X159723550Y-62903744D01*
X159770551Y-62918473D01*
X159879938Y-62952753D01*
X159953365Y-62959500D01*
X159956263Y-62959500D01*
X160210665Y-62959499D01*
X160466634Y-62959499D01*
X160469492Y-62959236D01*
X160469501Y-62959236D01*
X160505004Y-62955974D01*
X160540062Y-62952753D01*
X160635843Y-62922737D01*
X160696450Y-62903744D01*
X160696452Y-62903743D01*
X160703699Y-62901472D01*
X160846223Y-62815157D01*
X160914853Y-62796978D01*
X160985561Y-62821002D01*
X160993748Y-62826951D01*
X161037099Y-62883176D01*
X161043170Y-62953912D01*
X161010034Y-63016702D01*
X160993746Y-63030816D01*
X160932747Y-63075134D01*
X160928326Y-63080044D01*
X160928325Y-63080045D01*
X160843115Y-63174681D01*
X160804960Y-63217056D01*
X160709473Y-63382444D01*
X160650458Y-63564072D01*
X160649768Y-63570633D01*
X160649768Y-63570635D01*
X160631822Y-63741380D01*
X160630496Y-63754000D01*
X160631186Y-63760565D01*
X160647745Y-63918111D01*
X160650458Y-63943928D01*
X160709473Y-64125556D01*
X160712776Y-64131278D01*
X160712777Y-64131279D01*
X160746686Y-64190010D01*
X160804960Y-64290944D01*
X160932747Y-64432866D01*
X161087248Y-64545118D01*
X161093276Y-64547802D01*
X161093278Y-64547803D01*
X161198333Y-64594576D01*
X161261712Y-64622794D01*
X161342763Y-64640022D01*
X161442056Y-64661128D01*
X161442061Y-64661128D01*
X161448513Y-64662500D01*
X161639487Y-64662500D01*
X161645940Y-64661128D01*
X161645944Y-64661128D01*
X161745238Y-64640022D01*
X161816029Y-64645424D01*
X161836704Y-64655491D01*
X161876301Y-64679472D01*
X161883548Y-64681743D01*
X161883550Y-64681744D01*
X161949836Y-64702517D01*
X162039938Y-64730753D01*
X162113365Y-64737500D01*
X162116263Y-64737500D01*
X162370665Y-64737499D01*
X162626634Y-64737499D01*
X162629492Y-64737236D01*
X162629501Y-64737236D01*
X162665004Y-64733974D01*
X162700062Y-64730753D01*
X162734525Y-64719953D01*
X162856450Y-64681744D01*
X162856452Y-64681743D01*
X162863699Y-64679472D01*
X163010381Y-64590639D01*
X163105905Y-64495115D01*
X163168217Y-64461089D01*
X163239032Y-64466154D01*
X163284095Y-64495115D01*
X163379619Y-64590639D01*
X163526301Y-64679472D01*
X163533548Y-64681743D01*
X163533550Y-64681744D01*
X163599836Y-64702517D01*
X163689938Y-64730753D01*
X163763365Y-64737500D01*
X163766263Y-64737500D01*
X164020665Y-64737499D01*
X164276634Y-64737499D01*
X164279492Y-64737236D01*
X164279501Y-64737236D01*
X164315004Y-64733974D01*
X164350062Y-64730753D01*
X164384525Y-64719953D01*
X164506450Y-64681744D01*
X164506452Y-64681743D01*
X164513699Y-64679472D01*
X164660381Y-64590639D01*
X164781639Y-64469381D01*
X164870472Y-64322699D01*
X164878886Y-64295852D01*
X164919752Y-64165446D01*
X164921753Y-64159062D01*
X164928500Y-64085635D01*
X164928499Y-63809499D01*
X164948501Y-63741380D01*
X165002156Y-63694887D01*
X165054499Y-63683500D01*
X165452671Y-63683500D01*
X165520792Y-63703502D01*
X165544332Y-63725407D01*
X165545008Y-63724731D01*
X165551358Y-63731081D01*
X165556739Y-63738261D01*
X165673295Y-63825615D01*
X165809684Y-63876745D01*
X165871866Y-63883500D01*
X166368134Y-63883500D01*
X166372746Y-63882999D01*
X166422466Y-63877598D01*
X166422468Y-63877598D01*
X166430316Y-63876745D01*
X166449770Y-63869452D01*
X166456485Y-63866935D01*
X166527292Y-63861753D01*
X166544939Y-63866935D01*
X166562399Y-63873480D01*
X166577643Y-63877105D01*
X166628514Y-63882631D01*
X166635328Y-63883000D01*
X166661885Y-63883000D01*
X166677124Y-63878525D01*
X166678329Y-63877135D01*
X166680000Y-63869452D01*
X166680000Y-63784588D01*
X166700002Y-63716467D01*
X166705174Y-63709023D01*
X166765229Y-63628892D01*
X166765230Y-63628890D01*
X166770615Y-63621705D01*
X166821745Y-63485316D01*
X166828500Y-63423134D01*
X166829019Y-63423190D01*
X166851841Y-63358613D01*
X166907933Y-63315089D01*
X166978650Y-63308801D01*
X167041541Y-63341743D01*
X167076639Y-63403458D01*
X167080000Y-63432366D01*
X167080000Y-63864884D01*
X167084475Y-63880123D01*
X167085865Y-63881328D01*
X167093548Y-63882999D01*
X167124669Y-63882999D01*
X167131490Y-63882629D01*
X167182352Y-63877105D01*
X167197603Y-63873479D01*
X167321270Y-63827118D01*
X167392077Y-63821935D01*
X167454446Y-63855856D01*
X167488576Y-63918111D01*
X167491500Y-63945100D01*
X167491500Y-69237183D01*
X167471498Y-69305304D01*
X167454595Y-69326278D01*
X167326278Y-69454595D01*
X167263966Y-69488621D01*
X167237183Y-69491500D01*
X159008623Y-69491500D01*
X159007853Y-69491498D01*
X159007037Y-69491493D01*
X158930279Y-69491024D01*
X158907918Y-69497415D01*
X158901847Y-69499150D01*
X158885085Y-69502728D01*
X158855813Y-69506920D01*
X158847645Y-69510634D01*
X158847644Y-69510634D01*
X158832438Y-69517548D01*
X158814914Y-69523996D01*
X158790229Y-69531051D01*
X158782635Y-69535843D01*
X158782632Y-69535844D01*
X158765220Y-69546830D01*
X158750137Y-69554969D01*
X158723218Y-69567208D01*
X158707738Y-69580547D01*
X158703765Y-69583970D01*
X158688761Y-69595073D01*
X158667042Y-69608776D01*
X158661103Y-69615501D01*
X158661099Y-69615504D01*
X158647468Y-69630938D01*
X158635276Y-69642982D01*
X158619673Y-69656427D01*
X158619671Y-69656430D01*
X158612873Y-69662287D01*
X158607993Y-69669816D01*
X158607992Y-69669817D01*
X158598906Y-69683835D01*
X158587615Y-69698709D01*
X158579398Y-69708014D01*
X158570622Y-69717951D01*
X158562518Y-69735212D01*
X158558058Y-69744711D01*
X158549737Y-69759691D01*
X158538529Y-69776983D01*
X158538527Y-69776988D01*
X158533648Y-69784515D01*
X158531078Y-69793108D01*
X158531076Y-69793113D01*
X158526289Y-69809120D01*
X158519628Y-69826564D01*
X158512663Y-69841399D01*
X158508719Y-69849800D01*
X158505012Y-69873610D01*
X158504170Y-69879015D01*
X158500387Y-69895732D01*
X158494485Y-69915466D01*
X158494484Y-69915472D01*
X158491914Y-69924066D01*
X158491859Y-69933037D01*
X158491859Y-69933038D01*
X158491704Y-69958497D01*
X158491671Y-69959289D01*
X158491500Y-69960386D01*
X158491500Y-69991377D01*
X158491498Y-69992147D01*
X158491142Y-70050490D01*
X158491024Y-70069721D01*
X158491408Y-70071065D01*
X158491500Y-70072410D01*
X158491500Y-105374000D01*
X158471498Y-105442121D01*
X158417842Y-105488614D01*
X158365500Y-105500000D01*
X156971000Y-105500000D01*
X156902879Y-105479998D01*
X156856386Y-105426342D01*
X156845000Y-105374000D01*
X156845000Y-102658982D01*
X156865002Y-102590861D01*
X156904699Y-102551837D01*
X156912172Y-102547212D01*
X156923574Y-102538176D01*
X157033986Y-102427571D01*
X157042998Y-102416160D01*
X157125004Y-102283120D01*
X157131151Y-102269939D01*
X157180491Y-102121186D01*
X157183358Y-102107810D01*
X157192672Y-102016903D01*
X157192929Y-102011874D01*
X157188525Y-101996876D01*
X157187135Y-101995671D01*
X157179452Y-101994000D01*
X156139500Y-101994000D01*
X156071379Y-101973998D01*
X156024886Y-101920342D01*
X156013500Y-101868000D01*
X156013500Y-101612000D01*
X156033502Y-101543879D01*
X156087158Y-101497386D01*
X156139500Y-101486000D01*
X157174885Y-101486000D01*
X157190124Y-101481525D01*
X157191329Y-101480135D01*
X157193000Y-101472452D01*
X157193000Y-101469562D01*
X157192663Y-101463047D01*
X157183106Y-101370943D01*
X157180212Y-101357544D01*
X157130619Y-101208893D01*
X157124445Y-101195714D01*
X157042212Y-101062827D01*
X157028629Y-101045689D01*
X157030559Y-101044159D01*
X157002097Y-100992120D01*
X157007113Y-100921301D01*
X157030799Y-100884383D01*
X157029843Y-100883628D01*
X157034381Y-100877882D01*
X157039552Y-100872702D01*
X157129302Y-100727101D01*
X157183149Y-100564757D01*
X157193500Y-100463732D01*
X157193500Y-99916268D01*
X157182887Y-99813981D01*
X157128756Y-99651732D01*
X157038752Y-99506287D01*
X156970377Y-99438031D01*
X156936298Y-99375750D01*
X156941301Y-99304930D01*
X156983797Y-99248057D01*
X157008146Y-99233753D01*
X157041714Y-99218807D01*
X157041719Y-99218804D01*
X157047752Y-99216118D01*
X157202253Y-99103866D01*
X157213918Y-99090911D01*
X157325621Y-98966852D01*
X157325622Y-98966851D01*
X157330040Y-98961944D01*
X157425527Y-98796556D01*
X157484542Y-98614928D01*
X157504504Y-98425000D01*
X157484542Y-98235072D01*
X157425527Y-98053444D01*
X157330040Y-97888056D01*
X157202253Y-97746134D01*
X157047752Y-97633882D01*
X157041724Y-97631198D01*
X157041722Y-97631197D01*
X156879319Y-97558891D01*
X156879318Y-97558891D01*
X156873288Y-97556206D01*
X156769471Y-97534139D01*
X156706998Y-97500411D01*
X156672676Y-97438261D01*
X156670196Y-97422418D01*
X156667364Y-97391592D01*
X156666753Y-97384938D01*
X156615472Y-97221301D01*
X156526639Y-97074619D01*
X156447951Y-96995931D01*
X156413925Y-96933619D01*
X156417213Y-96867902D01*
X156468542Y-96709928D01*
X156472341Y-96673788D01*
X156487814Y-96526565D01*
X156488504Y-96520000D01*
X156484503Y-96481936D01*
X156497275Y-96412099D01*
X156545776Y-96360252D01*
X156598286Y-96343294D01*
X156615062Y-96341753D01*
X156621441Y-96339754D01*
X156771450Y-96292744D01*
X156771452Y-96292743D01*
X156778699Y-96290472D01*
X156925381Y-96201639D01*
X157046639Y-96080381D01*
X157135472Y-95933699D01*
X157186753Y-95770062D01*
X157193500Y-95696635D01*
X157193499Y-95183366D01*
X157193234Y-95180474D01*
X157187364Y-95116592D01*
X157186753Y-95109938D01*
X157135472Y-94946301D01*
X157046639Y-94799619D01*
X156950761Y-94703741D01*
X156916735Y-94641429D01*
X156921800Y-94570614D01*
X156950761Y-94525551D01*
X157040869Y-94435443D01*
X157050176Y-94423574D01*
X157131079Y-94289988D01*
X157137285Y-94276243D01*
X157184256Y-94126356D01*
X157186869Y-94113306D01*
X157191913Y-94058414D01*
X157188525Y-94046876D01*
X157187135Y-94045671D01*
X157179452Y-94044000D01*
X155245116Y-94044000D01*
X155229877Y-94048475D01*
X155228672Y-94049865D01*
X155227709Y-94054294D01*
X155233132Y-94113315D01*
X155235743Y-94126351D01*
X155282715Y-94276243D01*
X155288921Y-94289988D01*
X155369824Y-94423574D01*
X155379131Y-94435443D01*
X155469239Y-94525551D01*
X155503265Y-94587863D01*
X155498200Y-94658678D01*
X155469239Y-94703741D01*
X155373361Y-94799619D01*
X155284528Y-94946301D01*
X155233247Y-95109938D01*
X155226500Y-95183365D01*
X155226500Y-95186263D01*
X155226501Y-95475403D01*
X155206499Y-95543523D01*
X155189596Y-95564498D01*
X155182742Y-95571352D01*
X155174462Y-95578887D01*
X155167982Y-95583000D01*
X155121357Y-95632651D01*
X155118602Y-95635493D01*
X155098865Y-95655230D01*
X155096385Y-95658427D01*
X155088682Y-95667447D01*
X155058414Y-95699679D01*
X155054595Y-95706625D01*
X155054593Y-95706628D01*
X155048652Y-95717434D01*
X155037801Y-95733953D01*
X155025386Y-95749959D01*
X155022240Y-95757229D01*
X155022237Y-95757234D01*
X155009792Y-95785992D01*
X154973082Y-95831818D01*
X154973997Y-95832834D01*
X154969092Y-95837250D01*
X154963747Y-95841134D01*
X154835960Y-95983056D01*
X154740473Y-96148444D01*
X154681458Y-96330072D01*
X154665497Y-96481938D01*
X154664093Y-96495292D01*
X154637080Y-96560949D01*
X154627878Y-96571217D01*
X154547747Y-96651348D01*
X154539461Y-96658888D01*
X154532982Y-96663000D01*
X154522851Y-96673789D01*
X154461640Y-96709755D01*
X154390700Y-96706918D01*
X154332555Y-96666179D01*
X154305666Y-96600472D01*
X154305000Y-96587537D01*
X154305000Y-93521586D01*
X155228087Y-93521586D01*
X155231475Y-93533124D01*
X155232865Y-93534329D01*
X155240548Y-93536000D01*
X155937885Y-93536000D01*
X155953124Y-93531525D01*
X155954329Y-93530135D01*
X155956000Y-93522452D01*
X155956000Y-93517885D01*
X156464000Y-93517885D01*
X156468475Y-93533124D01*
X156469865Y-93534329D01*
X156477548Y-93536000D01*
X157174884Y-93536000D01*
X157190123Y-93531525D01*
X157191328Y-93530135D01*
X157192291Y-93525706D01*
X157186868Y-93466685D01*
X157184257Y-93453649D01*
X157137285Y-93303757D01*
X157131079Y-93290012D01*
X157050176Y-93156426D01*
X157040869Y-93144557D01*
X156930443Y-93034131D01*
X156918574Y-93024824D01*
X156784988Y-92943921D01*
X156771243Y-92937715D01*
X156621356Y-92890744D01*
X156608306Y-92888131D01*
X156544479Y-92882266D01*
X156538691Y-92882000D01*
X156482115Y-92882000D01*
X156466876Y-92886475D01*
X156465671Y-92887865D01*
X156464000Y-92895548D01*
X156464000Y-93517885D01*
X155956000Y-93517885D01*
X155956000Y-92900116D01*
X155951525Y-92884877D01*
X155950135Y-92883672D01*
X155942452Y-92882001D01*
X155881295Y-92882001D01*
X155875546Y-92882264D01*
X155811685Y-92888132D01*
X155798649Y-92890743D01*
X155648757Y-92937715D01*
X155635012Y-92943921D01*
X155501426Y-93024824D01*
X155489557Y-93034131D01*
X155379131Y-93144557D01*
X155369824Y-93156426D01*
X155288921Y-93290012D01*
X155282715Y-93303757D01*
X155235744Y-93453644D01*
X155233131Y-93466694D01*
X155228087Y-93521586D01*
X154305000Y-93521586D01*
X154305000Y-90949608D01*
X154325002Y-90881487D01*
X154378658Y-90834994D01*
X154448932Y-90824890D01*
X154501444Y-90845140D01*
X154592844Y-90906775D01*
X154633664Y-90934301D01*
X154678960Y-90988971D01*
X154683051Y-90999831D01*
X154740473Y-91176556D01*
X154835960Y-91341944D01*
X154963747Y-91483866D01*
X155118248Y-91596118D01*
X155124276Y-91598802D01*
X155124278Y-91598803D01*
X155286681Y-91671109D01*
X155292712Y-91673794D01*
X155386113Y-91693647D01*
X155473056Y-91712128D01*
X155473061Y-91712128D01*
X155479513Y-91713500D01*
X155670487Y-91713500D01*
X155676939Y-91712128D01*
X155676944Y-91712128D01*
X155763887Y-91693647D01*
X155857288Y-91673794D01*
X155863319Y-91671109D01*
X156025722Y-91598803D01*
X156025724Y-91598802D01*
X156031752Y-91596118D01*
X156186253Y-91483866D01*
X156314040Y-91341944D01*
X156409527Y-91176556D01*
X156468542Y-90994928D01*
X156471755Y-90964364D01*
X156487814Y-90811565D01*
X156488504Y-90805000D01*
X156468542Y-90615072D01*
X156409527Y-90433444D01*
X156314040Y-90268056D01*
X156186253Y-90126134D01*
X156031752Y-90013882D01*
X156025724Y-90011198D01*
X156025722Y-90011197D01*
X155863319Y-89938891D01*
X155863318Y-89938891D01*
X155857288Y-89936206D01*
X155760726Y-89915681D01*
X155676944Y-89897872D01*
X155676939Y-89897872D01*
X155670487Y-89896500D01*
X155479513Y-89896500D01*
X155473058Y-89897872D01*
X155473049Y-89897873D01*
X155441582Y-89904562D01*
X155370791Y-89899161D01*
X155344938Y-89885783D01*
X155155321Y-89757917D01*
X154422821Y-89263966D01*
X154360554Y-89221977D01*
X154315258Y-89167307D01*
X154305000Y-89117510D01*
X154305000Y-89000000D01*
X154069890Y-89000000D01*
X153999444Y-88978467D01*
X151464054Y-87268762D01*
X151418758Y-87214092D01*
X151408500Y-87164295D01*
X151408500Y-86778498D01*
X151408307Y-86776042D01*
X151406067Y-86747579D01*
X151406066Y-86747574D01*
X151405562Y-86741169D01*
X151364874Y-86601118D01*
X151361357Y-86589012D01*
X151361356Y-86589010D01*
X151359145Y-86581399D01*
X151274453Y-86438193D01*
X151271771Y-86435511D01*
X151246498Y-86371139D01*
X151260400Y-86301516D01*
X151270572Y-86285688D01*
X151274453Y-86281807D01*
X151359145Y-86138601D01*
X151379555Y-86068348D01*
X151417767Y-86008512D01*
X151482263Y-85978834D01*
X151500552Y-85977500D01*
X152003733Y-85977500D01*
X152014916Y-85978027D01*
X152022409Y-85979702D01*
X152030335Y-85979453D01*
X152030336Y-85979453D01*
X152090486Y-85977562D01*
X152094445Y-85977500D01*
X152122356Y-85977500D01*
X152126291Y-85977003D01*
X152126356Y-85976995D01*
X152138193Y-85976062D01*
X152170451Y-85975048D01*
X152174470Y-85974922D01*
X152182389Y-85974673D01*
X152201843Y-85969021D01*
X152221200Y-85965013D01*
X152233430Y-85963468D01*
X152233431Y-85963468D01*
X152241297Y-85962474D01*
X152248668Y-85959555D01*
X152248670Y-85959555D01*
X152282412Y-85946196D01*
X152293642Y-85942351D01*
X152328483Y-85932229D01*
X152328484Y-85932229D01*
X152336093Y-85930018D01*
X152342912Y-85925985D01*
X152342917Y-85925983D01*
X152353528Y-85919707D01*
X152371276Y-85911012D01*
X152390117Y-85903552D01*
X152425887Y-85877564D01*
X152435807Y-85871048D01*
X152467035Y-85852580D01*
X152467038Y-85852578D01*
X152473862Y-85848542D01*
X152488183Y-85834221D01*
X152503217Y-85821380D01*
X152507666Y-85818148D01*
X152519607Y-85809472D01*
X152547793Y-85775401D01*
X152555782Y-85766622D01*
X152630706Y-85691698D01*
X152693018Y-85657672D01*
X152763833Y-85662737D01*
X152820669Y-85705284D01*
X152839634Y-85741855D01*
X152863309Y-85814720D01*
X152866612Y-85820442D01*
X152866613Y-85820443D01*
X152892122Y-85864625D01*
X152958796Y-85980108D01*
X152963214Y-85985015D01*
X152963215Y-85985016D01*
X153063408Y-86096292D01*
X153086583Y-86122030D01*
X153241084Y-86234282D01*
X153247112Y-86236966D01*
X153247114Y-86236967D01*
X153409523Y-86309276D01*
X153409527Y-86309277D01*
X153415548Y-86311958D01*
X153421409Y-86313204D01*
X153479830Y-86353152D01*
X153507466Y-86418549D01*
X153495358Y-86488506D01*
X153490751Y-86497030D01*
X153440855Y-86581399D01*
X153438644Y-86589010D01*
X153438643Y-86589012D01*
X153435126Y-86601118D01*
X153394438Y-86741169D01*
X153393934Y-86747574D01*
X153393933Y-86747579D01*
X153391693Y-86776042D01*
X153391500Y-86778498D01*
X153391500Y-87211502D01*
X153391693Y-87213950D01*
X153391693Y-87213958D01*
X153392980Y-87230302D01*
X153394438Y-87248831D01*
X153440855Y-87408601D01*
X153448677Y-87421827D01*
X153521509Y-87544980D01*
X153521511Y-87544983D01*
X153525547Y-87551807D01*
X153643193Y-87669453D01*
X153650017Y-87673489D01*
X153650020Y-87673491D01*
X153734911Y-87723695D01*
X153786399Y-87754145D01*
X153794010Y-87756356D01*
X153794012Y-87756357D01*
X153846231Y-87771528D01*
X153946169Y-87800562D01*
X153952574Y-87801066D01*
X153952579Y-87801067D01*
X153981042Y-87803307D01*
X153981050Y-87803307D01*
X153983498Y-87803500D01*
X155766502Y-87803500D01*
X155768950Y-87803307D01*
X155768958Y-87803307D01*
X155797421Y-87801067D01*
X155797426Y-87801066D01*
X155803831Y-87800562D01*
X155903769Y-87771528D01*
X155955988Y-87756357D01*
X155955990Y-87756356D01*
X155963601Y-87754145D01*
X156015089Y-87723695D01*
X156099980Y-87673491D01*
X156099983Y-87673489D01*
X156106807Y-87669453D01*
X156112416Y-87663844D01*
X156118675Y-87658989D01*
X156120021Y-87660724D01*
X156172453Y-87632093D01*
X156195276Y-87629276D01*
X156214479Y-87628672D01*
X156217986Y-87628562D01*
X156221945Y-87628500D01*
X156249856Y-87628500D01*
X156253791Y-87628003D01*
X156253856Y-87627995D01*
X156265693Y-87627062D01*
X156297951Y-87626048D01*
X156301970Y-87625922D01*
X156309889Y-87625673D01*
X156329343Y-87620021D01*
X156348700Y-87616013D01*
X156360930Y-87614468D01*
X156360931Y-87614468D01*
X156368797Y-87613474D01*
X156376168Y-87610555D01*
X156376170Y-87610555D01*
X156409912Y-87597196D01*
X156421142Y-87593351D01*
X156455983Y-87583229D01*
X156455984Y-87583229D01*
X156463593Y-87581018D01*
X156470412Y-87576985D01*
X156470417Y-87576983D01*
X156481028Y-87570707D01*
X156498776Y-87562012D01*
X156517617Y-87554552D01*
X156553387Y-87528564D01*
X156563307Y-87522048D01*
X156594535Y-87503580D01*
X156594538Y-87503578D01*
X156601362Y-87499542D01*
X156615683Y-87485221D01*
X156630717Y-87472380D01*
X156640694Y-87465131D01*
X156647107Y-87460472D01*
X156675298Y-87426395D01*
X156683288Y-87417616D01*
X156795499Y-87305405D01*
X156857811Y-87271379D01*
X156884594Y-87268500D01*
X156940487Y-87268500D01*
X156946939Y-87267128D01*
X156946944Y-87267128D01*
X157063178Y-87242421D01*
X157127288Y-87228794D01*
X157133319Y-87226109D01*
X157295722Y-87153803D01*
X157295724Y-87153802D01*
X157301752Y-87151118D01*
X157456253Y-87038866D01*
X157460675Y-87033955D01*
X157579621Y-86901852D01*
X157579622Y-86901851D01*
X157584040Y-86896944D01*
X157655928Y-86772431D01*
X157676223Y-86737279D01*
X157676224Y-86737278D01*
X157679527Y-86731556D01*
X157738542Y-86549928D01*
X157750388Y-86437225D01*
X157757814Y-86366565D01*
X157758504Y-86360000D01*
X157752357Y-86301516D01*
X157739232Y-86176635D01*
X157739232Y-86176633D01*
X157738542Y-86170072D01*
X157679527Y-85988444D01*
X157673209Y-85977500D01*
X157636927Y-85914659D01*
X157584040Y-85823056D01*
X157490178Y-85718811D01*
X157460675Y-85686045D01*
X157460674Y-85686044D01*
X157456253Y-85681134D01*
X157301752Y-85568882D01*
X157295724Y-85566198D01*
X157295722Y-85566197D01*
X157133319Y-85493891D01*
X157133318Y-85493891D01*
X157127288Y-85491206D01*
X157033022Y-85471169D01*
X156946944Y-85452872D01*
X156946939Y-85452872D01*
X156940487Y-85451500D01*
X156749513Y-85451500D01*
X156743061Y-85452872D01*
X156743056Y-85452872D01*
X156656978Y-85471169D01*
X156562712Y-85491206D01*
X156556682Y-85493891D01*
X156556681Y-85493891D01*
X156516392Y-85511829D01*
X156446025Y-85521263D01*
X156381728Y-85491157D01*
X156344146Y-85431874D01*
X156311358Y-85319014D01*
X156311356Y-85319009D01*
X156309145Y-85311399D01*
X156224453Y-85168193D01*
X156221771Y-85165511D01*
X156196498Y-85101139D01*
X156210400Y-85031516D01*
X156220572Y-85015688D01*
X156224453Y-85011807D01*
X156309145Y-84868601D01*
X156355562Y-84708831D01*
X156358500Y-84671502D01*
X156358500Y-84238498D01*
X156357319Y-84223488D01*
X156356067Y-84207579D01*
X156356066Y-84207574D01*
X156355562Y-84201169D01*
X156314200Y-84058797D01*
X156311357Y-84049012D01*
X156311356Y-84049010D01*
X156309145Y-84041399D01*
X156224453Y-83898193D01*
X156221771Y-83895511D01*
X156196498Y-83831139D01*
X156210400Y-83761516D01*
X156220572Y-83745688D01*
X156224453Y-83741807D01*
X156309145Y-83598601D01*
X156316026Y-83574918D01*
X156339212Y-83495107D01*
X156355562Y-83438831D01*
X156357729Y-83411307D01*
X156358307Y-83403958D01*
X156358307Y-83403950D01*
X156358500Y-83401502D01*
X156358500Y-83322260D01*
X156378502Y-83254139D01*
X156432158Y-83207646D01*
X156458303Y-83199013D01*
X156612831Y-83166167D01*
X156612836Y-83166166D01*
X156619288Y-83164794D01*
X156634797Y-83157889D01*
X156787722Y-83089803D01*
X156787724Y-83089802D01*
X156793752Y-83087118D01*
X156820124Y-83067958D01*
X156916537Y-82997909D01*
X156948253Y-82974866D01*
X157076040Y-82832944D01*
X157134314Y-82732010D01*
X157168223Y-82673279D01*
X157168224Y-82673278D01*
X157171527Y-82667556D01*
X157230542Y-82485928D01*
X157250504Y-82296000D01*
X157230542Y-82106072D01*
X157171527Y-81924444D01*
X157166941Y-81916500D01*
X157102855Y-81805500D01*
X157086117Y-81736504D01*
X157109338Y-81669413D01*
X157165145Y-81625526D01*
X157211974Y-81616500D01*
X157397732Y-81616500D01*
X157400978Y-81616163D01*
X157400982Y-81616163D01*
X157435083Y-81612625D01*
X157500019Y-81605887D01*
X157598266Y-81573109D01*
X157655324Y-81554073D01*
X157655326Y-81554072D01*
X157662268Y-81551756D01*
X157673511Y-81544799D01*
X157801485Y-81465606D01*
X157807713Y-81461752D01*
X157928552Y-81340702D01*
X157938074Y-81325255D01*
X158014462Y-81201331D01*
X158014463Y-81201329D01*
X158018302Y-81195101D01*
X158072149Y-81032757D01*
X158082500Y-80931732D01*
X158082500Y-80384268D01*
X158071887Y-80281981D01*
X158029670Y-80155441D01*
X158020073Y-80126676D01*
X158020072Y-80126674D01*
X158017756Y-80119732D01*
X157998114Y-80087990D01*
X157931606Y-79980515D01*
X157927752Y-79974287D01*
X157922570Y-79969114D01*
X157918023Y-79963377D01*
X157919830Y-79961945D01*
X157891098Y-79909425D01*
X157896108Y-79838605D01*
X157919499Y-79802147D01*
X157918448Y-79801317D01*
X157931998Y-79784160D01*
X158014004Y-79651120D01*
X158020151Y-79637939D01*
X158069491Y-79489186D01*
X158072358Y-79475810D01*
X158081672Y-79384903D01*
X158081929Y-79379874D01*
X158077525Y-79364876D01*
X158076135Y-79363671D01*
X158068452Y-79362000D01*
X156971000Y-79362000D01*
X156902879Y-79341998D01*
X156856386Y-79288342D01*
X156845000Y-79236000D01*
X156845000Y-78835885D01*
X157353000Y-78835885D01*
X157357475Y-78851124D01*
X157358865Y-78852329D01*
X157366548Y-78854000D01*
X158063885Y-78854000D01*
X158079124Y-78849525D01*
X158080329Y-78848135D01*
X158082000Y-78840452D01*
X158082000Y-78837562D01*
X158081663Y-78831047D01*
X158072106Y-78738943D01*
X158069212Y-78725544D01*
X158019619Y-78576893D01*
X158013445Y-78563714D01*
X157931212Y-78430827D01*
X157922176Y-78419426D01*
X157811571Y-78309014D01*
X157800160Y-78300002D01*
X157667120Y-78217996D01*
X157653939Y-78211849D01*
X157505186Y-78162509D01*
X157491810Y-78159642D01*
X157400903Y-78150328D01*
X157394486Y-78150000D01*
X157371115Y-78150000D01*
X157355876Y-78154475D01*
X157354671Y-78155865D01*
X157353000Y-78163548D01*
X157353000Y-78835885D01*
X156845000Y-78835885D01*
X156845000Y-78168115D01*
X156840525Y-78152876D01*
X156839135Y-78151671D01*
X156831452Y-78150000D01*
X156803562Y-78150000D01*
X156797047Y-78150337D01*
X156704943Y-78159894D01*
X156691544Y-78162788D01*
X156542893Y-78212381D01*
X156529714Y-78218555D01*
X156396827Y-78300788D01*
X156385426Y-78309824D01*
X156275014Y-78420429D01*
X156266002Y-78431840D01*
X156183992Y-78564885D01*
X156176237Y-78581517D01*
X156129321Y-78634803D01*
X156061044Y-78654265D01*
X155997903Y-78636723D01*
X155970221Y-78620352D01*
X155955790Y-78614107D01*
X155809935Y-78571731D01*
X155797333Y-78569430D01*
X155768916Y-78567193D01*
X155763986Y-78567000D01*
X155147115Y-78567000D01*
X155131876Y-78571475D01*
X155130671Y-78572865D01*
X155129000Y-78580548D01*
X155129000Y-79503000D01*
X155108998Y-79571121D01*
X155055342Y-79617614D01*
X155003000Y-79629000D01*
X153413122Y-79629000D01*
X153399591Y-79632973D01*
X153398456Y-79640871D01*
X153439107Y-79780790D01*
X153445352Y-79795221D01*
X153520278Y-79921915D01*
X153537737Y-79990731D01*
X153515220Y-80058063D01*
X153485884Y-80087990D01*
X153433837Y-80125804D01*
X153430763Y-80127969D01*
X151486625Y-81453517D01*
X151419074Y-81475365D01*
X151350434Y-81457225D01*
X151307192Y-81413552D01*
X151274453Y-81358193D01*
X151271771Y-81355511D01*
X151246498Y-81291139D01*
X151260400Y-81221516D01*
X151270572Y-81205688D01*
X151274453Y-81201807D01*
X151359145Y-81058601D01*
X151362799Y-81046026D01*
X151400698Y-80915573D01*
X151405562Y-80898831D01*
X151406899Y-80881852D01*
X151408307Y-80863958D01*
X151408307Y-80863950D01*
X151408500Y-80861502D01*
X151408500Y-80428498D01*
X151407735Y-80418777D01*
X151406067Y-80397579D01*
X151406066Y-80397574D01*
X151405562Y-80391169D01*
X151359145Y-80231399D01*
X151274453Y-80088193D01*
X151271771Y-80085511D01*
X151246498Y-80021139D01*
X151260400Y-79951516D01*
X151270572Y-79935688D01*
X151274453Y-79931807D01*
X151359145Y-79788601D01*
X151361415Y-79780790D01*
X151395281Y-79664219D01*
X151405562Y-79628831D01*
X151407788Y-79600558D01*
X151408307Y-79593958D01*
X151408307Y-79593950D01*
X151408500Y-79591502D01*
X151408500Y-79158498D01*
X151408091Y-79153296D01*
X151406067Y-79127579D01*
X151406066Y-79127574D01*
X151405562Y-79121169D01*
X151400459Y-79103605D01*
X153400061Y-79103605D01*
X153400101Y-79117706D01*
X153407370Y-79121000D01*
X154602885Y-79121000D01*
X154618124Y-79116525D01*
X154619329Y-79115135D01*
X154621000Y-79107452D01*
X154621000Y-78585116D01*
X154616525Y-78569877D01*
X154615135Y-78568672D01*
X154607452Y-78567001D01*
X153986017Y-78567001D01*
X153981080Y-78567195D01*
X153952664Y-78569430D01*
X153940069Y-78571730D01*
X153794210Y-78614107D01*
X153779779Y-78620352D01*
X153650322Y-78696911D01*
X153637896Y-78706551D01*
X153531551Y-78812896D01*
X153521911Y-78825322D01*
X153445352Y-78954779D01*
X153439107Y-78969210D01*
X153400061Y-79103605D01*
X151400459Y-79103605D01*
X151367026Y-78988525D01*
X151361357Y-78969012D01*
X151361356Y-78969010D01*
X151359145Y-78961399D01*
X151310392Y-78878962D01*
X151278491Y-78825020D01*
X151278489Y-78825017D01*
X151274453Y-78818193D01*
X151156807Y-78700547D01*
X151149983Y-78696511D01*
X151149980Y-78696509D01*
X151020427Y-78619892D01*
X151020428Y-78619892D01*
X151013601Y-78615855D01*
X150864945Y-78572667D01*
X150805109Y-78534455D01*
X150775431Y-78469958D01*
X150780264Y-78412735D01*
X150818542Y-78294928D01*
X150823450Y-78248230D01*
X150850463Y-78182573D01*
X150859665Y-78172305D01*
X150899166Y-78132804D01*
X150961478Y-78098778D01*
X151032293Y-78103843D01*
X151054376Y-78114639D01*
X151081665Y-78131460D01*
X151081670Y-78131462D01*
X151087899Y-78135302D01*
X151250243Y-78189149D01*
X151257080Y-78189849D01*
X151257082Y-78189850D01*
X151298401Y-78194083D01*
X151351268Y-78199500D01*
X151898732Y-78199500D01*
X151901978Y-78199163D01*
X151901982Y-78199163D01*
X151936083Y-78195625D01*
X152001019Y-78188887D01*
X152087921Y-78159894D01*
X152156324Y-78137073D01*
X152156326Y-78137072D01*
X152163268Y-78134756D01*
X152308713Y-78044752D01*
X152313886Y-78039570D01*
X152319623Y-78035023D01*
X152321055Y-78036830D01*
X152373575Y-78008098D01*
X152444395Y-78013108D01*
X152480853Y-78036499D01*
X152481683Y-78035448D01*
X152498840Y-78048998D01*
X152631880Y-78131004D01*
X152645061Y-78137151D01*
X152793814Y-78186491D01*
X152807190Y-78189358D01*
X152898097Y-78198672D01*
X152903126Y-78198929D01*
X152918124Y-78194525D01*
X152919329Y-78193135D01*
X152921000Y-78185452D01*
X152921000Y-78180885D01*
X153429000Y-78180885D01*
X153433475Y-78196124D01*
X153434865Y-78197329D01*
X153442548Y-78199000D01*
X153445438Y-78199000D01*
X153451953Y-78198663D01*
X153544057Y-78189106D01*
X153557456Y-78186212D01*
X153706107Y-78136619D01*
X153719286Y-78130445D01*
X153852173Y-78048212D01*
X153863574Y-78039176D01*
X153973986Y-77928571D01*
X153982998Y-77917160D01*
X154065004Y-77784120D01*
X154071151Y-77770939D01*
X154120491Y-77622186D01*
X154123358Y-77608810D01*
X154132672Y-77517903D01*
X154133000Y-77511487D01*
X154133000Y-77488115D01*
X154128525Y-77472876D01*
X154127135Y-77471671D01*
X154119452Y-77470000D01*
X153447115Y-77470000D01*
X153431876Y-77474475D01*
X153430671Y-77475865D01*
X153429000Y-77483548D01*
X153429000Y-78180885D01*
X152921000Y-78180885D01*
X152921000Y-76943885D01*
X153429000Y-76943885D01*
X153433475Y-76959124D01*
X153434865Y-76960329D01*
X153442548Y-76962000D01*
X154114885Y-76962000D01*
X154130124Y-76957525D01*
X154131329Y-76956135D01*
X154133000Y-76948452D01*
X154133000Y-76920562D01*
X154132663Y-76914047D01*
X154123106Y-76821943D01*
X154120212Y-76808544D01*
X154070619Y-76659893D01*
X154064445Y-76646714D01*
X153982212Y-76513827D01*
X153973176Y-76502426D01*
X153862571Y-76392014D01*
X153851160Y-76383002D01*
X153718120Y-76300996D01*
X153704939Y-76294849D01*
X153556186Y-76245509D01*
X153542810Y-76242642D01*
X153451903Y-76233328D01*
X153446874Y-76233071D01*
X153431876Y-76237475D01*
X153430671Y-76238865D01*
X153429000Y-76246548D01*
X153429000Y-76943885D01*
X152921000Y-76943885D01*
X152921000Y-76251115D01*
X152916525Y-76235876D01*
X152915135Y-76234671D01*
X152907452Y-76233000D01*
X152904562Y-76233000D01*
X152898047Y-76233337D01*
X152805943Y-76242894D01*
X152792544Y-76245788D01*
X152643893Y-76295381D01*
X152630714Y-76301555D01*
X152497827Y-76383788D01*
X152480689Y-76397371D01*
X152479159Y-76395441D01*
X152427120Y-76423903D01*
X152356301Y-76418887D01*
X152319383Y-76395201D01*
X152318628Y-76396157D01*
X152312882Y-76391619D01*
X152307702Y-76386448D01*
X152296818Y-76379739D01*
X152168331Y-76300538D01*
X152168329Y-76300537D01*
X152162101Y-76296698D01*
X151999757Y-76242851D01*
X151992920Y-76242151D01*
X151992918Y-76242150D01*
X151951599Y-76237917D01*
X151898732Y-76232500D01*
X151351268Y-76232500D01*
X151348022Y-76232837D01*
X151348018Y-76232837D01*
X151318730Y-76235876D01*
X151248981Y-76243113D01*
X151240963Y-76245788D01*
X151093676Y-76294927D01*
X151093674Y-76294928D01*
X151086732Y-76297244D01*
X150941287Y-76387248D01*
X150936114Y-76392430D01*
X150936109Y-76392434D01*
X150861411Y-76467263D01*
X150799129Y-76501343D01*
X150782039Y-76503642D01*
X150776648Y-76503274D01*
X150713681Y-76514264D01*
X150707169Y-76515224D01*
X150643758Y-76522898D01*
X150636657Y-76525581D01*
X150634048Y-76526222D01*
X150617715Y-76530691D01*
X150615195Y-76531452D01*
X150607717Y-76532757D01*
X150600765Y-76535809D01*
X150600764Y-76535809D01*
X150549204Y-76558441D01*
X150543099Y-76560932D01*
X150490456Y-76580825D01*
X150490452Y-76580827D01*
X150483344Y-76583513D01*
X150477083Y-76587816D01*
X150474717Y-76589053D01*
X150459937Y-76597280D01*
X150457652Y-76598631D01*
X150450695Y-76601685D01*
X150444675Y-76606305D01*
X150444669Y-76606308D01*
X150413542Y-76630194D01*
X150399998Y-76640587D01*
X150394668Y-76644459D01*
X150348280Y-76676339D01*
X150348275Y-76676344D01*
X150342019Y-76680643D01*
X150301215Y-76726441D01*
X150300565Y-76727170D01*
X150295584Y-76732446D01*
X149858467Y-77169563D01*
X149795569Y-77203715D01*
X149779411Y-77207150D01*
X149642712Y-77236206D01*
X149636682Y-77238891D01*
X149636681Y-77238891D01*
X149474278Y-77311197D01*
X149474276Y-77311198D01*
X149468248Y-77313882D01*
X149313747Y-77426134D01*
X149309326Y-77431044D01*
X149309325Y-77431045D01*
X149198097Y-77554577D01*
X149185960Y-77568056D01*
X149174921Y-77587176D01*
X149095926Y-77724000D01*
X149090473Y-77733444D01*
X149031458Y-77915072D01*
X149030768Y-77921633D01*
X149030768Y-77921635D01*
X149028479Y-77943411D01*
X149011496Y-78105000D01*
X149012186Y-78111565D01*
X149020388Y-78189598D01*
X149031458Y-78294928D01*
X149069736Y-78412735D01*
X149071764Y-78483701D01*
X149035101Y-78544499D01*
X148985055Y-78572667D01*
X148836399Y-78615855D01*
X148829572Y-78619892D01*
X148829573Y-78619892D01*
X148700020Y-78696509D01*
X148700017Y-78696511D01*
X148693193Y-78700547D01*
X148575547Y-78818193D01*
X148571511Y-78825017D01*
X148571509Y-78825020D01*
X148539608Y-78878962D01*
X148490855Y-78961399D01*
X148481384Y-78994000D01*
X148460698Y-79065201D01*
X148422486Y-79125037D01*
X148365898Y-79153296D01*
X148274591Y-79172704D01*
X148268561Y-79175389D01*
X148268560Y-79175389D01*
X148106157Y-79247695D01*
X148106155Y-79247696D01*
X148100127Y-79250380D01*
X148094786Y-79254260D01*
X148094785Y-79254261D01*
X148063214Y-79277199D01*
X147945626Y-79362632D01*
X147941205Y-79367542D01*
X147941204Y-79367543D01*
X147837641Y-79482562D01*
X147817839Y-79504554D01*
X147765287Y-79595577D01*
X147747066Y-79627137D01*
X147722352Y-79669942D01*
X147663337Y-79851570D01*
X147662647Y-79858131D01*
X147662647Y-79858133D01*
X147655466Y-79926460D01*
X147643375Y-80041498D01*
X147644065Y-80048063D01*
X147660732Y-80206637D01*
X147663337Y-80231426D01*
X147722352Y-80413054D01*
X147725655Y-80418776D01*
X147725656Y-80418777D01*
X147732695Y-80430968D01*
X147817839Y-80578442D01*
X147945626Y-80720364D01*
X147950970Y-80724247D01*
X147955877Y-80728665D01*
X147954501Y-80730193D01*
X147991589Y-80778004D01*
X147997327Y-80792496D01*
X148001989Y-80798912D01*
X148001989Y-80798913D01*
X148023315Y-80828266D01*
X148029831Y-80838186D01*
X148045073Y-80863958D01*
X148052337Y-80876241D01*
X148066658Y-80890562D01*
X148079498Y-80905595D01*
X148091407Y-80921986D01*
X148103188Y-80931732D01*
X148125484Y-80950177D01*
X148134263Y-80958167D01*
X148213343Y-81037247D01*
X148220887Y-81045537D01*
X148225000Y-81052018D01*
X148230777Y-81057443D01*
X148237386Y-81063649D01*
X148273352Y-81124862D01*
X148270515Y-81195802D01*
X148229775Y-81253946D01*
X148164067Y-81280835D01*
X148151134Y-81281500D01*
X147655843Y-81281500D01*
X147587722Y-81261498D01*
X147541229Y-81207842D01*
X147530267Y-81165824D01*
X147521781Y-81062603D01*
X147520096Y-81052424D01*
X147468214Y-80845875D01*
X147464894Y-80836124D01*
X147379972Y-80640814D01*
X147375105Y-80631739D01*
X147259426Y-80452926D01*
X147253136Y-80444757D01*
X147109806Y-80287240D01*
X147102273Y-80280215D01*
X146935139Y-80148222D01*
X146926556Y-80142520D01*
X146889602Y-80122120D01*
X146839631Y-80071687D01*
X146824859Y-80002245D01*
X146849975Y-79935839D01*
X146877327Y-79909232D01*
X146910100Y-79885855D01*
X147056860Y-79781173D01*
X147215096Y-79623489D01*
X147228337Y-79605063D01*
X147342435Y-79446277D01*
X147345453Y-79442077D01*
X147353732Y-79425327D01*
X147442136Y-79246453D01*
X147442137Y-79246451D01*
X147444430Y-79241811D01*
X147509370Y-79028069D01*
X147538529Y-78806590D01*
X147540156Y-78740000D01*
X147521852Y-78517361D01*
X147520593Y-78512348D01*
X147520591Y-78512337D01*
X147515115Y-78490540D01*
X147517918Y-78419598D01*
X147548223Y-78370747D01*
X149090520Y-76828450D01*
X149096785Y-76822596D01*
X149134660Y-76789555D01*
X149140385Y-76784561D01*
X149177114Y-76732300D01*
X149181046Y-76727005D01*
X149191708Y-76713408D01*
X149220477Y-76676718D01*
X149223602Y-76669796D01*
X149224964Y-76667548D01*
X149233368Y-76652815D01*
X149234622Y-76650476D01*
X149238990Y-76644261D01*
X149241749Y-76637185D01*
X149241751Y-76637181D01*
X149262202Y-76584726D01*
X149264758Y-76578646D01*
X149272756Y-76560932D01*
X149291045Y-76520426D01*
X149292429Y-76512955D01*
X149293230Y-76510401D01*
X149297867Y-76494122D01*
X149298523Y-76491567D01*
X149301282Y-76484491D01*
X149309621Y-76421149D01*
X149310653Y-76414633D01*
X149320912Y-76359280D01*
X149322296Y-76351813D01*
X149318709Y-76289602D01*
X149318500Y-76282349D01*
X149318500Y-75857572D01*
X155226500Y-75857572D01*
X155237022Y-75958982D01*
X155290692Y-76119849D01*
X155379929Y-76264055D01*
X155385108Y-76269225D01*
X155393540Y-76277643D01*
X155427618Y-76339927D01*
X155422613Y-76410747D01*
X155413640Y-76429813D01*
X155394223Y-76463444D01*
X155335208Y-76645072D01*
X155334518Y-76651633D01*
X155334518Y-76651635D01*
X155317156Y-76816827D01*
X155315246Y-76835000D01*
X155315936Y-76841565D01*
X155333479Y-77008474D01*
X155335208Y-77024928D01*
X155394223Y-77206556D01*
X155397526Y-77212278D01*
X155397527Y-77212279D01*
X155412892Y-77238891D01*
X155489710Y-77371944D01*
X155494128Y-77376851D01*
X155494129Y-77376852D01*
X155594311Y-77488115D01*
X155617497Y-77513866D01*
X155669633Y-77551745D01*
X155748176Y-77608810D01*
X155771998Y-77626118D01*
X155778026Y-77628802D01*
X155778028Y-77628803D01*
X155940431Y-77701109D01*
X155946462Y-77703794D01*
X156037228Y-77723087D01*
X156126806Y-77742128D01*
X156126811Y-77742128D01*
X156133263Y-77743500D01*
X156324237Y-77743500D01*
X156330689Y-77742128D01*
X156330694Y-77742128D01*
X156420272Y-77723087D01*
X156511038Y-77703794D01*
X156517069Y-77701109D01*
X156679472Y-77628803D01*
X156679474Y-77628802D01*
X156685502Y-77626118D01*
X156709325Y-77608810D01*
X156787867Y-77551745D01*
X156840003Y-77513866D01*
X156863189Y-77488115D01*
X156963371Y-77376852D01*
X156963372Y-77376851D01*
X156967790Y-77371944D01*
X157044608Y-77238891D01*
X157059973Y-77212279D01*
X157059974Y-77212278D01*
X157063277Y-77206556D01*
X157122292Y-77024928D01*
X157124022Y-77008474D01*
X157141564Y-76841565D01*
X157142254Y-76835000D01*
X157140344Y-76816827D01*
X157122982Y-76651635D01*
X157122982Y-76651633D01*
X157122292Y-76645072D01*
X157063277Y-76463444D01*
X157029254Y-76404514D01*
X157012517Y-76335519D01*
X157038890Y-76265031D01*
X157040864Y-76263053D01*
X157053446Y-76242642D01*
X157072983Y-76210946D01*
X157129849Y-76118692D01*
X157151455Y-76053554D01*
X157181072Y-75964262D01*
X157181072Y-75964260D01*
X157183238Y-75957731D01*
X157193500Y-75857572D01*
X157193500Y-75323428D01*
X157182978Y-75222018D01*
X157129308Y-75061151D01*
X157040071Y-74916945D01*
X157015195Y-74892113D01*
X156981116Y-74829832D01*
X156986118Y-74759012D01*
X157015040Y-74713922D01*
X157035693Y-74693233D01*
X157040864Y-74688053D01*
X157129849Y-74543692D01*
X157132154Y-74536743D01*
X157181072Y-74389262D01*
X157181072Y-74389260D01*
X157183238Y-74382731D01*
X157193500Y-74282572D01*
X157193500Y-73980094D01*
X157213502Y-73911973D01*
X157230405Y-73890999D01*
X157872247Y-73249157D01*
X157880537Y-73241613D01*
X157887018Y-73237500D01*
X157933659Y-73187832D01*
X157936413Y-73184991D01*
X157956134Y-73165270D01*
X157958612Y-73162075D01*
X157966318Y-73153053D01*
X157991158Y-73126601D01*
X157996586Y-73120821D01*
X158006346Y-73103068D01*
X158017199Y-73086545D01*
X158024753Y-73076806D01*
X158029613Y-73070541D01*
X158047176Y-73029957D01*
X158052383Y-73019327D01*
X158073695Y-72980560D01*
X158075666Y-72972883D01*
X158075668Y-72972878D01*
X158078732Y-72960942D01*
X158085138Y-72942230D01*
X158090033Y-72930919D01*
X158093181Y-72923645D01*
X158094421Y-72915817D01*
X158094423Y-72915810D01*
X158100099Y-72879976D01*
X158102505Y-72868356D01*
X158111528Y-72833211D01*
X158111528Y-72833210D01*
X158113500Y-72825530D01*
X158113500Y-72805276D01*
X158115051Y-72785565D01*
X158116980Y-72773386D01*
X158118220Y-72765557D01*
X158114059Y-72721538D01*
X158113500Y-72709681D01*
X158113500Y-69212095D01*
X158133502Y-69143974D01*
X158150405Y-69122999D01*
X158468001Y-68805404D01*
X158530313Y-68771379D01*
X158557096Y-68768500D01*
X161664290Y-68768500D01*
X161732411Y-68788502D01*
X161753384Y-68805404D01*
X161844619Y-68896639D01*
X161991301Y-68985472D01*
X161998548Y-68987743D01*
X161998550Y-68987744D01*
X162064836Y-69008517D01*
X162154938Y-69036753D01*
X162228365Y-69043500D01*
X162231263Y-69043500D01*
X162560860Y-69043499D01*
X162891634Y-69043499D01*
X162894492Y-69043236D01*
X162894501Y-69043236D01*
X162930004Y-69039974D01*
X162965062Y-69036753D01*
X163002735Y-69024947D01*
X163121450Y-68987744D01*
X163121452Y-68987743D01*
X163128699Y-68985472D01*
X163275381Y-68896639D01*
X163396639Y-68775381D01*
X163485472Y-68628699D01*
X163536753Y-68465062D01*
X163543500Y-68391635D01*
X163543499Y-67878366D01*
X163543140Y-67874452D01*
X163537364Y-67811592D01*
X163536753Y-67804938D01*
X163518999Y-67748285D01*
X163487744Y-67648550D01*
X163487743Y-67648548D01*
X163485472Y-67641301D01*
X163396639Y-67494619D01*
X163301115Y-67399095D01*
X163267089Y-67336783D01*
X163272154Y-67265968D01*
X163301115Y-67220905D01*
X163396639Y-67125381D01*
X163485472Y-66978699D01*
X163497221Y-66941210D01*
X163534752Y-66821446D01*
X163536753Y-66815062D01*
X163543500Y-66741635D01*
X163543499Y-66228366D01*
X163536753Y-66154938D01*
X163524736Y-66116593D01*
X163487744Y-65998550D01*
X163487743Y-65998548D01*
X163485472Y-65991301D01*
X163396639Y-65844619D01*
X163275381Y-65723361D01*
X163128699Y-65634528D01*
X163121452Y-65632257D01*
X163121450Y-65632256D01*
X163055164Y-65611483D01*
X162965062Y-65583247D01*
X162891635Y-65576500D01*
X162888737Y-65576500D01*
X162559140Y-65576501D01*
X162228366Y-65576501D01*
X162225508Y-65576764D01*
X162225499Y-65576764D01*
X162189996Y-65580026D01*
X162154938Y-65583247D01*
X162148560Y-65585246D01*
X162148559Y-65585246D01*
X161998550Y-65632256D01*
X161998548Y-65632257D01*
X161991301Y-65634528D01*
X161844619Y-65723361D01*
X161816230Y-65751750D01*
X161753918Y-65785776D01*
X161683103Y-65780711D01*
X161653074Y-65764591D01*
X161561094Y-65697763D01*
X161561093Y-65697762D01*
X161555752Y-65693882D01*
X161549724Y-65691198D01*
X161549722Y-65691197D01*
X161387319Y-65618891D01*
X161387316Y-65618890D01*
X161381288Y-65616206D01*
X161287888Y-65596353D01*
X161200944Y-65577872D01*
X161200939Y-65577872D01*
X161194487Y-65576500D01*
X161003513Y-65576500D01*
X160997061Y-65577872D01*
X160997056Y-65577872D01*
X160910112Y-65596353D01*
X160816712Y-65616206D01*
X160803255Y-65622197D01*
X160732891Y-65631634D01*
X160705160Y-65623413D01*
X160703699Y-65622528D01*
X160540062Y-65571247D01*
X160466635Y-65564500D01*
X160463737Y-65564500D01*
X160209335Y-65564501D01*
X159953366Y-65564501D01*
X159950508Y-65564764D01*
X159950499Y-65564764D01*
X159914996Y-65568026D01*
X159879938Y-65571247D01*
X159873560Y-65573246D01*
X159873559Y-65573246D01*
X159723550Y-65620256D01*
X159723548Y-65620257D01*
X159716301Y-65622528D01*
X159569619Y-65711361D01*
X159474095Y-65806885D01*
X159411783Y-65840911D01*
X159340968Y-65835846D01*
X159295905Y-65806885D01*
X159200381Y-65711361D01*
X159053699Y-65622528D01*
X159046452Y-65620257D01*
X159046450Y-65620256D01*
X158974926Y-65597842D01*
X158890062Y-65571247D01*
X158816635Y-65564500D01*
X158813737Y-65564500D01*
X158559335Y-65564501D01*
X158303366Y-65564501D01*
X158300508Y-65564764D01*
X158300499Y-65564764D01*
X158264996Y-65568026D01*
X158229938Y-65571247D01*
X158223560Y-65573246D01*
X158223559Y-65573246D01*
X158073550Y-65620256D01*
X158073548Y-65620257D01*
X158066301Y-65622528D01*
X157919619Y-65711361D01*
X157798361Y-65832619D01*
X157709528Y-65979301D01*
X157707255Y-65986553D01*
X157704846Y-65991889D01*
X157667298Y-66039519D01*
X157660637Y-66043458D01*
X157646313Y-66057782D01*
X157631281Y-66070621D01*
X157614893Y-66082528D01*
X157586712Y-66116593D01*
X157578722Y-66125373D01*
X155817747Y-67886348D01*
X155809461Y-67893888D01*
X155802982Y-67898000D01*
X155761280Y-67942409D01*
X155756357Y-67947651D01*
X155753602Y-67950493D01*
X155733865Y-67970230D01*
X155731385Y-67973427D01*
X155723682Y-67982447D01*
X155693414Y-68014679D01*
X155689595Y-68021625D01*
X155689593Y-68021628D01*
X155683652Y-68032434D01*
X155672801Y-68048953D01*
X155660386Y-68064959D01*
X155657241Y-68072228D01*
X155657238Y-68072232D01*
X155642826Y-68105537D01*
X155637609Y-68116187D01*
X155616305Y-68154940D01*
X155614334Y-68162615D01*
X155614334Y-68162616D01*
X155611267Y-68174562D01*
X155604863Y-68193266D01*
X155596819Y-68211855D01*
X155595580Y-68219678D01*
X155595577Y-68219688D01*
X155589901Y-68255524D01*
X155587495Y-68267144D01*
X155576500Y-68309970D01*
X155576500Y-68330224D01*
X155574949Y-68349934D01*
X155571780Y-68369943D01*
X155572526Y-68377835D01*
X155575941Y-68413961D01*
X155576500Y-68425819D01*
X155576500Y-68786734D01*
X155556498Y-68854855D01*
X155516802Y-68893879D01*
X155498945Y-68904929D01*
X155379136Y-69024947D01*
X155375296Y-69031177D01*
X155375295Y-69031178D01*
X155367700Y-69043499D01*
X155290151Y-69169308D01*
X155287846Y-69176256D01*
X155287846Y-69176257D01*
X155245043Y-69305304D01*
X155236762Y-69330269D01*
X155226500Y-69430428D01*
X155226500Y-69964572D01*
X155237022Y-70065982D01*
X155290692Y-70226849D01*
X155379929Y-70371055D01*
X155404805Y-70395887D01*
X155438884Y-70458168D01*
X155433882Y-70528988D01*
X155404960Y-70574078D01*
X155379136Y-70599947D01*
X155290151Y-70744308D01*
X155287846Y-70751256D01*
X155287846Y-70751257D01*
X155268781Y-70808737D01*
X155236762Y-70905269D01*
X155226500Y-71005428D01*
X155226500Y-71539572D01*
X155237022Y-71640982D01*
X155290692Y-71801849D01*
X155379929Y-71946055D01*
X155385107Y-71951224D01*
X155389655Y-71956962D01*
X155387576Y-71958610D01*
X155415723Y-72010049D01*
X155410720Y-72080869D01*
X155401746Y-72099937D01*
X155375473Y-72145444D01*
X155316458Y-72327072D01*
X155315768Y-72333633D01*
X155315768Y-72333635D01*
X155307816Y-72409293D01*
X155296496Y-72517000D01*
X155297186Y-72523565D01*
X155315463Y-72697457D01*
X155316458Y-72706928D01*
X155375473Y-72888556D01*
X155470960Y-73053944D01*
X155475378Y-73058851D01*
X155475379Y-73058852D01*
X155484293Y-73068752D01*
X155515010Y-73132759D01*
X155506245Y-73203213D01*
X155479830Y-73242077D01*
X155379136Y-73342947D01*
X155290151Y-73487308D01*
X155287846Y-73494256D01*
X155287846Y-73494257D01*
X155270995Y-73545062D01*
X155236762Y-73648269D01*
X155226500Y-73748428D01*
X155226500Y-74282572D01*
X155237022Y-74383982D01*
X155290692Y-74544849D01*
X155379929Y-74689055D01*
X155404805Y-74713887D01*
X155438884Y-74776168D01*
X155433882Y-74846988D01*
X155404960Y-74892078D01*
X155379136Y-74917947D01*
X155290151Y-75062308D01*
X155287846Y-75069256D01*
X155287846Y-75069257D01*
X155261403Y-75148981D01*
X155236762Y-75223269D01*
X155226500Y-75323428D01*
X155226500Y-75857572D01*
X149318500Y-75857572D01*
X149318500Y-74962574D01*
X149338502Y-74894453D01*
X149392158Y-74847960D01*
X149462432Y-74837856D01*
X149477009Y-74841006D01*
X149479692Y-74842030D01*
X149484762Y-74843061D01*
X149484767Y-74843063D01*
X149609712Y-74868483D01*
X149698597Y-74886567D01*
X149703772Y-74886757D01*
X149703774Y-74886757D01*
X149916673Y-74894564D01*
X149916677Y-74894564D01*
X149921837Y-74894753D01*
X149926957Y-74894097D01*
X149926959Y-74894097D01*
X150138288Y-74867025D01*
X150138289Y-74867025D01*
X150143416Y-74866368D01*
X150148366Y-74864883D01*
X150352429Y-74803661D01*
X150352434Y-74803659D01*
X150357384Y-74802174D01*
X150557994Y-74703896D01*
X150739860Y-74574173D01*
X150802197Y-74512054D01*
X150894435Y-74420137D01*
X150898096Y-74416489D01*
X150902804Y-74409938D01*
X151028453Y-74235077D01*
X151029776Y-74236028D01*
X151076645Y-74192857D01*
X151146580Y-74180625D01*
X151212026Y-74208144D01*
X151239875Y-74239994D01*
X151243740Y-74246301D01*
X151299987Y-74338088D01*
X151446250Y-74506938D01*
X151618126Y-74649632D01*
X151811000Y-74762338D01*
X152019692Y-74842030D01*
X152024760Y-74843061D01*
X152024763Y-74843062D01*
X152132017Y-74864883D01*
X152238597Y-74886567D01*
X152243772Y-74886757D01*
X152243774Y-74886757D01*
X152456673Y-74894564D01*
X152456677Y-74894564D01*
X152461837Y-74894753D01*
X152466957Y-74894097D01*
X152466959Y-74894097D01*
X152678288Y-74867025D01*
X152678289Y-74867025D01*
X152683416Y-74866368D01*
X152688366Y-74864883D01*
X152892429Y-74803661D01*
X152892434Y-74803659D01*
X152897384Y-74802174D01*
X153097994Y-74703896D01*
X153279860Y-74574173D01*
X153342197Y-74512054D01*
X153434435Y-74420137D01*
X153438096Y-74416489D01*
X153442804Y-74409938D01*
X153565435Y-74239277D01*
X153568453Y-74235077D01*
X153589320Y-74192857D01*
X153665136Y-74039453D01*
X153665137Y-74039451D01*
X153667430Y-74034811D01*
X153732370Y-73821069D01*
X153761529Y-73599590D01*
X153761637Y-73595173D01*
X153763074Y-73536365D01*
X153763074Y-73536361D01*
X153763156Y-73533000D01*
X153744852Y-73310361D01*
X153690431Y-73093702D01*
X153601354Y-72888840D01*
X153534542Y-72785565D01*
X153482822Y-72705617D01*
X153482820Y-72705614D01*
X153480014Y-72701277D01*
X153329670Y-72536051D01*
X153325619Y-72532852D01*
X153325615Y-72532848D01*
X153158414Y-72400800D01*
X153158410Y-72400798D01*
X153154359Y-72397598D01*
X153112569Y-72374529D01*
X153062598Y-72324097D01*
X153047826Y-72254654D01*
X153072942Y-72188248D01*
X153100294Y-72161641D01*
X153275328Y-72036792D01*
X153283200Y-72030139D01*
X153434052Y-71879812D01*
X153440730Y-71871965D01*
X153565003Y-71699020D01*
X153570313Y-71690183D01*
X153664670Y-71499267D01*
X153668469Y-71489672D01*
X153730377Y-71285910D01*
X153732555Y-71275837D01*
X153733986Y-71264962D01*
X153731775Y-71250778D01*
X153718617Y-71247000D01*
X152272000Y-71247000D01*
X152203879Y-71226998D01*
X152157386Y-71173342D01*
X152146000Y-71121000D01*
X152146000Y-70720885D01*
X152654000Y-70720885D01*
X152658475Y-70736124D01*
X152659865Y-70737329D01*
X152667548Y-70739000D01*
X153718344Y-70739000D01*
X153731875Y-70735027D01*
X153733180Y-70725947D01*
X153691214Y-70558875D01*
X153687894Y-70549124D01*
X153602972Y-70353814D01*
X153598105Y-70344739D01*
X153482426Y-70165926D01*
X153476136Y-70157757D01*
X153332806Y-70000240D01*
X153325273Y-69993215D01*
X153158139Y-69861222D01*
X153149552Y-69855517D01*
X152963117Y-69752599D01*
X152953705Y-69748369D01*
X152752959Y-69677280D01*
X152742988Y-69674646D01*
X152671837Y-69661972D01*
X152658540Y-69663432D01*
X152654000Y-69677989D01*
X152654000Y-70720885D01*
X152146000Y-70720885D01*
X152146000Y-69676102D01*
X152142082Y-69662758D01*
X152127806Y-69660771D01*
X152089324Y-69666660D01*
X152079288Y-69669051D01*
X151876868Y-69735212D01*
X151867359Y-69739209D01*
X151678463Y-69837542D01*
X151669738Y-69843036D01*
X151499433Y-69970905D01*
X151491726Y-69977748D01*
X151414478Y-70058584D01*
X151352954Y-70094014D01*
X151282042Y-70090557D01*
X151224255Y-70049311D01*
X151205402Y-70015763D01*
X151163767Y-69904703D01*
X151160615Y-69896295D01*
X151073261Y-69779739D01*
X150956705Y-69692385D01*
X150820316Y-69641255D01*
X150758134Y-69634500D01*
X148961866Y-69634500D01*
X148899684Y-69641255D01*
X148763295Y-69692385D01*
X148646739Y-69779739D01*
X148559385Y-69896295D01*
X148508255Y-70032684D01*
X148501500Y-70094866D01*
X148501500Y-71297340D01*
X148481498Y-71365461D01*
X148464595Y-71386435D01*
X148129480Y-71721550D01*
X148123215Y-71727404D01*
X148079615Y-71765439D01*
X148058905Y-71794906D01*
X148042872Y-71817719D01*
X148038939Y-71823014D01*
X147999524Y-71873282D01*
X147996401Y-71880198D01*
X147995017Y-71882484D01*
X147986643Y-71897165D01*
X147985378Y-71899525D01*
X147981010Y-71905739D01*
X147978250Y-71912818D01*
X147978249Y-71912820D01*
X147957798Y-71965275D01*
X147955247Y-71971344D01*
X147928955Y-72029573D01*
X147927571Y-72037040D01*
X147926770Y-72039595D01*
X147922141Y-72055848D01*
X147921478Y-72058428D01*
X147918718Y-72065509D01*
X147917727Y-72073040D01*
X147917726Y-72073042D01*
X147914826Y-72095073D01*
X147912194Y-72115068D01*
X147910379Y-72128852D01*
X147909348Y-72135359D01*
X147897704Y-72198186D01*
X147898141Y-72205766D01*
X147898141Y-72205767D01*
X147901291Y-72260392D01*
X147901500Y-72267646D01*
X147901500Y-75961339D01*
X147881498Y-76029460D01*
X147864595Y-76050434D01*
X147750595Y-76164434D01*
X147688283Y-76198460D01*
X147617468Y-76193395D01*
X147560632Y-76150848D01*
X147535821Y-76084328D01*
X147535500Y-76075339D01*
X147535500Y-75301866D01*
X147528745Y-75239684D01*
X147477615Y-75103295D01*
X147390261Y-74986739D01*
X147273705Y-74899385D01*
X147137316Y-74848255D01*
X147075134Y-74841500D01*
X145278866Y-74841500D01*
X145216684Y-74848255D01*
X145080295Y-74899385D01*
X144963739Y-74986739D01*
X144876385Y-75103295D01*
X144825255Y-75239684D01*
X144818500Y-75301866D01*
X144818500Y-77098134D01*
X144825255Y-77160316D01*
X144876385Y-77296705D01*
X144963739Y-77413261D01*
X145080295Y-77500615D01*
X145088704Y-77503767D01*
X145088705Y-77503768D01*
X145197451Y-77544535D01*
X145254216Y-77587176D01*
X145278916Y-77653738D01*
X145263709Y-77723087D01*
X145244316Y-77749568D01*
X145184402Y-77812264D01*
X145122877Y-77847694D01*
X145051965Y-77844237D01*
X145004213Y-77814308D01*
X144966652Y-77776747D01*
X144959112Y-77768461D01*
X144955000Y-77761982D01*
X144933858Y-77742128D01*
X144905349Y-77715357D01*
X144902507Y-77712602D01*
X144882770Y-77692865D01*
X144879573Y-77690385D01*
X144870551Y-77682680D01*
X144844100Y-77657841D01*
X144838321Y-77652414D01*
X144831375Y-77648595D01*
X144831372Y-77648593D01*
X144820566Y-77642652D01*
X144804047Y-77631801D01*
X144796720Y-77626118D01*
X144788041Y-77619386D01*
X144780772Y-77616241D01*
X144780768Y-77616238D01*
X144747463Y-77601826D01*
X144736813Y-77596609D01*
X144698060Y-77575305D01*
X144678437Y-77570267D01*
X144659734Y-77563863D01*
X144648420Y-77558967D01*
X144648419Y-77558967D01*
X144641145Y-77555819D01*
X144633322Y-77554580D01*
X144633312Y-77554577D01*
X144597476Y-77548901D01*
X144585856Y-77546495D01*
X144550711Y-77537472D01*
X144550710Y-77537472D01*
X144543030Y-77535500D01*
X144522776Y-77535500D01*
X144503065Y-77533949D01*
X144490886Y-77532020D01*
X144483057Y-77530780D01*
X144475165Y-77531526D01*
X144439039Y-77534941D01*
X144427181Y-77535500D01*
X144405710Y-77535500D01*
X144337589Y-77515498D01*
X144316615Y-77498595D01*
X144225381Y-77407361D01*
X144078699Y-77318528D01*
X144071452Y-77316257D01*
X144071450Y-77316256D01*
X143993260Y-77291753D01*
X143915062Y-77267247D01*
X143841635Y-77260500D01*
X143838737Y-77260500D01*
X143509140Y-77260501D01*
X143178366Y-77260501D01*
X143175506Y-77260764D01*
X143175501Y-77260764D01*
X143151458Y-77262973D01*
X143109665Y-77266813D01*
X143040001Y-77253127D01*
X142989020Y-77204342D01*
X142979040Y-77187056D01*
X142947151Y-77151639D01*
X142855675Y-77050045D01*
X142855674Y-77050044D01*
X142851253Y-77045134D01*
X142734984Y-76960659D01*
X142702094Y-76936763D01*
X142702093Y-76936762D01*
X142696752Y-76932882D01*
X142690724Y-76930198D01*
X142690722Y-76930197D01*
X142528319Y-76857891D01*
X142528318Y-76857891D01*
X142522288Y-76855206D01*
X142396412Y-76828450D01*
X142341944Y-76816872D01*
X142341939Y-76816872D01*
X142335487Y-76815500D01*
X142144513Y-76815500D01*
X142138061Y-76816872D01*
X142138056Y-76816872D01*
X142083588Y-76828450D01*
X141957712Y-76855206D01*
X141951682Y-76857891D01*
X141951681Y-76857891D01*
X141789278Y-76930197D01*
X141789276Y-76930198D01*
X141783248Y-76932882D01*
X141777907Y-76936762D01*
X141777906Y-76936763D01*
X141745016Y-76960659D01*
X141628747Y-77045134D01*
X141624326Y-77050044D01*
X141624325Y-77050045D01*
X141532850Y-77151639D01*
X141500960Y-77187056D01*
X141455015Y-77266635D01*
X141422783Y-77322463D01*
X141405473Y-77352444D01*
X141346458Y-77534072D01*
X141345768Y-77540633D01*
X141345768Y-77540635D01*
X141343841Y-77558967D01*
X141336187Y-77631801D01*
X141332326Y-77668533D01*
X141305313Y-77734190D01*
X141247092Y-77774820D01*
X141207874Y-77781223D01*
X141204000Y-77780884D01*
X140993345Y-77799314D01*
X140988032Y-77800738D01*
X140988030Y-77800738D01*
X140794400Y-77852621D01*
X140794398Y-77852622D01*
X140789090Y-77854044D01*
X140784109Y-77856366D01*
X140784108Y-77856367D01*
X140602423Y-77941088D01*
X140602420Y-77941090D01*
X140597442Y-77943411D01*
X140424224Y-78064699D01*
X140274699Y-78214224D01*
X140153411Y-78387442D01*
X140151090Y-78392420D01*
X140151088Y-78392423D01*
X140067039Y-78572667D01*
X140064044Y-78579090D01*
X140062622Y-78584398D01*
X140062621Y-78584400D01*
X140055707Y-78610204D01*
X140018755Y-78670827D01*
X139954894Y-78701848D01*
X139884400Y-78693420D01*
X139829653Y-78648217D01*
X139812293Y-78610204D01*
X139805379Y-78584400D01*
X139805378Y-78584398D01*
X139803956Y-78579090D01*
X139800961Y-78572667D01*
X139716912Y-78392423D01*
X139716910Y-78392420D01*
X139714589Y-78387442D01*
X139593301Y-78214224D01*
X139443776Y-78064699D01*
X139270558Y-77943411D01*
X139265580Y-77941090D01*
X139265577Y-77941088D01*
X139083892Y-77856367D01*
X139083891Y-77856366D01*
X139078910Y-77854044D01*
X139073602Y-77852622D01*
X139073600Y-77852621D01*
X138879970Y-77800738D01*
X138879968Y-77800738D01*
X138874655Y-77799314D01*
X138664000Y-77780884D01*
X138453345Y-77799314D01*
X138448032Y-77800738D01*
X138448030Y-77800738D01*
X138254400Y-77852621D01*
X138254398Y-77852622D01*
X138249090Y-77854044D01*
X138244109Y-77856366D01*
X138244108Y-77856367D01*
X138062423Y-77941088D01*
X138062420Y-77941090D01*
X138057442Y-77943411D01*
X137884224Y-78064699D01*
X137734699Y-78214224D01*
X137613411Y-78387442D01*
X137611090Y-78392420D01*
X137611088Y-78392423D01*
X137527039Y-78572667D01*
X137524044Y-78579090D01*
X137522622Y-78584398D01*
X137522621Y-78584400D01*
X137470738Y-78778030D01*
X137469314Y-78783345D01*
X137450884Y-78994000D01*
X137469314Y-79204655D01*
X137470738Y-79209968D01*
X137470738Y-79209970D01*
X137512614Y-79366251D01*
X137524044Y-79408910D01*
X137526366Y-79413891D01*
X137526367Y-79413892D01*
X137608037Y-79589033D01*
X137613411Y-79600558D01*
X137734699Y-79773776D01*
X137884224Y-79923301D01*
X138057442Y-80044589D01*
X138062420Y-80046910D01*
X138062423Y-80046912D01*
X138244108Y-80131633D01*
X138249090Y-80133956D01*
X138254398Y-80135378D01*
X138254400Y-80135379D01*
X138448030Y-80187262D01*
X138448032Y-80187262D01*
X138453345Y-80188686D01*
X138664000Y-80207116D01*
X138874655Y-80188686D01*
X138879968Y-80187262D01*
X138879970Y-80187262D01*
X139073600Y-80135379D01*
X139073602Y-80135378D01*
X139078910Y-80133956D01*
X139083892Y-80131633D01*
X139265577Y-80046912D01*
X139265580Y-80046910D01*
X139270558Y-80044589D01*
X139443776Y-79923301D01*
X139593301Y-79773776D01*
X139714589Y-79600558D01*
X139719964Y-79589033D01*
X139801633Y-79413892D01*
X139801634Y-79413891D01*
X139803956Y-79408910D01*
X139812293Y-79377796D01*
X139849245Y-79317173D01*
X139913106Y-79286152D01*
X139983600Y-79294580D01*
X140038347Y-79339783D01*
X140055707Y-79377796D01*
X140064044Y-79408910D01*
X140066366Y-79413891D01*
X140066367Y-79413892D01*
X140148037Y-79589033D01*
X140153411Y-79600558D01*
X140274699Y-79773776D01*
X140424224Y-79923301D01*
X140597442Y-80044589D01*
X140602420Y-80046910D01*
X140602423Y-80046912D01*
X140784108Y-80131633D01*
X140789090Y-80133956D01*
X140794398Y-80135378D01*
X140794400Y-80135379D01*
X140988030Y-80187262D01*
X140988032Y-80187262D01*
X140993345Y-80188686D01*
X141204000Y-80207116D01*
X141414655Y-80188686D01*
X141419968Y-80187262D01*
X141419970Y-80187262D01*
X141613600Y-80135379D01*
X141613602Y-80135378D01*
X141618910Y-80133956D01*
X141623892Y-80131633D01*
X141805577Y-80046912D01*
X141805580Y-80046910D01*
X141810558Y-80044589D01*
X141983776Y-79923301D01*
X142133301Y-79773776D01*
X142226557Y-79640592D01*
X142282013Y-79596264D01*
X142352632Y-79588955D01*
X142418864Y-79623768D01*
X142489595Y-79694499D01*
X142523621Y-79756811D01*
X142526500Y-79783594D01*
X142526501Y-79931807D01*
X142526501Y-80075634D01*
X142526764Y-80078492D01*
X142526764Y-80078501D01*
X142529980Y-80113507D01*
X142533247Y-80149062D01*
X142535246Y-80155440D01*
X142535246Y-80155441D01*
X142576550Y-80287240D01*
X142584528Y-80312699D01*
X142673361Y-80459381D01*
X142794619Y-80580639D01*
X142801120Y-80584576D01*
X142815771Y-80593449D01*
X142863678Y-80645846D01*
X142876500Y-80701225D01*
X142876500Y-82172556D01*
X142856498Y-82240677D01*
X142802842Y-82287170D01*
X142732568Y-82297274D01*
X142667988Y-82267780D01*
X142634951Y-82222799D01*
X142626591Y-82203572D01*
X142552354Y-82032840D01*
X142512906Y-81971862D01*
X142433822Y-81849617D01*
X142433820Y-81849614D01*
X142431014Y-81845277D01*
X142280670Y-81680051D01*
X142276619Y-81676852D01*
X142276615Y-81676848D01*
X142109412Y-81544799D01*
X142105359Y-81541598D01*
X142098793Y-81537973D01*
X142032538Y-81501399D01*
X141909789Y-81433638D01*
X141904920Y-81431914D01*
X141904916Y-81431912D01*
X141704087Y-81360795D01*
X141704083Y-81360794D01*
X141699212Y-81359069D01*
X141694119Y-81358162D01*
X141694116Y-81358161D01*
X141484373Y-81320800D01*
X141484367Y-81320799D01*
X141479284Y-81319894D01*
X141405452Y-81318992D01*
X141261081Y-81317228D01*
X141261079Y-81317228D01*
X141255911Y-81317165D01*
X141035091Y-81350955D01*
X140822756Y-81420357D01*
X140792443Y-81436137D01*
X140715635Y-81476121D01*
X140624607Y-81523507D01*
X140620474Y-81526610D01*
X140620471Y-81526612D01*
X140450100Y-81654530D01*
X140445965Y-81657635D01*
X140389537Y-81716684D01*
X140365283Y-81742064D01*
X140303759Y-81777494D01*
X140232846Y-81774037D01*
X140175060Y-81732791D01*
X140156207Y-81699243D01*
X140114767Y-81588703D01*
X140111615Y-81580295D01*
X140024261Y-81463739D01*
X139907705Y-81376385D01*
X139771316Y-81325255D01*
X139709134Y-81318500D01*
X137912866Y-81318500D01*
X137850684Y-81325255D01*
X137714295Y-81376385D01*
X137597739Y-81463739D01*
X137510385Y-81580295D01*
X137459255Y-81716684D01*
X137452500Y-81778866D01*
X137452500Y-83575134D01*
X137459255Y-83637316D01*
X137510385Y-83773705D01*
X137597739Y-83890261D01*
X137714295Y-83977615D01*
X137722704Y-83980767D01*
X137722705Y-83980768D01*
X137831451Y-84021535D01*
X137888216Y-84064176D01*
X137912916Y-84130738D01*
X137897709Y-84200087D01*
X137878316Y-84226568D01*
X137751629Y-84359138D01*
X137625743Y-84543680D01*
X137610003Y-84577590D01*
X137546216Y-84715008D01*
X137531688Y-84746305D01*
X137471989Y-84961570D01*
X137448251Y-85183695D01*
X137448548Y-85188848D01*
X137448548Y-85188851D01*
X137454011Y-85283590D01*
X137461110Y-85406715D01*
X137462247Y-85411761D01*
X137462248Y-85411767D01*
X137479541Y-85488498D01*
X137510222Y-85624639D01*
X137548461Y-85718811D01*
X137590110Y-85821380D01*
X137594266Y-85831616D01*
X137632677Y-85894297D01*
X137708291Y-86017688D01*
X137710987Y-86022088D01*
X137857250Y-86190938D01*
X138029126Y-86333632D01*
X138056776Y-86349789D01*
X138102955Y-86376774D01*
X138151679Y-86428412D01*
X138164750Y-86498195D01*
X138138019Y-86563967D01*
X138097562Y-86597327D01*
X138089457Y-86601546D01*
X138080738Y-86607036D01*
X137910433Y-86734905D01*
X137902726Y-86741748D01*
X137755590Y-86895717D01*
X137749104Y-86903727D01*
X137629098Y-87079649D01*
X137624000Y-87088623D01*
X137534338Y-87281783D01*
X137530775Y-87291470D01*
X137475389Y-87491183D01*
X137476912Y-87499607D01*
X137489292Y-87503000D01*
X138939000Y-87503000D01*
X139007121Y-87523002D01*
X139053614Y-87576658D01*
X139065000Y-87629000D01*
X139065000Y-89075517D01*
X139069064Y-89089359D01*
X139082478Y-89091393D01*
X139089184Y-89090534D01*
X139099262Y-89088392D01*
X139303255Y-89027191D01*
X139312842Y-89023433D01*
X139504095Y-88929739D01*
X139512945Y-88924464D01*
X139686328Y-88800792D01*
X139694200Y-88794139D01*
X139845052Y-88643812D01*
X139851730Y-88635965D01*
X139979022Y-88458819D01*
X139980279Y-88459722D01*
X140027373Y-88416362D01*
X140097311Y-88404145D01*
X140162751Y-88431678D01*
X140190579Y-88463511D01*
X140250987Y-88562088D01*
X140397250Y-88730938D01*
X140569126Y-88873632D01*
X140762000Y-88986338D01*
X140766825Y-88988180D01*
X140766826Y-88988181D01*
X140839612Y-89015975D01*
X140970692Y-89066030D01*
X140975760Y-89067061D01*
X140975763Y-89067062D01*
X141070862Y-89086410D01*
X141189597Y-89110567D01*
X141194772Y-89110757D01*
X141194774Y-89110757D01*
X141407673Y-89118564D01*
X141407677Y-89118564D01*
X141412837Y-89118753D01*
X141417957Y-89118097D01*
X141417959Y-89118097D01*
X141629288Y-89091025D01*
X141629289Y-89091025D01*
X141634416Y-89090368D01*
X141639366Y-89088883D01*
X141843429Y-89027661D01*
X141843434Y-89027659D01*
X141848384Y-89026174D01*
X142048994Y-88927896D01*
X142230860Y-88798173D01*
X142389096Y-88640489D01*
X142519453Y-88459077D01*
X142532995Y-88431678D01*
X142581431Y-88333673D01*
X142629544Y-88281466D01*
X142694388Y-88263500D01*
X146733233Y-88263500D01*
X146744416Y-88264027D01*
X146751909Y-88265702D01*
X146759835Y-88265453D01*
X146759836Y-88265453D01*
X146819986Y-88263562D01*
X146823945Y-88263500D01*
X146851856Y-88263500D01*
X146855791Y-88263003D01*
X146855856Y-88262995D01*
X146867693Y-88262062D01*
X146899951Y-88261048D01*
X146903970Y-88260922D01*
X146911889Y-88260673D01*
X146931343Y-88255021D01*
X146950700Y-88251013D01*
X146962930Y-88249468D01*
X146962931Y-88249468D01*
X146970797Y-88248474D01*
X146978168Y-88245555D01*
X146978170Y-88245555D01*
X147011912Y-88232196D01*
X147023142Y-88228351D01*
X147057983Y-88218229D01*
X147057984Y-88218229D01*
X147065593Y-88216018D01*
X147072412Y-88211985D01*
X147072417Y-88211983D01*
X147083028Y-88205707D01*
X147100776Y-88197012D01*
X147119617Y-88189552D01*
X147120420Y-88191578D01*
X147178812Y-88178701D01*
X147245403Y-88203323D01*
X147263814Y-88220091D01*
X147343747Y-88308866D01*
X147498248Y-88421118D01*
X147504276Y-88423802D01*
X147504278Y-88423803D01*
X147666681Y-88496109D01*
X147672712Y-88498794D01*
X147766113Y-88518647D01*
X147853056Y-88537128D01*
X147853061Y-88537128D01*
X147859513Y-88538500D01*
X148050487Y-88538500D01*
X148056939Y-88537128D01*
X148056944Y-88537128D01*
X148143887Y-88518647D01*
X148237288Y-88498794D01*
X148243319Y-88496109D01*
X148405722Y-88423803D01*
X148405724Y-88423802D01*
X148411752Y-88421118D01*
X148566253Y-88308866D01*
X148607548Y-88263003D01*
X148689621Y-88171852D01*
X148689622Y-88171851D01*
X148694040Y-88166944D01*
X148783110Y-88012671D01*
X148786223Y-88007279D01*
X148786224Y-88007278D01*
X148789527Y-88001556D01*
X148829294Y-87879168D01*
X148869366Y-87820563D01*
X148934763Y-87792926D01*
X148984275Y-87797107D01*
X148989989Y-87798767D01*
X148989993Y-87798768D01*
X148996169Y-87800562D01*
X149002574Y-87801066D01*
X149002579Y-87801067D01*
X149031042Y-87803307D01*
X149031050Y-87803307D01*
X149033498Y-87803500D01*
X149952361Y-87803500D01*
X150022807Y-87825033D01*
X153614446Y-90247005D01*
X153659742Y-90301675D01*
X153670000Y-90351472D01*
X153670000Y-96764038D01*
X153649998Y-96832159D01*
X153609272Y-96871813D01*
X153474619Y-96953361D01*
X153353361Y-97074619D01*
X153264528Y-97221301D01*
X153213247Y-97384938D01*
X153206500Y-97458365D01*
X153206501Y-98121634D01*
X153213247Y-98195062D01*
X153264528Y-98358699D01*
X153353361Y-98505381D01*
X153424595Y-98576615D01*
X153458621Y-98638927D01*
X153461500Y-98665710D01*
X153461500Y-105331233D01*
X153460973Y-105342416D01*
X153459298Y-105349909D01*
X153459547Y-105357835D01*
X153459547Y-105357836D01*
X153461438Y-105417986D01*
X153461500Y-105421945D01*
X153461500Y-105449856D01*
X153461997Y-105453790D01*
X153461997Y-105453791D01*
X153462005Y-105453856D01*
X153462938Y-105465693D01*
X153464327Y-105509889D01*
X153469978Y-105529339D01*
X153473987Y-105548700D01*
X153476526Y-105568797D01*
X153479445Y-105576168D01*
X153479445Y-105576170D01*
X153492804Y-105609912D01*
X153496649Y-105621142D01*
X153508982Y-105663593D01*
X153513015Y-105670412D01*
X153513017Y-105670417D01*
X153519293Y-105681028D01*
X153527988Y-105698776D01*
X153535448Y-105717617D01*
X153540110Y-105724033D01*
X153540110Y-105724034D01*
X153561436Y-105753387D01*
X153567952Y-105763307D01*
X153590458Y-105801362D01*
X153604779Y-105815683D01*
X153617619Y-105830716D01*
X153629528Y-105847107D01*
X153635634Y-105852158D01*
X153663605Y-105875298D01*
X153672384Y-105883288D01*
X153681343Y-105892247D01*
X153688887Y-105900537D01*
X153693000Y-105907018D01*
X153698777Y-105912443D01*
X153742667Y-105953658D01*
X153745509Y-105956413D01*
X153765230Y-105976134D01*
X153768425Y-105978612D01*
X153777447Y-105986318D01*
X153809679Y-106016586D01*
X153816628Y-106020406D01*
X153827432Y-106026346D01*
X153843956Y-106037199D01*
X153859959Y-106049613D01*
X153900543Y-106067176D01*
X153911173Y-106072383D01*
X153949940Y-106093695D01*
X153957620Y-106095667D01*
X153964990Y-106098585D01*
X153963855Y-106101452D01*
X154012497Y-106130393D01*
X154021000Y-106140575D01*
X154051354Y-106181077D01*
X154051358Y-106181081D01*
X154056739Y-106188261D01*
X154063919Y-106193642D01*
X154063922Y-106193645D01*
X154127498Y-106241292D01*
X154173295Y-106275615D01*
X154309684Y-106326745D01*
X154371866Y-106333500D01*
X154868134Y-106333500D01*
X154872746Y-106332999D01*
X154922466Y-106327598D01*
X154922468Y-106327598D01*
X154930316Y-106326745D01*
X154950971Y-106319002D01*
X154956485Y-106316935D01*
X155027292Y-106311753D01*
X155044939Y-106316935D01*
X155062399Y-106323480D01*
X155077643Y-106327105D01*
X155128514Y-106332631D01*
X155135328Y-106333000D01*
X155161885Y-106333000D01*
X155194849Y-106323321D01*
X155224750Y-106304104D01*
X155260250Y-106299000D01*
X155501561Y-106299000D01*
X155569682Y-106319002D01*
X155584073Y-106329775D01*
X155585865Y-106331328D01*
X155593548Y-106332999D01*
X155624669Y-106332999D01*
X155631490Y-106332629D01*
X155682352Y-106327105D01*
X155697603Y-106323479D01*
X155741513Y-106307018D01*
X155785743Y-106299000D01*
X158365500Y-106299000D01*
X158433621Y-106319002D01*
X158480114Y-106372658D01*
X158491500Y-106425000D01*
X158491500Y-120134386D01*
X158471498Y-120202507D01*
X158417842Y-120249000D01*
X158347568Y-120259104D01*
X158282988Y-120229610D01*
X158276483Y-120223560D01*
X158269172Y-120216262D01*
X158257760Y-120207249D01*
X158119757Y-120122184D01*
X158106576Y-120116037D01*
X157952290Y-120064862D01*
X157938914Y-120061995D01*
X157844562Y-120052328D01*
X157838145Y-120052000D01*
X157813115Y-120052000D01*
X157797876Y-120056475D01*
X157796671Y-120057865D01*
X157795000Y-120065548D01*
X157795000Y-122499884D01*
X157799475Y-122515123D01*
X157800865Y-122516328D01*
X157808548Y-122517999D01*
X157838095Y-122517999D01*
X157844614Y-122517662D01*
X157940206Y-122507743D01*
X157953600Y-122504851D01*
X158107784Y-122453412D01*
X158120962Y-122447239D01*
X158258807Y-122361937D01*
X158270207Y-122352901D01*
X158276326Y-122346772D01*
X158338608Y-122312692D01*
X158409428Y-122317694D01*
X158466301Y-122360191D01*
X158491171Y-122426689D01*
X158491500Y-122435789D01*
X158491500Y-139237183D01*
X158471498Y-139305304D01*
X158454595Y-139326278D01*
X158326278Y-139454595D01*
X158263966Y-139488621D01*
X158237183Y-139491500D01*
X151262817Y-139491500D01*
X151194696Y-139471498D01*
X151173722Y-139454595D01*
X151045405Y-139326278D01*
X151011379Y-139263966D01*
X151008500Y-139237183D01*
X151008500Y-118360289D01*
X151028502Y-118292168D01*
X151082158Y-118245675D01*
X151152432Y-118235571D01*
X151208562Y-118258354D01*
X151219248Y-118266118D01*
X151225276Y-118268802D01*
X151225278Y-118268803D01*
X151387681Y-118341109D01*
X151393712Y-118343794D01*
X151493895Y-118365089D01*
X151546568Y-118376285D01*
X151609466Y-118410437D01*
X151662557Y-118463528D01*
X151668411Y-118469793D01*
X151706439Y-118513385D01*
X151758729Y-118550136D01*
X151763971Y-118554028D01*
X151814282Y-118593476D01*
X151821201Y-118596600D01*
X151823493Y-118597988D01*
X151838165Y-118606357D01*
X151840525Y-118607622D01*
X151846739Y-118611990D01*
X151853818Y-118614750D01*
X151853820Y-118614751D01*
X151906275Y-118635202D01*
X151912364Y-118637762D01*
X151914512Y-118638732D01*
X151968355Y-118685007D01*
X151977333Y-118701404D01*
X151984783Y-118717789D01*
X151987196Y-118721562D01*
X152059624Y-118834814D01*
X152063258Y-118840497D01*
X152156748Y-118948998D01*
X152266511Y-119044750D01*
X152270272Y-119047188D01*
X152270275Y-119047190D01*
X152277943Y-119052160D01*
X152386696Y-119122650D01*
X152390757Y-119124526D01*
X152390758Y-119124527D01*
X152399543Y-119128586D01*
X152518924Y-119183748D01*
X152587533Y-119204266D01*
X152651844Y-119223499D01*
X152651849Y-119223500D01*
X152656142Y-119224784D01*
X152660574Y-119225446D01*
X152660577Y-119225447D01*
X152795765Y-119245650D01*
X152795768Y-119245650D01*
X152800196Y-119246312D01*
X152874855Y-119246768D01*
X152938945Y-119247160D01*
X152938950Y-119247160D01*
X152943417Y-119247187D01*
X152945861Y-119246852D01*
X152949656Y-119246729D01*
X153343500Y-119246729D01*
X153411621Y-119266731D01*
X153458114Y-119320387D01*
X153469500Y-119372729D01*
X153469500Y-119793088D01*
X153469208Y-119801658D01*
X153465275Y-119859352D01*
X153466580Y-119866829D01*
X153466580Y-119866830D01*
X153476261Y-119922299D01*
X153477223Y-119928821D01*
X153484898Y-119992242D01*
X153487581Y-119999343D01*
X153488222Y-120001952D01*
X153492685Y-120018262D01*
X153493450Y-120020798D01*
X153494757Y-120028284D01*
X153497811Y-120035241D01*
X153520442Y-120086795D01*
X153522933Y-120092899D01*
X153545513Y-120152656D01*
X153549817Y-120158919D01*
X153551054Y-120161285D01*
X153559299Y-120176097D01*
X153560632Y-120178351D01*
X153563685Y-120185305D01*
X153597683Y-120229610D01*
X153602579Y-120235991D01*
X153606459Y-120241332D01*
X153638339Y-120287720D01*
X153638344Y-120287725D01*
X153642643Y-120293981D01*
X153648313Y-120299032D01*
X153648314Y-120299034D01*
X153689170Y-120335435D01*
X153694446Y-120340416D01*
X154135935Y-120781905D01*
X154169961Y-120844217D01*
X154164896Y-120915032D01*
X154135935Y-120960095D01*
X153189480Y-121906550D01*
X153183215Y-121912404D01*
X153139615Y-121950439D01*
X153135248Y-121956653D01*
X153102872Y-122002719D01*
X153098939Y-122008014D01*
X153059524Y-122058282D01*
X153056401Y-122065198D01*
X153055017Y-122067484D01*
X153046643Y-122082165D01*
X153045378Y-122084525D01*
X153041010Y-122090739D01*
X153038250Y-122097818D01*
X153038249Y-122097820D01*
X153017798Y-122150275D01*
X153015247Y-122156344D01*
X152988955Y-122214573D01*
X152987571Y-122222040D01*
X152986770Y-122224595D01*
X152982141Y-122240848D01*
X152981478Y-122243428D01*
X152978718Y-122250509D01*
X152970532Y-122312692D01*
X152970379Y-122313852D01*
X152969347Y-122320367D01*
X152962929Y-122354996D01*
X152930848Y-122418331D01*
X152869619Y-122454268D01*
X152803887Y-122453032D01*
X152660011Y-122411233D01*
X152660007Y-122411232D01*
X152653831Y-122409438D01*
X152647426Y-122408934D01*
X152647421Y-122408933D01*
X152618958Y-122406693D01*
X152618950Y-122406693D01*
X152616502Y-122406500D01*
X152183498Y-122406500D01*
X152181050Y-122406693D01*
X152181042Y-122406693D01*
X152152579Y-122408933D01*
X152152574Y-122408934D01*
X152146169Y-122409438D01*
X152055467Y-122435789D01*
X151994012Y-122453643D01*
X151994010Y-122453644D01*
X151986399Y-122455855D01*
X151979572Y-122459892D01*
X151979573Y-122459892D01*
X151850020Y-122536509D01*
X151850017Y-122536511D01*
X151843193Y-122540547D01*
X151725547Y-122658193D01*
X151721511Y-122665017D01*
X151721509Y-122665020D01*
X151657893Y-122772589D01*
X151640855Y-122801399D01*
X151594438Y-122961169D01*
X151591500Y-122998498D01*
X151591500Y-124781502D01*
X151594438Y-124818831D01*
X151640855Y-124978601D01*
X151644892Y-124985427D01*
X151721509Y-125114980D01*
X151721511Y-125114983D01*
X151725547Y-125121807D01*
X151736058Y-125132318D01*
X151768120Y-125195239D01*
X151769327Y-125194888D01*
X151769327Y-125194889D01*
X151771538Y-125202499D01*
X151774978Y-125214339D01*
X151778987Y-125233700D01*
X151781526Y-125253797D01*
X151784445Y-125261168D01*
X151784445Y-125261170D01*
X151797804Y-125294912D01*
X151801649Y-125306142D01*
X151813982Y-125348593D01*
X151818015Y-125355412D01*
X151818017Y-125355417D01*
X151824293Y-125366028D01*
X151832988Y-125383776D01*
X151840448Y-125402617D01*
X151845110Y-125409033D01*
X151845110Y-125409034D01*
X151866436Y-125438387D01*
X151872952Y-125448307D01*
X151895458Y-125486362D01*
X151909779Y-125500683D01*
X151922619Y-125515716D01*
X151934528Y-125532107D01*
X151968605Y-125560298D01*
X151977384Y-125568288D01*
X152087878Y-125678782D01*
X152121904Y-125741094D01*
X152124092Y-125754703D01*
X152141458Y-125919928D01*
X152143498Y-125926206D01*
X152163371Y-125987370D01*
X152165398Y-126058338D01*
X152128736Y-126119136D01*
X152094786Y-126141413D01*
X151949281Y-126206195D01*
X151949274Y-126206199D01*
X151943248Y-126208882D01*
X151788747Y-126321134D01*
X151784326Y-126326044D01*
X151784325Y-126326045D01*
X151706257Y-126412749D01*
X151660960Y-126463056D01*
X151565473Y-126628444D01*
X151506458Y-126810072D01*
X151486496Y-127000000D01*
X151506458Y-127189928D01*
X151565473Y-127371556D01*
X151568776Y-127377278D01*
X151568777Y-127377279D01*
X151587606Y-127409892D01*
X151660960Y-127536944D01*
X151665379Y-127541852D01*
X151669261Y-127547195D01*
X151667611Y-127548394D01*
X151694158Y-127603695D01*
X151685402Y-127674149D01*
X151678264Y-127688143D01*
X151640855Y-127751399D01*
X151638644Y-127759010D01*
X151638643Y-127759012D01*
X151623472Y-127811231D01*
X151594438Y-127911169D01*
X151593934Y-127917574D01*
X151593933Y-127917579D01*
X151591693Y-127946042D01*
X151591500Y-127948498D01*
X151591500Y-129731502D01*
X151591693Y-129733950D01*
X151591693Y-129733958D01*
X151593927Y-129762333D01*
X151594438Y-129768831D01*
X151596233Y-129775008D01*
X151638586Y-129920790D01*
X151640855Y-129928601D01*
X151644892Y-129935427D01*
X151721509Y-130064980D01*
X151721511Y-130064983D01*
X151725547Y-130071807D01*
X151843193Y-130189453D01*
X151850017Y-130193489D01*
X151850020Y-130193491D01*
X151957589Y-130257107D01*
X151986399Y-130274145D01*
X151994010Y-130276356D01*
X151994012Y-130276357D01*
X152046231Y-130291528D01*
X152146169Y-130320562D01*
X152152574Y-130321066D01*
X152152579Y-130321067D01*
X152181042Y-130323307D01*
X152181050Y-130323307D01*
X152183498Y-130323500D01*
X152616502Y-130323500D01*
X152618950Y-130323307D01*
X152618958Y-130323307D01*
X152647421Y-130321067D01*
X152647426Y-130321066D01*
X152653831Y-130320562D01*
X152753769Y-130291528D01*
X152805988Y-130276357D01*
X152805990Y-130276356D01*
X152813601Y-130274145D01*
X152956807Y-130189453D01*
X152959489Y-130186771D01*
X153023861Y-130161498D01*
X153093484Y-130175400D01*
X153109312Y-130185572D01*
X153113193Y-130189453D01*
X153256399Y-130274145D01*
X153264010Y-130276356D01*
X153264012Y-130276357D01*
X153316231Y-130291528D01*
X153416169Y-130320562D01*
X153422574Y-130321066D01*
X153422579Y-130321067D01*
X153451042Y-130323307D01*
X153451050Y-130323307D01*
X153453498Y-130323500D01*
X153886502Y-130323500D01*
X153888950Y-130323307D01*
X153888958Y-130323307D01*
X153917421Y-130321067D01*
X153917426Y-130321066D01*
X153923831Y-130320562D01*
X153930007Y-130318768D01*
X153930011Y-130318767D01*
X154070348Y-130277996D01*
X154141344Y-130278199D01*
X154200960Y-130316753D01*
X154230268Y-130381418D01*
X154231500Y-130398993D01*
X154231500Y-132519340D01*
X154211498Y-132587461D01*
X154194595Y-132608435D01*
X154170214Y-132632816D01*
X154107902Y-132666842D01*
X154066665Y-132667555D01*
X154066518Y-132668846D01*
X154062393Y-132668378D01*
X154058308Y-132667639D01*
X154054167Y-132667444D01*
X154054161Y-132667443D01*
X154035644Y-132666570D01*
X154035637Y-132666570D01*
X154034156Y-132666500D01*
X153572110Y-132666500D01*
X153505191Y-132672178D01*
X153405591Y-132680629D01*
X153405587Y-132680630D01*
X153400280Y-132681080D01*
X153395125Y-132682418D01*
X153395119Y-132682419D01*
X153182297Y-132737657D01*
X153182293Y-132737658D01*
X153177128Y-132738999D01*
X153172262Y-132741191D01*
X153172259Y-132741192D01*
X153025371Y-132807360D01*
X152966925Y-132833688D01*
X152775681Y-132962441D01*
X152771824Y-132966120D01*
X152771822Y-132966122D01*
X152702464Y-133032287D01*
X152608865Y-133121576D01*
X152471246Y-133306542D01*
X152366760Y-133512051D01*
X152365178Y-133517145D01*
X152365177Y-133517148D01*
X152346341Y-133577810D01*
X152298393Y-133732227D01*
X152268102Y-133960774D01*
X152276751Y-134191158D01*
X152324093Y-134416791D01*
X152408776Y-134631221D01*
X152528377Y-134828317D01*
X152531874Y-134832347D01*
X152618438Y-134932103D01*
X152679477Y-135002445D01*
X152715120Y-135031670D01*
X152755114Y-135090329D01*
X152757046Y-135161299D01*
X152720302Y-135222048D01*
X152701532Y-135236248D01*
X152570579Y-135317285D01*
X152555652Y-135326522D01*
X152430695Y-135451697D01*
X152337885Y-135602262D01*
X152282203Y-135770139D01*
X152271500Y-135874600D01*
X152271500Y-137175400D01*
X152282474Y-137281166D01*
X152338450Y-137448946D01*
X152431522Y-137599348D01*
X152556697Y-137724305D01*
X152562927Y-137728145D01*
X152562928Y-137728146D01*
X152700090Y-137812694D01*
X152707262Y-137817115D01*
X152787005Y-137843564D01*
X152868611Y-137870632D01*
X152868613Y-137870632D01*
X152875139Y-137872797D01*
X152881975Y-137873497D01*
X152881978Y-137873498D01*
X152925031Y-137877909D01*
X152979600Y-137883500D01*
X154580400Y-137883500D01*
X154583646Y-137883163D01*
X154583650Y-137883163D01*
X154679308Y-137873238D01*
X154679312Y-137873237D01*
X154686166Y-137872526D01*
X154692702Y-137870345D01*
X154692704Y-137870345D01*
X154824806Y-137826272D01*
X154853946Y-137816550D01*
X155004348Y-137723478D01*
X155129305Y-137598303D01*
X155222115Y-137447738D01*
X155277797Y-137279861D01*
X155288500Y-137175400D01*
X155288500Y-135874600D01*
X155277526Y-135768834D01*
X155221550Y-135601054D01*
X155128478Y-135450652D01*
X155003303Y-135325695D01*
X154857660Y-135235919D01*
X154810168Y-135183148D01*
X154798744Y-135113076D01*
X154827018Y-135047952D01*
X154836805Y-135037490D01*
X154947278Y-134932103D01*
X154951135Y-134928424D01*
X155088754Y-134743458D01*
X155193240Y-134537949D01*
X155229321Y-134421752D01*
X155260024Y-134322871D01*
X155261607Y-134317773D01*
X155262308Y-134312484D01*
X155291198Y-134094511D01*
X155291198Y-134094506D01*
X155291898Y-134089226D01*
X155283249Y-133858842D01*
X155239133Y-133648585D01*
X155244720Y-133577810D01*
X155273353Y-133533617D01*
X155420520Y-133386450D01*
X155426785Y-133380596D01*
X155464660Y-133347555D01*
X155470385Y-133342561D01*
X155507114Y-133290300D01*
X155511046Y-133285005D01*
X155545791Y-133240694D01*
X155550477Y-133234718D01*
X155553602Y-133227796D01*
X155554964Y-133225548D01*
X155563368Y-133210815D01*
X155564622Y-133208476D01*
X155568990Y-133202261D01*
X155571749Y-133195185D01*
X155571751Y-133195181D01*
X155592200Y-133142731D01*
X155594749Y-133136666D01*
X155621045Y-133078427D01*
X155622429Y-133070962D01*
X155623226Y-133068418D01*
X155627859Y-133052152D01*
X155628521Y-133049572D01*
X155631282Y-133042491D01*
X155639622Y-132979143D01*
X155640653Y-132972629D01*
X155642542Y-132962441D01*
X155652296Y-132909813D01*
X155648709Y-132847602D01*
X155648500Y-132840349D01*
X155648500Y-130398472D01*
X155668502Y-130330351D01*
X155722158Y-130283858D01*
X155792432Y-130273754D01*
X155809653Y-130277475D01*
X155938604Y-130314939D01*
X155952706Y-130314899D01*
X155956000Y-130307630D01*
X155956000Y-130301878D01*
X156464000Y-130301878D01*
X156467973Y-130315409D01*
X156475871Y-130316544D01*
X156615790Y-130275893D01*
X156630221Y-130269648D01*
X156759678Y-130193089D01*
X156772104Y-130183449D01*
X156878449Y-130077104D01*
X156888089Y-130064678D01*
X156964648Y-129935221D01*
X156970893Y-129920790D01*
X157013269Y-129774935D01*
X157015570Y-129762333D01*
X157017807Y-129733916D01*
X157018000Y-129728986D01*
X157018000Y-129112115D01*
X157013525Y-129096876D01*
X157012135Y-129095671D01*
X157004452Y-129094000D01*
X156482115Y-129094000D01*
X156466876Y-129098475D01*
X156465671Y-129099865D01*
X156464000Y-129107548D01*
X156464000Y-130301878D01*
X155956000Y-130301878D01*
X155956000Y-128567885D01*
X156464000Y-128567885D01*
X156468475Y-128583124D01*
X156469865Y-128584329D01*
X156477548Y-128586000D01*
X156999884Y-128586000D01*
X157015123Y-128581525D01*
X157016328Y-128580135D01*
X157017999Y-128572452D01*
X157017999Y-127951017D01*
X157017805Y-127946080D01*
X157015570Y-127917664D01*
X157013270Y-127905069D01*
X156970893Y-127759210D01*
X156964648Y-127744779D01*
X156888089Y-127615322D01*
X156878449Y-127602896D01*
X156772104Y-127496551D01*
X156759678Y-127486911D01*
X156630221Y-127410352D01*
X156615790Y-127404107D01*
X156481395Y-127365061D01*
X156467294Y-127365101D01*
X156464000Y-127372370D01*
X156464000Y-128567885D01*
X155956000Y-128567885D01*
X155956000Y-127378122D01*
X155952027Y-127364591D01*
X155944129Y-127363456D01*
X155804210Y-127404107D01*
X155789779Y-127410352D01*
X155660324Y-127486910D01*
X155652636Y-127492874D01*
X155586551Y-127518821D01*
X155516928Y-127504920D01*
X155500842Y-127494582D01*
X155496807Y-127490547D01*
X155353601Y-127405855D01*
X155345990Y-127403644D01*
X155345988Y-127403643D01*
X155258142Y-127378122D01*
X155193831Y-127359438D01*
X155187426Y-127358934D01*
X155187421Y-127358933D01*
X155158958Y-127356693D01*
X155158950Y-127356693D01*
X155156502Y-127356500D01*
X154723498Y-127356500D01*
X154721050Y-127356693D01*
X154721042Y-127356693D01*
X154692579Y-127358933D01*
X154692574Y-127358934D01*
X154686169Y-127359438D01*
X154679997Y-127361231D01*
X154679992Y-127361232D01*
X154644458Y-127371556D01*
X154630779Y-127375530D01*
X154559784Y-127375327D01*
X154500167Y-127336773D01*
X154470859Y-127272108D01*
X154481163Y-127201864D01*
X154506532Y-127165438D01*
X154868176Y-126803794D01*
X155345836Y-126326135D01*
X155408146Y-126292110D01*
X155478961Y-126297175D01*
X155528565Y-126330921D01*
X155598747Y-126408866D01*
X155753248Y-126521118D01*
X155759276Y-126523802D01*
X155759278Y-126523803D01*
X155921681Y-126596109D01*
X155927712Y-126598794D01*
X156021113Y-126618647D01*
X156108056Y-126637128D01*
X156108061Y-126637128D01*
X156114513Y-126638500D01*
X156305487Y-126638500D01*
X156311939Y-126637128D01*
X156311944Y-126637128D01*
X156398887Y-126618647D01*
X156492288Y-126598794D01*
X156498319Y-126596109D01*
X156660722Y-126523803D01*
X156660724Y-126523802D01*
X156666752Y-126521118D01*
X156821253Y-126408866D01*
X156900247Y-126321134D01*
X156944621Y-126271852D01*
X156944622Y-126271851D01*
X156949040Y-126266944D01*
X157044527Y-126101556D01*
X157103542Y-125919928D01*
X157123504Y-125730000D01*
X157103542Y-125540072D01*
X157044527Y-125358444D01*
X157024725Y-125324145D01*
X156952342Y-125198775D01*
X156952341Y-125198774D01*
X156949040Y-125193056D01*
X156944621Y-125188148D01*
X156942564Y-125185317D01*
X156918705Y-125118449D01*
X156918500Y-125111256D01*
X156918500Y-125098706D01*
X156936045Y-125034569D01*
X156969145Y-124978601D01*
X157015562Y-124818831D01*
X157018500Y-124781502D01*
X157018500Y-122998498D01*
X157015562Y-122961169D01*
X156969145Y-122801399D01*
X156884453Y-122658193D01*
X156886858Y-122656771D01*
X156865791Y-122603145D01*
X156879677Y-122533520D01*
X156929001Y-122482454D01*
X156998103Y-122466162D01*
X157030962Y-122472385D01*
X157129707Y-122505137D01*
X157143086Y-122508005D01*
X157237438Y-122517672D01*
X157243854Y-122518000D01*
X157268885Y-122518000D01*
X157284124Y-122513525D01*
X157285329Y-122512135D01*
X157287000Y-122504452D01*
X157287000Y-120070116D01*
X157282525Y-120054877D01*
X157281135Y-120053672D01*
X157273452Y-120052001D01*
X157243905Y-120052001D01*
X157237386Y-120052338D01*
X157141794Y-120062257D01*
X157128400Y-120065149D01*
X156974216Y-120116588D01*
X156961038Y-120122761D01*
X156823193Y-120208063D01*
X156811792Y-120217099D01*
X156697262Y-120331828D01*
X156690206Y-120340762D01*
X156632288Y-120381823D01*
X156561365Y-120385053D01*
X156499954Y-120349426D01*
X156493154Y-120341593D01*
X156489478Y-120335652D01*
X156364303Y-120210695D01*
X156270147Y-120152656D01*
X156219968Y-120121725D01*
X156219966Y-120121724D01*
X156213738Y-120117885D01*
X156120004Y-120086795D01*
X156052389Y-120064368D01*
X156052387Y-120064368D01*
X156045861Y-120062203D01*
X156039025Y-120061503D01*
X156039022Y-120061502D01*
X155995969Y-120057091D01*
X155941400Y-120051500D01*
X155461660Y-120051500D01*
X155393539Y-120031498D01*
X155372565Y-120014595D01*
X154923405Y-119565435D01*
X154889379Y-119503123D01*
X154886500Y-119476340D01*
X154886500Y-119372729D01*
X154906502Y-119304608D01*
X154960158Y-119258115D01*
X155012500Y-119246729D01*
X155468008Y-119246729D01*
X155468778Y-119246731D01*
X155538931Y-119247160D01*
X155538937Y-119247160D01*
X155543417Y-119247187D01*
X155627507Y-119235669D01*
X155683276Y-119228030D01*
X155683280Y-119228029D01*
X155687727Y-119227420D01*
X155825436Y-119188063D01*
X155958398Y-119128586D01*
X155962180Y-119126200D01*
X155962187Y-119126196D01*
X156075736Y-119054551D01*
X156079526Y-119052160D01*
X156190452Y-118957754D01*
X156265628Y-118872632D01*
X156325712Y-118834814D01*
X156396706Y-118835484D01*
X156411317Y-118840933D01*
X156435712Y-118851794D01*
X156529112Y-118871647D01*
X156616056Y-118890128D01*
X156616061Y-118890128D01*
X156622513Y-118891500D01*
X156813487Y-118891500D01*
X156819939Y-118890128D01*
X156819944Y-118890128D01*
X156906888Y-118871647D01*
X157000288Y-118851794D01*
X157006319Y-118849109D01*
X157168722Y-118776803D01*
X157168724Y-118776802D01*
X157174752Y-118774118D01*
X157329253Y-118661866D01*
X157353261Y-118635202D01*
X157452621Y-118524852D01*
X157452622Y-118524851D01*
X157457040Y-118519944D01*
X157552527Y-118354556D01*
X157611542Y-118172928D01*
X157613546Y-118153866D01*
X157630814Y-117989565D01*
X157631504Y-117983000D01*
X157611542Y-117793072D01*
X157552527Y-117611444D01*
X157457040Y-117446056D01*
X157329253Y-117304134D01*
X157174752Y-117191882D01*
X157168724Y-117189198D01*
X157168722Y-117189197D01*
X157006319Y-117116891D01*
X157006318Y-117116891D01*
X157000288Y-117114206D01*
X156892642Y-117091325D01*
X156819944Y-117075872D01*
X156819939Y-117075872D01*
X156813487Y-117074500D01*
X156622513Y-117074500D01*
X156616061Y-117075872D01*
X156616056Y-117075872D01*
X156543358Y-117091325D01*
X156435712Y-117114206D01*
X156429685Y-117116889D01*
X156429677Y-117116892D01*
X156410668Y-117125356D01*
X156340301Y-117134791D01*
X156276004Y-117104685D01*
X156262967Y-117091325D01*
X156210831Y-117029301D01*
X156210830Y-117029300D01*
X156207946Y-117025869D01*
X156099361Y-116928782D01*
X156095628Y-116926297D01*
X156095624Y-116926294D01*
X155983865Y-116851901D01*
X155983863Y-116851900D01*
X155980136Y-116849419D01*
X155848667Y-116786711D01*
X155844388Y-116785374D01*
X155844385Y-116785373D01*
X155716240Y-116745338D01*
X155716242Y-116745338D01*
X155711961Y-116744001D01*
X155707537Y-116743284D01*
X155707535Y-116743284D01*
X155632531Y-116731136D01*
X155568179Y-116720713D01*
X155498298Y-116719432D01*
X155429461Y-116718170D01*
X155429459Y-116718170D01*
X155424980Y-116718088D01*
X155420535Y-116718641D01*
X155416056Y-116718878D01*
X155416049Y-116718751D01*
X155407661Y-116719271D01*
X154928000Y-116719271D01*
X154919066Y-116719910D01*
X154861625Y-116724018D01*
X154861623Y-116724018D01*
X154854889Y-116724500D01*
X154845011Y-116727400D01*
X154842577Y-116728115D01*
X154788504Y-116729526D01*
X154788316Y-116731255D01*
X154729531Y-116724869D01*
X154726134Y-116724500D01*
X153629866Y-116724500D01*
X153567684Y-116731255D01*
X153567389Y-116731366D01*
X153525373Y-116733271D01*
X153432446Y-116719910D01*
X153432443Y-116719910D01*
X153428000Y-116719271D01*
X152890678Y-116719271D01*
X152888369Y-116719250D01*
X152829453Y-116718170D01*
X152824980Y-116718088D01*
X152798150Y-116721430D01*
X152684872Y-116735540D01*
X152684868Y-116735541D01*
X152680435Y-116736093D01*
X152542255Y-116773766D01*
X152515433Y-116785373D01*
X152426789Y-116823732D01*
X152356327Y-116832429D01*
X152292441Y-116801733D01*
X152291667Y-116801036D01*
X152287253Y-116796134D01*
X152206234Y-116737270D01*
X152138094Y-116687763D01*
X152138093Y-116687762D01*
X152132752Y-116683882D01*
X152126724Y-116681198D01*
X152126722Y-116681197D01*
X151964319Y-116608891D01*
X151964318Y-116608891D01*
X151958288Y-116606206D01*
X151864888Y-116586353D01*
X151777944Y-116567872D01*
X151777939Y-116567872D01*
X151771487Y-116566500D01*
X151580513Y-116566500D01*
X151574061Y-116567872D01*
X151574056Y-116567872D01*
X151487112Y-116586353D01*
X151393712Y-116606206D01*
X151387682Y-116608891D01*
X151387681Y-116608891D01*
X151225278Y-116681197D01*
X151225276Y-116681198D01*
X151219248Y-116683882D01*
X151208562Y-116691646D01*
X151141697Y-116715505D01*
X151072545Y-116699427D01*
X151023063Y-116648514D01*
X151008500Y-116589711D01*
X151008500Y-112000000D01*
X152886526Y-112000000D01*
X152906391Y-112252403D01*
X152965495Y-112498591D01*
X153062384Y-112732502D01*
X153194672Y-112948376D01*
X153359102Y-113140898D01*
X153551624Y-113305328D01*
X153767498Y-113437616D01*
X153772068Y-113439509D01*
X153772072Y-113439511D01*
X153996836Y-113532611D01*
X154001409Y-113534505D01*
X154086032Y-113554821D01*
X154242784Y-113592454D01*
X154242790Y-113592455D01*
X154247597Y-113593609D01*
X154347416Y-113601465D01*
X154434345Y-113608307D01*
X154434352Y-113608307D01*
X154436801Y-113608500D01*
X154563199Y-113608500D01*
X154565648Y-113608307D01*
X154565655Y-113608307D01*
X154652584Y-113601465D01*
X154752403Y-113593609D01*
X154757210Y-113592455D01*
X154757216Y-113592454D01*
X154913968Y-113554821D01*
X154998591Y-113534505D01*
X155003164Y-113532611D01*
X155227928Y-113439511D01*
X155227932Y-113439509D01*
X155232502Y-113437616D01*
X155448376Y-113305328D01*
X155640898Y-113140898D01*
X155805328Y-112948376D01*
X155937616Y-112732502D01*
X156034505Y-112498591D01*
X156093609Y-112252403D01*
X156113474Y-112000000D01*
X156093609Y-111747597D01*
X156034505Y-111501409D01*
X155937616Y-111267498D01*
X155805328Y-111051624D01*
X155640898Y-110859102D01*
X155448376Y-110694672D01*
X155232502Y-110562384D01*
X155227932Y-110560491D01*
X155227928Y-110560489D01*
X155003164Y-110467389D01*
X155003162Y-110467388D01*
X154998591Y-110465495D01*
X154913968Y-110445179D01*
X154757216Y-110407546D01*
X154757210Y-110407545D01*
X154752403Y-110406391D01*
X154652584Y-110398535D01*
X154565655Y-110391693D01*
X154565648Y-110391693D01*
X154563199Y-110391500D01*
X154436801Y-110391500D01*
X154434352Y-110391693D01*
X154434345Y-110391693D01*
X154347416Y-110398535D01*
X154247597Y-110406391D01*
X154242790Y-110407545D01*
X154242784Y-110407546D01*
X154086032Y-110445179D01*
X154001409Y-110465495D01*
X153996838Y-110467388D01*
X153996836Y-110467389D01*
X153772072Y-110560489D01*
X153772068Y-110560491D01*
X153767498Y-110562384D01*
X153551624Y-110694672D01*
X153359102Y-110859102D01*
X153194672Y-111051624D01*
X153062384Y-111267498D01*
X152965495Y-111501409D01*
X152906391Y-111747597D01*
X152886526Y-112000000D01*
X151008500Y-112000000D01*
X151008500Y-90008623D01*
X151008502Y-90007853D01*
X151008921Y-89939254D01*
X151008976Y-89930279D01*
X151000850Y-89901847D01*
X150997272Y-89885085D01*
X150994352Y-89864698D01*
X150993080Y-89855813D01*
X150988543Y-89845833D01*
X150982452Y-89832438D01*
X150976004Y-89814913D01*
X150971416Y-89798862D01*
X150968949Y-89790229D01*
X150964156Y-89782632D01*
X150953170Y-89765220D01*
X150945030Y-89750135D01*
X150940959Y-89741181D01*
X150932792Y-89723218D01*
X150916030Y-89703765D01*
X150904927Y-89688761D01*
X150891224Y-89667042D01*
X150884499Y-89661103D01*
X150884496Y-89661099D01*
X150869062Y-89647468D01*
X150857018Y-89635276D01*
X150843573Y-89619673D01*
X150843570Y-89619671D01*
X150837713Y-89612873D01*
X150816165Y-89598906D01*
X150801291Y-89587615D01*
X150788783Y-89576569D01*
X150788782Y-89576568D01*
X150782049Y-89570622D01*
X150755287Y-89558057D01*
X150740309Y-89549737D01*
X150723017Y-89538529D01*
X150723012Y-89538527D01*
X150715485Y-89533648D01*
X150706892Y-89531078D01*
X150706887Y-89531076D01*
X150690880Y-89526289D01*
X150673436Y-89519628D01*
X150658324Y-89512533D01*
X150658322Y-89512532D01*
X150650200Y-89508719D01*
X150641333Y-89507338D01*
X150641332Y-89507338D01*
X150631690Y-89505837D01*
X150620983Y-89504170D01*
X150604268Y-89500387D01*
X150584534Y-89494485D01*
X150584528Y-89494484D01*
X150575934Y-89491914D01*
X150566963Y-89491859D01*
X150566962Y-89491859D01*
X150556903Y-89491798D01*
X150541494Y-89491704D01*
X150540711Y-89491671D01*
X150539614Y-89491500D01*
X150508623Y-89491500D01*
X150507853Y-89491498D01*
X150434215Y-89491048D01*
X150434214Y-89491048D01*
X150430279Y-89491024D01*
X150428935Y-89491408D01*
X150427590Y-89491500D01*
X137262817Y-89491500D01*
X137194696Y-89471498D01*
X137173722Y-89454595D01*
X137045405Y-89326278D01*
X137011379Y-89263966D01*
X137008500Y-89237183D01*
X137008500Y-88024966D01*
X137479257Y-88024966D01*
X137509565Y-88159446D01*
X137512645Y-88169275D01*
X137592770Y-88366603D01*
X137597413Y-88375794D01*
X137708694Y-88557388D01*
X137714777Y-88565699D01*
X137854213Y-88726667D01*
X137861580Y-88733883D01*
X138025434Y-88869916D01*
X138033881Y-88875831D01*
X138217756Y-88983279D01*
X138227042Y-88987729D01*
X138426001Y-89063703D01*
X138435899Y-89066579D01*
X138539250Y-89087606D01*
X138553299Y-89086410D01*
X138557000Y-89076065D01*
X138557000Y-88029115D01*
X138552525Y-88013876D01*
X138551135Y-88012671D01*
X138543452Y-88011000D01*
X137494225Y-88011000D01*
X137480694Y-88014973D01*
X137479257Y-88024966D01*
X137008500Y-88024966D01*
X137008500Y-76133365D01*
X137446500Y-76133365D01*
X137446501Y-76646634D01*
X137446764Y-76649492D01*
X137446764Y-76649501D01*
X137447719Y-76659893D01*
X137453247Y-76720062D01*
X137455246Y-76726440D01*
X137455246Y-76726441D01*
X137493769Y-76849366D01*
X137504528Y-76883699D01*
X137593361Y-77030381D01*
X137714619Y-77151639D01*
X137861301Y-77240472D01*
X137868548Y-77242743D01*
X137868550Y-77242744D01*
X137926059Y-77260766D01*
X138024938Y-77291753D01*
X138098365Y-77298500D01*
X138101263Y-77298500D01*
X138430860Y-77298499D01*
X138761634Y-77298499D01*
X138764492Y-77298236D01*
X138764501Y-77298236D01*
X138800004Y-77294974D01*
X138835062Y-77291753D01*
X138846090Y-77288297D01*
X138991450Y-77242744D01*
X138991452Y-77242743D01*
X138998699Y-77240472D01*
X139145381Y-77151639D01*
X139236615Y-77060405D01*
X139298927Y-77026379D01*
X139325710Y-77023500D01*
X139751233Y-77023500D01*
X139762416Y-77024027D01*
X139769909Y-77025702D01*
X139777835Y-77025453D01*
X139777836Y-77025453D01*
X139837986Y-77023562D01*
X139841945Y-77023500D01*
X139869856Y-77023500D01*
X139873791Y-77023003D01*
X139873856Y-77022995D01*
X139885693Y-77022062D01*
X139917951Y-77021048D01*
X139921970Y-77020922D01*
X139929889Y-77020673D01*
X139949343Y-77015021D01*
X139968700Y-77011013D01*
X139980930Y-77009468D01*
X139980931Y-77009468D01*
X139988797Y-77008474D01*
X139996168Y-77005555D01*
X139996170Y-77005555D01*
X140029912Y-76992196D01*
X140041142Y-76988351D01*
X140075983Y-76978229D01*
X140075984Y-76978229D01*
X140083593Y-76976018D01*
X140090412Y-76971985D01*
X140090417Y-76971983D01*
X140101028Y-76965707D01*
X140118776Y-76957012D01*
X140137617Y-76949552D01*
X140173387Y-76923564D01*
X140183307Y-76917048D01*
X140214535Y-76898580D01*
X140214538Y-76898578D01*
X140221362Y-76894542D01*
X140235683Y-76880221D01*
X140250717Y-76867380D01*
X140260694Y-76860131D01*
X140267107Y-76855472D01*
X140295298Y-76821395D01*
X140303288Y-76812616D01*
X140534499Y-76581405D01*
X140596811Y-76547379D01*
X140623594Y-76544500D01*
X141209400Y-76544500D01*
X141212646Y-76544163D01*
X141212650Y-76544163D01*
X141308308Y-76534238D01*
X141308312Y-76534237D01*
X141315166Y-76533526D01*
X141321702Y-76531345D01*
X141321704Y-76531345D01*
X141475998Y-76479868D01*
X141482946Y-76477550D01*
X141633348Y-76384478D01*
X141758305Y-76259303D01*
X141761102Y-76254765D01*
X141818353Y-76214176D01*
X141889276Y-76210946D01*
X141950687Y-76246572D01*
X141958062Y-76255068D01*
X141966098Y-76265207D01*
X142080829Y-76379739D01*
X142092240Y-76388751D01*
X142230243Y-76473816D01*
X142243424Y-76479963D01*
X142397710Y-76531138D01*
X142411086Y-76534005D01*
X142505438Y-76543672D01*
X142511854Y-76544000D01*
X142536885Y-76544000D01*
X142552124Y-76539525D01*
X142553329Y-76538135D01*
X142555000Y-76530452D01*
X142555000Y-76525884D01*
X143063000Y-76525884D01*
X143067475Y-76541123D01*
X143068865Y-76542328D01*
X143076548Y-76543999D01*
X143106095Y-76543999D01*
X143112614Y-76543662D01*
X143208206Y-76533743D01*
X143221600Y-76530851D01*
X143375784Y-76479412D01*
X143388962Y-76473239D01*
X143526807Y-76387937D01*
X143538208Y-76378901D01*
X143652739Y-76264171D01*
X143661751Y-76252760D01*
X143746816Y-76114757D01*
X143752963Y-76101576D01*
X143804138Y-75947290D01*
X143807005Y-75933914D01*
X143816672Y-75839562D01*
X143817000Y-75833146D01*
X143817000Y-75583115D01*
X143812525Y-75567876D01*
X143811135Y-75566671D01*
X143803452Y-75565000D01*
X143081115Y-75565000D01*
X143065876Y-75569475D01*
X143064671Y-75570865D01*
X143063000Y-75578548D01*
X143063000Y-76525884D01*
X142555000Y-76525884D01*
X142555000Y-75183000D01*
X142575002Y-75114879D01*
X142628658Y-75068386D01*
X142681000Y-75057000D01*
X143798884Y-75057000D01*
X143814123Y-75052525D01*
X143815328Y-75051135D01*
X143816999Y-75043452D01*
X143816999Y-74788905D01*
X143816662Y-74782386D01*
X143806743Y-74686794D01*
X143803851Y-74673400D01*
X143752412Y-74519216D01*
X143746239Y-74506038D01*
X143660937Y-74368193D01*
X143651901Y-74356792D01*
X143537173Y-74242263D01*
X143535865Y-74241230D01*
X143535203Y-74240297D01*
X143531991Y-74237090D01*
X143532540Y-74236540D01*
X143494802Y-74183313D01*
X143491569Y-74112390D01*
X143527193Y-74050978D01*
X143578801Y-74021351D01*
X143595984Y-74016358D01*
X143595985Y-74016358D01*
X143603601Y-74014145D01*
X143661178Y-73980094D01*
X143739980Y-73933491D01*
X143739983Y-73933489D01*
X143746807Y-73929453D01*
X143864453Y-73811807D01*
X143868489Y-73804983D01*
X143868491Y-73804980D01*
X143945108Y-73675427D01*
X143949145Y-73668601D01*
X143953064Y-73655114D01*
X143986969Y-73538408D01*
X143995562Y-73508831D01*
X143997747Y-73481076D01*
X143998307Y-73473958D01*
X143998307Y-73473950D01*
X143998500Y-73471502D01*
X143998500Y-72313498D01*
X143997509Y-72300905D01*
X143996067Y-72282579D01*
X143996066Y-72282574D01*
X143995562Y-72276169D01*
X143955921Y-72139721D01*
X143951357Y-72124012D01*
X143951356Y-72124010D01*
X143949145Y-72116399D01*
X143908816Y-72048207D01*
X143868491Y-71980020D01*
X143868489Y-71980017D01*
X143864453Y-71973193D01*
X143746807Y-71855547D01*
X143742998Y-71853294D01*
X143702345Y-71797004D01*
X143698494Y-71726112D01*
X143733582Y-71664391D01*
X143741276Y-71657724D01*
X143746807Y-71654453D01*
X143864453Y-71536807D01*
X143868489Y-71529983D01*
X143868491Y-71529980D01*
X143945108Y-71400427D01*
X143949145Y-71393601D01*
X143995562Y-71233831D01*
X143998500Y-71196502D01*
X143998500Y-70038498D01*
X143998266Y-70035519D01*
X143996067Y-70007579D01*
X143996066Y-70007574D01*
X143995562Y-70001169D01*
X143958503Y-69873609D01*
X143953500Y-69838457D01*
X143953500Y-69602710D01*
X143973502Y-69534589D01*
X143990405Y-69513615D01*
X144056259Y-69447761D01*
X144118571Y-69413735D01*
X144189386Y-69418800D01*
X144234449Y-69447761D01*
X144324557Y-69537869D01*
X144336426Y-69547176D01*
X144470012Y-69628079D01*
X144483757Y-69634285D01*
X144633644Y-69681256D01*
X144646694Y-69683869D01*
X144701586Y-69688913D01*
X144713124Y-69685525D01*
X144714329Y-69684135D01*
X144716000Y-69676452D01*
X144716000Y-69671884D01*
X145224000Y-69671884D01*
X145228475Y-69687123D01*
X145229865Y-69688328D01*
X145234294Y-69689291D01*
X145293315Y-69683868D01*
X145306351Y-69681257D01*
X145456243Y-69634285D01*
X145469988Y-69628079D01*
X145603574Y-69547176D01*
X145615443Y-69537869D01*
X145725869Y-69427443D01*
X145735176Y-69415574D01*
X145816079Y-69281988D01*
X145822285Y-69268243D01*
X145869256Y-69118356D01*
X145871869Y-69105306D01*
X145877734Y-69041479D01*
X145878000Y-69035691D01*
X145878000Y-68979115D01*
X145873525Y-68963876D01*
X145872135Y-68962671D01*
X145864452Y-68961000D01*
X145242115Y-68961000D01*
X145226876Y-68965475D01*
X145225671Y-68966865D01*
X145224000Y-68974548D01*
X145224000Y-69671884D01*
X144716000Y-69671884D01*
X144716000Y-68579000D01*
X144736002Y-68510879D01*
X144789658Y-68464386D01*
X144842000Y-68453000D01*
X145859884Y-68453000D01*
X145875123Y-68448525D01*
X145876328Y-68447135D01*
X145877999Y-68439452D01*
X145877999Y-68378295D01*
X145877736Y-68372546D01*
X145874619Y-68338621D01*
X152370933Y-68338621D01*
X152380227Y-68350635D01*
X152414146Y-68374385D01*
X152423641Y-68379868D01*
X152608413Y-68466028D01*
X152618705Y-68469774D01*
X152815632Y-68522540D01*
X152826425Y-68524443D01*
X153029525Y-68542212D01*
X153040475Y-68542212D01*
X153243575Y-68524443D01*
X153254368Y-68522540D01*
X153451295Y-68469774D01*
X153461587Y-68466028D01*
X153646359Y-68379868D01*
X153655854Y-68374385D01*
X153690607Y-68350051D01*
X153698983Y-68339572D01*
X153691916Y-68326127D01*
X153047811Y-67682021D01*
X153033868Y-67674408D01*
X153032034Y-67674539D01*
X153025420Y-67678790D01*
X152377360Y-68326851D01*
X152370933Y-68338621D01*
X145874619Y-68338621D01*
X145871868Y-68308685D01*
X145869257Y-68295649D01*
X145822285Y-68145757D01*
X145816079Y-68132013D01*
X145784138Y-68079272D01*
X145765959Y-68010642D01*
X145787769Y-67943079D01*
X145842644Y-67898032D01*
X145891914Y-67888000D01*
X145987885Y-67888000D01*
X146003124Y-67883525D01*
X146004329Y-67882135D01*
X146006000Y-67874452D01*
X146006000Y-67869884D01*
X146514000Y-67869884D01*
X146518475Y-67885123D01*
X146519865Y-67886328D01*
X146527548Y-67887999D01*
X146704669Y-67887999D01*
X146711490Y-67887629D01*
X146762352Y-67882105D01*
X146777604Y-67878479D01*
X146898054Y-67833324D01*
X146913649Y-67824786D01*
X147015724Y-67748285D01*
X147028285Y-67735724D01*
X147104786Y-67633649D01*
X147113324Y-67618054D01*
X147158478Y-67497606D01*
X147162105Y-67482351D01*
X147167631Y-67431486D01*
X147168000Y-67424672D01*
X147168000Y-67386229D01*
X147188002Y-67318108D01*
X147241658Y-67271615D01*
X147311932Y-67261511D01*
X147353928Y-67275393D01*
X147412607Y-67307121D01*
X147423907Y-67311871D01*
X147558693Y-67353595D01*
X147572795Y-67353801D01*
X147576000Y-67347045D01*
X147576000Y-67340047D01*
X148084000Y-67340047D01*
X148087973Y-67353578D01*
X148095768Y-67354698D01*
X148222342Y-67317446D01*
X148227220Y-67315475D01*
X151802788Y-67315475D01*
X151820557Y-67518575D01*
X151822460Y-67529368D01*
X151875226Y-67726295D01*
X151878972Y-67736587D01*
X151965135Y-67921364D01*
X151970613Y-67930850D01*
X151994949Y-67965607D01*
X152005428Y-67973983D01*
X152018872Y-67966917D01*
X152662979Y-67322811D01*
X152669356Y-67311132D01*
X153399408Y-67311132D01*
X153399539Y-67312966D01*
X153403790Y-67319580D01*
X154051851Y-67967640D01*
X154063621Y-67974067D01*
X154075635Y-67964772D01*
X154099387Y-67930850D01*
X154104865Y-67921364D01*
X154191028Y-67736587D01*
X154194774Y-67726295D01*
X154247540Y-67529368D01*
X154249443Y-67518575D01*
X154267212Y-67315475D01*
X154267212Y-67304525D01*
X154249443Y-67101425D01*
X154247540Y-67090632D01*
X154194774Y-66893705D01*
X154191028Y-66883413D01*
X154104865Y-66698636D01*
X154099387Y-66689150D01*
X154075051Y-66654393D01*
X154064572Y-66646017D01*
X154051128Y-66653083D01*
X153407021Y-67297189D01*
X153399408Y-67311132D01*
X152669356Y-67311132D01*
X152670592Y-67308868D01*
X152670461Y-67307034D01*
X152666210Y-67300420D01*
X152018149Y-66652360D01*
X152006379Y-66645933D01*
X151994365Y-66655228D01*
X151970613Y-66689150D01*
X151965135Y-66698636D01*
X151878972Y-66883413D01*
X151875226Y-66893705D01*
X151822460Y-67090632D01*
X151820557Y-67101425D01*
X151802788Y-67304525D01*
X151802788Y-67315475D01*
X148227220Y-67315475D01*
X148233710Y-67312853D01*
X148406666Y-67222434D01*
X148416928Y-67215718D01*
X148569020Y-67093432D01*
X148577786Y-67084848D01*
X148703236Y-66935344D01*
X148710160Y-66925233D01*
X148804184Y-66754202D01*
X148809012Y-66742938D01*
X148868025Y-66556905D01*
X148870573Y-66544916D01*
X148887607Y-66393053D01*
X148888000Y-66386029D01*
X148888000Y-66302115D01*
X148883525Y-66286876D01*
X148882135Y-66285671D01*
X148874452Y-66284000D01*
X148102115Y-66284000D01*
X148086876Y-66288475D01*
X148085671Y-66289865D01*
X148084000Y-66297548D01*
X148084000Y-67340047D01*
X147576000Y-67340047D01*
X147576000Y-66280428D01*
X152371017Y-66280428D01*
X152378083Y-66293872D01*
X153022189Y-66937979D01*
X153036132Y-66945592D01*
X153037966Y-66945461D01*
X153044580Y-66941210D01*
X153692640Y-66293149D01*
X153699067Y-66281379D01*
X153689773Y-66269365D01*
X153655854Y-66245615D01*
X153646359Y-66240132D01*
X153461587Y-66153972D01*
X153451295Y-66150226D01*
X153254368Y-66097460D01*
X153243575Y-66095557D01*
X153040475Y-66077788D01*
X153029525Y-66077788D01*
X152826425Y-66095557D01*
X152815632Y-66097460D01*
X152618705Y-66150226D01*
X152608413Y-66153972D01*
X152423636Y-66240135D01*
X152414150Y-66245613D01*
X152379393Y-66269949D01*
X152371017Y-66280428D01*
X147576000Y-66280428D01*
X147576000Y-65798621D01*
X149830933Y-65798621D01*
X149840227Y-65810635D01*
X149874146Y-65834385D01*
X149883641Y-65839868D01*
X150068413Y-65926028D01*
X150078705Y-65929774D01*
X150275632Y-65982540D01*
X150286425Y-65984443D01*
X150489525Y-66002212D01*
X150500475Y-66002212D01*
X150703575Y-65984443D01*
X150714368Y-65982540D01*
X150911295Y-65929774D01*
X150921587Y-65926028D01*
X151106359Y-65839868D01*
X151115854Y-65834385D01*
X151150607Y-65810051D01*
X151158983Y-65799572D01*
X151151916Y-65786127D01*
X150507811Y-65142021D01*
X150493868Y-65134408D01*
X150492034Y-65134539D01*
X150485420Y-65138790D01*
X149837360Y-65786851D01*
X149830933Y-65798621D01*
X147576000Y-65798621D01*
X147576000Y-65757885D01*
X148084000Y-65757885D01*
X148088475Y-65773124D01*
X148089865Y-65774329D01*
X148097548Y-65776000D01*
X148869885Y-65776000D01*
X148885124Y-65771525D01*
X148886329Y-65770135D01*
X148888000Y-65762452D01*
X148888000Y-65680876D01*
X148887699Y-65674728D01*
X148873473Y-65529639D01*
X148871090Y-65517604D01*
X148814683Y-65330777D01*
X148810008Y-65319435D01*
X148718388Y-65147121D01*
X148711601Y-65136905D01*
X148588253Y-64985665D01*
X148579609Y-64976961D01*
X148429237Y-64852562D01*
X148419069Y-64845703D01*
X148289184Y-64775475D01*
X149262788Y-64775475D01*
X149280557Y-64978575D01*
X149282460Y-64989368D01*
X149335226Y-65186295D01*
X149338972Y-65196587D01*
X149425135Y-65381364D01*
X149430613Y-65390850D01*
X149454949Y-65425607D01*
X149465428Y-65433983D01*
X149478872Y-65426917D01*
X150122979Y-64782811D01*
X150129356Y-64771132D01*
X150859408Y-64771132D01*
X150859539Y-64772966D01*
X150863790Y-64779580D01*
X151511851Y-65427640D01*
X151523621Y-65434067D01*
X151535635Y-65424772D01*
X151559387Y-65390850D01*
X151564865Y-65381364D01*
X151651028Y-65196587D01*
X151654774Y-65186295D01*
X151707540Y-64989368D01*
X151709443Y-64978575D01*
X151727212Y-64775475D01*
X151727212Y-64764525D01*
X151709443Y-64561425D01*
X151707540Y-64550632D01*
X151654774Y-64353705D01*
X151651028Y-64343413D01*
X151564865Y-64158636D01*
X151559387Y-64149150D01*
X151535051Y-64114393D01*
X151524572Y-64106017D01*
X151511128Y-64113083D01*
X150867021Y-64757189D01*
X150859408Y-64771132D01*
X150129356Y-64771132D01*
X150130592Y-64768868D01*
X150130461Y-64767034D01*
X150126210Y-64760420D01*
X149478149Y-64112360D01*
X149466379Y-64105933D01*
X149454365Y-64115228D01*
X149430613Y-64149150D01*
X149425135Y-64158636D01*
X149338972Y-64343413D01*
X149335226Y-64353705D01*
X149282460Y-64550632D01*
X149280557Y-64561425D01*
X149262788Y-64764525D01*
X149262788Y-64775475D01*
X148289184Y-64775475D01*
X148247393Y-64752879D01*
X148236093Y-64748129D01*
X148101307Y-64706405D01*
X148087205Y-64706199D01*
X148084000Y-64712955D01*
X148084000Y-65757885D01*
X147576000Y-65757885D01*
X147576000Y-64719953D01*
X147572027Y-64706422D01*
X147564232Y-64705302D01*
X147437658Y-64742554D01*
X147426290Y-64747147D01*
X147253334Y-64837566D01*
X147243072Y-64844282D01*
X147090980Y-64966568D01*
X147082214Y-64975152D01*
X146956764Y-65124656D01*
X146949840Y-65134767D01*
X146855816Y-65305798D01*
X146850988Y-65317062D01*
X146791975Y-65503095D01*
X146789427Y-65515083D01*
X146784383Y-65560046D01*
X146756911Y-65625513D01*
X146698407Y-65665734D01*
X146659168Y-65672000D01*
X146532115Y-65672000D01*
X146516876Y-65676475D01*
X146515671Y-65677865D01*
X146514000Y-65685548D01*
X146514000Y-67869884D01*
X146006000Y-67869884D01*
X146006000Y-65690116D01*
X146001525Y-65674877D01*
X145992149Y-65666753D01*
X145945613Y-65641343D01*
X145911587Y-65579032D01*
X145909397Y-65539075D01*
X145912814Y-65506565D01*
X145912814Y-65506564D01*
X145913504Y-65500000D01*
X145893542Y-65310072D01*
X145834527Y-65128444D01*
X145739040Y-64963056D01*
X145626049Y-64837566D01*
X145615675Y-64826045D01*
X145615674Y-64826044D01*
X145611253Y-64821134D01*
X145486855Y-64730753D01*
X145462094Y-64712763D01*
X145462093Y-64712762D01*
X145456752Y-64708882D01*
X145450724Y-64706198D01*
X145450722Y-64706197D01*
X145288319Y-64633891D01*
X145288318Y-64633891D01*
X145282288Y-64631206D01*
X145188887Y-64611353D01*
X145101944Y-64592872D01*
X145101939Y-64592872D01*
X145095487Y-64591500D01*
X144904513Y-64591500D01*
X144898061Y-64592872D01*
X144898056Y-64592872D01*
X144811113Y-64611353D01*
X144717712Y-64631206D01*
X144711682Y-64633891D01*
X144711681Y-64633891D01*
X144549278Y-64706197D01*
X144549276Y-64706198D01*
X144543248Y-64708882D01*
X144537907Y-64712762D01*
X144537906Y-64712763D01*
X144513145Y-64730753D01*
X144388747Y-64821134D01*
X144384326Y-64826044D01*
X144384325Y-64826045D01*
X144373952Y-64837566D01*
X144260960Y-64963056D01*
X144165473Y-65128444D01*
X144106458Y-65310072D01*
X144086496Y-65500000D01*
X144087186Y-65506564D01*
X144089894Y-65532329D01*
X144077122Y-65602168D01*
X144028620Y-65654015D01*
X143964584Y-65671500D01*
X143611866Y-65671500D01*
X143549684Y-65678255D01*
X143542285Y-65681029D01*
X143539146Y-65681775D01*
X143480854Y-65681775D01*
X143477715Y-65681029D01*
X143470316Y-65678255D01*
X143408134Y-65671500D01*
X143021416Y-65671500D01*
X142953295Y-65651498D01*
X142906802Y-65597842D01*
X142896106Y-65532329D01*
X142898814Y-65506564D01*
X142899504Y-65500000D01*
X142879542Y-65310072D01*
X142820527Y-65128444D01*
X142725040Y-64963056D01*
X142612049Y-64837566D01*
X142601675Y-64826045D01*
X142601674Y-64826044D01*
X142597253Y-64821134D01*
X142472855Y-64730753D01*
X142448094Y-64712763D01*
X142448093Y-64712762D01*
X142442752Y-64708882D01*
X142436724Y-64706198D01*
X142436722Y-64706197D01*
X142274319Y-64633891D01*
X142274318Y-64633891D01*
X142268288Y-64631206D01*
X142174887Y-64611353D01*
X142087944Y-64592872D01*
X142087939Y-64592872D01*
X142081487Y-64591500D01*
X141890513Y-64591500D01*
X141884061Y-64592872D01*
X141884056Y-64592872D01*
X141797113Y-64611353D01*
X141703712Y-64631206D01*
X141697682Y-64633891D01*
X141697681Y-64633891D01*
X141535278Y-64706197D01*
X141535276Y-64706198D01*
X141529248Y-64708882D01*
X141523907Y-64712762D01*
X141523906Y-64712763D01*
X141499145Y-64730753D01*
X141374747Y-64821134D01*
X141370326Y-64826044D01*
X141370325Y-64826045D01*
X141359952Y-64837566D01*
X141246960Y-64963056D01*
X141151473Y-65128444D01*
X141092458Y-65310072D01*
X141072496Y-65500000D01*
X141073186Y-65506564D01*
X141073186Y-65506566D01*
X141077843Y-65550878D01*
X141065070Y-65620717D01*
X141039978Y-65647539D01*
X141041104Y-65648514D01*
X141015671Y-65677865D01*
X141014000Y-65685548D01*
X141014000Y-66908000D01*
X140993998Y-66976121D01*
X140940342Y-67022614D01*
X140888000Y-67034000D01*
X140632000Y-67034000D01*
X140563879Y-67013998D01*
X140517386Y-66960342D01*
X140506000Y-66908000D01*
X140506000Y-65690116D01*
X140501525Y-65674877D01*
X140500135Y-65673672D01*
X140492452Y-65672001D01*
X140361682Y-65672001D01*
X140293561Y-65651999D01*
X140247068Y-65598343D01*
X140236283Y-65558296D01*
X140233473Y-65529639D01*
X140231090Y-65517604D01*
X140174683Y-65330777D01*
X140170008Y-65319435D01*
X140078388Y-65147121D01*
X140071601Y-65136905D01*
X139948253Y-64985665D01*
X139939609Y-64976961D01*
X139789237Y-64852562D01*
X139779069Y-64845703D01*
X139607393Y-64752879D01*
X139596093Y-64748129D01*
X139461307Y-64706405D01*
X139447205Y-64706199D01*
X139444000Y-64712955D01*
X139444000Y-67340047D01*
X139447973Y-67353578D01*
X139455768Y-67354698D01*
X139582342Y-67317446D01*
X139593711Y-67312853D01*
X139667626Y-67274211D01*
X139737262Y-67260377D01*
X139803322Y-67286387D01*
X139844834Y-67343983D01*
X139852001Y-67385873D01*
X139852001Y-67424669D01*
X139852371Y-67431490D01*
X139857895Y-67482352D01*
X139861522Y-67497606D01*
X139882577Y-67553772D01*
X139887760Y-67624579D01*
X139853839Y-67686948D01*
X139791584Y-67721077D01*
X139764595Y-67724001D01*
X139637295Y-67724001D01*
X139631546Y-67724264D01*
X139567685Y-67730132D01*
X139554649Y-67732743D01*
X139404757Y-67779715D01*
X139391012Y-67785921D01*
X139257426Y-67866824D01*
X139245557Y-67876131D01*
X139135131Y-67986557D01*
X139125824Y-67998426D01*
X139044921Y-68132012D01*
X139038715Y-68145757D01*
X138991744Y-68295644D01*
X138989131Y-68308694D01*
X138983266Y-68372521D01*
X138983000Y-68378309D01*
X138983000Y-68434885D01*
X138987475Y-68450124D01*
X138988865Y-68451329D01*
X138996548Y-68453000D01*
X140019000Y-68453000D01*
X140087121Y-68473002D01*
X140133614Y-68526658D01*
X140145000Y-68579000D01*
X140145000Y-69671884D01*
X140149475Y-69687123D01*
X140150865Y-69688328D01*
X140155294Y-69689291D01*
X140214315Y-69683868D01*
X140227351Y-69681257D01*
X140377246Y-69634284D01*
X140390818Y-69628156D01*
X140461134Y-69618354D01*
X140525588Y-69648124D01*
X140563715Y-69708014D01*
X140563409Y-69779010D01*
X140551121Y-69807131D01*
X140530855Y-69841399D01*
X140512464Y-69904703D01*
X140509655Y-69914372D01*
X140471443Y-69974208D01*
X140424623Y-69998826D01*
X140424702Y-69999026D01*
X140422838Y-69999764D01*
X140422835Y-69999766D01*
X140417331Y-70001945D01*
X140417330Y-70001945D01*
X140383597Y-70015300D01*
X140372369Y-70019145D01*
X140329907Y-70031482D01*
X140323085Y-70035516D01*
X140323079Y-70035519D01*
X140312468Y-70041794D01*
X140294718Y-70050490D01*
X140283256Y-70055028D01*
X140283251Y-70055031D01*
X140275883Y-70057948D01*
X140269468Y-70062609D01*
X140240125Y-70083927D01*
X140230207Y-70090443D01*
X140216951Y-70098283D01*
X140192137Y-70112958D01*
X140177813Y-70127282D01*
X140162781Y-70140121D01*
X140146393Y-70152028D01*
X140134896Y-70165926D01*
X140118212Y-70186093D01*
X140110233Y-70194862D01*
X139412650Y-70892445D01*
X139350341Y-70926468D01*
X139279526Y-70921404D01*
X139234463Y-70892443D01*
X139145381Y-70803361D01*
X138998699Y-70714528D01*
X138991452Y-70712257D01*
X138991450Y-70712256D01*
X138925164Y-70691483D01*
X138835062Y-70663247D01*
X138761635Y-70656500D01*
X138758737Y-70656500D01*
X138429140Y-70656501D01*
X138098366Y-70656501D01*
X138095508Y-70656764D01*
X138095499Y-70656764D01*
X138059996Y-70660026D01*
X138024938Y-70663247D01*
X138018560Y-70665246D01*
X138018559Y-70665246D01*
X137868550Y-70712256D01*
X137868548Y-70712257D01*
X137861301Y-70714528D01*
X137714619Y-70803361D01*
X137593361Y-70924619D01*
X137504528Y-71071301D01*
X137453247Y-71234938D01*
X137446500Y-71308365D01*
X137446501Y-71821634D01*
X137446764Y-71824492D01*
X137446764Y-71824501D01*
X137449526Y-71854560D01*
X137453247Y-71895062D01*
X137455246Y-71901440D01*
X137455246Y-71901441D01*
X137497663Y-72036792D01*
X137504528Y-72058699D01*
X137593361Y-72205381D01*
X137688885Y-72300905D01*
X137722911Y-72363217D01*
X137717846Y-72434032D01*
X137688885Y-72479095D01*
X137593361Y-72574619D01*
X137504528Y-72721301D01*
X137453247Y-72884938D01*
X137446500Y-72958365D01*
X137446501Y-73471634D01*
X137453247Y-73545062D01*
X137455246Y-73551440D01*
X137455246Y-73551441D01*
X137483544Y-73641738D01*
X137504528Y-73708699D01*
X137593361Y-73855381D01*
X137626385Y-73888405D01*
X137660411Y-73950717D01*
X137655346Y-74021532D01*
X137626385Y-74066595D01*
X137593361Y-74099619D01*
X137504528Y-74246301D01*
X137502257Y-74253548D01*
X137502256Y-74253550D01*
X137494185Y-74279306D01*
X137453247Y-74409938D01*
X137446500Y-74483365D01*
X137446501Y-74996634D01*
X137453247Y-75070062D01*
X137455246Y-75076440D01*
X137455246Y-75076441D01*
X137499213Y-75216738D01*
X137504528Y-75233699D01*
X137593361Y-75380381D01*
X137688885Y-75475905D01*
X137722911Y-75538217D01*
X137717846Y-75609032D01*
X137688885Y-75654095D01*
X137593361Y-75749619D01*
X137504528Y-75896301D01*
X137453247Y-76059938D01*
X137446500Y-76133365D01*
X137008500Y-76133365D01*
X137008500Y-69035705D01*
X138983001Y-69035705D01*
X138983264Y-69041454D01*
X138989132Y-69105315D01*
X138991743Y-69118351D01*
X139038715Y-69268243D01*
X139044921Y-69281988D01*
X139125824Y-69415574D01*
X139135131Y-69427443D01*
X139245557Y-69537869D01*
X139257426Y-69547176D01*
X139391012Y-69628079D01*
X139404757Y-69634285D01*
X139554644Y-69681256D01*
X139567694Y-69683869D01*
X139622586Y-69688913D01*
X139634124Y-69685525D01*
X139635329Y-69684135D01*
X139637000Y-69676452D01*
X139637000Y-68979115D01*
X139632525Y-68963876D01*
X139631135Y-68962671D01*
X139623452Y-68961000D01*
X139001116Y-68961000D01*
X138985877Y-68965475D01*
X138984672Y-68966865D01*
X138983001Y-68974548D01*
X138983001Y-69035705D01*
X137008500Y-69035705D01*
X137008500Y-66379124D01*
X138132000Y-66379124D01*
X138132301Y-66385272D01*
X138146527Y-66530361D01*
X138148910Y-66542396D01*
X138205317Y-66729223D01*
X138209992Y-66740565D01*
X138301612Y-66912879D01*
X138308399Y-66923095D01*
X138431747Y-67074335D01*
X138440391Y-67083039D01*
X138590763Y-67207438D01*
X138600931Y-67214297D01*
X138772607Y-67307121D01*
X138783907Y-67311871D01*
X138918693Y-67353595D01*
X138932795Y-67353801D01*
X138936000Y-67347045D01*
X138936000Y-66302115D01*
X138931525Y-66286876D01*
X138930135Y-66285671D01*
X138922452Y-66284000D01*
X138150115Y-66284000D01*
X138134876Y-66288475D01*
X138133671Y-66289865D01*
X138132000Y-66297548D01*
X138132000Y-66379124D01*
X137008500Y-66379124D01*
X137008500Y-65757885D01*
X138132000Y-65757885D01*
X138136475Y-65773124D01*
X138137865Y-65774329D01*
X138145548Y-65776000D01*
X138917885Y-65776000D01*
X138933124Y-65771525D01*
X138934329Y-65770135D01*
X138936000Y-65762452D01*
X138936000Y-64719953D01*
X138932027Y-64706422D01*
X138924232Y-64705302D01*
X138797658Y-64742554D01*
X138786290Y-64747147D01*
X138613334Y-64837566D01*
X138603072Y-64844282D01*
X138450980Y-64966568D01*
X138442214Y-64975152D01*
X138316764Y-65124656D01*
X138309840Y-65134767D01*
X138215816Y-65305798D01*
X138210988Y-65317062D01*
X138151975Y-65503095D01*
X138149427Y-65515084D01*
X138132393Y-65666947D01*
X138132000Y-65673971D01*
X138132000Y-65757885D01*
X137008500Y-65757885D01*
X137008500Y-63740428D01*
X149831017Y-63740428D01*
X149838083Y-63753872D01*
X150482189Y-64397979D01*
X150496132Y-64405592D01*
X150497966Y-64405461D01*
X150504580Y-64401210D01*
X151152640Y-63753149D01*
X151159067Y-63741379D01*
X151149773Y-63729365D01*
X151115854Y-63705615D01*
X151106359Y-63700132D01*
X150921587Y-63613972D01*
X150911295Y-63610226D01*
X150714368Y-63557460D01*
X150703575Y-63555557D01*
X150500475Y-63537788D01*
X150489525Y-63537788D01*
X150286425Y-63555557D01*
X150275632Y-63557460D01*
X150078705Y-63610226D01*
X150068413Y-63613972D01*
X149883636Y-63700135D01*
X149874150Y-63705613D01*
X149839393Y-63729949D01*
X149831017Y-63740428D01*
X137008500Y-63740428D01*
X137008500Y-62579124D01*
X138132000Y-62579124D01*
X138132301Y-62585272D01*
X138146527Y-62730361D01*
X138148910Y-62742396D01*
X138205317Y-62929223D01*
X138209992Y-62940565D01*
X138301612Y-63112879D01*
X138308399Y-63123095D01*
X138431747Y-63274335D01*
X138440391Y-63283039D01*
X138590763Y-63407438D01*
X138600931Y-63414297D01*
X138772607Y-63507121D01*
X138783907Y-63511871D01*
X138918693Y-63553595D01*
X138932795Y-63553801D01*
X138936000Y-63547045D01*
X138936000Y-63540047D01*
X139444000Y-63540047D01*
X139447973Y-63553578D01*
X139455768Y-63554698D01*
X139582342Y-63517446D01*
X139593710Y-63512853D01*
X139766666Y-63422434D01*
X139776928Y-63415718D01*
X139929020Y-63293432D01*
X139937786Y-63284848D01*
X140063236Y-63135344D01*
X140070160Y-63125233D01*
X140164184Y-62954202D01*
X140169012Y-62942938D01*
X140228025Y-62756905D01*
X140230573Y-62744916D01*
X140247607Y-62593053D01*
X140248000Y-62586029D01*
X140248000Y-62579124D01*
X146772000Y-62579124D01*
X146772301Y-62585272D01*
X146786527Y-62730361D01*
X146788910Y-62742396D01*
X146845317Y-62929223D01*
X146849992Y-62940565D01*
X146941612Y-63112879D01*
X146948399Y-63123095D01*
X147071747Y-63274335D01*
X147080391Y-63283039D01*
X147230763Y-63407438D01*
X147240931Y-63414297D01*
X147412607Y-63507121D01*
X147423907Y-63511871D01*
X147558693Y-63553595D01*
X147572795Y-63553801D01*
X147576000Y-63547045D01*
X147576000Y-63540047D01*
X148084000Y-63540047D01*
X148087973Y-63553578D01*
X148095768Y-63554698D01*
X148222342Y-63517446D01*
X148233710Y-63512853D01*
X148406666Y-63422434D01*
X148416928Y-63415718D01*
X148569020Y-63293432D01*
X148577786Y-63284848D01*
X148703236Y-63135344D01*
X148710160Y-63125233D01*
X148804184Y-62954202D01*
X148809012Y-62942938D01*
X148868025Y-62756905D01*
X148870573Y-62744916D01*
X148887607Y-62593053D01*
X148888000Y-62586029D01*
X148888000Y-62502115D01*
X148883525Y-62486876D01*
X148882135Y-62485671D01*
X148874452Y-62484000D01*
X148102115Y-62484000D01*
X148086876Y-62488475D01*
X148085671Y-62489865D01*
X148084000Y-62497548D01*
X148084000Y-63540047D01*
X147576000Y-63540047D01*
X147576000Y-62502115D01*
X147571525Y-62486876D01*
X147570135Y-62485671D01*
X147562452Y-62484000D01*
X146790115Y-62484000D01*
X146774876Y-62488475D01*
X146773671Y-62489865D01*
X146772000Y-62497548D01*
X146772000Y-62579124D01*
X140248000Y-62579124D01*
X140248000Y-62502115D01*
X140243525Y-62486876D01*
X140242135Y-62485671D01*
X140234452Y-62484000D01*
X139462115Y-62484000D01*
X139446876Y-62488475D01*
X139445671Y-62489865D01*
X139444000Y-62497548D01*
X139444000Y-63540047D01*
X138936000Y-63540047D01*
X138936000Y-62502115D01*
X138931525Y-62486876D01*
X138930135Y-62485671D01*
X138922452Y-62484000D01*
X138150115Y-62484000D01*
X138134876Y-62488475D01*
X138133671Y-62489865D01*
X138132000Y-62497548D01*
X138132000Y-62579124D01*
X137008500Y-62579124D01*
X137008500Y-61957885D01*
X138132000Y-61957885D01*
X138136475Y-61973124D01*
X138137865Y-61974329D01*
X138145548Y-61976000D01*
X138917885Y-61976000D01*
X138933124Y-61971525D01*
X138934329Y-61970135D01*
X138936000Y-61962452D01*
X138936000Y-61957885D01*
X139444000Y-61957885D01*
X139448475Y-61973124D01*
X139449865Y-61974329D01*
X139457548Y-61976000D01*
X140229885Y-61976000D01*
X140245124Y-61971525D01*
X140246329Y-61970135D01*
X140248000Y-61962452D01*
X140248000Y-61957885D01*
X146772000Y-61957885D01*
X146776475Y-61973124D01*
X146777865Y-61974329D01*
X146785548Y-61976000D01*
X147557885Y-61976000D01*
X147573124Y-61971525D01*
X147574329Y-61970135D01*
X147576000Y-61962452D01*
X147576000Y-61957885D01*
X148084000Y-61957885D01*
X148088475Y-61973124D01*
X148089865Y-61974329D01*
X148097548Y-61976000D01*
X148869885Y-61976000D01*
X148885124Y-61971525D01*
X148886329Y-61970135D01*
X148888000Y-61962452D01*
X148888000Y-61880876D01*
X148887699Y-61874728D01*
X148873473Y-61729639D01*
X148871090Y-61717604D01*
X148814683Y-61530777D01*
X148810008Y-61519435D01*
X148718388Y-61347121D01*
X148711601Y-61336905D01*
X148588253Y-61185665D01*
X148579609Y-61176961D01*
X148429237Y-61052562D01*
X148419069Y-61045703D01*
X148247393Y-60952879D01*
X148236093Y-60948129D01*
X148101307Y-60906405D01*
X148087205Y-60906199D01*
X148084000Y-60912955D01*
X148084000Y-61957885D01*
X147576000Y-61957885D01*
X147576000Y-60919953D01*
X147572027Y-60906422D01*
X147564232Y-60905302D01*
X147437658Y-60942554D01*
X147426290Y-60947147D01*
X147253334Y-61037566D01*
X147243072Y-61044282D01*
X147090980Y-61166568D01*
X147082214Y-61175152D01*
X146956764Y-61324656D01*
X146949840Y-61334767D01*
X146855816Y-61505798D01*
X146850988Y-61517062D01*
X146791975Y-61703095D01*
X146789427Y-61715084D01*
X146772393Y-61866947D01*
X146772000Y-61873971D01*
X146772000Y-61957885D01*
X140248000Y-61957885D01*
X140248000Y-61880876D01*
X140247699Y-61874728D01*
X140233473Y-61729639D01*
X140231090Y-61717604D01*
X140174683Y-61530777D01*
X140170008Y-61519435D01*
X140078388Y-61347121D01*
X140071601Y-61336905D01*
X139948253Y-61185665D01*
X139939609Y-61176961D01*
X139789237Y-61052562D01*
X139779069Y-61045703D01*
X139607393Y-60952879D01*
X139596093Y-60948129D01*
X139461307Y-60906405D01*
X139447205Y-60906199D01*
X139444000Y-60912955D01*
X139444000Y-61957885D01*
X138936000Y-61957885D01*
X138936000Y-60919953D01*
X138932027Y-60906422D01*
X138924232Y-60905302D01*
X138797658Y-60942554D01*
X138786290Y-60947147D01*
X138613334Y-61037566D01*
X138603072Y-61044282D01*
X138450980Y-61166568D01*
X138442214Y-61175152D01*
X138316764Y-61324656D01*
X138309840Y-61334767D01*
X138215816Y-61505798D01*
X138210988Y-61517062D01*
X138151975Y-61703095D01*
X138149427Y-61715084D01*
X138132393Y-61866947D01*
X138132000Y-61873971D01*
X138132000Y-61957885D01*
X137008500Y-61957885D01*
X137008500Y-60634500D01*
X137028502Y-60566379D01*
X137082158Y-60519886D01*
X137134500Y-60508500D01*
X161973086Y-60508500D01*
X162041207Y-60528502D01*
G37*
G04 #@! TD.AperFunction*
G04 #@! TA.AperFunction,Conductor*
G36*
X144625713Y-79235094D02*
G01*
X144649514Y-79248700D01*
X144652904Y-79251163D01*
X144658679Y-79256586D01*
X144665624Y-79260404D01*
X144665625Y-79260405D01*
X144676434Y-79266348D01*
X144692953Y-79277199D01*
X144708959Y-79289614D01*
X144716228Y-79292759D01*
X144716232Y-79292762D01*
X144749537Y-79307174D01*
X144760187Y-79312391D01*
X144798940Y-79333695D01*
X144806615Y-79335666D01*
X144806616Y-79335666D01*
X144818562Y-79338733D01*
X144837267Y-79345137D01*
X144855855Y-79353181D01*
X144863678Y-79354420D01*
X144863688Y-79354423D01*
X144899524Y-79360099D01*
X144911141Y-79362504D01*
X144911640Y-79362632D01*
X144925738Y-79366251D01*
X144986745Y-79402563D01*
X145001840Y-79422459D01*
X145076987Y-79545088D01*
X145223250Y-79713938D01*
X145395126Y-79856632D01*
X145468955Y-79899774D01*
X145517679Y-79951412D01*
X145530750Y-80021195D01*
X145504019Y-80086967D01*
X145463562Y-80120327D01*
X145455457Y-80124546D01*
X145446738Y-80130036D01*
X145276433Y-80257905D01*
X145268726Y-80264748D01*
X145121590Y-80418717D01*
X145115104Y-80426727D01*
X144995098Y-80602649D01*
X144990000Y-80611623D01*
X144900338Y-80804783D01*
X144896775Y-80814470D01*
X144841389Y-81014183D01*
X144842912Y-81022607D01*
X144855292Y-81026000D01*
X146305000Y-81026000D01*
X146373121Y-81046002D01*
X146419614Y-81099658D01*
X146431000Y-81152000D01*
X146431000Y-81408000D01*
X146410998Y-81476121D01*
X146357342Y-81522614D01*
X146305000Y-81534000D01*
X144860225Y-81534000D01*
X144846695Y-81537973D01*
X144844964Y-81550015D01*
X144815471Y-81614596D01*
X144755745Y-81652980D01*
X144746443Y-81655331D01*
X144735604Y-81657635D01*
X144624712Y-81681206D01*
X144618682Y-81683891D01*
X144618681Y-81683891D01*
X144456278Y-81756197D01*
X144456276Y-81756198D01*
X144450248Y-81758882D01*
X144444907Y-81762762D01*
X144444906Y-81762763D01*
X144343561Y-81836395D01*
X144276693Y-81860253D01*
X144207542Y-81844173D01*
X144158062Y-81793259D01*
X144143500Y-81734459D01*
X144143500Y-80701225D01*
X144163502Y-80633104D01*
X144204229Y-80593449D01*
X144218880Y-80584576D01*
X144225381Y-80580639D01*
X144346639Y-80459381D01*
X144435472Y-80312699D01*
X144443451Y-80287240D01*
X144474185Y-80189165D01*
X144486753Y-80149062D01*
X144493500Y-80075635D01*
X144493499Y-79562366D01*
X144491508Y-79540688D01*
X144488713Y-79510272D01*
X144486753Y-79488938D01*
X144455219Y-79388313D01*
X144453934Y-79317331D01*
X144491231Y-79256920D01*
X144555268Y-79226263D01*
X144625713Y-79235094D01*
G37*
G04 #@! TD.AperFunction*
M02*
