G04 #@! TF.GenerationSoftware,KiCad,Pcbnew,(6.0.10-0)*
G04 #@! TF.CreationDate,2023-11-26T23:42:57+09:00*
G04 #@! TF.ProjectId,AutoFeeder_Drum-type,4175746f-4665-4656-9465-725f4472756d,01*
G04 #@! TF.SameCoordinates,Original*
G04 #@! TF.FileFunction,Paste,Top*
G04 #@! TF.FilePolarity,Positive*
%FSLAX46Y46*%
G04 Gerber Fmt 4.6, Leading zero omitted, Abs format (unit mm)*
G04 Created by KiCad (PCBNEW (6.0.10-0)) date 2023-11-26 23:42:57*
%MOMM*%
%LPD*%
G01*
G04 APERTURE LIST*
G04 Aperture macros list*
%AMRoundRect*
0 Rectangle with rounded corners*
0 $1 Rounding radius*
0 $2 $3 $4 $5 $6 $7 $8 $9 X,Y pos of 4 corners*
0 Add a 4 corners polygon primitive as box body*
4,1,4,$2,$3,$4,$5,$6,$7,$8,$9,$2,$3,0*
0 Add four circle primitives for the rounded corners*
1,1,$1+$1,$2,$3*
1,1,$1+$1,$4,$5*
1,1,$1+$1,$6,$7*
1,1,$1+$1,$8,$9*
0 Add four rect primitives between the rounded corners*
20,1,$1+$1,$2,$3,$4,$5,0*
20,1,$1+$1,$4,$5,$6,$7,0*
20,1,$1+$1,$6,$7,$8,$9,0*
20,1,$1+$1,$8,$9,$2,$3,0*%
G04 Aperture macros list end*
%ADD10RoundRect,0.225000X-0.250000X0.225000X-0.250000X-0.225000X0.250000X-0.225000X0.250000X0.225000X0*%
%ADD11RoundRect,0.225000X0.225000X0.250000X-0.225000X0.250000X-0.225000X-0.250000X0.225000X-0.250000X0*%
%ADD12RoundRect,0.200000X-0.200000X-0.275000X0.200000X-0.275000X0.200000X0.275000X-0.200000X0.275000X0*%
%ADD13RoundRect,0.250000X-0.250000X-0.475000X0.250000X-0.475000X0.250000X0.475000X-0.250000X0.475000X0*%
%ADD14RoundRect,0.200000X-0.275000X0.200000X-0.275000X-0.200000X0.275000X-0.200000X0.275000X0.200000X0*%
%ADD15R,0.400000X0.650000*%
%ADD16RoundRect,0.200000X0.275000X-0.200000X0.275000X0.200000X-0.275000X0.200000X-0.275000X-0.200000X0*%
%ADD17RoundRect,0.200000X0.200000X0.275000X-0.200000X0.275000X-0.200000X-0.275000X0.200000X-0.275000X0*%
%ADD18RoundRect,0.150000X-0.150000X0.825000X-0.150000X-0.825000X0.150000X-0.825000X0.150000X0.825000X0*%
%ADD19RoundRect,0.150000X0.150000X-0.512500X0.150000X0.512500X-0.150000X0.512500X-0.150000X-0.512500X0*%
%ADD20R,0.700000X1.200000*%
%ADD21R,0.760000X1.200000*%
%ADD22R,0.800000X1.200000*%
%ADD23RoundRect,0.150000X-0.825000X-0.150000X0.825000X-0.150000X0.825000X0.150000X-0.825000X0.150000X0*%
%ADD24RoundRect,0.218750X0.256250X-0.218750X0.256250X0.218750X-0.256250X0.218750X-0.256250X-0.218750X0*%
%ADD25RoundRect,0.225000X0.250000X-0.225000X0.250000X0.225000X-0.250000X0.225000X-0.250000X-0.225000X0*%
G04 APERTURE END LIST*
D10*
X156210000Y-100190000D03*
X156210000Y-101740000D03*
D11*
X153175000Y-77216000D03*
X151625000Y-77216000D03*
D12*
X162370000Y-63754000D03*
X164020000Y-63754000D03*
D13*
X140909000Y-75311000D03*
X142809000Y-75311000D03*
D14*
X162560000Y-66485000D03*
X162560000Y-68135000D03*
X138430000Y-74740000D03*
X138430000Y-76390000D03*
D15*
X154620000Y-105500000D03*
X155380000Y-105500000D03*
X155380000Y-104500000D03*
X154620000Y-104500000D03*
D16*
X156210000Y-95440000D03*
X156210000Y-93790000D03*
D17*
X155765000Y-97790000D03*
X154115000Y-97790000D03*
X160210000Y-66548000D03*
X158560000Y-66548000D03*
D18*
X156210000Y-123890000D03*
X154940000Y-123890000D03*
X153670000Y-123890000D03*
X152400000Y-123890000D03*
X152400000Y-128840000D03*
X153670000Y-128840000D03*
X154940000Y-128840000D03*
X156210000Y-128840000D03*
D15*
X166120000Y-63050000D03*
X166880000Y-63050000D03*
X166880000Y-62050000D03*
X166120000Y-62050000D03*
D19*
X141290000Y-72892500D03*
X142240000Y-72892500D03*
X143190000Y-72892500D03*
X143190000Y-70617500D03*
X142240000Y-70617500D03*
X141290000Y-70617500D03*
D16*
X138430000Y-73215000D03*
X138430000Y-71565000D03*
D20*
X144010000Y-66780000D03*
D21*
X141990000Y-66780000D03*
D22*
X140760000Y-66780000D03*
D20*
X143010000Y-66780000D03*
D21*
X145030000Y-66780000D03*
D22*
X146260000Y-66780000D03*
D13*
X155641000Y-121285000D03*
X157541000Y-121285000D03*
D23*
X149925000Y-79375000D03*
X149925000Y-80645000D03*
X149925000Y-81915000D03*
X149925000Y-83185000D03*
X149925000Y-84455000D03*
X149925000Y-85725000D03*
X149925000Y-86995000D03*
X154875000Y-86995000D03*
X154875000Y-85725000D03*
X154875000Y-84455000D03*
X154875000Y-83185000D03*
X154875000Y-81915000D03*
X154875000Y-80645000D03*
X154875000Y-79375000D03*
D24*
X156210000Y-71272500D03*
X156210000Y-69697500D03*
X156210000Y-75590500D03*
X156210000Y-74015500D03*
D16*
X143510000Y-79819000D03*
X143510000Y-78169000D03*
D25*
X157099000Y-80658000D03*
X157099000Y-79108000D03*
D11*
X164605000Y-60960000D03*
X163055000Y-60960000D03*
D17*
X141541000Y-68707000D03*
X139891000Y-68707000D03*
X160210000Y-61976000D03*
X158560000Y-61976000D03*
D12*
X143320000Y-68707000D03*
X144970000Y-68707000D03*
M02*
