<?xml version="1.0" encoding="UTF-8" standalone="no"?>
<svg
   version="1.1"
   width="3.647440cm"
   height="8.280400cm"
   viewBox="0 0 36474400 82804000"
   id="svg1116"
   sodipodi:docname="AutoFeeder_Drum-type-F_Paste_80.svg"
   inkscape:version="1.1.2 (b8e25be8, 2022-02-05)"
   xmlns:inkscape="http://www.inkscape.org/namespaces/inkscape"
   xmlns:sodipodi="http://sodipodi.sourceforge.net/DTD/sodipodi-0.dtd"
   xmlns="http://www.w3.org/2000/svg"
   xmlns:svg="http://www.w3.org/2000/svg"
   xmlns:rdf="http://www.w3.org/1999/02/22-rdf-syntax-ns#"
   xmlns:cc="http://creativecommons.org/ns#"
   xmlns:dc="http://purl.org/dc/elements/1.1/">
  <defs
     id="defs1120" />
  <sodipodi:namedview
     id="namedview1118"
     pagecolor="#ffffff"
     bordercolor="#666666"
     borderopacity="1.0"
     inkscape:pageshadow="2"
     inkscape:pageopacity="0.0"
     inkscape:pagecheckerboard="0"
     inkscape:document-units="cm"
     showgrid="false"
     inkscape:zoom="2.7894938"
     inkscape:cx="68.829693"
     inkscape:cy="156.48001"
     inkscape:window-width="2560"
     inkscape:window-height="1387"
     inkscape:window-x="0"
     inkscape:window-y="25"
     inkscape:window-maximized="1"
     inkscape:current-layer="svg1116" />
  <title
     id="title824">SVG Picture created as AutoFeeder_Drum-type-F_Paste.svg date 2023/12/10 11:57:25 </title>
  <desc
     id="desc826">Picture generated by PCBNEW </desc>
  <g
     style="fill:#000000; fill-opacity:1.000000;stroke:#000000; stroke-opacity:1.000000; stroke-linecap:round; stroke-linejoin:round;"
     transform="translate(0 0) scale(1 1)"
     id="g828" />
  <g
     id="g830"
     style="fill:#000000;fill-opacity:0;stroke:#000000;stroke-width:0;stroke-linecap:round;stroke-linejoin:round;stroke-opacity:1" />
  <g
     style="fill:#000000;fill-opacity:0;stroke:#000000;stroke-width:1;stroke-linecap:round;stroke-linejoin:round;stroke-opacity:1"
     id="g832" />
  <path
     style="fill:#000000;fill-opacity:1;fill-rule:evenodd;stroke:#000000;stroke-width:0.8;stroke-linecap:round;stroke-linejoin:round;stroke-opacity:1"
     d="m 24856381,42593095 68883,13702 58396,39019 39019,58396 13702,68883 v 360000 l -13702,68883 -39019,58396 -58396,39019 -68883,13702 h -400000 l -68883,-13702 -58396,-39019 -39019,-58396 -13702,-68883 v -360000 l 13702,-68883 39019,-58396 58396,-39019 68883,-13702 z"
     id="path834" />
  <path
     style="fill:#000000;fill-opacity:1;fill-rule:evenodd;stroke:#000000;stroke-width:0.8;stroke-linecap:round;stroke-linejoin:round;stroke-opacity:1"
     d="m 24856381,44143095 68883,13702 58396,39019 39019,58396 13702,68883 v 360000 l -13702,68883 -39019,58396 -58396,39019 -68883,13702 h -400000 l -68883,-13702 -58396,-39019 -39019,-58396 -13702,-68883 v -360000 l 13702,-68883 39019,-58396 58396,-39019 68883,-13702 z"
     id="path836" />
  <g
     id="g840"
     style="fill:#000000;fill-opacity:0;stroke:#000000;stroke-width:0;stroke-linecap:round;stroke-linejoin:round;stroke-opacity:1" />
  <path
     style="fill:#000000;fill-opacity:1;fill-rule:evenodd;stroke:#000000;stroke-width:0.8;stroke-linecap:round;stroke-linejoin:round;stroke-opacity:1"
     d="m 21981381,20179095 -13702,68883 -39019,58396 -58396,39019 -68883,13702 h -360000 l -68883,-13702 -58396,-39019 -39019,-58396 -13702,-68883 v -400000 l 13702,-68883 39019,-58396 58396,-39019 68883,-13702 h 360000 l 68883,13702 58396,39019 39019,58396 13702,68883 z"
     id="path842" />
  <path
     style="fill:#000000;fill-opacity:1;fill-rule:evenodd;stroke:#000000;stroke-width:0.8;stroke-linecap:round;stroke-linejoin:round;stroke-opacity:1"
     d="m 20431381,20179095 -13702,68883 -39019,58396 -58396,39019 -68883,13702 h -360000 l -68883,-13702 -58396,-39019 -39019,-58396 -13702,-68883 v -400000 l 13702,-68883 39019,-58396 58396,-39019 68883,-13702 h 360000 l 68883,13702 58396,39019 39019,58396 13702,68883 z"
     id="path844" />
  <g
     id="g848"
     style="fill:#000000;fill-opacity:0;stroke:#000000;stroke-width:0;stroke-linecap:round;stroke-linejoin:round;stroke-opacity:1" />
  <path
     style="fill:#000000;fill-opacity:1;fill-rule:evenodd;stroke:#000000;stroke-width:0.8;stroke-linecap:round;stroke-linejoin:round;stroke-opacity:1"
     d="m 30496381,6297095 12179,-61229.6 34684,-51907.2 51907,-34684 61230,-12179.2 h 320000 l 61230,12179.2 51907,34684 34684,51907.2 12179,61229.6 v 440000 l -12179,61229.6 -34684,51907.2 -51907,34684 -61230,12179.2 h -320000 l -61230,-12179.2 -51907,-34684 -34684,-51907.2 -12179,-61229.6 z"
     id="path850" />
  <path
     style="fill:#000000;fill-opacity:1;fill-rule:evenodd;stroke:#000000;stroke-width:0.8;stroke-linecap:round;stroke-linejoin:round;stroke-opacity:1"
     d="m 32146381,6297095 12179,-61229.6 34684,-51907.2 51907,-34684 61230,-12179.2 h 320000 l 61230,12179.2 51907,34684 34684,51907.2 12179,61229.6 v 440000 l -12179,61229.6 -34684,51907.2 -51907,34684 -61230,12179.2 h -320000 l -61230,-12179.2 -51907,-34684 -34684,-51907.2 -12179,-61229.6 z"
     id="path852" />
  <g
     id="g856"
     style="fill:#000000;fill-opacity:0;stroke:#000000;stroke-width:0;stroke-linecap:round;stroke-linejoin:round;stroke-opacity:1" />
  <path
     style="fill:#000000;fill-opacity:1;fill-rule:evenodd;stroke:#000000;stroke-width:0.8;stroke-linecap:round;stroke-linejoin:round;stroke-opacity:1"
     d="m 8955381,17694095 15224,-76537 43354.4,-64885 64884.8,-43354 76536.8,-15224 h 400000 l 76536.8,15224 64884.8,43354 43354.4,64885 15224,76537 v 760000 l -15224,76537 -43354.4,64885 -64884.8,43354 -76536.8,15224 h -400000 l -76536.8,-15224 -64884.8,-43354 -43354.4,-64885 -15224,-76537 z"
     id="path858" />
  <path
     style="fill:#000000;fill-opacity:1;fill-rule:evenodd;stroke:#000000;stroke-width:0.8;stroke-linecap:round;stroke-linejoin:round;stroke-opacity:1"
     d="m 10855381,17694095 15224,-76537 43354,-64885 64885,-43354 76537,-15224 h 400000 l 76537,15224 64885,43354 43354,64885 15224,76537 v 760000 l -15224,76537 -43354,64885 -64885,43354 -76537,15224 h -400000 l -76537,-15224 -64885,-43354 -43354,-64885 -15224,-76537 z"
     id="path860" />
  <g
     id="g864"
     style="fill:#000000;fill-opacity:0;stroke:#000000;stroke-width:0;stroke-linecap:round;stroke-linejoin:round;stroke-opacity:1" />
  <path
     style="fill:#000000;fill-opacity:1;fill-rule:evenodd;stroke:#000000;stroke-width:0.8;stroke-linecap:round;stroke-linejoin:round;stroke-opacity:1"
     d="m 31226381,8928095 61230,12179.2 51907,34684 34684,51907.2 12179,61229.6 v 320000 l -12179,61229.6 -34684,51907.2 -51907,34684 -61230,12179.2 h -440000 l -61230,-12179.2 -51907,-34684 -34684,-51907.2 -12179,-61229.6 v -320000 l 12179,-61229.6 34684,-51907.2 51907,-34684 61230,-12179.2 z"
     id="path866" />
  <path
     style="fill:#000000;fill-opacity:1;fill-rule:evenodd;stroke:#000000;stroke-width:0.8;stroke-linecap:round;stroke-linejoin:round;stroke-opacity:1"
     d="m 31226381,10578095 61230,12179 51907,34684 34684,51907 12179,61230 v 320000 l -12179,61230 -34684,51907 -51907,34684 -61230,12179 h -440000 l -61230,-12179 -51907,-34684 -34684,-51907 -12179,-61230 v -320000 l 12179,-61230 34684,-51907 51907,-34684 61230,-12179 z"
     id="path868" />
  <g
     id="g872"
     style="fill:#000000;fill-opacity:0;stroke:#000000;stroke-width:0;stroke-linecap:round;stroke-linejoin:round;stroke-opacity:1" />
  <path
     style="fill:#000000;fill-opacity:1;fill-rule:evenodd;stroke:#000000;stroke-width:0.8;stroke-linecap:round;stroke-linejoin:round;stroke-opacity:1"
     d="m 7096381,17183095 61229.6,12179 51907.2,34684 34684,51907 12179.2,61230 v 320000 l -12179.2,61230 -34684,51907 -51907.2,34684 -61229.6,12179 h -440000 l -61229.6,-12179 -51907.2,-34684 -34684,-51907 -12179.2,-61230 v -320000 l 12179.2,-61230 34684,-51907 51907.2,-34684 61229.6,-12179 z"
     id="path874" />
  <path
     style="fill:#000000;fill-opacity:1;fill-rule:evenodd;stroke:#000000;stroke-width:0.8;stroke-linecap:round;stroke-linejoin:round;stroke-opacity:1"
     d="m 7096381,18833095 61229.6,12179 51907.2,34684 34684,51907 12179.2,61230 v 320000 l -12179.2,61230 -34684,51907 -51907.2,34684 -61229.6,12179 h -440000 l -61229.6,-12179 -51907.2,-34684 -34684,-51907 -12179.2,-61230 v -320000 l 12179.2,-61230 34684,-51907 51907.2,-34684 61229.6,-12179 z"
     id="path876" />
  <g
     id="g880"
     style="fill:#000000;fill-opacity:0;stroke:#000000;stroke-width:0;stroke-linecap:round;stroke-linejoin:round;stroke-opacity:1" />
  <g
     style="fill:#000000;fill-opacity:1;stroke:#000000;stroke-width:1;stroke-linecap:round;stroke-linejoin:round;stroke-opacity:1"
     id="g890">
    <path
       style="fill:#000000;fill-opacity:1;fill-rule:evenodd;stroke:#000000;stroke-width:1;stroke-linecap:round;stroke-linejoin:round;stroke-opacity:1"
       d="m 22866381,47938095 h 400000 v 650000 h -400000 z"
       id="path882" />
    <path
       style="fill:#000000;fill-opacity:1;fill-rule:evenodd;stroke:#000000;stroke-width:1;stroke-linecap:round;stroke-linejoin:round;stroke-opacity:1"
       d="m 23626381,47938095 h 400000 v 650000 h -400000 z"
       id="path884" />
    <path
       style="fill:#000000;fill-opacity:1;fill-rule:evenodd;stroke:#000000;stroke-width:1;stroke-linecap:round;stroke-linejoin:round;stroke-opacity:1"
       d="m 23626381,46938095 h 400000 v 650000 h -400000 z"
       id="path886" />
    <path
       style="fill:#000000;fill-opacity:1;fill-rule:evenodd;stroke:#000000;stroke-width:1;stroke-linecap:round;stroke-linejoin:round;stroke-opacity:1"
       d="m 22866381,46938095 h 400000 v 650000 h -400000 z"
       id="path888" />
  </g>
  <g
     id="g892"
     style="fill:#000000;fill-opacity:0;stroke:#000000;stroke-width:0;stroke-linecap:round;stroke-linejoin:round;stroke-opacity:1" />
  <path
     style="fill:#000000;fill-opacity:1;fill-rule:evenodd;stroke:#000000;stroke-width:0.8;stroke-linecap:round;stroke-linejoin:round;stroke-opacity:1"
     d="m 24436381,38523095 -61230,-12179 -51907,-34684 -34684,-51907 -12179,-61230 v -320000 l 12179,-61230 34684,-51907 51907,-34684 61230,-12179 h 440000 l 61230,12179 51907,34684 34684,51907 12179,61230 v 320000 l -12179,61230 -34684,51907 -51907,34684 -61230,12179 z"
     id="path894" />
  <path
     style="fill:#000000;fill-opacity:1;fill-rule:evenodd;stroke:#000000;stroke-width:0.8;stroke-linecap:round;stroke-linejoin:round;stroke-opacity:1"
     d="m 24436381,36873095 -61230,-12179 -51907,-34684 -34684,-51907 -12179,-61230 v -320000 l 12179,-61230 34684,-51907 51907,-34684 61230,-12179 h 440000 l 61230,12179 51907,34684 34684,51907 12179,61230 v 320000 l -12179,61230 -34684,51907 -51907,34684 -61230,12179 z"
     id="path896" />
  <g
     id="g900"
     style="fill:#000000;fill-opacity:0;stroke:#000000;stroke-width:0;stroke-linecap:round;stroke-linejoin:round;stroke-opacity:1" />
  <g
     id="g902"
     style="fill:#000000;fill-opacity:0;stroke:#000000;stroke-width:0;stroke-linecap:round;stroke-linejoin:round;stroke-opacity:1" />
  <path
     style="fill:#000000;fill-opacity:1;fill-rule:evenodd;stroke:#000000;stroke-width:0.8;stroke-linecap:round;stroke-linejoin:round;stroke-opacity:1"
     d="m 24531381,40773095 -12179,61230 -34684,51907 -51907,34684 -61230,12179 h -320000 l -61230,-12179 -51907,-34684 -34684,-51907 -12179,-61230 v -440000 l 12179,-61230 34684,-51907 51907,-34684 61230,-12179 h 320000 l 61230,12179 51907,34684 34684,51907 12179,61230 z"
     id="path904" />
  <path
     style="fill:#000000;fill-opacity:1;fill-rule:evenodd;stroke:#000000;stroke-width:0.8;stroke-linecap:round;stroke-linejoin:round;stroke-opacity:1"
     d="m 22881381,40773095 -12179,61230 -34684,51907 -51907,34684 -61230,12179 h -320000 l -61230,-12179 -51907,-34684 -34684,-51907 -12179,-61230 v -440000 l 12179,-61230 34684,-51907 51907,-34684 61230,-12179 h 320000 l 61230,12179 51907,34684 34684,51907 12179,61230 z"
     id="path906" />
  <g
     id="g910"
     style="fill:#000000;fill-opacity:0;stroke:#000000;stroke-width:0;stroke-linecap:round;stroke-linejoin:round;stroke-opacity:1" />
  <g
     id="g912"
     style="fill:#000000;fill-opacity:0;stroke:#000000;stroke-width:0;stroke-linecap:round;stroke-linejoin:round;stroke-opacity:1" />
  <path
     style="fill:#000000;fill-opacity:1;fill-rule:evenodd;stroke:#000000;stroke-width:0.8;stroke-linecap:round;stroke-linejoin:round;stroke-opacity:1"
     d="m 28976381,9531095 -12179,61229.6 -34684,51907.2 -51907,34684 -61230,12179.2 h -320000 l -61230,-12179.2 -51907,-34684 -34684,-51907.2 -12179,-61229.6 v -440000 l 12179,-61229.6 34684,-51907.2 51907,-34684 61230,-12179.2 h 320000 l 61230,12179.2 51907,34684 34684,51907.2 12179,61229.6 z"
     id="path914" />
  <path
     style="fill:#000000;fill-opacity:1;fill-rule:evenodd;stroke:#000000;stroke-width:0.8;stroke-linecap:round;stroke-linejoin:round;stroke-opacity:1"
     d="m 27326381,9531095 -12179,61229.6 -34684,51907.2 -51907,34684 -61230,12179.2 h -320000 l -61230,-12179.2 -51907,-34684 -34684,-51907.2 -12179,-61229.6 v -440000 l 12179,-61229.6 34684,-51907.2 51907,-34684 61230,-12179.2 h 320000 l 61230,12179.2 51907,34684 34684,51907.2 12179,61229.6 z"
     id="path916" />
  <g
     id="g920"
     style="fill:#000000;fill-opacity:0;stroke:#000000;stroke-width:0;stroke-linecap:round;stroke-linejoin:round;stroke-opacity:1" />
  <g
     id="g922"
     style="fill:#000000;fill-opacity:0;stroke:#000000;stroke-width:0;stroke-linecap:round;stroke-linejoin:round;stroke-opacity:1" />
  <g
     id="g924"
     style="fill:#000000;fill-opacity:0;stroke:#000000;stroke-width:0;stroke-linecap:round;stroke-linejoin:round;stroke-opacity:1" />
  <path
     style="fill:#000000;fill-opacity:1;fill-rule:evenodd;stroke:#000000;stroke-width:0.8;stroke-linecap:round;stroke-linejoin:round;stroke-opacity:1"
     d="m 24776381,65873095 45922,9134 38931,26013 26013,38931 9134,45922 v 1320000 l -9134,45922 -26013,38931 -38931,26013 -45922,9134 h -240000 l -45922,-9134 -38931,-26013 -26013,-38931 -9134,-45922 v -1320000 l 9134,-45922 26013,-38931 38931,-26013 45922,-9134 z"
     id="path926" />
  <path
     style="fill:#000000;fill-opacity:1;fill-rule:evenodd;stroke:#000000;stroke-width:0.8;stroke-linecap:round;stroke-linejoin:round;stroke-opacity:1"
     d="m 23506381,65873095 45922,9134 38931,26013 26013,38931 9134,45922 v 1320000 l -9134,45922 -26013,38931 -38931,26013 -45922,9134 h -240000 l -45922,-9134 -38931,-26013 -26013,-38931 -9134,-45922 v -1320000 l 9134,-45922 26013,-38931 38931,-26013 45922,-9134 z"
     id="path928" />
  <path
     style="fill:#000000;fill-opacity:1;fill-rule:evenodd;stroke:#000000;stroke-width:0.8;stroke-linecap:round;stroke-linejoin:round;stroke-opacity:1"
     d="m 22236381,65873095 45922,9134 38931,26013 26013,38931 9134,45922 v 1320000 l -9134,45922 -26013,38931 -38931,26013 -45922,9134 h -240000 l -45922,-9134 -38931,-26013 -26013,-38931 -9134,-45922 v -1320000 l 9134,-45922 26013,-38931 38931,-26013 45922,-9134 z"
     id="path930" />
  <path
     style="fill:#000000;fill-opacity:1;fill-rule:evenodd;stroke:#000000;stroke-width:0.8;stroke-linecap:round;stroke-linejoin:round;stroke-opacity:1"
     d="m 20966381,65873095 45922,9134 38931,26013 26013,38931 9134,45922 v 1320000 l -9134,45922 -26013,38931 -38931,26013 -45922,9134 h -240000 l -45922,-9134 -38931,-26013 -26013,-38931 -9134,-45922 v -1320000 l 9134,-45922 26013,-38931 38931,-26013 45922,-9134 z"
     id="path932" />
  <path
     style="fill:#000000;fill-opacity:1;fill-rule:evenodd;stroke:#000000;stroke-width:0.8;stroke-linecap:round;stroke-linejoin:round;stroke-opacity:1"
     d="m 20966381,70823095 45922,9134 38931,26013 26013,38931 9134,45922 v 1320000 l -9134,45922 -26013,38931 -38931,26013 -45922,9134 h -240000 l -45922,-9134 -38931,-26013 -26013,-38931 -9134,-45922 v -1320000 l 9134,-45922 26013,-38931 38931,-26013 45922,-9134 z"
     id="path934" />
  <path
     style="fill:#000000;fill-opacity:1;fill-rule:evenodd;stroke:#000000;stroke-width:0.8;stroke-linecap:round;stroke-linejoin:round;stroke-opacity:1"
     d="m 22236381,70823095 45922,9134 38931,26013 26013,38931 9134,45922 v 1320000 l -9134,45922 -26013,38931 -38931,26013 -45922,9134 h -240000 l -45922,-9134 -38931,-26013 -26013,-38931 -9134,-45922 v -1320000 l 9134,-45922 26013,-38931 38931,-26013 45922,-9134 z"
     id="path936" />
  <path
     style="fill:#000000;fill-opacity:1;fill-rule:evenodd;stroke:#000000;stroke-width:0.8;stroke-linecap:round;stroke-linejoin:round;stroke-opacity:1"
     d="m 23506381,70823095 45922,9134 38931,26013 26013,38931 9134,45922 v 1320000 l -9134,45922 -26013,38931 -38931,26013 -45922,9134 h -240000 l -45922,-9134 -38931,-26013 -26013,-38931 -9134,-45922 v -1320000 l 9134,-45922 26013,-38931 38931,-26013 45922,-9134 z"
     id="path938" />
  <path
     style="fill:#000000;fill-opacity:1;fill-rule:evenodd;stroke:#000000;stroke-width:0.8;stroke-linecap:round;stroke-linejoin:round;stroke-opacity:1"
     d="m 24776381,70823095 45922,9134 38931,26013 26013,38931 9134,45922 v 1320000 l -9134,45922 -26013,38931 -38931,26013 -45922,9134 h -240000 l -45922,-9134 -38931,-26013 -26013,-38931 -9134,-45922 v -1320000 l 9134,-45922 26013,-38931 38931,-26013 45922,-9134 z"
     id="path940" />
  <g
     id="g944"
     style="fill:#000000;fill-opacity:0;stroke:#000000;stroke-width:0;stroke-linecap:round;stroke-linejoin:round;stroke-opacity:1" />
  <g
     style="fill:#000000;fill-opacity:1;stroke:#000000;stroke-width:1;stroke-linecap:round;stroke-linejoin:round;stroke-opacity:1"
     id="g954">
    <path
       style="fill:#000000;fill-opacity:1;fill-rule:evenodd;stroke:#000000;stroke-width:1;stroke-linecap:round;stroke-linejoin:round;stroke-opacity:1"
       d="m 34366381,5488095 h 400000 v 650000 h -400000 z"
       id="path946" />
    <path
       style="fill:#000000;fill-opacity:1;fill-rule:evenodd;stroke:#000000;stroke-width:1;stroke-linecap:round;stroke-linejoin:round;stroke-opacity:1"
       d="m 35126381,5488095 h 400000 v 650000 h -400000 z"
       id="path948" />
    <path
       style="fill:#000000;fill-opacity:1;fill-rule:evenodd;stroke:#000000;stroke-width:1;stroke-linecap:round;stroke-linejoin:round;stroke-opacity:1"
       d="m 35126381,4488095 h 400000 v 650000 h -400000 z"
       id="path950" />
    <path
       style="fill:#000000;fill-opacity:1;fill-rule:evenodd;stroke:#000000;stroke-width:1;stroke-linecap:round;stroke-linejoin:round;stroke-opacity:1"
       d="m 34366381,4488095 h 400000 v 650000 h -400000 z"
       id="path952" />
  </g>
  <g
     id="g956"
     style="fill:#000000;fill-opacity:0;stroke:#000000;stroke-width:0;stroke-linecap:round;stroke-linejoin:round;stroke-opacity:1" />
  <g
     id="g958"
     style="fill:#000000;fill-opacity:0;stroke:#000000;stroke-width:0;stroke-linecap:round;stroke-linejoin:round;stroke-opacity:1" />
  <g
     id="g960"
     style="fill:#000000;fill-opacity:0;stroke:#000000;stroke-width:0;stroke-linecap:round;stroke-linejoin:round;stroke-opacity:1" />
  <path
     style="fill:#000000;fill-opacity:1;fill-rule:evenodd;stroke:#000000;stroke-width:0.8;stroke-linecap:round;stroke-linejoin:round;stroke-opacity:1"
     d="m 9616381,16185595 -45922.4,-9134 -38930.4,-26013 -26012.8,-38931 -9134.4,-45922 v -820000 l 9134.4,-45922 26012.8,-38931 38930.4,-26013 45922.4,-9134 h 240000 l 45922.4,9134 38930.4,26013 26012.8,38931 9134.4,45922 v 820000 l -9134.4,45922 -26012.8,38931 -38930.4,26013 -45922.4,9134 z"
     id="path962" />
  <path
     style="fill:#000000;fill-opacity:1;fill-rule:evenodd;stroke:#000000;stroke-width:0.8;stroke-linecap:round;stroke-linejoin:round;stroke-opacity:1"
     d="m 10566381,16185595 -45922,-9134 -38931,-26013 -26013,-38931 -9134,-45922 v -820000 l 9134,-45922 26013,-38931 38931,-26013 45922,-9134 h 240000 l 45922,9134 38931,26013 26013,38931 9134,45922 v 820000 l -9134,45922 -26013,38931 -38931,26013 -45922,9134 z"
     id="path964" />
  <path
     style="fill:#000000;fill-opacity:1;fill-rule:evenodd;stroke:#000000;stroke-width:0.8;stroke-linecap:round;stroke-linejoin:round;stroke-opacity:1"
     d="m 11516381,16185595 -45922,-9134 -38931,-26013 -26013,-38931 -9134,-45922 v -820000 l 9134,-45922 26013,-38931 38931,-26013 45922,-9134 h 240000 l 45922,9134 38931,26013 26013,38931 9134,45922 v 820000 l -9134,45922 -26013,38931 -38931,26013 -45922,9134 z"
     id="path966" />
  <path
     style="fill:#000000;fill-opacity:1;fill-rule:evenodd;stroke:#000000;stroke-width:0.8;stroke-linecap:round;stroke-linejoin:round;stroke-opacity:1"
     d="m 11516381,13910595 -45922,-9134 -38931,-26013 -26013,-38931 -9134,-45922 v -820000 l 9134,-45922 26013,-38931 38931,-26013 45922,-9134 h 240000 l 45922,9134 38931,26013 26013,38931 9134,45922 v 820000 l -9134,45922 -26013,38931 -38931,26013 -45922,9134 z"
     id="path968" />
  <path
     style="fill:#000000;fill-opacity:1;fill-rule:evenodd;stroke:#000000;stroke-width:0.8;stroke-linecap:round;stroke-linejoin:round;stroke-opacity:1"
     d="m 10566381,13910595 -45922,-9134 -38931,-26013 -26013,-38931 -9134,-45922 v -820000 l 9134,-45922 26013,-38931 38931,-26013 45922,-9134 h 240000 l 45922,9134 38931,26013 26013,38931 9134,45922 v 820000 l -9134,45922 -26013,38931 -38931,26013 -45922,9134 z"
     id="path970" />
  <path
     style="fill:#000000;fill-opacity:1;fill-rule:evenodd;stroke:#000000;stroke-width:0.8;stroke-linecap:round;stroke-linejoin:round;stroke-opacity:1"
     d="m 9616381,13910595 -45922.4,-9134 -38930.4,-26013 -26012.8,-38931 -9134.4,-45922 v -820000 l 9134.4,-45922 26012.8,-38931 38930.4,-26013 45922.4,-9134 h 240000 l 45922.4,9134 38930.4,26013 26012.8,38931 9134.4,45922 v 820000 l -9134.4,45922 -26012.8,38931 -38930.4,26013 -45922.4,9134 z"
     id="path972" />
  <g
     id="g976"
     style="fill:#000000;fill-opacity:0;stroke:#000000;stroke-width:0;stroke-linecap:round;stroke-linejoin:round;stroke-opacity:1" />
  <g
     id="g978"
     style="fill:#000000;fill-opacity:0;stroke:#000000;stroke-width:0;stroke-linecap:round;stroke-linejoin:round;stroke-opacity:1" />
  <path
     style="fill:#000000;fill-opacity:1;fill-rule:evenodd;stroke:#000000;stroke-width:0.8;stroke-linecap:round;stroke-linejoin:round;stroke-opacity:1"
     d="m 6656381,16298095 -61229.6,-12179 -51907.2,-34684 -34684,-51907 -12179.2,-61230 v -320000 l 12179.2,-61230 34684,-51907 51907.2,-34684 61229.6,-12179 h 440000 l 61229.6,12179 51907.2,34684 34684,51907 12179.2,61230 v 320000 l -12179.2,61230 -34684,51907 -51907.2,34684 -61229.6,12179 z"
     id="path980" />
  <path
     style="fill:#000000;fill-opacity:1;fill-rule:evenodd;stroke:#000000;stroke-width:0.8;stroke-linecap:round;stroke-linejoin:round;stroke-opacity:1"
     d="m 6656381,14648095 -61229.6,-12179 -51907.2,-34684 -34684,-51907 -12179.2,-61230 v -320000 l 12179.2,-61230 34684,-51907 51907.2,-34684 61229.6,-12179 h 440000 l 61229.6,12179 51907.2,34684 34684,51907 12179.2,61230 v 320000 l -12179.2,61230 -34684,51907 -51907.2,34684 -61229.6,12179 z"
     id="path982" />
  <g
     id="g986"
     style="fill:#000000;fill-opacity:0;stroke:#000000;stroke-width:0;stroke-linecap:round;stroke-linejoin:round;stroke-opacity:1" />
  <path
     style="fill:#000000;fill-opacity:1;fill-rule:evenodd;stroke:#000000;stroke-width:0.8;stroke-linecap:round;stroke-linejoin:round;stroke-opacity:1"
     d="m 12176381,9063095 h 560000 v 960000 h -560000 z"
     id="path988" />
  <path
     style="fill:#000000;fill-opacity:1;fill-rule:evenodd;stroke:#000000;stroke-width:0.8;stroke-linecap:round;stroke-linejoin:round;stroke-opacity:1"
     d="m 10132381,9063095 h 608000 v 960000 h -608000 z"
     id="path990" />
  <path
     style="fill:#000000;fill-opacity:1;fill-rule:evenodd;stroke:#000000;stroke-width:0.8;stroke-linecap:round;stroke-linejoin:round;stroke-opacity:1"
     d="m 8886381,9063095 h 640000 v 960000 h -640000 z"
     id="path992" />
  <path
     style="fill:#000000;fill-opacity:1;fill-rule:evenodd;stroke:#000000;stroke-width:0.8;stroke-linecap:round;stroke-linejoin:round;stroke-opacity:1"
     d="m 11176381,9063095 h 560000 v 960000 h -560000 z"
     id="path994" />
  <path
     style="fill:#000000;fill-opacity:1;fill-rule:evenodd;stroke:#000000;stroke-width:0.8;stroke-linecap:round;stroke-linejoin:round;stroke-opacity:1"
     d="m 13172381,9063095 h 608000 v 960000 h -608000 z"
     id="path996" />
  <path
     style="fill:#000000;fill-opacity:1;fill-rule:evenodd;stroke:#000000;stroke-width:0.8;stroke-linecap:round;stroke-linejoin:round;stroke-opacity:1"
     d="m 14386381,9063095 h 640000 v 960000 h -640000 z"
     id="path998" />
  <g
     id="g1002"
     style="fill:#000000;fill-opacity:0;stroke:#000000;stroke-width:0;stroke-linecap:round;stroke-linejoin:round;stroke-opacity:1" />
  <path
     style="fill:#000000;fill-opacity:1;fill-rule:evenodd;stroke:#000000;stroke-width:0.8;stroke-linecap:round;stroke-linejoin:round;stroke-opacity:1"
     d="m 23687381,63668095 15224,-76537 43354,-64885 64885,-43354 76537,-15224 h 400000 l 76537,15224 64885,43354 43354,64885 15224,76537 v 760000 l -15224,76537 -43354,64885 -64885,43354 -76537,15224 h -400000 l -76537,-15224 -64885,-43354 -43354,-64885 -15224,-76537 z"
     id="path1004" />
  <path
     style="fill:#000000;fill-opacity:1;fill-rule:evenodd;stroke:#000000;stroke-width:0.8;stroke-linecap:round;stroke-linejoin:round;stroke-opacity:1"
     d="m 25587381,63668095 15224,-76537 43354,-64885 64885,-43354 76537,-15224 h 400000 l 76537,15224 64885,43354 43354,64885 15224,76537 v 760000 l -15224,76537 -43354,64885 -64885,43354 -76537,15224 h -400000 l -76537,-15224 -64885,-43354 -43354,-64885 -15224,-76537 z"
     id="path1006" />
  <g
     id="g1010"
     style="fill:#000000;fill-opacity:0;stroke:#000000;stroke-width:0;stroke-linecap:round;stroke-linejoin:round;stroke-opacity:1" />
  <path
     style="fill:#000000;fill-opacity:1;fill-rule:evenodd;stroke:#000000;stroke-width:0.8;stroke-linecap:round;stroke-linejoin:round;stroke-opacity:1"
     d="m 17591381,22018095 9134,-45922 26013,-38931 38931,-26013 45922,-9134 h 1320000 l 45922,9134 38931,26013 26013,38931 9134,45922 v 240000 l -9134,45922 -26013,38931 -38931,26013 -45922,9134 h -1320000 l -45922,-9134 -38931,-26013 -26013,-38931 -9134,-45922 z"
     id="path1012" />
  <path
     style="fill:#000000;fill-opacity:1;fill-rule:evenodd;stroke:#000000;stroke-width:0.8;stroke-linecap:round;stroke-linejoin:round;stroke-opacity:1"
     d="m 17591381,23288095 9134,-45922 26013,-38931 38931,-26013 45922,-9134 h 1320000 l 45922,9134 38931,26013 26013,38931 9134,45922 v 240000 l -9134,45922 -26013,38931 -38931,26013 -45922,9134 h -1320000 l -45922,-9134 -38931,-26013 -26013,-38931 -9134,-45922 z"
     id="path1014" />
  <path
     style="fill:#000000;fill-opacity:1;fill-rule:evenodd;stroke:#000000;stroke-width:0.8;stroke-linecap:round;stroke-linejoin:round;stroke-opacity:1"
     d="m 17591381,24558095 9134,-45922 26013,-38931 38931,-26013 45922,-9134 h 1320000 l 45922,9134 38931,26013 26013,38931 9134,45922 v 240000 l -9134,45922 -26013,38931 -38931,26013 -45922,9134 h -1320000 l -45922,-9134 -38931,-26013 -26013,-38931 -9134,-45922 z"
     id="path1016" />
  <path
     style="fill:#000000;fill-opacity:1;fill-rule:evenodd;stroke:#000000;stroke-width:0.8;stroke-linecap:round;stroke-linejoin:round;stroke-opacity:1"
     d="m 17591381,25828095 9134,-45922 26013,-38931 38931,-26013 45922,-9134 h 1320000 l 45922,9134 38931,26013 26013,38931 9134,45922 v 240000 l -9134,45922 -26013,38931 -38931,26013 -45922,9134 h -1320000 l -45922,-9134 -38931,-26013 -26013,-38931 -9134,-45922 z"
     id="path1018" />
  <path
     style="fill:#000000;fill-opacity:1;fill-rule:evenodd;stroke:#000000;stroke-width:0.8;stroke-linecap:round;stroke-linejoin:round;stroke-opacity:1"
     d="m 17591381,27098095 9134,-45922 26013,-38931 38931,-26013 45922,-9134 h 1320000 l 45922,9134 38931,26013 26013,38931 9134,45922 v 240000 l -9134,45922 -26013,38931 -38931,26013 -45922,9134 h -1320000 l -45922,-9134 -38931,-26013 -26013,-38931 -9134,-45922 z"
     id="path1020" />
  <path
     style="fill:#000000;fill-opacity:1;fill-rule:evenodd;stroke:#000000;stroke-width:0.8;stroke-linecap:round;stroke-linejoin:round;stroke-opacity:1"
     d="m 17591381,28368095 9134,-45922 26013,-38931 38931,-26013 45922,-9134 h 1320000 l 45922,9134 38931,26013 26013,38931 9134,45922 v 240000 l -9134,45922 -26013,38931 -38931,26013 -45922,9134 h -1320000 l -45922,-9134 -38931,-26013 -26013,-38931 -9134,-45922 z"
     id="path1022" />
  <path
     style="fill:#000000;fill-opacity:1;fill-rule:evenodd;stroke:#000000;stroke-width:0.8;stroke-linecap:round;stroke-linejoin:round;stroke-opacity:1"
     d="m 17591381,29638095 9134,-45922 26013,-38931 38931,-26013 45922,-9134 h 1320000 l 45922,9134 38931,26013 26013,38931 9134,45922 v 240000 l -9134,45922 -26013,38931 -38931,26013 -45922,9134 h -1320000 l -45922,-9134 -38931,-26013 -26013,-38931 -9134,-45922 z"
     id="path1024" />
  <path
     style="fill:#000000;fill-opacity:1;fill-rule:evenodd;stroke:#000000;stroke-width:0.8;stroke-linecap:round;stroke-linejoin:round;stroke-opacity:1"
     d="m 22541381,29638095 9134,-45922 26013,-38931 38931,-26013 45922,-9134 h 1320000 l 45922,9134 38931,26013 26013,38931 9134,45922 v 240000 l -9134,45922 -26013,38931 -38931,26013 -45922,9134 h -1320000 l -45922,-9134 -38931,-26013 -26013,-38931 -9134,-45922 z"
     id="path1026" />
  <path
     style="fill:#000000;fill-opacity:1;fill-rule:evenodd;stroke:#000000;stroke-width:0.8;stroke-linecap:round;stroke-linejoin:round;stroke-opacity:1"
     d="m 22541381,28368095 9134,-45922 26013,-38931 38931,-26013 45922,-9134 h 1320000 l 45922,9134 38931,26013 26013,38931 9134,45922 v 240000 l -9134,45922 -26013,38931 -38931,26013 -45922,9134 h -1320000 l -45922,-9134 -38931,-26013 -26013,-38931 -9134,-45922 z"
     id="path1028" />
  <path
     style="fill:#000000;fill-opacity:1;fill-rule:evenodd;stroke:#000000;stroke-width:0.8;stroke-linecap:round;stroke-linejoin:round;stroke-opacity:1"
     d="m 22541381,27098095 9134,-45922 26013,-38931 38931,-26013 45922,-9134 h 1320000 l 45922,9134 38931,26013 26013,38931 9134,45922 v 240000 l -9134,45922 -26013,38931 -38931,26013 -45922,9134 h -1320000 l -45922,-9134 -38931,-26013 -26013,-38931 -9134,-45922 z"
     id="path1030" />
  <path
     style="fill:#000000;fill-opacity:1;fill-rule:evenodd;stroke:#000000;stroke-width:0.8;stroke-linecap:round;stroke-linejoin:round;stroke-opacity:1"
     d="m 22541381,25828095 9134,-45922 26013,-38931 38931,-26013 45922,-9134 h 1320000 l 45922,9134 38931,26013 26013,38931 9134,45922 v 240000 l -9134,45922 -26013,38931 -38931,26013 -45922,9134 h -1320000 l -45922,-9134 -38931,-26013 -26013,-38931 -9134,-45922 z"
     id="path1032" />
  <path
     style="fill:#000000;fill-opacity:1;fill-rule:evenodd;stroke:#000000;stroke-width:0.8;stroke-linecap:round;stroke-linejoin:round;stroke-opacity:1"
     d="m 22541381,24558095 9134,-45922 26013,-38931 38931,-26013 45922,-9134 h 1320000 l 45922,9134 38931,26013 26013,38931 9134,45922 v 240000 l -9134,45922 -26013,38931 -38931,26013 -45922,9134 h -1320000 l -45922,-9134 -38931,-26013 -26013,-38931 -9134,-45922 z"
     id="path1034" />
  <path
     style="fill:#000000;fill-opacity:1;fill-rule:evenodd;stroke:#000000;stroke-width:0.8;stroke-linecap:round;stroke-linejoin:round;stroke-opacity:1"
     d="m 22541381,23288095 9134,-45922 26013,-38931 38931,-26013 45922,-9134 h 1320000 l 45922,9134 38931,26013 26013,38931 9134,45922 v 240000 l -9134,45922 -26013,38931 -38931,26013 -45922,9134 h -1320000 l -45922,-9134 -38931,-26013 -26013,-38931 -9134,-45922 z"
     id="path1036" />
  <path
     style="fill:#000000;fill-opacity:1;fill-rule:evenodd;stroke:#000000;stroke-width:0.8;stroke-linecap:round;stroke-linejoin:round;stroke-opacity:1"
     d="m 22541381,22018095 9134,-45922 26013,-38931 38931,-26013 45922,-9134 h 1320000 l 45922,9134 38931,26013 26013,38931 9134,45922 v 240000 l -9134,45922 -26013,38931 -38931,26013 -45922,9134 h -1320000 l -45922,-9134 -38931,-26013 -26013,-38931 -9134,-45922 z"
     id="path1038" />
  <g
     id="g1042"
     style="fill:#000000;fill-opacity:0;stroke:#000000;stroke-width:0;stroke-linecap:round;stroke-linejoin:round;stroke-opacity:1" />
  <g
     id="g1044"
     style="fill:#000000;fill-opacity:0;stroke:#000000;stroke-width:0;stroke-linecap:round;stroke-linejoin:round;stroke-opacity:1" />
  <path
     style="fill:#000000;fill-opacity:1;fill-rule:evenodd;stroke:#000000;stroke-width:0.8;stroke-linecap:round;stroke-linejoin:round;stroke-opacity:1"
     d="m 24451381,14385595 -66970,-13321 -56774,-37935 -37935,-56774 -13321,-66970 v -350000 l 13321,-66970 37935,-56774 56774,-37935 66970,-13321 h 410000 l 66970,13321 56774,37935 37935,56774 13321,66970 v 350000 l -13321,66970 -37935,56774 -56774,37935 -66970,13321 z"
     id="path1046" />
  <path
     style="fill:#000000;fill-opacity:1;fill-rule:evenodd;stroke:#000000;stroke-width:0.8;stroke-linecap:round;stroke-linejoin:round;stroke-opacity:1"
     d="m 24451381,12810595 -66970,-13321 -56774,-37935 -37935,-56774 -13321,-66970 v -350000 l 13321,-66970 37935,-56774 56774,-37935 66970,-13321 h 410000 l 66970,13321 56774,37935 37935,56774 13321,66970 v 350000 l -13321,66970 -37935,56774 -56774,37935 -66970,13321 z"
     id="path1048" />
  <g
     id="g1052"
     style="fill:#000000;fill-opacity:0;stroke:#000000;stroke-width:0;stroke-linecap:round;stroke-linejoin:round;stroke-opacity:1" />
  <path
     style="fill:#000000;fill-opacity:1;fill-rule:evenodd;stroke:#000000;stroke-width:0.8;stroke-linecap:round;stroke-linejoin:round;stroke-opacity:1"
     d="m 24451381,18703595 -66970,-13321 -56774,-37935 -37935,-56774 -13321,-66970 v -350000 l 13321,-66970 37935,-56774 56774,-37935 66970,-13321 h 410000 l 66970,13321 56774,37935 37935,56774 13321,66970 v 350000 l -13321,66970 -37935,56774 -56774,37935 -66970,13321 z"
     id="path1054" />
  <path
     style="fill:#000000;fill-opacity:1;fill-rule:evenodd;stroke:#000000;stroke-width:0.8;stroke-linecap:round;stroke-linejoin:round;stroke-opacity:1"
     d="m 24451381,17128595 -66970,-13321 -56774,-37935 -37935,-56774 -13321,-66970 v -350000 l 13321,-66970 37935,-56774 56774,-37935 66970,-13321 h 410000 l 66970,13321 56774,37935 37935,56774 13321,66970 v 350000 l -13321,66970 -37935,56774 -56774,37935 -66970,13321 z"
     id="path1056" />
  <g
     id="g1060"
     style="fill:#000000;fill-opacity:0;stroke:#000000;stroke-width:0;stroke-linecap:round;stroke-linejoin:round;stroke-opacity:1" />
  <path
     style="fill:#000000;fill-opacity:1;fill-rule:evenodd;stroke:#000000;stroke-width:0.8;stroke-linecap:round;stroke-linejoin:round;stroke-opacity:1"
     d="m 11736381,22902095 -61230,-12179 -51907,-34684 -34684,-51907 -12179,-61230 v -320000 l 12179,-61230 34684,-51907 51907,-34684 61230,-12179 h 440000 l 61230,12179 51907,34684 34684,51907 12179,61230 v 320000 l -12179,61230 -34684,51907 -51907,34684 -61230,12179 z"
     id="path1062" />
  <path
     style="fill:#000000;fill-opacity:1;fill-rule:evenodd;stroke:#000000;stroke-width:0.8;stroke-linecap:round;stroke-linejoin:round;stroke-opacity:1"
     d="m 11736381,21252095 -61230,-12179 -51907,-34684 -34684,-51907 -12179,-61230 v -320000 l 12179,-61230 34684,-51907 51907,-34684 61230,-12179 h 440000 l 61230,12179 51907,34684 34684,51907 12179,61230 v 320000 l -12179,61230 -34684,51907 -51907,34684 -61230,12179 z"
     id="path1064" />
  <g
     id="g1068"
     style="fill:#000000;fill-opacity:0;stroke:#000000;stroke-width:0;stroke-linecap:round;stroke-linejoin:round;stroke-opacity:1" />
  <path
     style="fill:#000000;fill-opacity:1;fill-rule:evenodd;stroke:#000000;stroke-width:0.8;stroke-linecap:round;stroke-linejoin:round;stroke-opacity:1"
     d="m 25345381,23781095 -68883,-13702 -58396,-39019 -39019,-58396 -13702,-68883 v -360000 l 13702,-68883 39019,-58396 58396,-39019 68883,-13702 h 400000 l 68883,13702 58396,39019 39019,58396 13702,68883 v 360000 l -13702,68883 -39019,58396 -58396,39019 -68883,13702 z"
     id="path1070" />
  <path
     style="fill:#000000;fill-opacity:1;fill-rule:evenodd;stroke:#000000;stroke-width:0.8;stroke-linecap:round;stroke-linejoin:round;stroke-opacity:1"
     d="m 25345381,22231095 -68883,-13702 -58396,-39019 -39019,-58396 -13702,-68883 v -360000 l 13702,-68883 39019,-58396 58396,-39019 68883,-13702 h 400000 l 68883,13702 58396,39019 39019,58396 13702,68883 v 360000 l -13702,68883 -39019,58396 -58396,39019 -68883,13702 z"
     id="path1072" />
  <g
     id="g1076"
     style="fill:#000000;fill-opacity:0;stroke:#000000;stroke-width:0;stroke-linecap:round;stroke-linejoin:round;stroke-opacity:1" />
  <path
     style="fill:#000000;fill-opacity:1;fill-rule:evenodd;stroke:#000000;stroke-width:0.8;stroke-linecap:round;stroke-linejoin:round;stroke-opacity:1"
     d="m 33411381,3923095 -13702,68883.2 -39019,58396 -58396,39019.2 -68883,13701.6 h -360000 l -68883,-13701.6 -58396,-39019.2 -39019,-58396 -13702,-68883.2 v -400000 l 13702,-68883.2 39019,-58396 58396,-39019.2 68883,-13701.6 h 360000 l 68883,13701.6 58396,39019.2 39019,58396 13702,68883.2 z"
     id="path1078" />
  <path
     style="fill:#000000;fill-opacity:1;fill-rule:evenodd;stroke:#000000;stroke-width:0.8;stroke-linecap:round;stroke-linejoin:round;stroke-opacity:1"
     d="m 31861381,3923095 -13702,68883.2 -39019,58396 -58396,39019.2 -68883,13701.6 h -360000 l -68883,-13701.6 -58396,-39019.2 -39019,-58396 -13702,-68883.2 v -400000 l 13702,-68883.2 39019,-58396 58396,-39019.2 68883,-13701.6 h 360000 l 68883,13701.6 58396,39019.2 39019,58396 13702,68883.2 z"
     id="path1080" />
  <g
     id="g1084"
     style="fill:#000000;fill-opacity:0;stroke:#000000;stroke-width:0;stroke-linecap:round;stroke-linejoin:round;stroke-opacity:1" />
  <path
     style="fill:#000000;fill-opacity:1;fill-rule:evenodd;stroke:#000000;stroke-width:0.8;stroke-linecap:round;stroke-linejoin:round;stroke-opacity:1"
     d="m 10307381,11690095 -12179,61230 -34684,51907 -51907,34684 -61230,12179 h -320000 l -61229.6,-12179 -51907.2,-34684 -34684,-51907 -12179.2,-61230 v -440000 l 12179.2,-61230 34684,-51907 51907.2,-34684 61229.6,-12179 h 320000 l 61230,12179 51907,34684 34684,51907 12179,61230 z"
     id="path1086" />
  <path
     style="fill:#000000;fill-opacity:1;fill-rule:evenodd;stroke:#000000;stroke-width:0.8;stroke-linecap:round;stroke-linejoin:round;stroke-opacity:1"
     d="m 8657381,11690095 -12179.2,61230 -34684,51907 -51907.2,34684 -61229.6,12179 h -320000 l -61229.6,-12179 -51907.2,-34684 -34684,-51907 -12179.2,-61230 v -440000 l 12179.2,-61230 34684,-51907 51907.2,-34684 61229.6,-12179 h 320000 l 61229.6,12179 51907.2,34684 34684,51907 12179.2,61230 z"
     id="path1088" />
  <g
     id="g1092"
     style="fill:#000000;fill-opacity:0;stroke:#000000;stroke-width:0;stroke-linecap:round;stroke-linejoin:round;stroke-opacity:1" />
  <path
     style="fill:#000000;fill-opacity:1;fill-rule:evenodd;stroke:#000000;stroke-width:0.8;stroke-linecap:round;stroke-linejoin:round;stroke-opacity:1"
     d="m 28976381,4959095 -12179,61229.6 -34684,51907.2 -51907,34684 -61230,12179.2 h -320000 l -61230,-12179.2 -51907,-34684 -34684,-51907.2 -12179,-61229.6 v -440000 l 12179,-61229.6 34684,-51907.2 51907,-34684 61230,-12179.2 h 320000 l 61230,12179.2 51907,34684 34684,51907.2 12179,61229.6 z"
     id="path1094" />
  <path
     style="fill:#000000;fill-opacity:1;fill-rule:evenodd;stroke:#000000;stroke-width:0.8;stroke-linecap:round;stroke-linejoin:round;stroke-opacity:1"
     d="m 27326381,4959095 -12179,61229.6 -34684,51907.2 -51907,34684 -61230,12179.2 h -320000 l -61230,-12179.2 -51907,-34684 -34684,-51907.2 -12179,-61229.6 v -440000 l 12179,-61229.6 34684,-51907.2 51907,-34684 61230,-12179.2 h 320000 l 61230,12179.2 51907,34684 34684,51907.2 12179,61229.6 z"
     id="path1096" />
  <g
     id="g1100"
     style="fill:#000000;fill-opacity:0;stroke:#000000;stroke-width:0;stroke-linecap:round;stroke-linejoin:round;stroke-opacity:1" />
  <path
     style="fill:#000000;fill-opacity:1;fill-rule:evenodd;stroke:#000000;stroke-width:0.8;stroke-linecap:round;stroke-linejoin:round;stroke-opacity:1"
     d="m 11446381,11250095 12179,-61230 34684,-51907 51907,-34684 61230,-12179 h 320000 l 61230,12179 51907,34684 34684,51907 12179,61230 v 440000 l -12179,61230 -34684,51907 -51907,34684 -61230,12179 h -320000 l -61230,-12179 -51907,-34684 -34684,-51907 -12179,-61230 z"
     id="path1102" />
  <path
     style="fill:#000000;fill-opacity:1;fill-rule:evenodd;stroke:#000000;stroke-width:0.8;stroke-linecap:round;stroke-linejoin:round;stroke-opacity:1"
     d="m 13096381,11250095 12179,-61230 34684,-51907 51907,-34684 61230,-12179 h 320000 l 61230,12179 51907,34684 34684,51907 12179,61230 v 440000 l -12179,61230 -34684,51907 -51907,34684 -61230,12179 h -320000 l -61230,-12179 -51907,-34684 -34684,-51907 -12179,-61230 z"
     id="path1104" />
  <g
     id="g1108"
     style="fill:#000000;fill-opacity:0;stroke:#000000;stroke-width:0;stroke-linecap:round;stroke-linejoin:round;stroke-opacity:1" />
  <g
     id="g1110"
     style="fill:#000000;fill-opacity:0;stroke:#000000;stroke-width:0;stroke-linecap:round;stroke-linejoin:round;stroke-opacity:1" />
  <g
     id="g1112"
     style="fill:#000000;fill-opacity:0;stroke:#000000;stroke-width:0;stroke-linecap:round;stroke-linejoin:round;stroke-opacity:1" />
  <metadata
     id="metadata1730">
    <rdf:RDF>
      <cc:Work
         rdf:about="">
        <dc:title>SVG Picture created as AutoFeeder_Drum-type-F_Paste.svg date 2023/12/10 11:57:25 </dc:title>
      </cc:Work>
    </rdf:RDF>
  </metadata>
</svg>
