<?xml version="1.0" standalone="no"?>
 <!DOCTYPE svg PUBLIC "-//W3C//DTD SVG 1.1//EN" 
 "http://www.w3.org/Graphics/SVG/1.1/DTD/svg11.dtd"> 
<svg
  xmlns:svg="http://www.w3.org/2000/svg"
  xmlns="http://www.w3.org/2000/svg"
  xmlns:xlink="http://www.w3.org/1999/xlink"
  version="1.1"
  width="3.647440cm" height="8.280400cm" viewBox="0 0 36474400 82804000">
<title>SVG Picture created as AutoFeeder_Drum-type-F_Paste.svg date 2023/12/10 11:57:25 </title>
  <desc>Picture generated by PCBNEW </desc>
<g style="fill:#000000; fill-opacity:1.000000;stroke:#000000; stroke-opacity:1.000000;
stroke-linecap:round; stroke-linejoin:round;"
 transform="translate(0 0) scale(1 1)">
</g>
<g style="fill:#000000; fill-opacity:0.0; 
stroke:#000000; stroke-width:0.000000; stroke-opacity:1; 
stroke-linecap:round; stroke-linejoin:round;">
<g >
</g>
<g style="fill:#000000; fill-opacity:0.0; 
stroke:#000000; stroke-width:1.000000; stroke-opacity:1; 
stroke-linecap:round; stroke-linejoin:round;">
</g>
<g style="fill:#000000; fill-opacity:1.0; 
stroke:#000000; stroke-width:1.000000; stroke-opacity:1; 
stroke-linecap:round; stroke-linejoin:round;">
<path style="fill:#000000; fill-opacity:1.0; 
stroke:#000000; stroke-width:1.000000; stroke-opacity:1; 
stroke-linecap:round; stroke-linejoin:round;fill-rule:evenodd;"
d="M 24906381.000000,42503095.000000
24992485.000000,42520222.000000
25065480.000000,42568996.000000
25114254.000000,42641991.000000
25131381.000000,42728095.000000
25131381.000000,43178095.000000
25114254.000000,43264199.000000
25065480.000000,43337194.000000
24992485.000000,43385968.000000
24906381.000000,43403095.000000
24406381.000000,43403095.000000
24320277.000000,43385968.000000
24247282.000000,43337194.000000
24198508.000000,43264199.000000
24181381.000000,43178095.000000
24181381.000000,42728095.000000
24198508.000000,42641991.000000
24247282.000000,42568996.000000
24320277.000000,42520222.000000
24406381.000000,42503095.000000
Z" /> 
<path style="fill:#000000; fill-opacity:1.0; 
stroke:#000000; stroke-width:1.000000; stroke-opacity:1; 
stroke-linecap:round; stroke-linejoin:round;fill-rule:evenodd;"
d="M 24906381.000000,44053095.000000
24992485.000000,44070222.000000
25065480.000000,44118996.000000
25114254.000000,44191991.000000
25131381.000000,44278095.000000
25131381.000000,44728095.000000
25114254.000000,44814199.000000
25065480.000000,44887194.000000
24992485.000000,44935968.000000
24906381.000000,44953095.000000
24406381.000000,44953095.000000
24320277.000000,44935968.000000
24247282.000000,44887194.000000
24198508.000000,44814199.000000
24181381.000000,44728095.000000
24181381.000000,44278095.000000
24198508.000000,44191991.000000
24247282.000000,44118996.000000
24320277.000000,44070222.000000
24406381.000000,44053095.000000
Z" /> 
</g>
<g >
</g>
<g style="fill:#000000; fill-opacity:1.0; 
stroke:#000000; stroke-width:1.000000; stroke-opacity:1; 
stroke-linecap:round; stroke-linejoin:round;">
<path style="fill:#000000; fill-opacity:1.0; 
stroke:#000000; stroke-width:1.000000; stroke-opacity:1; 
stroke-linecap:round; stroke-linejoin:round;fill-rule:evenodd;"
d="M 22071381.000000,20229095.000000
22054254.000000,20315199.000000
22005480.000000,20388194.000000
21932485.000000,20436968.000000
21846381.000000,20454095.000000
21396381.000000,20454095.000000
21310277.000000,20436968.000000
21237282.000000,20388194.000000
21188508.000000,20315199.000000
21171381.000000,20229095.000000
21171381.000000,19729095.000000
21188508.000000,19642991.000000
21237282.000000,19569996.000000
21310277.000000,19521222.000000
21396381.000000,19504095.000000
21846381.000000,19504095.000000
21932485.000000,19521222.000000
22005480.000000,19569996.000000
22054254.000000,19642991.000000
22071381.000000,19729095.000000
Z" /> 
<path style="fill:#000000; fill-opacity:1.0; 
stroke:#000000; stroke-width:1.000000; stroke-opacity:1; 
stroke-linecap:round; stroke-linejoin:round;fill-rule:evenodd;"
d="M 20521381.000000,20229095.000000
20504254.000000,20315199.000000
20455480.000000,20388194.000000
20382485.000000,20436968.000000
20296381.000000,20454095.000000
19846381.000000,20454095.000000
19760277.000000,20436968.000000
19687282.000000,20388194.000000
19638508.000000,20315199.000000
19621381.000000,20229095.000000
19621381.000000,19729095.000000
19638508.000000,19642991.000000
19687282.000000,19569996.000000
19760277.000000,19521222.000000
19846381.000000,19504095.000000
20296381.000000,19504095.000000
20382485.000000,19521222.000000
20455480.000000,19569996.000000
20504254.000000,19642991.000000
20521381.000000,19729095.000000
Z" /> 
</g>
<g >
</g>
<g style="fill:#000000; fill-opacity:1.0; 
stroke:#000000; stroke-width:1.000000; stroke-opacity:1; 
stroke-linecap:round; stroke-linejoin:round;">
<path style="fill:#000000; fill-opacity:1.0; 
stroke:#000000; stroke-width:1.000000; stroke-opacity:1; 
stroke-linecap:round; stroke-linejoin:round;fill-rule:evenodd;"
d="M 30416381.000000,6242095.000000
30431605.000000,6165558.000000
30474960.000000,6100674.000000
30539844.000000,6057319.000000
30616381.000000,6042095.000000
31016381.000000,6042095.000000
31092918.000000,6057319.000000
31157802.000000,6100674.000000
31201157.000000,6165558.000000
31216381.000000,6242095.000000
31216381.000000,6792095.000000
31201157.000000,6868632.000000
31157802.000000,6933516.000000
31092918.000000,6976871.000000
31016381.000000,6992095.000000
30616381.000000,6992095.000000
30539844.000000,6976871.000000
30474960.000000,6933516.000000
30431605.000000,6868632.000000
30416381.000000,6792095.000000
Z" /> 
<path style="fill:#000000; fill-opacity:1.0; 
stroke:#000000; stroke-width:1.000000; stroke-opacity:1; 
stroke-linecap:round; stroke-linejoin:round;fill-rule:evenodd;"
d="M 32066381.000000,6242095.000000
32081605.000000,6165558.000000
32124960.000000,6100674.000000
32189844.000000,6057319.000000
32266381.000000,6042095.000000
32666381.000000,6042095.000000
32742918.000000,6057319.000000
32807802.000000,6100674.000000
32851157.000000,6165558.000000
32866381.000000,6242095.000000
32866381.000000,6792095.000000
32851157.000000,6868632.000000
32807802.000000,6933516.000000
32742918.000000,6976871.000000
32666381.000000,6992095.000000
32266381.000000,6992095.000000
32189844.000000,6976871.000000
32124960.000000,6933516.000000
32081605.000000,6868632.000000
32066381.000000,6792095.000000
Z" /> 
</g>
<g >
</g>
<g style="fill:#000000; fill-opacity:1.0; 
stroke:#000000; stroke-width:1.000000; stroke-opacity:1; 
stroke-linecap:round; stroke-linejoin:round;">
<path style="fill:#000000; fill-opacity:1.0; 
stroke:#000000; stroke-width:1.000000; stroke-opacity:1; 
stroke-linecap:round; stroke-linejoin:round;fill-rule:evenodd;"
d="M 8855381.000000,17599095.000000
8874411.000000,17503424.000000
8928604.000000,17422318.000000
9009710.000000,17368125.000000
9105381.000000,17349095.000000
9605381.000000,17349095.000000
9701052.000000,17368125.000000
9782158.000000,17422318.000000
9836351.000000,17503424.000000
9855381.000000,17599095.000000
9855381.000000,18549095.000000
9836351.000000,18644766.000000
9782158.000000,18725872.000000
9701052.000000,18780065.000000
9605381.000000,18799095.000000
9105381.000000,18799095.000000
9009710.000000,18780065.000000
8928604.000000,18725872.000000
8874411.000000,18644766.000000
8855381.000000,18549095.000000
Z" /> 
<path style="fill:#000000; fill-opacity:1.0; 
stroke:#000000; stroke-width:1.000000; stroke-opacity:1; 
stroke-linecap:round; stroke-linejoin:round;fill-rule:evenodd;"
d="M 10755381.000000,17599095.000000
10774411.000000,17503424.000000
10828604.000000,17422318.000000
10909710.000000,17368125.000000
11005381.000000,17349095.000000
11505381.000000,17349095.000000
11601052.000000,17368125.000000
11682158.000000,17422318.000000
11736351.000000,17503424.000000
11755381.000000,17599095.000000
11755381.000000,18549095.000000
11736351.000000,18644766.000000
11682158.000000,18725872.000000
11601052.000000,18780065.000000
11505381.000000,18799095.000000
11005381.000000,18799095.000000
10909710.000000,18780065.000000
10828604.000000,18725872.000000
10774411.000000,18644766.000000
10755381.000000,18549095.000000
Z" /> 
</g>
<g >
</g>
<g style="fill:#000000; fill-opacity:1.0; 
stroke:#000000; stroke-width:1.000000; stroke-opacity:1; 
stroke-linecap:round; stroke-linejoin:round;">
<path style="fill:#000000; fill-opacity:1.0; 
stroke:#000000; stroke-width:1.000000; stroke-opacity:1; 
stroke-linecap:round; stroke-linejoin:round;fill-rule:evenodd;"
d="M 31281381.000000,8848095.000000
31357918.000000,8863319.000000
31422802.000000,8906674.000000
31466157.000000,8971558.000000
31481381.000000,9048095.000000
31481381.000000,9448095.000000
31466157.000000,9524632.000000
31422802.000000,9589516.000000
31357918.000000,9632871.000000
31281381.000000,9648095.000000
30731381.000000,9648095.000000
30654844.000000,9632871.000000
30589960.000000,9589516.000000
30546605.000000,9524632.000000
30531381.000000,9448095.000000
30531381.000000,9048095.000000
30546605.000000,8971558.000000
30589960.000000,8906674.000000
30654844.000000,8863319.000000
30731381.000000,8848095.000000
Z" /> 
<path style="fill:#000000; fill-opacity:1.0; 
stroke:#000000; stroke-width:1.000000; stroke-opacity:1; 
stroke-linecap:round; stroke-linejoin:round;fill-rule:evenodd;"
d="M 31281381.000000,10498095.000000
31357918.000000,10513319.000000
31422802.000000,10556674.000000
31466157.000000,10621558.000000
31481381.000000,10698095.000000
31481381.000000,11098095.000000
31466157.000000,11174632.000000
31422802.000000,11239516.000000
31357918.000000,11282871.000000
31281381.000000,11298095.000000
30731381.000000,11298095.000000
30654844.000000,11282871.000000
30589960.000000,11239516.000000
30546605.000000,11174632.000000
30531381.000000,11098095.000000
30531381.000000,10698095.000000
30546605.000000,10621558.000000
30589960.000000,10556674.000000
30654844.000000,10513319.000000
30731381.000000,10498095.000000
Z" /> 
</g>
<g >
</g>
<g style="fill:#000000; fill-opacity:1.0; 
stroke:#000000; stroke-width:1.000000; stroke-opacity:1; 
stroke-linecap:round; stroke-linejoin:round;">
<path style="fill:#000000; fill-opacity:1.0; 
stroke:#000000; stroke-width:1.000000; stroke-opacity:1; 
stroke-linecap:round; stroke-linejoin:round;fill-rule:evenodd;"
d="M 7151381.000000,17103095.000000
7227918.000000,17118319.000000
7292802.000000,17161674.000000
7336157.000000,17226558.000000
7351381.000000,17303095.000000
7351381.000000,17703095.000000
7336157.000000,17779632.000000
7292802.000000,17844516.000000
7227918.000000,17887871.000000
7151381.000000,17903095.000000
6601381.000000,17903095.000000
6524844.000000,17887871.000000
6459960.000000,17844516.000000
6416605.000000,17779632.000000
6401381.000000,17703095.000000
6401381.000000,17303095.000000
6416605.000000,17226558.000000
6459960.000000,17161674.000000
6524844.000000,17118319.000000
6601381.000000,17103095.000000
Z" /> 
<path style="fill:#000000; fill-opacity:1.0; 
stroke:#000000; stroke-width:1.000000; stroke-opacity:1; 
stroke-linecap:round; stroke-linejoin:round;fill-rule:evenodd;"
d="M 7151381.000000,18753095.000000
7227918.000000,18768319.000000
7292802.000000,18811674.000000
7336157.000000,18876558.000000
7351381.000000,18953095.000000
7351381.000000,19353095.000000
7336157.000000,19429632.000000
7292802.000000,19494516.000000
7227918.000000,19537871.000000
7151381.000000,19553095.000000
6601381.000000,19553095.000000
6524844.000000,19537871.000000
6459960.000000,19494516.000000
6416605.000000,19429632.000000
6401381.000000,19353095.000000
6401381.000000,18953095.000000
6416605.000000,18876558.000000
6459960.000000,18811674.000000
6524844.000000,18768319.000000
6601381.000000,18753095.000000
Z" /> 
</g>
<g >
</g>
<g style="fill:#000000; fill-opacity:1.0; 
stroke:#000000; stroke-width:1.000000; stroke-opacity:1; 
stroke-linecap:round; stroke-linejoin:round;">
<path style="fill:#000000; fill-opacity:1.0; 
stroke:#000000; stroke-width:1.000000; stroke-opacity:1; 
stroke-linecap:round; stroke-linejoin:round;fill-rule:evenodd;"
d="M 22866381.000000,47938095.000000
23266381.000000,47938095.000000
23266381.000000,48588095.000000
22866381.000000,48588095.000000
Z" /> 
<path style="fill:#000000; fill-opacity:1.0; 
stroke:#000000; stroke-width:1.000000; stroke-opacity:1; 
stroke-linecap:round; stroke-linejoin:round;fill-rule:evenodd;"
d="M 23626381.000000,47938095.000000
24026381.000000,47938095.000000
24026381.000000,48588095.000000
23626381.000000,48588095.000000
Z" /> 
<path style="fill:#000000; fill-opacity:1.0; 
stroke:#000000; stroke-width:1.000000; stroke-opacity:1; 
stroke-linecap:round; stroke-linejoin:round;fill-rule:evenodd;"
d="M 23626381.000000,46938095.000000
24026381.000000,46938095.000000
24026381.000000,47588095.000000
23626381.000000,47588095.000000
Z" /> 
<path style="fill:#000000; fill-opacity:1.0; 
stroke:#000000; stroke-width:1.000000; stroke-opacity:1; 
stroke-linecap:round; stroke-linejoin:round;fill-rule:evenodd;"
d="M 22866381.000000,46938095.000000
23266381.000000,46938095.000000
23266381.000000,47588095.000000
22866381.000000,47588095.000000
Z" /> 
</g>
<g >
</g>
<g style="fill:#000000; fill-opacity:1.0; 
stroke:#000000; stroke-width:1.000000; stroke-opacity:1; 
stroke-linecap:round; stroke-linejoin:round;">
<path style="fill:#000000; fill-opacity:1.0; 
stroke:#000000; stroke-width:1.000000; stroke-opacity:1; 
stroke-linecap:round; stroke-linejoin:round;fill-rule:evenodd;"
d="M 24381381.000000,38603095.000000
24304844.000000,38587871.000000
24239960.000000,38544516.000000
24196605.000000,38479632.000000
24181381.000000,38403095.000000
24181381.000000,38003095.000000
24196605.000000,37926558.000000
24239960.000000,37861674.000000
24304844.000000,37818319.000000
24381381.000000,37803095.000000
24931381.000000,37803095.000000
25007918.000000,37818319.000000
25072802.000000,37861674.000000
25116157.000000,37926558.000000
25131381.000000,38003095.000000
25131381.000000,38403095.000000
25116157.000000,38479632.000000
25072802.000000,38544516.000000
25007918.000000,38587871.000000
24931381.000000,38603095.000000
Z" /> 
<path style="fill:#000000; fill-opacity:1.0; 
stroke:#000000; stroke-width:1.000000; stroke-opacity:1; 
stroke-linecap:round; stroke-linejoin:round;fill-rule:evenodd;"
d="M 24381381.000000,36953095.000000
24304844.000000,36937871.000000
24239960.000000,36894516.000000
24196605.000000,36829632.000000
24181381.000000,36753095.000000
24181381.000000,36353095.000000
24196605.000000,36276558.000000
24239960.000000,36211674.000000
24304844.000000,36168319.000000
24381381.000000,36153095.000000
24931381.000000,36153095.000000
25007918.000000,36168319.000000
25072802.000000,36211674.000000
25116157.000000,36276558.000000
25131381.000000,36353095.000000
25131381.000000,36753095.000000
25116157.000000,36829632.000000
25072802.000000,36894516.000000
25007918.000000,36937871.000000
24931381.000000,36953095.000000
Z" /> 
</g>
<g >
</g>
<g >
</g>
<g style="fill:#000000; fill-opacity:1.0; 
stroke:#000000; stroke-width:1.000000; stroke-opacity:1; 
stroke-linecap:round; stroke-linejoin:round;">
<path style="fill:#000000; fill-opacity:1.0; 
stroke:#000000; stroke-width:1.000000; stroke-opacity:1; 
stroke-linecap:round; stroke-linejoin:round;fill-rule:evenodd;"
d="M 24611381.000000,40828095.000000
24596157.000000,40904632.000000
24552802.000000,40969516.000000
24487918.000000,41012871.000000
24411381.000000,41028095.000000
24011381.000000,41028095.000000
23934844.000000,41012871.000000
23869960.000000,40969516.000000
23826605.000000,40904632.000000
23811381.000000,40828095.000000
23811381.000000,40278095.000000
23826605.000000,40201558.000000
23869960.000000,40136674.000000
23934844.000000,40093319.000000
24011381.000000,40078095.000000
24411381.000000,40078095.000000
24487918.000000,40093319.000000
24552802.000000,40136674.000000
24596157.000000,40201558.000000
24611381.000000,40278095.000000
Z" /> 
<path style="fill:#000000; fill-opacity:1.0; 
stroke:#000000; stroke-width:1.000000; stroke-opacity:1; 
stroke-linecap:round; stroke-linejoin:round;fill-rule:evenodd;"
d="M 22961381.000000,40828095.000000
22946157.000000,40904632.000000
22902802.000000,40969516.000000
22837918.000000,41012871.000000
22761381.000000,41028095.000000
22361381.000000,41028095.000000
22284844.000000,41012871.000000
22219960.000000,40969516.000000
22176605.000000,40904632.000000
22161381.000000,40828095.000000
22161381.000000,40278095.000000
22176605.000000,40201558.000000
22219960.000000,40136674.000000
22284844.000000,40093319.000000
22361381.000000,40078095.000000
22761381.000000,40078095.000000
22837918.000000,40093319.000000
22902802.000000,40136674.000000
22946157.000000,40201558.000000
22961381.000000,40278095.000000
Z" /> 
</g>
<g >
</g>
<g >
</g>
<g style="fill:#000000; fill-opacity:1.0; 
stroke:#000000; stroke-width:1.000000; stroke-opacity:1; 
stroke-linecap:round; stroke-linejoin:round;">
<path style="fill:#000000; fill-opacity:1.0; 
stroke:#000000; stroke-width:1.000000; stroke-opacity:1; 
stroke-linecap:round; stroke-linejoin:round;fill-rule:evenodd;"
d="M 29056381.000000,9586095.000000
29041157.000000,9662632.000000
28997802.000000,9727516.000000
28932918.000000,9770871.000000
28856381.000000,9786095.000000
28456381.000000,9786095.000000
28379844.000000,9770871.000000
28314960.000000,9727516.000000
28271605.000000,9662632.000000
28256381.000000,9586095.000000
28256381.000000,9036095.000000
28271605.000000,8959558.000000
28314960.000000,8894674.000000
28379844.000000,8851319.000000
28456381.000000,8836095.000000
28856381.000000,8836095.000000
28932918.000000,8851319.000000
28997802.000000,8894674.000000
29041157.000000,8959558.000000
29056381.000000,9036095.000000
Z" /> 
<path style="fill:#000000; fill-opacity:1.0; 
stroke:#000000; stroke-width:1.000000; stroke-opacity:1; 
stroke-linecap:round; stroke-linejoin:round;fill-rule:evenodd;"
d="M 27406381.000000,9586095.000000
27391157.000000,9662632.000000
27347802.000000,9727516.000000
27282918.000000,9770871.000000
27206381.000000,9786095.000000
26806381.000000,9786095.000000
26729844.000000,9770871.000000
26664960.000000,9727516.000000
26621605.000000,9662632.000000
26606381.000000,9586095.000000
26606381.000000,9036095.000000
26621605.000000,8959558.000000
26664960.000000,8894674.000000
26729844.000000,8851319.000000
26806381.000000,8836095.000000
27206381.000000,8836095.000000
27282918.000000,8851319.000000
27347802.000000,8894674.000000
27391157.000000,8959558.000000
27406381.000000,9036095.000000
Z" /> 
</g>
<g >
</g>
<g >
</g>
<g >
</g>
<g style="fill:#000000; fill-opacity:1.0; 
stroke:#000000; stroke-width:1.000000; stroke-opacity:1; 
stroke-linecap:round; stroke-linejoin:round;">
<path style="fill:#000000; fill-opacity:1.0; 
stroke:#000000; stroke-width:1.000000; stroke-opacity:1; 
stroke-linecap:round; stroke-linejoin:round;fill-rule:evenodd;"
d="M 24806381.000000,65678095.000000
24863784.000000,65689513.000000
24912447.000000,65722029.000000
24944963.000000,65770692.000000
24956381.000000,65828095.000000
24956381.000000,67478095.000000
24944963.000000,67535498.000000
24912447.000000,67584161.000000
24863784.000000,67616677.000000
24806381.000000,67628095.000000
24506381.000000,67628095.000000
24448978.000000,67616677.000000
24400315.000000,67584161.000000
24367799.000000,67535498.000000
24356381.000000,67478095.000000
24356381.000000,65828095.000000
24367799.000000,65770692.000000
24400315.000000,65722029.000000
24448978.000000,65689513.000000
24506381.000000,65678095.000000
Z" /> 
<path style="fill:#000000; fill-opacity:1.0; 
stroke:#000000; stroke-width:1.000000; stroke-opacity:1; 
stroke-linecap:round; stroke-linejoin:round;fill-rule:evenodd;"
d="M 23536381.000000,65678095.000000
23593784.000000,65689513.000000
23642447.000000,65722029.000000
23674963.000000,65770692.000000
23686381.000000,65828095.000000
23686381.000000,67478095.000000
23674963.000000,67535498.000000
23642447.000000,67584161.000000
23593784.000000,67616677.000000
23536381.000000,67628095.000000
23236381.000000,67628095.000000
23178978.000000,67616677.000000
23130315.000000,67584161.000000
23097799.000000,67535498.000000
23086381.000000,67478095.000000
23086381.000000,65828095.000000
23097799.000000,65770692.000000
23130315.000000,65722029.000000
23178978.000000,65689513.000000
23236381.000000,65678095.000000
Z" /> 
<path style="fill:#000000; fill-opacity:1.0; 
stroke:#000000; stroke-width:1.000000; stroke-opacity:1; 
stroke-linecap:round; stroke-linejoin:round;fill-rule:evenodd;"
d="M 22266381.000000,65678095.000000
22323784.000000,65689513.000000
22372447.000000,65722029.000000
22404963.000000,65770692.000000
22416381.000000,65828095.000000
22416381.000000,67478095.000000
22404963.000000,67535498.000000
22372447.000000,67584161.000000
22323784.000000,67616677.000000
22266381.000000,67628095.000000
21966381.000000,67628095.000000
21908978.000000,67616677.000000
21860315.000000,67584161.000000
21827799.000000,67535498.000000
21816381.000000,67478095.000000
21816381.000000,65828095.000000
21827799.000000,65770692.000000
21860315.000000,65722029.000000
21908978.000000,65689513.000000
21966381.000000,65678095.000000
Z" /> 
<path style="fill:#000000; fill-opacity:1.0; 
stroke:#000000; stroke-width:1.000000; stroke-opacity:1; 
stroke-linecap:round; stroke-linejoin:round;fill-rule:evenodd;"
d="M 20996381.000000,65678095.000000
21053784.000000,65689513.000000
21102447.000000,65722029.000000
21134963.000000,65770692.000000
21146381.000000,65828095.000000
21146381.000000,67478095.000000
21134963.000000,67535498.000000
21102447.000000,67584161.000000
21053784.000000,67616677.000000
20996381.000000,67628095.000000
20696381.000000,67628095.000000
20638978.000000,67616677.000000
20590315.000000,67584161.000000
20557799.000000,67535498.000000
20546381.000000,67478095.000000
20546381.000000,65828095.000000
20557799.000000,65770692.000000
20590315.000000,65722029.000000
20638978.000000,65689513.000000
20696381.000000,65678095.000000
Z" /> 
<path style="fill:#000000; fill-opacity:1.0; 
stroke:#000000; stroke-width:1.000000; stroke-opacity:1; 
stroke-linecap:round; stroke-linejoin:round;fill-rule:evenodd;"
d="M 20996381.000000,70628095.000000
21053784.000000,70639513.000000
21102447.000000,70672029.000000
21134963.000000,70720692.000000
21146381.000000,70778095.000000
21146381.000000,72428095.000000
21134963.000000,72485498.000000
21102447.000000,72534161.000000
21053784.000000,72566677.000000
20996381.000000,72578095.000000
20696381.000000,72578095.000000
20638978.000000,72566677.000000
20590315.000000,72534161.000000
20557799.000000,72485498.000000
20546381.000000,72428095.000000
20546381.000000,70778095.000000
20557799.000000,70720692.000000
20590315.000000,70672029.000000
20638978.000000,70639513.000000
20696381.000000,70628095.000000
Z" /> 
<path style="fill:#000000; fill-opacity:1.0; 
stroke:#000000; stroke-width:1.000000; stroke-opacity:1; 
stroke-linecap:round; stroke-linejoin:round;fill-rule:evenodd;"
d="M 22266381.000000,70628095.000000
22323784.000000,70639513.000000
22372447.000000,70672029.000000
22404963.000000,70720692.000000
22416381.000000,70778095.000000
22416381.000000,72428095.000000
22404963.000000,72485498.000000
22372447.000000,72534161.000000
22323784.000000,72566677.000000
22266381.000000,72578095.000000
21966381.000000,72578095.000000
21908978.000000,72566677.000000
21860315.000000,72534161.000000
21827799.000000,72485498.000000
21816381.000000,72428095.000000
21816381.000000,70778095.000000
21827799.000000,70720692.000000
21860315.000000,70672029.000000
21908978.000000,70639513.000000
21966381.000000,70628095.000000
Z" /> 
<path style="fill:#000000; fill-opacity:1.0; 
stroke:#000000; stroke-width:1.000000; stroke-opacity:1; 
stroke-linecap:round; stroke-linejoin:round;fill-rule:evenodd;"
d="M 23536381.000000,70628095.000000
23593784.000000,70639513.000000
23642447.000000,70672029.000000
23674963.000000,70720692.000000
23686381.000000,70778095.000000
23686381.000000,72428095.000000
23674963.000000,72485498.000000
23642447.000000,72534161.000000
23593784.000000,72566677.000000
23536381.000000,72578095.000000
23236381.000000,72578095.000000
23178978.000000,72566677.000000
23130315.000000,72534161.000000
23097799.000000,72485498.000000
23086381.000000,72428095.000000
23086381.000000,70778095.000000
23097799.000000,70720692.000000
23130315.000000,70672029.000000
23178978.000000,70639513.000000
23236381.000000,70628095.000000
Z" /> 
<path style="fill:#000000; fill-opacity:1.0; 
stroke:#000000; stroke-width:1.000000; stroke-opacity:1; 
stroke-linecap:round; stroke-linejoin:round;fill-rule:evenodd;"
d="M 24806381.000000,70628095.000000
24863784.000000,70639513.000000
24912447.000000,70672029.000000
24944963.000000,70720692.000000
24956381.000000,70778095.000000
24956381.000000,72428095.000000
24944963.000000,72485498.000000
24912447.000000,72534161.000000
24863784.000000,72566677.000000
24806381.000000,72578095.000000
24506381.000000,72578095.000000
24448978.000000,72566677.000000
24400315.000000,72534161.000000
24367799.000000,72485498.000000
24356381.000000,72428095.000000
24356381.000000,70778095.000000
24367799.000000,70720692.000000
24400315.000000,70672029.000000
24448978.000000,70639513.000000
24506381.000000,70628095.000000
Z" /> 
</g>
<g >
</g>
<g style="fill:#000000; fill-opacity:1.0; 
stroke:#000000; stroke-width:1.000000; stroke-opacity:1; 
stroke-linecap:round; stroke-linejoin:round;">
<path style="fill:#000000; fill-opacity:1.0; 
stroke:#000000; stroke-width:1.000000; stroke-opacity:1; 
stroke-linecap:round; stroke-linejoin:round;fill-rule:evenodd;"
d="M 34366381.000000,5488095.000000
34766381.000000,5488095.000000
34766381.000000,6138095.000000
34366381.000000,6138095.000000
Z" /> 
<path style="fill:#000000; fill-opacity:1.0; 
stroke:#000000; stroke-width:1.000000; stroke-opacity:1; 
stroke-linecap:round; stroke-linejoin:round;fill-rule:evenodd;"
d="M 35126381.000000,5488095.000000
35526381.000000,5488095.000000
35526381.000000,6138095.000000
35126381.000000,6138095.000000
Z" /> 
<path style="fill:#000000; fill-opacity:1.0; 
stroke:#000000; stroke-width:1.000000; stroke-opacity:1; 
stroke-linecap:round; stroke-linejoin:round;fill-rule:evenodd;"
d="M 35126381.000000,4488095.000000
35526381.000000,4488095.000000
35526381.000000,5138095.000000
35126381.000000,5138095.000000
Z" /> 
<path style="fill:#000000; fill-opacity:1.0; 
stroke:#000000; stroke-width:1.000000; stroke-opacity:1; 
stroke-linecap:round; stroke-linejoin:round;fill-rule:evenodd;"
d="M 34366381.000000,4488095.000000
34766381.000000,4488095.000000
34766381.000000,5138095.000000
34366381.000000,5138095.000000
Z" /> 
</g>
<g >
</g>
<g >
</g>
<g >
</g>
<g style="fill:#000000; fill-opacity:1.0; 
stroke:#000000; stroke-width:1.000000; stroke-opacity:1; 
stroke-linecap:round; stroke-linejoin:round;">
<path style="fill:#000000; fill-opacity:1.0; 
stroke:#000000; stroke-width:1.000000; stroke-opacity:1; 
stroke-linecap:round; stroke-linejoin:round;fill-rule:evenodd;"
d="M 9586381.000000,16318095.000000
9528978.000000,16306677.000000
9480315.000000,16274161.000000
9447799.000000,16225498.000000
9436381.000000,16168095.000000
9436381.000000,15143095.000000
9447799.000000,15085692.000000
9480315.000000,15037029.000000
9528978.000000,15004513.000000
9586381.000000,14993095.000000
9886381.000000,14993095.000000
9943784.000000,15004513.000000
9992447.000000,15037029.000000
10024963.000000,15085692.000000
10036381.000000,15143095.000000
10036381.000000,16168095.000000
10024963.000000,16225498.000000
9992447.000000,16274161.000000
9943784.000000,16306677.000000
9886381.000000,16318095.000000
Z" /> 
<path style="fill:#000000; fill-opacity:1.0; 
stroke:#000000; stroke-width:1.000000; stroke-opacity:1; 
stroke-linecap:round; stroke-linejoin:round;fill-rule:evenodd;"
d="M 10536381.000000,16318095.000000
10478978.000000,16306677.000000
10430315.000000,16274161.000000
10397799.000000,16225498.000000
10386381.000000,16168095.000000
10386381.000000,15143095.000000
10397799.000000,15085692.000000
10430315.000000,15037029.000000
10478978.000000,15004513.000000
10536381.000000,14993095.000000
10836381.000000,14993095.000000
10893784.000000,15004513.000000
10942447.000000,15037029.000000
10974963.000000,15085692.000000
10986381.000000,15143095.000000
10986381.000000,16168095.000000
10974963.000000,16225498.000000
10942447.000000,16274161.000000
10893784.000000,16306677.000000
10836381.000000,16318095.000000
Z" /> 
<path style="fill:#000000; fill-opacity:1.0; 
stroke:#000000; stroke-width:1.000000; stroke-opacity:1; 
stroke-linecap:round; stroke-linejoin:round;fill-rule:evenodd;"
d="M 11486381.000000,16318095.000000
11428978.000000,16306677.000000
11380315.000000,16274161.000000
11347799.000000,16225498.000000
11336381.000000,16168095.000000
11336381.000000,15143095.000000
11347799.000000,15085692.000000
11380315.000000,15037029.000000
11428978.000000,15004513.000000
11486381.000000,14993095.000000
11786381.000000,14993095.000000
11843784.000000,15004513.000000
11892447.000000,15037029.000000
11924963.000000,15085692.000000
11936381.000000,15143095.000000
11936381.000000,16168095.000000
11924963.000000,16225498.000000
11892447.000000,16274161.000000
11843784.000000,16306677.000000
11786381.000000,16318095.000000
Z" /> 
<path style="fill:#000000; fill-opacity:1.0; 
stroke:#000000; stroke-width:1.000000; stroke-opacity:1; 
stroke-linecap:round; stroke-linejoin:round;fill-rule:evenodd;"
d="M 11486381.000000,14043095.000000
11428978.000000,14031677.000000
11380315.000000,13999161.000000
11347799.000000,13950498.000000
11336381.000000,13893095.000000
11336381.000000,12868095.000000
11347799.000000,12810692.000000
11380315.000000,12762029.000000
11428978.000000,12729513.000000
11486381.000000,12718095.000000
11786381.000000,12718095.000000
11843784.000000,12729513.000000
11892447.000000,12762029.000000
11924963.000000,12810692.000000
11936381.000000,12868095.000000
11936381.000000,13893095.000000
11924963.000000,13950498.000000
11892447.000000,13999161.000000
11843784.000000,14031677.000000
11786381.000000,14043095.000000
Z" /> 
<path style="fill:#000000; fill-opacity:1.0; 
stroke:#000000; stroke-width:1.000000; stroke-opacity:1; 
stroke-linecap:round; stroke-linejoin:round;fill-rule:evenodd;"
d="M 10536381.000000,14043095.000000
10478978.000000,14031677.000000
10430315.000000,13999161.000000
10397799.000000,13950498.000000
10386381.000000,13893095.000000
10386381.000000,12868095.000000
10397799.000000,12810692.000000
10430315.000000,12762029.000000
10478978.000000,12729513.000000
10536381.000000,12718095.000000
10836381.000000,12718095.000000
10893784.000000,12729513.000000
10942447.000000,12762029.000000
10974963.000000,12810692.000000
10986381.000000,12868095.000000
10986381.000000,13893095.000000
10974963.000000,13950498.000000
10942447.000000,13999161.000000
10893784.000000,14031677.000000
10836381.000000,14043095.000000
Z" /> 
<path style="fill:#000000; fill-opacity:1.0; 
stroke:#000000; stroke-width:1.000000; stroke-opacity:1; 
stroke-linecap:round; stroke-linejoin:round;fill-rule:evenodd;"
d="M 9586381.000000,14043095.000000
9528978.000000,14031677.000000
9480315.000000,13999161.000000
9447799.000000,13950498.000000
9436381.000000,13893095.000000
9436381.000000,12868095.000000
9447799.000000,12810692.000000
9480315.000000,12762029.000000
9528978.000000,12729513.000000
9586381.000000,12718095.000000
9886381.000000,12718095.000000
9943784.000000,12729513.000000
9992447.000000,12762029.000000
10024963.000000,12810692.000000
10036381.000000,12868095.000000
10036381.000000,13893095.000000
10024963.000000,13950498.000000
9992447.000000,13999161.000000
9943784.000000,14031677.000000
9886381.000000,14043095.000000
Z" /> 
</g>
<g >
</g>
<g >
</g>
<g style="fill:#000000; fill-opacity:1.0; 
stroke:#000000; stroke-width:1.000000; stroke-opacity:1; 
stroke-linecap:round; stroke-linejoin:round;">
<path style="fill:#000000; fill-opacity:1.0; 
stroke:#000000; stroke-width:1.000000; stroke-opacity:1; 
stroke-linecap:round; stroke-linejoin:round;fill-rule:evenodd;"
d="M 6601381.000000,16378095.000000
6524844.000000,16362871.000000
6459960.000000,16319516.000000
6416605.000000,16254632.000000
6401381.000000,16178095.000000
6401381.000000,15778095.000000
6416605.000000,15701558.000000
6459960.000000,15636674.000000
6524844.000000,15593319.000000
6601381.000000,15578095.000000
7151381.000000,15578095.000000
7227918.000000,15593319.000000
7292802.000000,15636674.000000
7336157.000000,15701558.000000
7351381.000000,15778095.000000
7351381.000000,16178095.000000
7336157.000000,16254632.000000
7292802.000000,16319516.000000
7227918.000000,16362871.000000
7151381.000000,16378095.000000
Z" /> 
<path style="fill:#000000; fill-opacity:1.0; 
stroke:#000000; stroke-width:1.000000; stroke-opacity:1; 
stroke-linecap:round; stroke-linejoin:round;fill-rule:evenodd;"
d="M 6601381.000000,14728095.000000
6524844.000000,14712871.000000
6459960.000000,14669516.000000
6416605.000000,14604632.000000
6401381.000000,14528095.000000
6401381.000000,14128095.000000
6416605.000000,14051558.000000
6459960.000000,13986674.000000
6524844.000000,13943319.000000
6601381.000000,13928095.000000
7151381.000000,13928095.000000
7227918.000000,13943319.000000
7292802.000000,13986674.000000
7336157.000000,14051558.000000
7351381.000000,14128095.000000
7351381.000000,14528095.000000
7336157.000000,14604632.000000
7292802.000000,14669516.000000
7227918.000000,14712871.000000
7151381.000000,14728095.000000
Z" /> 
</g>
<g >
</g>
<g style="fill:#000000; fill-opacity:1.0; 
stroke:#000000; stroke-width:1.000000; stroke-opacity:1; 
stroke-linecap:round; stroke-linejoin:round;">
<path style="fill:#000000; fill-opacity:1.0; 
stroke:#000000; stroke-width:1.000000; stroke-opacity:1; 
stroke-linecap:round; stroke-linejoin:round;fill-rule:evenodd;"
d="M 12106381.000000,8943095.000000
12806381.000000,8943095.000000
12806381.000000,10143095.000000
12106381.000000,10143095.000000
Z" /> 
<path style="fill:#000000; fill-opacity:1.0; 
stroke:#000000; stroke-width:1.000000; stroke-opacity:1; 
stroke-linecap:round; stroke-linejoin:round;fill-rule:evenodd;"
d="M 10056381.000000,8943095.000000
10816381.000000,8943095.000000
10816381.000000,10143095.000000
10056381.000000,10143095.000000
Z" /> 
<path style="fill:#000000; fill-opacity:1.0; 
stroke:#000000; stroke-width:1.000000; stroke-opacity:1; 
stroke-linecap:round; stroke-linejoin:round;fill-rule:evenodd;"
d="M 8806381.000000,8943095.000000
9606381.000000,8943095.000000
9606381.000000,10143095.000000
8806381.000000,10143095.000000
Z" /> 
<path style="fill:#000000; fill-opacity:1.0; 
stroke:#000000; stroke-width:1.000000; stroke-opacity:1; 
stroke-linecap:round; stroke-linejoin:round;fill-rule:evenodd;"
d="M 11106381.000000,8943095.000000
11806381.000000,8943095.000000
11806381.000000,10143095.000000
11106381.000000,10143095.000000
Z" /> 
<path style="fill:#000000; fill-opacity:1.0; 
stroke:#000000; stroke-width:1.000000; stroke-opacity:1; 
stroke-linecap:round; stroke-linejoin:round;fill-rule:evenodd;"
d="M 13096381.000000,8943095.000000
13856381.000000,8943095.000000
13856381.000000,10143095.000000
13096381.000000,10143095.000000
Z" /> 
<path style="fill:#000000; fill-opacity:1.0; 
stroke:#000000; stroke-width:1.000000; stroke-opacity:1; 
stroke-linecap:round; stroke-linejoin:round;fill-rule:evenodd;"
d="M 14306381.000000,8943095.000000
15106381.000000,8943095.000000
15106381.000000,10143095.000000
14306381.000000,10143095.000000
Z" /> 
</g>
<g >
</g>
<g style="fill:#000000; fill-opacity:1.0; 
stroke:#000000; stroke-width:1.000000; stroke-opacity:1; 
stroke-linecap:round; stroke-linejoin:round;">
<path style="fill:#000000; fill-opacity:1.0; 
stroke:#000000; stroke-width:1.000000; stroke-opacity:1; 
stroke-linecap:round; stroke-linejoin:round;fill-rule:evenodd;"
d="M 23587381.000000,63573095.000000
23606411.000000,63477424.000000
23660604.000000,63396318.000000
23741710.000000,63342125.000000
23837381.000000,63323095.000000
24337381.000000,63323095.000000
24433052.000000,63342125.000000
24514158.000000,63396318.000000
24568351.000000,63477424.000000
24587381.000000,63573095.000000
24587381.000000,64523095.000000
24568351.000000,64618766.000000
24514158.000000,64699872.000000
24433052.000000,64754065.000000
24337381.000000,64773095.000000
23837381.000000,64773095.000000
23741710.000000,64754065.000000
23660604.000000,64699872.000000
23606411.000000,64618766.000000
23587381.000000,64523095.000000
Z" /> 
<path style="fill:#000000; fill-opacity:1.0; 
stroke:#000000; stroke-width:1.000000; stroke-opacity:1; 
stroke-linecap:round; stroke-linejoin:round;fill-rule:evenodd;"
d="M 25487381.000000,63573095.000000
25506411.000000,63477424.000000
25560604.000000,63396318.000000
25641710.000000,63342125.000000
25737381.000000,63323095.000000
26237381.000000,63323095.000000
26333052.000000,63342125.000000
26414158.000000,63396318.000000
26468351.000000,63477424.000000
26487381.000000,63573095.000000
26487381.000000,64523095.000000
26468351.000000,64618766.000000
26414158.000000,64699872.000000
26333052.000000,64754065.000000
26237381.000000,64773095.000000
25737381.000000,64773095.000000
25641710.000000,64754065.000000
25560604.000000,64699872.000000
25506411.000000,64618766.000000
25487381.000000,64523095.000000
Z" /> 
</g>
<g >
</g>
<g style="fill:#000000; fill-opacity:1.0; 
stroke:#000000; stroke-width:1.000000; stroke-opacity:1; 
stroke-linecap:round; stroke-linejoin:round;">
<path style="fill:#000000; fill-opacity:1.0; 
stroke:#000000; stroke-width:1.000000; stroke-opacity:1; 
stroke-linecap:round; stroke-linejoin:round;fill-rule:evenodd;"
d="M 17396381.000000,21988095.000000
17407799.000000,21930692.000000
17440315.000000,21882029.000000
17488978.000000,21849513.000000
17546381.000000,21838095.000000
19196381.000000,21838095.000000
19253784.000000,21849513.000000
19302447.000000,21882029.000000
19334963.000000,21930692.000000
19346381.000000,21988095.000000
19346381.000000,22288095.000000
19334963.000000,22345498.000000
19302447.000000,22394161.000000
19253784.000000,22426677.000000
19196381.000000,22438095.000000
17546381.000000,22438095.000000
17488978.000000,22426677.000000
17440315.000000,22394161.000000
17407799.000000,22345498.000000
17396381.000000,22288095.000000
Z" /> 
<path style="fill:#000000; fill-opacity:1.0; 
stroke:#000000; stroke-width:1.000000; stroke-opacity:1; 
stroke-linecap:round; stroke-linejoin:round;fill-rule:evenodd;"
d="M 17396381.000000,23258095.000000
17407799.000000,23200692.000000
17440315.000000,23152029.000000
17488978.000000,23119513.000000
17546381.000000,23108095.000000
19196381.000000,23108095.000000
19253784.000000,23119513.000000
19302447.000000,23152029.000000
19334963.000000,23200692.000000
19346381.000000,23258095.000000
19346381.000000,23558095.000000
19334963.000000,23615498.000000
19302447.000000,23664161.000000
19253784.000000,23696677.000000
19196381.000000,23708095.000000
17546381.000000,23708095.000000
17488978.000000,23696677.000000
17440315.000000,23664161.000000
17407799.000000,23615498.000000
17396381.000000,23558095.000000
Z" /> 
<path style="fill:#000000; fill-opacity:1.0; 
stroke:#000000; stroke-width:1.000000; stroke-opacity:1; 
stroke-linecap:round; stroke-linejoin:round;fill-rule:evenodd;"
d="M 17396381.000000,24528095.000000
17407799.000000,24470692.000000
17440315.000000,24422029.000000
17488978.000000,24389513.000000
17546381.000000,24378095.000000
19196381.000000,24378095.000000
19253784.000000,24389513.000000
19302447.000000,24422029.000000
19334963.000000,24470692.000000
19346381.000000,24528095.000000
19346381.000000,24828095.000000
19334963.000000,24885498.000000
19302447.000000,24934161.000000
19253784.000000,24966677.000000
19196381.000000,24978095.000000
17546381.000000,24978095.000000
17488978.000000,24966677.000000
17440315.000000,24934161.000000
17407799.000000,24885498.000000
17396381.000000,24828095.000000
Z" /> 
<path style="fill:#000000; fill-opacity:1.0; 
stroke:#000000; stroke-width:1.000000; stroke-opacity:1; 
stroke-linecap:round; stroke-linejoin:round;fill-rule:evenodd;"
d="M 17396381.000000,25798095.000000
17407799.000000,25740692.000000
17440315.000000,25692029.000000
17488978.000000,25659513.000000
17546381.000000,25648095.000000
19196381.000000,25648095.000000
19253784.000000,25659513.000000
19302447.000000,25692029.000000
19334963.000000,25740692.000000
19346381.000000,25798095.000000
19346381.000000,26098095.000000
19334963.000000,26155498.000000
19302447.000000,26204161.000000
19253784.000000,26236677.000000
19196381.000000,26248095.000000
17546381.000000,26248095.000000
17488978.000000,26236677.000000
17440315.000000,26204161.000000
17407799.000000,26155498.000000
17396381.000000,26098095.000000
Z" /> 
<path style="fill:#000000; fill-opacity:1.0; 
stroke:#000000; stroke-width:1.000000; stroke-opacity:1; 
stroke-linecap:round; stroke-linejoin:round;fill-rule:evenodd;"
d="M 17396381.000000,27068095.000000
17407799.000000,27010692.000000
17440315.000000,26962029.000000
17488978.000000,26929513.000000
17546381.000000,26918095.000000
19196381.000000,26918095.000000
19253784.000000,26929513.000000
19302447.000000,26962029.000000
19334963.000000,27010692.000000
19346381.000000,27068095.000000
19346381.000000,27368095.000000
19334963.000000,27425498.000000
19302447.000000,27474161.000000
19253784.000000,27506677.000000
19196381.000000,27518095.000000
17546381.000000,27518095.000000
17488978.000000,27506677.000000
17440315.000000,27474161.000000
17407799.000000,27425498.000000
17396381.000000,27368095.000000
Z" /> 
<path style="fill:#000000; fill-opacity:1.0; 
stroke:#000000; stroke-width:1.000000; stroke-opacity:1; 
stroke-linecap:round; stroke-linejoin:round;fill-rule:evenodd;"
d="M 17396381.000000,28338095.000000
17407799.000000,28280692.000000
17440315.000000,28232029.000000
17488978.000000,28199513.000000
17546381.000000,28188095.000000
19196381.000000,28188095.000000
19253784.000000,28199513.000000
19302447.000000,28232029.000000
19334963.000000,28280692.000000
19346381.000000,28338095.000000
19346381.000000,28638095.000000
19334963.000000,28695498.000000
19302447.000000,28744161.000000
19253784.000000,28776677.000000
19196381.000000,28788095.000000
17546381.000000,28788095.000000
17488978.000000,28776677.000000
17440315.000000,28744161.000000
17407799.000000,28695498.000000
17396381.000000,28638095.000000
Z" /> 
<path style="fill:#000000; fill-opacity:1.0; 
stroke:#000000; stroke-width:1.000000; stroke-opacity:1; 
stroke-linecap:round; stroke-linejoin:round;fill-rule:evenodd;"
d="M 17396381.000000,29608095.000000
17407799.000000,29550692.000000
17440315.000000,29502029.000000
17488978.000000,29469513.000000
17546381.000000,29458095.000000
19196381.000000,29458095.000000
19253784.000000,29469513.000000
19302447.000000,29502029.000000
19334963.000000,29550692.000000
19346381.000000,29608095.000000
19346381.000000,29908095.000000
19334963.000000,29965498.000000
19302447.000000,30014161.000000
19253784.000000,30046677.000000
19196381.000000,30058095.000000
17546381.000000,30058095.000000
17488978.000000,30046677.000000
17440315.000000,30014161.000000
17407799.000000,29965498.000000
17396381.000000,29908095.000000
Z" /> 
<path style="fill:#000000; fill-opacity:1.0; 
stroke:#000000; stroke-width:1.000000; stroke-opacity:1; 
stroke-linecap:round; stroke-linejoin:round;fill-rule:evenodd;"
d="M 22346381.000000,29608095.000000
22357799.000000,29550692.000000
22390315.000000,29502029.000000
22438978.000000,29469513.000000
22496381.000000,29458095.000000
24146381.000000,29458095.000000
24203784.000000,29469513.000000
24252447.000000,29502029.000000
24284963.000000,29550692.000000
24296381.000000,29608095.000000
24296381.000000,29908095.000000
24284963.000000,29965498.000000
24252447.000000,30014161.000000
24203784.000000,30046677.000000
24146381.000000,30058095.000000
22496381.000000,30058095.000000
22438978.000000,30046677.000000
22390315.000000,30014161.000000
22357799.000000,29965498.000000
22346381.000000,29908095.000000
Z" /> 
<path style="fill:#000000; fill-opacity:1.0; 
stroke:#000000; stroke-width:1.000000; stroke-opacity:1; 
stroke-linecap:round; stroke-linejoin:round;fill-rule:evenodd;"
d="M 22346381.000000,28338095.000000
22357799.000000,28280692.000000
22390315.000000,28232029.000000
22438978.000000,28199513.000000
22496381.000000,28188095.000000
24146381.000000,28188095.000000
24203784.000000,28199513.000000
24252447.000000,28232029.000000
24284963.000000,28280692.000000
24296381.000000,28338095.000000
24296381.000000,28638095.000000
24284963.000000,28695498.000000
24252447.000000,28744161.000000
24203784.000000,28776677.000000
24146381.000000,28788095.000000
22496381.000000,28788095.000000
22438978.000000,28776677.000000
22390315.000000,28744161.000000
22357799.000000,28695498.000000
22346381.000000,28638095.000000
Z" /> 
<path style="fill:#000000; fill-opacity:1.0; 
stroke:#000000; stroke-width:1.000000; stroke-opacity:1; 
stroke-linecap:round; stroke-linejoin:round;fill-rule:evenodd;"
d="M 22346381.000000,27068095.000000
22357799.000000,27010692.000000
22390315.000000,26962029.000000
22438978.000000,26929513.000000
22496381.000000,26918095.000000
24146381.000000,26918095.000000
24203784.000000,26929513.000000
24252447.000000,26962029.000000
24284963.000000,27010692.000000
24296381.000000,27068095.000000
24296381.000000,27368095.000000
24284963.000000,27425498.000000
24252447.000000,27474161.000000
24203784.000000,27506677.000000
24146381.000000,27518095.000000
22496381.000000,27518095.000000
22438978.000000,27506677.000000
22390315.000000,27474161.000000
22357799.000000,27425498.000000
22346381.000000,27368095.000000
Z" /> 
<path style="fill:#000000; fill-opacity:1.0; 
stroke:#000000; stroke-width:1.000000; stroke-opacity:1; 
stroke-linecap:round; stroke-linejoin:round;fill-rule:evenodd;"
d="M 22346381.000000,25798095.000000
22357799.000000,25740692.000000
22390315.000000,25692029.000000
22438978.000000,25659513.000000
22496381.000000,25648095.000000
24146381.000000,25648095.000000
24203784.000000,25659513.000000
24252447.000000,25692029.000000
24284963.000000,25740692.000000
24296381.000000,25798095.000000
24296381.000000,26098095.000000
24284963.000000,26155498.000000
24252447.000000,26204161.000000
24203784.000000,26236677.000000
24146381.000000,26248095.000000
22496381.000000,26248095.000000
22438978.000000,26236677.000000
22390315.000000,26204161.000000
22357799.000000,26155498.000000
22346381.000000,26098095.000000
Z" /> 
<path style="fill:#000000; fill-opacity:1.0; 
stroke:#000000; stroke-width:1.000000; stroke-opacity:1; 
stroke-linecap:round; stroke-linejoin:round;fill-rule:evenodd;"
d="M 22346381.000000,24528095.000000
22357799.000000,24470692.000000
22390315.000000,24422029.000000
22438978.000000,24389513.000000
22496381.000000,24378095.000000
24146381.000000,24378095.000000
24203784.000000,24389513.000000
24252447.000000,24422029.000000
24284963.000000,24470692.000000
24296381.000000,24528095.000000
24296381.000000,24828095.000000
24284963.000000,24885498.000000
24252447.000000,24934161.000000
24203784.000000,24966677.000000
24146381.000000,24978095.000000
22496381.000000,24978095.000000
22438978.000000,24966677.000000
22390315.000000,24934161.000000
22357799.000000,24885498.000000
22346381.000000,24828095.000000
Z" /> 
<path style="fill:#000000; fill-opacity:1.0; 
stroke:#000000; stroke-width:1.000000; stroke-opacity:1; 
stroke-linecap:round; stroke-linejoin:round;fill-rule:evenodd;"
d="M 22346381.000000,23258095.000000
22357799.000000,23200692.000000
22390315.000000,23152029.000000
22438978.000000,23119513.000000
22496381.000000,23108095.000000
24146381.000000,23108095.000000
24203784.000000,23119513.000000
24252447.000000,23152029.000000
24284963.000000,23200692.000000
24296381.000000,23258095.000000
24296381.000000,23558095.000000
24284963.000000,23615498.000000
24252447.000000,23664161.000000
24203784.000000,23696677.000000
24146381.000000,23708095.000000
22496381.000000,23708095.000000
22438978.000000,23696677.000000
22390315.000000,23664161.000000
22357799.000000,23615498.000000
22346381.000000,23558095.000000
Z" /> 
<path style="fill:#000000; fill-opacity:1.0; 
stroke:#000000; stroke-width:1.000000; stroke-opacity:1; 
stroke-linecap:round; stroke-linejoin:round;fill-rule:evenodd;"
d="M 22346381.000000,21988095.000000
22357799.000000,21930692.000000
22390315.000000,21882029.000000
22438978.000000,21849513.000000
22496381.000000,21838095.000000
24146381.000000,21838095.000000
24203784.000000,21849513.000000
24252447.000000,21882029.000000
24284963.000000,21930692.000000
24296381.000000,21988095.000000
24296381.000000,22288095.000000
24284963.000000,22345498.000000
24252447.000000,22394161.000000
24203784.000000,22426677.000000
24146381.000000,22438095.000000
22496381.000000,22438095.000000
22438978.000000,22426677.000000
22390315.000000,22394161.000000
22357799.000000,22345498.000000
22346381.000000,22288095.000000
Z" /> 
</g>
<g >
</g>
<g >
</g>
<g style="fill:#000000; fill-opacity:1.0; 
stroke:#000000; stroke-width:1.000000; stroke-opacity:1; 
stroke-linecap:round; stroke-linejoin:round;">
<path style="fill:#000000; fill-opacity:1.0; 
stroke:#000000; stroke-width:1.000000; stroke-opacity:1; 
stroke-linecap:round; stroke-linejoin:round;fill-rule:evenodd;"
d="M 24400131.000000,14473095.000000
24316419.000000,14456444.000000
24245451.000000,14409025.000000
24198032.000000,14338057.000000
24181381.000000,14254345.000000
24181381.000000,13816845.000000
24198032.000000,13733133.000000
24245451.000000,13662165.000000
24316419.000000,13614746.000000
24400131.000000,13598095.000000
24912631.000000,13598095.000000
24996343.000000,13614746.000000
25067311.000000,13662165.000000
25114730.000000,13733133.000000
25131381.000000,13816845.000000
25131381.000000,14254345.000000
25114730.000000,14338057.000000
25067311.000000,14409025.000000
24996343.000000,14456444.000000
24912631.000000,14473095.000000
Z" /> 
<path style="fill:#000000; fill-opacity:1.0; 
stroke:#000000; stroke-width:1.000000; stroke-opacity:1; 
stroke-linecap:round; stroke-linejoin:round;fill-rule:evenodd;"
d="M 24400131.000000,12898095.000000
24316419.000000,12881444.000000
24245451.000000,12834025.000000
24198032.000000,12763057.000000
24181381.000000,12679345.000000
24181381.000000,12241845.000000
24198032.000000,12158133.000000
24245451.000000,12087165.000000
24316419.000000,12039746.000000
24400131.000000,12023095.000000
24912631.000000,12023095.000000
24996343.000000,12039746.000000
25067311.000000,12087165.000000
25114730.000000,12158133.000000
25131381.000000,12241845.000000
25131381.000000,12679345.000000
25114730.000000,12763057.000000
25067311.000000,12834025.000000
24996343.000000,12881444.000000
24912631.000000,12898095.000000
Z" /> 
</g>
<g >
</g>
<g style="fill:#000000; fill-opacity:1.0; 
stroke:#000000; stroke-width:1.000000; stroke-opacity:1; 
stroke-linecap:round; stroke-linejoin:round;">
<path style="fill:#000000; fill-opacity:1.0; 
stroke:#000000; stroke-width:1.000000; stroke-opacity:1; 
stroke-linecap:round; stroke-linejoin:round;fill-rule:evenodd;"
d="M 24400131.000000,18791095.000000
24316419.000000,18774444.000000
24245451.000000,18727025.000000
24198032.000000,18656057.000000
24181381.000000,18572345.000000
24181381.000000,18134845.000000
24198032.000000,18051133.000000
24245451.000000,17980165.000000
24316419.000000,17932746.000000
24400131.000000,17916095.000000
24912631.000000,17916095.000000
24996343.000000,17932746.000000
25067311.000000,17980165.000000
25114730.000000,18051133.000000
25131381.000000,18134845.000000
25131381.000000,18572345.000000
25114730.000000,18656057.000000
25067311.000000,18727025.000000
24996343.000000,18774444.000000
24912631.000000,18791095.000000
Z" /> 
<path style="fill:#000000; fill-opacity:1.0; 
stroke:#000000; stroke-width:1.000000; stroke-opacity:1; 
stroke-linecap:round; stroke-linejoin:round;fill-rule:evenodd;"
d="M 24400131.000000,17216095.000000
24316419.000000,17199444.000000
24245451.000000,17152025.000000
24198032.000000,17081057.000000
24181381.000000,16997345.000000
24181381.000000,16559845.000000
24198032.000000,16476133.000000
24245451.000000,16405165.000000
24316419.000000,16357746.000000
24400131.000000,16341095.000000
24912631.000000,16341095.000000
24996343.000000,16357746.000000
25067311.000000,16405165.000000
25114730.000000,16476133.000000
25131381.000000,16559845.000000
25131381.000000,16997345.000000
25114730.000000,17081057.000000
25067311.000000,17152025.000000
24996343.000000,17199444.000000
24912631.000000,17216095.000000
Z" /> 
</g>
<g >
</g>
<g style="fill:#000000; fill-opacity:1.0; 
stroke:#000000; stroke-width:1.000000; stroke-opacity:1; 
stroke-linecap:round; stroke-linejoin:round;">
<path style="fill:#000000; fill-opacity:1.0; 
stroke:#000000; stroke-width:1.000000; stroke-opacity:1; 
stroke-linecap:round; stroke-linejoin:round;fill-rule:evenodd;"
d="M 11681381.000000,22982095.000000
11604844.000000,22966871.000000
11539960.000000,22923516.000000
11496605.000000,22858632.000000
11481381.000000,22782095.000000
11481381.000000,22382095.000000
11496605.000000,22305558.000000
11539960.000000,22240674.000000
11604844.000000,22197319.000000
11681381.000000,22182095.000000
12231381.000000,22182095.000000
12307918.000000,22197319.000000
12372802.000000,22240674.000000
12416157.000000,22305558.000000
12431381.000000,22382095.000000
12431381.000000,22782095.000000
12416157.000000,22858632.000000
12372802.000000,22923516.000000
12307918.000000,22966871.000000
12231381.000000,22982095.000000
Z" /> 
<path style="fill:#000000; fill-opacity:1.0; 
stroke:#000000; stroke-width:1.000000; stroke-opacity:1; 
stroke-linecap:round; stroke-linejoin:round;fill-rule:evenodd;"
d="M 11681381.000000,21332095.000000
11604844.000000,21316871.000000
11539960.000000,21273516.000000
11496605.000000,21208632.000000
11481381.000000,21132095.000000
11481381.000000,20732095.000000
11496605.000000,20655558.000000
11539960.000000,20590674.000000
11604844.000000,20547319.000000
11681381.000000,20532095.000000
12231381.000000,20532095.000000
12307918.000000,20547319.000000
12372802.000000,20590674.000000
12416157.000000,20655558.000000
12431381.000000,20732095.000000
12431381.000000,21132095.000000
12416157.000000,21208632.000000
12372802.000000,21273516.000000
12307918.000000,21316871.000000
12231381.000000,21332095.000000
Z" /> 
</g>
<g >
</g>
<g style="fill:#000000; fill-opacity:1.0; 
stroke:#000000; stroke-width:1.000000; stroke-opacity:1; 
stroke-linecap:round; stroke-linejoin:round;">
<path style="fill:#000000; fill-opacity:1.0; 
stroke:#000000; stroke-width:1.000000; stroke-opacity:1; 
stroke-linecap:round; stroke-linejoin:round;fill-rule:evenodd;"
d="M 25295381.000000,23871095.000000
25209277.000000,23853968.000000
25136282.000000,23805194.000000
25087508.000000,23732199.000000
25070381.000000,23646095.000000
25070381.000000,23196095.000000
25087508.000000,23109991.000000
25136282.000000,23036996.000000
25209277.000000,22988222.000000
25295381.000000,22971095.000000
25795381.000000,22971095.000000
25881485.000000,22988222.000000
25954480.000000,23036996.000000
26003254.000000,23109991.000000
26020381.000000,23196095.000000
26020381.000000,23646095.000000
26003254.000000,23732199.000000
25954480.000000,23805194.000000
25881485.000000,23853968.000000
25795381.000000,23871095.000000
Z" /> 
<path style="fill:#000000; fill-opacity:1.0; 
stroke:#000000; stroke-width:1.000000; stroke-opacity:1; 
stroke-linecap:round; stroke-linejoin:round;fill-rule:evenodd;"
d="M 25295381.000000,22321095.000000
25209277.000000,22303968.000000
25136282.000000,22255194.000000
25087508.000000,22182199.000000
25070381.000000,22096095.000000
25070381.000000,21646095.000000
25087508.000000,21559991.000000
25136282.000000,21486996.000000
25209277.000000,21438222.000000
25295381.000000,21421095.000000
25795381.000000,21421095.000000
25881485.000000,21438222.000000
25954480.000000,21486996.000000
26003254.000000,21559991.000000
26020381.000000,21646095.000000
26020381.000000,22096095.000000
26003254.000000,22182199.000000
25954480.000000,22255194.000000
25881485.000000,22303968.000000
25795381.000000,22321095.000000
Z" /> 
</g>
<g >
</g>
<g style="fill:#000000; fill-opacity:1.0; 
stroke:#000000; stroke-width:1.000000; stroke-opacity:1; 
stroke-linecap:round; stroke-linejoin:round;">
<path style="fill:#000000; fill-opacity:1.0; 
stroke:#000000; stroke-width:1.000000; stroke-opacity:1; 
stroke-linecap:round; stroke-linejoin:round;fill-rule:evenodd;"
d="M 33501381.000000,3973095.000000
33484254.000000,4059199.000000
33435480.000000,4132194.000000
33362485.000000,4180968.000000
33276381.000000,4198095.000000
32826381.000000,4198095.000000
32740277.000000,4180968.000000
32667282.000000,4132194.000000
32618508.000000,4059199.000000
32601381.000000,3973095.000000
32601381.000000,3473095.000000
32618508.000000,3386991.000000
32667282.000000,3313996.000000
32740277.000000,3265222.000000
32826381.000000,3248095.000000
33276381.000000,3248095.000000
33362485.000000,3265222.000000
33435480.000000,3313996.000000
33484254.000000,3386991.000000
33501381.000000,3473095.000000
Z" /> 
<path style="fill:#000000; fill-opacity:1.0; 
stroke:#000000; stroke-width:1.000000; stroke-opacity:1; 
stroke-linecap:round; stroke-linejoin:round;fill-rule:evenodd;"
d="M 31951381.000000,3973095.000000
31934254.000000,4059199.000000
31885480.000000,4132194.000000
31812485.000000,4180968.000000
31726381.000000,4198095.000000
31276381.000000,4198095.000000
31190277.000000,4180968.000000
31117282.000000,4132194.000000
31068508.000000,4059199.000000
31051381.000000,3973095.000000
31051381.000000,3473095.000000
31068508.000000,3386991.000000
31117282.000000,3313996.000000
31190277.000000,3265222.000000
31276381.000000,3248095.000000
31726381.000000,3248095.000000
31812485.000000,3265222.000000
31885480.000000,3313996.000000
31934254.000000,3386991.000000
31951381.000000,3473095.000000
Z" /> 
</g>
<g >
</g>
<g style="fill:#000000; fill-opacity:1.0; 
stroke:#000000; stroke-width:1.000000; stroke-opacity:1; 
stroke-linecap:round; stroke-linejoin:round;">
<path style="fill:#000000; fill-opacity:1.0; 
stroke:#000000; stroke-width:1.000000; stroke-opacity:1; 
stroke-linecap:round; stroke-linejoin:round;fill-rule:evenodd;"
d="M 10387381.000000,11745095.000000
10372157.000000,11821632.000000
10328802.000000,11886516.000000
10263918.000000,11929871.000000
10187381.000000,11945095.000000
9787381.000000,11945095.000000
9710844.000000,11929871.000000
9645960.000000,11886516.000000
9602605.000000,11821632.000000
9587381.000000,11745095.000000
9587381.000000,11195095.000000
9602605.000000,11118558.000000
9645960.000000,11053674.000000
9710844.000000,11010319.000000
9787381.000000,10995095.000000
10187381.000000,10995095.000000
10263918.000000,11010319.000000
10328802.000000,11053674.000000
10372157.000000,11118558.000000
10387381.000000,11195095.000000
Z" /> 
<path style="fill:#000000; fill-opacity:1.0; 
stroke:#000000; stroke-width:1.000000; stroke-opacity:1; 
stroke-linecap:round; stroke-linejoin:round;fill-rule:evenodd;"
d="M 8737381.000000,11745095.000000
8722157.000000,11821632.000000
8678802.000000,11886516.000000
8613918.000000,11929871.000000
8537381.000000,11945095.000000
8137381.000000,11945095.000000
8060844.000000,11929871.000000
7995960.000000,11886516.000000
7952605.000000,11821632.000000
7937381.000000,11745095.000000
7937381.000000,11195095.000000
7952605.000000,11118558.000000
7995960.000000,11053674.000000
8060844.000000,11010319.000000
8137381.000000,10995095.000000
8537381.000000,10995095.000000
8613918.000000,11010319.000000
8678802.000000,11053674.000000
8722157.000000,11118558.000000
8737381.000000,11195095.000000
Z" /> 
</g>
<g >
</g>
<g style="fill:#000000; fill-opacity:1.0; 
stroke:#000000; stroke-width:1.000000; stroke-opacity:1; 
stroke-linecap:round; stroke-linejoin:round;">
<path style="fill:#000000; fill-opacity:1.0; 
stroke:#000000; stroke-width:1.000000; stroke-opacity:1; 
stroke-linecap:round; stroke-linejoin:round;fill-rule:evenodd;"
d="M 29056381.000000,5014095.000000
29041157.000000,5090632.000000
28997802.000000,5155516.000000
28932918.000000,5198871.000000
28856381.000000,5214095.000000
28456381.000000,5214095.000000
28379844.000000,5198871.000000
28314960.000000,5155516.000000
28271605.000000,5090632.000000
28256381.000000,5014095.000000
28256381.000000,4464095.000000
28271605.000000,4387558.000000
28314960.000000,4322674.000000
28379844.000000,4279319.000000
28456381.000000,4264095.000000
28856381.000000,4264095.000000
28932918.000000,4279319.000000
28997802.000000,4322674.000000
29041157.000000,4387558.000000
29056381.000000,4464095.000000
Z" /> 
<path style="fill:#000000; fill-opacity:1.0; 
stroke:#000000; stroke-width:1.000000; stroke-opacity:1; 
stroke-linecap:round; stroke-linejoin:round;fill-rule:evenodd;"
d="M 27406381.000000,5014095.000000
27391157.000000,5090632.000000
27347802.000000,5155516.000000
27282918.000000,5198871.000000
27206381.000000,5214095.000000
26806381.000000,5214095.000000
26729844.000000,5198871.000000
26664960.000000,5155516.000000
26621605.000000,5090632.000000
26606381.000000,5014095.000000
26606381.000000,4464095.000000
26621605.000000,4387558.000000
26664960.000000,4322674.000000
26729844.000000,4279319.000000
26806381.000000,4264095.000000
27206381.000000,4264095.000000
27282918.000000,4279319.000000
27347802.000000,4322674.000000
27391157.000000,4387558.000000
27406381.000000,4464095.000000
Z" /> 
</g>
<g >
</g>
<g style="fill:#000000; fill-opacity:1.0; 
stroke:#000000; stroke-width:1.000000; stroke-opacity:1; 
stroke-linecap:round; stroke-linejoin:round;">
<path style="fill:#000000; fill-opacity:1.0; 
stroke:#000000; stroke-width:1.000000; stroke-opacity:1; 
stroke-linecap:round; stroke-linejoin:round;fill-rule:evenodd;"
d="M 11366381.000000,11195095.000000
11381605.000000,11118558.000000
11424960.000000,11053674.000000
11489844.000000,11010319.000000
11566381.000000,10995095.000000
11966381.000000,10995095.000000
12042918.000000,11010319.000000
12107802.000000,11053674.000000
12151157.000000,11118558.000000
12166381.000000,11195095.000000
12166381.000000,11745095.000000
12151157.000000,11821632.000000
12107802.000000,11886516.000000
12042918.000000,11929871.000000
11966381.000000,11945095.000000
11566381.000000,11945095.000000
11489844.000000,11929871.000000
11424960.000000,11886516.000000
11381605.000000,11821632.000000
11366381.000000,11745095.000000
Z" /> 
<path style="fill:#000000; fill-opacity:1.0; 
stroke:#000000; stroke-width:1.000000; stroke-opacity:1; 
stroke-linecap:round; stroke-linejoin:round;fill-rule:evenodd;"
d="M 13016381.000000,11195095.000000
13031605.000000,11118558.000000
13074960.000000,11053674.000000
13139844.000000,11010319.000000
13216381.000000,10995095.000000
13616381.000000,10995095.000000
13692918.000000,11010319.000000
13757802.000000,11053674.000000
13801157.000000,11118558.000000
13816381.000000,11195095.000000
13816381.000000,11745095.000000
13801157.000000,11821632.000000
13757802.000000,11886516.000000
13692918.000000,11929871.000000
13616381.000000,11945095.000000
13216381.000000,11945095.000000
13139844.000000,11929871.000000
13074960.000000,11886516.000000
13031605.000000,11821632.000000
13016381.000000,11745095.000000
Z" /> 
</g>
<g >
</g>
<g >
</g>
<g >
</g>
</g> 
</svg>
