G04 #@! TF.GenerationSoftware,KiCad,Pcbnew,(6.0.10-0)*
G04 #@! TF.CreationDate,2023-11-26T23:42:57+09:00*
G04 #@! TF.ProjectId,AutoFeeder_Drum-type,4175746f-4665-4656-9465-725f4472756d,01*
G04 #@! TF.SameCoordinates,Original*
G04 #@! TF.FileFunction,Legend,Top*
G04 #@! TF.FilePolarity,Positive*
%FSLAX46Y46*%
G04 Gerber Fmt 4.6, Leading zero omitted, Abs format (unit mm)*
G04 Created by KiCad (PCBNEW (6.0.10-0)) date 2023-11-26 23:42:57*
%MOMM*%
%LPD*%
G01*
G04 APERTURE LIST*
G04 Aperture macros list*
%AMRoundRect*
0 Rectangle with rounded corners*
0 $1 Rounding radius*
0 $2 $3 $4 $5 $6 $7 $8 $9 X,Y pos of 4 corners*
0 Add a 4 corners polygon primitive as box body*
4,1,4,$2,$3,$4,$5,$6,$7,$8,$9,$2,$3,0*
0 Add four circle primitives for the rounded corners*
1,1,$1+$1,$2,$3*
1,1,$1+$1,$4,$5*
1,1,$1+$1,$6,$7*
1,1,$1+$1,$8,$9*
0 Add four rect primitives between the rounded corners*
20,1,$1+$1,$2,$3,$4,$5,0*
20,1,$1+$1,$4,$5,$6,$7,0*
20,1,$1+$1,$6,$7,$8,$9,0*
20,1,$1+$1,$8,$9,$2,$3,0*%
%AMFreePoly0*
4,1,22,0.550000,-0.750000,0.000000,-0.750000,0.000000,-0.745033,-0.079941,-0.743568,-0.215256,-0.701293,-0.333266,-0.622738,-0.424486,-0.514219,-0.481581,-0.384460,-0.499164,-0.250000,-0.500000,-0.250000,-0.500000,0.250000,-0.499164,0.250000,-0.499963,0.256109,-0.478152,0.396186,-0.417904,0.524511,-0.324060,0.630769,-0.204165,0.706417,-0.067858,0.745374,0.000000,0.744959,0.000000,0.750000,
0.550000,0.750000,0.550000,-0.750000,0.550000,-0.750000,$1*%
%AMFreePoly1*
4,1,20,0.000000,0.744959,0.073905,0.744508,0.209726,0.703889,0.328688,0.626782,0.421226,0.519385,0.479903,0.390333,0.500000,0.250000,0.500000,-0.250000,0.499851,-0.262216,0.476331,-0.402017,0.414519,-0.529596,0.319384,-0.634700,0.198574,-0.708877,0.061801,-0.746166,0.000000,-0.745033,0.000000,-0.750000,-0.550000,-0.750000,-0.550000,0.750000,0.000000,0.750000,0.000000,0.744959,
0.000000,0.744959,$1*%
G04 Aperture macros list end*
%ADD10C,0.150000*%
%ADD11C,0.250000*%
%ADD12C,0.120000*%
%ADD13C,0.100000*%
%ADD14C,0.200000*%
%ADD15FreePoly0,180.000000*%
%ADD16R,1.000000X1.500000*%
%ADD17FreePoly1,180.000000*%
%ADD18RoundRect,0.225000X-0.250000X0.225000X-0.250000X-0.225000X0.250000X-0.225000X0.250000X0.225000X0*%
%ADD19RoundRect,0.225000X0.225000X0.250000X-0.225000X0.250000X-0.225000X-0.250000X0.225000X-0.250000X0*%
%ADD20RoundRect,0.200000X-0.200000X-0.275000X0.200000X-0.275000X0.200000X0.275000X-0.200000X0.275000X0*%
%ADD21RoundRect,0.250000X-0.250000X-0.475000X0.250000X-0.475000X0.250000X0.475000X-0.250000X0.475000X0*%
%ADD22RoundRect,0.200000X-0.275000X0.200000X-0.275000X-0.200000X0.275000X-0.200000X0.275000X0.200000X0*%
%ADD23R,0.400000X0.650000*%
%ADD24RoundRect,0.200000X0.275000X-0.200000X0.275000X0.200000X-0.275000X0.200000X-0.275000X-0.200000X0*%
%ADD25R,1.700000X1.700000*%
%ADD26O,1.700000X1.700000*%
%ADD27RoundRect,0.200000X0.200000X0.275000X-0.200000X0.275000X-0.200000X-0.275000X0.200000X-0.275000X0*%
%ADD28C,1.440000*%
%ADD29RoundRect,0.150000X-0.150000X0.825000X-0.150000X-0.825000X0.150000X-0.825000X0.150000X0.825000X0*%
%ADD30C,1.400000*%
%ADD31RoundRect,0.150000X0.150000X-0.512500X0.150000X0.512500X-0.150000X0.512500X-0.150000X-0.512500X0*%
%ADD32C,2.200000*%
%ADD33R,0.700000X1.200000*%
%ADD34R,0.760000X1.200000*%
%ADD35R,0.800000X1.200000*%
%ADD36O,1.100000X1.700000*%
%ADD37RoundRect,0.150000X-0.825000X-0.150000X0.825000X-0.150000X0.825000X0.150000X-0.825000X0.150000X0*%
%ADD38RoundRect,0.250000X0.750000X-0.600000X0.750000X0.600000X-0.750000X0.600000X-0.750000X-0.600000X0*%
%ADD39O,2.000000X1.700000*%
%ADD40RoundRect,0.218750X0.256250X-0.218750X0.256250X0.218750X-0.256250X0.218750X-0.256250X-0.218750X0*%
%ADD41RoundRect,0.225000X0.250000X-0.225000X0.250000X0.225000X-0.250000X0.225000X-0.250000X-0.225000X0*%
G04 APERTURE END LIST*
D10*
X148018666Y-68413380D02*
X148352000Y-69413380D01*
X148685333Y-68413380D01*
X149018666Y-69413380D02*
X149018666Y-68413380D01*
X149256761Y-68413380D01*
X149399619Y-68461000D01*
X149494857Y-68556238D01*
X149542476Y-68651476D01*
X149590095Y-68841952D01*
X149590095Y-68984809D01*
X149542476Y-69175285D01*
X149494857Y-69270523D01*
X149399619Y-69365761D01*
X149256761Y-69413380D01*
X149018666Y-69413380D01*
X150018666Y-69413380D02*
X150018666Y-68413380D01*
X150256761Y-68413380D01*
X150399619Y-68461000D01*
X150494857Y-68556238D01*
X150542476Y-68651476D01*
X150590095Y-68841952D01*
X150590095Y-68984809D01*
X150542476Y-69175285D01*
X150494857Y-69270523D01*
X150399619Y-69365761D01*
X150256761Y-69413380D01*
X150018666Y-69413380D01*
X151717523Y-76096761D02*
X151860380Y-76144380D01*
X152098476Y-76144380D01*
X152193714Y-76096761D01*
X152241333Y-76049142D01*
X152288952Y-75953904D01*
X152288952Y-75858666D01*
X152241333Y-75763428D01*
X152193714Y-75715809D01*
X152098476Y-75668190D01*
X151908000Y-75620571D01*
X151812761Y-75572952D01*
X151765142Y-75525333D01*
X151717523Y-75430095D01*
X151717523Y-75334857D01*
X151765142Y-75239619D01*
X151812761Y-75192000D01*
X151908000Y-75144380D01*
X152146095Y-75144380D01*
X152288952Y-75192000D01*
X153288952Y-76049142D02*
X153241333Y-76096761D01*
X153098476Y-76144380D01*
X153003238Y-76144380D01*
X152860380Y-76096761D01*
X152765142Y-76001523D01*
X152717523Y-75906285D01*
X152669904Y-75715809D01*
X152669904Y-75572952D01*
X152717523Y-75382476D01*
X152765142Y-75287238D01*
X152860380Y-75192000D01*
X153003238Y-75144380D01*
X153098476Y-75144380D01*
X153241333Y-75192000D01*
X153288952Y-75239619D01*
X154193714Y-76144380D02*
X153717523Y-76144380D01*
X153717523Y-75144380D01*
X148137714Y-76096761D02*
X148280571Y-76144380D01*
X148518666Y-76144380D01*
X148613904Y-76096761D01*
X148661523Y-76049142D01*
X148709142Y-75953904D01*
X148709142Y-75858666D01*
X148661523Y-75763428D01*
X148613904Y-75715809D01*
X148518666Y-75668190D01*
X148328190Y-75620571D01*
X148232952Y-75572952D01*
X148185333Y-75525333D01*
X148137714Y-75430095D01*
X148137714Y-75334857D01*
X148185333Y-75239619D01*
X148232952Y-75192000D01*
X148328190Y-75144380D01*
X148566285Y-75144380D01*
X148709142Y-75192000D01*
X149137714Y-76144380D02*
X149137714Y-75144380D01*
X149375809Y-75144380D01*
X149518666Y-75192000D01*
X149613904Y-75287238D01*
X149661523Y-75382476D01*
X149709142Y-75572952D01*
X149709142Y-75715809D01*
X149661523Y-75906285D01*
X149613904Y-76001523D01*
X149518666Y-76096761D01*
X149375809Y-76144380D01*
X149137714Y-76144380D01*
X150090095Y-75858666D02*
X150566285Y-75858666D01*
X149994857Y-76144380D02*
X150328190Y-75144380D01*
X150661523Y-76144380D01*
D11*
X140335000Y-73580761D02*
X140335000Y-74056952D01*
X139858809Y-73866476D02*
X140335000Y-74056952D01*
X140811190Y-73866476D01*
X140049285Y-74437904D02*
X140335000Y-74056952D01*
X140620714Y-74437904D01*
X148590000Y-78692238D02*
X148590000Y-78216047D01*
X149066190Y-78406523D02*
X148590000Y-78216047D01*
X148113809Y-78406523D01*
X148875714Y-77835095D02*
X148590000Y-78216047D01*
X148304285Y-77835095D01*
X154305000Y-106854761D02*
X154305000Y-107330952D01*
X153828809Y-107140476D02*
X154305000Y-107330952D01*
X154781190Y-107140476D01*
X154019285Y-107711904D02*
X154305000Y-107330952D01*
X154590714Y-107711904D01*
D10*
X152146095Y-68461000D02*
X152050857Y-68413380D01*
X151908000Y-68413380D01*
X151765142Y-68461000D01*
X151669904Y-68556238D01*
X151622285Y-68651476D01*
X151574666Y-68841952D01*
X151574666Y-68984809D01*
X151622285Y-69175285D01*
X151669904Y-69270523D01*
X151765142Y-69365761D01*
X151908000Y-69413380D01*
X152003238Y-69413380D01*
X152146095Y-69365761D01*
X152193714Y-69318142D01*
X152193714Y-68984809D01*
X152003238Y-68984809D01*
X152622285Y-69413380D02*
X152622285Y-68413380D01*
X153193714Y-69413380D01*
X153193714Y-68413380D01*
X153669904Y-69413380D02*
X153669904Y-68413380D01*
X153908000Y-68413380D01*
X154050857Y-68461000D01*
X154146095Y-68556238D01*
X154193714Y-68651476D01*
X154241333Y-68841952D01*
X154241333Y-68984809D01*
X154193714Y-69175285D01*
X154146095Y-69270523D01*
X154050857Y-69365761D01*
X153908000Y-69413380D01*
X153669904Y-69413380D01*
D11*
X144907000Y-74501238D02*
X144907000Y-74025047D01*
X145383190Y-74215523D02*
X144907000Y-74025047D01*
X144430809Y-74215523D01*
X145192714Y-73644095D02*
X144907000Y-74025047D01*
X144621285Y-73644095D01*
X157273761Y-123444000D02*
X157749952Y-123444000D01*
X157559476Y-123920190D02*
X157749952Y-123444000D01*
X157559476Y-122967809D01*
X158130904Y-123729714D02*
X157749952Y-123444000D01*
X158130904Y-123158285D01*
D10*
X153344666Y-115149380D02*
X153344666Y-115863666D01*
X153297047Y-116006523D01*
X153201809Y-116101761D01*
X153058952Y-116149380D01*
X152963714Y-116149380D01*
X153820857Y-116149380D02*
X153820857Y-115149380D01*
X154201809Y-115149380D01*
X154297047Y-115197000D01*
X154344666Y-115244619D01*
X154392285Y-115339857D01*
X154392285Y-115482714D01*
X154344666Y-115577952D01*
X154297047Y-115625571D01*
X154201809Y-115673190D01*
X153820857Y-115673190D01*
X154773238Y-115244619D02*
X154820857Y-115197000D01*
X154916095Y-115149380D01*
X155154190Y-115149380D01*
X155249428Y-115197000D01*
X155297047Y-115244619D01*
X155344666Y-115339857D01*
X155344666Y-115435095D01*
X155297047Y-115577952D01*
X154725619Y-116149380D01*
X155344666Y-116149380D01*
X155246142Y-101131666D02*
X155293761Y-101179285D01*
X155341380Y-101322142D01*
X155341380Y-101417380D01*
X155293761Y-101560238D01*
X155198523Y-101655476D01*
X155103285Y-101703095D01*
X154912809Y-101750714D01*
X154769952Y-101750714D01*
X154579476Y-101703095D01*
X154484238Y-101655476D01*
X154389000Y-101560238D01*
X154341380Y-101417380D01*
X154341380Y-101322142D01*
X154389000Y-101179285D01*
X154436619Y-101131666D01*
X154341380Y-100798333D02*
X154341380Y-100131666D01*
X155341380Y-100560238D01*
X149693333Y-77573142D02*
X149645714Y-77620761D01*
X149502857Y-77668380D01*
X149407619Y-77668380D01*
X149264761Y-77620761D01*
X149169523Y-77525523D01*
X149121904Y-77430285D01*
X149074285Y-77239809D01*
X149074285Y-77096952D01*
X149121904Y-76906476D01*
X149169523Y-76811238D01*
X149264761Y-76716000D01*
X149407619Y-76668380D01*
X149502857Y-76668380D01*
X149645714Y-76716000D01*
X149693333Y-76763619D01*
X150550476Y-77001714D02*
X150550476Y-77668380D01*
X150312380Y-76620761D02*
X150074285Y-77335047D01*
X150693333Y-77335047D01*
X163028333Y-65603380D02*
X162695000Y-65127190D01*
X162456904Y-65603380D02*
X162456904Y-64603380D01*
X162837857Y-64603380D01*
X162933095Y-64651000D01*
X162980714Y-64698619D01*
X163028333Y-64793857D01*
X163028333Y-64936714D01*
X162980714Y-65031952D01*
X162933095Y-65079571D01*
X162837857Y-65127190D01*
X162456904Y-65127190D01*
X163933095Y-64603380D02*
X163456904Y-64603380D01*
X163409285Y-65079571D01*
X163456904Y-65031952D01*
X163552142Y-64984333D01*
X163790238Y-64984333D01*
X163885476Y-65031952D01*
X163933095Y-65079571D01*
X163980714Y-65174809D01*
X163980714Y-65412904D01*
X163933095Y-65508142D01*
X163885476Y-65555761D01*
X163790238Y-65603380D01*
X163552142Y-65603380D01*
X163456904Y-65555761D01*
X163409285Y-65508142D01*
X144502142Y-75477666D02*
X144549761Y-75525285D01*
X144597380Y-75668142D01*
X144597380Y-75763380D01*
X144549761Y-75906238D01*
X144454523Y-76001476D01*
X144359285Y-76049095D01*
X144168809Y-76096714D01*
X144025952Y-76096714D01*
X143835476Y-76049095D01*
X143740238Y-76001476D01*
X143645000Y-75906238D01*
X143597380Y-75763380D01*
X143597380Y-75668142D01*
X143645000Y-75525285D01*
X143692619Y-75477666D01*
X144597380Y-74525285D02*
X144597380Y-75096714D01*
X144597380Y-74811000D02*
X143597380Y-74811000D01*
X143740238Y-74906238D01*
X143835476Y-75001476D01*
X143883095Y-75096714D01*
X164442380Y-67952857D02*
X163966190Y-68286190D01*
X164442380Y-68524285D02*
X163442380Y-68524285D01*
X163442380Y-68143333D01*
X163490000Y-68048095D01*
X163537619Y-68000476D01*
X163632857Y-67952857D01*
X163775714Y-67952857D01*
X163870952Y-68000476D01*
X163918571Y-68048095D01*
X163966190Y-68143333D01*
X163966190Y-68524285D01*
X164442380Y-67000476D02*
X164442380Y-67571904D01*
X164442380Y-67286190D02*
X163442380Y-67286190D01*
X163585238Y-67381428D01*
X163680476Y-67476666D01*
X163728095Y-67571904D01*
X163442380Y-66143333D02*
X163442380Y-66333809D01*
X163490000Y-66429047D01*
X163537619Y-66476666D01*
X163680476Y-66571904D01*
X163870952Y-66619523D01*
X164251904Y-66619523D01*
X164347142Y-66571904D01*
X164394761Y-66524285D01*
X164442380Y-66429047D01*
X164442380Y-66238571D01*
X164394761Y-66143333D01*
X164347142Y-66095714D01*
X164251904Y-66048095D01*
X164013809Y-66048095D01*
X163918571Y-66095714D01*
X163870952Y-66143333D01*
X163823333Y-66238571D01*
X163823333Y-66429047D01*
X163870952Y-66524285D01*
X163918571Y-66571904D01*
X164013809Y-66619523D01*
X140152380Y-75731666D02*
X139676190Y-76065000D01*
X140152380Y-76303095D02*
X139152380Y-76303095D01*
X139152380Y-75922142D01*
X139200000Y-75826904D01*
X139247619Y-75779285D01*
X139342857Y-75731666D01*
X139485714Y-75731666D01*
X139580952Y-75779285D01*
X139628571Y-75826904D01*
X139676190Y-75922142D01*
X139676190Y-76303095D01*
X139152380Y-75398333D02*
X139152380Y-74779285D01*
X139533333Y-75112619D01*
X139533333Y-74969761D01*
X139580952Y-74874523D01*
X139628571Y-74826904D01*
X139723809Y-74779285D01*
X139961904Y-74779285D01*
X140057142Y-74826904D01*
X140104761Y-74874523D01*
X140152380Y-74969761D01*
X140152380Y-75255476D01*
X140104761Y-75350714D01*
X140057142Y-75398333D01*
X152868380Y-105761904D02*
X153677904Y-105761904D01*
X153773142Y-105714285D01*
X153820761Y-105666666D01*
X153868380Y-105571428D01*
X153868380Y-105380952D01*
X153820761Y-105285714D01*
X153773142Y-105238095D01*
X153677904Y-105190476D01*
X152868380Y-105190476D01*
X152868380Y-104285714D02*
X152868380Y-104476190D01*
X152916000Y-104571428D01*
X152963619Y-104619047D01*
X153106476Y-104714285D01*
X153296952Y-104761904D01*
X153677904Y-104761904D01*
X153773142Y-104714285D01*
X153820761Y-104666666D01*
X153868380Y-104571428D01*
X153868380Y-104380952D01*
X153820761Y-104285714D01*
X153773142Y-104238095D01*
X153677904Y-104190476D01*
X153439809Y-104190476D01*
X153344571Y-104238095D01*
X153296952Y-104285714D01*
X153249333Y-104380952D01*
X153249333Y-104571428D01*
X153296952Y-104666666D01*
X153344571Y-104714285D01*
X153439809Y-104761904D01*
X158199880Y-95257857D02*
X157723690Y-95591190D01*
X158199880Y-95829285D02*
X157199880Y-95829285D01*
X157199880Y-95448333D01*
X157247500Y-95353095D01*
X157295119Y-95305476D01*
X157390357Y-95257857D01*
X157533214Y-95257857D01*
X157628452Y-95305476D01*
X157676071Y-95353095D01*
X157723690Y-95448333D01*
X157723690Y-95829285D01*
X158199880Y-94305476D02*
X158199880Y-94876904D01*
X158199880Y-94591190D02*
X157199880Y-94591190D01*
X157342738Y-94686428D01*
X157437976Y-94781666D01*
X157485595Y-94876904D01*
X157199880Y-93972142D02*
X157199880Y-93353095D01*
X157580833Y-93686428D01*
X157580833Y-93543571D01*
X157628452Y-93448333D01*
X157676071Y-93400714D01*
X157771309Y-93353095D01*
X158009404Y-93353095D01*
X158104642Y-93400714D01*
X158152261Y-93448333D01*
X158199880Y-93543571D01*
X158199880Y-93829285D01*
X158152261Y-93924523D01*
X158104642Y-93972142D01*
X139747666Y-80097380D02*
X139747666Y-80811666D01*
X139700047Y-80954523D01*
X139604809Y-81049761D01*
X139461952Y-81097380D01*
X139366714Y-81097380D01*
X140176238Y-80192619D02*
X140223857Y-80145000D01*
X140319095Y-80097380D01*
X140557190Y-80097380D01*
X140652428Y-80145000D01*
X140700047Y-80192619D01*
X140747666Y-80287857D01*
X140747666Y-80383095D01*
X140700047Y-80525952D01*
X140128619Y-81097380D01*
X140747666Y-81097380D01*
X154059884Y-99639380D02*
X153726551Y-99163190D01*
X153488456Y-99639380D02*
X153488456Y-98639380D01*
X153869408Y-98639380D01*
X153964646Y-98687000D01*
X154012265Y-98734619D01*
X154059884Y-98829857D01*
X154059884Y-98972714D01*
X154012265Y-99067952D01*
X153964646Y-99115571D01*
X153869408Y-99163190D01*
X153488456Y-99163190D01*
X155012265Y-99639380D02*
X154440837Y-99639380D01*
X154726551Y-99639380D02*
X154726551Y-98639380D01*
X154631313Y-98782238D01*
X154536075Y-98877476D01*
X154440837Y-98925095D01*
X155393218Y-98734619D02*
X155440837Y-98687000D01*
X155536075Y-98639380D01*
X155774170Y-98639380D01*
X155869408Y-98687000D01*
X155917027Y-98734619D01*
X155964646Y-98829857D01*
X155964646Y-98925095D01*
X155917027Y-99067952D01*
X155345599Y-99639380D01*
X155964646Y-99639380D01*
X158742142Y-68430380D02*
X158408809Y-67954190D01*
X158170714Y-68430380D02*
X158170714Y-67430380D01*
X158551666Y-67430380D01*
X158646904Y-67478000D01*
X158694523Y-67525619D01*
X158742142Y-67620857D01*
X158742142Y-67763714D01*
X158694523Y-67858952D01*
X158646904Y-67906571D01*
X158551666Y-67954190D01*
X158170714Y-67954190D01*
X159694523Y-68430380D02*
X159123095Y-68430380D01*
X159408809Y-68430380D02*
X159408809Y-67430380D01*
X159313571Y-67573238D01*
X159218333Y-67668476D01*
X159123095Y-67716095D01*
X160599285Y-67430380D02*
X160123095Y-67430380D01*
X160075476Y-67906571D01*
X160123095Y-67858952D01*
X160218333Y-67811333D01*
X160456428Y-67811333D01*
X160551666Y-67858952D01*
X160599285Y-67906571D01*
X160646904Y-68001809D01*
X160646904Y-68239904D01*
X160599285Y-68335142D01*
X160551666Y-68382761D01*
X160456428Y-68430380D01*
X160218333Y-68430380D01*
X160123095Y-68382761D01*
X160075476Y-68335142D01*
X154011380Y-72596333D02*
X154725666Y-72596333D01*
X154868523Y-72643952D01*
X154963761Y-72739190D01*
X155011380Y-72882047D01*
X155011380Y-72977285D01*
X154344714Y-71691571D02*
X155011380Y-71691571D01*
X153963761Y-71929666D02*
X154678047Y-72167761D01*
X154678047Y-71548714D01*
X157932380Y-65365238D02*
X157456190Y-65698571D01*
X157932380Y-65936666D02*
X156932380Y-65936666D01*
X156932380Y-65555714D01*
X156980000Y-65460476D01*
X157027619Y-65412857D01*
X157122857Y-65365238D01*
X157265714Y-65365238D01*
X157360952Y-65412857D01*
X157408571Y-65460476D01*
X157456190Y-65555714D01*
X157456190Y-65936666D01*
X156932380Y-65079523D02*
X157932380Y-64746190D01*
X156932380Y-64412857D01*
X157932380Y-63555714D02*
X157932380Y-64127142D01*
X157932380Y-63841428D02*
X156932380Y-63841428D01*
X157075238Y-63936666D01*
X157170476Y-64031904D01*
X157218095Y-64127142D01*
X157157380Y-127126904D02*
X157966904Y-127126904D01*
X158062142Y-127079285D01*
X158109761Y-127031666D01*
X158157380Y-126936428D01*
X158157380Y-126745952D01*
X158109761Y-126650714D01*
X158062142Y-126603095D01*
X157966904Y-126555476D01*
X157157380Y-126555476D01*
X157490714Y-125650714D02*
X158157380Y-125650714D01*
X157109761Y-125888809D02*
X157824047Y-126126904D01*
X157824047Y-125507857D01*
X165738095Y-64222380D02*
X165738095Y-65031904D01*
X165785714Y-65127142D01*
X165833333Y-65174761D01*
X165928571Y-65222380D01*
X166119047Y-65222380D01*
X166214285Y-65174761D01*
X166261904Y-65127142D01*
X166309523Y-65031904D01*
X166309523Y-64222380D01*
X166738095Y-64317619D02*
X166785714Y-64270000D01*
X166880952Y-64222380D01*
X167119047Y-64222380D01*
X167214285Y-64270000D01*
X167261904Y-64317619D01*
X167309523Y-64412857D01*
X167309523Y-64508095D01*
X167261904Y-64650952D01*
X166690476Y-65222380D01*
X167309523Y-65222380D01*
X139120666Y-76795380D02*
X139120666Y-77509666D01*
X139073047Y-77652523D01*
X138977809Y-77747761D01*
X138834952Y-77795380D01*
X138739714Y-77795380D01*
X139596857Y-77795380D02*
X139596857Y-76795380D01*
X139977809Y-76795380D01*
X140073047Y-76843000D01*
X140120666Y-76890619D01*
X140168285Y-76985857D01*
X140168285Y-77128714D01*
X140120666Y-77223952D01*
X140073047Y-77271571D01*
X139977809Y-77319190D01*
X139596857Y-77319190D01*
X141120666Y-77795380D02*
X140549238Y-77795380D01*
X140834952Y-77795380D02*
X140834952Y-76795380D01*
X140739714Y-76938238D01*
X140644476Y-77033476D01*
X140549238Y-77081095D01*
X143470380Y-81608333D02*
X144184666Y-81608333D01*
X144327523Y-81655952D01*
X144422761Y-81751190D01*
X144470380Y-81894047D01*
X144470380Y-81989285D01*
X143470380Y-81227380D02*
X143470380Y-80608333D01*
X143851333Y-80941666D01*
X143851333Y-80798809D01*
X143898952Y-80703571D01*
X143946571Y-80655952D01*
X144041809Y-80608333D01*
X144279904Y-80608333D01*
X144375142Y-80655952D01*
X144422761Y-80703571D01*
X144470380Y-80798809D01*
X144470380Y-81084523D01*
X144422761Y-81179761D01*
X144375142Y-81227380D01*
X139406380Y-72516904D02*
X140215904Y-72516904D01*
X140311142Y-72469285D01*
X140358761Y-72421666D01*
X140406380Y-72326428D01*
X140406380Y-72135952D01*
X140358761Y-72040714D01*
X140311142Y-71993095D01*
X140215904Y-71945476D01*
X139406380Y-71945476D01*
X140406380Y-70945476D02*
X140406380Y-71516904D01*
X140406380Y-71231190D02*
X139406380Y-71231190D01*
X139549238Y-71326428D01*
X139644476Y-71421666D01*
X139692095Y-71516904D01*
X138882380Y-70406666D02*
X138406190Y-70740000D01*
X138882380Y-70978095D02*
X137882380Y-70978095D01*
X137882380Y-70597142D01*
X137930000Y-70501904D01*
X137977619Y-70454285D01*
X138072857Y-70406666D01*
X138215714Y-70406666D01*
X138310952Y-70454285D01*
X138358571Y-70501904D01*
X138406190Y-70597142D01*
X138406190Y-70978095D01*
X138215714Y-69549523D02*
X138882380Y-69549523D01*
X137834761Y-69787619D02*
X138549047Y-70025714D01*
X138549047Y-69406666D01*
X137461666Y-63482380D02*
X137461666Y-64196666D01*
X137414047Y-64339523D01*
X137318809Y-64434761D01*
X137175952Y-64482380D01*
X137080714Y-64482380D01*
X138461666Y-64482380D02*
X137890238Y-64482380D01*
X138175952Y-64482380D02*
X138175952Y-63482380D01*
X138080714Y-63625238D01*
X137985476Y-63720476D01*
X137890238Y-63768095D01*
X156424333Y-120118142D02*
X156376714Y-120165761D01*
X156233857Y-120213380D01*
X156138619Y-120213380D01*
X155995761Y-120165761D01*
X155900523Y-120070523D01*
X155852904Y-119975285D01*
X155805285Y-119784809D01*
X155805285Y-119641952D01*
X155852904Y-119451476D01*
X155900523Y-119356238D01*
X155995761Y-119261000D01*
X156138619Y-119213380D01*
X156233857Y-119213380D01*
X156376714Y-119261000D01*
X156424333Y-119308619D01*
X157329095Y-119213380D02*
X156852904Y-119213380D01*
X156805285Y-119689571D01*
X156852904Y-119641952D01*
X156948142Y-119594333D01*
X157186238Y-119594333D01*
X157281476Y-119641952D01*
X157329095Y-119689571D01*
X157376714Y-119784809D01*
X157376714Y-120022904D01*
X157329095Y-120118142D01*
X157281476Y-120165761D01*
X157186238Y-120213380D01*
X156948142Y-120213380D01*
X156852904Y-120165761D01*
X156805285Y-120118142D01*
X154178095Y-77430380D02*
X154178095Y-78239904D01*
X154225714Y-78335142D01*
X154273333Y-78382761D01*
X154368571Y-78430380D01*
X154559047Y-78430380D01*
X154654285Y-78382761D01*
X154701904Y-78335142D01*
X154749523Y-78239904D01*
X154749523Y-77430380D01*
X155130476Y-77430380D02*
X155749523Y-77430380D01*
X155416190Y-77811333D01*
X155559047Y-77811333D01*
X155654285Y-77858952D01*
X155701904Y-77906571D01*
X155749523Y-78001809D01*
X155749523Y-78239904D01*
X155701904Y-78335142D01*
X155654285Y-78382761D01*
X155559047Y-78430380D01*
X155273333Y-78430380D01*
X155178095Y-78382761D01*
X155130476Y-78335142D01*
X158567380Y-136084523D02*
X157567380Y-136084523D01*
X158281666Y-135751190D01*
X157567380Y-135417857D01*
X158567380Y-135417857D01*
X158567380Y-134417857D02*
X158567380Y-134989285D01*
X158567380Y-134703571D02*
X157567380Y-134703571D01*
X157710238Y-134798809D01*
X157805476Y-134894047D01*
X157853095Y-134989285D01*
X158186380Y-71223095D02*
X157186380Y-71223095D01*
X157186380Y-70985000D01*
X157234000Y-70842142D01*
X157329238Y-70746904D01*
X157424476Y-70699285D01*
X157614952Y-70651666D01*
X157757809Y-70651666D01*
X157948285Y-70699285D01*
X158043523Y-70746904D01*
X158138761Y-70842142D01*
X158186380Y-70985000D01*
X158186380Y-71223095D01*
X158186380Y-69699285D02*
X158186380Y-70270714D01*
X158186380Y-69985000D02*
X157186380Y-69985000D01*
X157329238Y-70080238D01*
X157424476Y-70175476D01*
X157472095Y-70270714D01*
X158186380Y-75541095D02*
X157186380Y-75541095D01*
X157186380Y-75303000D01*
X157234000Y-75160142D01*
X157329238Y-75064904D01*
X157424476Y-75017285D01*
X157614952Y-74969666D01*
X157757809Y-74969666D01*
X157948285Y-75017285D01*
X158043523Y-75064904D01*
X158138761Y-75160142D01*
X158186380Y-75303000D01*
X158186380Y-75541095D01*
X157281619Y-74588714D02*
X157234000Y-74541095D01*
X157186380Y-74445857D01*
X157186380Y-74207761D01*
X157234000Y-74112523D01*
X157281619Y-74064904D01*
X157376857Y-74017285D01*
X157472095Y-74017285D01*
X157614952Y-74064904D01*
X158186380Y-74636333D01*
X158186380Y-74017285D01*
X143343333Y-77541380D02*
X143010000Y-77065190D01*
X142771904Y-77541380D02*
X142771904Y-76541380D01*
X143152857Y-76541380D01*
X143248095Y-76589000D01*
X143295714Y-76636619D01*
X143343333Y-76731857D01*
X143343333Y-76874714D01*
X143295714Y-76969952D01*
X143248095Y-77017571D01*
X143152857Y-77065190D01*
X142771904Y-77065190D01*
X143676666Y-76541380D02*
X144343333Y-76541380D01*
X143914761Y-77541380D01*
X157456142Y-77636666D02*
X157503761Y-77684285D01*
X157551380Y-77827142D01*
X157551380Y-77922380D01*
X157503761Y-78065238D01*
X157408523Y-78160476D01*
X157313285Y-78208095D01*
X157122809Y-78255714D01*
X156979952Y-78255714D01*
X156789476Y-78208095D01*
X156694238Y-78160476D01*
X156599000Y-78065238D01*
X156551380Y-77922380D01*
X156551380Y-77827142D01*
X156599000Y-77684285D01*
X156646619Y-77636666D01*
X156551380Y-77303333D02*
X156551380Y-76684285D01*
X156932333Y-77017619D01*
X156932333Y-76874761D01*
X156979952Y-76779523D01*
X157027571Y-76731904D01*
X157122809Y-76684285D01*
X157360904Y-76684285D01*
X157456142Y-76731904D01*
X157503761Y-76779523D01*
X157551380Y-76874761D01*
X157551380Y-77160476D01*
X157503761Y-77255714D01*
X157456142Y-77303333D01*
X163663333Y-62587142D02*
X163615714Y-62634761D01*
X163472857Y-62682380D01*
X163377619Y-62682380D01*
X163234761Y-62634761D01*
X163139523Y-62539523D01*
X163091904Y-62444285D01*
X163044285Y-62253809D01*
X163044285Y-62110952D01*
X163091904Y-61920476D01*
X163139523Y-61825238D01*
X163234761Y-61730000D01*
X163377619Y-61682380D01*
X163472857Y-61682380D01*
X163615714Y-61730000D01*
X163663333Y-61777619D01*
X164044285Y-61777619D02*
X164091904Y-61730000D01*
X164187142Y-61682380D01*
X164425238Y-61682380D01*
X164520476Y-61730000D01*
X164568095Y-61777619D01*
X164615714Y-61872857D01*
X164615714Y-61968095D01*
X164568095Y-62110952D01*
X163996666Y-62682380D01*
X164615714Y-62682380D01*
X138263333Y-69159380D02*
X137930000Y-68683190D01*
X137691904Y-69159380D02*
X137691904Y-68159380D01*
X138072857Y-68159380D01*
X138168095Y-68207000D01*
X138215714Y-68254619D01*
X138263333Y-68349857D01*
X138263333Y-68492714D01*
X138215714Y-68587952D01*
X138168095Y-68635571D01*
X138072857Y-68683190D01*
X137691904Y-68683190D01*
X139215714Y-69159380D02*
X138644285Y-69159380D01*
X138930000Y-69159380D02*
X138930000Y-68159380D01*
X138834761Y-68302238D01*
X138739523Y-68397476D01*
X138644285Y-68445095D01*
X159218333Y-63825380D02*
X158885000Y-63349190D01*
X158646904Y-63825380D02*
X158646904Y-62825380D01*
X159027857Y-62825380D01*
X159123095Y-62873000D01*
X159170714Y-62920619D01*
X159218333Y-63015857D01*
X159218333Y-63158714D01*
X159170714Y-63253952D01*
X159123095Y-63301571D01*
X159027857Y-63349190D01*
X158646904Y-63349190D01*
X160075476Y-62825380D02*
X159885000Y-62825380D01*
X159789761Y-62873000D01*
X159742142Y-62920619D01*
X159646904Y-63063476D01*
X159599285Y-63253952D01*
X159599285Y-63634904D01*
X159646904Y-63730142D01*
X159694523Y-63777761D01*
X159789761Y-63825380D01*
X159980238Y-63825380D01*
X160075476Y-63777761D01*
X160123095Y-63730142D01*
X160170714Y-63634904D01*
X160170714Y-63396809D01*
X160123095Y-63301571D01*
X160075476Y-63253952D01*
X159980238Y-63206333D01*
X159789761Y-63206333D01*
X159694523Y-63253952D01*
X159646904Y-63301571D01*
X159599285Y-63396809D01*
X146518333Y-69159380D02*
X146185000Y-68683190D01*
X145946904Y-69159380D02*
X145946904Y-68159380D01*
X146327857Y-68159380D01*
X146423095Y-68207000D01*
X146470714Y-68254619D01*
X146518333Y-68349857D01*
X146518333Y-68492714D01*
X146470714Y-68587952D01*
X146423095Y-68635571D01*
X146327857Y-68683190D01*
X145946904Y-68683190D01*
X146899285Y-68254619D02*
X146946904Y-68207000D01*
X147042142Y-68159380D01*
X147280238Y-68159380D01*
X147375476Y-68207000D01*
X147423095Y-68254619D01*
X147470714Y-68349857D01*
X147470714Y-68445095D01*
X147423095Y-68587952D01*
X146851666Y-69159380D01*
X147470714Y-69159380D01*
D12*
X155378000Y-116783000D02*
X155078000Y-116483000D01*
X155678000Y-116483000D02*
X155078000Y-116483000D01*
X152128000Y-118283000D02*
X152128000Y-117683000D01*
X155578000Y-118983000D02*
X152778000Y-118983000D01*
X156228000Y-117683000D02*
X156228000Y-118283000D01*
X152778000Y-116983000D02*
X155578000Y-116983000D01*
X155378000Y-116783000D02*
X155678000Y-116483000D01*
X155528000Y-118983000D02*
G75*
G03*
X156228000Y-118283000I1J699999D01*
G01*
X156228000Y-117683000D02*
G75*
G03*
X155528000Y-116983000I-699999J1D01*
G01*
X152828000Y-116983000D02*
G75*
G03*
X152128000Y-117683000I0J-700000D01*
G01*
X152128000Y-118283000D02*
G75*
G03*
X152828000Y-118983000I700000J0D01*
G01*
X155700000Y-100824420D02*
X155700000Y-101105580D01*
X156720000Y-100824420D02*
X156720000Y-101105580D01*
X152540580Y-76706000D02*
X152259420Y-76706000D01*
X152540580Y-77726000D02*
X152259420Y-77726000D01*
X162957742Y-63231500D02*
X163432258Y-63231500D01*
X162957742Y-64276500D02*
X163432258Y-64276500D01*
X141597748Y-76046000D02*
X142120252Y-76046000D01*
X141597748Y-74576000D02*
X142120252Y-74576000D01*
X162037500Y-67072742D02*
X162037500Y-67547258D01*
X163082500Y-67072742D02*
X163082500Y-67547258D01*
X138952500Y-75327742D02*
X138952500Y-75802258D01*
X137907500Y-75327742D02*
X137907500Y-75802258D01*
D13*
X155800000Y-104100000D02*
X155800000Y-105900000D01*
X155800000Y-105100000D02*
X155900000Y-105100000D01*
X155200000Y-104000000D02*
X155200000Y-103600000D01*
X155200000Y-103600000D02*
X155000000Y-103800000D01*
X154200000Y-104100000D02*
X154200000Y-105900000D01*
X155200000Y-106000000D02*
X155200000Y-106400000D01*
X155200000Y-103600000D02*
X155400000Y-103800000D01*
X154200000Y-105100000D02*
X154100000Y-105100000D01*
D14*
X154300000Y-106100000D02*
G75*
G03*
X154300000Y-106100000I-100000J0D01*
G01*
D12*
X155687500Y-94852258D02*
X155687500Y-94377742D01*
X156732500Y-94852258D02*
X156732500Y-94377742D01*
X137481000Y-81347000D02*
X138811000Y-81347000D01*
X140081000Y-81347000D02*
X142681000Y-81347000D01*
X142681000Y-81347000D02*
X142681000Y-89087000D01*
X137481000Y-89087000D02*
X142681000Y-89087000D01*
X137481000Y-83947000D02*
X140081000Y-83947000D01*
X137481000Y-82677000D02*
X137481000Y-81347000D01*
X137481000Y-83947000D02*
X137481000Y-89087000D01*
X140081000Y-83947000D02*
X140081000Y-81347000D01*
X155177258Y-98312500D02*
X154702742Y-98312500D01*
X155177258Y-97267500D02*
X154702742Y-97267500D01*
X159622258Y-66025500D02*
X159147742Y-66025500D01*
X159622258Y-67070500D02*
X159147742Y-67070500D01*
X148530000Y-72263000D02*
X151130000Y-72263000D01*
X148530000Y-69663000D02*
X149860000Y-69663000D01*
X148530000Y-72263000D02*
X148530000Y-74863000D01*
X148530000Y-70993000D02*
X148530000Y-69663000D01*
X148530000Y-74863000D02*
X153730000Y-74863000D01*
X151130000Y-72263000D02*
X151130000Y-69663000D01*
X151130000Y-69663000D02*
X153730000Y-69663000D01*
X153730000Y-69663000D02*
X153730000Y-74863000D01*
X156715000Y-68190000D02*
X156715000Y-61350000D01*
X156715000Y-68190000D02*
X153685000Y-68190000D01*
X156715000Y-61350000D02*
X153685000Y-61350000D01*
X149475000Y-68190000D02*
X149475000Y-61350000D01*
X152385000Y-68190000D02*
X149475000Y-68190000D01*
X152385000Y-61350000D02*
X149475000Y-61350000D01*
X156865000Y-126365000D02*
X156865000Y-128315000D01*
X151745000Y-126365000D02*
X151745000Y-128315000D01*
X151745000Y-126365000D02*
X151745000Y-124415000D01*
X156865000Y-126365000D02*
X156865000Y-122915000D01*
D13*
X167300000Y-62650000D02*
X167400000Y-62650000D01*
X166700000Y-63550000D02*
X166700000Y-63950000D01*
X166700000Y-61150000D02*
X166500000Y-61350000D01*
X167300000Y-61650000D02*
X167300000Y-63450000D01*
X165700000Y-61650000D02*
X165700000Y-63450000D01*
X166700000Y-61150000D02*
X166900000Y-61350000D01*
X166700000Y-61550000D02*
X166700000Y-61150000D01*
X165700000Y-62650000D02*
X165600000Y-62650000D01*
D14*
X165800000Y-63650000D02*
G75*
G03*
X165800000Y-63650000I-100000J0D01*
G01*
D10*
X141734000Y-79894000D02*
X138134000Y-79894000D01*
X137634000Y-78594000D02*
X138134000Y-78094000D01*
X138134000Y-78094000D02*
X141734000Y-78094000D01*
X142234000Y-78594000D02*
X142234000Y-79394000D01*
X137634000Y-79394000D02*
X137634000Y-78594000D01*
X142234000Y-79394000D02*
X141734000Y-79894000D01*
X138134000Y-79894000D02*
X137634000Y-79394000D01*
X141734000Y-78094000D02*
X142234000Y-78594000D01*
D12*
X147507000Y-77470000D02*
X147507000Y-87690000D01*
X144847000Y-77470000D02*
X144847000Y-87690000D01*
X144847000Y-77470000D02*
X147507000Y-77470000D01*
X144847000Y-76200000D02*
X144847000Y-74870000D01*
X144847000Y-87690000D02*
X147507000Y-87690000D01*
X144847000Y-74870000D02*
X146177000Y-74870000D01*
X140680000Y-71755000D02*
X140680000Y-70955000D01*
X140680000Y-71755000D02*
X140680000Y-73555000D01*
X143800000Y-71755000D02*
X143800000Y-72555000D01*
X143800000Y-71755000D02*
X143800000Y-70955000D01*
X137907500Y-72627258D02*
X137907500Y-72152742D01*
X138952500Y-72627258D02*
X138952500Y-72152742D01*
X140190000Y-67530000D02*
X139190000Y-67530000D01*
X147830000Y-61130000D02*
X147830000Y-60900000D01*
X147830000Y-64930000D02*
X147830000Y-63230000D01*
X147830000Y-67530000D02*
X146830000Y-67530000D01*
X147830000Y-60900000D02*
X139190000Y-60900000D01*
X139190000Y-67530000D02*
X139190000Y-67130000D01*
X139190000Y-61130000D02*
X139190000Y-60900000D01*
X147830000Y-67530000D02*
X147830000Y-67130000D01*
X139190000Y-64930000D02*
X139190000Y-63230000D01*
X156329748Y-122020000D02*
X156852252Y-122020000D01*
X156329748Y-120550000D02*
X156852252Y-120550000D01*
X152400000Y-78750000D02*
X154350000Y-78750000D01*
X152400000Y-87620000D02*
X150450000Y-87620000D01*
X152400000Y-87620000D02*
X154350000Y-87620000D01*
X152400000Y-78750000D02*
X148950000Y-78750000D01*
X156530000Y-132225000D02*
X156530000Y-135275000D01*
X153580000Y-132225000D02*
X156530000Y-132225000D01*
X151320000Y-131465000D02*
X151320000Y-139085000D01*
X152080000Y-135775000D02*
X152080000Y-134775000D01*
X157290000Y-139085000D02*
X157290000Y-131465000D01*
X152080000Y-131475000D02*
X151330000Y-131475000D01*
X153580000Y-131475000D02*
X153580000Y-132225000D01*
X151330000Y-139075000D02*
X152080000Y-139075000D01*
X151330000Y-134775000D02*
X151330000Y-135775000D01*
X152080000Y-139075000D02*
X152080000Y-137275000D01*
X151030000Y-138125000D02*
X151030000Y-139375000D01*
X157290000Y-131465000D02*
X151320000Y-131465000D01*
X152080000Y-137275000D02*
X151330000Y-137275000D01*
X151330000Y-135775000D02*
X152080000Y-135775000D01*
X151320000Y-139085000D02*
X157290000Y-139085000D01*
X151330000Y-131475000D02*
X151330000Y-133275000D01*
X153580000Y-139075000D02*
X153580000Y-138325000D01*
X153580000Y-138325000D02*
X156530000Y-138325000D01*
X152080000Y-133275000D02*
X152080000Y-131475000D01*
X151330000Y-137275000D02*
X151330000Y-139075000D01*
X152080000Y-134775000D02*
X151330000Y-134775000D01*
X151330000Y-133275000D02*
X152080000Y-133275000D01*
X156530000Y-138325000D02*
X156530000Y-135275000D01*
X151030000Y-139375000D02*
X152280000Y-139375000D01*
X156945000Y-71970000D02*
X156945000Y-69685000D01*
X155475000Y-71970000D02*
X156945000Y-71970000D01*
X155475000Y-69685000D02*
X155475000Y-71970000D01*
X155475000Y-74003000D02*
X155475000Y-76288000D01*
X155475000Y-76288000D02*
X156945000Y-76288000D01*
X156945000Y-76288000D02*
X156945000Y-74003000D01*
X142987500Y-79231258D02*
X142987500Y-78756742D01*
X144032500Y-79231258D02*
X144032500Y-78756742D01*
X157609000Y-80023580D02*
X157609000Y-79742420D01*
X156589000Y-80023580D02*
X156589000Y-79742420D01*
X163970580Y-60450000D02*
X163689420Y-60450000D01*
X163970580Y-61470000D02*
X163689420Y-61470000D01*
X140953258Y-69229500D02*
X140478742Y-69229500D01*
X140953258Y-68184500D02*
X140478742Y-68184500D01*
X159622258Y-62498500D02*
X159147742Y-62498500D01*
X159622258Y-61453500D02*
X159147742Y-61453500D01*
X143907742Y-68184500D02*
X144382258Y-68184500D01*
X143907742Y-69229500D02*
X144382258Y-69229500D01*
%LPC*%
D15*
X155478000Y-117983000D03*
D16*
X154178000Y-117983000D03*
D17*
X152878000Y-117983000D03*
D18*
X156210000Y-100190000D03*
X156210000Y-101740000D03*
D19*
X153175000Y-77216000D03*
X151625000Y-77216000D03*
D20*
X162370000Y-63754000D03*
X164020000Y-63754000D03*
D21*
X140909000Y-75311000D03*
X142809000Y-75311000D03*
D22*
X162560000Y-66485000D03*
X162560000Y-68135000D03*
X138430000Y-74740000D03*
X138430000Y-76390000D03*
D23*
X154620000Y-105500000D03*
X155380000Y-105500000D03*
X155380000Y-104500000D03*
X154620000Y-104500000D03*
D24*
X156210000Y-95440000D03*
X156210000Y-93790000D03*
D25*
X138811000Y-82677000D03*
D26*
X141351000Y-82677000D03*
X138811000Y-85217000D03*
X141351000Y-85217000D03*
X138811000Y-87757000D03*
X141351000Y-87757000D03*
D27*
X155765000Y-97790000D03*
X154115000Y-97790000D03*
X160210000Y-66548000D03*
X158560000Y-66548000D03*
D25*
X149860000Y-70993000D03*
D26*
X152400000Y-70993000D03*
X149860000Y-73533000D03*
X152400000Y-73533000D03*
D28*
X153035000Y-62230000D03*
X150495000Y-64770000D03*
X153035000Y-67310000D03*
D29*
X156210000Y-123890000D03*
X154940000Y-123890000D03*
X153670000Y-123890000D03*
X152400000Y-123890000D03*
X152400000Y-128840000D03*
X153670000Y-128840000D03*
X154940000Y-128840000D03*
X156210000Y-128840000D03*
D23*
X166120000Y-63050000D03*
X166880000Y-63050000D03*
X166880000Y-62050000D03*
X166120000Y-62050000D03*
D30*
X141204000Y-78994000D03*
X138664000Y-78994000D03*
D25*
X146177000Y-76200000D03*
D26*
X146177000Y-78740000D03*
X146177000Y-81280000D03*
X146177000Y-83820000D03*
X146177000Y-86360000D03*
D31*
X141290000Y-72892500D03*
X142240000Y-72892500D03*
X143190000Y-72892500D03*
X143190000Y-70617500D03*
X142240000Y-70617500D03*
X141290000Y-70617500D03*
D32*
X154500000Y-112000000D03*
D24*
X138430000Y-73215000D03*
X138430000Y-71565000D03*
D33*
X144010000Y-66780000D03*
D34*
X141990000Y-66780000D03*
D35*
X140760000Y-66780000D03*
D33*
X143010000Y-66780000D03*
D34*
X145030000Y-66780000D03*
D35*
X146260000Y-66780000D03*
D36*
X139190000Y-66030000D03*
X139190000Y-62230000D03*
X147830000Y-62230000D03*
X147830000Y-66030000D03*
D21*
X155641000Y-121285000D03*
X157541000Y-121285000D03*
D37*
X149925000Y-79375000D03*
X149925000Y-80645000D03*
X149925000Y-81915000D03*
X149925000Y-83185000D03*
X149925000Y-84455000D03*
X149925000Y-85725000D03*
X149925000Y-86995000D03*
X154875000Y-86995000D03*
X154875000Y-85725000D03*
X154875000Y-84455000D03*
X154875000Y-83185000D03*
X154875000Y-81915000D03*
X154875000Y-80645000D03*
X154875000Y-79375000D03*
D38*
X153780000Y-136525000D03*
D39*
X153780000Y-134025000D03*
D40*
X156210000Y-71272500D03*
X156210000Y-69697500D03*
X156210000Y-75590500D03*
X156210000Y-74015500D03*
D24*
X143510000Y-79819000D03*
X143510000Y-78169000D03*
D41*
X157099000Y-80658000D03*
X157099000Y-79108000D03*
D19*
X164605000Y-60960000D03*
X163055000Y-60960000D03*
D27*
X141541000Y-68707000D03*
X139891000Y-68707000D03*
X160210000Y-61976000D03*
X158560000Y-61976000D03*
D20*
X143320000Y-68707000D03*
X144970000Y-68707000D03*
M02*
