G04 #@! TF.GenerationSoftware,KiCad,Pcbnew,8.0.3*
G04 #@! TF.CreationDate,2024-08-18T22:06:24+09:00*
G04 #@! TF.ProjectId,AutoFeeder_Drum-type,4175746f-4665-4656-9465-725f4472756d,02*
G04 #@! TF.SameCoordinates,Original*
G04 #@! TF.FileFunction,Legend,Top*
G04 #@! TF.FilePolarity,Positive*
%FSLAX46Y46*%
G04 Gerber Fmt 4.6, Leading zero omitted, Abs format (unit mm)*
G04 Created by KiCad (PCBNEW 8.0.3) date 2024-08-18 22:06:24*
%MOMM*%
%LPD*%
G01*
G04 APERTURE LIST*
%ADD10C,0.150000*%
%ADD11C,0.200000*%
%ADD12C,0.120000*%
%ADD13C,0.500000*%
G04 APERTURE END LIST*
D10*
X105500000Y-105000000D02*
X106500000Y-105000000D01*
X106000000Y-104500000D02*
X106000000Y-105500000D01*
X117000000Y-122000000D02*
X117000000Y-127000000D01*
X117000000Y-133000000D02*
X117000000Y-136000000D01*
X117000000Y-90500000D02*
X117000000Y-107000000D01*
X100838800Y-116784285D02*
X100886419Y-116641428D01*
X100886419Y-116641428D02*
X100886419Y-116403333D01*
X100886419Y-116403333D02*
X100838800Y-116308095D01*
X100838800Y-116308095D02*
X100791180Y-116260476D01*
X100791180Y-116260476D02*
X100695942Y-116212857D01*
X100695942Y-116212857D02*
X100600704Y-116212857D01*
X100600704Y-116212857D02*
X100505466Y-116260476D01*
X100505466Y-116260476D02*
X100457847Y-116308095D01*
X100457847Y-116308095D02*
X100410228Y-116403333D01*
X100410228Y-116403333D02*
X100362609Y-116593809D01*
X100362609Y-116593809D02*
X100314990Y-116689047D01*
X100314990Y-116689047D02*
X100267371Y-116736666D01*
X100267371Y-116736666D02*
X100172133Y-116784285D01*
X100172133Y-116784285D02*
X100076895Y-116784285D01*
X100076895Y-116784285D02*
X99981657Y-116736666D01*
X99981657Y-116736666D02*
X99934038Y-116689047D01*
X99934038Y-116689047D02*
X99886419Y-116593809D01*
X99886419Y-116593809D02*
X99886419Y-116355714D01*
X99886419Y-116355714D02*
X99934038Y-116212857D01*
X100886419Y-115784285D02*
X99886419Y-115784285D01*
X99886419Y-115784285D02*
X99886419Y-115546190D01*
X99886419Y-115546190D02*
X99934038Y-115403333D01*
X99934038Y-115403333D02*
X100029276Y-115308095D01*
X100029276Y-115308095D02*
X100124514Y-115260476D01*
X100124514Y-115260476D02*
X100314990Y-115212857D01*
X100314990Y-115212857D02*
X100457847Y-115212857D01*
X100457847Y-115212857D02*
X100648323Y-115260476D01*
X100648323Y-115260476D02*
X100743561Y-115308095D01*
X100743561Y-115308095D02*
X100838800Y-115403333D01*
X100838800Y-115403333D02*
X100886419Y-115546190D01*
X100886419Y-115546190D02*
X100886419Y-115784285D01*
X100600704Y-114831904D02*
X100600704Y-114355714D01*
X100886419Y-114927142D02*
X99886419Y-114593809D01*
X99886419Y-114593809D02*
X100886419Y-114260476D01*
D11*
X106044999Y-118687161D02*
X106044999Y-118210971D01*
X105568809Y-118401447D02*
X106044999Y-118210971D01*
X106044999Y-118210971D02*
X106521190Y-118401447D01*
X105759285Y-117830019D02*
X106044999Y-118210971D01*
X106044999Y-118210971D02*
X106330714Y-117830019D01*
X111124999Y-131387161D02*
X111124999Y-130910971D01*
X110648809Y-131101447D02*
X111124999Y-130910971D01*
X111124999Y-130910971D02*
X111601190Y-131101447D01*
X110839285Y-130530019D02*
X111124999Y-130910971D01*
X111124999Y-130910971D02*
X111410714Y-130530019D01*
D10*
X117688152Y-104871905D02*
X118354819Y-104871905D01*
X117783390Y-104871905D02*
X117735771Y-104824286D01*
X117735771Y-104824286D02*
X117688152Y-104729048D01*
X117688152Y-104729048D02*
X117688152Y-104586191D01*
X117688152Y-104586191D02*
X117735771Y-104490953D01*
X117735771Y-104490953D02*
X117831009Y-104443334D01*
X117831009Y-104443334D02*
X118354819Y-104443334D01*
X118259580Y-103967143D02*
X118307200Y-103919524D01*
X118307200Y-103919524D02*
X118354819Y-103967143D01*
X118354819Y-103967143D02*
X118307200Y-104014762D01*
X118307200Y-104014762D02*
X118259580Y-103967143D01*
X118259580Y-103967143D02*
X118354819Y-103967143D01*
X118354819Y-103490953D02*
X117354819Y-103490953D01*
X117973866Y-103395715D02*
X118354819Y-103110001D01*
X117688152Y-103110001D02*
X118069104Y-103490953D01*
X117688152Y-101919524D02*
X118688152Y-101919524D01*
X117735771Y-101919524D02*
X117688152Y-101824286D01*
X117688152Y-101824286D02*
X117688152Y-101633810D01*
X117688152Y-101633810D02*
X117735771Y-101538572D01*
X117735771Y-101538572D02*
X117783390Y-101490953D01*
X117783390Y-101490953D02*
X117878628Y-101443334D01*
X117878628Y-101443334D02*
X118164342Y-101443334D01*
X118164342Y-101443334D02*
X118259580Y-101490953D01*
X118259580Y-101490953D02*
X118307200Y-101538572D01*
X118307200Y-101538572D02*
X118354819Y-101633810D01*
X118354819Y-101633810D02*
X118354819Y-101824286D01*
X118354819Y-101824286D02*
X118307200Y-101919524D01*
X118354819Y-101014762D02*
X117688152Y-101014762D01*
X117878628Y-101014762D02*
X117783390Y-100967143D01*
X117783390Y-100967143D02*
X117735771Y-100919524D01*
X117735771Y-100919524D02*
X117688152Y-100824286D01*
X117688152Y-100824286D02*
X117688152Y-100729048D01*
X118354819Y-100252857D02*
X118307200Y-100348095D01*
X118307200Y-100348095D02*
X118259580Y-100395714D01*
X118259580Y-100395714D02*
X118164342Y-100443333D01*
X118164342Y-100443333D02*
X117878628Y-100443333D01*
X117878628Y-100443333D02*
X117783390Y-100395714D01*
X117783390Y-100395714D02*
X117735771Y-100348095D01*
X117735771Y-100348095D02*
X117688152Y-100252857D01*
X117688152Y-100252857D02*
X117688152Y-100110000D01*
X117688152Y-100110000D02*
X117735771Y-100014762D01*
X117735771Y-100014762D02*
X117783390Y-99967143D01*
X117783390Y-99967143D02*
X117878628Y-99919524D01*
X117878628Y-99919524D02*
X118164342Y-99919524D01*
X118164342Y-99919524D02*
X118259580Y-99967143D01*
X118259580Y-99967143D02*
X118307200Y-100014762D01*
X118307200Y-100014762D02*
X118354819Y-100110000D01*
X118354819Y-100110000D02*
X118354819Y-100252857D01*
X118354819Y-99062381D02*
X117354819Y-99062381D01*
X118307200Y-99062381D02*
X118354819Y-99157619D01*
X118354819Y-99157619D02*
X118354819Y-99348095D01*
X118354819Y-99348095D02*
X118307200Y-99443333D01*
X118307200Y-99443333D02*
X118259580Y-99490952D01*
X118259580Y-99490952D02*
X118164342Y-99538571D01*
X118164342Y-99538571D02*
X117878628Y-99538571D01*
X117878628Y-99538571D02*
X117783390Y-99490952D01*
X117783390Y-99490952D02*
X117735771Y-99443333D01*
X117735771Y-99443333D02*
X117688152Y-99348095D01*
X117688152Y-99348095D02*
X117688152Y-99157619D01*
X117688152Y-99157619D02*
X117735771Y-99062381D01*
X117688152Y-98157619D02*
X118354819Y-98157619D01*
X117688152Y-98586190D02*
X118211961Y-98586190D01*
X118211961Y-98586190D02*
X118307200Y-98538571D01*
X118307200Y-98538571D02*
X118354819Y-98443333D01*
X118354819Y-98443333D02*
X118354819Y-98300476D01*
X118354819Y-98300476D02*
X118307200Y-98205238D01*
X118307200Y-98205238D02*
X118259580Y-98157619D01*
X118307200Y-97252857D02*
X118354819Y-97348095D01*
X118354819Y-97348095D02*
X118354819Y-97538571D01*
X118354819Y-97538571D02*
X118307200Y-97633809D01*
X118307200Y-97633809D02*
X118259580Y-97681428D01*
X118259580Y-97681428D02*
X118164342Y-97729047D01*
X118164342Y-97729047D02*
X117878628Y-97729047D01*
X117878628Y-97729047D02*
X117783390Y-97681428D01*
X117783390Y-97681428D02*
X117735771Y-97633809D01*
X117735771Y-97633809D02*
X117688152Y-97538571D01*
X117688152Y-97538571D02*
X117688152Y-97348095D01*
X117688152Y-97348095D02*
X117735771Y-97252857D01*
X117688152Y-96967142D02*
X117688152Y-96586190D01*
X117354819Y-96824285D02*
X118211961Y-96824285D01*
X118211961Y-96824285D02*
X118307200Y-96776666D01*
X118307200Y-96776666D02*
X118354819Y-96681428D01*
X118354819Y-96681428D02*
X118354819Y-96586190D01*
X118307200Y-96300475D02*
X118354819Y-96205237D01*
X118354819Y-96205237D02*
X118354819Y-96014761D01*
X118354819Y-96014761D02*
X118307200Y-95919523D01*
X118307200Y-95919523D02*
X118211961Y-95871904D01*
X118211961Y-95871904D02*
X118164342Y-95871904D01*
X118164342Y-95871904D02*
X118069104Y-95919523D01*
X118069104Y-95919523D02*
X118021485Y-96014761D01*
X118021485Y-96014761D02*
X118021485Y-96157618D01*
X118021485Y-96157618D02*
X117973866Y-96252856D01*
X117973866Y-96252856D02*
X117878628Y-96300475D01*
X117878628Y-96300475D02*
X117831009Y-96300475D01*
X117831009Y-96300475D02*
X117735771Y-96252856D01*
X117735771Y-96252856D02*
X117688152Y-96157618D01*
X117688152Y-96157618D02*
X117688152Y-96014761D01*
X117688152Y-96014761D02*
X117735771Y-95919523D01*
X117450057Y-94729046D02*
X117402438Y-94681427D01*
X117402438Y-94681427D02*
X117354819Y-94586189D01*
X117354819Y-94586189D02*
X117354819Y-94348094D01*
X117354819Y-94348094D02*
X117402438Y-94252856D01*
X117402438Y-94252856D02*
X117450057Y-94205237D01*
X117450057Y-94205237D02*
X117545295Y-94157618D01*
X117545295Y-94157618D02*
X117640533Y-94157618D01*
X117640533Y-94157618D02*
X117783390Y-94205237D01*
X117783390Y-94205237D02*
X118354819Y-94776665D01*
X118354819Y-94776665D02*
X118354819Y-94157618D01*
X117354819Y-93538570D02*
X117354819Y-93443332D01*
X117354819Y-93443332D02*
X117402438Y-93348094D01*
X117402438Y-93348094D02*
X117450057Y-93300475D01*
X117450057Y-93300475D02*
X117545295Y-93252856D01*
X117545295Y-93252856D02*
X117735771Y-93205237D01*
X117735771Y-93205237D02*
X117973866Y-93205237D01*
X117973866Y-93205237D02*
X118164342Y-93252856D01*
X118164342Y-93252856D02*
X118259580Y-93300475D01*
X118259580Y-93300475D02*
X118307200Y-93348094D01*
X118307200Y-93348094D02*
X118354819Y-93443332D01*
X118354819Y-93443332D02*
X118354819Y-93538570D01*
X118354819Y-93538570D02*
X118307200Y-93633808D01*
X118307200Y-93633808D02*
X118259580Y-93681427D01*
X118259580Y-93681427D02*
X118164342Y-93729046D01*
X118164342Y-93729046D02*
X117973866Y-93776665D01*
X117973866Y-93776665D02*
X117735771Y-93776665D01*
X117735771Y-93776665D02*
X117545295Y-93729046D01*
X117545295Y-93729046D02*
X117450057Y-93681427D01*
X117450057Y-93681427D02*
X117402438Y-93633808D01*
X117402438Y-93633808D02*
X117354819Y-93538570D01*
X117450057Y-92824284D02*
X117402438Y-92776665D01*
X117402438Y-92776665D02*
X117354819Y-92681427D01*
X117354819Y-92681427D02*
X117354819Y-92443332D01*
X117354819Y-92443332D02*
X117402438Y-92348094D01*
X117402438Y-92348094D02*
X117450057Y-92300475D01*
X117450057Y-92300475D02*
X117545295Y-92252856D01*
X117545295Y-92252856D02*
X117640533Y-92252856D01*
X117640533Y-92252856D02*
X117783390Y-92300475D01*
X117783390Y-92300475D02*
X118354819Y-92871903D01*
X118354819Y-92871903D02*
X118354819Y-92252856D01*
X117688152Y-91395713D02*
X118354819Y-91395713D01*
X117307200Y-91633808D02*
X118021485Y-91871903D01*
X118021485Y-91871903D02*
X118021485Y-91252856D01*
X100838800Y-112950475D02*
X100886419Y-112807618D01*
X100886419Y-112807618D02*
X100886419Y-112569523D01*
X100886419Y-112569523D02*
X100838800Y-112474285D01*
X100838800Y-112474285D02*
X100791180Y-112426666D01*
X100791180Y-112426666D02*
X100695942Y-112379047D01*
X100695942Y-112379047D02*
X100600704Y-112379047D01*
X100600704Y-112379047D02*
X100505466Y-112426666D01*
X100505466Y-112426666D02*
X100457847Y-112474285D01*
X100457847Y-112474285D02*
X100410228Y-112569523D01*
X100410228Y-112569523D02*
X100362609Y-112759999D01*
X100362609Y-112759999D02*
X100314990Y-112855237D01*
X100314990Y-112855237D02*
X100267371Y-112902856D01*
X100267371Y-112902856D02*
X100172133Y-112950475D01*
X100172133Y-112950475D02*
X100076895Y-112950475D01*
X100076895Y-112950475D02*
X99981657Y-112902856D01*
X99981657Y-112902856D02*
X99934038Y-112855237D01*
X99934038Y-112855237D02*
X99886419Y-112759999D01*
X99886419Y-112759999D02*
X99886419Y-112521904D01*
X99886419Y-112521904D02*
X99934038Y-112379047D01*
X100791180Y-111379047D02*
X100838800Y-111426666D01*
X100838800Y-111426666D02*
X100886419Y-111569523D01*
X100886419Y-111569523D02*
X100886419Y-111664761D01*
X100886419Y-111664761D02*
X100838800Y-111807618D01*
X100838800Y-111807618D02*
X100743561Y-111902856D01*
X100743561Y-111902856D02*
X100648323Y-111950475D01*
X100648323Y-111950475D02*
X100457847Y-111998094D01*
X100457847Y-111998094D02*
X100314990Y-111998094D01*
X100314990Y-111998094D02*
X100124514Y-111950475D01*
X100124514Y-111950475D02*
X100029276Y-111902856D01*
X100029276Y-111902856D02*
X99934038Y-111807618D01*
X99934038Y-111807618D02*
X99886419Y-111664761D01*
X99886419Y-111664761D02*
X99886419Y-111569523D01*
X99886419Y-111569523D02*
X99934038Y-111426666D01*
X99934038Y-111426666D02*
X99981657Y-111379047D01*
X100886419Y-110474285D02*
X100886419Y-110950475D01*
X100886419Y-110950475D02*
X99886419Y-110950475D01*
X93126838Y-112521904D02*
X93079219Y-112617142D01*
X93079219Y-112617142D02*
X93079219Y-112759999D01*
X93079219Y-112759999D02*
X93126838Y-112902856D01*
X93126838Y-112902856D02*
X93222076Y-112998094D01*
X93222076Y-112998094D02*
X93317314Y-113045713D01*
X93317314Y-113045713D02*
X93507790Y-113093332D01*
X93507790Y-113093332D02*
X93650647Y-113093332D01*
X93650647Y-113093332D02*
X93841123Y-113045713D01*
X93841123Y-113045713D02*
X93936361Y-112998094D01*
X93936361Y-112998094D02*
X94031600Y-112902856D01*
X94031600Y-112902856D02*
X94079219Y-112759999D01*
X94079219Y-112759999D02*
X94079219Y-112664761D01*
X94079219Y-112664761D02*
X94031600Y-112521904D01*
X94031600Y-112521904D02*
X93983980Y-112474285D01*
X93983980Y-112474285D02*
X93650647Y-112474285D01*
X93650647Y-112474285D02*
X93650647Y-112664761D01*
X94079219Y-112045713D02*
X93079219Y-112045713D01*
X93079219Y-112045713D02*
X94079219Y-111474285D01*
X94079219Y-111474285D02*
X93079219Y-111474285D01*
X94079219Y-110998094D02*
X93079219Y-110998094D01*
X93079219Y-110998094D02*
X93079219Y-110759999D01*
X93079219Y-110759999D02*
X93126838Y-110617142D01*
X93126838Y-110617142D02*
X93222076Y-110521904D01*
X93222076Y-110521904D02*
X93317314Y-110474285D01*
X93317314Y-110474285D02*
X93507790Y-110426666D01*
X93507790Y-110426666D02*
X93650647Y-110426666D01*
X93650647Y-110426666D02*
X93841123Y-110474285D01*
X93841123Y-110474285D02*
X93936361Y-110521904D01*
X93936361Y-110521904D02*
X94031600Y-110617142D01*
X94031600Y-110617142D02*
X94079219Y-110759999D01*
X94079219Y-110759999D02*
X94079219Y-110998094D01*
D11*
X110940161Y-109220000D02*
X110463971Y-109220000D01*
X110654447Y-109696190D02*
X110463971Y-109220000D01*
X110463971Y-109220000D02*
X110654447Y-108743809D01*
X110083019Y-109505714D02*
X110463971Y-109220000D01*
X110463971Y-109220000D02*
X110083019Y-108934285D01*
D10*
X93698266Y-116855713D02*
X93698266Y-116093809D01*
X94079219Y-116474761D02*
X93317314Y-116474761D01*
X93079219Y-115141428D02*
X93079219Y-115617618D01*
X93079219Y-115617618D02*
X93555409Y-115665237D01*
X93555409Y-115665237D02*
X93507790Y-115617618D01*
X93507790Y-115617618D02*
X93460171Y-115522380D01*
X93460171Y-115522380D02*
X93460171Y-115284285D01*
X93460171Y-115284285D02*
X93507790Y-115189047D01*
X93507790Y-115189047D02*
X93555409Y-115141428D01*
X93555409Y-115141428D02*
X93650647Y-115093809D01*
X93650647Y-115093809D02*
X93888742Y-115093809D01*
X93888742Y-115093809D02*
X93983980Y-115141428D01*
X93983980Y-115141428D02*
X94031600Y-115189047D01*
X94031600Y-115189047D02*
X94079219Y-115284285D01*
X94079219Y-115284285D02*
X94079219Y-115522380D01*
X94079219Y-115522380D02*
X94031600Y-115617618D01*
X94031600Y-115617618D02*
X93983980Y-115665237D01*
X93079219Y-114808094D02*
X94079219Y-114474761D01*
X94079219Y-114474761D02*
X93079219Y-114141428D01*
D11*
X94115161Y-130175000D02*
X93638971Y-130175000D01*
X93829447Y-130651190D02*
X93638971Y-130175000D01*
X93638971Y-130175000D02*
X93829447Y-129698809D01*
X93258019Y-130460714D02*
X93638971Y-130175000D01*
X93638971Y-130175000D02*
X93258019Y-129889285D01*
D10*
X116369104Y-104457143D02*
X116369104Y-103980953D01*
X116654819Y-104552381D02*
X115654819Y-104219048D01*
X115654819Y-104219048D02*
X116654819Y-103885715D01*
X115988152Y-103123810D02*
X116654819Y-103123810D01*
X115988152Y-103552381D02*
X116511961Y-103552381D01*
X116511961Y-103552381D02*
X116607200Y-103504762D01*
X116607200Y-103504762D02*
X116654819Y-103409524D01*
X116654819Y-103409524D02*
X116654819Y-103266667D01*
X116654819Y-103266667D02*
X116607200Y-103171429D01*
X116607200Y-103171429D02*
X116559580Y-103123810D01*
X115988152Y-102790476D02*
X115988152Y-102409524D01*
X115654819Y-102647619D02*
X116511961Y-102647619D01*
X116511961Y-102647619D02*
X116607200Y-102600000D01*
X116607200Y-102600000D02*
X116654819Y-102504762D01*
X116654819Y-102504762D02*
X116654819Y-102409524D01*
X116654819Y-101933333D02*
X116607200Y-102028571D01*
X116607200Y-102028571D02*
X116559580Y-102076190D01*
X116559580Y-102076190D02*
X116464342Y-102123809D01*
X116464342Y-102123809D02*
X116178628Y-102123809D01*
X116178628Y-102123809D02*
X116083390Y-102076190D01*
X116083390Y-102076190D02*
X116035771Y-102028571D01*
X116035771Y-102028571D02*
X115988152Y-101933333D01*
X115988152Y-101933333D02*
X115988152Y-101790476D01*
X115988152Y-101790476D02*
X116035771Y-101695238D01*
X116035771Y-101695238D02*
X116083390Y-101647619D01*
X116083390Y-101647619D02*
X116178628Y-101600000D01*
X116178628Y-101600000D02*
X116464342Y-101600000D01*
X116464342Y-101600000D02*
X116559580Y-101647619D01*
X116559580Y-101647619D02*
X116607200Y-101695238D01*
X116607200Y-101695238D02*
X116654819Y-101790476D01*
X116654819Y-101790476D02*
X116654819Y-101933333D01*
X116131009Y-100838095D02*
X116131009Y-101171428D01*
X116654819Y-101171428D02*
X115654819Y-101171428D01*
X115654819Y-101171428D02*
X115654819Y-100695238D01*
X116607200Y-99933333D02*
X116654819Y-100028571D01*
X116654819Y-100028571D02*
X116654819Y-100219047D01*
X116654819Y-100219047D02*
X116607200Y-100314285D01*
X116607200Y-100314285D02*
X116511961Y-100361904D01*
X116511961Y-100361904D02*
X116131009Y-100361904D01*
X116131009Y-100361904D02*
X116035771Y-100314285D01*
X116035771Y-100314285D02*
X115988152Y-100219047D01*
X115988152Y-100219047D02*
X115988152Y-100028571D01*
X115988152Y-100028571D02*
X116035771Y-99933333D01*
X116035771Y-99933333D02*
X116131009Y-99885714D01*
X116131009Y-99885714D02*
X116226247Y-99885714D01*
X116226247Y-99885714D02*
X116321485Y-100361904D01*
X116607200Y-99076190D02*
X116654819Y-99171428D01*
X116654819Y-99171428D02*
X116654819Y-99361904D01*
X116654819Y-99361904D02*
X116607200Y-99457142D01*
X116607200Y-99457142D02*
X116511961Y-99504761D01*
X116511961Y-99504761D02*
X116131009Y-99504761D01*
X116131009Y-99504761D02*
X116035771Y-99457142D01*
X116035771Y-99457142D02*
X115988152Y-99361904D01*
X115988152Y-99361904D02*
X115988152Y-99171428D01*
X115988152Y-99171428D02*
X116035771Y-99076190D01*
X116035771Y-99076190D02*
X116131009Y-99028571D01*
X116131009Y-99028571D02*
X116226247Y-99028571D01*
X116226247Y-99028571D02*
X116321485Y-99504761D01*
X116654819Y-98171428D02*
X115654819Y-98171428D01*
X116607200Y-98171428D02*
X116654819Y-98266666D01*
X116654819Y-98266666D02*
X116654819Y-98457142D01*
X116654819Y-98457142D02*
X116607200Y-98552380D01*
X116607200Y-98552380D02*
X116559580Y-98599999D01*
X116559580Y-98599999D02*
X116464342Y-98647618D01*
X116464342Y-98647618D02*
X116178628Y-98647618D01*
X116178628Y-98647618D02*
X116083390Y-98599999D01*
X116083390Y-98599999D02*
X116035771Y-98552380D01*
X116035771Y-98552380D02*
X115988152Y-98457142D01*
X115988152Y-98457142D02*
X115988152Y-98266666D01*
X115988152Y-98266666D02*
X116035771Y-98171428D01*
X116607200Y-97314285D02*
X116654819Y-97409523D01*
X116654819Y-97409523D02*
X116654819Y-97599999D01*
X116654819Y-97599999D02*
X116607200Y-97695237D01*
X116607200Y-97695237D02*
X116511961Y-97742856D01*
X116511961Y-97742856D02*
X116131009Y-97742856D01*
X116131009Y-97742856D02*
X116035771Y-97695237D01*
X116035771Y-97695237D02*
X115988152Y-97599999D01*
X115988152Y-97599999D02*
X115988152Y-97409523D01*
X115988152Y-97409523D02*
X116035771Y-97314285D01*
X116035771Y-97314285D02*
X116131009Y-97266666D01*
X116131009Y-97266666D02*
X116226247Y-97266666D01*
X116226247Y-97266666D02*
X116321485Y-97742856D01*
X116654819Y-96838094D02*
X115988152Y-96838094D01*
X116178628Y-96838094D02*
X116083390Y-96790475D01*
X116083390Y-96790475D02*
X116035771Y-96742856D01*
X116035771Y-96742856D02*
X115988152Y-96647618D01*
X115988152Y-96647618D02*
X115988152Y-96552380D01*
X115750057Y-96266665D02*
X115702438Y-96219046D01*
X115702438Y-96219046D02*
X115654819Y-96123808D01*
X115654819Y-96123808D02*
X115654819Y-95885713D01*
X115654819Y-95885713D02*
X115702438Y-95790475D01*
X115702438Y-95790475D02*
X115750057Y-95742856D01*
X115750057Y-95742856D02*
X115845295Y-95695237D01*
X115845295Y-95695237D02*
X115940533Y-95695237D01*
X115940533Y-95695237D02*
X116083390Y-95742856D01*
X116083390Y-95742856D02*
X116654819Y-96314284D01*
X116654819Y-96314284D02*
X116654819Y-95695237D01*
X116654819Y-94504760D02*
X115988152Y-94504760D01*
X116178628Y-94504760D02*
X116083390Y-94457141D01*
X116083390Y-94457141D02*
X116035771Y-94409522D01*
X116035771Y-94409522D02*
X115988152Y-94314284D01*
X115988152Y-94314284D02*
X115988152Y-94219046D01*
X116607200Y-93504760D02*
X116654819Y-93599998D01*
X116654819Y-93599998D02*
X116654819Y-93790474D01*
X116654819Y-93790474D02*
X116607200Y-93885712D01*
X116607200Y-93885712D02*
X116511961Y-93933331D01*
X116511961Y-93933331D02*
X116131009Y-93933331D01*
X116131009Y-93933331D02*
X116035771Y-93885712D01*
X116035771Y-93885712D02*
X115988152Y-93790474D01*
X115988152Y-93790474D02*
X115988152Y-93599998D01*
X115988152Y-93599998D02*
X116035771Y-93504760D01*
X116035771Y-93504760D02*
X116131009Y-93457141D01*
X116131009Y-93457141D02*
X116226247Y-93457141D01*
X116226247Y-93457141D02*
X116321485Y-93933331D01*
X115988152Y-93123807D02*
X116654819Y-92885712D01*
X116654819Y-92885712D02*
X115988152Y-92647617D01*
X115750057Y-92314283D02*
X115702438Y-92266664D01*
X115702438Y-92266664D02*
X115654819Y-92171426D01*
X115654819Y-92171426D02*
X115654819Y-91933331D01*
X115654819Y-91933331D02*
X115702438Y-91838093D01*
X115702438Y-91838093D02*
X115750057Y-91790474D01*
X115750057Y-91790474D02*
X115845295Y-91742855D01*
X115845295Y-91742855D02*
X115940533Y-91742855D01*
X115940533Y-91742855D02*
X116083390Y-91790474D01*
X116083390Y-91790474D02*
X116654819Y-92361902D01*
X116654819Y-92361902D02*
X116654819Y-91742855D01*
X113230819Y-96686666D02*
X112754628Y-97019999D01*
X113230819Y-97258094D02*
X112230819Y-97258094D01*
X112230819Y-97258094D02*
X112230819Y-96877142D01*
X112230819Y-96877142D02*
X112278438Y-96781904D01*
X112278438Y-96781904D02*
X112326057Y-96734285D01*
X112326057Y-96734285D02*
X112421295Y-96686666D01*
X112421295Y-96686666D02*
X112564152Y-96686666D01*
X112564152Y-96686666D02*
X112659390Y-96734285D01*
X112659390Y-96734285D02*
X112707009Y-96781904D01*
X112707009Y-96781904D02*
X112754628Y-96877142D01*
X112754628Y-96877142D02*
X112754628Y-97258094D01*
X112230819Y-96353332D02*
X112230819Y-95686666D01*
X112230819Y-95686666D02*
X113230819Y-96115237D01*
X100944819Y-109166666D02*
X100468628Y-109499999D01*
X100944819Y-109738094D02*
X99944819Y-109738094D01*
X99944819Y-109738094D02*
X99944819Y-109357142D01*
X99944819Y-109357142D02*
X99992438Y-109261904D01*
X99992438Y-109261904D02*
X100040057Y-109214285D01*
X100040057Y-109214285D02*
X100135295Y-109166666D01*
X100135295Y-109166666D02*
X100278152Y-109166666D01*
X100278152Y-109166666D02*
X100373390Y-109214285D01*
X100373390Y-109214285D02*
X100421009Y-109261904D01*
X100421009Y-109261904D02*
X100468628Y-109357142D01*
X100468628Y-109357142D02*
X100468628Y-109738094D01*
X99944819Y-108833332D02*
X99944819Y-108214285D01*
X99944819Y-108214285D02*
X100325771Y-108547618D01*
X100325771Y-108547618D02*
X100325771Y-108404761D01*
X100325771Y-108404761D02*
X100373390Y-108309523D01*
X100373390Y-108309523D02*
X100421009Y-108261904D01*
X100421009Y-108261904D02*
X100516247Y-108214285D01*
X100516247Y-108214285D02*
X100754342Y-108214285D01*
X100754342Y-108214285D02*
X100849580Y-108261904D01*
X100849580Y-108261904D02*
X100897200Y-108309523D01*
X100897200Y-108309523D02*
X100944819Y-108404761D01*
X100944819Y-108404761D02*
X100944819Y-108690475D01*
X100944819Y-108690475D02*
X100897200Y-108785713D01*
X100897200Y-108785713D02*
X100849580Y-108833332D01*
X122628819Y-118911666D02*
X122152628Y-119244999D01*
X122628819Y-119483094D02*
X121628819Y-119483094D01*
X121628819Y-119483094D02*
X121628819Y-119102142D01*
X121628819Y-119102142D02*
X121676438Y-119006904D01*
X121676438Y-119006904D02*
X121724057Y-118959285D01*
X121724057Y-118959285D02*
X121819295Y-118911666D01*
X121819295Y-118911666D02*
X121962152Y-118911666D01*
X121962152Y-118911666D02*
X122057390Y-118959285D01*
X122057390Y-118959285D02*
X122105009Y-119006904D01*
X122105009Y-119006904D02*
X122152628Y-119102142D01*
X122152628Y-119102142D02*
X122152628Y-119483094D01*
X121628819Y-118006904D02*
X121628819Y-118483094D01*
X121628819Y-118483094D02*
X122105009Y-118530713D01*
X122105009Y-118530713D02*
X122057390Y-118483094D01*
X122057390Y-118483094D02*
X122009771Y-118387856D01*
X122009771Y-118387856D02*
X122009771Y-118149761D01*
X122009771Y-118149761D02*
X122057390Y-118054523D01*
X122057390Y-118054523D02*
X122105009Y-118006904D01*
X122105009Y-118006904D02*
X122200247Y-117959285D01*
X122200247Y-117959285D02*
X122438342Y-117959285D01*
X122438342Y-117959285D02*
X122533580Y-118006904D01*
X122533580Y-118006904D02*
X122581200Y-118054523D01*
X122581200Y-118054523D02*
X122628819Y-118149761D01*
X122628819Y-118149761D02*
X122628819Y-118387856D01*
X122628819Y-118387856D02*
X122581200Y-118483094D01*
X122581200Y-118483094D02*
X122533580Y-118530713D01*
X96641666Y-109741619D02*
X96641666Y-110455904D01*
X96641666Y-110455904D02*
X96594047Y-110598761D01*
X96594047Y-110598761D02*
X96498809Y-110694000D01*
X96498809Y-110694000D02*
X96355952Y-110741619D01*
X96355952Y-110741619D02*
X96260714Y-110741619D01*
X97022619Y-109741619D02*
X97641666Y-109741619D01*
X97641666Y-109741619D02*
X97308333Y-110122571D01*
X97308333Y-110122571D02*
X97451190Y-110122571D01*
X97451190Y-110122571D02*
X97546428Y-110170190D01*
X97546428Y-110170190D02*
X97594047Y-110217809D01*
X97594047Y-110217809D02*
X97641666Y-110313047D01*
X97641666Y-110313047D02*
X97641666Y-110551142D01*
X97641666Y-110551142D02*
X97594047Y-110646380D01*
X97594047Y-110646380D02*
X97546428Y-110694000D01*
X97546428Y-110694000D02*
X97451190Y-110741619D01*
X97451190Y-110741619D02*
X97165476Y-110741619D01*
X97165476Y-110741619D02*
X97070238Y-110694000D01*
X97070238Y-110694000D02*
X97022619Y-110646380D01*
X111453333Y-124946580D02*
X111405714Y-124994200D01*
X111405714Y-124994200D02*
X111262857Y-125041819D01*
X111262857Y-125041819D02*
X111167619Y-125041819D01*
X111167619Y-125041819D02*
X111024762Y-124994200D01*
X111024762Y-124994200D02*
X110929524Y-124898961D01*
X110929524Y-124898961D02*
X110881905Y-124803723D01*
X110881905Y-124803723D02*
X110834286Y-124613247D01*
X110834286Y-124613247D02*
X110834286Y-124470390D01*
X110834286Y-124470390D02*
X110881905Y-124279914D01*
X110881905Y-124279914D02*
X110929524Y-124184676D01*
X110929524Y-124184676D02*
X111024762Y-124089438D01*
X111024762Y-124089438D02*
X111167619Y-124041819D01*
X111167619Y-124041819D02*
X111262857Y-124041819D01*
X111262857Y-124041819D02*
X111405714Y-124089438D01*
X111405714Y-124089438D02*
X111453333Y-124137057D01*
X112405714Y-125041819D02*
X111834286Y-125041819D01*
X112120000Y-125041819D02*
X112120000Y-124041819D01*
X112120000Y-124041819D02*
X112024762Y-124184676D01*
X112024762Y-124184676D02*
X111929524Y-124279914D01*
X111929524Y-124279914D02*
X111834286Y-124327533D01*
X106023580Y-107227666D02*
X106071200Y-107275285D01*
X106071200Y-107275285D02*
X106118819Y-107418142D01*
X106118819Y-107418142D02*
X106118819Y-107513380D01*
X106118819Y-107513380D02*
X106071200Y-107656237D01*
X106071200Y-107656237D02*
X105975961Y-107751475D01*
X105975961Y-107751475D02*
X105880723Y-107799094D01*
X105880723Y-107799094D02*
X105690247Y-107846713D01*
X105690247Y-107846713D02*
X105547390Y-107846713D01*
X105547390Y-107846713D02*
X105356914Y-107799094D01*
X105356914Y-107799094D02*
X105261676Y-107751475D01*
X105261676Y-107751475D02*
X105166438Y-107656237D01*
X105166438Y-107656237D02*
X105118819Y-107513380D01*
X105118819Y-107513380D02*
X105118819Y-107418142D01*
X105118819Y-107418142D02*
X105166438Y-107275285D01*
X105166438Y-107275285D02*
X105214057Y-107227666D01*
X105118819Y-106322904D02*
X105118819Y-106799094D01*
X105118819Y-106799094D02*
X105595009Y-106846713D01*
X105595009Y-106846713D02*
X105547390Y-106799094D01*
X105547390Y-106799094D02*
X105499771Y-106703856D01*
X105499771Y-106703856D02*
X105499771Y-106465761D01*
X105499771Y-106465761D02*
X105547390Y-106370523D01*
X105547390Y-106370523D02*
X105595009Y-106322904D01*
X105595009Y-106322904D02*
X105690247Y-106275285D01*
X105690247Y-106275285D02*
X105928342Y-106275285D01*
X105928342Y-106275285D02*
X106023580Y-106322904D01*
X106023580Y-106322904D02*
X106071200Y-106370523D01*
X106071200Y-106370523D02*
X106118819Y-106465761D01*
X106118819Y-106465761D02*
X106118819Y-106703856D01*
X106118819Y-106703856D02*
X106071200Y-106799094D01*
X106071200Y-106799094D02*
X106023580Y-106846713D01*
X114133333Y-104880580D02*
X114085714Y-104928200D01*
X114085714Y-104928200D02*
X113942857Y-104975819D01*
X113942857Y-104975819D02*
X113847619Y-104975819D01*
X113847619Y-104975819D02*
X113704762Y-104928200D01*
X113704762Y-104928200D02*
X113609524Y-104832961D01*
X113609524Y-104832961D02*
X113561905Y-104737723D01*
X113561905Y-104737723D02*
X113514286Y-104547247D01*
X113514286Y-104547247D02*
X113514286Y-104404390D01*
X113514286Y-104404390D02*
X113561905Y-104213914D01*
X113561905Y-104213914D02*
X113609524Y-104118676D01*
X113609524Y-104118676D02*
X113704762Y-104023438D01*
X113704762Y-104023438D02*
X113847619Y-103975819D01*
X113847619Y-103975819D02*
X113942857Y-103975819D01*
X113942857Y-103975819D02*
X114085714Y-104023438D01*
X114085714Y-104023438D02*
X114133333Y-104071057D01*
X114514286Y-104071057D02*
X114561905Y-104023438D01*
X114561905Y-104023438D02*
X114657143Y-103975819D01*
X114657143Y-103975819D02*
X114895238Y-103975819D01*
X114895238Y-103975819D02*
X114990476Y-104023438D01*
X114990476Y-104023438D02*
X115038095Y-104071057D01*
X115038095Y-104071057D02*
X115085714Y-104166295D01*
X115085714Y-104166295D02*
X115085714Y-104261533D01*
X115085714Y-104261533D02*
X115038095Y-104404390D01*
X115038095Y-104404390D02*
X114466667Y-104975819D01*
X114466667Y-104975819D02*
X115085714Y-104975819D01*
X112374819Y-99702857D02*
X111898628Y-100036190D01*
X112374819Y-100274285D02*
X111374819Y-100274285D01*
X111374819Y-100274285D02*
X111374819Y-99893333D01*
X111374819Y-99893333D02*
X111422438Y-99798095D01*
X111422438Y-99798095D02*
X111470057Y-99750476D01*
X111470057Y-99750476D02*
X111565295Y-99702857D01*
X111565295Y-99702857D02*
X111708152Y-99702857D01*
X111708152Y-99702857D02*
X111803390Y-99750476D01*
X111803390Y-99750476D02*
X111851009Y-99798095D01*
X111851009Y-99798095D02*
X111898628Y-99893333D01*
X111898628Y-99893333D02*
X111898628Y-100274285D01*
X112374819Y-98750476D02*
X112374819Y-99321904D01*
X112374819Y-99036190D02*
X111374819Y-99036190D01*
X111374819Y-99036190D02*
X111517676Y-99131428D01*
X111517676Y-99131428D02*
X111612914Y-99226666D01*
X111612914Y-99226666D02*
X111660533Y-99321904D01*
X112374819Y-97798095D02*
X112374819Y-98369523D01*
X112374819Y-98083809D02*
X111374819Y-98083809D01*
X111374819Y-98083809D02*
X111517676Y-98179047D01*
X111517676Y-98179047D02*
X111612914Y-98274285D01*
X111612914Y-98274285D02*
X111660533Y-98369523D01*
X116532819Y-123991666D02*
X116056628Y-124324999D01*
X116532819Y-124563094D02*
X115532819Y-124563094D01*
X115532819Y-124563094D02*
X115532819Y-124182142D01*
X115532819Y-124182142D02*
X115580438Y-124086904D01*
X115580438Y-124086904D02*
X115628057Y-124039285D01*
X115628057Y-124039285D02*
X115723295Y-123991666D01*
X115723295Y-123991666D02*
X115866152Y-123991666D01*
X115866152Y-123991666D02*
X115961390Y-124039285D01*
X115961390Y-124039285D02*
X116009009Y-124086904D01*
X116009009Y-124086904D02*
X116056628Y-124182142D01*
X116056628Y-124182142D02*
X116056628Y-124563094D01*
X115866152Y-123134523D02*
X116532819Y-123134523D01*
X115485200Y-123372618D02*
X116199485Y-123610713D01*
X116199485Y-123610713D02*
X116199485Y-122991666D01*
X107769819Y-111291666D02*
X107293628Y-111624999D01*
X107769819Y-111863094D02*
X106769819Y-111863094D01*
X106769819Y-111863094D02*
X106769819Y-111482142D01*
X106769819Y-111482142D02*
X106817438Y-111386904D01*
X106817438Y-111386904D02*
X106865057Y-111339285D01*
X106865057Y-111339285D02*
X106960295Y-111291666D01*
X106960295Y-111291666D02*
X107103152Y-111291666D01*
X107103152Y-111291666D02*
X107198390Y-111339285D01*
X107198390Y-111339285D02*
X107246009Y-111386904D01*
X107246009Y-111386904D02*
X107293628Y-111482142D01*
X107293628Y-111482142D02*
X107293628Y-111863094D01*
X106769819Y-110434523D02*
X106769819Y-110624999D01*
X106769819Y-110624999D02*
X106817438Y-110720237D01*
X106817438Y-110720237D02*
X106865057Y-110767856D01*
X106865057Y-110767856D02*
X107007914Y-110863094D01*
X107007914Y-110863094D02*
X107198390Y-110910713D01*
X107198390Y-110910713D02*
X107579342Y-110910713D01*
X107579342Y-110910713D02*
X107674580Y-110863094D01*
X107674580Y-110863094D02*
X107722200Y-110815475D01*
X107722200Y-110815475D02*
X107769819Y-110720237D01*
X107769819Y-110720237D02*
X107769819Y-110529761D01*
X107769819Y-110529761D02*
X107722200Y-110434523D01*
X107722200Y-110434523D02*
X107674580Y-110386904D01*
X107674580Y-110386904D02*
X107579342Y-110339285D01*
X107579342Y-110339285D02*
X107341247Y-110339285D01*
X107341247Y-110339285D02*
X107246009Y-110386904D01*
X107246009Y-110386904D02*
X107198390Y-110434523D01*
X107198390Y-110434523D02*
X107150771Y-110529761D01*
X107150771Y-110529761D02*
X107150771Y-110720237D01*
X107150771Y-110720237D02*
X107198390Y-110815475D01*
X107198390Y-110815475D02*
X107246009Y-110863094D01*
X107246009Y-110863094D02*
X107341247Y-110910713D01*
X102108095Y-130264819D02*
X102108095Y-131074342D01*
X102108095Y-131074342D02*
X102155714Y-131169580D01*
X102155714Y-131169580D02*
X102203333Y-131217200D01*
X102203333Y-131217200D02*
X102298571Y-131264819D01*
X102298571Y-131264819D02*
X102489047Y-131264819D01*
X102489047Y-131264819D02*
X102584285Y-131217200D01*
X102584285Y-131217200D02*
X102631904Y-131169580D01*
X102631904Y-131169580D02*
X102679523Y-131074342D01*
X102679523Y-131074342D02*
X102679523Y-130264819D01*
X103584285Y-130264819D02*
X103393809Y-130264819D01*
X103393809Y-130264819D02*
X103298571Y-130312438D01*
X103298571Y-130312438D02*
X103250952Y-130360057D01*
X103250952Y-130360057D02*
X103155714Y-130502914D01*
X103155714Y-130502914D02*
X103108095Y-130693390D01*
X103108095Y-130693390D02*
X103108095Y-131074342D01*
X103108095Y-131074342D02*
X103155714Y-131169580D01*
X103155714Y-131169580D02*
X103203333Y-131217200D01*
X103203333Y-131217200D02*
X103298571Y-131264819D01*
X103298571Y-131264819D02*
X103489047Y-131264819D01*
X103489047Y-131264819D02*
X103584285Y-131217200D01*
X103584285Y-131217200D02*
X103631904Y-131169580D01*
X103631904Y-131169580D02*
X103679523Y-131074342D01*
X103679523Y-131074342D02*
X103679523Y-130836247D01*
X103679523Y-130836247D02*
X103631904Y-130741009D01*
X103631904Y-130741009D02*
X103584285Y-130693390D01*
X103584285Y-130693390D02*
X103489047Y-130645771D01*
X103489047Y-130645771D02*
X103298571Y-130645771D01*
X103298571Y-130645771D02*
X103203333Y-130693390D01*
X103203333Y-130693390D02*
X103155714Y-130741009D01*
X103155714Y-130741009D02*
X103108095Y-130836247D01*
X113230819Y-93448094D02*
X112230819Y-93448094D01*
X112230819Y-93448094D02*
X112230819Y-93209999D01*
X112230819Y-93209999D02*
X112278438Y-93067142D01*
X112278438Y-93067142D02*
X112373676Y-92971904D01*
X112373676Y-92971904D02*
X112468914Y-92924285D01*
X112468914Y-92924285D02*
X112659390Y-92876666D01*
X112659390Y-92876666D02*
X112802247Y-92876666D01*
X112802247Y-92876666D02*
X112992723Y-92924285D01*
X112992723Y-92924285D02*
X113087961Y-92971904D01*
X113087961Y-92971904D02*
X113183200Y-93067142D01*
X113183200Y-93067142D02*
X113230819Y-93209999D01*
X113230819Y-93209999D02*
X113230819Y-93448094D01*
X112230819Y-92543332D02*
X112230819Y-91924285D01*
X112230819Y-91924285D02*
X112611771Y-92257618D01*
X112611771Y-92257618D02*
X112611771Y-92114761D01*
X112611771Y-92114761D02*
X112659390Y-92019523D01*
X112659390Y-92019523D02*
X112707009Y-91971904D01*
X112707009Y-91971904D02*
X112802247Y-91924285D01*
X112802247Y-91924285D02*
X113040342Y-91924285D01*
X113040342Y-91924285D02*
X113135580Y-91971904D01*
X113135580Y-91971904D02*
X113183200Y-92019523D01*
X113183200Y-92019523D02*
X113230819Y-92114761D01*
X113230819Y-92114761D02*
X113230819Y-92400475D01*
X113230819Y-92400475D02*
X113183200Y-92495713D01*
X113183200Y-92495713D02*
X113135580Y-92543332D01*
X93180819Y-133548333D02*
X93895104Y-133548333D01*
X93895104Y-133548333D02*
X94037961Y-133595952D01*
X94037961Y-133595952D02*
X94133200Y-133691190D01*
X94133200Y-133691190D02*
X94180819Y-133834047D01*
X94180819Y-133834047D02*
X94180819Y-133929285D01*
X94180819Y-133072142D02*
X93180819Y-133072142D01*
X93180819Y-133072142D02*
X93180819Y-132691190D01*
X93180819Y-132691190D02*
X93228438Y-132595952D01*
X93228438Y-132595952D02*
X93276057Y-132548333D01*
X93276057Y-132548333D02*
X93371295Y-132500714D01*
X93371295Y-132500714D02*
X93514152Y-132500714D01*
X93514152Y-132500714D02*
X93609390Y-132548333D01*
X93609390Y-132548333D02*
X93657009Y-132595952D01*
X93657009Y-132595952D02*
X93704628Y-132691190D01*
X93704628Y-132691190D02*
X93704628Y-133072142D01*
X93276057Y-132119761D02*
X93228438Y-132072142D01*
X93228438Y-132072142D02*
X93180819Y-131976904D01*
X93180819Y-131976904D02*
X93180819Y-131738809D01*
X93180819Y-131738809D02*
X93228438Y-131643571D01*
X93228438Y-131643571D02*
X93276057Y-131595952D01*
X93276057Y-131595952D02*
X93371295Y-131548333D01*
X93371295Y-131548333D02*
X93466533Y-131548333D01*
X93466533Y-131548333D02*
X93609390Y-131595952D01*
X93609390Y-131595952D02*
X94180819Y-132167380D01*
X94180819Y-132167380D02*
X94180819Y-131548333D01*
X112074819Y-136016904D02*
X112884342Y-136016904D01*
X112884342Y-136016904D02*
X112979580Y-135969285D01*
X112979580Y-135969285D02*
X113027200Y-135921666D01*
X113027200Y-135921666D02*
X113074819Y-135826428D01*
X113074819Y-135826428D02*
X113074819Y-135635952D01*
X113074819Y-135635952D02*
X113027200Y-135540714D01*
X113027200Y-135540714D02*
X112979580Y-135493095D01*
X112979580Y-135493095D02*
X112884342Y-135445476D01*
X112884342Y-135445476D02*
X112074819Y-135445476D01*
X112170057Y-135016904D02*
X112122438Y-134969285D01*
X112122438Y-134969285D02*
X112074819Y-134874047D01*
X112074819Y-134874047D02*
X112074819Y-134635952D01*
X112074819Y-134635952D02*
X112122438Y-134540714D01*
X112122438Y-134540714D02*
X112170057Y-134493095D01*
X112170057Y-134493095D02*
X112265295Y-134445476D01*
X112265295Y-134445476D02*
X112360533Y-134445476D01*
X112360533Y-134445476D02*
X112503390Y-134493095D01*
X112503390Y-134493095D02*
X113074819Y-135064523D01*
X113074819Y-135064523D02*
X113074819Y-134445476D01*
X108251666Y-122009819D02*
X108251666Y-122724104D01*
X108251666Y-122724104D02*
X108204047Y-122866961D01*
X108204047Y-122866961D02*
X108108809Y-122962200D01*
X108108809Y-122962200D02*
X107965952Y-123009819D01*
X107965952Y-123009819D02*
X107870714Y-123009819D01*
X108680238Y-122105057D02*
X108727857Y-122057438D01*
X108727857Y-122057438D02*
X108823095Y-122009819D01*
X108823095Y-122009819D02*
X109061190Y-122009819D01*
X109061190Y-122009819D02*
X109156428Y-122057438D01*
X109156428Y-122057438D02*
X109204047Y-122105057D01*
X109204047Y-122105057D02*
X109251666Y-122200295D01*
X109251666Y-122200295D02*
X109251666Y-122295533D01*
X109251666Y-122295533D02*
X109204047Y-122438390D01*
X109204047Y-122438390D02*
X108632619Y-123009819D01*
X108632619Y-123009819D02*
X109251666Y-123009819D01*
X104368200Y-97218332D02*
X104415819Y-97075475D01*
X104415819Y-97075475D02*
X104415819Y-96837380D01*
X104415819Y-96837380D02*
X104368200Y-96742142D01*
X104368200Y-96742142D02*
X104320580Y-96694523D01*
X104320580Y-96694523D02*
X104225342Y-96646904D01*
X104225342Y-96646904D02*
X104130104Y-96646904D01*
X104130104Y-96646904D02*
X104034866Y-96694523D01*
X104034866Y-96694523D02*
X103987247Y-96742142D01*
X103987247Y-96742142D02*
X103939628Y-96837380D01*
X103939628Y-96837380D02*
X103892009Y-97027856D01*
X103892009Y-97027856D02*
X103844390Y-97123094D01*
X103844390Y-97123094D02*
X103796771Y-97170713D01*
X103796771Y-97170713D02*
X103701533Y-97218332D01*
X103701533Y-97218332D02*
X103606295Y-97218332D01*
X103606295Y-97218332D02*
X103511057Y-97170713D01*
X103511057Y-97170713D02*
X103463438Y-97123094D01*
X103463438Y-97123094D02*
X103415819Y-97027856D01*
X103415819Y-97027856D02*
X103415819Y-96789761D01*
X103415819Y-96789761D02*
X103463438Y-96646904D01*
X103415819Y-96313570D02*
X104415819Y-96075475D01*
X104415819Y-96075475D02*
X103701533Y-95884999D01*
X103701533Y-95884999D02*
X104415819Y-95694523D01*
X104415819Y-95694523D02*
X103415819Y-95456428D01*
X104415819Y-94551666D02*
X104415819Y-95123094D01*
X104415819Y-94837380D02*
X103415819Y-94837380D01*
X103415819Y-94837380D02*
X103558676Y-94932618D01*
X103558676Y-94932618D02*
X103653914Y-95027856D01*
X103653914Y-95027856D02*
X103701533Y-95123094D01*
X122628819Y-111291666D02*
X122152628Y-111624999D01*
X122628819Y-111863094D02*
X121628819Y-111863094D01*
X121628819Y-111863094D02*
X121628819Y-111482142D01*
X121628819Y-111482142D02*
X121676438Y-111386904D01*
X121676438Y-111386904D02*
X121724057Y-111339285D01*
X121724057Y-111339285D02*
X121819295Y-111291666D01*
X121819295Y-111291666D02*
X121962152Y-111291666D01*
X121962152Y-111291666D02*
X122057390Y-111339285D01*
X122057390Y-111339285D02*
X122105009Y-111386904D01*
X122105009Y-111386904D02*
X122152628Y-111482142D01*
X122152628Y-111482142D02*
X122152628Y-111863094D01*
X122628819Y-110815475D02*
X122628819Y-110624999D01*
X122628819Y-110624999D02*
X122581200Y-110529761D01*
X122581200Y-110529761D02*
X122533580Y-110482142D01*
X122533580Y-110482142D02*
X122390723Y-110386904D01*
X122390723Y-110386904D02*
X122200247Y-110339285D01*
X122200247Y-110339285D02*
X121819295Y-110339285D01*
X121819295Y-110339285D02*
X121724057Y-110386904D01*
X121724057Y-110386904D02*
X121676438Y-110434523D01*
X121676438Y-110434523D02*
X121628819Y-110529761D01*
X121628819Y-110529761D02*
X121628819Y-110720237D01*
X121628819Y-110720237D02*
X121676438Y-110815475D01*
X121676438Y-110815475D02*
X121724057Y-110863094D01*
X121724057Y-110863094D02*
X121819295Y-110910713D01*
X121819295Y-110910713D02*
X122057390Y-110910713D01*
X122057390Y-110910713D02*
X122152628Y-110863094D01*
X122152628Y-110863094D02*
X122200247Y-110815475D01*
X122200247Y-110815475D02*
X122247866Y-110720237D01*
X122247866Y-110720237D02*
X122247866Y-110529761D01*
X122247866Y-110529761D02*
X122200247Y-110434523D01*
X122200247Y-110434523D02*
X122152628Y-110386904D01*
X122152628Y-110386904D02*
X122057390Y-110339285D01*
X122628819Y-115101666D02*
X122152628Y-115434999D01*
X122628819Y-115673094D02*
X121628819Y-115673094D01*
X121628819Y-115673094D02*
X121628819Y-115292142D01*
X121628819Y-115292142D02*
X121676438Y-115196904D01*
X121676438Y-115196904D02*
X121724057Y-115149285D01*
X121724057Y-115149285D02*
X121819295Y-115101666D01*
X121819295Y-115101666D02*
X121962152Y-115101666D01*
X121962152Y-115101666D02*
X122057390Y-115149285D01*
X122057390Y-115149285D02*
X122105009Y-115196904D01*
X122105009Y-115196904D02*
X122152628Y-115292142D01*
X122152628Y-115292142D02*
X122152628Y-115673094D01*
X122057390Y-114530237D02*
X122009771Y-114625475D01*
X122009771Y-114625475D02*
X121962152Y-114673094D01*
X121962152Y-114673094D02*
X121866914Y-114720713D01*
X121866914Y-114720713D02*
X121819295Y-114720713D01*
X121819295Y-114720713D02*
X121724057Y-114673094D01*
X121724057Y-114673094D02*
X121676438Y-114625475D01*
X121676438Y-114625475D02*
X121628819Y-114530237D01*
X121628819Y-114530237D02*
X121628819Y-114339761D01*
X121628819Y-114339761D02*
X121676438Y-114244523D01*
X121676438Y-114244523D02*
X121724057Y-114196904D01*
X121724057Y-114196904D02*
X121819295Y-114149285D01*
X121819295Y-114149285D02*
X121866914Y-114149285D01*
X121866914Y-114149285D02*
X121962152Y-114196904D01*
X121962152Y-114196904D02*
X122009771Y-114244523D01*
X122009771Y-114244523D02*
X122057390Y-114339761D01*
X122057390Y-114339761D02*
X122057390Y-114530237D01*
X122057390Y-114530237D02*
X122105009Y-114625475D01*
X122105009Y-114625475D02*
X122152628Y-114673094D01*
X122152628Y-114673094D02*
X122247866Y-114720713D01*
X122247866Y-114720713D02*
X122438342Y-114720713D01*
X122438342Y-114720713D02*
X122533580Y-114673094D01*
X122533580Y-114673094D02*
X122581200Y-114625475D01*
X122581200Y-114625475D02*
X122628819Y-114530237D01*
X122628819Y-114530237D02*
X122628819Y-114339761D01*
X122628819Y-114339761D02*
X122581200Y-114244523D01*
X122581200Y-114244523D02*
X122533580Y-114196904D01*
X122533580Y-114196904D02*
X122438342Y-114149285D01*
X122438342Y-114149285D02*
X122247866Y-114149285D01*
X122247866Y-114149285D02*
X122152628Y-114196904D01*
X122152628Y-114196904D02*
X122105009Y-114244523D01*
X122105009Y-114244523D02*
X122057390Y-114339761D01*
X96543905Y-121739819D02*
X96543905Y-120739819D01*
X96543905Y-120739819D02*
X96782000Y-120739819D01*
X96782000Y-120739819D02*
X96924857Y-120787438D01*
X96924857Y-120787438D02*
X97020095Y-120882676D01*
X97020095Y-120882676D02*
X97067714Y-120977914D01*
X97067714Y-120977914D02*
X97115333Y-121168390D01*
X97115333Y-121168390D02*
X97115333Y-121311247D01*
X97115333Y-121311247D02*
X97067714Y-121501723D01*
X97067714Y-121501723D02*
X97020095Y-121596961D01*
X97020095Y-121596961D02*
X96924857Y-121692200D01*
X96924857Y-121692200D02*
X96782000Y-121739819D01*
X96782000Y-121739819D02*
X96543905Y-121739819D01*
X97496286Y-120835057D02*
X97543905Y-120787438D01*
X97543905Y-120787438D02*
X97639143Y-120739819D01*
X97639143Y-120739819D02*
X97877238Y-120739819D01*
X97877238Y-120739819D02*
X97972476Y-120787438D01*
X97972476Y-120787438D02*
X98020095Y-120835057D01*
X98020095Y-120835057D02*
X98067714Y-120930295D01*
X98067714Y-120930295D02*
X98067714Y-121025533D01*
X98067714Y-121025533D02*
X98020095Y-121168390D01*
X98020095Y-121168390D02*
X97448667Y-121739819D01*
X97448667Y-121739819D02*
X98067714Y-121739819D01*
X109199819Y-98242857D02*
X108723628Y-98576190D01*
X109199819Y-98814285D02*
X108199819Y-98814285D01*
X108199819Y-98814285D02*
X108199819Y-98433333D01*
X108199819Y-98433333D02*
X108247438Y-98338095D01*
X108247438Y-98338095D02*
X108295057Y-98290476D01*
X108295057Y-98290476D02*
X108390295Y-98242857D01*
X108390295Y-98242857D02*
X108533152Y-98242857D01*
X108533152Y-98242857D02*
X108628390Y-98290476D01*
X108628390Y-98290476D02*
X108676009Y-98338095D01*
X108676009Y-98338095D02*
X108723628Y-98433333D01*
X108723628Y-98433333D02*
X108723628Y-98814285D01*
X109199819Y-97290476D02*
X109199819Y-97861904D01*
X109199819Y-97576190D02*
X108199819Y-97576190D01*
X108199819Y-97576190D02*
X108342676Y-97671428D01*
X108342676Y-97671428D02*
X108437914Y-97766666D01*
X108437914Y-97766666D02*
X108485533Y-97861904D01*
X108199819Y-96671428D02*
X108199819Y-96576190D01*
X108199819Y-96576190D02*
X108247438Y-96480952D01*
X108247438Y-96480952D02*
X108295057Y-96433333D01*
X108295057Y-96433333D02*
X108390295Y-96385714D01*
X108390295Y-96385714D02*
X108580771Y-96338095D01*
X108580771Y-96338095D02*
X108818866Y-96338095D01*
X108818866Y-96338095D02*
X109009342Y-96385714D01*
X109009342Y-96385714D02*
X109104580Y-96433333D01*
X109104580Y-96433333D02*
X109152200Y-96480952D01*
X109152200Y-96480952D02*
X109199819Y-96576190D01*
X109199819Y-96576190D02*
X109199819Y-96671428D01*
X109199819Y-96671428D02*
X109152200Y-96766666D01*
X109152200Y-96766666D02*
X109104580Y-96814285D01*
X109104580Y-96814285D02*
X109009342Y-96861904D01*
X109009342Y-96861904D02*
X108818866Y-96909523D01*
X108818866Y-96909523D02*
X108580771Y-96909523D01*
X108580771Y-96909523D02*
X108390295Y-96861904D01*
X108390295Y-96861904D02*
X108295057Y-96814285D01*
X108295057Y-96814285D02*
X108247438Y-96766666D01*
X108247438Y-96766666D02*
X108199819Y-96671428D01*
X104274580Y-137326666D02*
X104322200Y-137374285D01*
X104322200Y-137374285D02*
X104369819Y-137517142D01*
X104369819Y-137517142D02*
X104369819Y-137612380D01*
X104369819Y-137612380D02*
X104322200Y-137755237D01*
X104322200Y-137755237D02*
X104226961Y-137850475D01*
X104226961Y-137850475D02*
X104131723Y-137898094D01*
X104131723Y-137898094D02*
X103941247Y-137945713D01*
X103941247Y-137945713D02*
X103798390Y-137945713D01*
X103798390Y-137945713D02*
X103607914Y-137898094D01*
X103607914Y-137898094D02*
X103512676Y-137850475D01*
X103512676Y-137850475D02*
X103417438Y-137755237D01*
X103417438Y-137755237D02*
X103369819Y-137612380D01*
X103369819Y-137612380D02*
X103369819Y-137517142D01*
X103369819Y-137517142D02*
X103417438Y-137374285D01*
X103417438Y-137374285D02*
X103465057Y-137326666D01*
X103798390Y-136755237D02*
X103750771Y-136850475D01*
X103750771Y-136850475D02*
X103703152Y-136898094D01*
X103703152Y-136898094D02*
X103607914Y-136945713D01*
X103607914Y-136945713D02*
X103560295Y-136945713D01*
X103560295Y-136945713D02*
X103465057Y-136898094D01*
X103465057Y-136898094D02*
X103417438Y-136850475D01*
X103417438Y-136850475D02*
X103369819Y-136755237D01*
X103369819Y-136755237D02*
X103369819Y-136564761D01*
X103369819Y-136564761D02*
X103417438Y-136469523D01*
X103417438Y-136469523D02*
X103465057Y-136421904D01*
X103465057Y-136421904D02*
X103560295Y-136374285D01*
X103560295Y-136374285D02*
X103607914Y-136374285D01*
X103607914Y-136374285D02*
X103703152Y-136421904D01*
X103703152Y-136421904D02*
X103750771Y-136469523D01*
X103750771Y-136469523D02*
X103798390Y-136564761D01*
X103798390Y-136564761D02*
X103798390Y-136755237D01*
X103798390Y-136755237D02*
X103846009Y-136850475D01*
X103846009Y-136850475D02*
X103893628Y-136898094D01*
X103893628Y-136898094D02*
X103988866Y-136945713D01*
X103988866Y-136945713D02*
X104179342Y-136945713D01*
X104179342Y-136945713D02*
X104274580Y-136898094D01*
X104274580Y-136898094D02*
X104322200Y-136850475D01*
X104322200Y-136850475D02*
X104369819Y-136755237D01*
X104369819Y-136755237D02*
X104369819Y-136564761D01*
X104369819Y-136564761D02*
X104322200Y-136469523D01*
X104322200Y-136469523D02*
X104274580Y-136421904D01*
X104274580Y-136421904D02*
X104179342Y-136374285D01*
X104179342Y-136374285D02*
X103988866Y-136374285D01*
X103988866Y-136374285D02*
X103893628Y-136421904D01*
X103893628Y-136421904D02*
X103846009Y-136469523D01*
X103846009Y-136469523D02*
X103798390Y-136564761D01*
X103338333Y-122660580D02*
X103290714Y-122708200D01*
X103290714Y-122708200D02*
X103147857Y-122755819D01*
X103147857Y-122755819D02*
X103052619Y-122755819D01*
X103052619Y-122755819D02*
X102909762Y-122708200D01*
X102909762Y-122708200D02*
X102814524Y-122612961D01*
X102814524Y-122612961D02*
X102766905Y-122517723D01*
X102766905Y-122517723D02*
X102719286Y-122327247D01*
X102719286Y-122327247D02*
X102719286Y-122184390D01*
X102719286Y-122184390D02*
X102766905Y-121993914D01*
X102766905Y-121993914D02*
X102814524Y-121898676D01*
X102814524Y-121898676D02*
X102909762Y-121803438D01*
X102909762Y-121803438D02*
X103052619Y-121755819D01*
X103052619Y-121755819D02*
X103147857Y-121755819D01*
X103147857Y-121755819D02*
X103290714Y-121803438D01*
X103290714Y-121803438D02*
X103338333Y-121851057D01*
X104195476Y-121755819D02*
X104005000Y-121755819D01*
X104005000Y-121755819D02*
X103909762Y-121803438D01*
X103909762Y-121803438D02*
X103862143Y-121851057D01*
X103862143Y-121851057D02*
X103766905Y-121993914D01*
X103766905Y-121993914D02*
X103719286Y-122184390D01*
X103719286Y-122184390D02*
X103719286Y-122565342D01*
X103719286Y-122565342D02*
X103766905Y-122660580D01*
X103766905Y-122660580D02*
X103814524Y-122708200D01*
X103814524Y-122708200D02*
X103909762Y-122755819D01*
X103909762Y-122755819D02*
X104100238Y-122755819D01*
X104100238Y-122755819D02*
X104195476Y-122708200D01*
X104195476Y-122708200D02*
X104243095Y-122660580D01*
X104243095Y-122660580D02*
X104290714Y-122565342D01*
X104290714Y-122565342D02*
X104290714Y-122327247D01*
X104290714Y-122327247D02*
X104243095Y-122232009D01*
X104243095Y-122232009D02*
X104195476Y-122184390D01*
X104195476Y-122184390D02*
X104100238Y-122136771D01*
X104100238Y-122136771D02*
X103909762Y-122136771D01*
X103909762Y-122136771D02*
X103814524Y-122184390D01*
X103814524Y-122184390D02*
X103766905Y-122232009D01*
X103766905Y-122232009D02*
X103719286Y-122327247D01*
X107007819Y-101068094D02*
X106007819Y-101068094D01*
X106007819Y-101068094D02*
X106007819Y-100829999D01*
X106007819Y-100829999D02*
X106055438Y-100687142D01*
X106055438Y-100687142D02*
X106150676Y-100591904D01*
X106150676Y-100591904D02*
X106245914Y-100544285D01*
X106245914Y-100544285D02*
X106436390Y-100496666D01*
X106436390Y-100496666D02*
X106579247Y-100496666D01*
X106579247Y-100496666D02*
X106769723Y-100544285D01*
X106769723Y-100544285D02*
X106864961Y-100591904D01*
X106864961Y-100591904D02*
X106960200Y-100687142D01*
X106960200Y-100687142D02*
X107007819Y-100829999D01*
X107007819Y-100829999D02*
X107007819Y-101068094D01*
X107007819Y-99544285D02*
X107007819Y-100115713D01*
X107007819Y-99829999D02*
X106007819Y-99829999D01*
X106007819Y-99829999D02*
X106150676Y-99925237D01*
X106150676Y-99925237D02*
X106245914Y-100020475D01*
X106245914Y-100020475D02*
X106293533Y-100115713D01*
X112373580Y-105195666D02*
X112421200Y-105243285D01*
X112421200Y-105243285D02*
X112468819Y-105386142D01*
X112468819Y-105386142D02*
X112468819Y-105481380D01*
X112468819Y-105481380D02*
X112421200Y-105624237D01*
X112421200Y-105624237D02*
X112325961Y-105719475D01*
X112325961Y-105719475D02*
X112230723Y-105767094D01*
X112230723Y-105767094D02*
X112040247Y-105814713D01*
X112040247Y-105814713D02*
X111897390Y-105814713D01*
X111897390Y-105814713D02*
X111706914Y-105767094D01*
X111706914Y-105767094D02*
X111611676Y-105719475D01*
X111611676Y-105719475D02*
X111516438Y-105624237D01*
X111516438Y-105624237D02*
X111468819Y-105481380D01*
X111468819Y-105481380D02*
X111468819Y-105386142D01*
X111468819Y-105386142D02*
X111516438Y-105243285D01*
X111516438Y-105243285D02*
X111564057Y-105195666D01*
X111802152Y-104338523D02*
X112468819Y-104338523D01*
X111421200Y-104576618D02*
X112135485Y-104814713D01*
X112135485Y-104814713D02*
X112135485Y-104195666D01*
X102975580Y-133516666D02*
X103023200Y-133564285D01*
X103023200Y-133564285D02*
X103070819Y-133707142D01*
X103070819Y-133707142D02*
X103070819Y-133802380D01*
X103070819Y-133802380D02*
X103023200Y-133945237D01*
X103023200Y-133945237D02*
X102927961Y-134040475D01*
X102927961Y-134040475D02*
X102832723Y-134088094D01*
X102832723Y-134088094D02*
X102642247Y-134135713D01*
X102642247Y-134135713D02*
X102499390Y-134135713D01*
X102499390Y-134135713D02*
X102308914Y-134088094D01*
X102308914Y-134088094D02*
X102213676Y-134040475D01*
X102213676Y-134040475D02*
X102118438Y-133945237D01*
X102118438Y-133945237D02*
X102070819Y-133802380D01*
X102070819Y-133802380D02*
X102070819Y-133707142D01*
X102070819Y-133707142D02*
X102118438Y-133564285D01*
X102118438Y-133564285D02*
X102166057Y-133516666D01*
X102070819Y-133183332D02*
X102070819Y-132564285D01*
X102070819Y-132564285D02*
X102451771Y-132897618D01*
X102451771Y-132897618D02*
X102451771Y-132754761D01*
X102451771Y-132754761D02*
X102499390Y-132659523D01*
X102499390Y-132659523D02*
X102547009Y-132611904D01*
X102547009Y-132611904D02*
X102642247Y-132564285D01*
X102642247Y-132564285D02*
X102880342Y-132564285D01*
X102880342Y-132564285D02*
X102975580Y-132611904D01*
X102975580Y-132611904D02*
X103023200Y-132659523D01*
X103023200Y-132659523D02*
X103070819Y-132754761D01*
X103070819Y-132754761D02*
X103070819Y-133040475D01*
X103070819Y-133040475D02*
X103023200Y-133135713D01*
X103023200Y-133135713D02*
X102975580Y-133183332D01*
X114173095Y-107277819D02*
X114173095Y-108087342D01*
X114173095Y-108087342D02*
X114220714Y-108182580D01*
X114220714Y-108182580D02*
X114268333Y-108230200D01*
X114268333Y-108230200D02*
X114363571Y-108277819D01*
X114363571Y-108277819D02*
X114554047Y-108277819D01*
X114554047Y-108277819D02*
X114649285Y-108230200D01*
X114649285Y-108230200D02*
X114696904Y-108182580D01*
X114696904Y-108182580D02*
X114744523Y-108087342D01*
X114744523Y-108087342D02*
X114744523Y-107277819D01*
X115125476Y-107277819D02*
X115792142Y-107277819D01*
X115792142Y-107277819D02*
X115363571Y-108277819D01*
D12*
X113777500Y-96282742D02*
X113777500Y-96757258D01*
X114822500Y-96282742D02*
X114822500Y-96757258D01*
X98537500Y-108762742D02*
X98537500Y-109237258D01*
X99582500Y-108762742D02*
X99582500Y-109237258D01*
X120127500Y-118507742D02*
X120127500Y-118982258D01*
X121172500Y-118507742D02*
X121172500Y-118982258D01*
X94370000Y-111065000D02*
X99570000Y-111065000D01*
X94370000Y-113665000D02*
X94370000Y-111065000D01*
X94370000Y-116265000D02*
X94370000Y-114935000D01*
X95700000Y-116265000D02*
X94370000Y-116265000D01*
X96970000Y-113665000D02*
X94370000Y-113665000D01*
X96970000Y-116265000D02*
X96970000Y-113665000D01*
X96970000Y-116265000D02*
X99570000Y-116265000D01*
X99570000Y-116265000D02*
X99570000Y-111065000D01*
X111760580Y-122680000D02*
X111479420Y-122680000D01*
X111760580Y-123700000D02*
X111479420Y-123700000D01*
X106453000Y-106799748D02*
X106453000Y-107322252D01*
X107923000Y-106799748D02*
X107923000Y-107322252D01*
X114561252Y-105310000D02*
X114038748Y-105310000D01*
X114561252Y-106780000D02*
X114038748Y-106780000D01*
X109967500Y-98822742D02*
X109967500Y-99297258D01*
X111012500Y-98822742D02*
X111012500Y-99297258D01*
X114158500Y-123587742D02*
X114158500Y-124062258D01*
X115203500Y-123587742D02*
X115203500Y-124062258D01*
X108062500Y-111362258D02*
X108062500Y-110887742D01*
X109107500Y-111362258D02*
X109107500Y-110887742D01*
X100510000Y-126575000D02*
X100740000Y-126575000D01*
X100510000Y-129295000D02*
X100510000Y-126575000D01*
X101820000Y-129295000D02*
X100510000Y-129295000D01*
X105000000Y-125435000D02*
X105000000Y-126575000D01*
X105230000Y-126575000D02*
X105000000Y-126575000D01*
X105230000Y-126575000D02*
X105230000Y-129295000D01*
X105230000Y-129295000D02*
X103920000Y-129295000D01*
X113565000Y-91910000D02*
X113565000Y-94195000D01*
X113565000Y-94195000D02*
X115035000Y-94195000D01*
X115035000Y-94195000D02*
X115035000Y-91910000D01*
X94485000Y-133015000D02*
X94485000Y-132415000D01*
X95185000Y-131715000D02*
X96585000Y-131715000D01*
X96585000Y-133715000D02*
X95185000Y-133715000D01*
X97285000Y-132415000D02*
X97285000Y-133015000D01*
X94485000Y-132415000D02*
G75*
G02*
X95185000Y-131715000I700000J0D01*
G01*
X95185000Y-133715000D02*
G75*
G02*
X94485000Y-133015000I0J700000D01*
G01*
X96585000Y-131715000D02*
G75*
G02*
X97285000Y-132415000I1J-699999D01*
G01*
X97285000Y-133015000D02*
G75*
G02*
X96585000Y-133715000I-699999J-1D01*
G01*
D13*
X96750000Y-139000000D02*
G75*
G02*
X96250000Y-139000000I-250000J0D01*
G01*
X96250000Y-139000000D02*
G75*
G02*
X96750000Y-139000000I250000J0D01*
G01*
D12*
X106660000Y-135255000D02*
X106660000Y-133305000D01*
X106660000Y-135255000D02*
X106660000Y-137205000D01*
X111780000Y-135255000D02*
X111780000Y-133305000D01*
X111780000Y-135255000D02*
X111780000Y-137205000D01*
X112015000Y-132795000D02*
X111685000Y-132555000D01*
X112015000Y-132315000D01*
X112015000Y-132795000D01*
G36*
X112015000Y-132795000D02*
G01*
X111685000Y-132555000D01*
X112015000Y-132315000D01*
X112015000Y-132795000D01*
G37*
X104715000Y-121345000D02*
X104715000Y-120015000D01*
X106045000Y-121345000D02*
X104715000Y-121345000D01*
X107315000Y-118685000D02*
X117535000Y-118685000D01*
X107315000Y-121345000D02*
X107315000Y-118685000D01*
X107315000Y-121345000D02*
X117535000Y-121345000D01*
X117535000Y-121345000D02*
X117535000Y-118685000D01*
D13*
X123750000Y-93500000D02*
G75*
G02*
X123250000Y-93500000I-250000J0D01*
G01*
X123250000Y-93500000D02*
G75*
G02*
X123750000Y-93500000I250000J0D01*
G01*
D12*
X102600000Y-95065000D02*
X98200000Y-95065000D01*
X102600000Y-97265000D02*
X102600000Y-95065000D01*
X102600000Y-104565000D02*
X102600000Y-106865000D01*
X102600000Y-106865000D02*
X98200000Y-106865000D01*
X120127500Y-110887742D02*
X120127500Y-111362258D01*
X121172500Y-110887742D02*
X121172500Y-111362258D01*
D13*
X97250000Y-94000000D02*
G75*
G02*
X96750000Y-94000000I-250000J0D01*
G01*
X96750000Y-94000000D02*
G75*
G02*
X97250000Y-94000000I250000J0D01*
G01*
D12*
X120127500Y-114697742D02*
X120127500Y-115172258D01*
X121172500Y-114697742D02*
X121172500Y-115172258D01*
X95782000Y-118530000D02*
X95782000Y-120230000D01*
X95782000Y-118530000D02*
X98332000Y-118530000D01*
X95782000Y-120230000D02*
X98332000Y-120230000D01*
X106792500Y-97362742D02*
X106792500Y-97837258D01*
X107837500Y-97362742D02*
X107837500Y-97837258D01*
X101500000Y-136898748D02*
X101500000Y-137421252D01*
X102970000Y-136898748D02*
X102970000Y-137421252D01*
X103766252Y-123090000D02*
X103243748Y-123090000D01*
X103766252Y-124560000D02*
X103243748Y-124560000D01*
X103925000Y-98830000D02*
X103925000Y-101380000D01*
X105625000Y-98830000D02*
X103925000Y-98830000D01*
X105625000Y-98830000D02*
X105625000Y-101380000D01*
X109628000Y-104767748D02*
X109628000Y-105290252D01*
X111098000Y-104767748D02*
X111098000Y-105290252D01*
X103405000Y-133088748D02*
X103405000Y-133611252D01*
X104875000Y-133088748D02*
X104875000Y-133611252D01*
X114935000Y-108595000D02*
X112985000Y-108595000D01*
X114935000Y-108595000D02*
X116885000Y-108595000D01*
X114935000Y-117465000D02*
X112985000Y-117465000D01*
X114935000Y-117465000D02*
X116885000Y-117465000D01*
X112235000Y-108660000D02*
X111995000Y-108330000D01*
X112475000Y-108330000D01*
X112235000Y-108660000D01*
G36*
X112235000Y-108660000D02*
G01*
X111995000Y-108330000D01*
X112475000Y-108330000D01*
X112235000Y-108660000D01*
G37*
D13*
X123750000Y-139000000D02*
G75*
G02*
X123250000Y-139000000I-250000J0D01*
G01*
X123250000Y-139000000D02*
G75*
G02*
X123750000Y-139000000I250000J0D01*
G01*
M02*
