M48
; DRILL file {KiCad 8.0.3} date 2024-08-18T22:06:27+0900
; FORMAT={-:-/ absolute / metric / decimal}
; #@! TF.CreationDate,2024-08-18T22:06:27+09:00
; #@! TF.GenerationSoftware,Kicad,Pcbnew,8.0.3
; #@! TF.FileFunction,Plated,1,2,PTH
FMAT,2
METRIC
; #@! TA.AperFunction,Plated,PTH,ViaDrill
T1C0.400
; #@! TA.AperFunction,Plated,PTH,ComponentDrill
T2C0.400
; #@! TA.AperFunction,Plated,PTH,ComponentDrill
T3C0.800
; #@! TA.AperFunction,Plated,PTH,ComponentDrill
T4C0.900
; #@! TA.AperFunction,Plated,PTH,ComponentDrill
T5C1.000
%
G90
G05
T1
X99.0Y-105.664
X99.06Y-96.266
X100.33Y-125.985
X101.6Y-109.855
X101.6Y-115.57
X103.124Y-110.49
X104.14Y-114.3
X104.775Y-113.03
X106.299Y-103.886
X107.188Y-105.029
X107.315Y-101.6
X107.315Y-115.57
X108.585Y-107.95
X108.585Y-113.03
X108.585Y-134.239
X110.363Y-103.095
X110.363Y-106.934
X110.998Y-113.03
X110.998Y-115.57
X110.998Y-116.84
X113.919Y-110.49
X113.919Y-111.76
X114.3Y-98.425
X114.3Y-103.505
X115.951Y-113.03
X115.951Y-114.3
X115.951Y-115.57
X116.332Y-107.188
X119.38Y-110.49
X120.65Y-113.03
X120.65Y-116.84
T2
X102.87Y-128.27
T3
X107.95Y-126.04
X107.95Y-129.54
T4
X114.68Y-129.4
X114.68Y-131.94
X114.691Y-126.617
X114.691Y-134.212
X122.3Y-129.4
X122.3Y-131.94
T5
X95.7Y-112.395
X95.7Y-114.935
X95.7Y-124.46
X95.7Y-127.0
X95.7Y-129.54
X95.905Y-135.89
X98.24Y-112.395
X98.24Y-114.935
X98.24Y-124.46
X98.24Y-127.0
X98.24Y-129.54
X98.405Y-135.89
X102.87Y-118.11
X102.87Y-120.65
X106.045Y-120.015
X108.585Y-120.015
X111.125Y-120.015
X113.665Y-120.015
X116.205Y-120.015
M30
