%TF.GenerationSoftware,KiCad,Pcbnew,8.0.3*%
%TF.CreationDate,2024-08-18T22:06:29+09:00*%
%TF.ProjectId,AutoFeeder_Drum-type,4175746f-4665-4656-9465-725f4472756d,02*%
%TF.SameCoordinates,Original*%
%TF.FileFunction,Drillmap*%
%TF.FilePolarity,Positive*%
%FSLAX45Y45*%
G04 Gerber Fmt 4.5, Leading zero omitted, Abs format (unit mm)*
G04 Created by KiCad (PCBNEW 8.0.3) date 2024-08-18 22:06:29*
%MOMM*%
%LPD*%
G01*
G04 APERTURE LIST*
%ADD10C,0.150000*%
%ADD11C,0.200000*%
%ADD12C,0.110000*%
%ADD13C,0.270000*%
%ADD14C,0.400000*%
G04 APERTURE END LIST*
D10*
X9250000Y-13950000D02*
X9250000Y-11050000D01*
X9250000Y-13950000D02*
X9300000Y-14000000D01*
X9600000Y-10700000D02*
X9250000Y-11050000D01*
X12450000Y-9000000D02*
X12450000Y-14000000D01*
X9600000Y-9150000D02*
X9750000Y-9000000D01*
X9750000Y-9000000D02*
X12450000Y-9000000D01*
X9600000Y-9150000D02*
X9600000Y-10700000D01*
X12450000Y-14000000D02*
X9300000Y-14000000D01*
D11*
D12*
X9775000Y-9791500D02*
X9885000Y-9901500D01*
X9885000Y-9791500D02*
X9775000Y-9901500D01*
X9775000Y-10291500D02*
X9885000Y-10401500D01*
X9885000Y-10291500D02*
X9775000Y-10401500D01*
D13*
X12285000Y-9600000D02*
G75*
G02*
X12015000Y-9600000I-135000J0D01*
G01*
X12015000Y-9600000D02*
G75*
G02*
X12285000Y-9600000I135000J0D01*
G01*
X12285000Y-10600000D02*
G75*
G02*
X12015000Y-10600000I-135000J0D01*
G01*
X12015000Y-10600000D02*
G75*
G02*
X12285000Y-10600000I135000J0D01*
G01*
X12285000Y-12400000D02*
G75*
G02*
X12015000Y-12400000I-135000J0D01*
G01*
X12015000Y-12400000D02*
G75*
G02*
X12285000Y-12400000I135000J0D01*
G01*
X12285000Y-13700000D02*
G75*
G02*
X12015000Y-13700000I-135000J0D01*
G01*
X12015000Y-13700000D02*
G75*
G02*
X12285000Y-13700000I135000J0D01*
G01*
D14*
X11850000Y-12870000D02*
X11850000Y-13270000D01*
X11650000Y-13070000D02*
X12050000Y-13070000D01*
D11*
X9503277Y-14318984D02*
X9503277Y-14118984D01*
X9503277Y-14118984D02*
X9550896Y-14118984D01*
X9550896Y-14118984D02*
X9579467Y-14128508D01*
X9579467Y-14128508D02*
X9598515Y-14147555D01*
X9598515Y-14147555D02*
X9608039Y-14166603D01*
X9608039Y-14166603D02*
X9617563Y-14204698D01*
X9617563Y-14204698D02*
X9617563Y-14233269D01*
X9617563Y-14233269D02*
X9608039Y-14271365D01*
X9608039Y-14271365D02*
X9598515Y-14290412D01*
X9598515Y-14290412D02*
X9579467Y-14309460D01*
X9579467Y-14309460D02*
X9550896Y-14318984D01*
X9550896Y-14318984D02*
X9503277Y-14318984D01*
X9703277Y-14318984D02*
X9703277Y-14185650D01*
X9703277Y-14223746D02*
X9712801Y-14204698D01*
X9712801Y-14204698D02*
X9722324Y-14195174D01*
X9722324Y-14195174D02*
X9741372Y-14185650D01*
X9741372Y-14185650D02*
X9760420Y-14185650D01*
X9827086Y-14318984D02*
X9827086Y-14185650D01*
X9827086Y-14118984D02*
X9817563Y-14128508D01*
X9817563Y-14128508D02*
X9827086Y-14138031D01*
X9827086Y-14138031D02*
X9836610Y-14128508D01*
X9836610Y-14128508D02*
X9827086Y-14118984D01*
X9827086Y-14118984D02*
X9827086Y-14138031D01*
X9950896Y-14318984D02*
X9931848Y-14309460D01*
X9931848Y-14309460D02*
X9922324Y-14290412D01*
X9922324Y-14290412D02*
X9922324Y-14118984D01*
X10055658Y-14318984D02*
X10036610Y-14309460D01*
X10036610Y-14309460D02*
X10027086Y-14290412D01*
X10027086Y-14290412D02*
X10027086Y-14118984D01*
X10284229Y-14318984D02*
X10284229Y-14118984D01*
X10284229Y-14118984D02*
X10350896Y-14261841D01*
X10350896Y-14261841D02*
X10417563Y-14118984D01*
X10417563Y-14118984D02*
X10417563Y-14318984D01*
X10598515Y-14318984D02*
X10598515Y-14214222D01*
X10598515Y-14214222D02*
X10588991Y-14195174D01*
X10588991Y-14195174D02*
X10569944Y-14185650D01*
X10569944Y-14185650D02*
X10531848Y-14185650D01*
X10531848Y-14185650D02*
X10512801Y-14195174D01*
X10598515Y-14309460D02*
X10579467Y-14318984D01*
X10579467Y-14318984D02*
X10531848Y-14318984D01*
X10531848Y-14318984D02*
X10512801Y-14309460D01*
X10512801Y-14309460D02*
X10503277Y-14290412D01*
X10503277Y-14290412D02*
X10503277Y-14271365D01*
X10503277Y-14271365D02*
X10512801Y-14252317D01*
X10512801Y-14252317D02*
X10531848Y-14242793D01*
X10531848Y-14242793D02*
X10579467Y-14242793D01*
X10579467Y-14242793D02*
X10598515Y-14233269D01*
X10693753Y-14185650D02*
X10693753Y-14385650D01*
X10693753Y-14195174D02*
X10712801Y-14185650D01*
X10712801Y-14185650D02*
X10750896Y-14185650D01*
X10750896Y-14185650D02*
X10769944Y-14195174D01*
X10769944Y-14195174D02*
X10779467Y-14204698D01*
X10779467Y-14204698D02*
X10788991Y-14223746D01*
X10788991Y-14223746D02*
X10788991Y-14280888D01*
X10788991Y-14280888D02*
X10779467Y-14299936D01*
X10779467Y-14299936D02*
X10769944Y-14309460D01*
X10769944Y-14309460D02*
X10750896Y-14318984D01*
X10750896Y-14318984D02*
X10712801Y-14318984D01*
X10712801Y-14318984D02*
X10693753Y-14309460D01*
X10874705Y-14299936D02*
X10884229Y-14309460D01*
X10884229Y-14309460D02*
X10874705Y-14318984D01*
X10874705Y-14318984D02*
X10865182Y-14309460D01*
X10865182Y-14309460D02*
X10874705Y-14299936D01*
X10874705Y-14299936D02*
X10874705Y-14318984D01*
X10874705Y-14195174D02*
X10884229Y-14204698D01*
X10884229Y-14204698D02*
X10874705Y-14214222D01*
X10874705Y-14214222D02*
X10865182Y-14204698D01*
X10865182Y-14204698D02*
X10874705Y-14195174D01*
X10874705Y-14195174D02*
X10874705Y-14214222D01*
D12*
X9132500Y-14592500D02*
X9242500Y-14702500D01*
X9242500Y-14592500D02*
X9132500Y-14702500D01*
D11*
X9608039Y-14738984D02*
X9493753Y-14738984D01*
X9550896Y-14738984D02*
X9550896Y-14538984D01*
X9550896Y-14538984D02*
X9531848Y-14567555D01*
X9531848Y-14567555D02*
X9512801Y-14586603D01*
X9512801Y-14586603D02*
X9493753Y-14596127D01*
X9693753Y-14719936D02*
X9703277Y-14729460D01*
X9703277Y-14729460D02*
X9693753Y-14738984D01*
X9693753Y-14738984D02*
X9684229Y-14729460D01*
X9684229Y-14729460D02*
X9693753Y-14719936D01*
X9693753Y-14719936D02*
X9693753Y-14738984D01*
X9893753Y-14738984D02*
X9779467Y-14738984D01*
X9836610Y-14738984D02*
X9836610Y-14538984D01*
X9836610Y-14538984D02*
X9817563Y-14567555D01*
X9817563Y-14567555D02*
X9798515Y-14586603D01*
X9798515Y-14586603D02*
X9779467Y-14596127D01*
X10017563Y-14538984D02*
X10036610Y-14538984D01*
X10036610Y-14538984D02*
X10055658Y-14548508D01*
X10055658Y-14548508D02*
X10065182Y-14558031D01*
X10065182Y-14558031D02*
X10074705Y-14577079D01*
X10074705Y-14577079D02*
X10084229Y-14615174D01*
X10084229Y-14615174D02*
X10084229Y-14662793D01*
X10084229Y-14662793D02*
X10074705Y-14700888D01*
X10074705Y-14700888D02*
X10065182Y-14719936D01*
X10065182Y-14719936D02*
X10055658Y-14729460D01*
X10055658Y-14729460D02*
X10036610Y-14738984D01*
X10036610Y-14738984D02*
X10017563Y-14738984D01*
X10017563Y-14738984D02*
X9998515Y-14729460D01*
X9998515Y-14729460D02*
X9988991Y-14719936D01*
X9988991Y-14719936D02*
X9979467Y-14700888D01*
X9979467Y-14700888D02*
X9969944Y-14662793D01*
X9969944Y-14662793D02*
X9969944Y-14615174D01*
X9969944Y-14615174D02*
X9979467Y-14577079D01*
X9979467Y-14577079D02*
X9988991Y-14558031D01*
X9988991Y-14558031D02*
X9998515Y-14548508D01*
X9998515Y-14548508D02*
X10017563Y-14538984D01*
X10208039Y-14538984D02*
X10227086Y-14538984D01*
X10227086Y-14538984D02*
X10246134Y-14548508D01*
X10246134Y-14548508D02*
X10255658Y-14558031D01*
X10255658Y-14558031D02*
X10265182Y-14577079D01*
X10265182Y-14577079D02*
X10274705Y-14615174D01*
X10274705Y-14615174D02*
X10274705Y-14662793D01*
X10274705Y-14662793D02*
X10265182Y-14700888D01*
X10265182Y-14700888D02*
X10255658Y-14719936D01*
X10255658Y-14719936D02*
X10246134Y-14729460D01*
X10246134Y-14729460D02*
X10227086Y-14738984D01*
X10227086Y-14738984D02*
X10208039Y-14738984D01*
X10208039Y-14738984D02*
X10188991Y-14729460D01*
X10188991Y-14729460D02*
X10179467Y-14719936D01*
X10179467Y-14719936D02*
X10169944Y-14700888D01*
X10169944Y-14700888D02*
X10160420Y-14662793D01*
X10160420Y-14662793D02*
X10160420Y-14615174D01*
X10160420Y-14615174D02*
X10169944Y-14577079D01*
X10169944Y-14577079D02*
X10179467Y-14558031D01*
X10179467Y-14558031D02*
X10188991Y-14548508D01*
X10188991Y-14548508D02*
X10208039Y-14538984D01*
X10360420Y-14738984D02*
X10360420Y-14605650D01*
X10360420Y-14624698D02*
X10369944Y-14615174D01*
X10369944Y-14615174D02*
X10388991Y-14605650D01*
X10388991Y-14605650D02*
X10417563Y-14605650D01*
X10417563Y-14605650D02*
X10436610Y-14615174D01*
X10436610Y-14615174D02*
X10446134Y-14634222D01*
X10446134Y-14634222D02*
X10446134Y-14738984D01*
X10446134Y-14634222D02*
X10455658Y-14615174D01*
X10455658Y-14615174D02*
X10474705Y-14605650D01*
X10474705Y-14605650D02*
X10503277Y-14605650D01*
X10503277Y-14605650D02*
X10522325Y-14615174D01*
X10522325Y-14615174D02*
X10531848Y-14634222D01*
X10531848Y-14634222D02*
X10531848Y-14738984D01*
X10627086Y-14738984D02*
X10627086Y-14605650D01*
X10627086Y-14624698D02*
X10636610Y-14615174D01*
X10636610Y-14615174D02*
X10655658Y-14605650D01*
X10655658Y-14605650D02*
X10684229Y-14605650D01*
X10684229Y-14605650D02*
X10703277Y-14615174D01*
X10703277Y-14615174D02*
X10712801Y-14634222D01*
X10712801Y-14634222D02*
X10712801Y-14738984D01*
X10712801Y-14634222D02*
X10722325Y-14615174D01*
X10722325Y-14615174D02*
X10741372Y-14605650D01*
X10741372Y-14605650D02*
X10769944Y-14605650D01*
X10769944Y-14605650D02*
X10788991Y-14615174D01*
X10788991Y-14615174D02*
X10798515Y-14634222D01*
X10798515Y-14634222D02*
X10798515Y-14738984D01*
X11188991Y-14529460D02*
X11017563Y-14786603D01*
X11446134Y-14538984D02*
X11465182Y-14538984D01*
X11465182Y-14538984D02*
X11484229Y-14548508D01*
X11484229Y-14548508D02*
X11493753Y-14558031D01*
X11493753Y-14558031D02*
X11503277Y-14577079D01*
X11503277Y-14577079D02*
X11512801Y-14615174D01*
X11512801Y-14615174D02*
X11512801Y-14662793D01*
X11512801Y-14662793D02*
X11503277Y-14700888D01*
X11503277Y-14700888D02*
X11493753Y-14719936D01*
X11493753Y-14719936D02*
X11484229Y-14729460D01*
X11484229Y-14729460D02*
X11465182Y-14738984D01*
X11465182Y-14738984D02*
X11446134Y-14738984D01*
X11446134Y-14738984D02*
X11427086Y-14729460D01*
X11427086Y-14729460D02*
X11417563Y-14719936D01*
X11417563Y-14719936D02*
X11408039Y-14700888D01*
X11408039Y-14700888D02*
X11398515Y-14662793D01*
X11398515Y-14662793D02*
X11398515Y-14615174D01*
X11398515Y-14615174D02*
X11408039Y-14577079D01*
X11408039Y-14577079D02*
X11417563Y-14558031D01*
X11417563Y-14558031D02*
X11427086Y-14548508D01*
X11427086Y-14548508D02*
X11446134Y-14538984D01*
X11598515Y-14719936D02*
X11608039Y-14729460D01*
X11608039Y-14729460D02*
X11598515Y-14738984D01*
X11598515Y-14738984D02*
X11588991Y-14729460D01*
X11588991Y-14729460D02*
X11598515Y-14719936D01*
X11598515Y-14719936D02*
X11598515Y-14738984D01*
X11731848Y-14538984D02*
X11750896Y-14538984D01*
X11750896Y-14538984D02*
X11769944Y-14548508D01*
X11769944Y-14548508D02*
X11779467Y-14558031D01*
X11779467Y-14558031D02*
X11788991Y-14577079D01*
X11788991Y-14577079D02*
X11798515Y-14615174D01*
X11798515Y-14615174D02*
X11798515Y-14662793D01*
X11798515Y-14662793D02*
X11788991Y-14700888D01*
X11788991Y-14700888D02*
X11779467Y-14719936D01*
X11779467Y-14719936D02*
X11769944Y-14729460D01*
X11769944Y-14729460D02*
X11750896Y-14738984D01*
X11750896Y-14738984D02*
X11731848Y-14738984D01*
X11731848Y-14738984D02*
X11712801Y-14729460D01*
X11712801Y-14729460D02*
X11703277Y-14719936D01*
X11703277Y-14719936D02*
X11693753Y-14700888D01*
X11693753Y-14700888D02*
X11684229Y-14662793D01*
X11684229Y-14662793D02*
X11684229Y-14615174D01*
X11684229Y-14615174D02*
X11693753Y-14577079D01*
X11693753Y-14577079D02*
X11703277Y-14558031D01*
X11703277Y-14558031D02*
X11712801Y-14548508D01*
X11712801Y-14548508D02*
X11731848Y-14538984D01*
X11969944Y-14605650D02*
X11969944Y-14738984D01*
X11922325Y-14529460D02*
X11874706Y-14672317D01*
X11874706Y-14672317D02*
X11998515Y-14672317D01*
X12055658Y-14538984D02*
X12179467Y-14538984D01*
X12179467Y-14538984D02*
X12112801Y-14615174D01*
X12112801Y-14615174D02*
X12141372Y-14615174D01*
X12141372Y-14615174D02*
X12160420Y-14624698D01*
X12160420Y-14624698D02*
X12169944Y-14634222D01*
X12169944Y-14634222D02*
X12179467Y-14653269D01*
X12179467Y-14653269D02*
X12179467Y-14700888D01*
X12179467Y-14700888D02*
X12169944Y-14719936D01*
X12169944Y-14719936D02*
X12160420Y-14729460D01*
X12160420Y-14729460D02*
X12141372Y-14738984D01*
X12141372Y-14738984D02*
X12084229Y-14738984D01*
X12084229Y-14738984D02*
X12065182Y-14729460D01*
X12065182Y-14729460D02*
X12055658Y-14719936D01*
X12246134Y-14538984D02*
X12369944Y-14538984D01*
X12369944Y-14538984D02*
X12303277Y-14615174D01*
X12303277Y-14615174D02*
X12331848Y-14615174D01*
X12331848Y-14615174D02*
X12350896Y-14624698D01*
X12350896Y-14624698D02*
X12360420Y-14634222D01*
X12360420Y-14634222D02*
X12369944Y-14653269D01*
X12369944Y-14653269D02*
X12369944Y-14700888D01*
X12369944Y-14700888D02*
X12360420Y-14719936D01*
X12360420Y-14719936D02*
X12350896Y-14729460D01*
X12350896Y-14729460D02*
X12331848Y-14738984D01*
X12331848Y-14738984D02*
X12274706Y-14738984D01*
X12274706Y-14738984D02*
X12255658Y-14729460D01*
X12255658Y-14729460D02*
X12246134Y-14719936D01*
X12446134Y-14538984D02*
X12446134Y-14577079D01*
X12522325Y-14538984D02*
X12522325Y-14577079D01*
X12817563Y-14815174D02*
X12808039Y-14805650D01*
X12808039Y-14805650D02*
X12788991Y-14777079D01*
X12788991Y-14777079D02*
X12779468Y-14758031D01*
X12779468Y-14758031D02*
X12769944Y-14729460D01*
X12769944Y-14729460D02*
X12760420Y-14681841D01*
X12760420Y-14681841D02*
X12760420Y-14643746D01*
X12760420Y-14643746D02*
X12769944Y-14596127D01*
X12769944Y-14596127D02*
X12779468Y-14567555D01*
X12779468Y-14567555D02*
X12788991Y-14548508D01*
X12788991Y-14548508D02*
X12808039Y-14519936D01*
X12808039Y-14519936D02*
X12817563Y-14510412D01*
X12884229Y-14558031D02*
X12893753Y-14548508D01*
X12893753Y-14548508D02*
X12912801Y-14538984D01*
X12912801Y-14538984D02*
X12960420Y-14538984D01*
X12960420Y-14538984D02*
X12979468Y-14548508D01*
X12979468Y-14548508D02*
X12988991Y-14558031D01*
X12988991Y-14558031D02*
X12998515Y-14577079D01*
X12998515Y-14577079D02*
X12998515Y-14596127D01*
X12998515Y-14596127D02*
X12988991Y-14624698D01*
X12988991Y-14624698D02*
X12874706Y-14738984D01*
X12874706Y-14738984D02*
X12998515Y-14738984D01*
X13236610Y-14738984D02*
X13236610Y-14538984D01*
X13322325Y-14738984D02*
X13322325Y-14634222D01*
X13322325Y-14634222D02*
X13312801Y-14615174D01*
X13312801Y-14615174D02*
X13293753Y-14605650D01*
X13293753Y-14605650D02*
X13265182Y-14605650D01*
X13265182Y-14605650D02*
X13246134Y-14615174D01*
X13246134Y-14615174D02*
X13236610Y-14624698D01*
X13446134Y-14738984D02*
X13427087Y-14729460D01*
X13427087Y-14729460D02*
X13417563Y-14719936D01*
X13417563Y-14719936D02*
X13408039Y-14700888D01*
X13408039Y-14700888D02*
X13408039Y-14643746D01*
X13408039Y-14643746D02*
X13417563Y-14624698D01*
X13417563Y-14624698D02*
X13427087Y-14615174D01*
X13427087Y-14615174D02*
X13446134Y-14605650D01*
X13446134Y-14605650D02*
X13474706Y-14605650D01*
X13474706Y-14605650D02*
X13493753Y-14615174D01*
X13493753Y-14615174D02*
X13503277Y-14624698D01*
X13503277Y-14624698D02*
X13512801Y-14643746D01*
X13512801Y-14643746D02*
X13512801Y-14700888D01*
X13512801Y-14700888D02*
X13503277Y-14719936D01*
X13503277Y-14719936D02*
X13493753Y-14729460D01*
X13493753Y-14729460D02*
X13474706Y-14738984D01*
X13474706Y-14738984D02*
X13446134Y-14738984D01*
X13627087Y-14738984D02*
X13608039Y-14729460D01*
X13608039Y-14729460D02*
X13598515Y-14710412D01*
X13598515Y-14710412D02*
X13598515Y-14538984D01*
X13779468Y-14729460D02*
X13760420Y-14738984D01*
X13760420Y-14738984D02*
X13722325Y-14738984D01*
X13722325Y-14738984D02*
X13703277Y-14729460D01*
X13703277Y-14729460D02*
X13693753Y-14710412D01*
X13693753Y-14710412D02*
X13693753Y-14634222D01*
X13693753Y-14634222D02*
X13703277Y-14615174D01*
X13703277Y-14615174D02*
X13722325Y-14605650D01*
X13722325Y-14605650D02*
X13760420Y-14605650D01*
X13760420Y-14605650D02*
X13779468Y-14615174D01*
X13779468Y-14615174D02*
X13788991Y-14634222D01*
X13788991Y-14634222D02*
X13788991Y-14653269D01*
X13788991Y-14653269D02*
X13693753Y-14672317D01*
X13865182Y-14729460D02*
X13884230Y-14738984D01*
X13884230Y-14738984D02*
X13922325Y-14738984D01*
X13922325Y-14738984D02*
X13941372Y-14729460D01*
X13941372Y-14729460D02*
X13950896Y-14710412D01*
X13950896Y-14710412D02*
X13950896Y-14700888D01*
X13950896Y-14700888D02*
X13941372Y-14681841D01*
X13941372Y-14681841D02*
X13922325Y-14672317D01*
X13922325Y-14672317D02*
X13893753Y-14672317D01*
X13893753Y-14672317D02*
X13874706Y-14662793D01*
X13874706Y-14662793D02*
X13865182Y-14643746D01*
X13865182Y-14643746D02*
X13865182Y-14634222D01*
X13865182Y-14634222D02*
X13874706Y-14615174D01*
X13874706Y-14615174D02*
X13893753Y-14605650D01*
X13893753Y-14605650D02*
X13922325Y-14605650D01*
X13922325Y-14605650D02*
X13941372Y-14615174D01*
X14017563Y-14815174D02*
X14027087Y-14805650D01*
X14027087Y-14805650D02*
X14046134Y-14777079D01*
X14046134Y-14777079D02*
X14055658Y-14758031D01*
X14055658Y-14758031D02*
X14065182Y-14729460D01*
X14065182Y-14729460D02*
X14074706Y-14681841D01*
X14074706Y-14681841D02*
X14074706Y-14643746D01*
X14074706Y-14643746D02*
X14065182Y-14596127D01*
X14065182Y-14596127D02*
X14055658Y-14567555D01*
X14055658Y-14567555D02*
X14046134Y-14548508D01*
X14046134Y-14548508D02*
X14027087Y-14519936D01*
X14027087Y-14519936D02*
X14017563Y-14510412D01*
X14379468Y-14815174D02*
X14369944Y-14805650D01*
X14369944Y-14805650D02*
X14350896Y-14777079D01*
X14350896Y-14777079D02*
X14341372Y-14758031D01*
X14341372Y-14758031D02*
X14331849Y-14729460D01*
X14331849Y-14729460D02*
X14322325Y-14681841D01*
X14322325Y-14681841D02*
X14322325Y-14643746D01*
X14322325Y-14643746D02*
X14331849Y-14596127D01*
X14331849Y-14596127D02*
X14341372Y-14567555D01*
X14341372Y-14567555D02*
X14350896Y-14548508D01*
X14350896Y-14548508D02*
X14369944Y-14519936D01*
X14369944Y-14519936D02*
X14379468Y-14510412D01*
X14455658Y-14605650D02*
X14455658Y-14738984D01*
X14455658Y-14624698D02*
X14465182Y-14615174D01*
X14465182Y-14615174D02*
X14484230Y-14605650D01*
X14484230Y-14605650D02*
X14512801Y-14605650D01*
X14512801Y-14605650D02*
X14531849Y-14615174D01*
X14531849Y-14615174D02*
X14541372Y-14634222D01*
X14541372Y-14634222D02*
X14541372Y-14738984D01*
X14665182Y-14738984D02*
X14646134Y-14729460D01*
X14646134Y-14729460D02*
X14636611Y-14719936D01*
X14636611Y-14719936D02*
X14627087Y-14700888D01*
X14627087Y-14700888D02*
X14627087Y-14643746D01*
X14627087Y-14643746D02*
X14636611Y-14624698D01*
X14636611Y-14624698D02*
X14646134Y-14615174D01*
X14646134Y-14615174D02*
X14665182Y-14605650D01*
X14665182Y-14605650D02*
X14693753Y-14605650D01*
X14693753Y-14605650D02*
X14712801Y-14615174D01*
X14712801Y-14615174D02*
X14722325Y-14624698D01*
X14722325Y-14624698D02*
X14731849Y-14643746D01*
X14731849Y-14643746D02*
X14731849Y-14700888D01*
X14731849Y-14700888D02*
X14722325Y-14719936D01*
X14722325Y-14719936D02*
X14712801Y-14729460D01*
X14712801Y-14729460D02*
X14693753Y-14738984D01*
X14693753Y-14738984D02*
X14665182Y-14738984D01*
X14788992Y-14605650D02*
X14865182Y-14605650D01*
X14817563Y-14538984D02*
X14817563Y-14710412D01*
X14817563Y-14710412D02*
X14827087Y-14729460D01*
X14827087Y-14729460D02*
X14846134Y-14738984D01*
X14846134Y-14738984D02*
X14865182Y-14738984D01*
X15084230Y-14605650D02*
X15084230Y-14805650D01*
X15084230Y-14615174D02*
X15103277Y-14605650D01*
X15103277Y-14605650D02*
X15141373Y-14605650D01*
X15141373Y-14605650D02*
X15160420Y-14615174D01*
X15160420Y-14615174D02*
X15169944Y-14624698D01*
X15169944Y-14624698D02*
X15179468Y-14643746D01*
X15179468Y-14643746D02*
X15179468Y-14700888D01*
X15179468Y-14700888D02*
X15169944Y-14719936D01*
X15169944Y-14719936D02*
X15160420Y-14729460D01*
X15160420Y-14729460D02*
X15141373Y-14738984D01*
X15141373Y-14738984D02*
X15103277Y-14738984D01*
X15103277Y-14738984D02*
X15084230Y-14729460D01*
X15293753Y-14738984D02*
X15274706Y-14729460D01*
X15274706Y-14729460D02*
X15265182Y-14710412D01*
X15265182Y-14710412D02*
X15265182Y-14538984D01*
X15455658Y-14738984D02*
X15455658Y-14634222D01*
X15455658Y-14634222D02*
X15446134Y-14615174D01*
X15446134Y-14615174D02*
X15427087Y-14605650D01*
X15427087Y-14605650D02*
X15388992Y-14605650D01*
X15388992Y-14605650D02*
X15369944Y-14615174D01*
X15455658Y-14729460D02*
X15436611Y-14738984D01*
X15436611Y-14738984D02*
X15388992Y-14738984D01*
X15388992Y-14738984D02*
X15369944Y-14729460D01*
X15369944Y-14729460D02*
X15360420Y-14710412D01*
X15360420Y-14710412D02*
X15360420Y-14691365D01*
X15360420Y-14691365D02*
X15369944Y-14672317D01*
X15369944Y-14672317D02*
X15388992Y-14662793D01*
X15388992Y-14662793D02*
X15436611Y-14662793D01*
X15436611Y-14662793D02*
X15455658Y-14653269D01*
X15522325Y-14605650D02*
X15598515Y-14605650D01*
X15550896Y-14538984D02*
X15550896Y-14710412D01*
X15550896Y-14710412D02*
X15560420Y-14729460D01*
X15560420Y-14729460D02*
X15579468Y-14738984D01*
X15579468Y-14738984D02*
X15598515Y-14738984D01*
X15741373Y-14729460D02*
X15722325Y-14738984D01*
X15722325Y-14738984D02*
X15684230Y-14738984D01*
X15684230Y-14738984D02*
X15665182Y-14729460D01*
X15665182Y-14729460D02*
X15655658Y-14710412D01*
X15655658Y-14710412D02*
X15655658Y-14634222D01*
X15655658Y-14634222D02*
X15665182Y-14615174D01*
X15665182Y-14615174D02*
X15684230Y-14605650D01*
X15684230Y-14605650D02*
X15722325Y-14605650D01*
X15722325Y-14605650D02*
X15741373Y-14615174D01*
X15741373Y-14615174D02*
X15750896Y-14634222D01*
X15750896Y-14634222D02*
X15750896Y-14653269D01*
X15750896Y-14653269D02*
X15655658Y-14672317D01*
X15922325Y-14738984D02*
X15922325Y-14538984D01*
X15922325Y-14729460D02*
X15903277Y-14738984D01*
X15903277Y-14738984D02*
X15865182Y-14738984D01*
X15865182Y-14738984D02*
X15846134Y-14729460D01*
X15846134Y-14729460D02*
X15836611Y-14719936D01*
X15836611Y-14719936D02*
X15827087Y-14700888D01*
X15827087Y-14700888D02*
X15827087Y-14643746D01*
X15827087Y-14643746D02*
X15836611Y-14624698D01*
X15836611Y-14624698D02*
X15846134Y-14615174D01*
X15846134Y-14615174D02*
X15865182Y-14605650D01*
X15865182Y-14605650D02*
X15903277Y-14605650D01*
X15903277Y-14605650D02*
X15922325Y-14615174D01*
X15998515Y-14815174D02*
X16008039Y-14805650D01*
X16008039Y-14805650D02*
X16027087Y-14777079D01*
X16027087Y-14777079D02*
X16036611Y-14758031D01*
X16036611Y-14758031D02*
X16046134Y-14729460D01*
X16046134Y-14729460D02*
X16055658Y-14681841D01*
X16055658Y-14681841D02*
X16055658Y-14643746D01*
X16055658Y-14643746D02*
X16046134Y-14596127D01*
X16046134Y-14596127D02*
X16036611Y-14567555D01*
X16036611Y-14567555D02*
X16027087Y-14548508D01*
X16027087Y-14548508D02*
X16008039Y-14519936D01*
X16008039Y-14519936D02*
X15998515Y-14510412D01*
X9242500Y-14911500D02*
G75*
G02*
X9042500Y-14911500I-100000J0D01*
G01*
X9042500Y-14911500D02*
G75*
G02*
X9242500Y-14911500I100000J0D01*
G01*
X9493753Y-14822031D02*
X9503277Y-14812508D01*
X9503277Y-14812508D02*
X9522324Y-14802984D01*
X9522324Y-14802984D02*
X9569944Y-14802984D01*
X9569944Y-14802984D02*
X9588991Y-14812508D01*
X9588991Y-14812508D02*
X9598515Y-14822031D01*
X9598515Y-14822031D02*
X9608039Y-14841079D01*
X9608039Y-14841079D02*
X9608039Y-14860127D01*
X9608039Y-14860127D02*
X9598515Y-14888698D01*
X9598515Y-14888698D02*
X9484229Y-15002984D01*
X9484229Y-15002984D02*
X9608039Y-15002984D01*
X9693753Y-14983936D02*
X9703277Y-14993460D01*
X9703277Y-14993460D02*
X9693753Y-15002984D01*
X9693753Y-15002984D02*
X9684229Y-14993460D01*
X9684229Y-14993460D02*
X9693753Y-14983936D01*
X9693753Y-14983936D02*
X9693753Y-15002984D01*
X9769944Y-14802984D02*
X9903277Y-14802984D01*
X9903277Y-14802984D02*
X9817563Y-15002984D01*
X10017563Y-14802984D02*
X10036610Y-14802984D01*
X10036610Y-14802984D02*
X10055658Y-14812508D01*
X10055658Y-14812508D02*
X10065182Y-14822031D01*
X10065182Y-14822031D02*
X10074705Y-14841079D01*
X10074705Y-14841079D02*
X10084229Y-14879174D01*
X10084229Y-14879174D02*
X10084229Y-14926793D01*
X10084229Y-14926793D02*
X10074705Y-14964888D01*
X10074705Y-14964888D02*
X10065182Y-14983936D01*
X10065182Y-14983936D02*
X10055658Y-14993460D01*
X10055658Y-14993460D02*
X10036610Y-15002984D01*
X10036610Y-15002984D02*
X10017563Y-15002984D01*
X10017563Y-15002984D02*
X9998515Y-14993460D01*
X9998515Y-14993460D02*
X9988991Y-14983936D01*
X9988991Y-14983936D02*
X9979467Y-14964888D01*
X9979467Y-14964888D02*
X9969944Y-14926793D01*
X9969944Y-14926793D02*
X9969944Y-14879174D01*
X9969944Y-14879174D02*
X9979467Y-14841079D01*
X9979467Y-14841079D02*
X9988991Y-14822031D01*
X9988991Y-14822031D02*
X9998515Y-14812508D01*
X9998515Y-14812508D02*
X10017563Y-14802984D01*
X10208039Y-14802984D02*
X10227086Y-14802984D01*
X10227086Y-14802984D02*
X10246134Y-14812508D01*
X10246134Y-14812508D02*
X10255658Y-14822031D01*
X10255658Y-14822031D02*
X10265182Y-14841079D01*
X10265182Y-14841079D02*
X10274705Y-14879174D01*
X10274705Y-14879174D02*
X10274705Y-14926793D01*
X10274705Y-14926793D02*
X10265182Y-14964888D01*
X10265182Y-14964888D02*
X10255658Y-14983936D01*
X10255658Y-14983936D02*
X10246134Y-14993460D01*
X10246134Y-14993460D02*
X10227086Y-15002984D01*
X10227086Y-15002984D02*
X10208039Y-15002984D01*
X10208039Y-15002984D02*
X10188991Y-14993460D01*
X10188991Y-14993460D02*
X10179467Y-14983936D01*
X10179467Y-14983936D02*
X10169944Y-14964888D01*
X10169944Y-14964888D02*
X10160420Y-14926793D01*
X10160420Y-14926793D02*
X10160420Y-14879174D01*
X10160420Y-14879174D02*
X10169944Y-14841079D01*
X10169944Y-14841079D02*
X10179467Y-14822031D01*
X10179467Y-14822031D02*
X10188991Y-14812508D01*
X10188991Y-14812508D02*
X10208039Y-14802984D01*
X10360420Y-15002984D02*
X10360420Y-14869650D01*
X10360420Y-14888698D02*
X10369944Y-14879174D01*
X10369944Y-14879174D02*
X10388991Y-14869650D01*
X10388991Y-14869650D02*
X10417563Y-14869650D01*
X10417563Y-14869650D02*
X10436610Y-14879174D01*
X10436610Y-14879174D02*
X10446134Y-14898222D01*
X10446134Y-14898222D02*
X10446134Y-15002984D01*
X10446134Y-14898222D02*
X10455658Y-14879174D01*
X10455658Y-14879174D02*
X10474705Y-14869650D01*
X10474705Y-14869650D02*
X10503277Y-14869650D01*
X10503277Y-14869650D02*
X10522325Y-14879174D01*
X10522325Y-14879174D02*
X10531848Y-14898222D01*
X10531848Y-14898222D02*
X10531848Y-15002984D01*
X10627086Y-15002984D02*
X10627086Y-14869650D01*
X10627086Y-14888698D02*
X10636610Y-14879174D01*
X10636610Y-14879174D02*
X10655658Y-14869650D01*
X10655658Y-14869650D02*
X10684229Y-14869650D01*
X10684229Y-14869650D02*
X10703277Y-14879174D01*
X10703277Y-14879174D02*
X10712801Y-14898222D01*
X10712801Y-14898222D02*
X10712801Y-15002984D01*
X10712801Y-14898222D02*
X10722325Y-14879174D01*
X10722325Y-14879174D02*
X10741372Y-14869650D01*
X10741372Y-14869650D02*
X10769944Y-14869650D01*
X10769944Y-14869650D02*
X10788991Y-14879174D01*
X10788991Y-14879174D02*
X10798515Y-14898222D01*
X10798515Y-14898222D02*
X10798515Y-15002984D01*
X11188991Y-14793460D02*
X11017563Y-15050603D01*
X11446134Y-14802984D02*
X11465182Y-14802984D01*
X11465182Y-14802984D02*
X11484229Y-14812508D01*
X11484229Y-14812508D02*
X11493753Y-14822031D01*
X11493753Y-14822031D02*
X11503277Y-14841079D01*
X11503277Y-14841079D02*
X11512801Y-14879174D01*
X11512801Y-14879174D02*
X11512801Y-14926793D01*
X11512801Y-14926793D02*
X11503277Y-14964888D01*
X11503277Y-14964888D02*
X11493753Y-14983936D01*
X11493753Y-14983936D02*
X11484229Y-14993460D01*
X11484229Y-14993460D02*
X11465182Y-15002984D01*
X11465182Y-15002984D02*
X11446134Y-15002984D01*
X11446134Y-15002984D02*
X11427086Y-14993460D01*
X11427086Y-14993460D02*
X11417563Y-14983936D01*
X11417563Y-14983936D02*
X11408039Y-14964888D01*
X11408039Y-14964888D02*
X11398515Y-14926793D01*
X11398515Y-14926793D02*
X11398515Y-14879174D01*
X11398515Y-14879174D02*
X11408039Y-14841079D01*
X11408039Y-14841079D02*
X11417563Y-14822031D01*
X11417563Y-14822031D02*
X11427086Y-14812508D01*
X11427086Y-14812508D02*
X11446134Y-14802984D01*
X11598515Y-14983936D02*
X11608039Y-14993460D01*
X11608039Y-14993460D02*
X11598515Y-15002984D01*
X11598515Y-15002984D02*
X11588991Y-14993460D01*
X11588991Y-14993460D02*
X11598515Y-14983936D01*
X11598515Y-14983936D02*
X11598515Y-15002984D01*
X11798515Y-15002984D02*
X11684229Y-15002984D01*
X11741372Y-15002984D02*
X11741372Y-14802984D01*
X11741372Y-14802984D02*
X11722325Y-14831555D01*
X11722325Y-14831555D02*
X11703277Y-14850603D01*
X11703277Y-14850603D02*
X11684229Y-14860127D01*
X11922325Y-14802984D02*
X11941372Y-14802984D01*
X11941372Y-14802984D02*
X11960420Y-14812508D01*
X11960420Y-14812508D02*
X11969944Y-14822031D01*
X11969944Y-14822031D02*
X11979467Y-14841079D01*
X11979467Y-14841079D02*
X11988991Y-14879174D01*
X11988991Y-14879174D02*
X11988991Y-14926793D01*
X11988991Y-14926793D02*
X11979467Y-14964888D01*
X11979467Y-14964888D02*
X11969944Y-14983936D01*
X11969944Y-14983936D02*
X11960420Y-14993460D01*
X11960420Y-14993460D02*
X11941372Y-15002984D01*
X11941372Y-15002984D02*
X11922325Y-15002984D01*
X11922325Y-15002984D02*
X11903277Y-14993460D01*
X11903277Y-14993460D02*
X11893753Y-14983936D01*
X11893753Y-14983936D02*
X11884229Y-14964888D01*
X11884229Y-14964888D02*
X11874706Y-14926793D01*
X11874706Y-14926793D02*
X11874706Y-14879174D01*
X11874706Y-14879174D02*
X11884229Y-14841079D01*
X11884229Y-14841079D02*
X11893753Y-14822031D01*
X11893753Y-14822031D02*
X11903277Y-14812508D01*
X11903277Y-14812508D02*
X11922325Y-14802984D01*
X12160420Y-14802984D02*
X12122325Y-14802984D01*
X12122325Y-14802984D02*
X12103277Y-14812508D01*
X12103277Y-14812508D02*
X12093753Y-14822031D01*
X12093753Y-14822031D02*
X12074706Y-14850603D01*
X12074706Y-14850603D02*
X12065182Y-14888698D01*
X12065182Y-14888698D02*
X12065182Y-14964888D01*
X12065182Y-14964888D02*
X12074706Y-14983936D01*
X12074706Y-14983936D02*
X12084229Y-14993460D01*
X12084229Y-14993460D02*
X12103277Y-15002984D01*
X12103277Y-15002984D02*
X12141372Y-15002984D01*
X12141372Y-15002984D02*
X12160420Y-14993460D01*
X12160420Y-14993460D02*
X12169944Y-14983936D01*
X12169944Y-14983936D02*
X12179467Y-14964888D01*
X12179467Y-14964888D02*
X12179467Y-14917269D01*
X12179467Y-14917269D02*
X12169944Y-14898222D01*
X12169944Y-14898222D02*
X12160420Y-14888698D01*
X12160420Y-14888698D02*
X12141372Y-14879174D01*
X12141372Y-14879174D02*
X12103277Y-14879174D01*
X12103277Y-14879174D02*
X12084229Y-14888698D01*
X12084229Y-14888698D02*
X12074706Y-14898222D01*
X12074706Y-14898222D02*
X12065182Y-14917269D01*
X12246134Y-14802984D02*
X12369944Y-14802984D01*
X12369944Y-14802984D02*
X12303277Y-14879174D01*
X12303277Y-14879174D02*
X12331848Y-14879174D01*
X12331848Y-14879174D02*
X12350896Y-14888698D01*
X12350896Y-14888698D02*
X12360420Y-14898222D01*
X12360420Y-14898222D02*
X12369944Y-14917269D01*
X12369944Y-14917269D02*
X12369944Y-14964888D01*
X12369944Y-14964888D02*
X12360420Y-14983936D01*
X12360420Y-14983936D02*
X12350896Y-14993460D01*
X12350896Y-14993460D02*
X12331848Y-15002984D01*
X12331848Y-15002984D02*
X12274706Y-15002984D01*
X12274706Y-15002984D02*
X12255658Y-14993460D01*
X12255658Y-14993460D02*
X12246134Y-14983936D01*
X12446134Y-14802984D02*
X12446134Y-14841079D01*
X12522325Y-14802984D02*
X12522325Y-14841079D01*
X12817563Y-15079174D02*
X12808039Y-15069650D01*
X12808039Y-15069650D02*
X12788991Y-15041079D01*
X12788991Y-15041079D02*
X12779468Y-15022031D01*
X12779468Y-15022031D02*
X12769944Y-14993460D01*
X12769944Y-14993460D02*
X12760420Y-14945841D01*
X12760420Y-14945841D02*
X12760420Y-14907746D01*
X12760420Y-14907746D02*
X12769944Y-14860127D01*
X12769944Y-14860127D02*
X12779468Y-14831555D01*
X12779468Y-14831555D02*
X12788991Y-14812508D01*
X12788991Y-14812508D02*
X12808039Y-14783936D01*
X12808039Y-14783936D02*
X12817563Y-14774412D01*
X12979468Y-14869650D02*
X12979468Y-15002984D01*
X12931848Y-14793460D02*
X12884229Y-14936317D01*
X12884229Y-14936317D02*
X13008039Y-14936317D01*
X13236610Y-15002984D02*
X13236610Y-14802984D01*
X13322325Y-15002984D02*
X13322325Y-14898222D01*
X13322325Y-14898222D02*
X13312801Y-14879174D01*
X13312801Y-14879174D02*
X13293753Y-14869650D01*
X13293753Y-14869650D02*
X13265182Y-14869650D01*
X13265182Y-14869650D02*
X13246134Y-14879174D01*
X13246134Y-14879174D02*
X13236610Y-14888698D01*
X13446134Y-15002984D02*
X13427087Y-14993460D01*
X13427087Y-14993460D02*
X13417563Y-14983936D01*
X13417563Y-14983936D02*
X13408039Y-14964888D01*
X13408039Y-14964888D02*
X13408039Y-14907746D01*
X13408039Y-14907746D02*
X13417563Y-14888698D01*
X13417563Y-14888698D02*
X13427087Y-14879174D01*
X13427087Y-14879174D02*
X13446134Y-14869650D01*
X13446134Y-14869650D02*
X13474706Y-14869650D01*
X13474706Y-14869650D02*
X13493753Y-14879174D01*
X13493753Y-14879174D02*
X13503277Y-14888698D01*
X13503277Y-14888698D02*
X13512801Y-14907746D01*
X13512801Y-14907746D02*
X13512801Y-14964888D01*
X13512801Y-14964888D02*
X13503277Y-14983936D01*
X13503277Y-14983936D02*
X13493753Y-14993460D01*
X13493753Y-14993460D02*
X13474706Y-15002984D01*
X13474706Y-15002984D02*
X13446134Y-15002984D01*
X13627087Y-15002984D02*
X13608039Y-14993460D01*
X13608039Y-14993460D02*
X13598515Y-14974412D01*
X13598515Y-14974412D02*
X13598515Y-14802984D01*
X13779468Y-14993460D02*
X13760420Y-15002984D01*
X13760420Y-15002984D02*
X13722325Y-15002984D01*
X13722325Y-15002984D02*
X13703277Y-14993460D01*
X13703277Y-14993460D02*
X13693753Y-14974412D01*
X13693753Y-14974412D02*
X13693753Y-14898222D01*
X13693753Y-14898222D02*
X13703277Y-14879174D01*
X13703277Y-14879174D02*
X13722325Y-14869650D01*
X13722325Y-14869650D02*
X13760420Y-14869650D01*
X13760420Y-14869650D02*
X13779468Y-14879174D01*
X13779468Y-14879174D02*
X13788991Y-14898222D01*
X13788991Y-14898222D02*
X13788991Y-14917269D01*
X13788991Y-14917269D02*
X13693753Y-14936317D01*
X13865182Y-14993460D02*
X13884230Y-15002984D01*
X13884230Y-15002984D02*
X13922325Y-15002984D01*
X13922325Y-15002984D02*
X13941372Y-14993460D01*
X13941372Y-14993460D02*
X13950896Y-14974412D01*
X13950896Y-14974412D02*
X13950896Y-14964888D01*
X13950896Y-14964888D02*
X13941372Y-14945841D01*
X13941372Y-14945841D02*
X13922325Y-14936317D01*
X13922325Y-14936317D02*
X13893753Y-14936317D01*
X13893753Y-14936317D02*
X13874706Y-14926793D01*
X13874706Y-14926793D02*
X13865182Y-14907746D01*
X13865182Y-14907746D02*
X13865182Y-14898222D01*
X13865182Y-14898222D02*
X13874706Y-14879174D01*
X13874706Y-14879174D02*
X13893753Y-14869650D01*
X13893753Y-14869650D02*
X13922325Y-14869650D01*
X13922325Y-14869650D02*
X13941372Y-14879174D01*
X14017563Y-15079174D02*
X14027087Y-15069650D01*
X14027087Y-15069650D02*
X14046134Y-15041079D01*
X14046134Y-15041079D02*
X14055658Y-15022031D01*
X14055658Y-15022031D02*
X14065182Y-14993460D01*
X14065182Y-14993460D02*
X14074706Y-14945841D01*
X14074706Y-14945841D02*
X14074706Y-14907746D01*
X14074706Y-14907746D02*
X14065182Y-14860127D01*
X14065182Y-14860127D02*
X14055658Y-14831555D01*
X14055658Y-14831555D02*
X14046134Y-14812508D01*
X14046134Y-14812508D02*
X14027087Y-14783936D01*
X14027087Y-14783936D02*
X14017563Y-14774412D01*
X14379468Y-15079174D02*
X14369944Y-15069650D01*
X14369944Y-15069650D02*
X14350896Y-15041079D01*
X14350896Y-15041079D02*
X14341372Y-15022031D01*
X14341372Y-15022031D02*
X14331849Y-14993460D01*
X14331849Y-14993460D02*
X14322325Y-14945841D01*
X14322325Y-14945841D02*
X14322325Y-14907746D01*
X14322325Y-14907746D02*
X14331849Y-14860127D01*
X14331849Y-14860127D02*
X14341372Y-14831555D01*
X14341372Y-14831555D02*
X14350896Y-14812508D01*
X14350896Y-14812508D02*
X14369944Y-14783936D01*
X14369944Y-14783936D02*
X14379468Y-14774412D01*
X14455658Y-14869650D02*
X14455658Y-15002984D01*
X14455658Y-14888698D02*
X14465182Y-14879174D01*
X14465182Y-14879174D02*
X14484230Y-14869650D01*
X14484230Y-14869650D02*
X14512801Y-14869650D01*
X14512801Y-14869650D02*
X14531849Y-14879174D01*
X14531849Y-14879174D02*
X14541372Y-14898222D01*
X14541372Y-14898222D02*
X14541372Y-15002984D01*
X14665182Y-15002984D02*
X14646134Y-14993460D01*
X14646134Y-14993460D02*
X14636611Y-14983936D01*
X14636611Y-14983936D02*
X14627087Y-14964888D01*
X14627087Y-14964888D02*
X14627087Y-14907746D01*
X14627087Y-14907746D02*
X14636611Y-14888698D01*
X14636611Y-14888698D02*
X14646134Y-14879174D01*
X14646134Y-14879174D02*
X14665182Y-14869650D01*
X14665182Y-14869650D02*
X14693753Y-14869650D01*
X14693753Y-14869650D02*
X14712801Y-14879174D01*
X14712801Y-14879174D02*
X14722325Y-14888698D01*
X14722325Y-14888698D02*
X14731849Y-14907746D01*
X14731849Y-14907746D02*
X14731849Y-14964888D01*
X14731849Y-14964888D02*
X14722325Y-14983936D01*
X14722325Y-14983936D02*
X14712801Y-14993460D01*
X14712801Y-14993460D02*
X14693753Y-15002984D01*
X14693753Y-15002984D02*
X14665182Y-15002984D01*
X14788992Y-14869650D02*
X14865182Y-14869650D01*
X14817563Y-14802984D02*
X14817563Y-14974412D01*
X14817563Y-14974412D02*
X14827087Y-14993460D01*
X14827087Y-14993460D02*
X14846134Y-15002984D01*
X14846134Y-15002984D02*
X14865182Y-15002984D01*
X15084230Y-14869650D02*
X15084230Y-15069650D01*
X15084230Y-14879174D02*
X15103277Y-14869650D01*
X15103277Y-14869650D02*
X15141373Y-14869650D01*
X15141373Y-14869650D02*
X15160420Y-14879174D01*
X15160420Y-14879174D02*
X15169944Y-14888698D01*
X15169944Y-14888698D02*
X15179468Y-14907746D01*
X15179468Y-14907746D02*
X15179468Y-14964888D01*
X15179468Y-14964888D02*
X15169944Y-14983936D01*
X15169944Y-14983936D02*
X15160420Y-14993460D01*
X15160420Y-14993460D02*
X15141373Y-15002984D01*
X15141373Y-15002984D02*
X15103277Y-15002984D01*
X15103277Y-15002984D02*
X15084230Y-14993460D01*
X15293753Y-15002984D02*
X15274706Y-14993460D01*
X15274706Y-14993460D02*
X15265182Y-14974412D01*
X15265182Y-14974412D02*
X15265182Y-14802984D01*
X15455658Y-15002984D02*
X15455658Y-14898222D01*
X15455658Y-14898222D02*
X15446134Y-14879174D01*
X15446134Y-14879174D02*
X15427087Y-14869650D01*
X15427087Y-14869650D02*
X15388992Y-14869650D01*
X15388992Y-14869650D02*
X15369944Y-14879174D01*
X15455658Y-14993460D02*
X15436611Y-15002984D01*
X15436611Y-15002984D02*
X15388992Y-15002984D01*
X15388992Y-15002984D02*
X15369944Y-14993460D01*
X15369944Y-14993460D02*
X15360420Y-14974412D01*
X15360420Y-14974412D02*
X15360420Y-14955365D01*
X15360420Y-14955365D02*
X15369944Y-14936317D01*
X15369944Y-14936317D02*
X15388992Y-14926793D01*
X15388992Y-14926793D02*
X15436611Y-14926793D01*
X15436611Y-14926793D02*
X15455658Y-14917269D01*
X15522325Y-14869650D02*
X15598515Y-14869650D01*
X15550896Y-14802984D02*
X15550896Y-14974412D01*
X15550896Y-14974412D02*
X15560420Y-14993460D01*
X15560420Y-14993460D02*
X15579468Y-15002984D01*
X15579468Y-15002984D02*
X15598515Y-15002984D01*
X15741373Y-14993460D02*
X15722325Y-15002984D01*
X15722325Y-15002984D02*
X15684230Y-15002984D01*
X15684230Y-15002984D02*
X15665182Y-14993460D01*
X15665182Y-14993460D02*
X15655658Y-14974412D01*
X15655658Y-14974412D02*
X15655658Y-14898222D01*
X15655658Y-14898222D02*
X15665182Y-14879174D01*
X15665182Y-14879174D02*
X15684230Y-14869650D01*
X15684230Y-14869650D02*
X15722325Y-14869650D01*
X15722325Y-14869650D02*
X15741373Y-14879174D01*
X15741373Y-14879174D02*
X15750896Y-14898222D01*
X15750896Y-14898222D02*
X15750896Y-14917269D01*
X15750896Y-14917269D02*
X15655658Y-14936317D01*
X15922325Y-15002984D02*
X15922325Y-14802984D01*
X15922325Y-14993460D02*
X15903277Y-15002984D01*
X15903277Y-15002984D02*
X15865182Y-15002984D01*
X15865182Y-15002984D02*
X15846134Y-14993460D01*
X15846134Y-14993460D02*
X15836611Y-14983936D01*
X15836611Y-14983936D02*
X15827087Y-14964888D01*
X15827087Y-14964888D02*
X15827087Y-14907746D01*
X15827087Y-14907746D02*
X15836611Y-14888698D01*
X15836611Y-14888698D02*
X15846134Y-14879174D01*
X15846134Y-14879174D02*
X15865182Y-14869650D01*
X15865182Y-14869650D02*
X15903277Y-14869650D01*
X15903277Y-14869650D02*
X15922325Y-14879174D01*
X15998515Y-15079174D02*
X16008039Y-15069650D01*
X16008039Y-15069650D02*
X16027087Y-15041079D01*
X16027087Y-15041079D02*
X16036611Y-15022031D01*
X16036611Y-15022031D02*
X16046134Y-14993460D01*
X16046134Y-14993460D02*
X16055658Y-14945841D01*
X16055658Y-14945841D02*
X16055658Y-14907746D01*
X16055658Y-14907746D02*
X16046134Y-14860127D01*
X16046134Y-14860127D02*
X16036611Y-14831555D01*
X16036611Y-14831555D02*
X16027087Y-14812508D01*
X16027087Y-14812508D02*
X16008039Y-14783936D01*
X16008039Y-14783936D02*
X15998515Y-14774412D01*
X9142500Y-15131500D02*
X9142500Y-15331500D01*
X9042500Y-15231500D02*
X9242500Y-15231500D01*
X9588991Y-15189650D02*
X9588991Y-15322984D01*
X9541372Y-15113460D02*
X9493753Y-15256317D01*
X9493753Y-15256317D02*
X9617563Y-15256317D01*
X9693753Y-15303936D02*
X9703277Y-15313460D01*
X9703277Y-15313460D02*
X9693753Y-15322984D01*
X9693753Y-15322984D02*
X9684229Y-15313460D01*
X9684229Y-15313460D02*
X9693753Y-15303936D01*
X9693753Y-15303936D02*
X9693753Y-15322984D01*
X9827086Y-15122984D02*
X9846134Y-15122984D01*
X9846134Y-15122984D02*
X9865182Y-15132508D01*
X9865182Y-15132508D02*
X9874705Y-15142031D01*
X9874705Y-15142031D02*
X9884229Y-15161079D01*
X9884229Y-15161079D02*
X9893753Y-15199174D01*
X9893753Y-15199174D02*
X9893753Y-15246793D01*
X9893753Y-15246793D02*
X9884229Y-15284888D01*
X9884229Y-15284888D02*
X9874705Y-15303936D01*
X9874705Y-15303936D02*
X9865182Y-15313460D01*
X9865182Y-15313460D02*
X9846134Y-15322984D01*
X9846134Y-15322984D02*
X9827086Y-15322984D01*
X9827086Y-15322984D02*
X9808039Y-15313460D01*
X9808039Y-15313460D02*
X9798515Y-15303936D01*
X9798515Y-15303936D02*
X9788991Y-15284888D01*
X9788991Y-15284888D02*
X9779467Y-15246793D01*
X9779467Y-15246793D02*
X9779467Y-15199174D01*
X9779467Y-15199174D02*
X9788991Y-15161079D01*
X9788991Y-15161079D02*
X9798515Y-15142031D01*
X9798515Y-15142031D02*
X9808039Y-15132508D01*
X9808039Y-15132508D02*
X9827086Y-15122984D01*
X10017563Y-15122984D02*
X10036610Y-15122984D01*
X10036610Y-15122984D02*
X10055658Y-15132508D01*
X10055658Y-15132508D02*
X10065182Y-15142031D01*
X10065182Y-15142031D02*
X10074705Y-15161079D01*
X10074705Y-15161079D02*
X10084229Y-15199174D01*
X10084229Y-15199174D02*
X10084229Y-15246793D01*
X10084229Y-15246793D02*
X10074705Y-15284888D01*
X10074705Y-15284888D02*
X10065182Y-15303936D01*
X10065182Y-15303936D02*
X10055658Y-15313460D01*
X10055658Y-15313460D02*
X10036610Y-15322984D01*
X10036610Y-15322984D02*
X10017563Y-15322984D01*
X10017563Y-15322984D02*
X9998515Y-15313460D01*
X9998515Y-15313460D02*
X9988991Y-15303936D01*
X9988991Y-15303936D02*
X9979467Y-15284888D01*
X9979467Y-15284888D02*
X9969944Y-15246793D01*
X9969944Y-15246793D02*
X9969944Y-15199174D01*
X9969944Y-15199174D02*
X9979467Y-15161079D01*
X9979467Y-15161079D02*
X9988991Y-15142031D01*
X9988991Y-15142031D02*
X9998515Y-15132508D01*
X9998515Y-15132508D02*
X10017563Y-15122984D01*
X10208039Y-15122984D02*
X10227086Y-15122984D01*
X10227086Y-15122984D02*
X10246134Y-15132508D01*
X10246134Y-15132508D02*
X10255658Y-15142031D01*
X10255658Y-15142031D02*
X10265182Y-15161079D01*
X10265182Y-15161079D02*
X10274705Y-15199174D01*
X10274705Y-15199174D02*
X10274705Y-15246793D01*
X10274705Y-15246793D02*
X10265182Y-15284888D01*
X10265182Y-15284888D02*
X10255658Y-15303936D01*
X10255658Y-15303936D02*
X10246134Y-15313460D01*
X10246134Y-15313460D02*
X10227086Y-15322984D01*
X10227086Y-15322984D02*
X10208039Y-15322984D01*
X10208039Y-15322984D02*
X10188991Y-15313460D01*
X10188991Y-15313460D02*
X10179467Y-15303936D01*
X10179467Y-15303936D02*
X10169944Y-15284888D01*
X10169944Y-15284888D02*
X10160420Y-15246793D01*
X10160420Y-15246793D02*
X10160420Y-15199174D01*
X10160420Y-15199174D02*
X10169944Y-15161079D01*
X10169944Y-15161079D02*
X10179467Y-15142031D01*
X10179467Y-15142031D02*
X10188991Y-15132508D01*
X10188991Y-15132508D02*
X10208039Y-15122984D01*
X10360420Y-15322984D02*
X10360420Y-15189650D01*
X10360420Y-15208698D02*
X10369944Y-15199174D01*
X10369944Y-15199174D02*
X10388991Y-15189650D01*
X10388991Y-15189650D02*
X10417563Y-15189650D01*
X10417563Y-15189650D02*
X10436610Y-15199174D01*
X10436610Y-15199174D02*
X10446134Y-15218222D01*
X10446134Y-15218222D02*
X10446134Y-15322984D01*
X10446134Y-15218222D02*
X10455658Y-15199174D01*
X10455658Y-15199174D02*
X10474705Y-15189650D01*
X10474705Y-15189650D02*
X10503277Y-15189650D01*
X10503277Y-15189650D02*
X10522325Y-15199174D01*
X10522325Y-15199174D02*
X10531848Y-15218222D01*
X10531848Y-15218222D02*
X10531848Y-15322984D01*
X10627086Y-15322984D02*
X10627086Y-15189650D01*
X10627086Y-15208698D02*
X10636610Y-15199174D01*
X10636610Y-15199174D02*
X10655658Y-15189650D01*
X10655658Y-15189650D02*
X10684229Y-15189650D01*
X10684229Y-15189650D02*
X10703277Y-15199174D01*
X10703277Y-15199174D02*
X10712801Y-15218222D01*
X10712801Y-15218222D02*
X10712801Y-15322984D01*
X10712801Y-15218222D02*
X10722325Y-15199174D01*
X10722325Y-15199174D02*
X10741372Y-15189650D01*
X10741372Y-15189650D02*
X10769944Y-15189650D01*
X10769944Y-15189650D02*
X10788991Y-15199174D01*
X10788991Y-15199174D02*
X10798515Y-15218222D01*
X10798515Y-15218222D02*
X10798515Y-15322984D01*
X11188991Y-15113460D02*
X11017563Y-15370603D01*
X11446134Y-15122984D02*
X11465182Y-15122984D01*
X11465182Y-15122984D02*
X11484229Y-15132508D01*
X11484229Y-15132508D02*
X11493753Y-15142031D01*
X11493753Y-15142031D02*
X11503277Y-15161079D01*
X11503277Y-15161079D02*
X11512801Y-15199174D01*
X11512801Y-15199174D02*
X11512801Y-15246793D01*
X11512801Y-15246793D02*
X11503277Y-15284888D01*
X11503277Y-15284888D02*
X11493753Y-15303936D01*
X11493753Y-15303936D02*
X11484229Y-15313460D01*
X11484229Y-15313460D02*
X11465182Y-15322984D01*
X11465182Y-15322984D02*
X11446134Y-15322984D01*
X11446134Y-15322984D02*
X11427086Y-15313460D01*
X11427086Y-15313460D02*
X11417563Y-15303936D01*
X11417563Y-15303936D02*
X11408039Y-15284888D01*
X11408039Y-15284888D02*
X11398515Y-15246793D01*
X11398515Y-15246793D02*
X11398515Y-15199174D01*
X11398515Y-15199174D02*
X11408039Y-15161079D01*
X11408039Y-15161079D02*
X11417563Y-15142031D01*
X11417563Y-15142031D02*
X11427086Y-15132508D01*
X11427086Y-15132508D02*
X11446134Y-15122984D01*
X11598515Y-15303936D02*
X11608039Y-15313460D01*
X11608039Y-15313460D02*
X11598515Y-15322984D01*
X11598515Y-15322984D02*
X11588991Y-15313460D01*
X11588991Y-15313460D02*
X11598515Y-15303936D01*
X11598515Y-15303936D02*
X11598515Y-15322984D01*
X11798515Y-15322984D02*
X11684229Y-15322984D01*
X11741372Y-15322984D02*
X11741372Y-15122984D01*
X11741372Y-15122984D02*
X11722325Y-15151555D01*
X11722325Y-15151555D02*
X11703277Y-15170603D01*
X11703277Y-15170603D02*
X11684229Y-15180127D01*
X11979467Y-15122984D02*
X11884229Y-15122984D01*
X11884229Y-15122984D02*
X11874706Y-15218222D01*
X11874706Y-15218222D02*
X11884229Y-15208698D01*
X11884229Y-15208698D02*
X11903277Y-15199174D01*
X11903277Y-15199174D02*
X11950896Y-15199174D01*
X11950896Y-15199174D02*
X11969944Y-15208698D01*
X11969944Y-15208698D02*
X11979467Y-15218222D01*
X11979467Y-15218222D02*
X11988991Y-15237269D01*
X11988991Y-15237269D02*
X11988991Y-15284888D01*
X11988991Y-15284888D02*
X11979467Y-15303936D01*
X11979467Y-15303936D02*
X11969944Y-15313460D01*
X11969944Y-15313460D02*
X11950896Y-15322984D01*
X11950896Y-15322984D02*
X11903277Y-15322984D01*
X11903277Y-15322984D02*
X11884229Y-15313460D01*
X11884229Y-15313460D02*
X11874706Y-15303936D01*
X12055658Y-15122984D02*
X12188991Y-15122984D01*
X12188991Y-15122984D02*
X12103277Y-15322984D01*
X12360420Y-15122984D02*
X12265182Y-15122984D01*
X12265182Y-15122984D02*
X12255658Y-15218222D01*
X12255658Y-15218222D02*
X12265182Y-15208698D01*
X12265182Y-15208698D02*
X12284229Y-15199174D01*
X12284229Y-15199174D02*
X12331848Y-15199174D01*
X12331848Y-15199174D02*
X12350896Y-15208698D01*
X12350896Y-15208698D02*
X12360420Y-15218222D01*
X12360420Y-15218222D02*
X12369944Y-15237269D01*
X12369944Y-15237269D02*
X12369944Y-15284888D01*
X12369944Y-15284888D02*
X12360420Y-15303936D01*
X12360420Y-15303936D02*
X12350896Y-15313460D01*
X12350896Y-15313460D02*
X12331848Y-15322984D01*
X12331848Y-15322984D02*
X12284229Y-15322984D01*
X12284229Y-15322984D02*
X12265182Y-15313460D01*
X12265182Y-15313460D02*
X12255658Y-15303936D01*
X12446134Y-15122984D02*
X12446134Y-15161079D01*
X12522325Y-15122984D02*
X12522325Y-15161079D01*
X12817563Y-15399174D02*
X12808039Y-15389650D01*
X12808039Y-15389650D02*
X12788991Y-15361079D01*
X12788991Y-15361079D02*
X12779468Y-15342031D01*
X12779468Y-15342031D02*
X12769944Y-15313460D01*
X12769944Y-15313460D02*
X12760420Y-15265841D01*
X12760420Y-15265841D02*
X12760420Y-15227746D01*
X12760420Y-15227746D02*
X12769944Y-15180127D01*
X12769944Y-15180127D02*
X12779468Y-15151555D01*
X12779468Y-15151555D02*
X12788991Y-15132508D01*
X12788991Y-15132508D02*
X12808039Y-15103936D01*
X12808039Y-15103936D02*
X12817563Y-15094412D01*
X12998515Y-15322984D02*
X12884229Y-15322984D01*
X12941372Y-15322984D02*
X12941372Y-15122984D01*
X12941372Y-15122984D02*
X12922325Y-15151555D01*
X12922325Y-15151555D02*
X12903277Y-15170603D01*
X12903277Y-15170603D02*
X12884229Y-15180127D01*
X13236610Y-15322984D02*
X13236610Y-15122984D01*
X13322325Y-15322984D02*
X13322325Y-15218222D01*
X13322325Y-15218222D02*
X13312801Y-15199174D01*
X13312801Y-15199174D02*
X13293753Y-15189650D01*
X13293753Y-15189650D02*
X13265182Y-15189650D01*
X13265182Y-15189650D02*
X13246134Y-15199174D01*
X13246134Y-15199174D02*
X13236610Y-15208698D01*
X13446134Y-15322984D02*
X13427087Y-15313460D01*
X13427087Y-15313460D02*
X13417563Y-15303936D01*
X13417563Y-15303936D02*
X13408039Y-15284888D01*
X13408039Y-15284888D02*
X13408039Y-15227746D01*
X13408039Y-15227746D02*
X13417563Y-15208698D01*
X13417563Y-15208698D02*
X13427087Y-15199174D01*
X13427087Y-15199174D02*
X13446134Y-15189650D01*
X13446134Y-15189650D02*
X13474706Y-15189650D01*
X13474706Y-15189650D02*
X13493753Y-15199174D01*
X13493753Y-15199174D02*
X13503277Y-15208698D01*
X13503277Y-15208698D02*
X13512801Y-15227746D01*
X13512801Y-15227746D02*
X13512801Y-15284888D01*
X13512801Y-15284888D02*
X13503277Y-15303936D01*
X13503277Y-15303936D02*
X13493753Y-15313460D01*
X13493753Y-15313460D02*
X13474706Y-15322984D01*
X13474706Y-15322984D02*
X13446134Y-15322984D01*
X13627087Y-15322984D02*
X13608039Y-15313460D01*
X13608039Y-15313460D02*
X13598515Y-15294412D01*
X13598515Y-15294412D02*
X13598515Y-15122984D01*
X13779468Y-15313460D02*
X13760420Y-15322984D01*
X13760420Y-15322984D02*
X13722325Y-15322984D01*
X13722325Y-15322984D02*
X13703277Y-15313460D01*
X13703277Y-15313460D02*
X13693753Y-15294412D01*
X13693753Y-15294412D02*
X13693753Y-15218222D01*
X13693753Y-15218222D02*
X13703277Y-15199174D01*
X13703277Y-15199174D02*
X13722325Y-15189650D01*
X13722325Y-15189650D02*
X13760420Y-15189650D01*
X13760420Y-15189650D02*
X13779468Y-15199174D01*
X13779468Y-15199174D02*
X13788991Y-15218222D01*
X13788991Y-15218222D02*
X13788991Y-15237269D01*
X13788991Y-15237269D02*
X13693753Y-15256317D01*
X13855658Y-15399174D02*
X13865182Y-15389650D01*
X13865182Y-15389650D02*
X13884230Y-15361079D01*
X13884230Y-15361079D02*
X13893753Y-15342031D01*
X13893753Y-15342031D02*
X13903277Y-15313460D01*
X13903277Y-15313460D02*
X13912801Y-15265841D01*
X13912801Y-15265841D02*
X13912801Y-15227746D01*
X13912801Y-15227746D02*
X13903277Y-15180127D01*
X13903277Y-15180127D02*
X13893753Y-15151555D01*
X13893753Y-15151555D02*
X13884230Y-15132508D01*
X13884230Y-15132508D02*
X13865182Y-15103936D01*
X13865182Y-15103936D02*
X13855658Y-15094412D01*
X14217563Y-15399174D02*
X14208039Y-15389650D01*
X14208039Y-15389650D02*
X14188991Y-15361079D01*
X14188991Y-15361079D02*
X14179468Y-15342031D01*
X14179468Y-15342031D02*
X14169944Y-15313460D01*
X14169944Y-15313460D02*
X14160420Y-15265841D01*
X14160420Y-15265841D02*
X14160420Y-15227746D01*
X14160420Y-15227746D02*
X14169944Y-15180127D01*
X14169944Y-15180127D02*
X14179468Y-15151555D01*
X14179468Y-15151555D02*
X14188991Y-15132508D01*
X14188991Y-15132508D02*
X14208039Y-15103936D01*
X14208039Y-15103936D02*
X14217563Y-15094412D01*
X14293753Y-15189650D02*
X14293753Y-15322984D01*
X14293753Y-15208698D02*
X14303277Y-15199174D01*
X14303277Y-15199174D02*
X14322325Y-15189650D01*
X14322325Y-15189650D02*
X14350896Y-15189650D01*
X14350896Y-15189650D02*
X14369944Y-15199174D01*
X14369944Y-15199174D02*
X14379468Y-15218222D01*
X14379468Y-15218222D02*
X14379468Y-15322984D01*
X14503277Y-15322984D02*
X14484230Y-15313460D01*
X14484230Y-15313460D02*
X14474706Y-15303936D01*
X14474706Y-15303936D02*
X14465182Y-15284888D01*
X14465182Y-15284888D02*
X14465182Y-15227746D01*
X14465182Y-15227746D02*
X14474706Y-15208698D01*
X14474706Y-15208698D02*
X14484230Y-15199174D01*
X14484230Y-15199174D02*
X14503277Y-15189650D01*
X14503277Y-15189650D02*
X14531849Y-15189650D01*
X14531849Y-15189650D02*
X14550896Y-15199174D01*
X14550896Y-15199174D02*
X14560420Y-15208698D01*
X14560420Y-15208698D02*
X14569944Y-15227746D01*
X14569944Y-15227746D02*
X14569944Y-15284888D01*
X14569944Y-15284888D02*
X14560420Y-15303936D01*
X14560420Y-15303936D02*
X14550896Y-15313460D01*
X14550896Y-15313460D02*
X14531849Y-15322984D01*
X14531849Y-15322984D02*
X14503277Y-15322984D01*
X14627087Y-15189650D02*
X14703277Y-15189650D01*
X14655658Y-15122984D02*
X14655658Y-15294412D01*
X14655658Y-15294412D02*
X14665182Y-15313460D01*
X14665182Y-15313460D02*
X14684230Y-15322984D01*
X14684230Y-15322984D02*
X14703277Y-15322984D01*
X14922325Y-15189650D02*
X14922325Y-15389650D01*
X14922325Y-15199174D02*
X14941372Y-15189650D01*
X14941372Y-15189650D02*
X14979468Y-15189650D01*
X14979468Y-15189650D02*
X14998515Y-15199174D01*
X14998515Y-15199174D02*
X15008039Y-15208698D01*
X15008039Y-15208698D02*
X15017563Y-15227746D01*
X15017563Y-15227746D02*
X15017563Y-15284888D01*
X15017563Y-15284888D02*
X15008039Y-15303936D01*
X15008039Y-15303936D02*
X14998515Y-15313460D01*
X14998515Y-15313460D02*
X14979468Y-15322984D01*
X14979468Y-15322984D02*
X14941372Y-15322984D01*
X14941372Y-15322984D02*
X14922325Y-15313460D01*
X15131849Y-15322984D02*
X15112801Y-15313460D01*
X15112801Y-15313460D02*
X15103277Y-15294412D01*
X15103277Y-15294412D02*
X15103277Y-15122984D01*
X15293753Y-15322984D02*
X15293753Y-15218222D01*
X15293753Y-15218222D02*
X15284230Y-15199174D01*
X15284230Y-15199174D02*
X15265182Y-15189650D01*
X15265182Y-15189650D02*
X15227087Y-15189650D01*
X15227087Y-15189650D02*
X15208039Y-15199174D01*
X15293753Y-15313460D02*
X15274706Y-15322984D01*
X15274706Y-15322984D02*
X15227087Y-15322984D01*
X15227087Y-15322984D02*
X15208039Y-15313460D01*
X15208039Y-15313460D02*
X15198515Y-15294412D01*
X15198515Y-15294412D02*
X15198515Y-15275365D01*
X15198515Y-15275365D02*
X15208039Y-15256317D01*
X15208039Y-15256317D02*
X15227087Y-15246793D01*
X15227087Y-15246793D02*
X15274706Y-15246793D01*
X15274706Y-15246793D02*
X15293753Y-15237269D01*
X15360420Y-15189650D02*
X15436611Y-15189650D01*
X15388992Y-15122984D02*
X15388992Y-15294412D01*
X15388992Y-15294412D02*
X15398515Y-15313460D01*
X15398515Y-15313460D02*
X15417563Y-15322984D01*
X15417563Y-15322984D02*
X15436611Y-15322984D01*
X15579468Y-15313460D02*
X15560420Y-15322984D01*
X15560420Y-15322984D02*
X15522325Y-15322984D01*
X15522325Y-15322984D02*
X15503277Y-15313460D01*
X15503277Y-15313460D02*
X15493753Y-15294412D01*
X15493753Y-15294412D02*
X15493753Y-15218222D01*
X15493753Y-15218222D02*
X15503277Y-15199174D01*
X15503277Y-15199174D02*
X15522325Y-15189650D01*
X15522325Y-15189650D02*
X15560420Y-15189650D01*
X15560420Y-15189650D02*
X15579468Y-15199174D01*
X15579468Y-15199174D02*
X15588992Y-15218222D01*
X15588992Y-15218222D02*
X15588992Y-15237269D01*
X15588992Y-15237269D02*
X15493753Y-15256317D01*
X15760420Y-15322984D02*
X15760420Y-15122984D01*
X15760420Y-15313460D02*
X15741373Y-15322984D01*
X15741373Y-15322984D02*
X15703277Y-15322984D01*
X15703277Y-15322984D02*
X15684230Y-15313460D01*
X15684230Y-15313460D02*
X15674706Y-15303936D01*
X15674706Y-15303936D02*
X15665182Y-15284888D01*
X15665182Y-15284888D02*
X15665182Y-15227746D01*
X15665182Y-15227746D02*
X15674706Y-15208698D01*
X15674706Y-15208698D02*
X15684230Y-15199174D01*
X15684230Y-15199174D02*
X15703277Y-15189650D01*
X15703277Y-15189650D02*
X15741373Y-15189650D01*
X15741373Y-15189650D02*
X15760420Y-15199174D01*
X15836611Y-15399174D02*
X15846134Y-15389650D01*
X15846134Y-15389650D02*
X15865182Y-15361079D01*
X15865182Y-15361079D02*
X15874706Y-15342031D01*
X15874706Y-15342031D02*
X15884230Y-15313460D01*
X15884230Y-15313460D02*
X15893753Y-15265841D01*
X15893753Y-15265841D02*
X15893753Y-15227746D01*
X15893753Y-15227746D02*
X15884230Y-15180127D01*
X15884230Y-15180127D02*
X15874706Y-15151555D01*
X15874706Y-15151555D02*
X15865182Y-15132508D01*
X15865182Y-15132508D02*
X15846134Y-15103936D01*
X15846134Y-15103936D02*
X15836611Y-15094412D01*
M02*
