G04 #@! TF.GenerationSoftware,KiCad,Pcbnew,8.0.3*
G04 #@! TF.CreationDate,2024-08-18T22:06:24+09:00*
G04 #@! TF.ProjectId,AutoFeeder_Drum-type,4175746f-4665-4656-9465-725f4472756d,02*
G04 #@! TF.SameCoordinates,Original*
G04 #@! TF.FileFunction,Legend,Bot*
G04 #@! TF.FilePolarity,Positive*
%FSLAX46Y46*%
G04 Gerber Fmt 4.6, Leading zero omitted, Abs format (unit mm)*
G04 Created by KiCad (PCBNEW 8.0.3) date 2024-08-18 22:06:24*
%MOMM*%
%LPD*%
G01*
G04 APERTURE LIST*
%ADD10C,0.150000*%
%ADD11C,0.200000*%
%ADD12C,0.120000*%
G04 APERTURE END LIST*
D10*
X106000000Y-104500000D02*
X106000000Y-105000000D01*
X117000000Y-90500000D02*
X117000000Y-118000000D01*
X106500000Y-105000000D02*
X106000000Y-105000000D01*
X117000000Y-133000000D02*
X117000000Y-139500000D01*
X115000000Y-105000000D02*
G75*
G02*
X97000000Y-105000000I-9000000J0D01*
G01*
X97000000Y-105000000D02*
G75*
G02*
X115000000Y-105000000I9000000J0D01*
G01*
X117000000Y-122000000D02*
X117000000Y-127000000D01*
X106000000Y-105000000D02*
X106000000Y-105500000D01*
X105500000Y-105000000D02*
X106000000Y-105000000D01*
X102079398Y-129042438D02*
X102174636Y-128994819D01*
X102174636Y-128994819D02*
X102317493Y-128994819D01*
X102317493Y-128994819D02*
X102460350Y-129042438D01*
X102460350Y-129042438D02*
X102555588Y-129137676D01*
X102555588Y-129137676D02*
X102603207Y-129232914D01*
X102603207Y-129232914D02*
X102650826Y-129423390D01*
X102650826Y-129423390D02*
X102650826Y-129566247D01*
X102650826Y-129566247D02*
X102603207Y-129756723D01*
X102603207Y-129756723D02*
X102555588Y-129851961D01*
X102555588Y-129851961D02*
X102460350Y-129947200D01*
X102460350Y-129947200D02*
X102317493Y-129994819D01*
X102317493Y-129994819D02*
X102222255Y-129994819D01*
X102222255Y-129994819D02*
X102079398Y-129947200D01*
X102079398Y-129947200D02*
X102031779Y-129899580D01*
X102031779Y-129899580D02*
X102031779Y-129566247D01*
X102031779Y-129566247D02*
X102222255Y-129566247D01*
X101603207Y-129994819D02*
X101603207Y-128994819D01*
X101603207Y-128994819D02*
X101031779Y-129994819D01*
X101031779Y-129994819D02*
X101031779Y-128994819D01*
X100555588Y-129994819D02*
X100555588Y-128994819D01*
X100555588Y-128994819D02*
X100317493Y-128994819D01*
X100317493Y-128994819D02*
X100174636Y-129042438D01*
X100174636Y-129042438D02*
X100079398Y-129137676D01*
X100079398Y-129137676D02*
X100031779Y-129232914D01*
X100031779Y-129232914D02*
X99984160Y-129423390D01*
X99984160Y-129423390D02*
X99984160Y-129566247D01*
X99984160Y-129566247D02*
X100031779Y-129756723D01*
X100031779Y-129756723D02*
X100079398Y-129851961D01*
X100079398Y-129851961D02*
X100174636Y-129947200D01*
X100174636Y-129947200D02*
X100317493Y-129994819D01*
X100317493Y-129994819D02*
X100555588Y-129994819D01*
X93831580Y-126738095D02*
X93879200Y-126690476D01*
X93879200Y-126690476D02*
X93926819Y-126547619D01*
X93926819Y-126547619D02*
X93926819Y-126452381D01*
X93926819Y-126452381D02*
X93879200Y-126309524D01*
X93879200Y-126309524D02*
X93783961Y-126214286D01*
X93783961Y-126214286D02*
X93688723Y-126166667D01*
X93688723Y-126166667D02*
X93498247Y-126119048D01*
X93498247Y-126119048D02*
X93355390Y-126119048D01*
X93355390Y-126119048D02*
X93164914Y-126166667D01*
X93164914Y-126166667D02*
X93069676Y-126214286D01*
X93069676Y-126214286D02*
X92974438Y-126309524D01*
X92974438Y-126309524D02*
X92926819Y-126452381D01*
X92926819Y-126452381D02*
X92926819Y-126547619D01*
X92926819Y-126547619D02*
X92974438Y-126690476D01*
X92974438Y-126690476D02*
X93022057Y-126738095D01*
X92926819Y-127071429D02*
X93926819Y-127309524D01*
X93926819Y-127309524D02*
X93212533Y-127500000D01*
X93212533Y-127500000D02*
X93926819Y-127690476D01*
X93926819Y-127690476D02*
X92926819Y-127928572D01*
X102132017Y-127359580D02*
X102179636Y-127407200D01*
X102179636Y-127407200D02*
X102322493Y-127454819D01*
X102322493Y-127454819D02*
X102417731Y-127454819D01*
X102417731Y-127454819D02*
X102560588Y-127407200D01*
X102560588Y-127407200D02*
X102655826Y-127311961D01*
X102655826Y-127311961D02*
X102703445Y-127216723D01*
X102703445Y-127216723D02*
X102751064Y-127026247D01*
X102751064Y-127026247D02*
X102751064Y-126883390D01*
X102751064Y-126883390D02*
X102703445Y-126692914D01*
X102703445Y-126692914D02*
X102655826Y-126597676D01*
X102655826Y-126597676D02*
X102560588Y-126502438D01*
X102560588Y-126502438D02*
X102417731Y-126454819D01*
X102417731Y-126454819D02*
X102322493Y-126454819D01*
X102322493Y-126454819D02*
X102179636Y-126502438D01*
X102179636Y-126502438D02*
X102132017Y-126550057D01*
X101132017Y-127359580D02*
X101179636Y-127407200D01*
X101179636Y-127407200D02*
X101322493Y-127454819D01*
X101322493Y-127454819D02*
X101417731Y-127454819D01*
X101417731Y-127454819D02*
X101560588Y-127407200D01*
X101560588Y-127407200D02*
X101655826Y-127311961D01*
X101655826Y-127311961D02*
X101703445Y-127216723D01*
X101703445Y-127216723D02*
X101751064Y-127026247D01*
X101751064Y-127026247D02*
X101751064Y-126883390D01*
X101751064Y-126883390D02*
X101703445Y-126692914D01*
X101703445Y-126692914D02*
X101655826Y-126597676D01*
X101655826Y-126597676D02*
X101560588Y-126502438D01*
X101560588Y-126502438D02*
X101417731Y-126454819D01*
X101417731Y-126454819D02*
X101322493Y-126454819D01*
X101322493Y-126454819D02*
X101179636Y-126502438D01*
X101179636Y-126502438D02*
X101132017Y-126550057D01*
X100798683Y-126454819D02*
X100560588Y-127454819D01*
X100560588Y-127454819D02*
X100370112Y-126740533D01*
X100370112Y-126740533D02*
X100179636Y-127454819D01*
X100179636Y-127454819D02*
X99941541Y-126454819D01*
X93545866Y-128587619D02*
X93545866Y-129349524D01*
X93926819Y-128968571D02*
X93164914Y-128968571D01*
X93926819Y-129825714D02*
X92926819Y-129825714D01*
X92926819Y-129825714D02*
X93641104Y-130159047D01*
X93641104Y-130159047D02*
X92926819Y-130492380D01*
X92926819Y-130492380D02*
X93926819Y-130492380D01*
D11*
X110870838Y-103123999D02*
X111347028Y-103123999D01*
X111156552Y-102647809D02*
X111347028Y-103123999D01*
X111347028Y-103123999D02*
X111156552Y-103600190D01*
X111727980Y-102838285D02*
X111347028Y-103123999D01*
X111347028Y-103123999D02*
X111727980Y-103409714D01*
D10*
X102603207Y-124533866D02*
X101841303Y-124533866D01*
X102222255Y-124914819D02*
X102222255Y-124152914D01*
X100888922Y-123914819D02*
X101365112Y-123914819D01*
X101365112Y-123914819D02*
X101412731Y-124391009D01*
X101412731Y-124391009D02*
X101365112Y-124343390D01*
X101365112Y-124343390D02*
X101269874Y-124295771D01*
X101269874Y-124295771D02*
X101031779Y-124295771D01*
X101031779Y-124295771D02*
X100936541Y-124343390D01*
X100936541Y-124343390D02*
X100888922Y-124391009D01*
X100888922Y-124391009D02*
X100841303Y-124486247D01*
X100841303Y-124486247D02*
X100841303Y-124724342D01*
X100841303Y-124724342D02*
X100888922Y-124819580D01*
X100888922Y-124819580D02*
X100936541Y-124867200D01*
X100936541Y-124867200D02*
X101031779Y-124914819D01*
X101031779Y-124914819D02*
X101269874Y-124914819D01*
X101269874Y-124914819D02*
X101365112Y-124867200D01*
X101365112Y-124867200D02*
X101412731Y-124819580D01*
X100555588Y-123914819D02*
X100222255Y-124914819D01*
X100222255Y-124914819D02*
X99888922Y-123914819D01*
D11*
X106044999Y-118560161D02*
X106044999Y-118083971D01*
X105568809Y-118274447D02*
X106044999Y-118083971D01*
X106044999Y-118083971D02*
X106521190Y-118274447D01*
X105759285Y-117703019D02*
X106044999Y-118083971D01*
X106044999Y-118083971D02*
X106330714Y-117703019D01*
D10*
X109233333Y-99784819D02*
X109233333Y-100499104D01*
X109233333Y-100499104D02*
X109280952Y-100641961D01*
X109280952Y-100641961D02*
X109376190Y-100737200D01*
X109376190Y-100737200D02*
X109519047Y-100784819D01*
X109519047Y-100784819D02*
X109614285Y-100784819D01*
X108757142Y-100784819D02*
X108757142Y-99784819D01*
X108757142Y-99784819D02*
X108376190Y-99784819D01*
X108376190Y-99784819D02*
X108280952Y-99832438D01*
X108280952Y-99832438D02*
X108233333Y-99880057D01*
X108233333Y-99880057D02*
X108185714Y-99975295D01*
X108185714Y-99975295D02*
X108185714Y-100118152D01*
X108185714Y-100118152D02*
X108233333Y-100213390D01*
X108233333Y-100213390D02*
X108280952Y-100261009D01*
X108280952Y-100261009D02*
X108376190Y-100308628D01*
X108376190Y-100308628D02*
X108757142Y-100308628D01*
X107852380Y-99784819D02*
X107233333Y-99784819D01*
X107233333Y-99784819D02*
X107566666Y-100165771D01*
X107566666Y-100165771D02*
X107423809Y-100165771D01*
X107423809Y-100165771D02*
X107328571Y-100213390D01*
X107328571Y-100213390D02*
X107280952Y-100261009D01*
X107280952Y-100261009D02*
X107233333Y-100356247D01*
X107233333Y-100356247D02*
X107233333Y-100594342D01*
X107233333Y-100594342D02*
X107280952Y-100689580D01*
X107280952Y-100689580D02*
X107328571Y-100737200D01*
X107328571Y-100737200D02*
X107423809Y-100784819D01*
X107423809Y-100784819D02*
X107709523Y-100784819D01*
X107709523Y-100784819D02*
X107804761Y-100737200D01*
X107804761Y-100737200D02*
X107852380Y-100689580D01*
X97964523Y-133042819D02*
X97964523Y-132042819D01*
X97964523Y-132042819D02*
X97631190Y-132757104D01*
X97631190Y-132757104D02*
X97297857Y-132042819D01*
X97297857Y-132042819D02*
X97297857Y-133042819D01*
X96297857Y-133042819D02*
X96869285Y-133042819D01*
X96583571Y-133042819D02*
X96583571Y-132042819D01*
X96583571Y-132042819D02*
X96678809Y-132185676D01*
X96678809Y-132185676D02*
X96774047Y-132280914D01*
X96774047Y-132280914D02*
X96869285Y-132328533D01*
X108116666Y-122970580D02*
X108164285Y-123018200D01*
X108164285Y-123018200D02*
X108307142Y-123065819D01*
X108307142Y-123065819D02*
X108402380Y-123065819D01*
X108402380Y-123065819D02*
X108545237Y-123018200D01*
X108545237Y-123018200D02*
X108640475Y-122922961D01*
X108640475Y-122922961D02*
X108688094Y-122827723D01*
X108688094Y-122827723D02*
X108735713Y-122637247D01*
X108735713Y-122637247D02*
X108735713Y-122494390D01*
X108735713Y-122494390D02*
X108688094Y-122303914D01*
X108688094Y-122303914D02*
X108640475Y-122208676D01*
X108640475Y-122208676D02*
X108545237Y-122113438D01*
X108545237Y-122113438D02*
X108402380Y-122065819D01*
X108402380Y-122065819D02*
X108307142Y-122065819D01*
X108307142Y-122065819D02*
X108164285Y-122113438D01*
X108164285Y-122113438D02*
X108116666Y-122161057D01*
X107783332Y-122065819D02*
X107116666Y-122065819D01*
X107116666Y-122065819D02*
X107545237Y-123065819D01*
X95448333Y-118834819D02*
X95448333Y-119549104D01*
X95448333Y-119549104D02*
X95495952Y-119691961D01*
X95495952Y-119691961D02*
X95591190Y-119787200D01*
X95591190Y-119787200D02*
X95734047Y-119834819D01*
X95734047Y-119834819D02*
X95829285Y-119834819D01*
X94972142Y-119834819D02*
X94972142Y-118834819D01*
X94972142Y-118834819D02*
X94591190Y-118834819D01*
X94591190Y-118834819D02*
X94495952Y-118882438D01*
X94495952Y-118882438D02*
X94448333Y-118930057D01*
X94448333Y-118930057D02*
X94400714Y-119025295D01*
X94400714Y-119025295D02*
X94400714Y-119168152D01*
X94400714Y-119168152D02*
X94448333Y-119263390D01*
X94448333Y-119263390D02*
X94495952Y-119311009D01*
X94495952Y-119311009D02*
X94591190Y-119358628D01*
X94591190Y-119358628D02*
X94972142Y-119358628D01*
X93448333Y-119834819D02*
X94019761Y-119834819D01*
X93734047Y-119834819D02*
X93734047Y-118834819D01*
X93734047Y-118834819D02*
X93829285Y-118977676D01*
X93829285Y-118977676D02*
X93924523Y-119072914D01*
X93924523Y-119072914D02*
X94019761Y-119120533D01*
X106761904Y-101054819D02*
X106761904Y-101864342D01*
X106761904Y-101864342D02*
X106714285Y-101959580D01*
X106714285Y-101959580D02*
X106666666Y-102007200D01*
X106666666Y-102007200D02*
X106571428Y-102054819D01*
X106571428Y-102054819D02*
X106380952Y-102054819D01*
X106380952Y-102054819D02*
X106285714Y-102007200D01*
X106285714Y-102007200D02*
X106238095Y-101959580D01*
X106238095Y-101959580D02*
X106190476Y-101864342D01*
X106190476Y-101864342D02*
X106190476Y-101054819D01*
X105285714Y-101388152D02*
X105285714Y-102054819D01*
X105523809Y-101007200D02*
X105761904Y-101721485D01*
X105761904Y-101721485D02*
X105142857Y-101721485D01*
X115405819Y-136906095D02*
X116215342Y-136906095D01*
X116215342Y-136906095D02*
X116310580Y-136953714D01*
X116310580Y-136953714D02*
X116358200Y-137001333D01*
X116358200Y-137001333D02*
X116405819Y-137096571D01*
X116405819Y-137096571D02*
X116405819Y-137287047D01*
X116405819Y-137287047D02*
X116358200Y-137382285D01*
X116358200Y-137382285D02*
X116310580Y-137429904D01*
X116310580Y-137429904D02*
X116215342Y-137477523D01*
X116215342Y-137477523D02*
X115405819Y-137477523D01*
X116405819Y-138477523D02*
X116405819Y-137906095D01*
X116405819Y-138191809D02*
X115405819Y-138191809D01*
X115405819Y-138191809D02*
X115548676Y-138096571D01*
X115548676Y-138096571D02*
X115643914Y-138001333D01*
X115643914Y-138001333D02*
X115691533Y-137906095D01*
X97303333Y-121755819D02*
X97303333Y-122470104D01*
X97303333Y-122470104D02*
X97350952Y-122612961D01*
X97350952Y-122612961D02*
X97446190Y-122708200D01*
X97446190Y-122708200D02*
X97589047Y-122755819D01*
X97589047Y-122755819D02*
X97684285Y-122755819D01*
X96398571Y-122089152D02*
X96398571Y-122755819D01*
X96636666Y-121708200D02*
X96874761Y-122422485D01*
X96874761Y-122422485D02*
X96255714Y-122422485D01*
D12*
X106350000Y-98125000D02*
X106350000Y-98725000D01*
X106900000Y-96925000D02*
X107500000Y-96925000D01*
X107000000Y-99425000D02*
X109800000Y-99425000D01*
X107200000Y-97225000D02*
X106900000Y-96925000D01*
X107200000Y-97225000D02*
X107500000Y-96925000D01*
X109800000Y-97425000D02*
X107000000Y-97425000D01*
X110450000Y-98725000D02*
X110450000Y-98125000D01*
X106350000Y-98125000D02*
G75*
G02*
X107050000Y-97425000I699999J1D01*
G01*
X107050000Y-99425000D02*
G75*
G02*
X106350000Y-98725000I-1J699999D01*
G01*
X109750000Y-97425000D02*
G75*
G02*
X110450000Y-98125000I0J-700000D01*
G01*
X110450000Y-98725000D02*
G75*
G02*
X109750000Y-99425000I-700000J0D01*
G01*
X93345000Y-133430000D02*
X100965000Y-133430000D01*
X93345000Y-139400000D02*
X93345000Y-133430000D01*
X93355000Y-133440000D02*
X95155000Y-133440000D01*
X93355000Y-134190000D02*
X93355000Y-133440000D01*
X93355000Y-135690000D02*
X94105000Y-135690000D01*
X94105000Y-135690000D02*
X94105000Y-138640000D01*
X94105000Y-138640000D02*
X97155000Y-138640000D01*
X95155000Y-133440000D02*
X95155000Y-134190000D01*
X95155000Y-134190000D02*
X93355000Y-134190000D01*
X96655000Y-133440000D02*
X97655000Y-133440000D01*
X96655000Y-134190000D02*
X96655000Y-133440000D01*
X97655000Y-133440000D02*
X97655000Y-134190000D01*
X97655000Y-134190000D02*
X96655000Y-134190000D01*
X99155000Y-133440000D02*
X100955000Y-133440000D01*
X99155000Y-134190000D02*
X99155000Y-133440000D01*
X100005000Y-133140000D02*
X101255000Y-133140000D01*
X100205000Y-135690000D02*
X100205000Y-138640000D01*
X100205000Y-138640000D02*
X97155000Y-138640000D01*
X100955000Y-133440000D02*
X100955000Y-134190000D01*
X100955000Y-134190000D02*
X99155000Y-134190000D01*
X100955000Y-135690000D02*
X100205000Y-135690000D01*
X100965000Y-133430000D02*
X100965000Y-139400000D01*
X100965000Y-139400000D02*
X93345000Y-139400000D01*
X101255000Y-133140000D02*
X101255000Y-134390000D01*
X103870000Y-127710000D02*
X112030000Y-127710000D01*
X103870000Y-127750000D02*
X112030000Y-127750000D01*
X103870000Y-127790000D02*
X112030000Y-127790000D01*
X103871000Y-127670000D02*
X112029000Y-127670000D01*
X103873000Y-127630000D02*
X112027000Y-127630000D01*
X103874000Y-127590000D02*
X112026000Y-127590000D01*
X103876000Y-127550000D02*
X112024000Y-127550000D01*
X103879000Y-127510000D02*
X112021000Y-127510000D01*
X103882000Y-127470000D02*
X112018000Y-127470000D01*
X103885000Y-127430000D02*
X112015000Y-127430000D01*
X103889000Y-127390000D02*
X112011000Y-127390000D01*
X103893000Y-127350000D02*
X112007000Y-127350000D01*
X103898000Y-127310000D02*
X112002000Y-127310000D01*
X103902000Y-127270000D02*
X111998000Y-127270000D01*
X103908000Y-127230000D02*
X111992000Y-127230000D01*
X103913000Y-127190000D02*
X111987000Y-127190000D01*
X103920000Y-127150000D02*
X111980000Y-127150000D01*
X103926000Y-127110000D02*
X111974000Y-127110000D01*
X103933000Y-127069000D02*
X106910000Y-127069000D01*
X103940000Y-127029000D02*
X106910000Y-127029000D01*
X103948000Y-126989000D02*
X106910000Y-126989000D01*
X103956000Y-126949000D02*
X106910000Y-126949000D01*
X103965000Y-126909000D02*
X106910000Y-126909000D01*
X103974000Y-126869000D02*
X106910000Y-126869000D01*
X103983000Y-126829000D02*
X106910000Y-126829000D01*
X103993000Y-126789000D02*
X106910000Y-126789000D01*
X104003000Y-126749000D02*
X106910000Y-126749000D01*
X104014000Y-126709000D02*
X106910000Y-126709000D01*
X104025000Y-126669000D02*
X106910000Y-126669000D01*
X104036000Y-126629000D02*
X106910000Y-126629000D01*
X104048000Y-126589000D02*
X106910000Y-126589000D01*
X104061000Y-126549000D02*
X106910000Y-126549000D01*
X104073000Y-126509000D02*
X106910000Y-126509000D01*
X104087000Y-126469000D02*
X106910000Y-126469000D01*
X104100000Y-126429000D02*
X106910000Y-126429000D01*
X104115000Y-126389000D02*
X106910000Y-126389000D01*
X104129000Y-126349000D02*
X106910000Y-126349000D01*
X104145000Y-126309000D02*
X106910000Y-126309000D01*
X104160000Y-126269000D02*
X106910000Y-126269000D01*
X104176000Y-126229000D02*
X106910000Y-126229000D01*
X104193000Y-126189000D02*
X106910000Y-126189000D01*
X104210000Y-126149000D02*
X106910000Y-126149000D01*
X104228000Y-126109000D02*
X106910000Y-126109000D01*
X104246000Y-126069000D02*
X106910000Y-126069000D01*
X104264000Y-126029000D02*
X106910000Y-126029000D01*
X104284000Y-125989000D02*
X106910000Y-125989000D01*
X104303000Y-125949000D02*
X106910000Y-125949000D01*
X104323000Y-125909000D02*
X106910000Y-125909000D01*
X104344000Y-125869000D02*
X106910000Y-125869000D01*
X104366000Y-125829000D02*
X106910000Y-125829000D01*
X104388000Y-125789000D02*
X106910000Y-125789000D01*
X104410000Y-125749000D02*
X106910000Y-125749000D01*
X104433000Y-125709000D02*
X106910000Y-125709000D01*
X104457000Y-125669000D02*
X106910000Y-125669000D01*
X104481000Y-125629000D02*
X106910000Y-125629000D01*
X104506000Y-125589000D02*
X106910000Y-125589000D01*
X104532000Y-125549000D02*
X106910000Y-125549000D01*
X104558000Y-125509000D02*
X106910000Y-125509000D01*
X104585000Y-125469000D02*
X106910000Y-125469000D01*
X104612000Y-125429000D02*
X106910000Y-125429000D01*
X104641000Y-125389000D02*
X106910000Y-125389000D01*
X104670000Y-125349000D02*
X106910000Y-125349000D01*
X104700000Y-125309000D02*
X106910000Y-125309000D01*
X104730000Y-125269000D02*
X106910000Y-125269000D01*
X104761000Y-125229000D02*
X106910000Y-125229000D01*
X104794000Y-125189000D02*
X106910000Y-125189000D01*
X104826000Y-125149000D02*
X106910000Y-125149000D01*
X104860000Y-125109000D02*
X106910000Y-125109000D01*
X104895000Y-125069000D02*
X106910000Y-125069000D01*
X104931000Y-125029000D02*
X106910000Y-125029000D01*
X104967000Y-124989000D02*
X110933000Y-124989000D01*
X105005000Y-124949000D02*
X110895000Y-124949000D01*
X105043000Y-124909000D02*
X110857000Y-124909000D01*
X105083000Y-124869000D02*
X110817000Y-124869000D01*
X105124000Y-124829000D02*
X110776000Y-124829000D01*
X105166000Y-124789000D02*
X110734000Y-124789000D01*
X105209000Y-124749000D02*
X110691000Y-124749000D01*
X105253000Y-124709000D02*
X110647000Y-124709000D01*
X105299000Y-124669000D02*
X110601000Y-124669000D01*
X105346000Y-124629000D02*
X110554000Y-124629000D01*
X105394000Y-124589000D02*
X110506000Y-124589000D01*
X105445000Y-124549000D02*
X110455000Y-124549000D01*
X105496000Y-124509000D02*
X110404000Y-124509000D01*
X105550000Y-124469000D02*
X110350000Y-124469000D01*
X105605000Y-124429000D02*
X110295000Y-124429000D01*
X105663000Y-124389000D02*
X110237000Y-124389000D01*
X105722000Y-124349000D02*
X110178000Y-124349000D01*
X105784000Y-124309000D02*
X110116000Y-124309000D01*
X105848000Y-124269000D02*
X110052000Y-124269000D01*
X105916000Y-124229000D02*
X109984000Y-124229000D01*
X105986000Y-124189000D02*
X109914000Y-124189000D01*
X106060000Y-124149000D02*
X109840000Y-124149000D01*
X106137000Y-124109000D02*
X109763000Y-124109000D01*
X106219000Y-124069000D02*
X109681000Y-124069000D01*
X106305000Y-124029000D02*
X109595000Y-124029000D01*
X106398000Y-123989000D02*
X109502000Y-123989000D01*
X106497000Y-123949000D02*
X109403000Y-123949000D01*
X106604000Y-123909000D02*
X109296000Y-123909000D01*
X106721000Y-123869000D02*
X109179000Y-123869000D01*
X106852000Y-123829000D02*
X109048000Y-123829000D01*
X107002000Y-123789000D02*
X108898000Y-123789000D01*
X107182000Y-123749000D02*
X108718000Y-123749000D01*
X107417000Y-123709000D02*
X108483000Y-123709000D01*
X108990000Y-125029000D02*
X110969000Y-125029000D01*
X108990000Y-125069000D02*
X111005000Y-125069000D01*
X108990000Y-125109000D02*
X111040000Y-125109000D01*
X108990000Y-125149000D02*
X111074000Y-125149000D01*
X108990000Y-125189000D02*
X111106000Y-125189000D01*
X108990000Y-125229000D02*
X111139000Y-125229000D01*
X108990000Y-125269000D02*
X111170000Y-125269000D01*
X108990000Y-125309000D02*
X111200000Y-125309000D01*
X108990000Y-125349000D02*
X111230000Y-125349000D01*
X108990000Y-125389000D02*
X111259000Y-125389000D01*
X108990000Y-125429000D02*
X111288000Y-125429000D01*
X108990000Y-125469000D02*
X111315000Y-125469000D01*
X108990000Y-125509000D02*
X111342000Y-125509000D01*
X108990000Y-125549000D02*
X111368000Y-125549000D01*
X108990000Y-125589000D02*
X111394000Y-125589000D01*
X108990000Y-125629000D02*
X111419000Y-125629000D01*
X108990000Y-125669000D02*
X111443000Y-125669000D01*
X108990000Y-125709000D02*
X111467000Y-125709000D01*
X108990000Y-125749000D02*
X111490000Y-125749000D01*
X108990000Y-125789000D02*
X111512000Y-125789000D01*
X108990000Y-125829000D02*
X111534000Y-125829000D01*
X108990000Y-125869000D02*
X111556000Y-125869000D01*
X108990000Y-125909000D02*
X111577000Y-125909000D01*
X108990000Y-125949000D02*
X111597000Y-125949000D01*
X108990000Y-125989000D02*
X111616000Y-125989000D01*
X108990000Y-126029000D02*
X111636000Y-126029000D01*
X108990000Y-126069000D02*
X111654000Y-126069000D01*
X108990000Y-126109000D02*
X111672000Y-126109000D01*
X108990000Y-126149000D02*
X111690000Y-126149000D01*
X108990000Y-126189000D02*
X111707000Y-126189000D01*
X108990000Y-126229000D02*
X111724000Y-126229000D01*
X108990000Y-126269000D02*
X111740000Y-126269000D01*
X108990000Y-126309000D02*
X111755000Y-126309000D01*
X108990000Y-126349000D02*
X111771000Y-126349000D01*
X108990000Y-126389000D02*
X111785000Y-126389000D01*
X108990000Y-126429000D02*
X111800000Y-126429000D01*
X108990000Y-126469000D02*
X111813000Y-126469000D01*
X108990000Y-126509000D02*
X111827000Y-126509000D01*
X108990000Y-126549000D02*
X111839000Y-126549000D01*
X108990000Y-126589000D02*
X111852000Y-126589000D01*
X108990000Y-126629000D02*
X111864000Y-126629000D01*
X108990000Y-126669000D02*
X111875000Y-126669000D01*
X108990000Y-126709000D02*
X111886000Y-126709000D01*
X108990000Y-126749000D02*
X111897000Y-126749000D01*
X108990000Y-126789000D02*
X111907000Y-126789000D01*
X108990000Y-126829000D02*
X111917000Y-126829000D01*
X108990000Y-126869000D02*
X111926000Y-126869000D01*
X108990000Y-126909000D02*
X111935000Y-126909000D01*
X108990000Y-126949000D02*
X111944000Y-126949000D01*
X108990000Y-126989000D02*
X111952000Y-126989000D01*
X108990000Y-127029000D02*
X111960000Y-127029000D01*
X108990000Y-127069000D02*
X111967000Y-127069000D01*
X109865000Y-131799698D02*
X110665000Y-131799698D01*
X110265000Y-131399698D02*
X110265000Y-132199698D01*
X112070000Y-127790000D02*
G75*
G02*
X103830000Y-127790000I-4120000J0D01*
G01*
X103830000Y-127790000D02*
G75*
G02*
X112070000Y-127790000I4120000J0D01*
G01*
X92770000Y-117730000D02*
X92770000Y-118490000D01*
X92770000Y-118490000D02*
X98770000Y-118490000D01*
X92770000Y-120270000D02*
X92770000Y-121030000D01*
X92770000Y-121030000D02*
X98770000Y-121030000D01*
X98770000Y-116780000D02*
X101430000Y-116780000D01*
X98770000Y-117730000D02*
X92770000Y-117730000D01*
X98770000Y-117790000D02*
X92770000Y-117790000D01*
X98770000Y-117910000D02*
X92770000Y-117910000D01*
X98770000Y-118030000D02*
X92770000Y-118030000D01*
X98770000Y-118150000D02*
X92770000Y-118150000D01*
X98770000Y-118270000D02*
X92770000Y-118270000D01*
X98770000Y-118390000D02*
X92770000Y-118390000D01*
X98770000Y-120270000D02*
X92770000Y-120270000D01*
X98770000Y-121980000D02*
X98770000Y-116780000D01*
X101430000Y-116780000D02*
X101430000Y-121980000D01*
X101430000Y-119380000D02*
X98770000Y-119380000D01*
X101430000Y-121980000D02*
X98770000Y-121980000D01*
X101760000Y-117730000D02*
X101430000Y-117730000D01*
X101760000Y-118490000D02*
X101430000Y-118490000D01*
X101827071Y-120270000D02*
X101430000Y-120270000D01*
X101827071Y-121030000D02*
X101430000Y-121030000D01*
X104140000Y-116840000D02*
X102870000Y-116840000D01*
X104140000Y-118110000D02*
X104140000Y-116840000D01*
X106000000Y-102440000D02*
X104050000Y-102440000D01*
X106000000Y-102440000D02*
X109450000Y-102440000D01*
X106000000Y-107560000D02*
X104050000Y-107560000D01*
X106000000Y-107560000D02*
X107950000Y-107560000D01*
X112500000Y-121600000D02*
X112500000Y-139700000D01*
X113537000Y-130670000D02*
X112902000Y-130670000D01*
X114500000Y-121600000D02*
X112500000Y-121600000D01*
X114500000Y-121600000D02*
X114500000Y-125200000D01*
X114500000Y-128200000D02*
X115800000Y-128200000D01*
X114500000Y-133100000D02*
X115800000Y-133100000D01*
X114500000Y-139700000D02*
X112500000Y-139700000D01*
X114500000Y-139700000D02*
X114500000Y-136100000D01*
X117855000Y-126225000D02*
X118490000Y-127495000D01*
X117855000Y-135115000D02*
X118490000Y-133845000D01*
X118490000Y-124955000D02*
X118490000Y-127495000D01*
X118490000Y-127495000D02*
X119125000Y-126225000D01*
X118490000Y-133845000D02*
X118490000Y-136385000D01*
X118490000Y-133845000D02*
X119125000Y-135115000D01*
X119900000Y-128200000D02*
X123800000Y-128200000D01*
X119900000Y-133100000D02*
X123800000Y-133100000D01*
X94370000Y-123130000D02*
X99570000Y-123130000D01*
X94370000Y-128270000D02*
X94370000Y-123130000D01*
X94370000Y-128270000D02*
X96970000Y-128270000D01*
X94370000Y-129540000D02*
X94370000Y-130870000D01*
X94370000Y-130870000D02*
X95700000Y-130870000D01*
X96970000Y-128270000D02*
X96970000Y-130870000D01*
X96970000Y-130870000D02*
X99570000Y-130870000D01*
X99570000Y-130870000D02*
X99570000Y-123130000D01*
M02*
