G04 #@! TF.GenerationSoftware,KiCad,Pcbnew,8.0.3*
G04 #@! TF.CreationDate,2024-08-18T22:06:24+09:00*
G04 #@! TF.ProjectId,AutoFeeder_Drum-type,4175746f-4665-4656-9465-725f4472756d,02*
G04 #@! TF.SameCoordinates,Original*
G04 #@! TF.FileFunction,Paste,Top*
G04 #@! TF.FilePolarity,Positive*
%FSLAX46Y46*%
G04 Gerber Fmt 4.6, Leading zero omitted, Abs format (unit mm)*
G04 Created by KiCad (PCBNEW 8.0.3) date 2024-08-18 22:06:24*
%MOMM*%
%LPD*%
G01*
G04 APERTURE LIST*
G04 Aperture macros list*
%AMRoundRect*
0 Rectangle with rounded corners*
0 $1 Rounding radius*
0 $2 $3 $4 $5 $6 $7 $8 $9 X,Y pos of 4 corners*
0 Add a 4 corners polygon primitive as box body*
4,1,4,$2,$3,$4,$5,$6,$7,$8,$9,$2,$3,0*
0 Add four circle primitives for the rounded corners*
1,1,$1+$1,$2,$3*
1,1,$1+$1,$4,$5*
1,1,$1+$1,$6,$7*
1,1,$1+$1,$8,$9*
0 Add four rect primitives between the rounded corners*
20,1,$1+$1,$2,$3,$4,$5,0*
20,1,$1+$1,$4,$5,$6,$7,0*
20,1,$1+$1,$6,$7,$8,$9,0*
20,1,$1+$1,$8,$9,$2,$3,0*%
%AMFreePoly0*
4,1,9,3.862500,-0.866500,0.737500,-0.866500,0.737500,-0.450000,-0.737500,-0.450000,-0.737500,0.450000,0.737500,0.450000,0.737500,0.866500,3.862500,0.866500,3.862500,-0.866500,3.862500,-0.866500,$1*%
G04 Aperture macros list end*
%ADD10RoundRect,0.200000X-0.275000X0.200000X-0.275000X-0.200000X0.275000X-0.200000X0.275000X0.200000X0*%
%ADD11RoundRect,0.225000X0.225000X0.250000X-0.225000X0.250000X-0.225000X-0.250000X0.225000X-0.250000X0*%
%ADD12RoundRect,0.250000X-0.475000X0.250000X-0.475000X-0.250000X0.475000X-0.250000X0.475000X0.250000X0*%
%ADD13RoundRect,0.250000X0.250000X0.475000X-0.250000X0.475000X-0.250000X-0.475000X0.250000X-0.475000X0*%
%ADD14RoundRect,0.200000X0.275000X-0.200000X0.275000X0.200000X-0.275000X0.200000X-0.275000X-0.200000X0*%
%ADD15R,0.900000X1.300000*%
%ADD16FreePoly0,270.000000*%
%ADD17RoundRect,0.218750X0.256250X-0.218750X0.256250X0.218750X-0.256250X0.218750X-0.256250X-0.218750X0*%
%ADD18RoundRect,0.150000X-0.150000X0.825000X-0.150000X-0.825000X0.150000X-0.825000X0.150000X0.825000X0*%
%ADD19R,1.800000X1.900000*%
%ADD20R,1.700000X1.800000*%
%ADD21R,0.500000X0.500000*%
%ADD22RoundRect,0.150000X-0.825000X-0.150000X0.825000X-0.150000X0.825000X0.150000X-0.825000X0.150000X0*%
G04 APERTURE END LIST*
D10*
X114300000Y-95695000D03*
X114300000Y-97345000D03*
X99060000Y-108175000D03*
X99060000Y-109825000D03*
X120650000Y-117920000D03*
X120650000Y-119570000D03*
D11*
X112395000Y-123190000D03*
X110845000Y-123190000D03*
D12*
X107188000Y-106111000D03*
X107188000Y-108011000D03*
D13*
X115250000Y-106045000D03*
X113350000Y-106045000D03*
D10*
X110490000Y-98235000D03*
X110490000Y-99885000D03*
X114681000Y-123000000D03*
X114681000Y-124650000D03*
D14*
X108585000Y-111950000D03*
X108585000Y-110300000D03*
D15*
X104370000Y-125985000D03*
D16*
X102870000Y-126072500D03*
D15*
X101370000Y-125985000D03*
D17*
X114300000Y-93497500D03*
X114300000Y-91922500D03*
D18*
X111125000Y-132780000D03*
X109855000Y-132780000D03*
X108585000Y-132780000D03*
X107315000Y-132780000D03*
X107315000Y-137730000D03*
X108585000Y-137730000D03*
X109855000Y-137730000D03*
X111125000Y-137730000D03*
D19*
X102050000Y-103415000D03*
X102050000Y-98465000D03*
D20*
X97200000Y-106165000D03*
X97200000Y-95765000D03*
D19*
X102050000Y-100965000D03*
D10*
X120650000Y-110300000D03*
X120650000Y-111950000D03*
X120650000Y-114110000D03*
X120650000Y-115760000D03*
D21*
X96182000Y-119380000D03*
X98382000Y-119380000D03*
D10*
X107315000Y-96775000D03*
X107315000Y-98425000D03*
D12*
X102235000Y-136210000D03*
X102235000Y-138110000D03*
D13*
X104455000Y-123825000D03*
X102555000Y-123825000D03*
D21*
X104775000Y-99230000D03*
X104775000Y-101430000D03*
D12*
X110363000Y-104079000D03*
X110363000Y-105979000D03*
X104140000Y-132400000D03*
X104140000Y-134300000D03*
D22*
X112460000Y-109220000D03*
X112460000Y-110490000D03*
X112460000Y-111760000D03*
X112460000Y-113030000D03*
X112460000Y-114300000D03*
X112460000Y-115570000D03*
X112460000Y-116840000D03*
X117410000Y-116840000D03*
X117410000Y-115570000D03*
X117410000Y-114300000D03*
X117410000Y-113030000D03*
X117410000Y-111760000D03*
X117410000Y-110490000D03*
X117410000Y-109220000D03*
M02*
