%TF.GenerationSoftware,KiCad,Pcbnew,8.0.3*%
%TF.CreationDate,2024-08-18T22:06:29+09:00*%
%TF.ProjectId,AutoFeeder_Drum-type,4175746f-4665-4656-9465-725f4472756d,02*%
%TF.SameCoordinates,Original*%
%TF.FileFunction,Drillmap*%
%TF.FilePolarity,Positive*%
%FSLAX45Y45*%
G04 Gerber Fmt 4.5, Leading zero omitted, Abs format (unit mm)*
G04 Created by KiCad (PCBNEW 8.0.3) date 2024-08-18 22:06:29*
%MOMM*%
%LPD*%
G01*
G04 APERTURE LIST*
%ADD10C,0.150000*%
%ADD11C,0.200000*%
%ADD12C,0.100000*%
G04 APERTURE END LIST*
D10*
X9250000Y-13950000D02*
X9250000Y-11050000D01*
X9250000Y-13950000D02*
X9300000Y-14000000D01*
X9600000Y-10700000D02*
X9250000Y-11050000D01*
X12450000Y-9000000D02*
X12450000Y-14000000D01*
X9600000Y-9150000D02*
X9750000Y-9000000D01*
X9750000Y-9000000D02*
X12450000Y-9000000D01*
X9600000Y-9150000D02*
X9600000Y-10700000D01*
X12450000Y-14000000D02*
X9300000Y-14000000D01*
D11*
D12*
X9880000Y-10546400D02*
X9920000Y-10586400D01*
X9920000Y-10546400D02*
X9880000Y-10586400D01*
X9886000Y-9606600D02*
X9926000Y-9646600D01*
X9926000Y-9606600D02*
X9886000Y-9646600D01*
X10013000Y-12578500D02*
X10053000Y-12618500D01*
X10053000Y-12578500D02*
X10013000Y-12618500D01*
X10140000Y-10965500D02*
X10180000Y-11005500D01*
X10180000Y-10965500D02*
X10140000Y-11005500D01*
X10140000Y-11537000D02*
X10180000Y-11577000D01*
X10180000Y-11537000D02*
X10140000Y-11577000D01*
X10292400Y-11029000D02*
X10332400Y-11069000D01*
X10332400Y-11029000D02*
X10292400Y-11069000D01*
X10394000Y-11410000D02*
X10434000Y-11450000D01*
X10434000Y-11410000D02*
X10394000Y-11450000D01*
X10457500Y-11283000D02*
X10497500Y-11323000D01*
X10497500Y-11283000D02*
X10457500Y-11323000D01*
X10609900Y-10368600D02*
X10649900Y-10408600D01*
X10649900Y-10368600D02*
X10609900Y-10408600D01*
X10698800Y-10482900D02*
X10738800Y-10522900D01*
X10738800Y-10482900D02*
X10698800Y-10522900D01*
X10711500Y-10140000D02*
X10751500Y-10180000D01*
X10751500Y-10140000D02*
X10711500Y-10180000D01*
X10711500Y-11537000D02*
X10751500Y-11577000D01*
X10751500Y-11537000D02*
X10711500Y-11577000D01*
X10838500Y-10775000D02*
X10878500Y-10815000D01*
X10878500Y-10775000D02*
X10838500Y-10815000D01*
X10838500Y-11283000D02*
X10878500Y-11323000D01*
X10878500Y-11283000D02*
X10838500Y-11323000D01*
X10838500Y-13403900D02*
X10878500Y-13443900D01*
X10878500Y-13403900D02*
X10838500Y-13443900D01*
X11016300Y-10289500D02*
X11056300Y-10329500D01*
X11056300Y-10289500D02*
X11016300Y-10329500D01*
X11016300Y-10673400D02*
X11056300Y-10713400D01*
X11056300Y-10673400D02*
X11016300Y-10713400D01*
X11079800Y-11283000D02*
X11119800Y-11323000D01*
X11119800Y-11283000D02*
X11079800Y-11323000D01*
X11079800Y-11537000D02*
X11119800Y-11577000D01*
X11119800Y-11537000D02*
X11079800Y-11577000D01*
X11079800Y-11664000D02*
X11119800Y-11704000D01*
X11119800Y-11664000D02*
X11079800Y-11704000D01*
X11371900Y-11029000D02*
X11411900Y-11069000D01*
X11411900Y-11029000D02*
X11371900Y-11069000D01*
X11371900Y-11156000D02*
X11411900Y-11196000D01*
X11411900Y-11156000D02*
X11371900Y-11196000D01*
X11410000Y-9822500D02*
X11450000Y-9862500D01*
X11450000Y-9822500D02*
X11410000Y-9862500D01*
X11410000Y-10330500D02*
X11450000Y-10370500D01*
X11450000Y-10330500D02*
X11410000Y-10370500D01*
X11575100Y-11283000D02*
X11615100Y-11323000D01*
X11615100Y-11283000D02*
X11575100Y-11323000D01*
X11575100Y-11410000D02*
X11615100Y-11450000D01*
X11615100Y-11410000D02*
X11575100Y-11450000D01*
X11575100Y-11537000D02*
X11615100Y-11577000D01*
X11615100Y-11537000D02*
X11575100Y-11577000D01*
X11613200Y-10698800D02*
X11653200Y-10738800D01*
X11653200Y-10698800D02*
X11613200Y-10738800D01*
X11918000Y-11029000D02*
X11958000Y-11069000D01*
X11958000Y-11029000D02*
X11918000Y-11069000D01*
X12045000Y-11283000D02*
X12085000Y-11323000D01*
X12085000Y-11283000D02*
X12045000Y-11323000D01*
X12045000Y-11664000D02*
X12085000Y-11704000D01*
X12085000Y-11664000D02*
X12045000Y-11704000D01*
X10307000Y-12827000D02*
G75*
G02*
X10267000Y-12827000I-20000J0D01*
G01*
X10267000Y-12827000D02*
G75*
G02*
X10307000Y-12827000I20000J0D01*
G01*
X10795000Y-12564000D02*
X10795000Y-12644000D01*
X10755000Y-12604000D02*
X10835000Y-12604000D01*
X10795000Y-12914000D02*
X10795000Y-12994000D01*
X10755000Y-12954000D02*
X10835000Y-12954000D01*
X11499820Y-12971820D02*
X11499820Y-12908180D01*
X11436180Y-12908180D01*
X11436180Y-12971820D01*
X11499820Y-12971820D01*
X11499820Y-13225820D02*
X11499820Y-13162180D01*
X11436180Y-13162180D01*
X11436180Y-13225820D01*
X11499820Y-13225820D01*
X11500940Y-12693560D02*
X11500940Y-12629920D01*
X11437300Y-12629920D01*
X11437300Y-12693560D01*
X11500940Y-12693560D01*
X11500940Y-13453020D02*
X11500940Y-13389380D01*
X11437300Y-13389380D01*
X11437300Y-13453020D01*
X11500940Y-13453020D01*
X12261820Y-12971820D02*
X12261820Y-12908180D01*
X12198180Y-12908180D01*
X12198180Y-12971820D01*
X12261820Y-12971820D01*
X12261820Y-13225820D02*
X12261820Y-13162180D01*
X12198180Y-13162180D01*
X12198180Y-13225820D01*
X12261820Y-13225820D01*
X9570000Y-11289500D02*
X9620000Y-11239500D01*
X9570000Y-11189500D01*
X9520000Y-11239500D01*
X9570000Y-11289500D01*
X9570000Y-11543500D02*
X9620000Y-11493500D01*
X9570000Y-11443500D01*
X9520000Y-11493500D01*
X9570000Y-11543500D01*
X9570000Y-12496000D02*
X9620000Y-12446000D01*
X9570000Y-12396000D01*
X9520000Y-12446000D01*
X9570000Y-12496000D01*
X9570000Y-12750000D02*
X9620000Y-12700000D01*
X9570000Y-12650000D01*
X9520000Y-12700000D01*
X9570000Y-12750000D01*
X9570000Y-13004000D02*
X9620000Y-12954000D01*
X9570000Y-12904000D01*
X9520000Y-12954000D01*
X9570000Y-13004000D01*
X9590500Y-13639000D02*
X9640500Y-13589000D01*
X9590500Y-13539000D01*
X9540500Y-13589000D01*
X9590500Y-13639000D01*
X9824000Y-11289500D02*
X9874000Y-11239500D01*
X9824000Y-11189500D01*
X9774000Y-11239500D01*
X9824000Y-11289500D01*
X9824000Y-11543500D02*
X9874000Y-11493500D01*
X9824000Y-11443500D01*
X9774000Y-11493500D01*
X9824000Y-11543500D01*
X9824000Y-12496000D02*
X9874000Y-12446000D01*
X9824000Y-12396000D01*
X9774000Y-12446000D01*
X9824000Y-12496000D01*
X9824000Y-12750000D02*
X9874000Y-12700000D01*
X9824000Y-12650000D01*
X9774000Y-12700000D01*
X9824000Y-12750000D01*
X9824000Y-13004000D02*
X9874000Y-12954000D01*
X9824000Y-12904000D01*
X9774000Y-12954000D01*
X9824000Y-13004000D01*
X9840500Y-13639000D02*
X9890500Y-13589000D01*
X9840500Y-13539000D01*
X9790500Y-13589000D01*
X9840500Y-13639000D01*
X10287000Y-11861000D02*
X10337000Y-11811000D01*
X10287000Y-11761000D01*
X10237000Y-11811000D01*
X10287000Y-11861000D01*
X10287000Y-12115000D02*
X10337000Y-12065000D01*
X10287000Y-12015000D01*
X10237000Y-12065000D01*
X10287000Y-12115000D01*
X10604500Y-12051500D02*
X10654500Y-12001500D01*
X10604500Y-11951500D01*
X10554500Y-12001500D01*
X10604500Y-12051500D01*
X10858500Y-12051500D02*
X10908500Y-12001500D01*
X10858500Y-11951500D01*
X10808500Y-12001500D01*
X10858500Y-12051500D01*
X11112500Y-12051500D02*
X11162500Y-12001500D01*
X11112500Y-11951500D01*
X11062500Y-12001500D01*
X11112500Y-12051500D01*
X11366500Y-12051500D02*
X11416500Y-12001500D01*
X11366500Y-11951500D01*
X11316500Y-12001500D01*
X11366500Y-12051500D01*
X11620500Y-12051500D02*
X11670500Y-12001500D01*
X11620500Y-11951500D01*
X11570500Y-12001500D01*
X11620500Y-12051500D01*
D11*
X9503277Y-14318984D02*
X9503277Y-14118984D01*
X9503277Y-14118984D02*
X9550896Y-14118984D01*
X9550896Y-14118984D02*
X9579467Y-14128508D01*
X9579467Y-14128508D02*
X9598515Y-14147555D01*
X9598515Y-14147555D02*
X9608039Y-14166603D01*
X9608039Y-14166603D02*
X9617563Y-14204698D01*
X9617563Y-14204698D02*
X9617563Y-14233269D01*
X9617563Y-14233269D02*
X9608039Y-14271365D01*
X9608039Y-14271365D02*
X9598515Y-14290412D01*
X9598515Y-14290412D02*
X9579467Y-14309460D01*
X9579467Y-14309460D02*
X9550896Y-14318984D01*
X9550896Y-14318984D02*
X9503277Y-14318984D01*
X9703277Y-14318984D02*
X9703277Y-14185650D01*
X9703277Y-14223746D02*
X9712801Y-14204698D01*
X9712801Y-14204698D02*
X9722324Y-14195174D01*
X9722324Y-14195174D02*
X9741372Y-14185650D01*
X9741372Y-14185650D02*
X9760420Y-14185650D01*
X9827086Y-14318984D02*
X9827086Y-14185650D01*
X9827086Y-14118984D02*
X9817563Y-14128508D01*
X9817563Y-14128508D02*
X9827086Y-14138031D01*
X9827086Y-14138031D02*
X9836610Y-14128508D01*
X9836610Y-14128508D02*
X9827086Y-14118984D01*
X9827086Y-14118984D02*
X9827086Y-14138031D01*
X9950896Y-14318984D02*
X9931848Y-14309460D01*
X9931848Y-14309460D02*
X9922324Y-14290412D01*
X9922324Y-14290412D02*
X9922324Y-14118984D01*
X10055658Y-14318984D02*
X10036610Y-14309460D01*
X10036610Y-14309460D02*
X10027086Y-14290412D01*
X10027086Y-14290412D02*
X10027086Y-14118984D01*
X10284229Y-14318984D02*
X10284229Y-14118984D01*
X10284229Y-14118984D02*
X10350896Y-14261841D01*
X10350896Y-14261841D02*
X10417563Y-14118984D01*
X10417563Y-14118984D02*
X10417563Y-14318984D01*
X10598515Y-14318984D02*
X10598515Y-14214222D01*
X10598515Y-14214222D02*
X10588991Y-14195174D01*
X10588991Y-14195174D02*
X10569944Y-14185650D01*
X10569944Y-14185650D02*
X10531848Y-14185650D01*
X10531848Y-14185650D02*
X10512801Y-14195174D01*
X10598515Y-14309460D02*
X10579467Y-14318984D01*
X10579467Y-14318984D02*
X10531848Y-14318984D01*
X10531848Y-14318984D02*
X10512801Y-14309460D01*
X10512801Y-14309460D02*
X10503277Y-14290412D01*
X10503277Y-14290412D02*
X10503277Y-14271365D01*
X10503277Y-14271365D02*
X10512801Y-14252317D01*
X10512801Y-14252317D02*
X10531848Y-14242793D01*
X10531848Y-14242793D02*
X10579467Y-14242793D01*
X10579467Y-14242793D02*
X10598515Y-14233269D01*
X10693753Y-14185650D02*
X10693753Y-14385650D01*
X10693753Y-14195174D02*
X10712801Y-14185650D01*
X10712801Y-14185650D02*
X10750896Y-14185650D01*
X10750896Y-14185650D02*
X10769944Y-14195174D01*
X10769944Y-14195174D02*
X10779467Y-14204698D01*
X10779467Y-14204698D02*
X10788991Y-14223746D01*
X10788991Y-14223746D02*
X10788991Y-14280888D01*
X10788991Y-14280888D02*
X10779467Y-14299936D01*
X10779467Y-14299936D02*
X10769944Y-14309460D01*
X10769944Y-14309460D02*
X10750896Y-14318984D01*
X10750896Y-14318984D02*
X10712801Y-14318984D01*
X10712801Y-14318984D02*
X10693753Y-14309460D01*
X10874705Y-14299936D02*
X10884229Y-14309460D01*
X10884229Y-14309460D02*
X10874705Y-14318984D01*
X10874705Y-14318984D02*
X10865182Y-14309460D01*
X10865182Y-14309460D02*
X10874705Y-14299936D01*
X10874705Y-14299936D02*
X10874705Y-14318984D01*
X10874705Y-14195174D02*
X10884229Y-14204698D01*
X10884229Y-14204698D02*
X10874705Y-14214222D01*
X10874705Y-14214222D02*
X10865182Y-14204698D01*
X10865182Y-14204698D02*
X10874705Y-14195174D01*
X10874705Y-14195174D02*
X10874705Y-14214222D01*
D12*
X9202500Y-14627500D02*
X9242500Y-14667500D01*
X9242500Y-14627500D02*
X9202500Y-14667500D01*
D11*
X9541372Y-14538984D02*
X9560420Y-14538984D01*
X9560420Y-14538984D02*
X9579467Y-14548508D01*
X9579467Y-14548508D02*
X9588991Y-14558031D01*
X9588991Y-14558031D02*
X9598515Y-14577079D01*
X9598515Y-14577079D02*
X9608039Y-14615174D01*
X9608039Y-14615174D02*
X9608039Y-14662793D01*
X9608039Y-14662793D02*
X9598515Y-14700888D01*
X9598515Y-14700888D02*
X9588991Y-14719936D01*
X9588991Y-14719936D02*
X9579467Y-14729460D01*
X9579467Y-14729460D02*
X9560420Y-14738984D01*
X9560420Y-14738984D02*
X9541372Y-14738984D01*
X9541372Y-14738984D02*
X9522324Y-14729460D01*
X9522324Y-14729460D02*
X9512801Y-14719936D01*
X9512801Y-14719936D02*
X9503277Y-14700888D01*
X9503277Y-14700888D02*
X9493753Y-14662793D01*
X9493753Y-14662793D02*
X9493753Y-14615174D01*
X9493753Y-14615174D02*
X9503277Y-14577079D01*
X9503277Y-14577079D02*
X9512801Y-14558031D01*
X9512801Y-14558031D02*
X9522324Y-14548508D01*
X9522324Y-14548508D02*
X9541372Y-14538984D01*
X9693753Y-14719936D02*
X9703277Y-14729460D01*
X9703277Y-14729460D02*
X9693753Y-14738984D01*
X9693753Y-14738984D02*
X9684229Y-14729460D01*
X9684229Y-14729460D02*
X9693753Y-14719936D01*
X9693753Y-14719936D02*
X9693753Y-14738984D01*
X9874705Y-14605650D02*
X9874705Y-14738984D01*
X9827086Y-14529460D02*
X9779467Y-14672317D01*
X9779467Y-14672317D02*
X9903277Y-14672317D01*
X10017563Y-14538984D02*
X10036610Y-14538984D01*
X10036610Y-14538984D02*
X10055658Y-14548508D01*
X10055658Y-14548508D02*
X10065182Y-14558031D01*
X10065182Y-14558031D02*
X10074705Y-14577079D01*
X10074705Y-14577079D02*
X10084229Y-14615174D01*
X10084229Y-14615174D02*
X10084229Y-14662793D01*
X10084229Y-14662793D02*
X10074705Y-14700888D01*
X10074705Y-14700888D02*
X10065182Y-14719936D01*
X10065182Y-14719936D02*
X10055658Y-14729460D01*
X10055658Y-14729460D02*
X10036610Y-14738984D01*
X10036610Y-14738984D02*
X10017563Y-14738984D01*
X10017563Y-14738984D02*
X9998515Y-14729460D01*
X9998515Y-14729460D02*
X9988991Y-14719936D01*
X9988991Y-14719936D02*
X9979467Y-14700888D01*
X9979467Y-14700888D02*
X9969944Y-14662793D01*
X9969944Y-14662793D02*
X9969944Y-14615174D01*
X9969944Y-14615174D02*
X9979467Y-14577079D01*
X9979467Y-14577079D02*
X9988991Y-14558031D01*
X9988991Y-14558031D02*
X9998515Y-14548508D01*
X9998515Y-14548508D02*
X10017563Y-14538984D01*
X10208039Y-14538984D02*
X10227086Y-14538984D01*
X10227086Y-14538984D02*
X10246134Y-14548508D01*
X10246134Y-14548508D02*
X10255658Y-14558031D01*
X10255658Y-14558031D02*
X10265182Y-14577079D01*
X10265182Y-14577079D02*
X10274705Y-14615174D01*
X10274705Y-14615174D02*
X10274705Y-14662793D01*
X10274705Y-14662793D02*
X10265182Y-14700888D01*
X10265182Y-14700888D02*
X10255658Y-14719936D01*
X10255658Y-14719936D02*
X10246134Y-14729460D01*
X10246134Y-14729460D02*
X10227086Y-14738984D01*
X10227086Y-14738984D02*
X10208039Y-14738984D01*
X10208039Y-14738984D02*
X10188991Y-14729460D01*
X10188991Y-14729460D02*
X10179467Y-14719936D01*
X10179467Y-14719936D02*
X10169944Y-14700888D01*
X10169944Y-14700888D02*
X10160420Y-14662793D01*
X10160420Y-14662793D02*
X10160420Y-14615174D01*
X10160420Y-14615174D02*
X10169944Y-14577079D01*
X10169944Y-14577079D02*
X10179467Y-14558031D01*
X10179467Y-14558031D02*
X10188991Y-14548508D01*
X10188991Y-14548508D02*
X10208039Y-14538984D01*
X10360420Y-14738984D02*
X10360420Y-14605650D01*
X10360420Y-14624698D02*
X10369944Y-14615174D01*
X10369944Y-14615174D02*
X10388991Y-14605650D01*
X10388991Y-14605650D02*
X10417563Y-14605650D01*
X10417563Y-14605650D02*
X10436610Y-14615174D01*
X10436610Y-14615174D02*
X10446134Y-14634222D01*
X10446134Y-14634222D02*
X10446134Y-14738984D01*
X10446134Y-14634222D02*
X10455658Y-14615174D01*
X10455658Y-14615174D02*
X10474705Y-14605650D01*
X10474705Y-14605650D02*
X10503277Y-14605650D01*
X10503277Y-14605650D02*
X10522325Y-14615174D01*
X10522325Y-14615174D02*
X10531848Y-14634222D01*
X10531848Y-14634222D02*
X10531848Y-14738984D01*
X10627086Y-14738984D02*
X10627086Y-14605650D01*
X10627086Y-14624698D02*
X10636610Y-14615174D01*
X10636610Y-14615174D02*
X10655658Y-14605650D01*
X10655658Y-14605650D02*
X10684229Y-14605650D01*
X10684229Y-14605650D02*
X10703277Y-14615174D01*
X10703277Y-14615174D02*
X10712801Y-14634222D01*
X10712801Y-14634222D02*
X10712801Y-14738984D01*
X10712801Y-14634222D02*
X10722325Y-14615174D01*
X10722325Y-14615174D02*
X10741372Y-14605650D01*
X10741372Y-14605650D02*
X10769944Y-14605650D01*
X10769944Y-14605650D02*
X10788991Y-14615174D01*
X10788991Y-14615174D02*
X10798515Y-14634222D01*
X10798515Y-14634222D02*
X10798515Y-14738984D01*
X11188991Y-14529460D02*
X11017563Y-14786603D01*
X11446134Y-14538984D02*
X11465182Y-14538984D01*
X11465182Y-14538984D02*
X11484229Y-14548508D01*
X11484229Y-14548508D02*
X11493753Y-14558031D01*
X11493753Y-14558031D02*
X11503277Y-14577079D01*
X11503277Y-14577079D02*
X11512801Y-14615174D01*
X11512801Y-14615174D02*
X11512801Y-14662793D01*
X11512801Y-14662793D02*
X11503277Y-14700888D01*
X11503277Y-14700888D02*
X11493753Y-14719936D01*
X11493753Y-14719936D02*
X11484229Y-14729460D01*
X11484229Y-14729460D02*
X11465182Y-14738984D01*
X11465182Y-14738984D02*
X11446134Y-14738984D01*
X11446134Y-14738984D02*
X11427086Y-14729460D01*
X11427086Y-14729460D02*
X11417563Y-14719936D01*
X11417563Y-14719936D02*
X11408039Y-14700888D01*
X11408039Y-14700888D02*
X11398515Y-14662793D01*
X11398515Y-14662793D02*
X11398515Y-14615174D01*
X11398515Y-14615174D02*
X11408039Y-14577079D01*
X11408039Y-14577079D02*
X11417563Y-14558031D01*
X11417563Y-14558031D02*
X11427086Y-14548508D01*
X11427086Y-14548508D02*
X11446134Y-14538984D01*
X11598515Y-14719936D02*
X11608039Y-14729460D01*
X11608039Y-14729460D02*
X11598515Y-14738984D01*
X11598515Y-14738984D02*
X11588991Y-14729460D01*
X11588991Y-14729460D02*
X11598515Y-14719936D01*
X11598515Y-14719936D02*
X11598515Y-14738984D01*
X11731848Y-14538984D02*
X11750896Y-14538984D01*
X11750896Y-14538984D02*
X11769944Y-14548508D01*
X11769944Y-14548508D02*
X11779467Y-14558031D01*
X11779467Y-14558031D02*
X11788991Y-14577079D01*
X11788991Y-14577079D02*
X11798515Y-14615174D01*
X11798515Y-14615174D02*
X11798515Y-14662793D01*
X11798515Y-14662793D02*
X11788991Y-14700888D01*
X11788991Y-14700888D02*
X11779467Y-14719936D01*
X11779467Y-14719936D02*
X11769944Y-14729460D01*
X11769944Y-14729460D02*
X11750896Y-14738984D01*
X11750896Y-14738984D02*
X11731848Y-14738984D01*
X11731848Y-14738984D02*
X11712801Y-14729460D01*
X11712801Y-14729460D02*
X11703277Y-14719936D01*
X11703277Y-14719936D02*
X11693753Y-14700888D01*
X11693753Y-14700888D02*
X11684229Y-14662793D01*
X11684229Y-14662793D02*
X11684229Y-14615174D01*
X11684229Y-14615174D02*
X11693753Y-14577079D01*
X11693753Y-14577079D02*
X11703277Y-14558031D01*
X11703277Y-14558031D02*
X11712801Y-14548508D01*
X11712801Y-14548508D02*
X11731848Y-14538984D01*
X11988991Y-14738984D02*
X11874706Y-14738984D01*
X11931848Y-14738984D02*
X11931848Y-14538984D01*
X11931848Y-14538984D02*
X11912801Y-14567555D01*
X11912801Y-14567555D02*
X11893753Y-14586603D01*
X11893753Y-14586603D02*
X11874706Y-14596127D01*
X12169944Y-14538984D02*
X12074706Y-14538984D01*
X12074706Y-14538984D02*
X12065182Y-14634222D01*
X12065182Y-14634222D02*
X12074706Y-14624698D01*
X12074706Y-14624698D02*
X12093753Y-14615174D01*
X12093753Y-14615174D02*
X12141372Y-14615174D01*
X12141372Y-14615174D02*
X12160420Y-14624698D01*
X12160420Y-14624698D02*
X12169944Y-14634222D01*
X12169944Y-14634222D02*
X12179467Y-14653269D01*
X12179467Y-14653269D02*
X12179467Y-14700888D01*
X12179467Y-14700888D02*
X12169944Y-14719936D01*
X12169944Y-14719936D02*
X12160420Y-14729460D01*
X12160420Y-14729460D02*
X12141372Y-14738984D01*
X12141372Y-14738984D02*
X12093753Y-14738984D01*
X12093753Y-14738984D02*
X12074706Y-14729460D01*
X12074706Y-14729460D02*
X12065182Y-14719936D01*
X12246134Y-14538984D02*
X12379467Y-14538984D01*
X12379467Y-14538984D02*
X12293753Y-14738984D01*
X12446134Y-14538984D02*
X12446134Y-14577079D01*
X12522325Y-14538984D02*
X12522325Y-14577079D01*
X12817563Y-14815174D02*
X12808039Y-14805650D01*
X12808039Y-14805650D02*
X12788991Y-14777079D01*
X12788991Y-14777079D02*
X12779468Y-14758031D01*
X12779468Y-14758031D02*
X12769944Y-14729460D01*
X12769944Y-14729460D02*
X12760420Y-14681841D01*
X12760420Y-14681841D02*
X12760420Y-14643746D01*
X12760420Y-14643746D02*
X12769944Y-14596127D01*
X12769944Y-14596127D02*
X12779468Y-14567555D01*
X12779468Y-14567555D02*
X12788991Y-14548508D01*
X12788991Y-14548508D02*
X12808039Y-14519936D01*
X12808039Y-14519936D02*
X12817563Y-14510412D01*
X12874706Y-14538984D02*
X12998515Y-14538984D01*
X12998515Y-14538984D02*
X12931848Y-14615174D01*
X12931848Y-14615174D02*
X12960420Y-14615174D01*
X12960420Y-14615174D02*
X12979468Y-14624698D01*
X12979468Y-14624698D02*
X12988991Y-14634222D01*
X12988991Y-14634222D02*
X12998515Y-14653269D01*
X12998515Y-14653269D02*
X12998515Y-14700888D01*
X12998515Y-14700888D02*
X12988991Y-14719936D01*
X12988991Y-14719936D02*
X12979468Y-14729460D01*
X12979468Y-14729460D02*
X12960420Y-14738984D01*
X12960420Y-14738984D02*
X12903277Y-14738984D01*
X12903277Y-14738984D02*
X12884229Y-14729460D01*
X12884229Y-14729460D02*
X12874706Y-14719936D01*
X13188991Y-14738984D02*
X13074706Y-14738984D01*
X13131848Y-14738984D02*
X13131848Y-14538984D01*
X13131848Y-14538984D02*
X13112801Y-14567555D01*
X13112801Y-14567555D02*
X13093753Y-14586603D01*
X13093753Y-14586603D02*
X13074706Y-14596127D01*
X13427087Y-14738984D02*
X13427087Y-14538984D01*
X13512801Y-14738984D02*
X13512801Y-14634222D01*
X13512801Y-14634222D02*
X13503277Y-14615174D01*
X13503277Y-14615174D02*
X13484230Y-14605650D01*
X13484230Y-14605650D02*
X13455658Y-14605650D01*
X13455658Y-14605650D02*
X13436610Y-14615174D01*
X13436610Y-14615174D02*
X13427087Y-14624698D01*
X13636610Y-14738984D02*
X13617563Y-14729460D01*
X13617563Y-14729460D02*
X13608039Y-14719936D01*
X13608039Y-14719936D02*
X13598515Y-14700888D01*
X13598515Y-14700888D02*
X13598515Y-14643746D01*
X13598515Y-14643746D02*
X13608039Y-14624698D01*
X13608039Y-14624698D02*
X13617563Y-14615174D01*
X13617563Y-14615174D02*
X13636610Y-14605650D01*
X13636610Y-14605650D02*
X13665182Y-14605650D01*
X13665182Y-14605650D02*
X13684230Y-14615174D01*
X13684230Y-14615174D02*
X13693753Y-14624698D01*
X13693753Y-14624698D02*
X13703277Y-14643746D01*
X13703277Y-14643746D02*
X13703277Y-14700888D01*
X13703277Y-14700888D02*
X13693753Y-14719936D01*
X13693753Y-14719936D02*
X13684230Y-14729460D01*
X13684230Y-14729460D02*
X13665182Y-14738984D01*
X13665182Y-14738984D02*
X13636610Y-14738984D01*
X13817563Y-14738984D02*
X13798515Y-14729460D01*
X13798515Y-14729460D02*
X13788991Y-14710412D01*
X13788991Y-14710412D02*
X13788991Y-14538984D01*
X13969944Y-14729460D02*
X13950896Y-14738984D01*
X13950896Y-14738984D02*
X13912801Y-14738984D01*
X13912801Y-14738984D02*
X13893753Y-14729460D01*
X13893753Y-14729460D02*
X13884230Y-14710412D01*
X13884230Y-14710412D02*
X13884230Y-14634222D01*
X13884230Y-14634222D02*
X13893753Y-14615174D01*
X13893753Y-14615174D02*
X13912801Y-14605650D01*
X13912801Y-14605650D02*
X13950896Y-14605650D01*
X13950896Y-14605650D02*
X13969944Y-14615174D01*
X13969944Y-14615174D02*
X13979468Y-14634222D01*
X13979468Y-14634222D02*
X13979468Y-14653269D01*
X13979468Y-14653269D02*
X13884230Y-14672317D01*
X14055658Y-14729460D02*
X14074706Y-14738984D01*
X14074706Y-14738984D02*
X14112801Y-14738984D01*
X14112801Y-14738984D02*
X14131849Y-14729460D01*
X14131849Y-14729460D02*
X14141372Y-14710412D01*
X14141372Y-14710412D02*
X14141372Y-14700888D01*
X14141372Y-14700888D02*
X14131849Y-14681841D01*
X14131849Y-14681841D02*
X14112801Y-14672317D01*
X14112801Y-14672317D02*
X14084230Y-14672317D01*
X14084230Y-14672317D02*
X14065182Y-14662793D01*
X14065182Y-14662793D02*
X14055658Y-14643746D01*
X14055658Y-14643746D02*
X14055658Y-14634222D01*
X14055658Y-14634222D02*
X14065182Y-14615174D01*
X14065182Y-14615174D02*
X14084230Y-14605650D01*
X14084230Y-14605650D02*
X14112801Y-14605650D01*
X14112801Y-14605650D02*
X14131849Y-14615174D01*
X14208039Y-14815174D02*
X14217563Y-14805650D01*
X14217563Y-14805650D02*
X14236611Y-14777079D01*
X14236611Y-14777079D02*
X14246134Y-14758031D01*
X14246134Y-14758031D02*
X14255658Y-14729460D01*
X14255658Y-14729460D02*
X14265182Y-14681841D01*
X14265182Y-14681841D02*
X14265182Y-14643746D01*
X14265182Y-14643746D02*
X14255658Y-14596127D01*
X14255658Y-14596127D02*
X14246134Y-14567555D01*
X14246134Y-14567555D02*
X14236611Y-14548508D01*
X14236611Y-14548508D02*
X14217563Y-14519936D01*
X14217563Y-14519936D02*
X14208039Y-14510412D01*
D12*
X9242500Y-14911500D02*
G75*
G02*
X9202500Y-14911500I-20000J0D01*
G01*
X9202500Y-14911500D02*
G75*
G02*
X9242500Y-14911500I20000J0D01*
G01*
D11*
X9541372Y-14802984D02*
X9560420Y-14802984D01*
X9560420Y-14802984D02*
X9579467Y-14812508D01*
X9579467Y-14812508D02*
X9588991Y-14822031D01*
X9588991Y-14822031D02*
X9598515Y-14841079D01*
X9598515Y-14841079D02*
X9608039Y-14879174D01*
X9608039Y-14879174D02*
X9608039Y-14926793D01*
X9608039Y-14926793D02*
X9598515Y-14964888D01*
X9598515Y-14964888D02*
X9588991Y-14983936D01*
X9588991Y-14983936D02*
X9579467Y-14993460D01*
X9579467Y-14993460D02*
X9560420Y-15002984D01*
X9560420Y-15002984D02*
X9541372Y-15002984D01*
X9541372Y-15002984D02*
X9522324Y-14993460D01*
X9522324Y-14993460D02*
X9512801Y-14983936D01*
X9512801Y-14983936D02*
X9503277Y-14964888D01*
X9503277Y-14964888D02*
X9493753Y-14926793D01*
X9493753Y-14926793D02*
X9493753Y-14879174D01*
X9493753Y-14879174D02*
X9503277Y-14841079D01*
X9503277Y-14841079D02*
X9512801Y-14822031D01*
X9512801Y-14822031D02*
X9522324Y-14812508D01*
X9522324Y-14812508D02*
X9541372Y-14802984D01*
X9693753Y-14983936D02*
X9703277Y-14993460D01*
X9703277Y-14993460D02*
X9693753Y-15002984D01*
X9693753Y-15002984D02*
X9684229Y-14993460D01*
X9684229Y-14993460D02*
X9693753Y-14983936D01*
X9693753Y-14983936D02*
X9693753Y-15002984D01*
X9874705Y-14869650D02*
X9874705Y-15002984D01*
X9827086Y-14793460D02*
X9779467Y-14936317D01*
X9779467Y-14936317D02*
X9903277Y-14936317D01*
X10017563Y-14802984D02*
X10036610Y-14802984D01*
X10036610Y-14802984D02*
X10055658Y-14812508D01*
X10055658Y-14812508D02*
X10065182Y-14822031D01*
X10065182Y-14822031D02*
X10074705Y-14841079D01*
X10074705Y-14841079D02*
X10084229Y-14879174D01*
X10084229Y-14879174D02*
X10084229Y-14926793D01*
X10084229Y-14926793D02*
X10074705Y-14964888D01*
X10074705Y-14964888D02*
X10065182Y-14983936D01*
X10065182Y-14983936D02*
X10055658Y-14993460D01*
X10055658Y-14993460D02*
X10036610Y-15002984D01*
X10036610Y-15002984D02*
X10017563Y-15002984D01*
X10017563Y-15002984D02*
X9998515Y-14993460D01*
X9998515Y-14993460D02*
X9988991Y-14983936D01*
X9988991Y-14983936D02*
X9979467Y-14964888D01*
X9979467Y-14964888D02*
X9969944Y-14926793D01*
X9969944Y-14926793D02*
X9969944Y-14879174D01*
X9969944Y-14879174D02*
X9979467Y-14841079D01*
X9979467Y-14841079D02*
X9988991Y-14822031D01*
X9988991Y-14822031D02*
X9998515Y-14812508D01*
X9998515Y-14812508D02*
X10017563Y-14802984D01*
X10208039Y-14802984D02*
X10227086Y-14802984D01*
X10227086Y-14802984D02*
X10246134Y-14812508D01*
X10246134Y-14812508D02*
X10255658Y-14822031D01*
X10255658Y-14822031D02*
X10265182Y-14841079D01*
X10265182Y-14841079D02*
X10274705Y-14879174D01*
X10274705Y-14879174D02*
X10274705Y-14926793D01*
X10274705Y-14926793D02*
X10265182Y-14964888D01*
X10265182Y-14964888D02*
X10255658Y-14983936D01*
X10255658Y-14983936D02*
X10246134Y-14993460D01*
X10246134Y-14993460D02*
X10227086Y-15002984D01*
X10227086Y-15002984D02*
X10208039Y-15002984D01*
X10208039Y-15002984D02*
X10188991Y-14993460D01*
X10188991Y-14993460D02*
X10179467Y-14983936D01*
X10179467Y-14983936D02*
X10169944Y-14964888D01*
X10169944Y-14964888D02*
X10160420Y-14926793D01*
X10160420Y-14926793D02*
X10160420Y-14879174D01*
X10160420Y-14879174D02*
X10169944Y-14841079D01*
X10169944Y-14841079D02*
X10179467Y-14822031D01*
X10179467Y-14822031D02*
X10188991Y-14812508D01*
X10188991Y-14812508D02*
X10208039Y-14802984D01*
X10360420Y-15002984D02*
X10360420Y-14869650D01*
X10360420Y-14888698D02*
X10369944Y-14879174D01*
X10369944Y-14879174D02*
X10388991Y-14869650D01*
X10388991Y-14869650D02*
X10417563Y-14869650D01*
X10417563Y-14869650D02*
X10436610Y-14879174D01*
X10436610Y-14879174D02*
X10446134Y-14898222D01*
X10446134Y-14898222D02*
X10446134Y-15002984D01*
X10446134Y-14898222D02*
X10455658Y-14879174D01*
X10455658Y-14879174D02*
X10474705Y-14869650D01*
X10474705Y-14869650D02*
X10503277Y-14869650D01*
X10503277Y-14869650D02*
X10522325Y-14879174D01*
X10522325Y-14879174D02*
X10531848Y-14898222D01*
X10531848Y-14898222D02*
X10531848Y-15002984D01*
X10627086Y-15002984D02*
X10627086Y-14869650D01*
X10627086Y-14888698D02*
X10636610Y-14879174D01*
X10636610Y-14879174D02*
X10655658Y-14869650D01*
X10655658Y-14869650D02*
X10684229Y-14869650D01*
X10684229Y-14869650D02*
X10703277Y-14879174D01*
X10703277Y-14879174D02*
X10712801Y-14898222D01*
X10712801Y-14898222D02*
X10712801Y-15002984D01*
X10712801Y-14898222D02*
X10722325Y-14879174D01*
X10722325Y-14879174D02*
X10741372Y-14869650D01*
X10741372Y-14869650D02*
X10769944Y-14869650D01*
X10769944Y-14869650D02*
X10788991Y-14879174D01*
X10788991Y-14879174D02*
X10798515Y-14898222D01*
X10798515Y-14898222D02*
X10798515Y-15002984D01*
X11188991Y-14793460D02*
X11017563Y-15050603D01*
X11446134Y-14802984D02*
X11465182Y-14802984D01*
X11465182Y-14802984D02*
X11484229Y-14812508D01*
X11484229Y-14812508D02*
X11493753Y-14822031D01*
X11493753Y-14822031D02*
X11503277Y-14841079D01*
X11503277Y-14841079D02*
X11512801Y-14879174D01*
X11512801Y-14879174D02*
X11512801Y-14926793D01*
X11512801Y-14926793D02*
X11503277Y-14964888D01*
X11503277Y-14964888D02*
X11493753Y-14983936D01*
X11493753Y-14983936D02*
X11484229Y-14993460D01*
X11484229Y-14993460D02*
X11465182Y-15002984D01*
X11465182Y-15002984D02*
X11446134Y-15002984D01*
X11446134Y-15002984D02*
X11427086Y-14993460D01*
X11427086Y-14993460D02*
X11417563Y-14983936D01*
X11417563Y-14983936D02*
X11408039Y-14964888D01*
X11408039Y-14964888D02*
X11398515Y-14926793D01*
X11398515Y-14926793D02*
X11398515Y-14879174D01*
X11398515Y-14879174D02*
X11408039Y-14841079D01*
X11408039Y-14841079D02*
X11417563Y-14822031D01*
X11417563Y-14822031D02*
X11427086Y-14812508D01*
X11427086Y-14812508D02*
X11446134Y-14802984D01*
X11598515Y-14983936D02*
X11608039Y-14993460D01*
X11608039Y-14993460D02*
X11598515Y-15002984D01*
X11598515Y-15002984D02*
X11588991Y-14993460D01*
X11588991Y-14993460D02*
X11598515Y-14983936D01*
X11598515Y-14983936D02*
X11598515Y-15002984D01*
X11731848Y-14802984D02*
X11750896Y-14802984D01*
X11750896Y-14802984D02*
X11769944Y-14812508D01*
X11769944Y-14812508D02*
X11779467Y-14822031D01*
X11779467Y-14822031D02*
X11788991Y-14841079D01*
X11788991Y-14841079D02*
X11798515Y-14879174D01*
X11798515Y-14879174D02*
X11798515Y-14926793D01*
X11798515Y-14926793D02*
X11788991Y-14964888D01*
X11788991Y-14964888D02*
X11779467Y-14983936D01*
X11779467Y-14983936D02*
X11769944Y-14993460D01*
X11769944Y-14993460D02*
X11750896Y-15002984D01*
X11750896Y-15002984D02*
X11731848Y-15002984D01*
X11731848Y-15002984D02*
X11712801Y-14993460D01*
X11712801Y-14993460D02*
X11703277Y-14983936D01*
X11703277Y-14983936D02*
X11693753Y-14964888D01*
X11693753Y-14964888D02*
X11684229Y-14926793D01*
X11684229Y-14926793D02*
X11684229Y-14879174D01*
X11684229Y-14879174D02*
X11693753Y-14841079D01*
X11693753Y-14841079D02*
X11703277Y-14822031D01*
X11703277Y-14822031D02*
X11712801Y-14812508D01*
X11712801Y-14812508D02*
X11731848Y-14802984D01*
X11988991Y-15002984D02*
X11874706Y-15002984D01*
X11931848Y-15002984D02*
X11931848Y-14802984D01*
X11931848Y-14802984D02*
X11912801Y-14831555D01*
X11912801Y-14831555D02*
X11893753Y-14850603D01*
X11893753Y-14850603D02*
X11874706Y-14860127D01*
X12169944Y-14802984D02*
X12074706Y-14802984D01*
X12074706Y-14802984D02*
X12065182Y-14898222D01*
X12065182Y-14898222D02*
X12074706Y-14888698D01*
X12074706Y-14888698D02*
X12093753Y-14879174D01*
X12093753Y-14879174D02*
X12141372Y-14879174D01*
X12141372Y-14879174D02*
X12160420Y-14888698D01*
X12160420Y-14888698D02*
X12169944Y-14898222D01*
X12169944Y-14898222D02*
X12179467Y-14917269D01*
X12179467Y-14917269D02*
X12179467Y-14964888D01*
X12179467Y-14964888D02*
X12169944Y-14983936D01*
X12169944Y-14983936D02*
X12160420Y-14993460D01*
X12160420Y-14993460D02*
X12141372Y-15002984D01*
X12141372Y-15002984D02*
X12093753Y-15002984D01*
X12093753Y-15002984D02*
X12074706Y-14993460D01*
X12074706Y-14993460D02*
X12065182Y-14983936D01*
X12246134Y-14802984D02*
X12379467Y-14802984D01*
X12379467Y-14802984D02*
X12293753Y-15002984D01*
X12446134Y-14802984D02*
X12446134Y-14841079D01*
X12522325Y-14802984D02*
X12522325Y-14841079D01*
X12817563Y-15079174D02*
X12808039Y-15069650D01*
X12808039Y-15069650D02*
X12788991Y-15041079D01*
X12788991Y-15041079D02*
X12779468Y-15022031D01*
X12779468Y-15022031D02*
X12769944Y-14993460D01*
X12769944Y-14993460D02*
X12760420Y-14945841D01*
X12760420Y-14945841D02*
X12760420Y-14907746D01*
X12760420Y-14907746D02*
X12769944Y-14860127D01*
X12769944Y-14860127D02*
X12779468Y-14831555D01*
X12779468Y-14831555D02*
X12788991Y-14812508D01*
X12788991Y-14812508D02*
X12808039Y-14783936D01*
X12808039Y-14783936D02*
X12817563Y-14774412D01*
X12998515Y-15002984D02*
X12884229Y-15002984D01*
X12941372Y-15002984D02*
X12941372Y-14802984D01*
X12941372Y-14802984D02*
X12922325Y-14831555D01*
X12922325Y-14831555D02*
X12903277Y-14850603D01*
X12903277Y-14850603D02*
X12884229Y-14860127D01*
X13236610Y-15002984D02*
X13236610Y-14802984D01*
X13322325Y-15002984D02*
X13322325Y-14898222D01*
X13322325Y-14898222D02*
X13312801Y-14879174D01*
X13312801Y-14879174D02*
X13293753Y-14869650D01*
X13293753Y-14869650D02*
X13265182Y-14869650D01*
X13265182Y-14869650D02*
X13246134Y-14879174D01*
X13246134Y-14879174D02*
X13236610Y-14888698D01*
X13446134Y-15002984D02*
X13427087Y-14993460D01*
X13427087Y-14993460D02*
X13417563Y-14983936D01*
X13417563Y-14983936D02*
X13408039Y-14964888D01*
X13408039Y-14964888D02*
X13408039Y-14907746D01*
X13408039Y-14907746D02*
X13417563Y-14888698D01*
X13417563Y-14888698D02*
X13427087Y-14879174D01*
X13427087Y-14879174D02*
X13446134Y-14869650D01*
X13446134Y-14869650D02*
X13474706Y-14869650D01*
X13474706Y-14869650D02*
X13493753Y-14879174D01*
X13493753Y-14879174D02*
X13503277Y-14888698D01*
X13503277Y-14888698D02*
X13512801Y-14907746D01*
X13512801Y-14907746D02*
X13512801Y-14964888D01*
X13512801Y-14964888D02*
X13503277Y-14983936D01*
X13503277Y-14983936D02*
X13493753Y-14993460D01*
X13493753Y-14993460D02*
X13474706Y-15002984D01*
X13474706Y-15002984D02*
X13446134Y-15002984D01*
X13627087Y-15002984D02*
X13608039Y-14993460D01*
X13608039Y-14993460D02*
X13598515Y-14974412D01*
X13598515Y-14974412D02*
X13598515Y-14802984D01*
X13779468Y-14993460D02*
X13760420Y-15002984D01*
X13760420Y-15002984D02*
X13722325Y-15002984D01*
X13722325Y-15002984D02*
X13703277Y-14993460D01*
X13703277Y-14993460D02*
X13693753Y-14974412D01*
X13693753Y-14974412D02*
X13693753Y-14898222D01*
X13693753Y-14898222D02*
X13703277Y-14879174D01*
X13703277Y-14879174D02*
X13722325Y-14869650D01*
X13722325Y-14869650D02*
X13760420Y-14869650D01*
X13760420Y-14869650D02*
X13779468Y-14879174D01*
X13779468Y-14879174D02*
X13788991Y-14898222D01*
X13788991Y-14898222D02*
X13788991Y-14917269D01*
X13788991Y-14917269D02*
X13693753Y-14936317D01*
X13855658Y-15079174D02*
X13865182Y-15069650D01*
X13865182Y-15069650D02*
X13884230Y-15041079D01*
X13884230Y-15041079D02*
X13893753Y-15022031D01*
X13893753Y-15022031D02*
X13903277Y-14993460D01*
X13903277Y-14993460D02*
X13912801Y-14945841D01*
X13912801Y-14945841D02*
X13912801Y-14907746D01*
X13912801Y-14907746D02*
X13903277Y-14860127D01*
X13903277Y-14860127D02*
X13893753Y-14831555D01*
X13893753Y-14831555D02*
X13884230Y-14812508D01*
X13884230Y-14812508D02*
X13865182Y-14783936D01*
X13865182Y-14783936D02*
X13855658Y-14774412D01*
D12*
X9202500Y-15135500D02*
X9202500Y-15215500D01*
X9162500Y-15175500D02*
X9242500Y-15175500D01*
D11*
X9541372Y-15066984D02*
X9560420Y-15066984D01*
X9560420Y-15066984D02*
X9579467Y-15076508D01*
X9579467Y-15076508D02*
X9588991Y-15086031D01*
X9588991Y-15086031D02*
X9598515Y-15105079D01*
X9598515Y-15105079D02*
X9608039Y-15143174D01*
X9608039Y-15143174D02*
X9608039Y-15190793D01*
X9608039Y-15190793D02*
X9598515Y-15228888D01*
X9598515Y-15228888D02*
X9588991Y-15247936D01*
X9588991Y-15247936D02*
X9579467Y-15257460D01*
X9579467Y-15257460D02*
X9560420Y-15266984D01*
X9560420Y-15266984D02*
X9541372Y-15266984D01*
X9541372Y-15266984D02*
X9522324Y-15257460D01*
X9522324Y-15257460D02*
X9512801Y-15247936D01*
X9512801Y-15247936D02*
X9503277Y-15228888D01*
X9503277Y-15228888D02*
X9493753Y-15190793D01*
X9493753Y-15190793D02*
X9493753Y-15143174D01*
X9493753Y-15143174D02*
X9503277Y-15105079D01*
X9503277Y-15105079D02*
X9512801Y-15086031D01*
X9512801Y-15086031D02*
X9522324Y-15076508D01*
X9522324Y-15076508D02*
X9541372Y-15066984D01*
X9693753Y-15247936D02*
X9703277Y-15257460D01*
X9703277Y-15257460D02*
X9693753Y-15266984D01*
X9693753Y-15266984D02*
X9684229Y-15257460D01*
X9684229Y-15257460D02*
X9693753Y-15247936D01*
X9693753Y-15247936D02*
X9693753Y-15266984D01*
X9817563Y-15152698D02*
X9798515Y-15143174D01*
X9798515Y-15143174D02*
X9788991Y-15133650D01*
X9788991Y-15133650D02*
X9779467Y-15114603D01*
X9779467Y-15114603D02*
X9779467Y-15105079D01*
X9779467Y-15105079D02*
X9788991Y-15086031D01*
X9788991Y-15086031D02*
X9798515Y-15076508D01*
X9798515Y-15076508D02*
X9817563Y-15066984D01*
X9817563Y-15066984D02*
X9855658Y-15066984D01*
X9855658Y-15066984D02*
X9874705Y-15076508D01*
X9874705Y-15076508D02*
X9884229Y-15086031D01*
X9884229Y-15086031D02*
X9893753Y-15105079D01*
X9893753Y-15105079D02*
X9893753Y-15114603D01*
X9893753Y-15114603D02*
X9884229Y-15133650D01*
X9884229Y-15133650D02*
X9874705Y-15143174D01*
X9874705Y-15143174D02*
X9855658Y-15152698D01*
X9855658Y-15152698D02*
X9817563Y-15152698D01*
X9817563Y-15152698D02*
X9798515Y-15162222D01*
X9798515Y-15162222D02*
X9788991Y-15171746D01*
X9788991Y-15171746D02*
X9779467Y-15190793D01*
X9779467Y-15190793D02*
X9779467Y-15228888D01*
X9779467Y-15228888D02*
X9788991Y-15247936D01*
X9788991Y-15247936D02*
X9798515Y-15257460D01*
X9798515Y-15257460D02*
X9817563Y-15266984D01*
X9817563Y-15266984D02*
X9855658Y-15266984D01*
X9855658Y-15266984D02*
X9874705Y-15257460D01*
X9874705Y-15257460D02*
X9884229Y-15247936D01*
X9884229Y-15247936D02*
X9893753Y-15228888D01*
X9893753Y-15228888D02*
X9893753Y-15190793D01*
X9893753Y-15190793D02*
X9884229Y-15171746D01*
X9884229Y-15171746D02*
X9874705Y-15162222D01*
X9874705Y-15162222D02*
X9855658Y-15152698D01*
X10017563Y-15066984D02*
X10036610Y-15066984D01*
X10036610Y-15066984D02*
X10055658Y-15076508D01*
X10055658Y-15076508D02*
X10065182Y-15086031D01*
X10065182Y-15086031D02*
X10074705Y-15105079D01*
X10074705Y-15105079D02*
X10084229Y-15143174D01*
X10084229Y-15143174D02*
X10084229Y-15190793D01*
X10084229Y-15190793D02*
X10074705Y-15228888D01*
X10074705Y-15228888D02*
X10065182Y-15247936D01*
X10065182Y-15247936D02*
X10055658Y-15257460D01*
X10055658Y-15257460D02*
X10036610Y-15266984D01*
X10036610Y-15266984D02*
X10017563Y-15266984D01*
X10017563Y-15266984D02*
X9998515Y-15257460D01*
X9998515Y-15257460D02*
X9988991Y-15247936D01*
X9988991Y-15247936D02*
X9979467Y-15228888D01*
X9979467Y-15228888D02*
X9969944Y-15190793D01*
X9969944Y-15190793D02*
X9969944Y-15143174D01*
X9969944Y-15143174D02*
X9979467Y-15105079D01*
X9979467Y-15105079D02*
X9988991Y-15086031D01*
X9988991Y-15086031D02*
X9998515Y-15076508D01*
X9998515Y-15076508D02*
X10017563Y-15066984D01*
X10208039Y-15066984D02*
X10227086Y-15066984D01*
X10227086Y-15066984D02*
X10246134Y-15076508D01*
X10246134Y-15076508D02*
X10255658Y-15086031D01*
X10255658Y-15086031D02*
X10265182Y-15105079D01*
X10265182Y-15105079D02*
X10274705Y-15143174D01*
X10274705Y-15143174D02*
X10274705Y-15190793D01*
X10274705Y-15190793D02*
X10265182Y-15228888D01*
X10265182Y-15228888D02*
X10255658Y-15247936D01*
X10255658Y-15247936D02*
X10246134Y-15257460D01*
X10246134Y-15257460D02*
X10227086Y-15266984D01*
X10227086Y-15266984D02*
X10208039Y-15266984D01*
X10208039Y-15266984D02*
X10188991Y-15257460D01*
X10188991Y-15257460D02*
X10179467Y-15247936D01*
X10179467Y-15247936D02*
X10169944Y-15228888D01*
X10169944Y-15228888D02*
X10160420Y-15190793D01*
X10160420Y-15190793D02*
X10160420Y-15143174D01*
X10160420Y-15143174D02*
X10169944Y-15105079D01*
X10169944Y-15105079D02*
X10179467Y-15086031D01*
X10179467Y-15086031D02*
X10188991Y-15076508D01*
X10188991Y-15076508D02*
X10208039Y-15066984D01*
X10360420Y-15266984D02*
X10360420Y-15133650D01*
X10360420Y-15152698D02*
X10369944Y-15143174D01*
X10369944Y-15143174D02*
X10388991Y-15133650D01*
X10388991Y-15133650D02*
X10417563Y-15133650D01*
X10417563Y-15133650D02*
X10436610Y-15143174D01*
X10436610Y-15143174D02*
X10446134Y-15162222D01*
X10446134Y-15162222D02*
X10446134Y-15266984D01*
X10446134Y-15162222D02*
X10455658Y-15143174D01*
X10455658Y-15143174D02*
X10474705Y-15133650D01*
X10474705Y-15133650D02*
X10503277Y-15133650D01*
X10503277Y-15133650D02*
X10522325Y-15143174D01*
X10522325Y-15143174D02*
X10531848Y-15162222D01*
X10531848Y-15162222D02*
X10531848Y-15266984D01*
X10627086Y-15266984D02*
X10627086Y-15133650D01*
X10627086Y-15152698D02*
X10636610Y-15143174D01*
X10636610Y-15143174D02*
X10655658Y-15133650D01*
X10655658Y-15133650D02*
X10684229Y-15133650D01*
X10684229Y-15133650D02*
X10703277Y-15143174D01*
X10703277Y-15143174D02*
X10712801Y-15162222D01*
X10712801Y-15162222D02*
X10712801Y-15266984D01*
X10712801Y-15162222D02*
X10722325Y-15143174D01*
X10722325Y-15143174D02*
X10741372Y-15133650D01*
X10741372Y-15133650D02*
X10769944Y-15133650D01*
X10769944Y-15133650D02*
X10788991Y-15143174D01*
X10788991Y-15143174D02*
X10798515Y-15162222D01*
X10798515Y-15162222D02*
X10798515Y-15266984D01*
X11188991Y-15057460D02*
X11017563Y-15314603D01*
X11446134Y-15066984D02*
X11465182Y-15066984D01*
X11465182Y-15066984D02*
X11484229Y-15076508D01*
X11484229Y-15076508D02*
X11493753Y-15086031D01*
X11493753Y-15086031D02*
X11503277Y-15105079D01*
X11503277Y-15105079D02*
X11512801Y-15143174D01*
X11512801Y-15143174D02*
X11512801Y-15190793D01*
X11512801Y-15190793D02*
X11503277Y-15228888D01*
X11503277Y-15228888D02*
X11493753Y-15247936D01*
X11493753Y-15247936D02*
X11484229Y-15257460D01*
X11484229Y-15257460D02*
X11465182Y-15266984D01*
X11465182Y-15266984D02*
X11446134Y-15266984D01*
X11446134Y-15266984D02*
X11427086Y-15257460D01*
X11427086Y-15257460D02*
X11417563Y-15247936D01*
X11417563Y-15247936D02*
X11408039Y-15228888D01*
X11408039Y-15228888D02*
X11398515Y-15190793D01*
X11398515Y-15190793D02*
X11398515Y-15143174D01*
X11398515Y-15143174D02*
X11408039Y-15105079D01*
X11408039Y-15105079D02*
X11417563Y-15086031D01*
X11417563Y-15086031D02*
X11427086Y-15076508D01*
X11427086Y-15076508D02*
X11446134Y-15066984D01*
X11598515Y-15247936D02*
X11608039Y-15257460D01*
X11608039Y-15257460D02*
X11598515Y-15266984D01*
X11598515Y-15266984D02*
X11588991Y-15257460D01*
X11588991Y-15257460D02*
X11598515Y-15247936D01*
X11598515Y-15247936D02*
X11598515Y-15266984D01*
X11731848Y-15066984D02*
X11750896Y-15066984D01*
X11750896Y-15066984D02*
X11769944Y-15076508D01*
X11769944Y-15076508D02*
X11779467Y-15086031D01*
X11779467Y-15086031D02*
X11788991Y-15105079D01*
X11788991Y-15105079D02*
X11798515Y-15143174D01*
X11798515Y-15143174D02*
X11798515Y-15190793D01*
X11798515Y-15190793D02*
X11788991Y-15228888D01*
X11788991Y-15228888D02*
X11779467Y-15247936D01*
X11779467Y-15247936D02*
X11769944Y-15257460D01*
X11769944Y-15257460D02*
X11750896Y-15266984D01*
X11750896Y-15266984D02*
X11731848Y-15266984D01*
X11731848Y-15266984D02*
X11712801Y-15257460D01*
X11712801Y-15257460D02*
X11703277Y-15247936D01*
X11703277Y-15247936D02*
X11693753Y-15228888D01*
X11693753Y-15228888D02*
X11684229Y-15190793D01*
X11684229Y-15190793D02*
X11684229Y-15143174D01*
X11684229Y-15143174D02*
X11693753Y-15105079D01*
X11693753Y-15105079D02*
X11703277Y-15086031D01*
X11703277Y-15086031D02*
X11712801Y-15076508D01*
X11712801Y-15076508D02*
X11731848Y-15066984D01*
X11865182Y-15066984D02*
X11988991Y-15066984D01*
X11988991Y-15066984D02*
X11922325Y-15143174D01*
X11922325Y-15143174D02*
X11950896Y-15143174D01*
X11950896Y-15143174D02*
X11969944Y-15152698D01*
X11969944Y-15152698D02*
X11979467Y-15162222D01*
X11979467Y-15162222D02*
X11988991Y-15181269D01*
X11988991Y-15181269D02*
X11988991Y-15228888D01*
X11988991Y-15228888D02*
X11979467Y-15247936D01*
X11979467Y-15247936D02*
X11969944Y-15257460D01*
X11969944Y-15257460D02*
X11950896Y-15266984D01*
X11950896Y-15266984D02*
X11893753Y-15266984D01*
X11893753Y-15266984D02*
X11874706Y-15257460D01*
X11874706Y-15257460D02*
X11865182Y-15247936D01*
X12179467Y-15266984D02*
X12065182Y-15266984D01*
X12122325Y-15266984D02*
X12122325Y-15066984D01*
X12122325Y-15066984D02*
X12103277Y-15095555D01*
X12103277Y-15095555D02*
X12084229Y-15114603D01*
X12084229Y-15114603D02*
X12065182Y-15124127D01*
X12360420Y-15066984D02*
X12265182Y-15066984D01*
X12265182Y-15066984D02*
X12255658Y-15162222D01*
X12255658Y-15162222D02*
X12265182Y-15152698D01*
X12265182Y-15152698D02*
X12284229Y-15143174D01*
X12284229Y-15143174D02*
X12331848Y-15143174D01*
X12331848Y-15143174D02*
X12350896Y-15152698D01*
X12350896Y-15152698D02*
X12360420Y-15162222D01*
X12360420Y-15162222D02*
X12369944Y-15181269D01*
X12369944Y-15181269D02*
X12369944Y-15228888D01*
X12369944Y-15228888D02*
X12360420Y-15247936D01*
X12360420Y-15247936D02*
X12350896Y-15257460D01*
X12350896Y-15257460D02*
X12331848Y-15266984D01*
X12331848Y-15266984D02*
X12284229Y-15266984D01*
X12284229Y-15266984D02*
X12265182Y-15257460D01*
X12265182Y-15257460D02*
X12255658Y-15247936D01*
X12446134Y-15066984D02*
X12446134Y-15105079D01*
X12522325Y-15066984D02*
X12522325Y-15105079D01*
X12817563Y-15343174D02*
X12808039Y-15333650D01*
X12808039Y-15333650D02*
X12788991Y-15305079D01*
X12788991Y-15305079D02*
X12779468Y-15286031D01*
X12779468Y-15286031D02*
X12769944Y-15257460D01*
X12769944Y-15257460D02*
X12760420Y-15209841D01*
X12760420Y-15209841D02*
X12760420Y-15171746D01*
X12760420Y-15171746D02*
X12769944Y-15124127D01*
X12769944Y-15124127D02*
X12779468Y-15095555D01*
X12779468Y-15095555D02*
X12788991Y-15076508D01*
X12788991Y-15076508D02*
X12808039Y-15047936D01*
X12808039Y-15047936D02*
X12817563Y-15038412D01*
X12884229Y-15086031D02*
X12893753Y-15076508D01*
X12893753Y-15076508D02*
X12912801Y-15066984D01*
X12912801Y-15066984D02*
X12960420Y-15066984D01*
X12960420Y-15066984D02*
X12979468Y-15076508D01*
X12979468Y-15076508D02*
X12988991Y-15086031D01*
X12988991Y-15086031D02*
X12998515Y-15105079D01*
X12998515Y-15105079D02*
X12998515Y-15124127D01*
X12998515Y-15124127D02*
X12988991Y-15152698D01*
X12988991Y-15152698D02*
X12874706Y-15266984D01*
X12874706Y-15266984D02*
X12998515Y-15266984D01*
X13236610Y-15266984D02*
X13236610Y-15066984D01*
X13322325Y-15266984D02*
X13322325Y-15162222D01*
X13322325Y-15162222D02*
X13312801Y-15143174D01*
X13312801Y-15143174D02*
X13293753Y-15133650D01*
X13293753Y-15133650D02*
X13265182Y-15133650D01*
X13265182Y-15133650D02*
X13246134Y-15143174D01*
X13246134Y-15143174D02*
X13236610Y-15152698D01*
X13446134Y-15266984D02*
X13427087Y-15257460D01*
X13427087Y-15257460D02*
X13417563Y-15247936D01*
X13417563Y-15247936D02*
X13408039Y-15228888D01*
X13408039Y-15228888D02*
X13408039Y-15171746D01*
X13408039Y-15171746D02*
X13417563Y-15152698D01*
X13417563Y-15152698D02*
X13427087Y-15143174D01*
X13427087Y-15143174D02*
X13446134Y-15133650D01*
X13446134Y-15133650D02*
X13474706Y-15133650D01*
X13474706Y-15133650D02*
X13493753Y-15143174D01*
X13493753Y-15143174D02*
X13503277Y-15152698D01*
X13503277Y-15152698D02*
X13512801Y-15171746D01*
X13512801Y-15171746D02*
X13512801Y-15228888D01*
X13512801Y-15228888D02*
X13503277Y-15247936D01*
X13503277Y-15247936D02*
X13493753Y-15257460D01*
X13493753Y-15257460D02*
X13474706Y-15266984D01*
X13474706Y-15266984D02*
X13446134Y-15266984D01*
X13627087Y-15266984D02*
X13608039Y-15257460D01*
X13608039Y-15257460D02*
X13598515Y-15238412D01*
X13598515Y-15238412D02*
X13598515Y-15066984D01*
X13779468Y-15257460D02*
X13760420Y-15266984D01*
X13760420Y-15266984D02*
X13722325Y-15266984D01*
X13722325Y-15266984D02*
X13703277Y-15257460D01*
X13703277Y-15257460D02*
X13693753Y-15238412D01*
X13693753Y-15238412D02*
X13693753Y-15162222D01*
X13693753Y-15162222D02*
X13703277Y-15143174D01*
X13703277Y-15143174D02*
X13722325Y-15133650D01*
X13722325Y-15133650D02*
X13760420Y-15133650D01*
X13760420Y-15133650D02*
X13779468Y-15143174D01*
X13779468Y-15143174D02*
X13788991Y-15162222D01*
X13788991Y-15162222D02*
X13788991Y-15181269D01*
X13788991Y-15181269D02*
X13693753Y-15200317D01*
X13865182Y-15257460D02*
X13884230Y-15266984D01*
X13884230Y-15266984D02*
X13922325Y-15266984D01*
X13922325Y-15266984D02*
X13941372Y-15257460D01*
X13941372Y-15257460D02*
X13950896Y-15238412D01*
X13950896Y-15238412D02*
X13950896Y-15228888D01*
X13950896Y-15228888D02*
X13941372Y-15209841D01*
X13941372Y-15209841D02*
X13922325Y-15200317D01*
X13922325Y-15200317D02*
X13893753Y-15200317D01*
X13893753Y-15200317D02*
X13874706Y-15190793D01*
X13874706Y-15190793D02*
X13865182Y-15171746D01*
X13865182Y-15171746D02*
X13865182Y-15162222D01*
X13865182Y-15162222D02*
X13874706Y-15143174D01*
X13874706Y-15143174D02*
X13893753Y-15133650D01*
X13893753Y-15133650D02*
X13922325Y-15133650D01*
X13922325Y-15133650D02*
X13941372Y-15143174D01*
X14017563Y-15343174D02*
X14027087Y-15333650D01*
X14027087Y-15333650D02*
X14046134Y-15305079D01*
X14046134Y-15305079D02*
X14055658Y-15286031D01*
X14055658Y-15286031D02*
X14065182Y-15257460D01*
X14065182Y-15257460D02*
X14074706Y-15209841D01*
X14074706Y-15209841D02*
X14074706Y-15171746D01*
X14074706Y-15171746D02*
X14065182Y-15124127D01*
X14065182Y-15124127D02*
X14055658Y-15095555D01*
X14055658Y-15095555D02*
X14046134Y-15076508D01*
X14046134Y-15076508D02*
X14027087Y-15047936D01*
X14027087Y-15047936D02*
X14017563Y-15038412D01*
D12*
X9229320Y-15471320D02*
X9229320Y-15407680D01*
X9165680Y-15407680D01*
X9165680Y-15471320D01*
X9229320Y-15471320D01*
D11*
X9541372Y-15330984D02*
X9560420Y-15330984D01*
X9560420Y-15330984D02*
X9579467Y-15340508D01*
X9579467Y-15340508D02*
X9588991Y-15350031D01*
X9588991Y-15350031D02*
X9598515Y-15369079D01*
X9598515Y-15369079D02*
X9608039Y-15407174D01*
X9608039Y-15407174D02*
X9608039Y-15454793D01*
X9608039Y-15454793D02*
X9598515Y-15492888D01*
X9598515Y-15492888D02*
X9588991Y-15511936D01*
X9588991Y-15511936D02*
X9579467Y-15521460D01*
X9579467Y-15521460D02*
X9560420Y-15530984D01*
X9560420Y-15530984D02*
X9541372Y-15530984D01*
X9541372Y-15530984D02*
X9522324Y-15521460D01*
X9522324Y-15521460D02*
X9512801Y-15511936D01*
X9512801Y-15511936D02*
X9503277Y-15492888D01*
X9503277Y-15492888D02*
X9493753Y-15454793D01*
X9493753Y-15454793D02*
X9493753Y-15407174D01*
X9493753Y-15407174D02*
X9503277Y-15369079D01*
X9503277Y-15369079D02*
X9512801Y-15350031D01*
X9512801Y-15350031D02*
X9522324Y-15340508D01*
X9522324Y-15340508D02*
X9541372Y-15330984D01*
X9693753Y-15511936D02*
X9703277Y-15521460D01*
X9703277Y-15521460D02*
X9693753Y-15530984D01*
X9693753Y-15530984D02*
X9684229Y-15521460D01*
X9684229Y-15521460D02*
X9693753Y-15511936D01*
X9693753Y-15511936D02*
X9693753Y-15530984D01*
X9798515Y-15530984D02*
X9836610Y-15530984D01*
X9836610Y-15530984D02*
X9855658Y-15521460D01*
X9855658Y-15521460D02*
X9865182Y-15511936D01*
X9865182Y-15511936D02*
X9884229Y-15483365D01*
X9884229Y-15483365D02*
X9893753Y-15445269D01*
X9893753Y-15445269D02*
X9893753Y-15369079D01*
X9893753Y-15369079D02*
X9884229Y-15350031D01*
X9884229Y-15350031D02*
X9874705Y-15340508D01*
X9874705Y-15340508D02*
X9855658Y-15330984D01*
X9855658Y-15330984D02*
X9817563Y-15330984D01*
X9817563Y-15330984D02*
X9798515Y-15340508D01*
X9798515Y-15340508D02*
X9788991Y-15350031D01*
X9788991Y-15350031D02*
X9779467Y-15369079D01*
X9779467Y-15369079D02*
X9779467Y-15416698D01*
X9779467Y-15416698D02*
X9788991Y-15435746D01*
X9788991Y-15435746D02*
X9798515Y-15445269D01*
X9798515Y-15445269D02*
X9817563Y-15454793D01*
X9817563Y-15454793D02*
X9855658Y-15454793D01*
X9855658Y-15454793D02*
X9874705Y-15445269D01*
X9874705Y-15445269D02*
X9884229Y-15435746D01*
X9884229Y-15435746D02*
X9893753Y-15416698D01*
X10017563Y-15330984D02*
X10036610Y-15330984D01*
X10036610Y-15330984D02*
X10055658Y-15340508D01*
X10055658Y-15340508D02*
X10065182Y-15350031D01*
X10065182Y-15350031D02*
X10074705Y-15369079D01*
X10074705Y-15369079D02*
X10084229Y-15407174D01*
X10084229Y-15407174D02*
X10084229Y-15454793D01*
X10084229Y-15454793D02*
X10074705Y-15492888D01*
X10074705Y-15492888D02*
X10065182Y-15511936D01*
X10065182Y-15511936D02*
X10055658Y-15521460D01*
X10055658Y-15521460D02*
X10036610Y-15530984D01*
X10036610Y-15530984D02*
X10017563Y-15530984D01*
X10017563Y-15530984D02*
X9998515Y-15521460D01*
X9998515Y-15521460D02*
X9988991Y-15511936D01*
X9988991Y-15511936D02*
X9979467Y-15492888D01*
X9979467Y-15492888D02*
X9969944Y-15454793D01*
X9969944Y-15454793D02*
X9969944Y-15407174D01*
X9969944Y-15407174D02*
X9979467Y-15369079D01*
X9979467Y-15369079D02*
X9988991Y-15350031D01*
X9988991Y-15350031D02*
X9998515Y-15340508D01*
X9998515Y-15340508D02*
X10017563Y-15330984D01*
X10208039Y-15330984D02*
X10227086Y-15330984D01*
X10227086Y-15330984D02*
X10246134Y-15340508D01*
X10246134Y-15340508D02*
X10255658Y-15350031D01*
X10255658Y-15350031D02*
X10265182Y-15369079D01*
X10265182Y-15369079D02*
X10274705Y-15407174D01*
X10274705Y-15407174D02*
X10274705Y-15454793D01*
X10274705Y-15454793D02*
X10265182Y-15492888D01*
X10265182Y-15492888D02*
X10255658Y-15511936D01*
X10255658Y-15511936D02*
X10246134Y-15521460D01*
X10246134Y-15521460D02*
X10227086Y-15530984D01*
X10227086Y-15530984D02*
X10208039Y-15530984D01*
X10208039Y-15530984D02*
X10188991Y-15521460D01*
X10188991Y-15521460D02*
X10179467Y-15511936D01*
X10179467Y-15511936D02*
X10169944Y-15492888D01*
X10169944Y-15492888D02*
X10160420Y-15454793D01*
X10160420Y-15454793D02*
X10160420Y-15407174D01*
X10160420Y-15407174D02*
X10169944Y-15369079D01*
X10169944Y-15369079D02*
X10179467Y-15350031D01*
X10179467Y-15350031D02*
X10188991Y-15340508D01*
X10188991Y-15340508D02*
X10208039Y-15330984D01*
X10360420Y-15530984D02*
X10360420Y-15397650D01*
X10360420Y-15416698D02*
X10369944Y-15407174D01*
X10369944Y-15407174D02*
X10388991Y-15397650D01*
X10388991Y-15397650D02*
X10417563Y-15397650D01*
X10417563Y-15397650D02*
X10436610Y-15407174D01*
X10436610Y-15407174D02*
X10446134Y-15426222D01*
X10446134Y-15426222D02*
X10446134Y-15530984D01*
X10446134Y-15426222D02*
X10455658Y-15407174D01*
X10455658Y-15407174D02*
X10474705Y-15397650D01*
X10474705Y-15397650D02*
X10503277Y-15397650D01*
X10503277Y-15397650D02*
X10522325Y-15407174D01*
X10522325Y-15407174D02*
X10531848Y-15426222D01*
X10531848Y-15426222D02*
X10531848Y-15530984D01*
X10627086Y-15530984D02*
X10627086Y-15397650D01*
X10627086Y-15416698D02*
X10636610Y-15407174D01*
X10636610Y-15407174D02*
X10655658Y-15397650D01*
X10655658Y-15397650D02*
X10684229Y-15397650D01*
X10684229Y-15397650D02*
X10703277Y-15407174D01*
X10703277Y-15407174D02*
X10712801Y-15426222D01*
X10712801Y-15426222D02*
X10712801Y-15530984D01*
X10712801Y-15426222D02*
X10722325Y-15407174D01*
X10722325Y-15407174D02*
X10741372Y-15397650D01*
X10741372Y-15397650D02*
X10769944Y-15397650D01*
X10769944Y-15397650D02*
X10788991Y-15407174D01*
X10788991Y-15407174D02*
X10798515Y-15426222D01*
X10798515Y-15426222D02*
X10798515Y-15530984D01*
X11188991Y-15321460D02*
X11017563Y-15578603D01*
X11446134Y-15330984D02*
X11465182Y-15330984D01*
X11465182Y-15330984D02*
X11484229Y-15340508D01*
X11484229Y-15340508D02*
X11493753Y-15350031D01*
X11493753Y-15350031D02*
X11503277Y-15369079D01*
X11503277Y-15369079D02*
X11512801Y-15407174D01*
X11512801Y-15407174D02*
X11512801Y-15454793D01*
X11512801Y-15454793D02*
X11503277Y-15492888D01*
X11503277Y-15492888D02*
X11493753Y-15511936D01*
X11493753Y-15511936D02*
X11484229Y-15521460D01*
X11484229Y-15521460D02*
X11465182Y-15530984D01*
X11465182Y-15530984D02*
X11446134Y-15530984D01*
X11446134Y-15530984D02*
X11427086Y-15521460D01*
X11427086Y-15521460D02*
X11417563Y-15511936D01*
X11417563Y-15511936D02*
X11408039Y-15492888D01*
X11408039Y-15492888D02*
X11398515Y-15454793D01*
X11398515Y-15454793D02*
X11398515Y-15407174D01*
X11398515Y-15407174D02*
X11408039Y-15369079D01*
X11408039Y-15369079D02*
X11417563Y-15350031D01*
X11417563Y-15350031D02*
X11427086Y-15340508D01*
X11427086Y-15340508D02*
X11446134Y-15330984D01*
X11598515Y-15511936D02*
X11608039Y-15521460D01*
X11608039Y-15521460D02*
X11598515Y-15530984D01*
X11598515Y-15530984D02*
X11588991Y-15521460D01*
X11588991Y-15521460D02*
X11598515Y-15511936D01*
X11598515Y-15511936D02*
X11598515Y-15530984D01*
X11731848Y-15330984D02*
X11750896Y-15330984D01*
X11750896Y-15330984D02*
X11769944Y-15340508D01*
X11769944Y-15340508D02*
X11779467Y-15350031D01*
X11779467Y-15350031D02*
X11788991Y-15369079D01*
X11788991Y-15369079D02*
X11798515Y-15407174D01*
X11798515Y-15407174D02*
X11798515Y-15454793D01*
X11798515Y-15454793D02*
X11788991Y-15492888D01*
X11788991Y-15492888D02*
X11779467Y-15511936D01*
X11779467Y-15511936D02*
X11769944Y-15521460D01*
X11769944Y-15521460D02*
X11750896Y-15530984D01*
X11750896Y-15530984D02*
X11731848Y-15530984D01*
X11731848Y-15530984D02*
X11712801Y-15521460D01*
X11712801Y-15521460D02*
X11703277Y-15511936D01*
X11703277Y-15511936D02*
X11693753Y-15492888D01*
X11693753Y-15492888D02*
X11684229Y-15454793D01*
X11684229Y-15454793D02*
X11684229Y-15407174D01*
X11684229Y-15407174D02*
X11693753Y-15369079D01*
X11693753Y-15369079D02*
X11703277Y-15350031D01*
X11703277Y-15350031D02*
X11712801Y-15340508D01*
X11712801Y-15340508D02*
X11731848Y-15330984D01*
X11865182Y-15330984D02*
X11988991Y-15330984D01*
X11988991Y-15330984D02*
X11922325Y-15407174D01*
X11922325Y-15407174D02*
X11950896Y-15407174D01*
X11950896Y-15407174D02*
X11969944Y-15416698D01*
X11969944Y-15416698D02*
X11979467Y-15426222D01*
X11979467Y-15426222D02*
X11988991Y-15445269D01*
X11988991Y-15445269D02*
X11988991Y-15492888D01*
X11988991Y-15492888D02*
X11979467Y-15511936D01*
X11979467Y-15511936D02*
X11969944Y-15521460D01*
X11969944Y-15521460D02*
X11950896Y-15530984D01*
X11950896Y-15530984D02*
X11893753Y-15530984D01*
X11893753Y-15530984D02*
X11874706Y-15521460D01*
X11874706Y-15521460D02*
X11865182Y-15511936D01*
X12169944Y-15330984D02*
X12074706Y-15330984D01*
X12074706Y-15330984D02*
X12065182Y-15426222D01*
X12065182Y-15426222D02*
X12074706Y-15416698D01*
X12074706Y-15416698D02*
X12093753Y-15407174D01*
X12093753Y-15407174D02*
X12141372Y-15407174D01*
X12141372Y-15407174D02*
X12160420Y-15416698D01*
X12160420Y-15416698D02*
X12169944Y-15426222D01*
X12169944Y-15426222D02*
X12179467Y-15445269D01*
X12179467Y-15445269D02*
X12179467Y-15492888D01*
X12179467Y-15492888D02*
X12169944Y-15511936D01*
X12169944Y-15511936D02*
X12160420Y-15521460D01*
X12160420Y-15521460D02*
X12141372Y-15530984D01*
X12141372Y-15530984D02*
X12093753Y-15530984D01*
X12093753Y-15530984D02*
X12074706Y-15521460D01*
X12074706Y-15521460D02*
X12065182Y-15511936D01*
X12350896Y-15397650D02*
X12350896Y-15530984D01*
X12303277Y-15321460D02*
X12255658Y-15464317D01*
X12255658Y-15464317D02*
X12379467Y-15464317D01*
X12446134Y-15330984D02*
X12446134Y-15369079D01*
X12522325Y-15330984D02*
X12522325Y-15369079D01*
X12817563Y-15607174D02*
X12808039Y-15597650D01*
X12808039Y-15597650D02*
X12788991Y-15569079D01*
X12788991Y-15569079D02*
X12779468Y-15550031D01*
X12779468Y-15550031D02*
X12769944Y-15521460D01*
X12769944Y-15521460D02*
X12760420Y-15473841D01*
X12760420Y-15473841D02*
X12760420Y-15435746D01*
X12760420Y-15435746D02*
X12769944Y-15388127D01*
X12769944Y-15388127D02*
X12779468Y-15359555D01*
X12779468Y-15359555D02*
X12788991Y-15340508D01*
X12788991Y-15340508D02*
X12808039Y-15311936D01*
X12808039Y-15311936D02*
X12817563Y-15302412D01*
X12979468Y-15330984D02*
X12941372Y-15330984D01*
X12941372Y-15330984D02*
X12922325Y-15340508D01*
X12922325Y-15340508D02*
X12912801Y-15350031D01*
X12912801Y-15350031D02*
X12893753Y-15378603D01*
X12893753Y-15378603D02*
X12884229Y-15416698D01*
X12884229Y-15416698D02*
X12884229Y-15492888D01*
X12884229Y-15492888D02*
X12893753Y-15511936D01*
X12893753Y-15511936D02*
X12903277Y-15521460D01*
X12903277Y-15521460D02*
X12922325Y-15530984D01*
X12922325Y-15530984D02*
X12960420Y-15530984D01*
X12960420Y-15530984D02*
X12979468Y-15521460D01*
X12979468Y-15521460D02*
X12988991Y-15511936D01*
X12988991Y-15511936D02*
X12998515Y-15492888D01*
X12998515Y-15492888D02*
X12998515Y-15445269D01*
X12998515Y-15445269D02*
X12988991Y-15426222D01*
X12988991Y-15426222D02*
X12979468Y-15416698D01*
X12979468Y-15416698D02*
X12960420Y-15407174D01*
X12960420Y-15407174D02*
X12922325Y-15407174D01*
X12922325Y-15407174D02*
X12903277Y-15416698D01*
X12903277Y-15416698D02*
X12893753Y-15426222D01*
X12893753Y-15426222D02*
X12884229Y-15445269D01*
X13236610Y-15530984D02*
X13236610Y-15330984D01*
X13322325Y-15530984D02*
X13322325Y-15426222D01*
X13322325Y-15426222D02*
X13312801Y-15407174D01*
X13312801Y-15407174D02*
X13293753Y-15397650D01*
X13293753Y-15397650D02*
X13265182Y-15397650D01*
X13265182Y-15397650D02*
X13246134Y-15407174D01*
X13246134Y-15407174D02*
X13236610Y-15416698D01*
X13446134Y-15530984D02*
X13427087Y-15521460D01*
X13427087Y-15521460D02*
X13417563Y-15511936D01*
X13417563Y-15511936D02*
X13408039Y-15492888D01*
X13408039Y-15492888D02*
X13408039Y-15435746D01*
X13408039Y-15435746D02*
X13417563Y-15416698D01*
X13417563Y-15416698D02*
X13427087Y-15407174D01*
X13427087Y-15407174D02*
X13446134Y-15397650D01*
X13446134Y-15397650D02*
X13474706Y-15397650D01*
X13474706Y-15397650D02*
X13493753Y-15407174D01*
X13493753Y-15407174D02*
X13503277Y-15416698D01*
X13503277Y-15416698D02*
X13512801Y-15435746D01*
X13512801Y-15435746D02*
X13512801Y-15492888D01*
X13512801Y-15492888D02*
X13503277Y-15511936D01*
X13503277Y-15511936D02*
X13493753Y-15521460D01*
X13493753Y-15521460D02*
X13474706Y-15530984D01*
X13474706Y-15530984D02*
X13446134Y-15530984D01*
X13627087Y-15530984D02*
X13608039Y-15521460D01*
X13608039Y-15521460D02*
X13598515Y-15502412D01*
X13598515Y-15502412D02*
X13598515Y-15330984D01*
X13779468Y-15521460D02*
X13760420Y-15530984D01*
X13760420Y-15530984D02*
X13722325Y-15530984D01*
X13722325Y-15530984D02*
X13703277Y-15521460D01*
X13703277Y-15521460D02*
X13693753Y-15502412D01*
X13693753Y-15502412D02*
X13693753Y-15426222D01*
X13693753Y-15426222D02*
X13703277Y-15407174D01*
X13703277Y-15407174D02*
X13722325Y-15397650D01*
X13722325Y-15397650D02*
X13760420Y-15397650D01*
X13760420Y-15397650D02*
X13779468Y-15407174D01*
X13779468Y-15407174D02*
X13788991Y-15426222D01*
X13788991Y-15426222D02*
X13788991Y-15445269D01*
X13788991Y-15445269D02*
X13693753Y-15464317D01*
X13865182Y-15521460D02*
X13884230Y-15530984D01*
X13884230Y-15530984D02*
X13922325Y-15530984D01*
X13922325Y-15530984D02*
X13941372Y-15521460D01*
X13941372Y-15521460D02*
X13950896Y-15502412D01*
X13950896Y-15502412D02*
X13950896Y-15492888D01*
X13950896Y-15492888D02*
X13941372Y-15473841D01*
X13941372Y-15473841D02*
X13922325Y-15464317D01*
X13922325Y-15464317D02*
X13893753Y-15464317D01*
X13893753Y-15464317D02*
X13874706Y-15454793D01*
X13874706Y-15454793D02*
X13865182Y-15435746D01*
X13865182Y-15435746D02*
X13865182Y-15426222D01*
X13865182Y-15426222D02*
X13874706Y-15407174D01*
X13874706Y-15407174D02*
X13893753Y-15397650D01*
X13893753Y-15397650D02*
X13922325Y-15397650D01*
X13922325Y-15397650D02*
X13941372Y-15407174D01*
X14017563Y-15607174D02*
X14027087Y-15597650D01*
X14027087Y-15597650D02*
X14046134Y-15569079D01*
X14046134Y-15569079D02*
X14055658Y-15550031D01*
X14055658Y-15550031D02*
X14065182Y-15521460D01*
X14065182Y-15521460D02*
X14074706Y-15473841D01*
X14074706Y-15473841D02*
X14074706Y-15435746D01*
X14074706Y-15435746D02*
X14065182Y-15388127D01*
X14065182Y-15388127D02*
X14055658Y-15359555D01*
X14055658Y-15359555D02*
X14046134Y-15340508D01*
X14046134Y-15340508D02*
X14027087Y-15311936D01*
X14027087Y-15311936D02*
X14017563Y-15302412D01*
D12*
X9192500Y-15753500D02*
X9242500Y-15703500D01*
X9192500Y-15653500D01*
X9142500Y-15703500D01*
X9192500Y-15753500D01*
D11*
X9608039Y-15794984D02*
X9493753Y-15794984D01*
X9550896Y-15794984D02*
X9550896Y-15594984D01*
X9550896Y-15594984D02*
X9531848Y-15623555D01*
X9531848Y-15623555D02*
X9512801Y-15642603D01*
X9512801Y-15642603D02*
X9493753Y-15652127D01*
X9693753Y-15775936D02*
X9703277Y-15785460D01*
X9703277Y-15785460D02*
X9693753Y-15794984D01*
X9693753Y-15794984D02*
X9684229Y-15785460D01*
X9684229Y-15785460D02*
X9693753Y-15775936D01*
X9693753Y-15775936D02*
X9693753Y-15794984D01*
X9827086Y-15594984D02*
X9846134Y-15594984D01*
X9846134Y-15594984D02*
X9865182Y-15604508D01*
X9865182Y-15604508D02*
X9874705Y-15614031D01*
X9874705Y-15614031D02*
X9884229Y-15633079D01*
X9884229Y-15633079D02*
X9893753Y-15671174D01*
X9893753Y-15671174D02*
X9893753Y-15718793D01*
X9893753Y-15718793D02*
X9884229Y-15756888D01*
X9884229Y-15756888D02*
X9874705Y-15775936D01*
X9874705Y-15775936D02*
X9865182Y-15785460D01*
X9865182Y-15785460D02*
X9846134Y-15794984D01*
X9846134Y-15794984D02*
X9827086Y-15794984D01*
X9827086Y-15794984D02*
X9808039Y-15785460D01*
X9808039Y-15785460D02*
X9798515Y-15775936D01*
X9798515Y-15775936D02*
X9788991Y-15756888D01*
X9788991Y-15756888D02*
X9779467Y-15718793D01*
X9779467Y-15718793D02*
X9779467Y-15671174D01*
X9779467Y-15671174D02*
X9788991Y-15633079D01*
X9788991Y-15633079D02*
X9798515Y-15614031D01*
X9798515Y-15614031D02*
X9808039Y-15604508D01*
X9808039Y-15604508D02*
X9827086Y-15594984D01*
X10017563Y-15594984D02*
X10036610Y-15594984D01*
X10036610Y-15594984D02*
X10055658Y-15604508D01*
X10055658Y-15604508D02*
X10065182Y-15614031D01*
X10065182Y-15614031D02*
X10074705Y-15633079D01*
X10074705Y-15633079D02*
X10084229Y-15671174D01*
X10084229Y-15671174D02*
X10084229Y-15718793D01*
X10084229Y-15718793D02*
X10074705Y-15756888D01*
X10074705Y-15756888D02*
X10065182Y-15775936D01*
X10065182Y-15775936D02*
X10055658Y-15785460D01*
X10055658Y-15785460D02*
X10036610Y-15794984D01*
X10036610Y-15794984D02*
X10017563Y-15794984D01*
X10017563Y-15794984D02*
X9998515Y-15785460D01*
X9998515Y-15785460D02*
X9988991Y-15775936D01*
X9988991Y-15775936D02*
X9979467Y-15756888D01*
X9979467Y-15756888D02*
X9969944Y-15718793D01*
X9969944Y-15718793D02*
X9969944Y-15671174D01*
X9969944Y-15671174D02*
X9979467Y-15633079D01*
X9979467Y-15633079D02*
X9988991Y-15614031D01*
X9988991Y-15614031D02*
X9998515Y-15604508D01*
X9998515Y-15604508D02*
X10017563Y-15594984D01*
X10208039Y-15594984D02*
X10227086Y-15594984D01*
X10227086Y-15594984D02*
X10246134Y-15604508D01*
X10246134Y-15604508D02*
X10255658Y-15614031D01*
X10255658Y-15614031D02*
X10265182Y-15633079D01*
X10265182Y-15633079D02*
X10274705Y-15671174D01*
X10274705Y-15671174D02*
X10274705Y-15718793D01*
X10274705Y-15718793D02*
X10265182Y-15756888D01*
X10265182Y-15756888D02*
X10255658Y-15775936D01*
X10255658Y-15775936D02*
X10246134Y-15785460D01*
X10246134Y-15785460D02*
X10227086Y-15794984D01*
X10227086Y-15794984D02*
X10208039Y-15794984D01*
X10208039Y-15794984D02*
X10188991Y-15785460D01*
X10188991Y-15785460D02*
X10179467Y-15775936D01*
X10179467Y-15775936D02*
X10169944Y-15756888D01*
X10169944Y-15756888D02*
X10160420Y-15718793D01*
X10160420Y-15718793D02*
X10160420Y-15671174D01*
X10160420Y-15671174D02*
X10169944Y-15633079D01*
X10169944Y-15633079D02*
X10179467Y-15614031D01*
X10179467Y-15614031D02*
X10188991Y-15604508D01*
X10188991Y-15604508D02*
X10208039Y-15594984D01*
X10360420Y-15794984D02*
X10360420Y-15661650D01*
X10360420Y-15680698D02*
X10369944Y-15671174D01*
X10369944Y-15671174D02*
X10388991Y-15661650D01*
X10388991Y-15661650D02*
X10417563Y-15661650D01*
X10417563Y-15661650D02*
X10436610Y-15671174D01*
X10436610Y-15671174D02*
X10446134Y-15690222D01*
X10446134Y-15690222D02*
X10446134Y-15794984D01*
X10446134Y-15690222D02*
X10455658Y-15671174D01*
X10455658Y-15671174D02*
X10474705Y-15661650D01*
X10474705Y-15661650D02*
X10503277Y-15661650D01*
X10503277Y-15661650D02*
X10522325Y-15671174D01*
X10522325Y-15671174D02*
X10531848Y-15690222D01*
X10531848Y-15690222D02*
X10531848Y-15794984D01*
X10627086Y-15794984D02*
X10627086Y-15661650D01*
X10627086Y-15680698D02*
X10636610Y-15671174D01*
X10636610Y-15671174D02*
X10655658Y-15661650D01*
X10655658Y-15661650D02*
X10684229Y-15661650D01*
X10684229Y-15661650D02*
X10703277Y-15671174D01*
X10703277Y-15671174D02*
X10712801Y-15690222D01*
X10712801Y-15690222D02*
X10712801Y-15794984D01*
X10712801Y-15690222D02*
X10722325Y-15671174D01*
X10722325Y-15671174D02*
X10741372Y-15661650D01*
X10741372Y-15661650D02*
X10769944Y-15661650D01*
X10769944Y-15661650D02*
X10788991Y-15671174D01*
X10788991Y-15671174D02*
X10798515Y-15690222D01*
X10798515Y-15690222D02*
X10798515Y-15794984D01*
X11188991Y-15585460D02*
X11017563Y-15842603D01*
X11446134Y-15594984D02*
X11465182Y-15594984D01*
X11465182Y-15594984D02*
X11484229Y-15604508D01*
X11484229Y-15604508D02*
X11493753Y-15614031D01*
X11493753Y-15614031D02*
X11503277Y-15633079D01*
X11503277Y-15633079D02*
X11512801Y-15671174D01*
X11512801Y-15671174D02*
X11512801Y-15718793D01*
X11512801Y-15718793D02*
X11503277Y-15756888D01*
X11503277Y-15756888D02*
X11493753Y-15775936D01*
X11493753Y-15775936D02*
X11484229Y-15785460D01*
X11484229Y-15785460D02*
X11465182Y-15794984D01*
X11465182Y-15794984D02*
X11446134Y-15794984D01*
X11446134Y-15794984D02*
X11427086Y-15785460D01*
X11427086Y-15785460D02*
X11417563Y-15775936D01*
X11417563Y-15775936D02*
X11408039Y-15756888D01*
X11408039Y-15756888D02*
X11398515Y-15718793D01*
X11398515Y-15718793D02*
X11398515Y-15671174D01*
X11398515Y-15671174D02*
X11408039Y-15633079D01*
X11408039Y-15633079D02*
X11417563Y-15614031D01*
X11417563Y-15614031D02*
X11427086Y-15604508D01*
X11427086Y-15604508D02*
X11446134Y-15594984D01*
X11598515Y-15775936D02*
X11608039Y-15785460D01*
X11608039Y-15785460D02*
X11598515Y-15794984D01*
X11598515Y-15794984D02*
X11588991Y-15785460D01*
X11588991Y-15785460D02*
X11598515Y-15775936D01*
X11598515Y-15775936D02*
X11598515Y-15794984D01*
X11731848Y-15594984D02*
X11750896Y-15594984D01*
X11750896Y-15594984D02*
X11769944Y-15604508D01*
X11769944Y-15604508D02*
X11779467Y-15614031D01*
X11779467Y-15614031D02*
X11788991Y-15633079D01*
X11788991Y-15633079D02*
X11798515Y-15671174D01*
X11798515Y-15671174D02*
X11798515Y-15718793D01*
X11798515Y-15718793D02*
X11788991Y-15756888D01*
X11788991Y-15756888D02*
X11779467Y-15775936D01*
X11779467Y-15775936D02*
X11769944Y-15785460D01*
X11769944Y-15785460D02*
X11750896Y-15794984D01*
X11750896Y-15794984D02*
X11731848Y-15794984D01*
X11731848Y-15794984D02*
X11712801Y-15785460D01*
X11712801Y-15785460D02*
X11703277Y-15775936D01*
X11703277Y-15775936D02*
X11693753Y-15756888D01*
X11693753Y-15756888D02*
X11684229Y-15718793D01*
X11684229Y-15718793D02*
X11684229Y-15671174D01*
X11684229Y-15671174D02*
X11693753Y-15633079D01*
X11693753Y-15633079D02*
X11703277Y-15614031D01*
X11703277Y-15614031D02*
X11712801Y-15604508D01*
X11712801Y-15604508D02*
X11731848Y-15594984D01*
X11865182Y-15594984D02*
X11988991Y-15594984D01*
X11988991Y-15594984D02*
X11922325Y-15671174D01*
X11922325Y-15671174D02*
X11950896Y-15671174D01*
X11950896Y-15671174D02*
X11969944Y-15680698D01*
X11969944Y-15680698D02*
X11979467Y-15690222D01*
X11979467Y-15690222D02*
X11988991Y-15709269D01*
X11988991Y-15709269D02*
X11988991Y-15756888D01*
X11988991Y-15756888D02*
X11979467Y-15775936D01*
X11979467Y-15775936D02*
X11969944Y-15785460D01*
X11969944Y-15785460D02*
X11950896Y-15794984D01*
X11950896Y-15794984D02*
X11893753Y-15794984D01*
X11893753Y-15794984D02*
X11874706Y-15785460D01*
X11874706Y-15785460D02*
X11865182Y-15775936D01*
X12084229Y-15794984D02*
X12122325Y-15794984D01*
X12122325Y-15794984D02*
X12141372Y-15785460D01*
X12141372Y-15785460D02*
X12150896Y-15775936D01*
X12150896Y-15775936D02*
X12169944Y-15747365D01*
X12169944Y-15747365D02*
X12179467Y-15709269D01*
X12179467Y-15709269D02*
X12179467Y-15633079D01*
X12179467Y-15633079D02*
X12169944Y-15614031D01*
X12169944Y-15614031D02*
X12160420Y-15604508D01*
X12160420Y-15604508D02*
X12141372Y-15594984D01*
X12141372Y-15594984D02*
X12103277Y-15594984D01*
X12103277Y-15594984D02*
X12084229Y-15604508D01*
X12084229Y-15604508D02*
X12074706Y-15614031D01*
X12074706Y-15614031D02*
X12065182Y-15633079D01*
X12065182Y-15633079D02*
X12065182Y-15680698D01*
X12065182Y-15680698D02*
X12074706Y-15699746D01*
X12074706Y-15699746D02*
X12084229Y-15709269D01*
X12084229Y-15709269D02*
X12103277Y-15718793D01*
X12103277Y-15718793D02*
X12141372Y-15718793D01*
X12141372Y-15718793D02*
X12160420Y-15709269D01*
X12160420Y-15709269D02*
X12169944Y-15699746D01*
X12169944Y-15699746D02*
X12179467Y-15680698D01*
X12350896Y-15661650D02*
X12350896Y-15794984D01*
X12303277Y-15585460D02*
X12255658Y-15728317D01*
X12255658Y-15728317D02*
X12379467Y-15728317D01*
X12446134Y-15594984D02*
X12446134Y-15633079D01*
X12522325Y-15594984D02*
X12522325Y-15633079D01*
X12817563Y-15871174D02*
X12808039Y-15861650D01*
X12808039Y-15861650D02*
X12788991Y-15833079D01*
X12788991Y-15833079D02*
X12779468Y-15814031D01*
X12779468Y-15814031D02*
X12769944Y-15785460D01*
X12769944Y-15785460D02*
X12760420Y-15737841D01*
X12760420Y-15737841D02*
X12760420Y-15699746D01*
X12760420Y-15699746D02*
X12769944Y-15652127D01*
X12769944Y-15652127D02*
X12779468Y-15623555D01*
X12779468Y-15623555D02*
X12788991Y-15604508D01*
X12788991Y-15604508D02*
X12808039Y-15575936D01*
X12808039Y-15575936D02*
X12817563Y-15566412D01*
X12998515Y-15794984D02*
X12884229Y-15794984D01*
X12941372Y-15794984D02*
X12941372Y-15594984D01*
X12941372Y-15594984D02*
X12922325Y-15623555D01*
X12922325Y-15623555D02*
X12903277Y-15642603D01*
X12903277Y-15642603D02*
X12884229Y-15652127D01*
X13093753Y-15794984D02*
X13131848Y-15794984D01*
X13131848Y-15794984D02*
X13150896Y-15785460D01*
X13150896Y-15785460D02*
X13160420Y-15775936D01*
X13160420Y-15775936D02*
X13179468Y-15747365D01*
X13179468Y-15747365D02*
X13188991Y-15709269D01*
X13188991Y-15709269D02*
X13188991Y-15633079D01*
X13188991Y-15633079D02*
X13179468Y-15614031D01*
X13179468Y-15614031D02*
X13169944Y-15604508D01*
X13169944Y-15604508D02*
X13150896Y-15594984D01*
X13150896Y-15594984D02*
X13112801Y-15594984D01*
X13112801Y-15594984D02*
X13093753Y-15604508D01*
X13093753Y-15604508D02*
X13084229Y-15614031D01*
X13084229Y-15614031D02*
X13074706Y-15633079D01*
X13074706Y-15633079D02*
X13074706Y-15680698D01*
X13074706Y-15680698D02*
X13084229Y-15699746D01*
X13084229Y-15699746D02*
X13093753Y-15709269D01*
X13093753Y-15709269D02*
X13112801Y-15718793D01*
X13112801Y-15718793D02*
X13150896Y-15718793D01*
X13150896Y-15718793D02*
X13169944Y-15709269D01*
X13169944Y-15709269D02*
X13179468Y-15699746D01*
X13179468Y-15699746D02*
X13188991Y-15680698D01*
X13427087Y-15794984D02*
X13427087Y-15594984D01*
X13512801Y-15794984D02*
X13512801Y-15690222D01*
X13512801Y-15690222D02*
X13503277Y-15671174D01*
X13503277Y-15671174D02*
X13484230Y-15661650D01*
X13484230Y-15661650D02*
X13455658Y-15661650D01*
X13455658Y-15661650D02*
X13436610Y-15671174D01*
X13436610Y-15671174D02*
X13427087Y-15680698D01*
X13636610Y-15794984D02*
X13617563Y-15785460D01*
X13617563Y-15785460D02*
X13608039Y-15775936D01*
X13608039Y-15775936D02*
X13598515Y-15756888D01*
X13598515Y-15756888D02*
X13598515Y-15699746D01*
X13598515Y-15699746D02*
X13608039Y-15680698D01*
X13608039Y-15680698D02*
X13617563Y-15671174D01*
X13617563Y-15671174D02*
X13636610Y-15661650D01*
X13636610Y-15661650D02*
X13665182Y-15661650D01*
X13665182Y-15661650D02*
X13684230Y-15671174D01*
X13684230Y-15671174D02*
X13693753Y-15680698D01*
X13693753Y-15680698D02*
X13703277Y-15699746D01*
X13703277Y-15699746D02*
X13703277Y-15756888D01*
X13703277Y-15756888D02*
X13693753Y-15775936D01*
X13693753Y-15775936D02*
X13684230Y-15785460D01*
X13684230Y-15785460D02*
X13665182Y-15794984D01*
X13665182Y-15794984D02*
X13636610Y-15794984D01*
X13817563Y-15794984D02*
X13798515Y-15785460D01*
X13798515Y-15785460D02*
X13788991Y-15766412D01*
X13788991Y-15766412D02*
X13788991Y-15594984D01*
X13969944Y-15785460D02*
X13950896Y-15794984D01*
X13950896Y-15794984D02*
X13912801Y-15794984D01*
X13912801Y-15794984D02*
X13893753Y-15785460D01*
X13893753Y-15785460D02*
X13884230Y-15766412D01*
X13884230Y-15766412D02*
X13884230Y-15690222D01*
X13884230Y-15690222D02*
X13893753Y-15671174D01*
X13893753Y-15671174D02*
X13912801Y-15661650D01*
X13912801Y-15661650D02*
X13950896Y-15661650D01*
X13950896Y-15661650D02*
X13969944Y-15671174D01*
X13969944Y-15671174D02*
X13979468Y-15690222D01*
X13979468Y-15690222D02*
X13979468Y-15709269D01*
X13979468Y-15709269D02*
X13884230Y-15728317D01*
X14055658Y-15785460D02*
X14074706Y-15794984D01*
X14074706Y-15794984D02*
X14112801Y-15794984D01*
X14112801Y-15794984D02*
X14131849Y-15785460D01*
X14131849Y-15785460D02*
X14141372Y-15766412D01*
X14141372Y-15766412D02*
X14141372Y-15756888D01*
X14141372Y-15756888D02*
X14131849Y-15737841D01*
X14131849Y-15737841D02*
X14112801Y-15728317D01*
X14112801Y-15728317D02*
X14084230Y-15728317D01*
X14084230Y-15728317D02*
X14065182Y-15718793D01*
X14065182Y-15718793D02*
X14055658Y-15699746D01*
X14055658Y-15699746D02*
X14055658Y-15690222D01*
X14055658Y-15690222D02*
X14065182Y-15671174D01*
X14065182Y-15671174D02*
X14084230Y-15661650D01*
X14084230Y-15661650D02*
X14112801Y-15661650D01*
X14112801Y-15661650D02*
X14131849Y-15671174D01*
X14208039Y-15871174D02*
X14217563Y-15861650D01*
X14217563Y-15861650D02*
X14236611Y-15833079D01*
X14236611Y-15833079D02*
X14246134Y-15814031D01*
X14246134Y-15814031D02*
X14255658Y-15785460D01*
X14255658Y-15785460D02*
X14265182Y-15737841D01*
X14265182Y-15737841D02*
X14265182Y-15699746D01*
X14265182Y-15699746D02*
X14255658Y-15652127D01*
X14255658Y-15652127D02*
X14246134Y-15623555D01*
X14246134Y-15623555D02*
X14236611Y-15604508D01*
X14236611Y-15604508D02*
X14217563Y-15575936D01*
X14217563Y-15575936D02*
X14208039Y-15566412D01*
M02*
