G04 #@! TF.GenerationSoftware,KiCad,Pcbnew,8.0.3*
G04 #@! TF.CreationDate,2024-08-18T22:06:24+09:00*
G04 #@! TF.ProjectId,AutoFeeder_Drum-type,4175746f-4665-4656-9465-725f4472756d,02*
G04 #@! TF.SameCoordinates,Original*
G04 #@! TF.FileFunction,Soldermask,Top*
G04 #@! TF.FilePolarity,Negative*
%FSLAX46Y46*%
G04 Gerber Fmt 4.6, Leading zero omitted, Abs format (unit mm)*
G04 Created by KiCad (PCBNEW 8.0.3) date 2024-08-18 22:06:24*
%MOMM*%
%LPD*%
G01*
G04 APERTURE LIST*
G04 Aperture macros list*
%AMRoundRect*
0 Rectangle with rounded corners*
0 $1 Rounding radius*
0 $2 $3 $4 $5 $6 $7 $8 $9 X,Y pos of 4 corners*
0 Add a 4 corners polygon primitive as box body*
4,1,4,$2,$3,$4,$5,$6,$7,$8,$9,$2,$3,0*
0 Add four circle primitives for the rounded corners*
1,1,$1+$1,$2,$3*
1,1,$1+$1,$4,$5*
1,1,$1+$1,$6,$7*
1,1,$1+$1,$8,$9*
0 Add four rect primitives between the rounded corners*
20,1,$1+$1,$2,$3,$4,$5,0*
20,1,$1+$1,$4,$5,$6,$7,0*
20,1,$1+$1,$6,$7,$8,$9,0*
20,1,$1+$1,$8,$9,$2,$3,0*%
%AMFreePoly0*
4,1,21,3.889370,0.893370,3.900500,0.866500,3.900500,-0.866500,3.889370,-0.893370,3.862500,-0.904500,0.737500,-0.904500,0.710630,-0.893370,0.699500,-0.866500,0.699500,-0.488000,-0.737500,-0.488000,-0.764370,-0.476870,-0.775500,-0.450000,-0.775500,0.450000,-0.764370,0.476870,-0.737500,0.488000,0.699500,0.488000,0.699500,0.866500,0.710630,0.893370,0.737500,0.904500,3.862500,0.904500,
3.889370,0.893370,3.889370,0.893370,$1*%
%AMFreePoly1*
4,1,35,0.526870,0.776870,0.538000,0.750000,0.538000,-0.750000,0.526870,-0.776870,0.500000,-0.788000,0.000000,-0.788000,-0.012286,-0.782911,-0.071157,-0.782911,-0.081863,-0.781372,-0.218414,-0.741277,-0.228252,-0.736784,-0.347974,-0.659843,-0.356148,-0.652760,-0.449345,-0.545205,-0.455193,-0.536106,-0.514312,-0.406652,-0.517359,-0.396274,-0.537613,-0.255408,-0.538000,-0.250000,-0.538000,0.250000,
-0.537613,0.255408,-0.517359,0.396274,-0.514312,0.406652,-0.455193,0.536106,-0.449345,0.545205,-0.356148,0.652760,-0.347974,0.659843,-0.228252,0.736784,-0.218414,0.741277,-0.081863,0.781372,-0.071157,0.782911,-0.012286,0.782911,0.000000,0.788000,0.500000,0.788000,0.526870,0.776870,0.526870,0.776870,$1*%
%AMFreePoly2*
4,1,35,0.012286,0.782911,0.071157,0.782911,0.081863,0.781372,0.218414,0.741277,0.228252,0.736784,0.347974,0.659843,0.356148,0.652760,0.449345,0.545205,0.455193,0.536106,0.514312,0.406652,0.517359,0.396274,0.537613,0.255408,0.538000,0.250000,0.538000,-0.250000,0.537613,-0.255408,0.517359,-0.396274,0.514312,-0.406652,0.455193,-0.536106,0.449345,-0.545205,0.356148,-0.652760,
0.347974,-0.659843,0.228252,-0.736784,0.218414,-0.741277,0.081863,-0.781372,0.071157,-0.782911,0.012286,-0.782911,0.000000,-0.788000,-0.500000,-0.788000,-0.526870,-0.776870,-0.538000,-0.750000,-0.538000,0.750000,-0.526870,0.776870,-0.500000,0.788000,0.000000,0.788000,0.012286,0.782911,0.012286,0.782911,$1*%
G04 Aperture macros list end*
%ADD10RoundRect,0.219000X-0.294000X0.219000X-0.294000X-0.219000X0.294000X-0.219000X0.294000X0.219000X0*%
%ADD11RoundRect,0.038000X0.850000X-0.850000X0.850000X0.850000X-0.850000X0.850000X-0.850000X-0.850000X0*%
%ADD12O,1.776000X1.776000*%
%ADD13C,3.000000*%
%ADD14RoundRect,0.244000X0.244000X0.269000X-0.244000X0.269000X-0.244000X-0.269000X0.244000X-0.269000X0*%
%ADD15RoundRect,0.269000X-0.494000X0.269000X-0.494000X-0.269000X0.494000X-0.269000X0.494000X0.269000X0*%
%ADD16RoundRect,0.269000X0.269000X0.494000X-0.269000X0.494000X-0.269000X-0.494000X0.269000X-0.494000X0*%
%ADD17C,2.776000*%
%ADD18RoundRect,0.219000X0.294000X-0.219000X0.294000X0.219000X-0.294000X0.219000X-0.294000X-0.219000X0*%
%ADD19RoundRect,0.038000X-0.450000X0.650000X-0.450000X-0.650000X0.450000X-0.650000X0.450000X0.650000X0*%
%ADD20FreePoly0,270.000000*%
%ADD21RoundRect,0.237750X0.275250X-0.237750X0.275250X0.237750X-0.275250X0.237750X-0.275250X-0.237750X0*%
%ADD22FreePoly1,180.000000*%
%ADD23FreePoly2,180.000000*%
%ADD24RoundRect,0.169000X-0.169000X0.844000X-0.169000X-0.844000X0.169000X-0.844000X0.169000X0.844000X0*%
%ADD25C,4.076000*%
%ADD26C,1.176000*%
%ADD27RoundRect,0.038000X0.900000X0.950000X-0.900000X0.950000X-0.900000X-0.950000X0.900000X-0.950000X0*%
%ADD28RoundRect,0.038000X0.850000X0.900000X-0.850000X0.900000X-0.850000X-0.900000X0.850000X-0.900000X0*%
%ADD29RoundRect,0.038000X-0.250000X-0.250000X0.250000X-0.250000X0.250000X0.250000X-0.250000X0.250000X0*%
%ADD30RoundRect,0.038000X-0.250000X0.250000X-0.250000X-0.250000X0.250000X-0.250000X0.250000X0.250000X0*%
%ADD31RoundRect,0.169000X-0.844000X-0.169000X0.844000X-0.169000X0.844000X0.169000X-0.844000X0.169000X0*%
%ADD32RoundRect,0.261176X0.626824X0.776824X-0.626824X0.776824X-0.626824X-0.776824X0.626824X-0.776824X0*%
%ADD33O,1.776000X2.076000*%
%ADD34RoundRect,0.038000X0.800000X-0.800000X0.800000X0.800000X-0.800000X0.800000X-0.800000X-0.800000X0*%
%ADD35C,1.676000*%
%ADD36RoundRect,0.038000X0.850000X0.850000X-0.850000X0.850000X-0.850000X-0.850000X0.850000X-0.850000X0*%
%ADD37C,1.776000*%
%ADD38RoundRect,0.038000X-0.850000X-0.850000X0.850000X-0.850000X0.850000X0.850000X-0.850000X0.850000X0*%
G04 APERTURE END LIST*
D10*
X114300000Y-95695000D03*
X114300000Y-97345000D03*
X99060000Y-108175000D03*
X99060000Y-109825000D03*
X120650000Y-117920000D03*
X120650000Y-119570000D03*
D11*
X95700000Y-114935000D03*
D12*
X95700000Y-112395000D03*
X98240000Y-114935000D03*
X98240000Y-112395000D03*
D13*
X122500000Y-91500000D03*
D14*
X112395000Y-123190000D03*
X110845000Y-123190000D03*
D15*
X107188000Y-106111000D03*
X107188000Y-108011000D03*
D16*
X115250000Y-106045000D03*
X113350000Y-106045000D03*
D10*
X110490000Y-98235000D03*
X110490000Y-99885000D03*
X114681000Y-123000000D03*
X114681000Y-124650000D03*
D13*
X94000000Y-138500000D03*
D17*
X121500000Y-137000000D03*
D18*
X108585000Y-111950000D03*
X108585000Y-110300000D03*
D19*
X104370000Y-125985000D03*
D20*
X102870000Y-126072500D03*
D19*
X101370000Y-125985000D03*
D21*
X114300000Y-93497500D03*
X114300000Y-91922500D03*
D22*
X96535000Y-132715000D03*
D23*
X95235000Y-132715000D03*
D24*
X111125000Y-132780000D03*
X109855000Y-132780000D03*
X108585000Y-132780000D03*
X107315000Y-132780000D03*
X107315000Y-137730000D03*
X108585000Y-137730000D03*
X109855000Y-137730000D03*
X111125000Y-137730000D03*
D11*
X106045000Y-120015000D03*
D12*
X108585000Y-120015000D03*
X111125000Y-120015000D03*
X113665000Y-120015000D03*
X116205000Y-120015000D03*
D25*
X118500000Y-130700000D03*
D17*
X121500000Y-96000000D03*
D26*
X98300000Y-103465000D03*
X98300000Y-98465000D03*
D27*
X102050000Y-103415000D03*
X102050000Y-98465000D03*
D28*
X97200000Y-106165000D03*
X97200000Y-95765000D03*
D27*
X102050000Y-100965000D03*
D10*
X120650000Y-110300000D03*
X120650000Y-111950000D03*
X120650000Y-114110000D03*
X120650000Y-115760000D03*
D29*
X96182000Y-119380000D03*
X98382000Y-119380000D03*
D10*
X107315000Y-96775000D03*
X107315000Y-98425000D03*
D15*
X102235000Y-136210000D03*
X102235000Y-138110000D03*
D17*
X121500000Y-106000000D03*
D16*
X104455000Y-123825000D03*
X102555000Y-123825000D03*
D30*
X104775000Y-99230000D03*
X104775000Y-101430000D03*
D13*
X98000000Y-92000000D03*
D15*
X110363000Y-104079000D03*
X110363000Y-105979000D03*
D13*
X117000000Y-138000000D03*
D15*
X104140000Y-132400000D03*
X104140000Y-134300000D03*
D17*
X121500000Y-124000000D03*
D31*
X112460000Y-109220000D03*
X112460000Y-110490000D03*
X112460000Y-111760000D03*
X112460000Y-113030000D03*
X112460000Y-114300000D03*
X112460000Y-115570000D03*
X112460000Y-116840000D03*
X117410000Y-116840000D03*
X117410000Y-115570000D03*
X117410000Y-114300000D03*
X117410000Y-113030000D03*
X117410000Y-111760000D03*
X117410000Y-110490000D03*
X117410000Y-109220000D03*
D32*
X98405000Y-135890000D03*
D33*
X95905000Y-135890000D03*
D34*
X107950000Y-129540000D03*
D35*
X107950000Y-126040000D03*
D36*
X102870000Y-118110000D03*
D12*
X102870000Y-120650000D03*
D36*
X114691200Y-134212000D03*
X122300000Y-129400000D03*
D37*
X122300000Y-131940000D03*
X114680000Y-131940000D03*
X114680000Y-129400000D03*
D38*
X95700000Y-129540000D03*
D12*
X98240000Y-129540000D03*
X95700000Y-127000000D03*
X98240000Y-127000000D03*
X95700000Y-124460000D03*
X98240000Y-124460000D03*
D37*
X114691200Y-126617400D03*
M02*
